<?xml version="1.0" encoding="utf-8"?>
<!-- Generator: Adobe Illustrator 20.1.0, SVG Export Plug-In . SVG Version: 6.00 Build 0)  -->
<svg version="1.1" id="Layer_1" xmlns="http://www.w3.org/2000/svg" xmlns:xlink="http://www.w3.org/1999/xlink" x="0px" y="0px"
	 viewBox="0 0 97.1 222.9" style="enable-background:new 0 0 97.1 222.9;" xml:space="preserve">
<style type="text/css">
	.st0{fill:#C14803;}
</style>
<title>afromontane</title>
<path class="st0" d="M90.2,43.9L89,44.4h-2.6l-0.5-1.9l0.5-2.4v-1.4l-1-2.6l-0.5-1.4L84,32.9l-1-3.6l0.5-1.9l-0.2-2.2l-0.5-0.5
	l-0.5-1.2l-1.4-0.7l-1-1.2l-0.5-1.7l-1-1.7l-1.7-2.4l-1.4-0.7l-2.2-1.7L71,11.8l-1.2-0.5l-1.4-1.2l-1.2-2.4V6.2L66,5.8l-1-0.2
	l-1.2-0.2l-0.5-1l-0.5-3.1l1-0.7l0.7,0.7v0.5l2.4,1l0.7,1.7l1.4,0.7l2.2,1l1.4,1.7l1.2,1.4l0.2,1.2l0.5,1l1.2,1.2l1.4,1l1.2,1l1,1.4
	l0.2,0.2l1,2.6l1.7,1.2h3.4l1,0.7V23l0.2,2.4v3.1l0.5,5.5l1.2,2.6l1.7,1.7l2.6,1.9l2.4,1l1.4,1v1.2l-2.8,0l-1.4,0.2L90.2,43.9z
	 M46.5,2.4h-0.2V2.2L46,1.7V1.5l-0.2-0.2V1H46l0.2,0.5l0.2,0.2v0.5h0.2L46.5,2.4z M47.2,2.2h-0.5V1.5H47l0.2,0.2L47.2,2.2L47.2,2.2z
	 M46.5,3.6h-0.2V3.1h0.5v0.5H46.5z M45.8,3.6h-0.2l-0.2-0.2V3.1h0.2l0.2,0.2V3.6z M51.1,19.2l-0.2,0.2h-0.2L50.3,19v-0.5l-0.5-0.2
	v-0.7l0.2-0.2v-0.2h0.2l0.5,0.2l0.2,0.2V18l0.2,0.2l-0.2,0.2L51.1,19.2L51.1,19.2z M56.1,23.3h0.2l0.2,0.2l0.2,0.5v1l0.5,1.2v1.2
	l0.2,0.7l0.2,0.2l0.2-0.3l0.2,0.2l0.2,0.2L58,29.1v0.2l0.2,0.5l0.2,0.5v1.4l0.2,0.5l0.2,0.2h0.5l0.2,0.2l0.2,0.5l0.2,0.5v0.5
	l0.2,0.2l0.5,0.5l0.2,0.2l0.2,0.5v0.2l0.5,0.5l0.2,0.5l0.2,0.2h0.2l0.2-0.2h0.5l0.2,0.2v0.5l0.2,0.2l0.5,0.2l0.2,0.2l0.2,0.5v1
	l0.2,0.2l-0.2,0.5h-0.2l0.2,0.5l0.2,0.2l0.2,0.5l0.2,0.5l0.2,0.5l0.5,0.5l0.2,0.5v0.7l-0.2,0.7v0.5l-0.2,0.5v1.7l-0.2,0.7V49l-0.2,1
	l-0.2,1v3l0.2,0.5l0.2,1l0.2,0.5l0.2,0.2l0.5,0.2l0.7,0.5l0.2,0.5l-0.2,0.7l-0.2,0.5v0.5l0.2,0.5V60l0.2,0.7V61l0.2,0.2v2.4
	l-0.2,0.5l-0.2,0.7v0.7L67.1,66v1.2l-0.2,0.5l-0.2,0.5l-0.2,0.2v0.2L66,68.9l-0.5,0.2L65,69.4v1l-0.5,0.5l-0.5,0.7l-0.5,0.2l-1,0.5
	l-0.7,0.2L61.4,73l-0.2,0.2l-0.2,0.5l-0.2,0.5l-0.2,0.2L60,74.9v0.7l-0.5,0.2l-0.7,0.2l-0.7,0.5l-0.2,0.2l-0.2,0.5L57.4,78v1.4
	l-0.2,0.7l-0.2,0.7v1h-0.2l-0.2,0.2l-0.2,0.2l-0.2,0.2v0.7l-0.5,1v0.2l-0.2,0.2L55,85.1v0.2l-0.2,0.2v0.2L54.5,86v0.2h-0.2v0.5
	l0.2,0.2l0.2,0.2v0.7l-0.2,0.5l-0.2,0.2h-0.5l-0.5-0.2h-0.5l-0.2-0.2l-0.2-0.2v-0.5L52,86.9l-0.2-0.5l-0.2-0.5l-0.2-0.2L51,85.9
	l-0.2,0.5l-0.2,0.2l-0.5,0.2l-0.2,0.2h-0.5v-0.5l-0.2-0.2v-0.5l-0.5-0.2v-0.2l-0.2-0.2V85h-0.7l-0.2-0.2v-1.2l0.2-0.2l0.5-0.2
	l0.2-0.2h0.5l0.5-0.5l0.2-0.2l0.2-0.2h-0.5l-0.2,0.2l-0.2,0.2H48v-1l-0.2-0.5l-0.2-0.5L47,80.2l-0.2,0.2v0.2l-0.2,0.2l-0.2,0.5v0.7
	L46,82.6v0.5l-0.2,0.7v0.7l-0.2,0.7l-0.5,0.5h-0.5l-0.2,0.2h-0.7l-0.5-0.2l-0.7-0.2v-0.2l-0.2-0.5l0.2-0.5l0.5-0.2l0.2-0.5l0.7-0.5
	l-0.2-0.5h-0.2l-0.2,0.2h-1.4l-0.2-0.5v-1l-0.2-0.5v-1.2l0.5-0.2l0.5-0.2v-0.5L42,78.5L41.7,78l-0.2-0.2l-0.2-0.5L41,76.8l-0.2-0.5
	v-0.5l0.2-0.5l0.2-0.2v-1l0.2-0.2l0.5,0.2l0.5,0.2h0.5v-0.2l-0.5-0.5l-0.2-0.2v-0.2l0.2-0.2l0.2-0.5h0.7l0.2-0.2L43.4,72h-1.7
	l-0.5,0.2l-0.5,0.2l-0.5,0.2h-0.5l-0.2-0.2l-0.2-0.2V72l-0.2-0.2v-1.2l-0.2-0.5l0.2-0.5l0.2-0.2l0.5-0.5h0.5l0.5,0.2l0.5-0.2
	l0.5-0.2h0.5l0.2,0.5l0.5-0.2l0.2-0.2l-0.2-0.2l-0.5-0.2L42,67.9h-0.5l-0.2-0.2l0.2-0.2l0.2-0.2v-0.5l0.2-0.2v-0.2L41.7,66l-0.2-0.2
	v-1.7l0.2-0.5v-0.5l0.2-0.5h0.2v0.5l0.2,0.5l0.5,0.5l0.5,0.2l0.5,0.2v0.2l0.5-0.2l0.2,0.2h0.2l0.5,0.2h0.2l0.2,0.5L46,66l-0.2,0.2
	V67l0.2,0.2l0.2,0.5l0.2,0.2l0.2,0.5v0.5l0.2,0.5l0.2,0.5l0.2,0.2l0.2-0.2v-0.2l0.2-0.5v-0.5l-0.2-0.5v-0.5l0.2-0.2h0.5l0.2,0.2
	l0.2,0.2h0.5v-0.5l0.5-0.2l0.2-0.2h-1l-0.2-0.2h-0.2l-0.5-0.2h-0.5l-0.2-0.2L47.2,66L47,65.8l-0.2-0.7l-0.2-0.2l-0.2-0.5v-0.5
	l0.7-0.5h0.2l0.2-0.5l0.2-0.2l0.2-0.2l0.2-0.2v-0.5H48l-0.2,0.2l-0.5,0.2l-0.5,0.2l-0.5,0.2l-0.5,0.5h-1.2l-0.5-0.5l-0.2-0.2
	l-0.2-0.5V60l0.2-0.5l0.2-0.5l0.5-0.2h0.7l0.5,0.2l0.5,0.2v0.5l0.2,0.2v0.5H47v-1.4l0.5-0.2H48l0.5-0.2v-0.2l0.2-0.5v-0.5l0.2-0.2
	l-0.2-0.2h-0.2l-0.2,0.2L48,57.4l-0.5,0.2L47,57.9l-0.2,0.2h-1v-0.2l-0.2-0.2l-0.2-0.2v-1.4l0.2-0.2v-0.2l0.2-0.5v-0.2H47l0.2,0.2
	L47,54.7l-0.2-0.2V54l0.2-0.2l0.2-0.2l0.5-0.2L48,53l0.5,0.2h0.7l0.2-0.2h0.2l-0.2-0.2h-0.2L48.7,53v-0.5l0.2-0.2l0.2-0.2h0.2
	l0.2-0.2l0.2-0.2l0.2-0.2v-0.7l0.2-0.2v-0.5l0.5-0.2h0.2v-0.2l-0.2-0.2h-0.7L49.9,49l0.2-0.5v-0.2h1l0.2-0.2l0.2-0.5l0.2-0.2
	l0.2-0.2l0,0l-0.2-0.5v-1l-0.2-0.5l0.2-0.5v-0.5h-0.2l-0.2-0.2v-0.5h1l0.2-0.2h0.2l0.2,0.5l0.5,0.5l0.2,0.5l0.5,0.5l0.2,0.5v0.7
	l0.2,0.2l0.2-0.2l0.2-0.2l0.5-0.2h0.5l0.2,0.2l0.2-0.5l-0.2-0.2v-0.2l0.5-0.2h0.7l0.2-0.2h1l0.5,0.2l0.2,0.7l0.2,0.2v0.7l0.2,0.5
	v0.7l0.2-0.2l0.2-0.5l0.2-0.2l0.2-0.2l-0.2-0.2H60l0.2-0.2l0.5-0.2h1l-0.5-0.2h-0.7L60,45.4l-0.5-0.2l0.2-0.2H61l0.5-0.2l0.2-0.2
	l0.2-0.2l0.2-0.2l0.2-0.2h-0.7l-0.5-0.2L61,43.7l-0.2,0.2h-0.5L60,44.2h-0.2l-0.2,0.2H59l-0.2-0.2l-0.5-0.2H58l-0.5-0.2l-0.2,0.2
	L57,44.4h-0.5l-0.2-0.5v-1.4l0.2-0.2l0.2-0.2l-0.2-0.2l-0.5-0.5l-0.2-0.2l-0.2-0.5v-0.7l0.2-0.2h0.5l0.2,0.2v0.7l0.2,0.2v-1h0.5v0.5
	l0.2,0.5l0.2,0.2l0.2-0.2v-1.2l-0.5-0.2l-0.2-0.2v-0.2l0.2-0.2l0.2-0.5l-0.2,0.2H57l-0.2-0.2v-0.2l0.2-0.5h1.2V37h0.2l-0.2-0.5v-0.7
	L58,35.3v-1l-0.2-0.5v-0.5l-0.2-0.7l-0.2-0.5v-0.4l0.2-0.2L57,31.2L56.8,31l-0.2-0.5v-0.7l-0.2-0.7v-0.7l-0.2-0.5l-0.2-0.5l-0.2-0.2
	l-0.2-0.2h-0.5v-0.7l-0.2-0.5l0.2-0.5L54.7,25l-0.2-0.2l-0.2-0.5L54,24l0.2-0.5l0.2-0.2l0.2-0.2l0.2-0.2h0.7l0.2,0.2L56.1,23.3z
	 M84.2,64.8v0.2L84,65.5V66l-0.2,0.5V67l0.2,0.5V68l0.2,0.2l0.2,0.5v0.5l0.2,0.2v0.5l-0.2,0.2H84l-0.5-0.2L83,69.1l-0.2-0.2
	l-0.5-0.2v0.2l0.2,0.5l0.2,0.5l0.5,0.5l0.5,0.2l0.2,0.2v0.5l-0.2,0.2h-0.5L83,71.3l-0.2-0.7l-0.5-0.2L82,69.9l-0.2-0.5l-0.2-0.2
	L81,68.7v0.2l0.2,0.5v0.2l0.2,0.2l0.2,0.5l0.5,0.2v1.2H82l-0.5-0.2v-0.2h-0.2L81,71.5v-0.5l-0.2-0.5l-0.2-0.5v-0.5l-0.2-0.5
	l-0.2-0.5v1.2l0.2,0.2v0.2l-0.2,0.2h-0.2l-0.2-0.2l-0.2-0.2v-0.5l-0.2-0.5v-0.5l-0.2-0.5v2.9h-0.5v-0.2l-0.2-0.7L78,69.9v-0.2
	l-0.2-0.2v-0.2l-0.2,0.2v1.2l-0.2,0.2L77,70.6l-0.5-0.2h-1L75,70.6l-0.5,0.2h-0.2l-0.2,0.5v0.2l-0.2,0.2h-1.4l-0.2-0.2H72l0.2,0.2
	l0.2,0.2l-0.2,0.2H72l-0.2,0.2h-0.5L71,72v1.2h-0.5l-0.2-0.5L70,72.5h-0.2v1.2l0.2,0.5v0.7l0.2,0.2l0.5,0.2h1.7l0.5,0.2v1l-0.2,0.5
	v0.2h1l0.2,0.2l0.2,0.2l0.2,0.5v0.5l-0.2,0.5h-1.7l-0.5,0.2l0.2,0.2l0.2,0.2h0.2l0.5,0.2l0.2,0.2v0.2h-0.5l-0.5,0.2L72,80.7
	l-0.2-0.2l-0.2,0.2l0.2,0.5v0.7l-0.2,0.2v0.5l-0.2,0.5v1.4L71,85v0.2h-1.2L69.3,85l-0.7-0.2h-0.5l-0.2-0.5v-0.5l0.2-0.5v-0.7
	l0.2-0.2v-0.5l-0.2-0.2l-0.2,0.5l-0.2,0.2l-0.2,0.2v0.2l-0.2,0.2l-0.2,0.5V84l0.2,0.2l0.2,0.2l0.2,0.2V85l-0.2,0.2h-0.7L66.2,85
	h-0.5v0.5l0.2,0.2h0.5l0.5-0.2h0.5l0.5,0.2h0.5l0.2,0.2v0.5l-0.2,0.2l-0.2,0.5H66v0.2l-0.2,0.2l0.2,0.2l0.2,0.2l0.5,0.2l0.2,0.2
	l-0.2,0.5l-0.2,0.2l-0.2,0.5h-1.5l-0.5-0.2v-0.5L64,89.3v0.2l-0.7-0.7H63l-0.2-0.2l-0.5-0.2l-0.2-0.2v-0.2l-0.2-0.5v-0.2l-0.2,0.2
	l-0.5,0.5l-0.2,0.7l-0.2,0.5l-0.2,0.5L60.2,90l-0.5,0.7l-0.2,0.7v1l-0.2,0.5v0.5l-0.5,0.5l-0.5,0.5h-0.7l-0.2-0.7l0.2-0.5v-0.5
	L57.3,92L57,91.5l-0.2-0.2V91l0.5-0.2l0.2-0.2l0.2-0.2V90l-0.2,0.2H57L56.8,90l-0.2-0.5v-0.2l-0.5-0.5l-0.5-0.2v-1.9l0.2-0.5v-0.5
	l0.2-0.7v-0.5l0.5-0.5h0.2l0.2-0.5l0.7-0.5l0.2-0.2v-0.2l0.5-0.5l0.2-0.7l0.5-0.7l0.2-0.5v-0.2l0.2-0.5l0.5-0.5l0.2-0.7l0.5-0.7
	l0.2-0.2v-0.2h0.2v-0.5h-0.2l0.2-0.7l0.2-0.2l0.5-0.5v-0.7l0.2-0.5v-0.5l0.5-0.2h0.5l0.5-0.2l0.5-0.5l0.7-0.2l0.5-0.5v-0.2l0.5-0.2
	l0.5-0.5l0.7-0.5l0.7-0.7l0.5-0.7l0.7-0.7l0.5-0.5l0.7-0.5l0.5-0.5l0.7-0.5l0.7-0.2l1-0.2l1-0.2l0.7-0.2l0.7-0.2l0.7-0.2h0.5
	l0.5,0.2v0.7l0.2-0.2h0.7v0.2h0.2l0.2-0.2h0.5l0.5-0.2l0.2-0.2h0.5v0.2h0.2l0.2-0.2l0.5-0.2h1l0.5,0.2l0.2-0.2v-0.2l-0.5-0.2
	L82,64.1l-0.7-0.7L81,62.9v-0.5l0.2-0.5l0.2-0.2h1.2l0.7,0.2l0.2,0.5l0.2,0.2v0.2l-0.5,0.2L83,63.4h0.2l0.2,0.5h0.2l0.2,0.5
	L84.2,64.8z M34.3,93.4h0.5l0.2-0.2h0.2v0.2l0.2,0.2v0.5h0.2v0.7H36v0.7h-0.2v0.2h-0.2v-0.2H35v-0.2h-1l-0.2-0.2h-0.2v-0.2h-0.2
	v-1.2H33l-0.2-0.2v-0.5h1v0.2H34v0.2H34.3z M31.6,93.6v0.2h0.5v0.5h0.2v0.7h-0.2v0.2l-0.2,0.2h-0.5v-0.2h-0.2v-0.7h-0.2v-0.5h0.2
	v-0.2h0.2v-0.2L31.6,93.6z M33.1,93.9v0.2l0.2,0.2l-0.2,0.2h-0.2v-0.2h-0.2v-0.2h-0.2l0.2-0.2C32.6,93.9,33.1,93.9,33.1,93.9z
	 M59,95.5h-0.5v-0.7h0.2l0.2-0.2v0.2h0.2v0.5L59,95.5z M30.7,95.3l0.2,0.2l0,0h0.5v0.2l0.2,0.2v0.5l-0.2,0.2h-0.5v0.5h-0.2v0.2h-0.5
	v-0.2h-0.7v-0.5H30v-0.5h-0.5L29.2,96H29v-0.2h-0.2v-0.5h0.7v0.2l0.2,0.2h0.5v-0.2H30v-0.5h0.5v0.2L30.7,95.3z M35,99.1h-0.7v0.7
	h-0.5v-1l0.2-0.2l-0.2-0.5v-0.2l-0.2-0.5L33.3,97v-0.5h0.2l0.5,0.2V97h0.2v0.2l0.2,0.5V98l0.2,0.2H35V99.1L35,99.1z M37.4,99.9h-0.2
	l-0.2-0.2v-1.4h0.2l0.2,0.2v0.2l0.2,0.2l-0.2,0.5V99.9z M51.8,103h-0.2l-0.2-0.2v-0.5h0.5C51.8,102.3,51.8,103,51.8,103z
	 M26.6,103.7l1,0.7v1.2l-0.5,1l-1.7,0.7l-1,1l-1,0.7l-0.7,1l-0.2,2.2l-1.4,1.4l-0.7,1.2h-1.6l-0.5,0.7l-0.5,1.2v1.2l-1.2,1.4
	l-1.4,1.2v0.7l0.5,1.2l-0.5,1.9l-0.7,0.7l-1.2-0.2l0.2,1.2v1.7l-0.7,0.7l0.2,1.2l0.5,2.4l0.5,1.9v2.6l0.5,1.4l0.2,1.2v1.2l0.2,1.2
	l0.7,1l0.2,1l0.2,1.7l0.7,1.9l0.5,1l1,1l0.7,1.2l0.5,0.2l0.2,1l-1-0.2H18l0.2,0.5l0.5,1.4l0.7,0.5l0.5,0.5l1,1.2l1,0.2v0.1l0.2,0.2
	l0.5,0.5l1,0.7l0.2,0.7l0.2,0.5l0.7,0.5l-0.5,0.5l-0.5,0.2h-1l-1,0.2l-0.2,0.7l1,1.2l-0.7,1.9l-1,0.2l-1.4,0.5l-1.9,0.2h-2.2
	l-2.4-0.7l-2.6-1.4l0.5-1.2l1-0.7l-0.7-1.4l-1.9-0.7l-1.7-1.4v-1.7l1-1.9l0.7-2.4l-0.5-3.8l-1-1.9H5L4.3,144l0.5-2.4l1.4-0.5
	l2.2,2.4l-1.2-3.4l-1.7-1.9l-1.9,0.5L2.1,137l-0.7-2.4l0.5-2.6l0.7-1.4l-2.2-3.8l1.2-2.2l2.9,0.7l1-1.7v-3.8l0.5-3.1l2.2-1l0.2-1.9
	l-0.5-1.2l0.7-1.2l0.5-1.2l-0.7-2.9l3.1-2.4l2.2,1l0.7,1.4l1.2,2.9l0.7-3.8l0.5-1.2l1-1l1.4-1l2.4-0.2h1.7l1.9,0.5L26.6,103.7z
	 M22,105.4h-0.2v0.2h-0.2v0.5H21v0.2h-0.2l-0.2,0.2h-0.2v0.2h-0.5v0.5h-0.2v0.2h-0.5v0.2h-0.2v0.2h-0.2v0.2l-0.2,0.2h-0.2v0.2H18
	v0.5h-0.2v0.5h-0.2v0.5h0.2v0.2l0,0l0,0H18v1h0.2l0,0h0.2v-0.2h0.2v-0.2H19v-0.2h0.2v-0.5l0.2-0.5h0.5v-0.2l0.2-0.2V109h0.2v-0.2
	h0.5v-0.2h0.5l0.2-0.2h0.2V108H22v-0.2h0.2v-0.5h0.2V107h0.2v-0.7l0,0v-0.5h-0.2v-0.2h0.2l-0.2-0.2v-0.7H23v-0.2h-0.2v0.2h-0.2
	l-0.2,0.2v0.2H22V105.4z M10.5,138.3v0.2h-0.2l0.2,0.2v0.5h-0.2v0.2h0.2v0.2h0.2V139H11v-0.7l0.2-0.2v1.2l-0.2,0.2v1h-0.2v0.2
	l-0.2,0.2v2.4h-0.2l0.2,0.2v0.7h0.2v0.5H11v0.2l0.2,0.2v0.2h0.2v0.2l0.2,0.2v0.5l0,0v0.7h-0.2v0.5h-0.2v0.2h-0.5v1h0.5v0.5h0.2v0.5
	l0.2,0.2v0.5H12v0.4h0.2v0.2h0.2l-0.2,0.2v0.2l0.2,0.2v0.5h0.2v0.2h0.5v0.5h0.2v0.2h0.2v0.5h0.2l0.2,0.2h0.7v0.2h0.2v0.2h0.2v0.2
	h0.2v0.2h0.2v0.7L16,156v0.7h-0.2v0.3H16v0.5h0.2v0.7h0.5v0.2l0.2,0.2v0.2h0.5v0.2h0.2v0.5H18l-0.2,0.2v0.7h-0.5v0.2l-0.2,0.2v0.2
	h0.2v0.2h0.5v0.2h-0.2v0.2h0.2v-0.2H18v-0.2h0.2l0,0h0.2v0.2H19v0.2h0.2v0.2h0.2v0.2h0.2v0.2h0.2v0.3h0.5v-0.2h0.2l0,0h0.2v-0.5h0.2
	V162h-0.2v-0.2l-0.2-0.2v-0.2l0.2-0.2h-0.2v-0.2h-0.2v-0.2h-0.2v-0.2h-0.2v-0.5h-0.2v-0.2h0.2v-0.2h-0.2v-0.2l-0.2-0.2v-0.2h-0.2
	v-0.5H19v-0.5h-0.2v-0.5l-0.2-0.2h-0.2v-0.5H18v-1h0.2l-0.2-0.2v-0.5h-0.2v-0.5h-0.2v-0.2H18v-0.7l-0.2-0.2h-0.2v-0.2h-0.2v-0.2H17
	v-0.7h-0.2v-0.2h-0.2v-0.2h-0.2v-0.2H16V151h-0.2v-0.2H15v0.2h-0.2v-0.2h-0.5v-0.2h-0.2v-0.2h-0.2v-0.5h-0.2v-1.2l0.2-0.2h0.5v-0.2
	h0.2v-0.2h0.2v-0.7h-0.2v-0.5h-0.2v-0.5l-0.2-0.2l-0.2-0.2v-0.2h-0.2v-0.2h0.2v-0.7h0.2v-1.2h-0.2v-0.5h-0.5v-0.2h-0.2v-0.5h-0.2
	v-0.2h0.2v-1h0.2v-1l-0.2-0.2l-0.2-0.2v-0.2l-0.2-0.2v-0.5h-0.2V138h-0.2v-0.7H12v-0.5l-0.2-0.2v-2.2h-1v1.9h-0.2v1.4l-0.2,0.2h0.2
	L10.5,138.3z M41,103.3h0.5v0.2l0.2,0.2v0.2l-0.2,0.2v0.2H41l-0.2-0.2v-0.7L41,103.3z M57.5,104.9h-0.5v-0.5h0.5l0.2,0.2L57.5,104.9
	z M51.3,105.7h-0.2l-0.2-0.2v-0.2l0.2-0.2v-0.2h0.2V105.7L51.3,105.7z M38.1,106.4l-0.2,0.2v-0.7h-0.2l0.2-0.2h0.2l0.2,0.2v0.5H38.1
	z M51.1,106.1l0.2,0.2l-0.2,0.2l-0.2,0.2v0.2l0.2,0.2l0.2,0.2l0.2,0.2l-0.2,0.2l-0.2,0.2h-0.2l-0.2-0.2l-0.2-0.2v-0.5l-0.2-0.2v-0.2
	h0.2l0.2-0.2l0.2-0.2l-0.2-0.2h-0.2v0.2h-0.2v-0.5h0.5l0.2,0.2L51.1,106.1z M44.4,114.8l0.2,0.5l0.5-0.2l0.2-0.5l0.2-0.5v-1.2
	l0.2-0.2v-0.2H46v0.7l-0.2,0.5v1.7h-0.2l-0.2,0.5v0.2l-0.2,0.2v0.5l-0.2,0.2l0.2,0.7l0.2,0.5l0.7,0.5l0.2,0.5l0.5,0.2l0.2,0.5
	l0.2,0.2l0.5,0.5v0.5h-0.2v0.2l0.2,0.2v0.2l-0.2,0.2l-0.2,0.2v0.2l-0.2,0.5v0.5l-0.2,0.2l-0.2-0.2l-0.2-0.5l-0.5-0.2l-0.5-0.2h-0.7
	l-0.5,0.2l-0.5,0.2l-0.5,0.5h-0.2l-0.2-0.2l0.2-0.2l0.2-0.2l0.2-0.2v-0.2h-0.5l-0.5,0.2l-0.5,0.5l-0.5,0.2l-0.2,0.5l-0.7,0.2H40
	l0.2-0.2v-0.2l0.2-0.2v-0.5h-0.2v-0.2l-0.2-0.2v-0.5l0.2-0.2h0.2V121l-0.2-0.2v-0.5l0.5-0.2l0.5-0.5l0.2-0.2l0.2-0.5l0.2-0.2
	l0.2-0.2v-0.2l0.2,0.2l0.2,0.2l0.2,0.2h0.5l0.2-0.2l0.2-0.2l-0.2-0.5l-0.2-0.2l-0.2-0.2v-0.5l-0.2-0.2h-0.5l-0.5,0.2l-0.2-0.5V116
	l0.2-0.5V115l0.2-0.5v-1.2l0.2-0.2v-0.2l0.2-0.5l0.2-0.2l-0.2-0.5v-0.2l-0.2-0.2v-0.7l-0.2-0.2l-0.2-0.2l0.2-0.2l0.2-0.5v-0.5
	l0.2-0.2v-0.2l0.2-0.2l0.5-0.5v-1l0.2,0.2v1.9l-0.2,0.2l-0.2,0.2v0.2h0.7l0.2,0.2l0.5,0.2l0.2,0.2l0.2,0.2l-0.2,0.5v1l-0.2,0.7v0.2
	l-0.2,0.5v0.7l-0.2,0.2v0.2L44.4,114.8z M53.3,107.8v0.2l-0.5-0.2h-0.2l-0.2-0.2l-0.3-0.2h-0.2v-0.2H52v-0.2l0.2,0.2h0.5l0.2,0.2
	h0.2l0.2,0.2v0.2H53.3z M40.5,107.1h0.2v0.2l-0.2,0.2l-0.2,0.2v0.7H40v-0.2h-0.7L39,108l0.2-0.2h0.2l0.2-0.2l-0.2-0.2h-0.2v-0.2
	L40.5,107.1L40.5,107.1z M54,111.6h-0.2v-1h-0.2v-0.7l-0.2-0.2V109l0.2,0.2l0.2,0.2v0.5l0.2,0.5V111.6L54,111.6z M39.8,109.7H40v0.2
	h0.2v0.5l0.2,0.2v0.7h-0.2v0.5H40v0.2h-0.2v0.2h-1.2v-0.2h-0.5v-0.2h-0.2v-0.2h-0.2v-1h0.2v-0.5h0.2v-0.5h1v-0.2h0.2v0.2L39.8,109.7
	L39.8,109.7z M51.3,118.6l0.7,0.2l0.2-0.2v-2.2l-0.2-0.2l-0.2-0.2l-0.2-0.5v-0.7l0.2-0.2l0.2,0.2v0.3l0.2-0.2V114l0.2-0.2H53v1.9
	l0.7,0.2l0.2,0.2h1l0.2-0.2h0.2l0.2-0.2l0.5-0.5l0.2-0.2l0.5-0.5l0.2-0.2l0.2-0.2l0.2,0.2v0.5l-0.5,0.2v0.5l-0.2,0.2l-0.2,0.7
	l-0.2,0.2h-1l-0.2,0.2v1.2l-0.2,0.7l-0.2,0.5l-0.5,0.2h-1.5l-0.5,0.2l-0.2,0.5v1l-0.2,0.5v0.2l-0.5,0.5l-0.5,0.5l-0.2,0.2l-0.2,0.2
	h-0.2l-0.2-0.2l-0.2-0.5V122l-0.2-1.2l-0.2-0.7l-0.5-0.7l-0.5-0.5l-0.5-0.2l-0.2-0.2V116l0.2-0.2v-0.5L48,115v-0.2l0.2-0.5v-0.5
	l0.2-0.2l0.2-0.2H49v1.2l-0.2,0.5v0.7l0.5,0.2l0.5,0.5l0.2,0.5l0.2,0.7l0.2,0.2l0.5,0.5L51.3,118.6z M44.8,125.6l0.2,0.2v-0.2
	l0.2-0.2v-0.2h0.2v-0.2l0.2,0.2l0.2,0.2l0.2,0.2h0.5v0.2l0.2,0.5l-0.2,0.5v0.5l-0.2,0.2l-0.2,0.2H46l-0.2,0.2h-0.2l-0.2-0.2H45v0.2
	h-0.2v0.2h-0.5l-0.2-0.2l-0.5-0.2l-0.2-0.5l-0.2-0.2v-0.5l0.2-0.2l-0.2-0.2v-0.2h0.2v-0.2l0.2,0.2v0.2l0.2,0.2v-0.5l-0.2-0.2
	l0.2-0.5h0.2v-0.2h0.2l0.2,0.2l0.2,0.2L44.8,125.6z M51.8,131.3l-0.2,0.2h-0.7v-0.5h0.7l0.5-0.2v-0.2h0.5v0.5h-0.2l-0.2,0.2H51.8z
	 M56.8,131.8l0.2,0.2h-0.5l-0.2-0.2l-0.2-0.2l-0.2-0.2v-0.5h0.2l0.2,0.2l0.2,0.2l0.2,0.2L56.8,131.8z M45.1,134.5h-0.5l-0.2,0.2
	h-0.7l-0.2-0.2l-0.2-0.2v-0.5l-0.5-0.2v-0.2l0.5-0.2h0.2l0.2-0.2l0.2-0.2l0.2-0.2l0.2-0.5l0.2-0.2l0.2-0.2h0.2l0.5-0.2H46l0.2-0.2
	l0.2,0.5v0.2l0.2,0.2l-0.2,0.2l-0.2,0.2l0.2,0.2v0.7l-0.2,0.5l-0.2,0.5l-0.2,0.2L45.1,134.5L45.1,134.5z M51.5,133l-0.2-0.2V132
	l0.2-0.2l0.2-0.2v-0.2l0.2,0.2h1.2l0.2-0.2h0.2l0.5,0.2h0.2v0.2h0.5l0.2,0.2v0.7l0.2,0.2v1l-0.2,0.2v0.2l-0.2-0.2h-0.7L54,134h-0.2
	l-0.2-0.2l-0.2,0.2l-0.7-0.2l-0.2-0.2v-0.2L51.5,133z M51.5,133l-0.2,0.5l0.2,0.2l0.2,0.2v0.5h-0.7v0.2h-0.2v0.2h-0.5l-0.2,0.2v-0.2
	h-0.7l-0.2,0.2H48l-0.2-0.2h-0.2v-0.7L48,134v-0.2l0.2-0.2l0.2-0.2h0.2l0.5,0.2h0.5V133H51.5L51.5,133z M59.2,134.9l-0.2,0.2
	l-0.2-0.2l-0.2-0.5v-0.2h1v0.5L59.2,134.9z M54.9,135.4h0.5l0.2,0.2v1.4h-0.7v-1l-0.2-0.5L54.9,135.4z M57.3,140.7l-0.2,0.2
	l-0.2-0.2l-0.2-0.2v-0.2l-0.2-0.2l-0.2-0.2v-0.2l-0.2-0.5v-0.7l-0.2-0.2l-0.2-0.2v-0.5h0.7v0.5l0.2,0.2v0.2l0.2,0.2l0.5,0.2l0.2,0.5
	L57.3,140.7L57.3,140.7z M43.9,139h-0.5v-0.5l0.2-0.2l-0.2-0.2v-0.2l0.2-0.2h0.5v0.2h0.2v0.7l-0.2,0.2v0.2H43.9z M43.4,140.7h-0.2
	l-0.2-0.2l0.2-0.2V140l0.2-0.2h0.5v0.7h-0.2L43.4,140.7z M59.2,140.9l0.5,0.2h0.5l0.2,0.2h0.2v0.2h0.2v0.2h0.2v0.2h0.2v0.5l-0.2,0.2
	v0.2h-0.2v0.5h-0.2v0.2h-0.2v0.2h-1v-0.2h-0.2v-0.2l-0.2-0.2v-0.5l-0.2-0.2l-0.2-0.2v-0.2l-0.5-0.2v-0.2l-0.2-0.7l0.2-0.2v-0.2
	l0.2-0.2h0.5v0.2l0.2,0.2h0.2L59.2,140.9z M54.7,147.6h1v0.7h-0.2l-0.2,0.2h-0.5l-0.2,0.2v0.5l-0.2,0.2v0.2h-1v-0.7h0.2v-0.7h-0.2
	v-0.5l0.2-0.2H54l0.2-0.2h0.2L54.7,147.6z M51.1,150v0.5l0.2,0.2v0.2l0.2,0.2l-0.2,0.2h-0.5l-0.2-0.2v0.5h-0.2v-1l-0.2-0.2h-0.2
	v-0.2h1V150L51.1,150z M56.1,154.1h-0.2v0.2h-0.2l0.2,0.5v0.2l-0.2,0.5l-0.5,0.2h-0.2l-0.2,0.2h-0.5l-0.2-0.2v-0.2l-0.2-0.5v-1.4H54
	l0.2-0.2l0.5-0.2l0.2-0.2l0.5-0.2h0.2l0.2,0.2h-0.2v0.5l0.2,0.2l0.2,0.2L56.1,154.1z M49.6,153.6v0.7l0.2,0.2l-0.2,0.2v1h-0.2v-0.7
	l-0.2-0.2v-1h-0.2v-0.2l-0.2-0.2v-0.5l0.2-0.2h0.5l0.2,0.2C49.6,152.9,49.6,153.6,49.6,153.6z M48.4,154.4l-0.2,0.2l-0.2-0.2h0.2
	v-0.2L48.4,154.4z M48.4,155.4h-0.2l0.2-0.2v-0.7h0.2l0.2,0.2v0.2l-0.2,0.2v0.2L48.4,155.4z M47,156.7h-0.5v-0.5l0.2-0.2v-0.2H47
	l0.2,0.2v0.2l-0.2,0.2V156.7z M49.9,158.7v-0.2h-0.2v-0.2h-0.2v-0.2H48l-0.2,0.2h-0.5v0.2H47v0.2h-0.2v0.2h-0.2v0.2h-0.2v0.2H46v0.2
	l-0.2,0.2v0.5l-0.2,0.2l-0.7,0.5l-0.5,0.7l-0.5,0.7l-0.7,0.7l-0.5,0.2h-0.5l-0.2,0.2l-0.2-0.2h-0.5l-0.5-0.2l-0.2-0.5l-0.2-0.2v-0.2
	H40l0.5-0.2v-0.2l0.2-0.5v-0.2l0.5-0.2l0.2-0.2l0.2-0.2l0.2-0.2l0.2-0.2l0.2-0.2l0.2-0.2l0.2-0.2l0.2-0.2h0.5l0.5,0.2v-0.2l-0.2-0.2
	v-0.7l0.2-0.2h0.2l0.5-0.2l0.5-0.2l0.2,0.2H46l0.2,0.2v0.5l0.5-0.2l0.2-0.2l0.7-0.2l0.5-0.2l0.2-0.2h1.4l0.2,0.2v1.2L49.9,158.7z
	 M33.6,163.7h0.2l0.2-0.2h0.2l0.2,0.2l0.2,0.2l0.2-0.2l0.2-0.2h0.2l0.5-0.2h0.2l0.5,0.2v1h0.2l0.2-0.2l0.2-0.5l0.2-0.2h0.2l0.2,0.5
	l0.2,0.2h0.2l1-0.2l0.5-0.2l0.5,0.2H41l0.2,0.2l0.5,0.2v0.2l0.2,0.5v0.7l-0.2,0.7v0.7l-0.2,0.5l-0.2,0.5l-0.2,0.5l-0.2,0.5l-0.2,0.2
	l-0.5-0.2l-0.5-0.5l-0.2-0.5v0.7h-0.2l-0.2-0.2l-0.2-0.2l-0.2-0.2v0.2l0.2,0.2l0.2,0.5v0.2l-0.2,0.2l-0.5-0.2v-0.2l-0.5-0.2
	l-0.2-0.7l-0.5-0.5l-0.5-0.5l-0.5-0.5l-0.2-0.2l-0.2-0.2l-0.5-0.5l-0.5-0.2h-0.7l-0.5,0.2l-0.5-0.2h-0.2v0.2l0.2,0.5l-0.5,0.2
	l-0.2-0.2l-0.2-0.5l-0.5-0.2l-0.2-0.2v-0.5l0.2-0.2l0.2-0.2h0.5l0.2-0.2h-0.2l-0.5-0.2h-0.5l-0.2-0.5v-0.2l0.2-0.5l0.2-0.5h1.7
	l0.5-0.2l0.2-0.2h0.5v0.5l-0.2,0.2l-0.5,0.2l-0.2,0.2v0.5L33.6,163.7z M49.4,161.7v0.3h0.5v1l-0.2,0.2v0.5h-0.2v0.2h-0.7l0,0h-0.2
	l-0.2-0.2v-1h0.2v-0.5h0.2V162h0.5v-0.2L49.4,161.7z M32.6,167.3h1.2v0.5h-0.5l-0.2,0.2h-1l-0.2-0.2v-0.2l0.2-0.2L32.6,167.3
	L32.6,167.3z M31.4,169.4h-0.5V169l0.5-0.2h0.5v0.5L31.4,169.4z M33.1,169.7l-0.2,0.2h-0.2v-0.5h0.2L33.1,169.7z M33.6,169.7v0.2H34
	l0.2,0.2v0.5l0.2,0.2H35v0.2l0.2,0.2l0.2,0.2l-0.2,0.5v1l-0.2,0.5l-0.2,0.2l-0.5,0.5h-0.7l-0.2,0.2l-0.5-0.2l-0.2-0.2l-0.2-0.2
	l-0.2-0.2l-0.2-0.2l-0.2-0.5l0.2-0.2l0.2-0.2l0.2-0.5l0.5-0.2l0.2-0.5v-0.5l0.2-0.2v-0.7L33.6,169.7z M31.9,170.4l-0.2,0.2v-0.5h0.5
	v0.2L31.9,170.4z M35.7,175.9v0.7H35v-0.5l-0.2,0.2h-0.2l-0.2-0.2v-0.7l0.2-0.5l0.5-0.7l0.2-0.5l0.2-0.2l0.2,0.2L36,174l-0.2,0.5
	l-0.2,0.7v0.5L35.7,175.9z M39.3,174.5l0.2,0.2l0.2-0.2l0.2-0.2h0.5v0.2h-0.2v0.5h-0.7v0.2l0.2,0.2v0.2h-0.2v0.5h-0.2V176h-0.2
	l-0.2-0.2l-0.2-0.2l-0.2-0.2l0.2,0.2l0.2-0.2V175l-0.2-0.2h0.2l0.2-0.2h-0.2l-0.2-0.2l0.2-0.2h0.2l0.2,0.2h0.2L39.3,174.5z
	 M32.6,175.7h-0.2l-0.2-0.2v-1h0.5L32.6,175.7L32.6,175.7z M34.3,179v0.7L34,180l-0.2,0.2l-0.2,0.5v1.4l-0.2,0.2h-0.5l-0.2,0.2h-0.5
	l-0.2-0.5v-0.5l0.2-0.5l0.2-0.5l0.2-0.5l-0.2-0.5V179h0.5v-0.7l0.2-0.5v-0.2l0.2-0.2l0.2-0.2l0.2-0.2l0.2-0.2h0.2l0.2,0.2v0.2
	l-0.2,0.2v0.5l-0.2,0.5l-0.2,0.5v0.2L34.3,179L34.3,179z M33.6,185h-0.2v-0.2l0.2-0.2h0.2l0.2,0.2h-0.2L33.6,185z M33.8,187.4h-0.2
	l-0.2-0.2l0.2-0.2v-0.2h0.2L34,187l-0.2,0.2L33.8,187.4z M35.2,192.4h-0.5l-0.2-0.2l-0.2-0.2v-0.2l0.2-0.2v-0.2h0.7l0.2,0.2l0.2,0.2
	v0.3l-0.2,0.2L35.2,192.4z M36.7,194.8h-0.5v-0.2l-0.2-0.2l-0.2-0.7v-0.5l-0.2-0.2l-0.2-0.2l0.2-0.2H36l0.5,0.2l0.2,0.5l0.2,0.5v0.5
	l-0.2,0.5L36.7,194.8z M36.9,197.5l-0.2,0.2l-0.5-0.2v-1.7l0.2-0.5h0.5V197.5L36.9,197.5z M49.6,196.3h0.5l0.2,0.2v0.5l0.2,0.2h0.2
	l0.2,0.2l-0.2,0.2v0.3h-0.2v0.2l-0.2-0.2h-0.7l-0.2,0.2h-0.5V198h-0.2l-0.2-0.2v-0.2h-0.2V197h0.2v-0.5h0.2v-0.2L49.6,196.3
	L49.6,196.3z M41.7,202.3h-1v-0.5l0.2-0.2h0.7v-0.2H42v-0.2h0.2v0.7L41.7,202.3z M45.6,202h1v0.2h0.2v0.2h0.7v0.5h-0.2l0.2,0.2v0.5
	h0.2v0.5h-0.5V204H47v-0.5l-0.2-0.2h-0.5l-0.2,0.2h-0.2v-0.2h-1.2V203l0.2-0.2v-0.5l0.2,0.2v-0.5l0,0v-0.5h0.5L45.6,202L45.6,202z
	 M42.2,203.7h-0.7V203H42v-0.2h0.2v0.5h0.2v0.2h-0.2L42.2,203.7z M25.6,216.7h-0.5l-0.2-0.2V216l0.2-0.5V215l-0.2-0.5l0.2-0.5v-1.2
	l0.2-0.5l0.2-0.7l0.2-0.2V211l0.2-0.5v-0.2h0.2l0.2,0.2v2.9l-0.2,0.7v1.4h-0.2l-0.2,0.5v0.5L25.6,216.7z M27.8,212.9h-0.2l-0.2-0.2
	v-1.2l-0.2-0.2v-0.5l0.2-0.2h0.2l0.2,0.2l0.2,0.5v0.5l-0.2,1V212.9z M32.6,213.6h-0.5v-0.2l0.2-0.2h0.7v0.2h-0.2L32.6,213.6z
	 M26.4,222.2l-0.2,0.2l-0.5-0.2h-0.5l-0.2-0.2l-0.2-0.2v-0.2l0.2-0.2V221l0.2-0.5v-2.4l0.2-0.2l0.2-0.5l0.2-0.5l0.2-0.2h0.2v2.2
	l0.2,0.5l0.2,0.5l0.5,0.2v0.7l-0.2,0.2v0.2l-0.2,0.2v0.5h-0.2L26.4,222.2z"/>
</svg>
