<?xml version="1.0" encoding="utf-8"?>
<!-- Generator: Adobe Illustrator 20.1.0, SVG Export Plug-In . SVG Version: 6.00 Build 0)  -->
<svg version="1.1" id="Layer_1" xmlns="http://www.w3.org/2000/svg" xmlns:xlink="http://www.w3.org/1999/xlink" x="0px" y="0px"
	 viewBox="0 0 132.5 163.2" style="enable-background:new 0 0 132.5 163.2;" xml:space="preserve">
<style type="text/css">
	.st0{fill:#C14803;}
</style>
<title>atlantic</title>
<path class="st0" d="M88.9,0.4h0.2v0.2h-0.2v0.2l-0.2-0.2L88.9,0.4C88.9,0.4,88.9,0.4,88.9,0.4z M86.8,4.2L87,4V3.7h0.5V4l-0.2,0.2
	v0.2l0.2,0.7v0.2l0.2,0.5L88,6.2v0.5l0.2,0.2v0.2l0.2,0.2v1l-0.2,0.2V9L88,9.3l-0.2,0.5L87.5,10V9.7l0.2-0.5V7.3l-0.2-0.5l-0.2-0.7
	V5.7L87,5.4l-0.2-0.5l-0.2-0.2l-0.2-0.2L86,4.2V4l-0.2-0.2V3.3h-0.2V3l0.2-0.2V2.5H86V2.3l0.2,0.2H86v1h0.2v0.2h0.2V4L86.8,4.2z
	 M90.4,3.7v0.7h-0.2v0.7h-0.2l-0.2-0.2h-0.2V4.7h-0.2V4.2h-0.2V4h1l0.2-0.2L90.4,3.7z M94.9,4.5v0.5h0.2v0.2l-0.2,0.2H94V5.2h-0.7
	L93,4.9l-0.2-0.2H93V4.5h0.7L94,4.2L94.2,4h0.7L94.9,4.5L94.9,4.5z M132.1,5.7h-0.2v0.2l-0.2-0.2L132.1,5.7L132.1,5.7L132.1,5.7z
	 M98.5,6.9l0.2,0.2H99l0.2,0.2H99v0.5h-0.7v0.2l-0.2,0.2h-0.2v0.2l-0.2-0.2l-0.2,0.2V7.3h0.2V7.1h0.2V6.9h0.2l0.2-0.2h0.2V6.9z
	 M107.4,11.4L107.4,11.4v0.5h-0.2v0.2h-0.2v-0.2h-0.2l0.2-0.5h0.2v-0.2h0.2V11.4z M109.1,11.9l0.2,0.2l0,0h0.2v0.2h-0.7v-0.5H109.1z
	 M116.5,13.6v0.2h0.2v0.5l0.2,0.2v0.7h0.2l-0.2,0.2v0.2h0.2v1h0.2v1.2l0.2,0.2h-0.2v0.2H117l-0.2-0.2v-0.5l-0.2-0.2h-0.2v-0.2
	l0.2-0.2v-1h0.2l-0.2-0.5V15l-0.2-0.2V14l-0.2-0.2l-0.2-0.2l-0.2-0.5v-0.2l-0.2-0.2v-0.2h0.2l0.2,0.2v0.2h0.5v0.7L116.5,13.6z
	 M118.2,20.8v0.5l0.2,0.2v0.2l0,0V22h0.2v1h0.2v0.2h-0.2v1.9h-0.2v0.2h0.2l-0.2,0.2v1.9h-0.2V28l-0.2,0.2v0.5h-0.2v0.7h-0.2v0.5
	l-0.2,0.2v0.2l-0.2,0.2v0.5h-0.2v0.5l-0.2,0.2v0.5h-0.2v0.2l-0.2,0.2V33h-0.2v0.5h-0.2v0.2h-0.2V34h-0.2v0.2h-0.2v0.2h-0.2v0.2h-0.2
	v0.5h-0.2v0.2h-0.2v0.2h-0.2v0.2h-0.2v0.2h-0.2l0,0l-0.2,0.2l-0.2,0.2l-0.2,0.2v0.2h-0.2v0.2H112v0.2h-0.2v0.5h-0.2v0.2h-0.2v0.2
	l-0.3-0.3v-0.2l-0.2-0.2v-0.2h-0.5v-0.5l-0.2-0.2v-0.5l-0.2-0.2v-0.2l-0.2-0.2l-0.2-0.2v-0.2l-0.2-0.2l0.2-0.2h0.2V34l0.2-0.2v-0.3
	L110,33h-0.2l-0.2-0.2h-0.2l-0.2,0.2l-0.2,0.5l-0.2-0.2v-0.7h0.2v-0.5l0.2-0.5h0.2l0.2-0.2h0.5v-0.2h0.5v-0.2l0.2-0.2h0.2l0.2-0.2
	l0.2-0.2h0.2l0.2-0.2l0.5-0.2h0.7l0.5-0.5l0.2-0.2h-0.2l-0.2-0.2v-0.2h-1.2v-0.2l0.2-0.2l0.2-0.2h0.5l0.2,0.2h0.2l0.2-0.2h0.5v-0.2
	l0.2-0.5l0.2-0.2v-0.2l0.2-0.2l0.2-0.2l0.2-0.2h0.5l0.2-0.2v-0.2l0.2-0.2l0.2-0.2h-0.5v0.2H116l-0.2,0.2l-0.2-0.2h-0.2l-0.2-0.2
	v-0.2l-0.2-0.5l0.2-0.2l0.2-0.2h0.2l0.2-0.2l0.2-0.2l0.2-0.2v-0.7L116,22v-0.2h0.2l0.2-0.2l0.2-0.2v-0.7h0.2l0.2,0.2l0.2-0.2v-1
	l0.2-0.2l0.2-0.2h0.2L118.2,20.8L118.2,20.8z M115.1,20.8h0.2V21h-0.2l-0.2,0.2v0.2l-0.2,0.2V22h-0.2v0.5l-0.2,0.2l-0.2,0.2
	l-0.2-0.2V22l0.2-0.2v-0.3l0.2-0.2V21l0.2-0.2l0.2-0.2l0.2-0.5v0.5L115.1,20.8z M95.2,23.2l0.2,0.2h0.7l0.2,0.2v0.2h-1v-0.2h-0.5
	v-0.2l-0.2-0.2l-0.2-0.2v-0.2l-0.2-0.2h0.5l0.2,0.2v0.2L95.2,23.2z M107.9,27.7h-0.5l0.2-0.2l0.2-0.2h0.2l0.2-0.2l0.2-0.2l0.2-0.2
	h0.5l0.2-0.2l0.2,0.2v0.2l-0.2,0.2h-0.5l-0.2,0.2h-0.2l-0.2,0.2h-0.2L107.9,27.7z M111,26.7h0.5V27l0.2,0.2V27h0.5v0.5l-0.2,0.2
	h-2.2l0.2-0.2v-0.2l0.2-0.2l0.2-0.2L111,26.7L111,26.7z M107.7,40v0.2h0.2V40h0.5l0.2,0.2l0.2-0.2l0.2,0.2h0.2l-0.2,0.5h-0.2
	l-0.2,0.2h-0.2l-0.2,0.2l-0.5,0.2h-0.2v0.2h-0.2l-0.2,0.2h-0.2v0.2l-0.2,0.2l-0.2,0.2l-0.2,0.2v0.2l-0.2,0.2v0.2h-0.2l-0.2,0.2v0.2
	l0,0l-0.2,0.2h0.2l0,0H105l-0.2,0.2l-0.2,0.2V45h-0.2v0.5H104v0.2h-0.2V46h-0.2v0.5h-0.2V47h-0.2v0.5l-0.2-0.2h-0.2V47l-0.2-0.2
	l-0.2-0.2h-0.2l-0.2-0.2l-0.2-0.2h-0.2l0.2-0.2v-0.3l0.2-0.2v-0.7l0.2-0.5v-0.5l0.2-0.2l0.2-0.2l0.2-0.2h0.5v0.2l0.2,0.2l0.2,0.2
	v0.2l0.2,0.5h0.2l0.2-0.2v-0.2l0.2-0.2v-1l0.2-0.2v0.2h0.2l0.2-0.2v-0.2l-0.2-0.2l-0.2-0.2v-0.7l-0.2-0.2l-0.2-0.2V40l0.2-0.2
	l0.2-0.2h0.2l0.2,0.2l0.2,0.2v0.5l0.2,0.5l0.2,0.2l0.2-0.2v-0.5l0.2-0.2v-0.7l0.2-0.2l0.2-0.2l0.2,0.2v0.2h0.2v0.2h0.2L107.7,40z
	 M77.4,44.5l0.2,0.2h0.2V46h-0.2l0,0h-0.2v-1h-0.2v-0.2h0.2V44.5z M96.1,47.4h-0.5l-0.2-0.2V46h1v0.2l0.2,0.2V47h-0.2l0.2,0.2
	l-0.2,0.2L96.1,47.4z M5.1,105.5h0.5v-0.2h0.2V105h0.2v-0.5H5.9v-1.2l0.2-0.2v-0.5l0.2-0.2h1.2v0.5h0.2l0,0H8v1h0.2v0.2h0.2v0.2h0.2
	l-0.2,0.2h0.2v0.4H9v-0.2h0.2L9,104.5v-0.7h0.2l0.2-0.2H10v-0.2h0.2v-0.2h0.2l0.2-0.2H11l0.2-0.2H11v-0.5h0.5v0.5h0.2v0.2h0.2
	l0.2,0.2h0.2l0.2,0.2l0.2-0.2v-0.5h-0.2v-0.5h-0.7v-0.2h-0.2l-0.2-0.2v-0.5l-0.2-0.2l0.2-0.2v-0.5l0.2-0.2h0.7v0.2l0.2,0.2h0.5v0.2
	h0.5l0.2-0.2V100l0.2-0.2v-0.5l0.2-0.2l0.2-0.2l0.2,0.2l0.2,0.2h0.2v0.2h1l0.2,0.2h0.2v0.2l0.2,0.2l0.2,0.2l0.2,0.2L18,101v0.2h0.5
	v0.2h0.7l0.2,0.2h0.2l0.2,0.2h1.4l0.5-0.2h0.5l0.2-0.2H23l0.2-0.2h0.2l0.2-0.2l1.4-0.2h0.2v-0.2h0.2l0.2-0.2V100l0.2-0.2v-0.3
	l0.2-0.2l0.2-0.2l0.2-0.2v-0.2l0.2-0.2v-0.2l0.2-0.2v-0.5h0.2v-0.7l0.2-0.2v-0.5h0.5l0.2-0.2v-1.4h0.7V94h-0.2v-0.2h0.2v-1l0.2-0.2
	l0.2-0.2l0.2-0.2v-0.5h1l0.5-0.2v-0.7h-0.7v-0.2l0.2-0.2v-0.7l0.2-0.2v-0.2l0.2-0.2l0.2-0.2v-0.2h0.2v-0.5h0.2v-0.2l0.2-0.2V87h0.2
	v-0.2l0.2-0.2V86l0.2-0.2l-0.2-0.2v-0.2l-0.2-0.2h-0.3l-0.2-0.2h-0.2v-0.5h-0.2l-0.2-0.2v-0.2l-0.2-0.2v-0.2l0.2-0.2v-0.2l0.2-0.2
	v0.2l0.2,0.2v0.2h0.2v0.2l0.2,0.2h0.2v0.2h0.2v-0.2l0.2-0.2v-0.5l0.2-0.2l0.2-0.2h0.2l0.2-0.2h0.2l0.2-0.2h0.2l0.2-0.2h0.2v-0.5h0.2
	l0.2-0.2l0.2-0.3h0.5v0.2h0.2v0.5l0.2,0.2v0.2h0.2v0.2h1V82h0.2v-0.7h0.2V81h0.2v-0.5l0.2-0.2h0.5v0.5L39.2,81l0.2,0.2V82l0.2,0.5
	V83H40v0.2h0.5V83h0.2l0.2-0.2v-1.5h0.2V81L41,80.8V80l0.2-0.2h0.2v1l0.2,0.2l0.2-0.2h0.5v-1.2h0.2v-0.2h0.7l0.2,0.2h0.2l0.2,0.2
	v0.5l0.2,0.2l0.2,0.2V81h1l0.2,0.2l-0.2,0.2v0.7h-0.7v0.2l0.2,0.2h0.2l0.2,0.2h0.2l0.2,0.2v0.2h0.5v0.2h0.2l0.2,0.2l0.2,0.2l0.2,0.2
	l-0.2,0.2h0.2l-0.2,0.2v0.2H47v-0.2l-0.2-0.2l-0.2-0.2l-0.2-0.2L46,83.9h-0.2v-0.2l-0.2-0.2H45l-0.2,0.2h-0.2v-0.2H44v-0.7h-0.2
	l-0.2,0.2h-0.2l-0.2,0.2h-0.5l0.2-0.2v-0.7h-0.2l-0.2,0.2l-0.2,0.2v0.5h-0.7l-0.2,0.2v0.2h-0.2v0.2h-0.2v0.2l-0.2,0.2v0.2h1.2v0.2
	h-0.2v0.2h-0.7v-0.2h-1.4L39,84.6h-0.5v-0.2h0.2l0.2-0.2l0.2,0.2h0.2l0.2,0.2l0.2-0.2v-0.2l-0.2-0.2v-0.2h-0.2l-0.2-0.2H39l-0.2-0.2
	h-0.2v0.2h-0.2v0.2h-0.2v0.7l0.2,0.2v0.2h0.2v0.2h-0.2v-0.2l-0.2-0.2v-0.2h-0.5l0.2,0.2v0.7h-0.2v-0.2l-0.2-0.2v-0.5h-0.2v-0.2h-0.2
	v-0.5l-0.2,0.2v0.2h-0.2l-0.2,0.2h-0.2v0.2h-0.2l-0.2,0.2v0.5h-0.2l0.2,0.2h0.2l-0.2,0.2h-0.5l-0.5,0.2h-0.2v1.4L34,88h-0.2
	l-0.2,0.2L33.3,88L33,88.2l-0.2,0.2l-0.2,0.2L32.3,89v0.2h1.9V89h0.5l0.2-0.2h0.2l0.2,0.2h0.5v0.2h0.2v0.2l0.2-0.2v0.2h0.5l-0.2,0.2
	h1l0.2-0.2h0.5V89h0.2v-0.3l-0.2-0.2l-0.2-0.2h-0.2l0.2-0.2h0.5l0.2,0.2H39v0.2h0.2v0.2L39,88.9v0.7h0.2v0.2h0.2l0.2-0.2l0.2-0.2
	v-0.2h0.2v0.2l0.2,0.2h-0.2v0.2l0.2,0.2l-0.2,0.2L40,90.6v0.5l0.2,0.2v1.2l0.2,0.2V93l-0.2,0.2h-0.5V93l-0.2-0.2h0.2v-0.2h-0.2
	l-0.2-0.2h0.2V92h-0.2L39,91.8h-0.5L38,91.6v-0.2h-0.2l-0.2-0.2v-0.2l-0.2,0.2v0.2h-0.2l-0.2,0.5v0.2l-0.2,0.2h-0.5l-0.2,0.2h-0.2
	v0.2L35.4,93l-0.2-0.2L34.9,93v0.2h-0.2v0.2l0.2,0.2V94h0.2l0.2-0.2v-0.3h0.2l0.2-0.2l0.2,0.2v0.2l0.2,0.2h0.2v0.2l0.2-0.2h0.5
	l0.2,0.2h1l0.2,0.2l0.2,0.2h0.2v0.2h0.2v-0.5l0.2-0.2V94h0.5l0.2,0.2l0.2,0.2l-0.2,0.2l0.2,0.2h-0.2v0.2h0.2L41,95l0.2-0.2v-0.5h0.5
	v-0.7h-0.5v-0.2H41v-1h0.2v-0.7h0.2l0.2,0.2v0.7l-0.2,0.2h0.2l0.2,0.2h0.2l0.2-0.2l0.2,0.2l0.2,0.2v0.5l0.2,0.5v0.7l0.2,0.2l0.2,0.2
	v0.2l0.2,0.2v0.7l-0.5,0.2l-0.2,0.2l0.2,0.2v0.2h0.2v1l-0.2,0.2v-0.2h-0.3v-0.5l-0.2-0.2v-0.2h-1v-0.5l-0.2-0.2h-0.2l-0.2,0.5
	l-0.2,0.2v0.2h-0.2v0.2l-0.2,0.2h0.2v0.2h-0.2v1h0.2l0.2,0.2l0.2,0.2h0.2v0.2h0.2v0.2l0.2,0.2l0.2,0.2l0.2,0.2v0.2l0.2,0.2h0.2
	l0.2,0.2v0.5l0.5,0.2h0.2v0.5h-0.5l-0.2,0.2h0.2v0.2l-0.2,0.2v0.2h-0.2l-0.2,0.2v0.2h-0.2l-0.2-0.2v-0.5h-0.2v-0.7h-0.2v-1l-0.2-0.2
	l-0.2-0.2v-0.7h-0.2v-0.2l-0.2-0.2v0.2H40v0.2h-0.5l-0.2,0.2v0.2l-0.2,0.2h-0.2v0.5l-0.2,0.2h0.2v0.2H39v-0.2h0.2v0.2h0.2v0.5h0.2
	v0.2h-0.5v-0.2H39v0.2h-0.2l-0.2,0.2v-0.5l-0.2-0.2H38v0.5l-0.2,0.2l-0.2,0.2v-0.2h-1.2l-0.2-0.2h-1.2l-0.2-0.2l-0.2-0.2h-1.7
	l-0.2,0.2h-0.5v-0.2l-0.2-0.2h-1l0.2-0.2v-1l-0.2-0.2l-0.2,0.2v0.2h-0.5l-0.2,0.2l-0.2,0.2l-0.2,0.2v0.5h0.2v0.2l-0.2,0.2v0.2h0.2
	v0.5h0.2v-0.2h0.2v0.2h0.7v-0.2h0.2l0.2-0.2l0.2,0.2v0.2H32l0.5,0.2h0.2l0.2,0.2l0.2,0.2h2.2l0.5,0.2h1.2l0.5-0.2H38l0.2,0.2v0.2
	l0.2,0.2v0.2H39l0.2,0.2v0.7l-0.2,0.2v1.7h0.2v0.2l-0.2,0.5v0.5h-0.2v1h-1.4l-0.2,0.2h-0.2v0.5h0.2v0.5h0.5l-0.2,0.2l-0.2,0.2
	l-0.2,0.2h-0.5v-0.2l-0.2,0.2V112h-0.7v0.2h-0.2v0.2l-0.2,0.2h-0.5v0.2H34l-0.2,0.2h0.5l0.2,0.2l-0.2,0.2h-1l-0.2,0.2l0.2,0.2v0.7
	h0.2l0.2,0.2H34l0.2,0.2v0.5l0.2,0.2l-0.2,0.2v1.2l-0.2,0.2l0.2,0.2h0.5l0.2,0.2h0.7v0.5l0.2,0.2v0.7h0.5l0.2-0.2v-0.2l-0.2-0.2
	v-0.5h-0.2l-0.2-0.2v-0.5l-0.2-0.2l-0.2-0.2V117l-0.2-0.2v-0.2l-0.2-0.2V116l-0.2-0.2l-0.2-0.2v-1h0.2l0.2-0.5l0.2-0.2h0.7l0.2-0.2
	h0.2l0.2-0.2h0.2l0.5-0.2h0.2l0.2-0.2h0.2v0.2l0.2,0.2v0.2h0.2v-0.2h0.7v-0.2l0.2-0.2l0.2-0.2l0.2-0.2h0.2l0.2-0.2H41V111h1.2v0.2h1
	l0.2-0.2l-0.2-0.2h-1l-0.2-0.2h-0.5l-0.5-0.2v-0.5h0.2l0.2,0.2h0.7l0.2-0.5h0.7l0.2,0.2h0.2l0.5-0.2l0.2,0.2h1.2v-1h-1.2l-0.2,0.2
	h-0.2v0.2h-0.7l-0.2-0.2l-0.2-0.2l-0.2-0.2h-1l-0.2,0.2v0.2h-0.2l-0.2-0.2v-0.5h0.2l0.2-0.2l0.2,0.2l0.2-0.2h0.5l0.2,0.2h0.2
	l0.2,0.2h0.5v0.2l0.2-0.2h0.2v-1.4h-0.2l-0.2,0.2l-0.2-0.2l-0.2,0.2h-0.7l0.2-0.2v-0.5h0.5l0.2-0.2v0.2h0.2l0.2-0.2V106h0.2v0.2H44
	l0.2-0.2h0.2v0.2h-0.2v0.5l0.2-0.2h0.2v-0.2L45,106l0.2-0.2v0.2h0.2l0.2-0.2h0.7l0.2-0.2h0.2l0.2-0.2h-0.2V105l-0.2-0.2v-0.2h-0.2
	v-0.2h0.5V104l-0.2-0.2h0.2v-0.2h0.2v-0.5l0.2-0.2h0.2v-0.7l0.2-0.2l0.2,0.2l0.2-0.2h0.2v-0.2l-0.2-0.2l0.2-0.2h-0.2v-0.2h0.2v-0.2
	h-0.5v-0.2l0.2-0.2h-0.2v-0.5h-0.5v-0.2l0.2-0.2l0.2-0.2h0.2v0.5h0.2l0.2-0.2h0.2v0.2h0.2v0.2l0.2-0.2l0.2-0.2v-0.7l-0.2-0.2v-0.2
	h-0.2v-0.2l-0.2-0.2v-0.2l0.2-0.2l-0.2-0.2l0.2-0.2h0.2v-0.2h0.2l-0.2,0.2v0.7h0.2v-0.2l0.2-0.2l0.2,0.2v-0.2l0.2,0.2v0.2l-0.2,0.2
	L50,97.8v0.5l0.2,0.2V99L50,99.5v0.2l-0.2,0.2v1.4l-0.2,0.2v0.2l-0.2,0.2l-0.2,0.2v0.2h0.2v0.2l0.2,0.2v0.2h-0.7l-0.2,0.2l-0.2,0.2
	h-0.2v0.2l-0.2,0.2v0.5h0.7l0.2,0.2h0.5l0.2,0.2h0.2L50,105l0.2-0.2v-0.2h0.2v-0.2l0.2-0.2l0.2-0.2h0.2v-0.2h0.2l0.2-0.2v-2.6
	l-0.2-0.2v-0.7l-0.2-0.2v-2.2l0.2-0.2v-0.5H51v-0.2h-0.5v-0.7H51v-0.2h1v-0.2h-0.2v-0.5l-0.2-0.2v-0.7l0.2-0.2H52V94l0.2,0.2h0.2
	l0.2,0.2H53l0.2,0.2h0.2V95l0.2,0.2h0.5V95h0.5v0.2h0.7v0.2h0.2v0.2h0.2l-0.2-0.2h0.5v0.7l0.2-0.2h0.5l0.2,0.2h0.7l0.2,0.2h-0.5
	L57,96.6v0.2h0.5l0.2-0.2v0.2H58l0.2-0.2v-0.5h0.5l-0.2,0.2l0.2,0.2l0.2-0.2l0.2,0.2v-0.5H59v-0.3l-0.2-0.2l0.2-0.2v-0.7l0.2-0.2
	h0.2l0.2,0.2l0.2-0.2v-0.2L59.7,94v-0.2h-0.2l-0.2-0.2l-0.2-0.2v-0.7h-0.2v0.2h-0.2L58.2,93L58,92.8v-0.7h-0.2v0.2h-0.3v0.2h0.2v0.2
	h-0.2v-0.2l-0.2-0.2H57l-0.2-0.2v-0.2l0.2-0.2l0.2,0.2h1l0.2,0.2h0.2v-0.5h0.5l0.2-0.2l0.2-0.2h0.5v-0.2l0.2,0.2l0.2-0.2l0.2-0.2
	h0.5v0.7l-0.2,0.2v0.5l-0.2,0.5l0.2,0.2V93h0.5l0.2-0.2h0.5l0.2-0.2h0.2l0.2-0.2v-0.2l0.2-0.2v-1.2L63,90.4v-0.5l-0.2-0.2v-0.2
	l-0.2-0.2h-0.2l-0.2-0.2l-0.2-0.2h-0.2l-0.2-0.2l0.2-0.2h0.2l0.2,0.2h0.2l0.2,0.2h0.2v-0.5L63,88v0.2l0.2,0.2h0.2V89l0.2,0.2v0.5
	l0.2,0.2h1.2l0.2,0.2l0.5-0.2h0.7l0.5-0.2h1l0.2,0.2h0.5v-0.2h0.5v-0.2h0.2l0.2-0.2v-0.5H70l-0.2-0.2v-0.7l0.2-0.2v-0.2l0.2-0.2
	v-0.5L70,86.3v-0.2l-0.2-0.2l-0.2-0.2l-0.2-0.2v0.5l0.2,0.2l0.2,0.2v0.2l-0.2,0.2V87h-0.2L69,86.8v-1.7l-0.2-0.2v-0.2l-0.2-0.2v-1.2
	l0.2-0.2v0.2H69v-0.2l0.2-0.2v-0.2H69l-0.2-0.2h-0.2v0.2H68v-1l0.2-0.2v-1h-0.5V80h-0.2v0.2h-0.2V81l0.2,0.2v1.5l0.2,0.2v0.5
	l0.2,0.2l0.2,0.2v0.7h0.2v1l0.2,0.2v0.7l-0.2,0.2l-0.2-0.2v-0.3L68,86.1v-0.5l-0.2-0.2v-0.5l-0.2-0.2v-0.2l-0.2-0.2v-0.5l-0.2-0.2
	v-0.5h-0.2v-0.5l-0.2-0.2v0.2h-0.5v-1.7l0.2-0.2v-0.2h0.2l0.2-0.2v-0.5h0.2l0.2-0.2l0.2-0.2v-0.2l0.2-0.2v-0.2l0.2-0.2v-0.5l0.2-0.2
	v-0.5H68v0.2h-0.2v-0.2H68v-0.2h0.2v-0.2l0.2-0.2h0.2v1.2l0.2-0.2v0.5l0.2,0.2v0.7L69,78.9h0.2v0.2L69,79.3v1h0.2V81l0.2,0.2v0.2
	h0.2l-0.2,0.2v0.5H70l0.2-0.2v-0.2l0,0l0.2-0.2V81h0.7v-0.2l0.2-0.2v-1l0.2-0.2v-0.2h0.2v0.5h0.2l0.2,0.2h1.2v-0.2h0.2l-0.2-0.2
	h-0.5v-0.2h0.5v-0.2l0.2-0.2v-0.2h0.2v-0.5l0.2-0.2l0.2,0.2h0.2v0.2h0.5L75,78.4v0.2h1l0.2-0.2L76,78.1v-0.5l0.2-0.2v-0.7L76,76.5
	v-0.2l0.2-0.2v-0.5h0.2V75H77l0.2,0.2h0.2l0.2-0.2l0.2-0.2v-0.5l-0.2-0.2h0.2v-0.2l0.2,0.2h0.5l0,0h1l0.2-0.2h0.2v-0.2h-0.2v-0.5
	h-0.5v-0.2h0.2v-0.2h1.2v0.2H81v-0.2h0.2v-0.2l0.2-0.2l0.2-0.2v-0.2h-0.2v0.2h-0.2v0.2h-1.7v-0.2h-0.2l-0.2-0.2v0.5h-0.2v0.2h-0.5
	l-0.2,0.2h-1l0.2-0.2v-0.5l-0.2,0.2h-0.2v-0.2l0.2-0.2l-0.2-0.2v-1.2l0.2-0.2h0.2v-0.2h-0.5v-0.2h-0.2l-0.2-0.2l-0.2,0.2V69l0.2-0.2
	h0.2v-0.5h1v0.5l0.2,0.2v0.2l0.2,0.2h0.7l0.2-0.2h0.5v-0.5l-0.2-0.2l0,0l-0.2-0.2h-0.2v0.5h-0.5v-0.2h-0.2l-0.2-0.2h0.2v-0.2h0.5
	v-0.5h-0.2v-0.2l-0.2-0.2v0.2h-0.3v-0.5l-0.2-0.2h-0.2v-0.7h-0.5v1.2h-0.2l-0.2-0.2h-0.2l0.2-0.2v-0.5h-0.2v0.2L76,66.6v-0.5
	l0.2-0.2v-1H76v-0.2h-0.2l-0.2,0.2v0.7h0.2v0.5l-0.2,0.2v0.7l-0.2,0.2v0.5h0.2l0,0H76l-0.2,0.2v0.2l0.2,0.2l-0.2,0.2V69l-0.2,0.2
	v0.2h-0.2L75,69.7L74.8,70v-0.5l0.2-0.2v-0.5l-0.2-0.2v0.2l-0.2-0.2v-1.7h0.2v-0.2H75v-2.2h0.2v-0.2l0.3-0.2l0.2-0.2L76,64v0.2h0.2
	v0.2h0.2v0.2h0.2L77,65h1l0.2,0.2h1.2l0.2-0.2l0.2-0.2h0.5l0.2-0.2H82V64h0.2l0.2-0.2H83v-0.3l0.2-0.2h0.2l0.2-0.2h0.2v-0.2l0.2-0.2
	l0.2-0.2l-0.2-0.2v-1l0.2,0.2v0.2l0.2,0.2V62h1.4l0.2-0.2h0.2v-0.5h0.2l0.2-0.2l0.2-0.2v-0.2h0.2l0.2-0.2l0.2-0.2l0.2-0.2v-0.2
	l0.2-0.5l0.2-0.2v-0.5l0.2-0.2v-1H88L87.7,57h-0.2l-0.2-0.2v-0.2L87,56.3h-0.2v-0.2h-0.2v-0.5h0.2l0.2-0.2h1.4l0.2-0.2h0.2v-0.2
	l0.2-0.2v-0.2l0.2-0.2h0.2l0.2-0.2h0.5l0.2-0.2l0.2-0.2v-0.2h0.5l0.2-0.2H92v-0.2l0.2-0.2l0.2-0.2V52h-0.2v-0.5h0.2l0.2-0.2h1.4
	l0.2-0.2v-0.2h-0.2L94,50.5h-0.2v-0.2l-0.2-0.2v-0.7l-0.2-0.2v-0.2L93,48.6l-0.2-0.2v-0.2h2.2v0.2h0.2v0.2l0.2,0.2v0.7h0.2v1.2h0.2
	l0.2-0.2l0.2-0.2v-1.7l0.2-0.2l0.2-0.2h0.5v-0.7h0.2v1.2l0.2,0.2v0.5h0.7l0.2,0.2v0.2h0.5l0.2-0.2h0.2v-0.2h-0.5L99,49.1l-0.2-0.2
	v-1.4l0.2-0.2h0.2l0.2-0.2h0.2l0.2-0.2h0.2l0.2,0.2h0.2v0.2h0.5v-0.2h0.5v0.2l0.2,0.2h0.2l0.2,0.2h0.5v0.2h-0.2v0.5h-0.2v0.2
	l-0.2,0.2v0.2h-0.2v0.2h-0.2v0.5h-0.2v0.2h-0.2v0.2l-0.2,0.2l-0.2,0.2V51h-0.2v0.2l-0.2,0.2H100V52h-0.2l-0.2,0.2l-0.2,0.2v0.2
	l-0.5,0.5h-0.2v0.2h-0.5v0.2h-0.2v0.2h-0.5v-0.2h0.2V53l0,0v-0.7h-0.5V52h-0.2v-0.2l0,0V52h-0.2l0,0h-0.2v0.5h-0.2V53l0.2,0.2l0,0
	h-0.2l0.2,0.2h-0.2v0.5h0.2v-0.2h0.2v-0.5h0.2l0.2,0.2v0.2h-0.2v0.2h-0.2v0.2h-0.5v0.2h-0.2l0,0l0,0v0.2h-0.2l-0.2,0.2h-0.2v0.2
	h-0.2v0.7h0.2v0.2h0.2l-0.2,0.2v0.2h-0.2v0.2h0.2v0.5h-0.2l-0.2,0.2v0.7h-0.2l0,0l-0.2,0.2v0.2h0.2l0.2,0.2l0,0v-0.5h0.2v0.7
	l-0.2,0.2v0.5h-0.2v1h-0.2v0.7H94v1l-0.2,0.2V63H94v0.2l0,0V68l0.2,0.2V69H94v0.7h-0.2v0.5l-0.2,0.2v0.2h-0.2v0.7L93,71.6v0.2l0,0
	l-0.2,0.5v0.5h-0.2v0.5h-0.3V74l0.2,0.2h-0.2v0.2h-0.2v0.7l-0.2,0.2V76l-0.2,0.2v0.5l0.2,0.2v0.5h-0.2v0.5l0.2,0.2v0.2l-0.2,0.2
	h-0.2v0.2l0,0l-0.2,0.2v0.2h-0.2v0.2l-0.2-0.2v0.2h-0.2l-0.2,0.2l-0.2,0.2l-0.2,0.2v0.2h-0.2v0.2L89.2,81v0.2l-0.2,0.2v0.2L88.7,82
	v0.2l-0.2,0.2v0.7l0,0l-0.2,0.2V87L88,87.2v0.5h-0.2V88l-0.2,0.5l-0.2,0.2H87L86.8,89h-0.2v0.2h-0.2v0.2h-0.2v0.5h-0.2v0.2h-0.2v0.5
	h-0.2v0.2l0,0v0.2l-0.2,0.2v0.5h-0.2v0.2l-0.2-0.2v0.5h-0.5v-0.2h0.2l0,0h-0.2v0.2h0.5l-0.2,0.2v0.2L84.1,93v0.2h-0.2v0.5h-0.2l0,0
	h-0.2V94h-0.2v0.5h-0.2v0.2h-0.2V95h-0.2l0,0H82v0.2h-0.2v0.2l-0.2,0.2v0.5h-0.2v0.5H81l-0.2,0.2v0.2l-0.2,0.2l0,0v0.5h-0.2v0.5
	h-0.2V99h0.2l-0.2,0.2v1.9h-0.2l-0.2,0.2h-0.2v0.2h-0.2l-0.2,0.2h-0.7l-0.2,0.2h-0.5l-0.2,0.2h-0.5l-0.2,0.2l-0.2,0.2H76v0.2
	l-0.2,0.2h-0.3v0.2h-0.2v0.2H75l-0.2,0.2v1h0.5v0.2H75l0,0h-0.2v0.2l0,0l-0.2,0.2l-0.2,0.2h0.2v0.2h-0.2l-0.2-0.2h-2.9l0,0h-0.2
	l-0.2,0.2h-1.2l-0.2-0.2l0,0v-0.2l0,0l-0.3-0.3h0.2v-0.2h0.2V105h0.2v-0.5h-0.5v0.2h-0.5v0.2h-0.2v0.2l0,0l0,0H69l0,0l0,0v0.2h-0.2
	v-0.2l-0.2,0.2l0,0v0.2h0.2l0,0l0,0v0.3H69v0.2h-0.7v0.2l-0.2-0.2l0,0l0.2,0.2h-1.2v0.2h-0.5v-0.2l-0.2,0.2h-1.4l-0.2,0.2v-0.2h0.2
	l0,0h0.2l0,0h0.2v-0.2l0,0l0.2,0.2h0.5l0.5-0.2h0.2l0,0h-0.2v-0.2h-0.5V106h-0.2v-0.2l-0.2,0.2v-0.2h-0.2v0.2h-0.7v0.5h-0.2v-0.2
	h0.2V106h-0.2v0.2l-0.2,0.2H64v0.2l-0.2-0.2l0,0v0.2h-0.3v-0.2h0.2v-0.2h-0.2v0.2l0,0l-0.2-0.2v0.2H63v-0.2h0.2l0.2-0.2h-0.2l0,0H63
	l0,0h-0.2v0.5H62v0.2h-0.2v-0.2h-0.2v0.2h-0.2v0.7h0.2l0,0l0,0v0.2l-0.2-0.2v0.2h0.2l0,0l0.2-0.2v0.2h-0.2l0,0h0.2v-0.2H62l-0.2,0.2
	H62l0.2,0.2h-0.5v0.2h-0.7l0,0h-0.2v0.2h-0.2v-0.2h-0.5v0.2h-0.5v0.2h-0.2l0,0l0,0v0.5h-0.2l0,0h-0.2l0,0h-0.2v0.2H58v0.2h-0.5v0.5
	h0.2v0.2l0,0v0.2h-0.5v0.2H57v-0.2h-0.5v-0.2h-1.4l-0.2,0.2h-0.2v0.2h-0.2v-0.2h-0.2v0.4h-0.2v0.2l-0.2,0.2h-0.2v0.2h-0.5v-0.2h-0.2
	v0.2H52l-0.2,0.2l-0.2,0.2h-0.2l-0.5,0.2v0.2h-0.2l-0.5,0.2l-0.2,0.2l-0.2,0.2v0.5h-0.5l-0.2,0.2l-0.2,0.2h-0.2v0.2h-0.2v0.2h-0.5
	v0.2h-0.2l-0.2,0.2h-0.2v0.2l-0.5,0.2h-0.2L46,116v0.2h-0.2l-0.2,0.2l-0.2,0.2L45,117v0.5h-0.2v0.2l-0.2,0.2h-0.2v0.2l-0.2,0.2h-0.2
	l-0.2,0.2v0.2h-0.2v0.2h-0.2v-0.2h0.2v-0.5h0.5v-0.2h-0.2l-0.2,0.2h-0.2v0.2h-0.2v-0.5h-0.2l0,0h-0.2v0.2h-0.2v0.2h0.2l0,0h-0.2l0,0
	l0.2,0.2v0.2h-0.2v0.2h-0.2v-0.2h-0.7v-0.2h-0.2v0.2h0.2v0.2l0,0v0.2h0.2l0,0l0.2-0.2h0.2v0.2h0.2l-0.2,0.2h0.2v-0.2l0,0v0.2
	l0.5-0.2v0.2h-0.2l-0.2,0.2v0.2l-0.2,0.2v0.2h-0.2v0.5h-0.2v0.5h-0.2v0.2l0,0v1h-0.2v0.2h-0.5v-0.7h-0.2v0.2H40v0.2l0.2-0.2v0.2l0,0
	l0.2,0.2l0,0v0.2h-0.2v0.2h0.2v0.3h0.2v-0.2h-0.2l0.2-0.2H41v-0.2h0.5V123l0,0v0.2h0.2l-0.2,0.2v0.2l-0.2,0.2v0.2H41l0.2,0.2H41v0.2
	h-0.3v0.5l-0.2,0.2v0.7h0.5v0.2h-0.2v0.5l0,0v0.5h0.2v0.2h-0.2v0.5h0.2l0.2-0.2v0.2l0,0v0.5h-0.2l0.2-0.2h-0.5v0.7l0.2-0.2v0.5h-0.2
	v0.2h-0.2v0.2h-0.2v0.3h0.2v0.2l0.2,0.2h-0.2v0.2h-0.2v0.5h0.2v0.2h-0.2v0.2h0.2v0.5h-0.2v1H40v0.7h-0.2v0.5h-0.3v0.5l-0.2,0.2v0.5
	H39v0.2h-0.2l-0.2,0.2h-0.2v0.2h-0.5v0.2h-0.2v0.2h-0.5l-0.2,0.5h-0.2v0.2h-0.2l-0.2,0.5h-0.2l-0.2,0.2l-0.2,0.2v0.2h-0.2v0.2h-0.2
	l-0.2,0.5l-0.2,0.2l-0.2,0.2v0.2H34v0.2l-0.2,0.2v0.2h-0.3v0.2l-0.2,0.2v0.2H33v0.2l-0.2,0.5l-0.2,0.2v0.5l-0.2,0.2l-0.2,0.5
	l-0.2,0.5v0.2l-0.2,0.2v0.2l-0.2,0.2v0.5l-0.2,0.2v0.2h-0.2v0.2l-0.2,0.2l-0.2,0.2l-0.2,0.2v0.2l-0.2,0.2v0.2l-0.5,0.5v0.2h-0.2
	l-0.2,0.2v0.2l-0.2,0.5h-0.2v0.2h-0.2l0.2-0.2v-0.2l0.2-0.2l0.2-0.2v-0.5l0.2-0.2l0.2-0.2v-0.2l0.2-0.2l0.2-0.2v-0.2l0.2-0.2
	l0.2-0.2l0.2-0.2v-0.2l0.2-0.2v-0.2l0.2-0.2l0.2-0.2v-0.2l0.2-0.5v-0.2l0.2-0.5v-0.2l0.2-0.2v-0.2h-0.2v-0.2h-1l-0.2-0.2h-0.5
	l-0.2-0.2v0.2h-0.2v0.2h-0.2l-0.2,0.2h-0.2v-0.2l-0.2-0.2v-0.7h-0.2l-0.2,0.2v-0.5L28,141l-0.2,0.2h-0.3l-0.2-0.2h-2.2l-0.2,0.2
	h-0.2v0.8h-0.2v-0.2l-0.2-0.2h-0.7v-0.2h-0.2v0.5h0.2v0.2h0.2l-0.2,0.2h-0.2V142h-1v-0.2L22,142v0.5h0.2l0.2,0.2l0.5-0.2h1.4
	l0.2,0.2h0.2l0.2,0.2h-0.2v0.2h-0.2v0.2l-0.2,0.2l-0.2-0.2v-0.2h0.2V143l-0.2-0.2l-0.2,0.2h-0.5l-0.2,0.2H23v1h-0.5v-0.7l-0.2-0.2
	v0.2H22v0.7l-0.2-0.2l-0.2-0.2h-0.2v-0.2H21v0.5h-0.2v-0.2h-0.2v0.2h-0.2v0.2h-0.2v-0.5h0.2v-0.2l-0.2-0.2v0.2l-0.2,0.2v0.5h-0.2
	l-0.2,0.2V144l0.2-0.2h-0.2l-0.2,0.2v0.2h-0.2v0.2h-0.5v-0.2h0.2V144l0.2-0.2l0.2-0.2l-0.2-0.2v0.2l-0.2-0.2h0.2V143h-0.2v0.2
	l-0.2,0.2h-0.2v0.2h-0.2v0.2l-0.5,0.2V144l0.2-0.2l0.2-0.2l0.2-0.2l-0.2-0.2v0.2h-0.5v0.2h-0.2l-0.2,0.2h-0.5v-0.5h-0.2V143h-0.5
	v0.2H15v0.2h-0.5l-0.2,0.2H14v-0.2l0.2-0.2h0.2l0.2-0.2H15l-0.2-0.2h0.7v-0.2h-0.2l0.2-0.2h0.2v0.2H16v-0.2h-0.2V142H16l-0.2-0.2
	h-0.3l-0.2-0.2l-0.2-0.2V141h-0.7l-0.2-0.2h-0.2v-0.2l-0.2-0.2l-0.2,0.2v0.2h-0.5l-0.2-0.2h-0.2V140h-0.2v-0.2l-0.2,0.2l0.2,0.2
	l-0.2,0.2h-0.2l-0.2-0.5h-0.5l-0.2,0.2H10V140l-0.2-0.2v-0.2l-0.2-0.2h0.2l0.2-0.2v0.2l0.2,0.2l0.2,0.2l0.2-0.2v-0.2l0.5-0.2
	l0.2,0.2h0.7l0.2-0.2h0.2l0.2-0.2l0.2,0.2v0.5h1l0.2,0.2h0.2v0.5h0.2v0.2h0.5l0.2-0.2l0.5,0.2l0.2,0.2l0.2-0.2v-0.2l0.2-0.2v-0.2
	l0.2-0.2v-0.2h0.5l0.2-0.2H18v-0.5h0.2l0.2-0.2v-0.2l0.2-0.2v0.7h0.2l0.2-0.2h0.5v-0.2h0.2v-0.2l0.2-0.2h-0.2l-0.2-0.2l-0.2-0.2
	v-0.2l0.2-0.2v-0.2l-0.2,0.2l-0.2,0.2v-0.5l-0.2-0.2v-1.7l0.2-0.5h0.2l0.2,0.2h0.2l0.2,0.2h1.4l0.2-0.2L22,134h0.2l0.2-0.2h0.7v0.2
	h0.2l0.2-0.2v-0.7h0.2l-0.2-0.2l-0.2-0.2l0.2-0.5v-0.5l-0.2-0.2v-0.5h-0.2l-0.2,0.2h-0.2l-0.2,0.2H22v-1l-0.2-0.2v-0.5H21v-0.2
	l-0.2,0.2v1.4l0.2,0.5v0.2h-0.2v0.7H21l0.2-0.2v0.2l-0.2,0.2v0.2h-0.2v-0.2l-0.2,0.2l-0.2-0.2v-0.2H20v0.2l-0.2,0.2l-0.2-0.2
	l-0.2-0.2l-0.2-0.2h-0.2v-0.7h0.2l-0.2-0.2l0.2-0.2l-0.2-0.2v-0.2l-0.2-0.2l-0.2-0.2V130h-0.2v0.2h-0.5l-0.2,0.2h-0.2v0.5h-0.2v0.2
	l-0.2,0.2v0.5h-1v-0.5l-0.2-0.2v0.2l-0.2,0.2v0.7l-0.2-0.2l-0.2-0.2l-0.2-0.2v-0.2l-0.2-0.2V131h-0.5v1.2l-0.2,0.2l-0.2,0.2v0.2h0.2
	l0.2,0.2h1l0.2-0.2l0.2,0.2h1l0.2-0.2v-0.2l0.2-0.2v0.2H17l-0.2,0.2v0.2l0.2,0.2h0.7v0.5h0.2l-0.2,0.2v0.5h-0.2l-0.2,0.2v-0.2h-0.5
	l-0.2-0.2l-0.2,0.2l-0.2,0.2v0.5l-0.2,0.2h-0.5l-0.2-0.2v0.2h0.2v0.2L15,136l-0.2-0.2h-0.2v-0.2l-0.2-0.2V135l-0.2-0.2l-0.2-0.2
	h-0.2l-0.2,0.2h-0.2v0.2h-0.7v-0.5h-0.2v-0.2h-0.2l-0.2-0.2h0.2v-0.5h-0.7v0.2l0.2,0.2v0.2h-0.5v-0.7l-0.2-0.2h-0.2v0.2h-1v-0.2H9.2
	L9,133.1v-0.2l-0.2,0.2H8.3l-0.2,0.2v-0.2h0.2l0,0h0.2v-0.2h0.2l-0.2-0.5l0.2-0.2v-1l-0.2-0.2v-0.2H7.1l-0.2-0.2v-0.2l0.2-0.2h0.2
	l0.2-0.2h0.2l0.2-0.2v-0.2l0.2-0.2v-0.7l-0.2-0.2l0,0H7.8v0.2h0.2v0.2l-0.2,0.2l0.2,0.2H7.6v0.2H7.3v0.2H6.8v-0.2H6.6V129H6.4l0,0
	H5.9v-0.2H5.4l0,0H5.2v-1.2h0.2v-1.2H5.2v-0.5H4.9v-0.2h0.2v-0.5h0.2v-1h0.2v-1.7h0.2v-0.2l0.2-0.2v-0.2H5.7v0.2H5.2l0,0H4.9v0.5
	H4.7v0.2H4.2v-0.2H3.5v0.5H3.2v0.2H2V123H1.8v-1.7H2v-0.2h0.5v-0.2h1v-0.5H4v0.2h0.2v-0.7l0,0v-2.6H4v-0.5h0.2v-1.7H4v-0.5H3.5v-0.2
	H3.2v-0.2h0.2v-0.2H3.2v-0.2H2.8v-0.2H2.5v-0.2H3v-0.7h0.2v-1H3v-1H2.5V110H2v0.2H1v-1H0.9V109h1v-0.5H0.6v0.2H0.4v-0.2h0.2v-0.2
	h0.2V108h0.2v-0.2h1l0.2-0.2h0.2v-0.2h0.2v-0.2H3v-0.2h0.5v-0.2h0.2v-0.2H4v-0.2h0.2V106h0.2v-0.2h0.2v-0.2L5.1,105.5L5.1,105.5z
	 M10.1,105.7H10l-0.2-0.2V105H9.5v0.7H8.8v0.3H9v0.5l-0.2,0.2v0.2l-0.2,0.2l-0.2,0.2L8,107.7H7.8v1.4l0.2,0.2l0.2,0.2v0.2l0.2,0.2
	v0.5l0.2,0.2L9,111l0.2,0.2l0.2,0.2H10l0.2-0.2v-0.5h0.2v-0.2l0.2-0.2L11,110l-0.2-0.2h-0.2v-0.2h-0.2v0.7H9.5L9.3,110l0.2-0.2v-0.5
	l0.2,0.2v-0.5l0.2-0.2v-0.2h0.5v0.2l0.2,0.2l0.2-0.2v0.2h0.5v-0.7l0.2,0.2l0.2,0.2l0.2,0.2l0.2,0.2h0.2v0.5h0.2l0.2,0.2h0.5v-0.7
	l-0.2,0.2v-0.5h0.2v-0.5h-0.2v0.2h-0.2l-0.2-0.2v0.2h-0.2v-0.2l-0.2-0.2v-0.2h0.7v-0.5h-0.2v-0.2l-0.2-0.2v-0.2h-0.5v-0.2l0.2-0.2
	h-0.5v0.2h-0.2v-0.2l-0.2,0.2h-0.5l-0.2-0.2h-0.2l-0.2,0.2v0.7H10v0.2H9.5v-0.2l0.2-0.2H10v-0.5l0.2-0.2v-0.7L10.1,105.7z
	 M13.7,104.5v-0.2h-0.5l-0.2-0.2h-0.5l-0.2,0.5h0.2v0.5h0.2v0.7h0.5v-0.5l0.2-0.2h0.2v0.2l-0.2,0.2v0.7h0.2l0.2,0.2l0.2-0.2v-0.5
	l0.2-0.2l0.2,0.2v0.5L15,106v-0.5l0.2,0.2V105l-0.2-0.2v-0.2h-0.5v0.2h-0.2v-0.2L13.7,104.5L13.7,104.5z M11.6,103.1h-1l-0.2,0.2
	v0.7H10v-0.5l-0.2,0.2v0.5l0.2,0.2v0.2l0.2,0.5v0.2l0.2-0.2V105h0.2v0.2l0.2,0.2v-0.2l0.2-0.2v-0.2H11v-0.2l0.2-0.2l0.2,0.2l0.2-0.2
	V104h0.2v-0.2h-0.2L11.6,103.1L11.6,103.1z M14.5,133.3l-0.2,0.2h-0.7v0.2l0,0l0.2,0.2H14l0,0h0.5v-0.2h0.2l0.2-0.2h-0.2v-0.2H14.5z
	 M64.5,95.2v-0.5h-0.2v0.2L64,95.2v0.2h-0.2v0.5h0.5v0.5H64l-0.2,0.2v0.2h-0.5L63,97.1h-0.2l-0.5,0.2h-0.5l-0.2-0.2h-1v0.2h-0.2v0.2
	h0.5V99l-0.2,0.2v0.5l0.2-0.2h-0.2l0.2-0.2H61l0.2-0.2l0.2-0.2v-0.2l0.2-0.2L61.5,98v-0.2h0.2l0.2-0.2h0.2v0.2h1V98l0.2,0.2
	l-0.2,0.2v0.2H63V99h-0.2l-0.2-0.2h-0.2L62.1,99v0.5h-0.2v0.7h1L63,100h0.5v0.2l0.2-0.2H64l0.2-0.2l0.2-0.5h0.2v0.2l-0.2,0.2
	l-0.5,0.5v0.2l0.2-0.2h0.2V100h0.2v0.2l0.5-0.2v-0.2h0.2l0.2-0.2l0.2-0.2v-0.5h0.2v-0.7l-0.2-0.2l-0.2-0.2v-0.2l0.2,0.2h0.2v0.2h0.5
	l0.2-0.2v-1h-0.2v-0.2h-0.5v-0.2h-1l-0.2-0.2h-0.2v-0.5h-0.2V95.2z M14.3,100.9v-0.5h-0.2v1.2l-0.2,0.2v0.2h-0.2v0.5h0.5v-0.2h0.2
	l0.2-0.2v-0.2l0.2-0.2H15v-0.2h0.2l-0.2-0.2h-0.5v-0.5L14.3,100.9z M36.9,95.2h-0.2l-0.2,0.2v0.2h-0.2l0.2,0.2h-0.2v0.5l-0.2,0.2
	l-0.5,0.5v0.2h-0.2v0.5l0.5,0.2l0.2,0.2v0.2l-0.2,0.2h0.5l0.2,0.2l0.2-0.2l0.2-0.2h0.5V99l0.2-0.2h0.2v-0.2l0.2-0.2h0.2l0.5-0.2
	v-0.2h0.5l0.2-0.2v-1l-0.2-0.2l0.2-0.2v-0.2h-0.7v-0.5l-0.2,0.2l-0.2,0.2v0.2h-0.2l-0.2,0.2h-0.7v-0.7l0.2-0.2l-0.2-0.2L36.9,95.2z
	 M33,94.2v-0.5l-0.2-0.2v-0.2l-0.2,0.2h-0.2v0.7h-0.2v0.5l0.2-0.2l0.2-0.2v0.5l0.2,0.2h0.5l0,0l0.2,0.2h0.2v-0.4H34v0.5h0.2v0.2h0.2
	v-0.5h-0.2v-0.2L34,94.5h-0.2l-0.2-0.2L33.3,94v0.2L33,94.2z M78.6,47.6h0.2l0.2-0.2h0.2v0.2l0.2,0.2v0.2l0.2,0.2v0.2h0.2v0.5h-1.2
	v0.2l-0.2-0.2v-0.2h-0.2v-0.5l0.2-0.2v-0.2h-0.5v-0.2h-0.2v-0.5h0.2l0.2,0.2h0.2V47.6z M80.8,54.3l0.2,0.2v-0.2h0.2v0.2L81,54.8
	h-0.2v0.5l-0.2,0.2v0.2h-0.2v-0.2l-0.2-0.2v-2.6h-0.2v-1.2h0.2V51h0.2v-1.2l0.2-0.2l0.7-0.5h0.2v0.5l-0.2,0.2v0.5H81v0.5L80.8,51
	v0.5h-0.2V52h0.2v0.7L81,53v0.2l-0.2,0.2v1L80.8,54.3z M82.7,52.9v0.2H82v-0.2h-0.2v-0.2l0.2-0.2v-0.2h0.2V52l0.2-0.2h0.2L82.7,52.9
	L82.7,52.9z M97.1,52.2L97.1,52.2z M96.9,52.4L96.9,52.4z M97.1,52.4h-0.2l0.2-0.2V52.4z M96.9,52.4L96.9,52.4z M97.6,52.7h-0.2
	v-0.2h0.2V52.7z M97.1,52.4l-0.2,0.2v-0.2H97.1z M83.2,56.8h-0.2l-0.2-0.2l-0.2-0.2v-0.5l0.2-0.2v-0.2l0.2-0.2v-0.2l0.2-0.2l0.2-0.2
	v0.2l0.2,0.2v0.2h-0.2v1h-0.2V56.8L83.2,56.8z M94.9,58.2L94.9,58.2z M94.5,58.5L94.5,58.5z M94.5,58.7v-0.2l0,0V58.7z M73.1,68.5
	l-0.2-0.2v-1.4h0.2v0.5h0.2v0.2h0.2v-0.5l0.2-0.2v-0.5l-0.2-0.2l0.2-0.2v-0.2h0.2v-0.5h-0.2v-0.2h-0.5v-0.2l0.2-0.5l0.2-0.2l0.2-0.5
	h0.5v0.7h-0.2v2.4l-0.2,0.2v0.7l-0.2,0.2v0.7l-0.2,0.2l-0.2-0.2L73.1,68.5z M42.9,64l0.2,0.2l-0.2,0.2V65l-0.2,0.2h-1l-0.5,0.2
	l-0.2,0.2h-0.2l-0.2,0.2h-0.7v0.2h-0.2l-0.2,0.2H39v0.7h-0.7l-0.2,0.2l-0.2,0.2v0.5h-0.2v-0.2l-0.2-0.2v-0.2l-0.2-0.2v-0.2l-0.2-0.2
	v-0.5h1l0.2,0.2h0.7v-0.2l-0.2-0.2l0.2-0.2v-0.2h-0.2l-0.2-0.2V65l0.2-0.2v-0.2l0.2-0.2H39l0.5,0.2h0.2l0.2,0.2l0.5-0.2h0.7l0.2-0.2
	h1.2L42.9,64z M40.9,67.1h0.2l-0.2,0.2l0.2,0.2v0.2h-0.2v0.2l0.2,0.2V69l0.2,0.2h0.5l0.2,0.2l0.2,0.2h0.2L42.4,70h-0.2v0.5h-0.2v0.2
	l-0.2,0.2v0.2h-1l-0.2-0.2v-0.2l-0.2-0.2V70l-0.2,0.2l-0.2,0.2H40v0.7l-0.2,0.2v0.2H40v1.2l0.2,0.2h-0.5v0.5H40v0.7l-0.2,0.2
	l-0.2,0.2h-0.2V75H39l-0.2-0.2v-0.2l-0.2-0.2h-0.2L37.8,74h-1l-0.2,0.2l-0.2,0.2l-0.5,0.2h-0.5L34.9,75h-1.2l-0.2-0.2L33.2,75H33
	v0.5h-0.2l-0.2,0.2h-0.7l-0.2-0.2l-0.2,0.2h-0.2v-0.5h0.2V75h0.5v-0.2l-0.2-0.2v-0.2l0.2-0.2h0.2l0.2-0.2v-0.2h0.5l0.2,0.2v0.2h0.7
	l0.2-0.2h0.2l0.2,0.2h0.2l0.2,0.2h0.5v-0.5l-0.2-0.2v-0.5l-0.2-0.2v-0.2h-0.5l0.2-0.2v-0.2h-0.2v-0.7h0.2v-0.2h0.2v0.2l0.2,0.2v0.2
	l-0.2,0.2h0.5v-0.5l0.2-0.5l0.2-0.2h0.2v-0.2h-0.7l-0.2-0.2v-0.2h-0.2v0.2l-0.2,0.2l-0.2,0.2h-0.7l-0.2-0.2v-0.2h-0.2V70h0.2v-0.2
	l0.2-0.2h1v0.7H35l0.5-0.2l0.2-0.2h1.7l0.2-0.2h1.2v-0.2L39,69v-0.5h0.2v-0.7h-0.5l-0.2-0.2l0.2-0.2H39l0,0l0.2-0.2L40.9,67.1
	L40.9,67.1z M93.9,67.3L93.9,67.3z M74.3,71.2l-0.2-0.2h0.2V71.2z M71.4,73.8h0.5v1.4h-0.2L71.4,75v-0.7h-0.2v-0.2h-0.2v-0.2
	l0.2-0.2v0.2L71.4,73.8z M34.4,77.2v0.5h0.5l0.2-0.2h0.2l0.2,0.2h0.2v0.5l-0.2,0.2h-0.5v0.2l-0.2,0.2v0.2h-0.5l-0.2-0.2H34l-0.2,0.2
	l-0.2-0.2H33l-0.5,0.2H32l-0.2-0.2v-0.2h-0.2l0.5-0.7h0.7v-0.5h1l0.2-0.2H34.4L34.4,77.2z M40.4,79.3v0.2H40v-1l0.2-0.2L40,78.1
	v-0.5l0.2-0.2h1v0.2l0.2,0.2v0.5l0,0l-0.2,0.2H41l-0.2,0.2v0.2L40.4,79.3z M66.1,79.3h-0.2v-0.7h0.2v-0.5h0.2v-0.7h0.2v0.5l-0.2,0.2
	v1L66.1,79.3z M91.5,78.6L91.5,78.6z M91.8,79.6L91.8,79.6z M91.1,80.1h-0.2l0.2-0.2V80.1z M93.9,80.1L93.9,80.1z M93.9,80.3
	L93.9,80.3z M57.3,87v0.2H57L56.8,87l-0.2,0.2l-0.2,0.2h-0.2v-0.2h0.2v-0.7l0.2-0.2V86h0.2v-0.5l0.2-0.2h0.2v-0.2h0.2l0.2-0.2v-0.2
	l0.2-0.2v0.5h0.2v0.5L58,85.6l-0.2,0.2v0.2l-0.2,0.2v0.5L57.3,87z M13.3,98v0.5h0.2v0.2h-0.2l-0.2-0.2h-0.2v-0.2h-0.2v-0.7l-0.2-0.2
	l0.2-0.2v-0.5h0.2l0.2,0.2v0.7l0.2,0.2V98z M69.3,105.2L69.3,105.2z M74.8,105.4L74.8,105.4z M74.5,105.7L74.5,105.7z M65.4,105.9
	L65.4,105.9z M74.5,106.4l-0.2-0.2h0.2V106.4z M63,106.2L63,106.2z M65.2,106.2L65.2,106.2z M63,106.5L63,106.5z M62.5,106.5
	l-0.2,0.2v-0.2H62.5z M63.7,106.7v0.2H64v0.2h-0.2v0.2h-0.3v-0.2h-0.2v0.2H63v-0.2h0.2v-0.2h0.2v-0.2H63.7z M60.4,108.6L60.4,108.6z
	 M59.4,109.1v0.2h-0.2v-0.2H59.4z M58.2,109.3L58.2,109.3z M58.2,110.1l0.2,0.2l0,0v0.5h-0.2v0.2h0.2v0.2h-0.2V111h-0.5v0.2h-0.5
	v-0.5h0.5v-0.5H58V110L58.2,110.1z M58.9,110.5L58.9,110.5z M53.6,111.7h-0.2l0.2-0.2V111.7z M53.4,111.7L53.4,111.7z M56,112
	L56,112z M51.2,112.7L51.2,112.7z M49.8,113.7h-0.2l0.2-0.2V113.7z M42.8,118.5L42.8,118.5z M42.3,119v-0.5h0.2l-0.2,0.2V119z
	 M43,118.7L43,118.7z M42.5,118.7L42.5,118.7z M43,118.7h0.2L43,119v0.5h-0.2v-0.7H43z M42.8,119L42.8,119z M40.8,119L40.8,119z
	 M41.3,119.5L41.3,119.5z M42.8,119.9v-0.2h-0.2v-0.2h0.2C42.8,119.5,42.8,119.9,42.8,119.9z M42.3,119.7H42v-0.2l0,0v0.2H42.3z
	 M42.3,119.7l-0.2-0.2h0.2V119.7z M40.4,123.8L40.4,123.8z M40.6,123.8L40.6,123.8z M40.6,125.2L40.6,125.2z M41.3,128.6h-0.2v-0.2
	L41.3,128.6z M41.6,128.8L41.6,128.8z M41.3,129.5h0.2v0.2l-0.2,0.2v0.5h-0.2v0.2l-0.2,0.2v0.5h-0.1v0.2h-0.2l0.2-0.2l0,0v-1.2h0.2
	V130h-0.2v-0.2h0.2v-0.2L41.3,129.5L41.3,129.5L41.3,129.5z M41.6,130L41.6,130z M41.1,131L41.1,131z M40.8,132L40.8,132z
	 M40.6,132.5l-0.2-0.2h0.2V132.5z M40,134.5h-0.2v-0.2H40V134.5z M22.5,154.2v0.2h0.2v0.2l-0.2-0.2l-0.2,0.2l-0.2,0.2l-0.2,0.2
	l-0.2,0.2v0.5h-0.2v0.2l-0.2,0.2v0.7h-0.2v0.7h-0.2v0.5h-0.2v0.5l-0.2,0.2l-0.2,0.5l-0.2,0.2v0.3h-0.2l-0.2,0.5h-0.2v0.2h-0.2v0.2
	h-0.2v0.2h-0.2l-0.2,0.2v0.2h-0.2l-0.2,0.2v0.2h-0.2l-0.2,0.2h-0.2v0.2h-0.2v0.2h-0.2v-0.2l0.2-0.2v-0.2h0.2v-0.2l0.2-0.2h0.2
	l0.2-0.2h0.2v-0.2h0.2V161l0.5-0.2l0.2-0.2l0.2-0.2V160h0.2v-0.2h0.2l0.2-0.2v-0.2l0.2-0.2v-0.5h0.2v-0.2l0.2-0.2v-0.2l0.2-0.2v-0.2
	l0.2-0.2v-1l0.2-0.2l0.2-0.2v-0.5l0.2-0.2v-0.2l0.2-0.2H22v-0.2L22.5,154.2l0-0.2h0.2L22.5,154.2z"/>
</svg>
