<?xml version="1.0" encoding="utf-8"?>
<!-- Generator: Adobe Illustrator 20.1.0, SVG Export Plug-In . SVG Version: 6.00 Build 0)  -->
<svg version="1.1" id="Layer_1" xmlns="http://www.w3.org/2000/svg" xmlns:xlink="http://www.w3.org/1999/xlink" x="0px" y="0px"
	 viewBox="0 0 28.9 82.8" style="enable-background:new 0 0 28.9 82.8;" xml:space="preserve">
<style type="text/css">
	.st0{fill:#C14803;}
</style>
<title>california</title>
<path class="st0" d="M26.8,58.5v0.2h-0.2v0.5h-0.2v1h-0.2v0.2h-0.2v0.2h-0.2v0.2h0.2v0.2h0.2v0.2h0.2v0.2h0.2l0.2,0.2v0.2l-0.2,0.2
	h0.2v0.2h0.2v0.2h0.7V63H28v0.7h0.2l0.2,0.2v0.7h-0.2v0.5H28v-0.2h-0.5v0.2h-0.2l0.2,0.2h0.2l0.2,0.2v1l-0.2,0.2v1h-0.2v-0.2
	l-0.2-0.2h-0.2v-0.5l-0.2-0.5v-0.5l-0.5-0.2l-0.2-0.7v-0.2h-0.2l-0.2-0.2v-0.2L25.4,64h-0.7v-0.2h-0.2l-0.2-0.2v-0.2l-0.2,0.2
	l-0.2-0.2h-0.5V63l0.2,0.2h0.2V63l0.2-0.2v-0.2h-0.2v-0.2h-0.5v-0.5H23v-0.2h-0.2l0.2-0.2v-0.5h-0.2v-0.5h-0.5v-1H22v-0.2h0.2v-0.7
	L22,58.2h-0.2V57l0,0v-1.4h-0.2v-0.2l-0.2-0.2v-0.2L21,54.6l-0.2-0.2l-0.2-0.2h-0.2v-0.2l-0.2-0.2l-0.2-0.2h-0.2v-0.2h-0.2v-0.2
	h-0.2v-0.2h-0.2v-0.2h-0.5v0.2l-0.2-0.2v0.2h-0.5v-0.2l0,0v-1l-0.2-0.2V51h-1.2v0.2H16V51h-0.5l-0.2-0.2h-0.5v-0.2h-0.5v-0.7h-0.2
	v-0.2h-0.2v-0.2h-0.2l-0.2-0.2h-1.7v-0.2H11l-0.2-0.2v0.2l-0.2-0.2l-0.2,0.2L10,48.6v0.2H9.3v-0.5H8.8v-0.2l0,0v-0.5h0.2v-0.2
	l-0.2-0.2h0.2v-0.7l0,0V46h0.2v-0.7L9.1,45H8.6v-0.2H8.3v-0.2h0.2v-1H8.1v-0.2H7.9v-0.5H7.6v-0.2H7.4v-0.2H7.1v-0.4l-0.2-0.2v-0.2
	H6.7v-0.7H6.4v-0.2H6.2V40l-0.2-0.2l-0.2-0.3H5.5V39l0,0v-0.2l0,0v-0.2l0,0v-0.2H5.2v-0.2h0.2v-0.2H5.2v-0.2h0.2v-0.2h0.2v0.2
	l0.2-0.2l0.2-0.2v-0.5h0.2v-0.5H6.2v-0.5H5v-0.2H4.7v-0.5H4.5v-0.2l0,0l-0.2-0.2V34l0.2-0.2v-1H4.3v-0.5l0.2-0.2v-0.7h0.2v-0.2H5
	v0.5l0,0v0.5l0,0v0.2h0.2v0.2h0.2v0.2h0.2l0,0h0.2v-0.2H5.7v-0.2h0.2v-0.5H5.7l0,0l-0.2-0.2h0.2v-0.2l0,0l0,0H5.5l-0.2-0.2h0.2v-0.5
	H5.2v-0.2h0.2v-0.2h0.2l0.2-0.2v-0.2H5.7v-0.2H5.2v0.2H5v0.7l0,0v0.2H4.7l0,0L5,30.9H4.7v0.2H4.5v-0.2H4.3L4,30.6v0.2H3.8v-0.2
	l-0.2-0.2v-0.2H3.1l0,0H2.8v-0.2h0.2v-0.5h0.2v-0.2H3.1v-0.2h0.2v-0.2H3.1v-0.2H2.8l0.2,0.2H2.8v-0.2h0.2v-0.2H2.8v-0.5H2.6v-0.2
	H2.3v-0.2H2.1v-0.5H1.9v-0.5H1.6v-0.2H1.4v-0.2H1.1v-0.5l-0.2-0.2h0.2v-0.2h0.2v-1H1.1v-0.2l0,0v-0.2l0,0l0.2-0.2H1.1v-0.2h0.2v-0.5
	h0.2V22l0,0v-0.2h0.2v-0.5H1.6V21l0.2-0.2v-0.2H1.6V20H1.4v-0.5H1.1v-0.5H0.9v-0.2H0.7v-0.2H0.4v-1.4l0.2-0.2l0.2-0.2v-0.2h0.2v-0.2
	L1.4,16v-0.2h0.2v-0.3h0.2v-0.2L2.1,15v-0.5h0.2V14H2.1v-0.5h0.2v-0.2l0.2-0.2v-0.5h0.2v-1l0,0v-1l-0.2-0.2H2.3v-0.2h0.2V9.7
	l0.2-0.2V9H2.6V8.8H2.3V8.3h0.2v0.5h0.2V8.5h0.2V8.3h0.2V7.6L3.1,7.1l0.2-0.5V6.4h0.2V6.1h0.2V5.7h0.5V5.4h0.2V5.2H5l0,0h0.2l0,0
	h0.2V4.9h0.2V4.7h0.2L5.7,4.4V4.2H5.5V3.7h0.2V3.5h0.2V3.3h0.2V3h0.2V2.8h0.2V2.1h0.5V1.3h0.2l0.2-0.2V0.9H7.4V0.6l0,0V0.4h0.2v0.2
	h0.7v0.2H8.1v0.5h0.2v0.7h0.2v0.7H8.3L8.1,3v0.2h0.2L8.1,3.5h0.2V4h0.2v0.5l0,0V5H8.3v0.2l0,0v0.5h0.5V5.4l0.2,0.2V5.4h0.2l0,0h0.2
	V5.2H10v0.2H9.8v0.2H9.5v1h0.2v0.4l0,0v0.2H10v0.2H9.3v0.2H9.1l0,0h0.5v0.2H9.3v0.2h0.2v0.5h0.7V9H10v0.2L9.8,9.5H9.5v0.7l0.2,0.2
	v0.2H10v0.2h0.2v0.2h0.2v0.2l0.2,0.2l0.2,0.2v0.2h0.2v0.7h0.2v0.2h0.2v0.2h0.2V15h0.2v0.2h0.2v0.2l0.2,0.2v0.5h0.2l0.2,0.2v-0.2h0.2
	V16h0.2v-0.2h1.2v-0.3H15l0.2,0.2v0.5h0.2v0.5h0.2l0.2,0.2v0.7h-0.2v0.7l0.2,0.2h0.2v0.2h0.2v0.2h0.2v0.2H17v1.2l-0.2,0.2h-0.3V21
	h-0.7v0.7H16v-0.2h0.7l0,0H17v0.2h0.2V22h0.2l-0.2,0.2V23h0.2v1h-0.2v1.9l0.2,0.2v1.4h0.2v1.2H18v0.2h0.2v0.5H18v0.5h0.2v0.5h0.2
	v1.2h0.2v-0.2h0.2v-0.2h1.2v0.5h-0.7v1.2h0.5V33h0.2v1.2h0.5v0.7l0.2,0.2v0.7l0.2,0.2v1.4h0.2v0.7l0.2,0.2v3.4h-0.3v0.2h-1l-0.2,0.2
	v0.2h-0.2v1.7h-0.2v0.2l-0.2,0.2V45h-0.2v0.2l-0.2,0.2v0.2h-0.2v0.5h-0.2v0.2h-0.5v0.2h-0.2v0.2h-0.2v0.2h0.2v0.2h0.2v0.2h0.5
	l0.2,0.2h0.5v0.2h0.2v0.2h0.2v0.2h0.5v0.2h0.5l0.2,0.2h1.4v0.2h1.9l0.2,0.2h1v0.2h0.5V50h0.2v0.7h-0.5V51h-0.2v0.2h-0.2l-0.2,0.2
	v0.2h0.2V52h0.2v0.2h0.2V53h0.2v0.2h0.5v0.2l0.2,0.2v0.5h-0.7v-0.3h-0.2v1.7h-0.2v0.5h0.2v0.2l0.2,0.2V57h0.2v0.5l0.2,0.2V58h0.2
	v0.2L26.8,58.5z M5.5,30.9l-0.2-0.2L5.5,30.9z M5.2,31.1L5.2,31.1z M11.5,50.8h0.2V51h0.7l0,0h0.5v0.2h-0.7v0.2h-0.5l-0.2-0.2V51
	h-0.2v-0.2L11.5,50.8z M9.3,51L9.3,51L9.3,51z M10.7,51v0.2H11v0.2h-0.2v0.2H10v-0.5h0.2V51H10.7L10.7,51z M13.4,51.2L13.4,51.2z
	 M13.6,51.2L13.6,51.2z M14.6,53.9L14.6,53.9z M16.5,53.9h0.2v0.2h0.5v0.2h0.2v0.2h0.2v0.2H17v-0.7l-0.2,0.2v-0.2h-0.3L16.5,53.9z
	 M12.2,55.1h0.5v0.2h-0.5V55.1L12.2,55.1L12.2,55.1z M16.3,56.3v0.2l0.2,0.2V57h0.2v0.2H17v0.2h-0.5v-0.2h-0.2v-0.7H16v-0.2
	L16.3,56.3z M21.6,59.6L21.6,59.6z M13.9,76.4l-0.2,0.2v0.2h0.2v1.2h-0.2v-0.5l0,0v-0.2h-0.2v-0.7h0.2v-0.2L13.9,76.4z M13.7,78.4
	l-0.2-0.2h0.2V78.4z M27.8,82.2v0.2h-0.5v-0.2h-0.5V82h0.2l0.2-0.2v-0.3h0.2v-0.2h-0.2V81h0.2v-0.2h0.2L27.8,82.2L27.8,82.2z
	 M25.9,81v0.2l0,0V81z M26.1,81.2L26.1,81.2z M26.1,81.2L26.1,81.2z"/>
</svg>
