<?xml version="1.0" encoding="utf-8"?>
<!-- Generator: Adobe Illustrator 20.1.0, SVG Export Plug-In . SVG Version: 6.00 Build 0)  -->
<svg version="1.1" id="Layer_1" xmlns="http://www.w3.org/2000/svg" xmlns:xlink="http://www.w3.org/1999/xlink" x="0px" y="0px"
	 viewBox="0 0 37.8 30.1" style="enable-background:new 0 0 37.8 30.1;" xml:space="preserve">
<style type="text/css">
	.st0{fill:#C14803;}
</style>
<title>cape</title>
<path class="st0" d="M1.6,3.2H1.3V3H1.1V2.8H0.9V2.3H0.6V1.1h0.2V0.4h0.2l0.2,0.2H1.1v1.9h0.2v0.2h0.2L1.6,3.2L1.6,3.2z M0.9,3.5
	v0.2H0.6L0.4,3.5V3.2l0.2,0.2L0.9,3.5z M2.3,5.2v0.2H1.8V5.2L1.6,4.9V4.7L1.3,4.5V4.2h0.2l0.2,0.2v0.2l0.2,0.2v0.2L2.3,5.2z
	 M3.5,4.7L3.3,4.9H3l0.2,0.2v0.2h0.5v0.2L4,5.9H3.7L4,6.1v0.7L3.8,6.6v0.2H3.2L3,6.6V6.4L2.8,6.1V5.4L2.5,5.7V4.5l0.2,0.2H3L2.8,4.5
	L3,4.2v0.2h0.2L3.5,4.7z M19.8,23.7h-0.2v-0.2h-1.4v-0.2h-0.2V23h0.5v-0.3h0.2v-0.2h-0.2v-0.2h-1.2l0,0h-0.2V22h-0.7L16,22.2h-0.5
	l0.2-0.2H16v-0.2h1.9v-0.3h-1.2v0.2h-0.2l-0.2-0.2H15l0,0h0.2V22h-0.5v-0.2h-0.2l-0.2-0.2v0.2l0,0V22h0.2v0.2h-0.7V22h-0.7v-0.2h0.5
	v-0.3h0.2v-0.2l0,0V21h1.9v0.2h1.2l0.2-0.2h0.5l0.2,0.2V21h1l0,0h0.5v0.2h2.1V21h0.2l0.2,0.2V21h0.2v0.2h1v0.2h1.2v0.2h1.2v-0.2h0.7
	l-0.2,0.2l0.2-0.2h0.2v0.2l0,0V22H27v-0.2h0.2V22h0.5v0.2h-0.5L27,22h-0.2l0,0H26l0,0h-0.2v-0.2h-0.2V22h-0.7l-0.2,0.2h-0.2L24.1,22
	h-0.2v0.2h-1V22l0,0v0.2h-0.2V22h-0.5l0,0H22v0.2h-1.7V22h-0.2l0,0h-0.7v-0.2h0.2l0.2-0.2h-0.5l0,0h-0.5v0.2h0.5V22h-0.2v0.2h0.2
	v0.5h-0.2V23h0.2v0.2h1.4v0.2h1v0.2h0.7l0,0h0.2l0,0H23v-0.2h0.5v-0.2h-0.2V23H23v-0.5h0.5v0.2h1.4v-0.2h0.5l0.2-0.2l0.2,0.2h-0.5
	v0.2h1v-0.2h1v-0.2h0.5l0,0H28l0,0h0.5V22h0.7v0.2h0.7l0.2,0.2h1v0.2h1.2v-0.2h1l0.2,0.2H34l0,0h1.4V23h0.2v0.2h0.5v0.2h-1v-0.2
	h-0.2v0.2h0.2v0.2h0.2v0.2h0.2v0.2h0.2v0.2h0.5v0.2h0.2l0,0h0.2l-0.2,0.2h0.2v0.2h-1.2v-0.2h-1v-0.2h-0.5l0,0h0.7v0.2h1v0.2h0.5
	v-0.2h-0.5v-0.2h-0.2l0,0h-0.5v-0.2h-0.7v-0.2h-0.2v-0.3H34v-0.2h-0.5v-0.2h0.2l0,0h-0.5l0,0H33v-0.2h-0.2v0.5h-0.5v-0.2h-0.5v-0.2
	h-0.2v-0.2l-0.2,0.2v-0.2h-0.5l0,0l0,0l0,0h0.2v0.2h0.2l0,0h0.2v0.2h0.2l0,0h0.5v0.2h0.5l0,0h0.5v0.2h0.2v0.2l0,0v-0.2h0.7v0.2h0.2
	v0.2l0,0l0,0h-0.2v0.2l0,0v-0.2H34v0.5h-0.2v0.2h-0.3v0.2l-0.2,0.2l0,0v0.5h-0.5v-0.2h-1.2v-0.2l0,0v-0.2h-0.2v-0.2h-0.7v-0.2h-1.2
	v-0.2h-0.2v-0.2h-0.2v0.2h-0.2v-0.2l0,0l0,0h-0.2l0,0h-0.2v0.2h-0.5v0.2h-0.2v-0.2h-0.2l0,0h-0.5v0.2h-0.2v-0.2h-0.5v-0.2h-1l0,0
	h-0.5l0.2-0.2h-0.2v0.2h-0.2l0,0h-0.7v0.2h-1.2v-0.2l0,0l0,0h-0.2v0.2H22v0.2l0.2,0.2H22l-0.2,0.2h-0.3v0.2h-0.2v0.2h0.2v0.2h-1v0.5
	h-0.2v0.2l0,0v-0.2h-0.2v0.2l0,0V27h-1v-0.2h-0.7V27h-0.4v0.2h-0.2V27h-0.7v-0.2H16V27h-0.2l0.2,0.2h-0.2v0.2l-0.5-0.2h-0.7v0.2
	h-0.5v0.2h-0.2V28h-0.2v0.2h-0.5v0.2l-0.2,0.2h-0.5v0.5h-0.2l0,0h-0.5V29h-1v0.2L10.4,29l0,0v-0.3h-0.2v-0.2H9.7v-0.2H9.2v-0.5h0.2
	v-0.2l-0.2-0.2H9V27l-0.2,0.2H8.5l0,0H8.3V27l-0.2-0.2h0.2v-0.2l0,0v0.2H7.1l0,0l0,0v-0.2l0,0v-1l-0.2-0.2H5.4v1.4l0,0v-0.2H5.2V26
	H4.9v-1l0,0v-0.5h0.2v-0.2h0.2v-0.7l-0.2-0.2h0.2l-0.2-0.2v-0.2H4.9v-0.1H4.7V22H4.5v-0.2H4.2v-0.3H4v-0.2L3.7,21v-0.2l-0.2-0.2
	l-0.2-0.2V20h0.2v0.5h0.2v0.2H4v-0.2H3.7v-0.2H3.5v-0.7H3v0.2l0,0l-0.2-0.2v-0.7H2.5v-0.2H3l-0.2-0.2H3v-0.2h0.2v0.2h0.3v0.2h0.2
	v-0.2H4l0.2-0.2l0.2-0.2v-0.2l0.2-0.2v-1.2H5v0.5h0.2v0.5h0.5v0.2h0.5l0,0h0.2l0,0H6.1v-0.2H5.9l0,0H5.7v-0.2H5.4v-0.2h0.2l0,0h0.2
	V16H5.7v0.2H5.4V16H5.2v-0.5l-0.2-0.2v-0.5l-0.2-0.2v-1h0.2v-0.2l-0.2-0.2v-0.5h0.2v0.5h0.2v0.2H4.9v0.2h0.2v0.2h0.2L5.7,14h0.2v0.5
	h0.2V14H5.9v-0.2l-0.2-0.2h0.2v0.2h0.2V14h0.2v0.2h0.2V14H6.4v-0.5H6.1v-0.5h0.2l-0.2-0.2h0.2v0.2h0.2v-0.5h0.2v0.2h0.2v0.2h0.2v0.2
	h0.2l-0.2-0.2l0,0v-0.2h0.2v-1H7.3l0,0h0.2v-0.2h0.2v-0.5H7.6v-0.7H7.3v-0.2l0.2,0.2v-0.2h0.2V10H7.3V9.7h0.5V10h0.2v0.2H7.8v0.2
	l0.2,0.2v0.5l0.2,0.2v0.5l0.2,0.2H8.3v0.2h0.2v0.2h0.2v0.2H8.5v0.2h0.2v0.5H8.5v0.7l0,0v0.5H8.3V15h0.2v0.2H8.3v0.2l0.2,0.2V16h0.2
	v0.2H9v0.2h0.2l0.2,0.2L9.7,17v0.2l0,0v0.5H10v0.2h0.5v0.5h0.2v0.5l0.2,0.2h-0.3v1.4h-0.2v0.2l0,0v0.7l0.2-0.2h0.2v0.2h1v0.2h-0.7
	V22l0,0v0.7h0.2V23h1.4v-0.3l0,0v0.2h0.2v0.2h1.2v0.2l0.2,0.2H16v0.2h-0.5v0.2h-0.2v0.2H15l0,0l0.2,0.2v-0.2H16v-0.2h0.2v0.2h3.1
	l0.2-0.2v-0.2h0.7v-0.2L19.8,23.7L19.8,23.7z M25.6,23.9v0.5h0.2v-0.2h0.2l0,0h-0.5V23.9z M25.6,24.2L25.6,24.2L25.6,24.2z
	 M11.9,24.2h-0.2v0.5h-0.2v0.2h0.2v0.2h0.5v-0.5h0.2l0,0h0.2v0.2h0.5v-0.2h-0.2v-0.2h-0.2v0.2h-0.2l-0.2-0.2l0,0v-0.2H11.9z
	 M10,22.7H9.5v0.2l0,0v0.2h0.2v0.2H10v0.2l-0.2,0.2v0.2l0,0v0.2H9.5v0.2H10v-0.2h0.2v0.2l0,0v0.2h0.5v-0.2H11v-0.2h0.2v-0.2h0.2v0.2
	h0.2v-0.2h-0.2v-0.5l0,0v-0.2h-0.2l0,0H11v-0.2h-0.3v-0.2h-0.2l-0.2-0.2H10z M11.4,22.9h-0.2v-0.2H11v0.2h0.2v0.2h0.2v0.2h0.7v-0.2
	h0.2l0.2,0.2v-0.2h-0.2l0,0l-0.2-0.2H11.4z M10.4,18.9v-0.2h-0.2v0.2H10.4z M29.6,24.4v0.2l0,0V24.4z M29.9,24.6v0.2h0.2v-0.2H29.9
	L29.9,24.6L29.9,24.6z M30.6,22.9l0.2-0.2h-0.7v-0.2h-0.5v0.2h1L30.6,22.9z M28.9,22.5h-0.2l0,0H28.9z M32,23.2L32,23.2z M19.3,21.2
	h-0.7l-0.2,0.2h-0.5l0,0h0.7l0.2-0.2C18.9,21.2,19.3,21.2,19.3,21.2z M11.2,10.4L11.2,10.4z M11.4,11.6h-0.5l-0.2-0.2h-0.5v-0.2h0.2
	l0.2-0.2v-0.2h0.2v0.2h0.2l-0.2,0.2l0.2,0.2L11.4,11.6z M10.4,12.4l0.2,0.2l0.2-0.2v0.5h-0.2l0,0H10v-0.2h0.2L10,12.4L10.4,12.4
	L10.4,12.4z M11.1,13.6h-0.4l0.2-0.2v-0.5l0.2,0.2L11.1,13.6L11.1,13.6z M12.1,14.3h-0.5l0.2,0.2h0.5v1h-0.2v-0.2L11.9,15h-0.2v-0.2
	h-0.2v-0.2h-0.2v-1l0.2-0.2l0.2-0.2l0.2,0.2l0.2,0.2h-0.2V14L12.1,14.3z M16.7,17.4v1l-0.2,0.2v-0.2h-0.2v0.2H16v0.2h-0.2v0.5h-0.3
	v0.2h-0.2v0.2l0,0v0.2h-0.7v0.2h-0.2v-0.2h-0.2v0.2l0,0v-0.2h-0.5v-0.5h-0.2v-0.2h0.2v-0.2h-0.2v-0.2h-0.2v-0.2h0.2l0.2,0.2v-0.2
	h-0.2v-0.2h0.2v0.2h0.2v0.2h0.2l0,0h0.2l0,0h0.5v-0.5h-0.5l0.2-0.2l0.2-0.2h-0.5l-0.2-0.2h0.2v-0.2h-0.7v-0.2L13.3,17h-0.2v-0.7
	h-0.5V16h-0.2l0.2-0.2h-0.2l0.2-0.2v-0.2h-0.2V15l0.2-0.2v-0.5h0.2l0.2,0.2v0.2h-0.2V15h0.2l0.2,0.2V16l0.2-0.2V16h0.2l0.2,0.2v0.2
	l-0.2,0.2h0.2v-0.2h0.5V17l0.2,0.2v0.2l0.2,0.2l0.2,0.2h0.2v-0.2h0.7l0.2-0.2L16.7,17.4z M9,14.8V15H8.3v-0.2h0.5l0,0L9,14.8z
	 M9.2,15.2h0.3v0.2H9.2l0,0H9l0,0H8.8l0,0H8.5l0,0l0,0v-0.2H9.2L9.2,15.2L9.2,15.2L9.2,15.2z M18.1,15.5v0.2l0.2,0.2l-0.2,0.2
	l-0.2,0.2h-0.2l-0.2,0.2h-0.2v0.2h-0.5v-0.2l-0.2-0.2v-0.2h0.2l0.2,0.2l0.2-0.2V16l0.2,0.2h0.2l0.2-0.2v-0.5l0.2-0.2L18.1,15.5z
	 M9,16v0.2h0.2l0,0H9L8.8,16v-0.2H9V16z M4.9,16.2h0.2v0.5H4.9L4.9,16.2H4.7V16h0.2L4.9,16.2z M12.8,20.6h-0.2l0.2,0.2h-0.7l0.2,0.2
	h-0.2v-0.2h0.2v-0.2C12.4,20.6,12.8,20.6,12.8,20.6z M26.8,20.8L26.8,20.8z M14.5,20.8L14.5,20.8z M11.2,20.8h-0.2V21l0,0v-0.2
	L11.2,20.8z M22.4,20.8h0.2l0.2,0.2h0.7v0.2h-0.2L23.2,21l0,0l0,0h-1.4v-0.2L22.4,20.8L22.4,20.8z M13.1,20.8h0.5V21h-0.7v-0.2
	L13.1,20.8z M11.4,21L11.4,21v0.2h-0.2L11.4,21L11.4,21z M26.8,21h-0.7v0.2h-0.7l0,0h-0.2V21C25.1,21,26.8,21,26.8,21z M25.3,21.2
	L25.3,21.2z M13.1,21.5h0.2v0.2h-0.2V21.5L13.1,21.5z M28,21.7h-0.2v-0.2H28V21.7z M3.8,21.7L3.8,21.7z M13.4,22.5L13.4,22.5V22
	l0.2,0.2h-0.2V22.5z M15.3,22.2h0.2l-0.2,0.2H15v0.2h-0.5v-0.2h-0.2v-0.2H15.3L15.3,22.2z M15.8,22.5L15.8,22.5L15.8,22.5z
	 M16.2,22.5h0.5v0.2h-0.2v0.2h-0.2v-0.2H16v-0.2L16.2,22.5z M10,23.2L10,23.2L10,23.2z M33,23.4L33,23.4l0.2,0.2H33V23.4L33,23.4z
	 M11.2,23.6v0.2h-0.2v-0.2H11.2z M4.9,23.9L4.9,23.9z M10.7,24.1h-0.2v-0.2h0.2V24.1z M10.4,24.1v0.2l-0.2-0.2v0.2H10v-0.2h0.2
	l0.2-0.2L10.4,24.1z M12.1,24.4h-0.2v0.2h-0.2v-0.5h0.2l0,0h0.2L12.1,24.4z M12.1,24.8h-0.2v-0.2h0.2L12.1,24.8z M23.9,24.8h0.2v0.2
	h0.2l0,0h-0.5l-0.2-0.2H23.9L23.9,24.8z M26.3,24.8H27v0.2h-0.2v0.2h-0.5v-0.2l0,0L26.3,24.8z M25.1,24.8v0.2h0.2v0.2h-0.5l-0.2-0.2
	h0.2l0,0h0.2V24.8z M23.2,25.1L23.2,25.1z M25.3,25.1L25.3,25.1z M22.7,25.1L22.7,25.1z"/>
</svg>
