<?xml version="1.0" encoding="utf-8"?>
<!-- Generator: Adobe Illustrator 20.1.0, SVG Export Plug-In . SVG Version: 6.00 Build 0)  -->
<svg version="1.1" id="Layer_1" xmlns="http://www.w3.org/2000/svg" xmlns:xlink="http://www.w3.org/1999/xlink" x="0px" y="0px"
	 viewBox="0 0 134.9 82.3" style="enable-background:new 0 0 134.9 82.3;" xml:space="preserve">
<style type="text/css">
	.st0{fill:#C14803;}
</style>
<title>caribbean</title>
<path class="st0" d="M28.2,0L28.2,0z M29.4,0.7L29.4,0.7z M29.9,1h-0.2V0.7h0.2V1z M29.9,0.8L29.9,0.8z M31.3,1L31.3,1z M29.2,1.2
	h-0.2l0,0H29.2z M31.6,1.5h-0.2V1.2L31.6,1.5z M32.3,1.7L32,1.5h0.2V1.7z M27.3,1.7L27.3,1.7z M30.9,1.7h0.7V2h0.2V1.7h0.2v0.2h-0.5
	l-0.2-0.2v0.2l0,0V1.7h-1l-0.2,0.2V1.7L30.9,1.7L30.9,1.7z M32.1,1.7L32.3,2h0.2v0.2h0.2v0.2H33v0.2h0.2l0.2,0.2l0,0v0.2h0.2v0.2
	h0.7v0.2h0.2l0.2,0.2v0.5l0.2,0.2h-0.2v0.2h0.2V5l0,0V4.8h-0.2V5h-0.2v0.2l-0.2,0.2l0.2,0.2l0,0v1.5h-0.2V7h-0.2l0,0h0.2V6.7h-0.2
	l0,0L34,6.5h-0.2V6.2H34V6h0.2V5.8l0,0V5.5l0,0V5.3L34.5,5h-0.2V4.8l0,0V4.3l0,0V4.1l0,0V3.8h0.2V3.6h-0.2V3.4h-0.5l0,0h-0.5V2.9
	h-0.5V2.4h-0.2V2.2h-0.2V1.9h-0.2L32.1,1.7z M32.6,2l-0.2-0.2h0.2V2z M30.9,1.7L30.9,1.7z M30.6,2L30.6,2z M32.3,2.2L32.3,2.2z
	 M27.8,2.2L27.8,2.2z M30.6,2.2L30.6,2.2z M32.6,2.2L32.6,2.2z M33,2.2L33,2.2z M27.5,2.4v0.2h0.7v0.2h0.7V2.6h0.2l0,0l0.2,0.2l0,0
	V2.6h0.2l0,0h1v0.2h0.2v0.2h-1.7v0.2l-0.2-0.2v0.2H28v0.2h-0.2l-0.2,0.2h-1V3.6h-0.2V3.4H26V3.1h-0.2V2.9l0,0v0.2h0.5v0.2h0.2v0.2
	h0.2l0,0H27V3.4h0.2V3.1h0.2V2.9h-0.2V2.6l0,0V2.4H27.5l-0.3-0.2h0.2L27.5,2.4z M32.5,2.2v0.2l-0.2-0.2H32.5z M33.2,2.4L33.2,2.4z
	 M27.7,2.4L27.7,2.4z M27.9,2.4L27.9,2.4z M27.7,2.6L27.7,2.6z M28.9,2.6L28.9,2.6z M33.7,2.9L33.7,2.9z M34.2,2.9h0.2l0,0H34.2z
	 M25.8,2.9H26l0,0H25.8z M33,2.9v0.2l-0.2-0.2H33z M30.8,3.1L30.8,3.1L30.8,3.1z M32.7,3.1L32.7,3.1z M34.7,3.1L34.7,3.1z M26.5,3.1
	L26.5,3.1z M33.2,3.1L33.2,3.1z M31.1,3.1L31.1,3.1z M31.1,3.1l-0.2,0.2l0,0V3.1L31.1,3.1z M33,3.4L33,3.4z M33,3.1L33,3.1z
	 M27.2,3.4H27V3.1h0.2V3.4z M26.5,3.4L26.5,3.4z M31.1,3.4v0.2h-0.2V3.4H31.1z M33.5,3.4L33.5,3.4z M31.1,3.4L31.1,3.4z M26.8,3.6
	L26.8,3.6z M26.8,3.4v0.2h-0.2V3.4H26.8z M31.1,3.6L31.1,3.6z M33.2,3.6L33.2,3.6z M34.2,3.6v0.2H34V3.6H34.2z M35.2,4.1L35.2,4.1z
	 M33.8,3.8V3.6H34v0.2H33.8z M34,3.6v0.2l-0.2,0.2V3.8L34,3.6z M33.8,3.8L33.8,3.8z M33.5,3.6L33.5,3.6z M34,4.1L34,4.1z M34,4.1
	L34,4.1z M34,4.1v0.2l0,0V4.1L34,4.1L34,4.1z M34.2,4.1L34.2,4.1z M34.9,4.3L34.9,4.3z M33.9,4.3L33.9,4.3L33.9,4.3z M33.7,4.6
	L33.7,4.6z M34,4.3L34,4.3l0.2,0.2l0,0H34v0.2l0,0V4.3z M35.4,4.6L35.4,4.6z M33.8,4.6L33.8,4.6z M34,4.6L34,4.6z M34,4.8h-0.2V4.6
	H34V4.8z M32.8,4.8v0.5L32.5,5V4.8L32.8,4.8z M32.5,5L32.5,5z M32.5,5.2L32.5,5.2z M31.5,7.4L31.5,7.4z M31.5,7.6h0.2v0.2L32,8.1
	h-0.2V7.9h-0.2V7.6L31.5,7.6L31.5,7.6L31.5,7.6z M25.1,7.6L25.1,7.6l-0.2,0.2V7.7L25.1,7.6z M24.8,7.9h0.2v0.2h-0.2V7.9z M32,8.4
	h-0.2V8.2L32,8.4z M32.5,8.4L32.5,8.4z M32.5,8.8L32.5,8.8z M25.1,8.8L25.1,8.8z M37.5,8.8h-0.2v0.2h0.2l0.2,0.2H38v0.3h0.2l0.2,0.2
	l0.2,0.2H39l0.2-0.2v0.2h0.2v0.2h0.2v0.2H40v0.2h0.5V11h0.2v0.2l0,0V12h-0.2v0.2h0.2V13h-0.2v0.2h0.2v0.2l0.2,0.2h-0.3v-0.2h-0.2
	v-0.3h-0.2V13H40l-0.2-0.2h0.5V13h0.2v-0.2h0.2v-0.2h-0.2l0,0h-0.2V12h0.2v-1H40v-0.2h-0.2v-0.2h-0.3v-0.2h-0.2v-0.2h-0.5V9.8h-0.2
	l0,0h-0.2V9.6h-0.2l-0.2-0.2h-0.5v0.2h-0.2V9.4l0,0V9.1h0.2V8.9L37.5,8.8L37.5,8.8z M37.8,8.8L37.8,8.8z M37.1,8.8L37.1,8.8z
	 M25.3,9.1V8.9l0,0V9.1z M36.8,9.1L36.8,9.1L36.8,9.1z M37.8,9.3L37.8,9.3z M32.5,9.1L32.5,9.1z M32.5,9.6L32.5,9.6L32.5,9.6z
	 M32.1,9.6L32.1,9.6z M31.8,9.6L31.8,9.6z M36.8,10V9.8h0.2l0,0L36.8,10z M32.3,9.8h-0.2V9.6h0.2V9.8z M36.9,10.1L36.9,10.1z
	 M30.6,10.8h0.2l0.2,0.2h0.2v-0.2h0.2v0.5h0.2V12l0,0v-0.2h0.2v0.5h0.2v0.2l0.2,0.2l0.2,0.2v0.2H33v0.2h0.2v1h0.2v0.2H33v0.2l0,0
	l-0.2,0.2h-0.2l0,0l-0.2,0.2l0,0v0.2H32v-0.2l-0.2-0.2v-0.2h-0.5v-0.2h0.2v-0.3l-0.2,0.2h-0.2l-0.2-0.2h-0.2l-0.2-0.2l-0.2-0.2l0,0
	h-0.2v-0.2h0.2v-0.2l0,0l0,0h0.2V13h0.2v-0.5h0.2v-1.2L30.6,11V10.8L30.6,10.8L30.6,10.8z M30.6,11L30.6,11z M35.6,11.3h0.2l0,0
	H35.6z M35.1,11.3L35.1,11.3z M34.9,11.3L34.9,11.3z M34.7,11.3h0.2v0.2h0.2v0.2h-0.4l0,0h-0.2V12l-0.2-0.2h-0.5v-0.2h0.5v-0.2
	L34.7,11.3L34.7,11.3z M35.1,11.3L35.1,11.3L35.1,11.3z M32,11.8L32,11.8z M43,13.4l0.2,0.2v0.2h0.2v0.2h0.2v0.5l0.2,0.2h0.2v0.2
	h0.2v0.2h0.2v0.2H45v0.2h0.2v0.5h-1v-0.2h0.5v-0.5l-0.2-0.2h-0.2v-0.2h-0.2v-0.2l-0.2-0.2v-0.2h-0.2v-0.2h-0.2v-0.2l-0.2-0.2h-0.2
	v-0.2L43,13.4L43,13.4z M37.7,13.4L37.7,13.4z M29.8,13.4v0.2h-0.2v-0.2H29.8z M29.6,13.4v0.2l-0.2-0.2H29.6z M33.2,13.7L33.2,13.7z
	 M37.7,13.7v0.2l-0.2-0.2H37.7z M41.8,13.9h0.2v0.2L41.8,13.9l0.2,0.2h-0.2L41.8,13.9z M42.3,13.9L42.3,13.9z M38,14.2L38,14.2z
	 M38,14.6L38,14.6z M33.2,14.6v0.2H33L33.2,14.6z M33.7,14.9v0.2h-0.2v0.2h-0.2v-0.2h0.2v-0.2l0,0l0,0H33.7z M38.7,14.9L38.7,14.9z
	 M33.1,14.9L33.1,14.9z M38.9,15.1h-0.2l0,0H38.9z M32.9,15.1h-0.2v0.2h-0.2v-0.2h0.2l0.2-0.2V15.1z M32.9,15.1v0.2h-0.2v-0.2H32.9z
	 M33.4,15.1l0.2,0.2h-0.1L33.4,15.1z M38.9,15.4L38.9,15.4z M39.1,15.4L39.1,15.4z M33.4,15.4L33.4,15.4z M33.6,15.4L33.6,15.4z
	 M33.6,15.4L33.6,15.4z M32.6,15.4L32.6,15.4z M33.1,15.4L33.1,15.4z M39.1,15.6L39.1,15.6z M34,15.6v0.2l0,0v1h-0.5l0,0l0,0V17
	h-0.2v-0.2l0,0v-0.2H33v-0.2l0,0v-0.2l0,0l0.2-0.2l0,0h0.2v-0.2h0.2v-0.2H34V15.6z M33.5,15.6h-0.2v-0.2h0.2V15.6z M33.3,15.6H33
	l0.2-0.2L33.3,15.6z M33.5,15.6L33.5,15.6L33.5,15.6z M32.5,15.6h-0.2v0.2l-0.2-0.2H32.5L32.5,15.6z M32.5,15.6h0.2l-0.2,0.2h-0.2
	v-0.2H32.5z M33,15.6h-0.2l0,0H33z M39.5,15.6v0.2l0,0V15.6L39.5,15.6z M33,15.6h0.2v0.2H33v0.2h-0.2l-0.2,0.2v-0.5h0.2l0,0H33V15.6
	z M34.2,18.2H34V18h0.5v-0.2L34.2,18v-0.2h-0.7l0.2-0.2v0.2l0,0v-0.2h-0.2V17l0,0v-0.2H34v-0.5h0.2v-0.2h0.2v0.2h0.2V17H35v1h-0.3
	v-0.2h-0.2V18h-0.2L34.2,18.2z M40,16.1L40,16.1z M39.8,16.3L39.8,16.3z M40.2,16.3L40.2,16.3z M49.6,16.3V17h-0.2v0.2h-0.3v-1
	L49.6,16.3L49.6,16.3z M40.7,17h-0.2v-0.2h-0.2v-0.2H40l0.2-0.2v0.2l0.2,0.2V17H40.7z M34,16.6L34,16.6z M36.6,16.8L36.6,16.8z
	 M20.8,17.3l-0.2,0.2v-0.2H20.8z M41,17.5L41,17.5z M35.2,17.5L35.2,17.5z M41.2,17.8v-0.2H41L41.2,17.8z M33.5,17.8L33.5,17.8z
	 M46.7,18h-0.2v-0.2h0.2V18z M33.7,18h-0.2v-0.2h0.2L33.7,18z M33.7,18L33.7,18z M41.4,18L41.4,18z M34.7,18h0.2v0.5h-0.5l0,0H34
	v-0.2l0,0l0,0h0.5L34.2,18H34.7z M34.9,18L34.9,18z M33.5,18.2L33.5,18.2z M33.7,18H34v0.2h-0.2L33.7,18z M41.7,18.2L41.7,18.2z
	 M34.2,18.2L34.2,18.2z M42.1,18.2L42.1,18.2z M41.7,18.2L41.7,18.2z M41.7,18.5L41.7,18.5z M34.7,18.5L34.7,18.5z M34.2,18.7
	L34.2,18.7z M42.1,18.7v-0.2h0.2L42.1,18.7L42.1,18.7z M48.1,18.5l0.2,0.2h-0.2l0,0h-0.5v-0.2H48.1z M21.2,18.5L21.2,18.5z
	 M41.9,18.7L41.9,18.7z M41.9,18.7L41.9,18.7z M42.6,18.7l0.2,0.2h0.2v0.2l0.2,0.2h0.2v0.2H44v0.2h-0.5v-0.2h-0.2v-0.2h-0.2v-0.2
	h-0.7V19l0,0v-0.2L42.6,18.7z M45.7,18.7H46v0.5h0.2v0.2h0.2v0.5h0.2v0.2l0.2,0.2h0.2v0.7l0.2,0.2v0.2h0.5v0.2h0.5v0.2l0.2,0.2v0.5
	h0.2V23h-0.2v-0.2l-0.2-0.2v-0.2l-0.2-0.2l-0.2-0.2h-0.7v-0.2H47l-0.2-0.2l0,0H47v-0.5h0.2v-0.2H47v-0.2l0,0v-0.2h-0.5v-0.5h-0.2
	v-0.2H46v-0.2h-0.2L45.7,18.7L45.7,18.7L45.7,18.7z M34.2,18.7L34.2,18.7z M42.3,18.7L42.1,19v-0.2H42.3z M45.7,19L45.7,19z
	 M25.3,19.4l-0.2-0.2L25.3,19.4z M43.8,19.4L43.8,19.4L43.8,19.4z M25.5,19.7l-0.2-0.2L25.5,19.7z M43.3,19.9L43.3,19.9z M44,19.7
	L44,19.7z M43.5,19.9L43.5,19.9z M43.3,19.9L43.3,19.9z M44.3,19.9L44.3,19.9z M43.1,19.9L43.1,19.9z M44.3,19.9h0.5l0.2,0.2h-0.2
	v-0.2l-0.2,0.2v-0.2H44.3z M43.6,19.9L43.6,19.9z M44.3,19.9h0.2l0,0H44.3z M43.8,19.9L43.8,19.9z M45,20.2L45,20.2z M19.1,20.9h0.2
	v0.2h-0.2V20.9L19.1,20.9z M18.6,21.1L18.6,21.1z M19.1,21.1v-0.2l0,0V21.1z M46.5,21.1L46.5,21.1z M19.6,21.1L19.6,21.1z
	 M20.8,21.1L20.8,21.1l0.2,0.2h0.2l0,0h-0.5l-0.2-0.2H20.8z M19.8,21.1L19.8,21.1z M20.3,21.1L20.3,21.1H20l0,0H20.3z M21.3,21.1
	L21.3,21.1z M20.5,21.1L20.5,21.1z M19.8,21.1L19.8,21.1z M20.1,21.1L20.1,21.1L20.1,21.1z M18.1,21.1h-0.2v0.2h-0.5v0.2l0,0v-0.2
	h0.2l0.2-0.2H18.1z M19.1,21.1h0.2l-0.2,0.2V21.1z M20.1,21.4L20.1,21.4z M18.9,21.1v0.2h-0.2v-0.2H18.9z M20.6,21.4L20.6,21.4z
	 M19.6,21.4l0.2,0.2h-1l0,0h0.2l0.2-0.2H19.6z M13.9,21.4H15l0,0h0.5l0,0H16v0.2h0.2v0.2H16v0.2h0.5v-0.2h0.2v-0.2h0.7l0.2,0.2
	l0.2,0.2h0.5v-0.2l0.2-0.2v0.2h0.2l0,0l0.2,0.2v-0.2h1.4v-0.2l0,0v0.2h0.2v0.2H21v0.2h0.5v0.2h0.7v0.2h0.5v-0.2h0.2l0,0h0.7v0.2h0.2
	V23h0.5v-0.2h0.2V23h-0.2v0.2h0.5l0.2,0.2h0.5v0.2l0.2,0.2l0,0l0.2,0.2v0.2h0.2v0.2h0.5V25l0.2,0.2h0.2v0.2h2.9V26h0.2v-0.5
	l-0.2,0.2v-0.2h0.2l0.2,0.2h0.2V26h0.5l0.2,0.2H32v0.2h0.2v0.2h0.5v0.2h0.7v0.2H34v0.5h0.2v0.2h0.2v0.2h0.2v0.2H35v-0.5l0,0l0,0h0.2
	v-0.3H35l0.2-0.2H35v0.2l-0.2-0.2l0,0h-0.2l-0.2-0.2v-0.2l0.2,0.2l0,0H35l0,0h0.2L35,26.9h0.2v0.2l0,0l0,0h0.7v0.7h-0.2l0,0h-0.2
	l-0.2-0.2v0.2H35v0.2h0.2v0.2h0.2l-0.2-0.2h0.2v0.5h0.5v0.2h0.2l0,0h0.7l0,0h0.2l0,0h-0.2l0.2,0.2v0.2h0.2l0.2,0.2V29l-0.2,0.2v-0.4
	h-0.3v-0.2l0.2,0.2h0.2l0.2,0.2h0.2v0.2h0.5v0.2H39v0.2h0.2V30h0.2v0.2h0.2v0.2h0.5v0.2h0.5l0,0l0.2,0.2h0.5v0.2h0.2l0,0h0.2l0,0
	h0.7v0.2h0.5v0.2h0.5v0.2h0.2v0.2H44l0,0h0.2l0.2,0.2l0,0l0,0l0.2-0.2l0,0h0.5l0,0h1v0.2h0.5v0.7l-0.2,0.2h0.2v0.2H47v0.2h0.2
	l0.2,0.2h0.7v0.2h1l0,0h0.2l0,0h0.7v0.2h0.5v0.2h0.7V35h0.2v0.2h0.2v0.2h0.5v0.2h0.2v0.5h0.2l0.5,0.2h1l0.2,0.2V37l0,0v0.2h-0.2v0.5
	h-2L52,38v-0.2h-0.5V38H51v0.2h-0.5v0.2H50v0.2h-0.5v-0.3h0.2v-0.2h-0.2v0.2l0,0l-0.2,0.2h-1.9v-0.2h-0.5v-0.2h-0.2l0,0h-0.5v-0.2
	l0,0v0.2H46l0,0h-2.9v0.2h-0.2l-0.2-0.2l0,0h-0.2l0,0h-0.2v0.2h-1l-0.2,0.2h-1.2v-0.2h-0.2l0,0h-0.2l0,0H39v0.5h-0.5v-0.2h-0.2v0.2
	h-1.4l0.2-0.2l0,0v-0.2h0.2l-0.2-0.2h0.2v-0.2h0.2v-0.2h0.2v-0.2h0.2v-0.2h0.2V37h0.5v-0.2H39v-0.2h0.5v-0.2h0.2v-0.7l-0.2-0.2l0,0
	l0,0h-0.2V35L39,35.2l0,0V35h-0.2v-0.2H39v-0.2h-0.5v-0.2h-0.7v0.2h-0.2l-0.2-0.2h-0.2v0.2l-0.2-0.2h-1v-0.2l-0.2,0.2l0,0h-1v-0.2
	h-0.5v-0.2l0,0v-0.2h-0.5v-0.2h-0.2v-0.2H33v-0.2h-0.2v-0.2h-0.2l0,0l-0.2-0.2v-0.2h0.2v-0.2h-0.2v-0.2h-0.2v-0.2h0.2v-0.2h-0.2
	L31.8,31v-0.2l-0.2-0.2l0,0v-0.2h-0.2V30h-0.2v-0.2l0,0v-0.2h-0.2l-0.2-0.2v0.2h-0.5v0.2h-0.2v-0.2h-0.2l-0.2,0.2h-0.7V30h-0.2
	l-0.2-0.2h-0.5v-0.2l-0.2,0.2h-0.2v-0.2H27v-0.2h-0.2l0.2,0.2h-0.2v-0.2l-0.2,0.2v-0.2h-0.2V29H26v0.2L25.8,29h-0.5l0,0h-0.2l0,0
	h-0.2v-0.2h-0.2V29l-0.2-0.2v-0.2h-0.5l0,0h-0.2v-0.2h-0.2L23.2,28h-0.2v-0.2h-0.2v-0.2h-0.2v-0.2h-0.2L22,27.1v0.2l-0.2-0.2h-0.3
	v0.2h-0.2v-0.2h-1L20,27.4h-0.5l-0.2-0.2h-0.2l-0.2-0.2l-0.2-0.2v-0.5h-0.2v-0.2l-0.2,0.2h0.2v0.7h-0.2l0,0l0,0l-0.2,0.2l0,0h-0.2
	v-0.2h-0.2v-0.2h-0.5v-0.2h-0.2v0.2h-0.2v-0.2H16v0.2l0,0v-0.2h-0.2v0.2h-0.5v-0.5h-0.5l-0.2-0.2h-0.2v-0.2h-0.5l0,0l-0.2-0.2v-0.2
	h2.2L16,25v-0.2l0,0v-0.2h-0.2v-0.2h-0.3L15.2,24h-4.3v-0.2h-0.5v0.5h-0.2v0.2H10v0.2H9.7l-0.2-0.2v0.2H9.2V25H9v0.2l-0.2,0.2v0.2
	H8.3V26l-0.2-0.2v0.5H7.8v0.2H7.6l0,0H7.3v0.2H7.1v-0.3H6.8v-0.2l-0.2,0.2v0.2H6.4l0,0H5.9l-0.2-0.2v0.2H4.9v1.2H4.7l0,0H4l-0.2,0.2
	H3.5l-0.2,0.2L3,28.6l-0.2,0.2H2.5v-0.5h0.2v-0.2H2.5v-0.2H1.8v0.2H1.3v0.2H1.1v0.2H0.9l-0.2-0.2H0.4v-0.2h0.5v-0.2H0.6l0,0h0.2v0.2
	h0.2v-0.2h0.2l0.2-0.2H2l0.2-0.2H3l0.2,0.2v-0.2h0.2l0,0H3.2v-0.2H3v-0.2H2.8v-0.5l0,0v-1H3v-0.2h0.2V25h0.2v-0.5h0.2L4,24.2l0,0
	l0,0h0.2V24h0.2l-0.2-0.2l0,0h0.2V24h0.2v-0.2H5v-0.2h1v-0.2h0.2V23l0.2,0.2l0,0h0.2V23h0.2v-0.2h0.5l0,0h0.2v-0.2l0.2-0.2h1L9,22.1
	l0,0h0.2l0,0h1.9v-0.2h0.5v-0.2h0.2v-0.2l0.2,0.2l0,0l0,0v-0.2L13.9,21.4L13.9,21.4z M17.9,21.4L17.9,21.4z M46.7,21.4L46.7,21.4z
	 M21.7,21.4v0.2l-0.2-0.2v0.2l-0.2-0.2H21.7z M22.2,21.6L22.2,21.6L22.2,21.6z M22.5,21.4L22.5,21.4z M21.7,21.6L21.7,21.6z
	 M20.3,21.6L20.3,21.6z M22.5,21.6L22.5,21.6z M21,21.6L21,21.6z M22.7,21.6v0.2h0.2v0.2h-0.2v-0.2h-0.2v-0.2H22.7z M21.2,21.8
	L21.2,21.8z M21.7,21.8L21.7,21.8z M54.1,21.6v0.2h-0.7l0.2-0.2l0,0l0.2,0.2v-0.2H54.1z M22.4,21.8L22.4,21.8L22.4,21.8z M23.4,22.1
	h-0.2v-0.2h0.2V22.1z M21,21.8L21,21.8z M22.4,21.8L22.4,21.8z M22.4,22.1L22.4,22.1z M23.6,22.1l-0.2,0.2v-0.2H23.6z M22.6,22.1
	L22.6,22.1z M22.4,22.1v0.2l0.2,0.2v-0.2l0,0v0.2h-0.2v-0.2h-0.2l-0.2,0.2v-0.2h0.5V22.1z M22.9,22.1h0.2v0.2h-0.2V22.1z M21.7,22.1
	L21.7,22.1z M44.2,22.1L44.2,22.1z M23.1,22.1l0.2,0.2h-0.2V22.1z M22.4,22.3h-0.2v-0.2L22.4,22.3z M23.6,22.3L23.6,22.3z
	 M22.9,22.3L22.9,22.3z M23.1,22.3L23.1,22.3z M24.6,22.3v0.2l0,0v0.2h-0.2v-0.2l0,0v-0.2H24.6z M24.3,22.6L24.3,22.6z M23.8,22.3
	L23.8,22.3z M21.9,22.3L21.9,22.3z M24.1,22.3v0.2l0.2-0.2v0.2h-0.2l0,0l0,0V22.3z M24.8,22.6L24.8,22.6z M24.3,22.8v-0.2l0,0V22.8z
	 M7.5,22.6L7.5,22.6z M24.5,22.8L24.5,22.8z M24,22.8L24,22.8z M25,23L25,23z M25.3,23h-0.2l0,0H25.3L25.3,23L25.3,23z M51.4,23.3
	h0.2l0.2,0.2h0.2l0,0h0.2l0,0h0.2v0.2l0,0V24h-0.2l0,0H52v-0.2h-0.2V24h-0.3v-0.5h-0.2V23h0.2L51.4,23.3z M5.4,23.3L5.4,23.3
	l-0.2,0.2v-0.2H5.4z M25.5,23.3L25.5,23.3z M25.8,23.3l0.2,0.2l0,0l0.2,0.2l0,0h0.5V24H27v0.2l0,0L26.8,24h-0.2l-0.2-0.2h-0.2v-0.5
	L25.8,23.3z M5.4,23.3L5.4,23.3z M25.5,23.5L25.5,23.5z M53.6,23.8v0.5l0.2,0.5V25h-0.2v0.2h-0.2v0.5L53.1,26h-0.4v0.2l-0.2,0.2
	h-0.2v0.2H52v-0.3h0.2l0,0h0.2v-0.7H53v-0.2h0.2v-0.2h0.2l0.2-0.2v-0.5h-0.2l0,0H53l0.2-0.2H53V24h0.2v-0.2L53.6,23.8L53.6,23.8
	L53.6,23.8z M53.1,23.8V24h-0.2v-0.2L53.1,23.8z M28.9,23.8L28.9,23.8z M26.3,24L26.3,24z M29.4,24L29.4,24z M26.8,24L26.8,24z
	 M26.3,24L26.3,24z M29.7,24L29.7,24z M28.5,24h0.5v0.2h-0.2V24l-0.2,0.2L28.5,24L28.5,24L28.5,24z M51.2,24.7v-0.5h0.2V24h0.2
	l-0.2,0.2v0.2h-0.2V24.7z M52.7,24L52.7,24z M26.5,24L26.5,24L26.5,24z M26.8,24L26.8,24z M52.2,24L52.2,24z M26.8,24v0.2H27v0.2
	l-0.2-0.2L26.8,24z M26.5,24.2h-0.2V24h0.2V24.2z M10.9,24.2L10.9,24.2z M28.5,24v0.2l0,0V24z M11.7,24.2L11.7,24.2z M28.2,24.2
	L28.2,24.2z M28,24.2L28,24.2z M26.5,24.2L26.5,24.2z M28.7,24.2L28.7,24.2z M55.6,24.2v0.2l-0.2-0.2H55.6z M28.9,24.5h-0.2l0.2,0.2
	l0,0l0,0h-0.2v-0.2H28.9l0-0.2l0,0L28.9,24.5z M28.5,24.2L28.5,24.2z M30.4,24.2v0.2l0,0V24.2L30.4,24.2z M54.8,24.5v-0.2h0.2v0.2
	H54.8z M27.7,24.5L27.7,24.5L27.7,24.5z M28.2,24.5L28.2,24.5L28.2,24.5z M28.2,24.5v-0.2h0.2v0.2H28.2z M10.9,24.5L10.9,24.5z
	 M11.6,24.2L11.6,24.2z M28,24.5h-0.2v-0.2H28V24.5z M28.5,24.5L28.5,24.5z M26.6,24.5L26.6,24.5z M11.9,24.5L11.9,24.5z M28.5,24.5
	L28.5,24.5L28.5,24.5z M27.8,24.5L27.8,24.5z M28.2,24.5L28.2,24.5z M28.2,24.7L28.2,24.7L28.2,24.7z M28,24.7l-0.2-0.2L28,24.7z
	 M30.4,24.5L30.4,24.5z M29,24.7L29,24.7z M3.5,24.5v0.2l-0.2-0.2l0.2,0.2V24.5z M30.4,24.5v0.2l0.2-0.2v0.2H32V25h0.2v0.2H32l0,0
	h-0.2l0,0h-0.7V25h-0.5v-0.2h-0.2l0.2,0.2h-0.2L30.4,24.5L30.4,24.5z M3.2,24.7L3.2,24.7z M28.2,24.7L28.2,24.7z M30.2,24.7
	L30.2,24.7z M28,24.7L28,24.7z M28.5,24.7L28.5,24.7z M29.7,24.7L29.7,24.7z M29.2,24.7h0.2V25L29.2,24.7L29.2,24.7L29.2,24.7z
	 M29.9,25L29.9,25z M28.9,24.7L28.9,24.7z M11.9,25L11.9,25z M12.9,25h-0.2v-0.2h0.2V25z M3,25L3,25z M29.6,25L29.6,25z M12.6,25
	L12.6,25z M44.3,25L44.3,25z M33,25l0.2,0.2H33l0,0l0,0V25z M27.2,25.2l0.3-0.2v0.2H27.2z M32.5,25.2L32.5,25.2z M30.8,25.2
	L30.8,25.2z M2.8,25.2L2.8,25.2z M27.5,25.2L27.5,25.2z M57.7,25.2H58v0.2h1v0.2h0.5V26H59v-0.2h-1.7v-0.2h0.2v-0.3L57.7,25.2z
	 M31.1,25.2L31.1,25.2z M33,25.2l0.2,0.2h0.2V26h0.2l0,0l0.2,0.2V26l0,0v0.5l0.2-0.2v0.2h0.5l0,0h-0.2v0.2h0.5v0.2l-0.2,0.2v-0.2
	h-0.2v-0.2h-0.2v0.2H34v-0.2h-0.2v-0.3H34v-0.2l0,0v0.2h-0.2v-0.2l-0.2-0.2l0,0h-0.2l0,0H33v-0.2h-0.2l0,0l0,0v-0.2h-0.5v-0.2h0.2
	l0.2,0.2v-0.2L33,25.2z M33.5,25.2v0.2h-0.2v-0.3L33.5,25.2z M28,25.2L28,25.2z M2.6,25.4L2.6,25.4z M44.6,25.7L44.6,25.7z
	 M32.6,25.4L32.6,25.4z M31.8,25.7L31.8,25.7z M34.5,25.9l-0.2-0.2L34.5,25.9z M34,25.7L34,25.7z M32.6,25.9L32.6,25.9z M59.7,25.9
	L59.7,25.9z M34.7,25.9v0.2l0.2,0.2l0.2,0.2h-0.2v-0.5h-0.2L34.7,25.9L34.7,25.9L34.7,25.9z M34.4,25.9L34.4,25.9z M44.8,25.9
	L44.8,25.9z M34.4,26.2h-0.2v-0.2L34.4,26.2z M10.7,26.2L10.7,26.2z M45,26.2L45,26.2L45,26.2z M32.3,26.4v-0.2l0,0V26.4z
	 M10.7,26.2L10.7,26.2z M32.3,26.2L32.3,26.2z M34.5,26.2L34.5,26.2z M33.5,26.4L33.5,26.4z M10.5,26.2L10.5,26.2z M15,26.4L15,26.4
	z M33.7,26.4L33.7,26.4z M33.7,26.4L33.7,26.4z M16.2,26.4L16.2,26.4z M33.7,26.6h-0.2l0,0H33.7z M15.7,26.6L15.7,26.6z M16.4,26.6
	L16.4,26.6L16.4,26.6z M34,26.9l-0.2-0.2H34V26.9z M45.3,26.6L45.3,26.6z M15.5,26.9L15.5,26.9z M17.2,26.6L17.2,26.6z M33.3,26.9
	L33,26.6l0,0L33.3,26.9z M33,26.6L33,26.6z M10.2,26.9L10.2,26.9z M35.2,26.9L35.2,26.9z M33.5,26.9L33.5,26.9z M16.5,27.1
	L16.5,27.1z M18.4,26.9L18.4,26.9z M16.3,26.9L16.3,26.9L16.3,26.9z M34.8,26.9v0.2l-0.2-0.2H34.8z M17.2,27.1L17.2,27.1z
	 M33.8,27.1h-0.3l0,0H33.8z M10,27.1L10,27.1z M18.2,27.1L18.2,27.1z M16.7,27.1L16.7,27.1L16.7,27.1z M17.2,27.1h0.2v0.2h0.2l0,0
	h-0.2v-0.2H17.2z M10.2,27.1L10.2,27.1z M10.4,27.1L10.4,27.1z M10.9,27.1L10.9,27.1z M18.1,27.4L18.1,27.4L18.1,27.4z M16.2,27.6
	H16v-0.2L16.2,27.6z M6.8,27.6L6.8,27.6z M6.8,27.6h0.2v0.2L6.8,27.6z M63.7,27.8v0.2H64v0.2h0.2v0.2H64v-0.2h-0.2v-0.2l0,0
	L63.7,27.8h-0.2v0.2h-0.2v-0.2H63.7L63.7,27.8z M7.6,27.8L7.6,27.8z M8,27.8L8,27.8z M7,27.8L7,27.8z M36,27.8v0.5h-0.1l0.2-0.2
	h-0.2v-0.2H36z M10,27.8h0.7l0.2,0.2l0,0h0.5v0.2h-0.2l0.2,0.2l0,0h0.2v0.2h0.2v0.5h0.2V30h-0.5v0.2h-0.5L11,30.5h-1v-0.2H9.5V30
	H9.2v-0.2l0,0v-0.2l0,0v0.2h0.2V30h0.2l0,0H10v-0.2h0.2v-0.2H10v-0.2L9.7,29l-0.2-0.2v-0.5l0.2-0.2H10V27.8L10,27.8z M64,28.1
	L64,28.1z M35.4,27.8L35.4,27.8z M63,28.1v-0.2l0,0V28.1z M11.7,27.8L11.7,27.8z M36.4,28.1h0.2v0.2h0.2v0.2h-0.2l0,0h-0.2v-0.2
	l-0.2-0.2l0,0v-0.2h0.2V28.1z M35.9,28.1L35.9,28.1z M64.2,28.3L64,28.1h0.2L64.2,28.3z M11.9,28.1L11.9,28.1z M35.7,28.1L35.7,28.1
	z M35.9,28.1L35.9,28.1z M63,28.3L63,28.3z M64.2,28.3L64.2,28.3z M62,28.3l0.2,0.2h0.5v0.2H62l0,0l0,0v-0.2h-0.2v-0.2H62z
	 M64.4,28.3h0.7v0.2l0.2,0.2h-0.2l0,0h0.2V29h-0.2v-0.2h-0.2l0,0l-0.2-0.2l-0.2,0.2l-0.2-0.2v-0.2H64.4z M63,28.3L63,28.3z M9,28.6
	L9,28.6H8.8l0,0H9z M36.4,28.6h-0.2v-0.2h0.2V28.6z M11.9,28.6L11.9,28.6z M11.9,28.6L11.9,28.6z M37.1,28.6L37.1,28.6z M65.6,28.8
	L65.6,28.8z M65.4,28.8L65.4,28.8z M12.1,29L12.1,29L12.1,29l-0.2-0.2h0.2V29z M65.9,29h0.5v0.2h-0.2V29h-0.5v-0.2L65.9,29z
	 M14.3,29L14.3,29z M25.1,29L25.1,29z M12.6,29L12.6,29z M61.6,29v0.5h-0.2V29H61.6z M12.4,29L12.4,29z M17.9,29l-0.2,0.2l-0.2,0.2
	h-0.2v0.2H17v-0.2h0.5v-0.2l0,0l0,0h0.2V29H17.9z M15,29L15,29z M54.6,29.2L54.6,29.2z M66.1,29.7v-0.2l0,0v-0.2l0,0V29.7z
	 M15.7,29.2h-0.2v0.2H15v-0.2h0.2l0,0C15.2,29.2,15.7,29.2,15.7,29.2z M15.7,29.2L15.7,29.2z M12.8,29.2v0.2h-0.2v-0.2H12.8z
	 M15,29.5L15,29.5v-0.2l0,0V29.5z M14.5,29.5v-0.2h0.2L14.5,29.5z M66.1,29.5L66.1,29.5z M16.7,29.5L16.7,29.5z M16.4,29.5
	L16.4,29.5z M14.3,29.5L14.3,29.5z M14.5,29.5h-0.2l0,0H14.5z M14.8,29.5v0.2h-0.2v-0.2H14.8z M13.3,29.5l-0.2,0.2v-0.2H13.3z
	 M13.8,29.7L13.8,29.7z M66.1,29.7L66.1,29.7z M10,29.8v-0.2h0.2v0.2H10z M13.4,29.8L13.4,29.8z M13.6,29.8L13.6,29.8z M12.6,29.8
	L12.6,29.8z M30.8,29.8L30.8,29.8z M9.7,29.8L9.7,29.8z M66.4,30v0.2h-0.2V30H66.4z M14.1,30L14.1,30z M58.9,30h0.2l0.2,0.2h-0.2
	v0.2h-0.5V30H58.9z M68.1,30.5L68.1,30.5L68.1,30.5z M65.9,30.5v-0.2h0.2L65.9,30.5z M30.6,30.2L30.6,30.2z M65.6,30.5L65.6,30.5z
	 M68.2,30.7L68.2,30.7z M30.8,30.7L30.8,30.7z M30.8,30.7L30.8,30.7z M67.8,31.2V31H68L67.8,31.2z M59.2,31.9v0.2h-0.2v0.2h-0.2v0.5
	h-0.5v0.2L58,32.9l0,0l-0.2,0.2h-1.7v-0.2h-0.2v-0.2h0.2v-0.5h0.5v-0.2H57v-0.2h0.5v0.2h0.2v0.2H58v-0.2h0.5v-0.2h0.2v-0.5L59,31
	l0.2,0.2L59.2,31.9L59.2,31.9z M65.9,31.2L65.9,31.2z M65.7,31.2L65.7,31.2z M32.3,31.4L32.3,31.4z M67.8,31.9L67.8,31.9z M28,32.2
	L28,32.2z M28.5,32.2v0.2h-0.2v-0.2H28.5z M31.4,32.2L31.4,32.2z M28.2,32.4L28.2,32.4z M28.5,32.4L28.5,32.4z M29.9,32.6L29.9,32.6
	z M28.9,32.6h0.2v0.2l0.2,0.2h0.2v0.2l-0.2-0.2h-0.2v-0.2l0.2,0.2v-0.2h-0.5V32.6L28.9,32.6z M28.9,32.9L28.9,32.9z M29.9,33.4h0.2
	v0.2h-0.3L29.9,33.4L29.9,33.4L29.9,33.4z M31.8,33.6L31.8,33.6z M30.4,33.6L30.4,33.6v0.2h0.5v0.2l-0.2-0.2h-0.2V33.6z M33.8,33.8
	L33.8,33.8z M34,33.8L34,33.8z M34,34.1L34,34.1z M31.8,34.1L31.8,34.1L31.8,34.1z M31.1,34.1L31.1,34.1z M34,34.1L34,34.1z
	 M31.8,34.1L31.8,34.1z M34,34.1L34,34.1z M33.5,34.1L33.5,34.1z M31.1,34.1h0.2v0.2h-0.3L31.1,34.1z M33.3,34.1L33.3,34.1z
	 M32.8,34.1v0.2l0,0l-0.2-0.2H32.8z M33.3,34.3L33.3,34.3z M33,34.1L33,34.1z M32,34.3L32,34.3z M33.7,34.3L33.7,34.3z M31.5,34.3
	v0.2h-0.2v-0.2H31.5z M33.7,34.6L33.7,34.6z M32.7,34.6L32.7,34.6z M33.2,34.3v0.2l0,0V34.3z M34.6,34.3v0.2h-0.2L34.6,34.3z
	 M31.7,34.6L31.7,34.6z M32,34.6L32,34.6z M33.6,34.8L33.6,34.8z M37.7,34.8L37.7,34.8z M34.6,34.8L34.6,34.8z M32.4,34.8L32.4,34.8
	z M32.9,34.8V35h0.5v0.2h-0.2V35H33L32.9,34.8L32.9,34.8L32.9,34.8z M33.2,34.8L33.2,34.8z M35.6,35L35.6,35z M37,35.3L37,35.3z
	 M39.2,36.3H39V36h0.2L39.2,36.3L39.2,36.3L39.2,36.3z M61.1,37.7h0.7v0.2h0.2v0.2h-0.5v-0.2h-1v-0.2H61.1L61.1,37.7z M61.3,38.4
	h0.7v0.2h0.5v0.2h0.7v0.2h0.2l0,0h0.2v0.5H64v-0.2h0.2v-0.2h0.2v0.2H65v0.2h0.2l0,0h0.2v-0.2h0.5v0.2h0.2l0,0h-0.3v0.2h0.5v-0.2h0.5
	v-0.2h-0.2l0,0l-0.2-0.2h0.2v-0.2h0.5v-0.2h0.2l0,0h0.2l0,0h0.7l0.2,0.2h0.7l0,0h0.2l0,0h0.2v-0.2H70v-0.2h0.5v0.2l0,0v-0.2l0.2,0.2
	H71l0,0h0.2v0.2h0.5l0.2,0.2h0.2v0.2h0.5v-0.2h0.5l0.2,0.2l0.2,0.2l0.2,0.2h0.5l0.2,0.2H75v-0.2h0.2v-0.2h0.2v0.2H76v0.7h0.2V41
	l0.2,0.2l0.2,0.2l0.2,0.2h1v-0.2h0.7v0.2h0.5l0.2-0.2l0.2-0.2v0.5h0.5L79.9,42v0.2h-2L77.7,42v0.7l0.2,0.2l0.2-0.2V43h0.2l0,0h0.2
	v-0.2h0.2l0.2,0.2h0.2v0.2h0.7V43h0.2v0.2h0.2v0.2H81v-0.3h0.5l0.2,0.2v-0.2l0.2,0.2h0.2l0.2,0.2h0.2v0.2h0.2v0.2h0.2l0.2,0.2h0.2
	v0.2h0.2v0.2h0.2l0.2,0.2h0.2v0.7h-0.2v1h-0.5v-0.2h-0.5l0.2,0.2l-0.2,0.2v0.5h-0.5v-0.2h-0.2V47l-0.2-0.2v-0.2H82v-0.2h-0.2
	l-0.2,0.2H81v-0.2h-0.5V46l-0.2,0.2h-0.5l0,0h-1.2L78.4,46v0.2h-0.2L77.9,46h-1v0.2h-0.5v0.2h-0.2V47H76v0.2h-1.5v0.2h-0.7v-0.2h0.2
	l0,0h-0.2V47h-0.2l0.2-0.2v-0.2h-0.2v-0.2h-0.5v0.2h-0.2v0.2h-0.2l0,0h-0.2L72.1,47v0.2h-0.2V47h-0.5v-0.2L71.2,47v0.5h0.2v0.7h-0.2
	v0.5h-0.2v0.5h-0.2v0.2h-0.2v0.5l-0.2,0.2v0.5H70v-0.2h-0.2v-0.2l-0.2-0.2h-0.2v-0.2L69,49.9h-0.2v-0.2l0,0v-0.5h-0.2V49h0.2
	l-0.2-0.2l-0.2-0.2h-0.2v-0.2h-0.2V48h-0.2v-0.2h-0.5v-0.2h-0.5v-0.2h-2.2l-0.2,0.2l0,0L64,47.3v0.5l-0.2-0.2h-0.5v0.2H63l0,0h-1.2
	v-0.2h-1.2l-0.2-0.2l0,0h-0.5l0,0l0,0V47h-0.2v0.2h-0.7v0.2l-0.2-0.2l0,0h-0.2l0,0h-0.2v0.2h-0.5v0.2h-0.2V48h0.2v0.2H58v0.2h-0.7
	V48H57v-0.2h-0.2v-0.2h-0.2v-0.2H56V47h-0.5v-0.2h-0.2V47h-0.5v-0.2h-0.5v-0.5h-0.2v-0.2l0,0v-0.2h0.2v-0.7h0.7v-0.2h0.5v0.2H56v0.2
	h0.7v0.2h0.7l0,0h0.7v-0.2h0.5v0.2h-0.5v0.2h1.7v0.2h0.5l0.2-0.2v0.2h1.4v0.2h1v-0.2h0.2v-0.5h1.2v0.2h0.2v-1H64v-0.2h-0.2l-0.2-0.2
	v-0.2h-0.2v-0.2H63v-0.2h-0.5v-0.2h-0.2v-0.2h-0.2v-0.5h0.5l-0.2-0.2h-0.2v-0.2l0,0v-0.5l0,0l0.2-0.2h-0.2v-0.2l0,0V41h0.2v-0.2
	h-0.2V41h-0.2v-0.2l-0.2-0.2h-0.2l-0.2-0.2h-0.5v-0.2h-0.2l-0.2-0.2h-0.2v0.2l-0.2-0.2h-0.2v0.2h-0.2l0,0h-0.5v-0.2h-0.2l-0.2-0.2
	v-0.5h0.5v-0.2h0.2v-0.2h0.5v-0.2h1.7l0,0H61.3z M39.7,38.6L39.7,38.6z M26.7,39.6L26.7,39.6v-0.2H27v0.2H26.7z M26,39.6h-0.2
	l-0.2,0.2l0,0h-0.2v-0.3L26,39.6L26,39.6z M19.3,41.3h-0.2l0.2,0.2v0.2h0.2v-0.2l0,0l0.2-0.2v0.2h1v0.2h-1V42h-0.2v-0.2h-0.2V42
	h-0.2v-0.7L19.3,41.3L19.3,41.3z M60.8,43.7h0.2V44h0.5v0.2H62l0.2,0.2v0.5H62v-0.2h-1v-0.3h-0.5v-0.2h-0.5l-0.2-0.2h-0.2v-0.5h0.7
	v0.2L60.8,43.7L60.8,43.7z M104.5,44.7h0.2V45h-0.2V44.7L104.5,44.7z M57.7,45.2H58v0.2h-0.5v-0.2H57.7z M58.7,45.7v0.2l-0.2-0.2
	H58.7z M37.3,45.9h0.7v0.2h0.2l-0.2-0.2h0.2v0.2l0,0v-0.2h0.2v0.2h1.9v0.2h1.2l0.2,0.2v-0.2h0.2v0.2h0.2v0.2h0.2V47h0.5l0,0l0.2,0.2
	h0.5v0.2h1v0.2H45l0.2,0.2l0.2,0.2v0.2h0.2V49H46l0,0l-0.2,0.2h-1.2l-0.2,0.2h0.2v-0.3h-0.7V49h-1.2l0.2-0.2V49h0.5v-0.2h-0.5
	l-0.2-0.2V49l0,0l-0.2,0.2v0.2h-0.7v-0.3l0,0V49h-0.2v0.2h-0.2v0.5l0,0V50l0.2-0.2v0.5H41V50h-0.3v-0.2h-0.2v-0.2H40v-0.3h-0.2
	l-0.2,0.2h-0.2v-0.2h-1l0,0H38V49h-0.2v-0.2l0,0v-0.2h-0.7v-0.2L36.9,48h-0.2v-0.5h-1.2v-0.2h-0.5v-0.7h0.2v-0.2h0.2v-0.2h0.2v0.2
	h0.2v-0.2h0.2l0,0h0.5l0.2,0.2v-0.5L37.3,45.9L37.3,45.9z M90.9,45.9h0.7l0,0l0.2,0.2l0.2-0.2l0.2,0.2v-0.2h0.2v0.2H93v-0.2h0.2
	l0.2,0.2v-0.2l0.2,0.2h0.5v-0.2h0.2v0.2h1.5v0.2h0.2v-0.2h0.2l0.2,0.2v-0.2h0.5v0.2h0.5v0.2h0.7v0.2h0.2V47l0,0v0.2l0,0v0.2h-0.5
	v0.2h-0.2v0.5h-0.2v0.2h-0.2v0.2h-1V49h-0.2v-0.2h-0.5l0,0L95.4,49v-0.2h-0.5l0,0h-1.6l0,0H93v-0.2h-0.2v0.2h-0.2l0,0h-0.2V49h-0.2
	v-0.2h-1V49h-0.2v-0.5l0,0v-1.2h-0.2V47h-0.2v-0.2l-0.2-0.2h0.5v-0.7L90.9,45.9z M104.8,45.9h-0.2v0.2h-0.2l0,0l0,0v-0.2
	C104.3,45.9,104.8,45.9,104.8,45.9z M103.8,46.2h-0.2v-0.2h0.2V46.2z M103.5,46.2L103.5,46.2h-0.2v-0.2L103.5,46.2z M102.8,46.2v0.2
	h-0.2l0,0l-0.2-0.2C102.3,46.2,102.8,46.2,102.8,46.2z M103.5,46.2v0.2h-0.2v0.2h-0.5v-0.2h0.2v-0.2H103.5z M102.3,46.2v0.2
	l-0.2-0.2H102.3z M103.8,46.2v0.2h-0.2v-0.2H103.8z M51.5,46.6L51.5,46.6z M101.9,46.6L101.9,46.6z M102.9,46.6L102.9,46.6z
	 M104.1,46.6L104.1,46.6z M101.9,46.6h0.2l0.2,0.2h-0.2l0,0h-0.5v-0.2h-0.2l0,0H101.9z M103.1,46.6L103.1,46.6z M81.5,46.9v-0.2
	l0.2,0.2H81.5z M102.9,46.6h0.2l0,0H102.9l0.2,0.2l0,0V47l-0.2-0.2h-0.2v-0.2L102.9,46.6z M103.6,46.6v0.2h-0.2v-0.2H103.6z
	 M101.2,46.9L101.2,46.9z M100,46.9h0.5l-0.2,0.2v-0.3L100,46.9l0,0.1l0,0L100,46.9L100,46.9L100,46.9z M72.6,46.9L72.6,46.9z
	 M101.6,46.9L101.6,46.9z M103.5,46.9L103.5,46.9z M100,47L100,47z M111.8,47L111.8,47z M111.8,47v0.2h-0.2v0.2H111v0.2h-0.2v-0.2
	h0.5v-0.2l0.2-0.2H111.8z M98.8,47.2L98.8,47.2z M59.6,47.2L59.6,47.2z M82.9,47.5h0.2l0,0h0.2v0.2h0.5V48h-0.2v-0.2L83.4,48h-0.2
	l-0.2-0.2l-0.2-0.2L82.9,47.5z M99.9,47.7h0.2L100,48l0,0h-1.2v-0.2L99,48v-0.2L99.9,47.7L99.9,47.7z M111.7,48v-0.2h0.3L111.7,48z
	 M111.4,47.7V48h0.2v0.5h-0.5v-0.2l0,0V48h0.2L111.4,47.7z M87.5,48v0.2H87V48H87.5L87.5,48z M58.2,48h0.7v0.2h-0.5V48H58.2z
	 M112.7,49h0.2v0.2h-0.2V49L112.7,49z M94.5,49.2h-0.2l0.2-0.2V49.2z M104.1,49.7L104.1,49.7z M103.3,49.7l0.2,0.2l0.2-0.2h0.5V50
	h-0.5v0.2h-1.2v-0.5C102.6,49.7,103.3,49.7,103.3,49.7z M118,50v0.2h0.5v0.2l0.2,0.2v0.2h-0.5v-0.2H118v-0.3l-0.2-0.2l0,0h0.2v0.2
	l0,0v-0.2h-0.2L118,50z M111.3,50.4l-0.2,0.2v-0.3L111.3,50.4z M69.7,50.7L69.7,50.7v0.2h-0.2v-0.2H69.7z M112.5,51.4v-0.2h0.2v0.2
	H112.5z M69.3,51.4L69.3,51.4z M7.6,51.6L7.6,51.6z M113.4,51.6h0.2v0.2h0.2l0.2,0.2v0.2h0.2v0.2l0,0v-0.2h-0.7v-0.2h-0.5v-0.5
	H113.4z M114.8,52.8l0.2,0.2v0.2h-0.5v-0.5H114.8z M118.7,52.8V53h0.2v0.2h0.2l0,0h0.2l-0.2,0.2h0.2v0.2h-0.2l0,0h-0.7v-0.5h-0.2V53
	h0.2v-0.2H118.7z M119.4,53.5L119.4,53.5z M116.3,54.2L116.3,54.2z M117.3,55.4H117v-0.7h0.2V55l0.2,0.2v0.2L117.3,55.4z
	 M121.1,56.4h0.2v0.2h0.2v0.5h0.2v0.2h0.5l0.2,0.2h0.2v0.2h-0.2v-0.3l-0.2,0.2h-0.7l-0.2,0.2v-0.2h-0.5v-0.5h0.2v-0.2l-0.2-0.2v-0.5
	L121.1,56.4z M119.9,57.2l0.2,0.2h0.5v0.2h0.2v0.7l0,0l0.2,0.2V59h-0.2v0.2h-0.5V59h-0.2v-0.2h-0.2v-1h-0.2v-0.7L119.9,57.2z
	 M120.6,57.2L120.6,57.2z M123.5,57.4h-0.2l0,0H123.5L123.5,57.4z M123.3,58.1L123.3,58.1z M122.6,59.1h0.2v0.2h0.2v0.5h-0.5
	l-0.2-0.2v-0.2l0,0L122.6,59.1z M121.4,59.8L121.4,59.8z M120.9,60.1v-0.2h0.2V60L120.9,60.1z M122.1,61.1h0.2v0.2h0.5v0.2h0.2v0.2
	l0.2,0.2v1.2H123v0.2h-0.2V63h-0.2v-0.6h-0.2v-0.5H122v-0.7l0,0L122.1,61.1z M124.7,65.4h0.5v0.2l0.2,0.2v-0.2h0.2v0.2l0,0V66h-0.2
	l0.2,0.2l0,0l0,0l0.2,0.2l0,0h0.2V67h0.2v0.2l-0.2,0.2h-0.2v-0.3h-1v-0.5h0.2v-0.2h-0.5v-0.2h-0.2V66h-0.2v-0.2l-0.2-0.2V65h0.7
	L124.7,65.4z M125.4,65.6L125.4,65.6z M125.9,66.1L125.9,66.1z M125.9,66.6L125.9,66.6z M126.4,69.5v0.7h0.2l-0.2,0.2h0.2v0.5h-0.2
	V71h-0.2l-0.2-0.2h-0.2v-0.5h-0.2l0.2-0.2v-0.7h0.2v-0.2h0.2v0.2L126.4,69.5z M125.4,73.1h0.2v0.2h0.2v0.5l-0.2,0.2v0.2h-0.5V74
	l-0.2-0.2v-0.2h0.2V73L125.4,73.1z M134.3,74.1h0.2v0.5h-0.2v0.2H134l-0.2-0.2h-0.2v-0.5l-0.2-0.2v-0.6h0.2l0.2,0.2v0.2h0.2
	L134.3,74.1z M125.4,74.8V75l0,0V74.8L125.4,74.8z M126.1,75.3L126.1,75.3z M125.9,75.5v0.2h-0.2v-0.2H125.9z M125.2,76.5
	L125.2,76.5z M81.5,77.8L81.5,77.8H81v-0.2h-0.2v-0.2h-0.2v-0.5h0.2V77l0.2,0.2h0.2v0.2h0.2L81.5,77.8z M124.7,77v-0.2h0.2V77H124.7
	z M125.2,77.2L125.2,77.2z M124.9,77.5v0.2h-0.5v-0.2h0.2v-0.2h0.2L124.9,77.5z M125.2,77.2L125.2,77.2l-0.2,0.2v-0.2H125.2z
	 M85.8,78.7h0.2V79h0.2v0.2H87l0.2,0.2v0.2h0.2V80H87v-0.2h-0.5v-0.2h-0.2l-0.2-0.2h-0.2V79h-0.2v-0.2h-0.2v-0.5h0.5L85.8,78.7
	L85.8,78.7z M89.9,79h0.5v0.2h-0.2l0.2,0.2v0.2h-0.2l0,0l0.2,0.2h-0.5v-0.8h-0.2V79h-0.5v-0.5h0.2v0.2h0.2L89.9,79z M124.2,78.8
	L124.2,78.8z M124,79h0.2v1h-0.5l0,0l-0.2,0.2h-0.2V80h0.2v-0.8l0.2-0.2L124,79z M89.7,79.2h0.2v0.2h-0.2V79.2z M88.2,80.2
	L88.2,80.2z M93.2,80.2L93.2,80.2z M97.3,80.7L97.3,80.7z M109.3,81.2h-0.5v-0.5h0.2V81h0.2L109.3,81.2z M98.3,81L98.3,81z
	 M101.4,81L101.4,81l-0.2-0.2h0.2V81z M97.8,81h-0.2v-0.2L97.8,81z M98.8,81L98.8,81z M97.2,81v0.2L96.9,81H97.2z M101.5,81.2h-0.2
	v0.2l-0.2-0.2h0.2V81L101.5,81.2z M98.8,81.2v0.2h-0.2v-0.2H98.8z M97.8,81.4h0.2l0,0H97.8z"/>
</svg>
