<?xml version="1.0" encoding="utf-8"?>
<!-- Generator: Adobe Illustrator 20.1.0, SVG Export Plug-In . SVG Version: 6.00 Build 0)  -->
<svg version="1.1" id="Layer_1" xmlns="http://www.w3.org/2000/svg" xmlns:xlink="http://www.w3.org/1999/xlink" x="0px" y="0px"
	 viewBox="0 0 86.2 59.9" style="enable-background:new 0 0 86.2 59.9;" xml:space="preserve">
<style type="text/css">
	.st0{fill:#C14803;}
</style>
<title>caucasus</title>
<path class="st0" d="M84.9,49.4v0.2l0.2,0.5l0.2-0.2l0.5,0.2v0.2l-0.2,0.2l-0.2,0.2l-0.2,0.2l-0.2,0.2L84.6,52l-0.2,0.5L83.9,53v0.2
	l-1.2,1.2l-0.2,0.5L82,55.2l-0.5,0.5l-0.2,0.2l-0.5,0.2l-0.5,0.2h-0.5l-0.5-0.2l-0.7-0.2l-0.2,0.2l-0.2,0.5l-0.2,0.5l-0.2,0.7h-0.5
	l-0.5,0.7l-1.7,1l-1.2-0.7L73.3,59h-2.2L69,58.5L66.9,58l-1,0.2l-0.5,0.5l-0.2-0.5l-0.5-0.5l-0.5-0.2l-1.9-0.7l-2.2-1l-1-0.5
	l-0.7-0.7L58,54.2l-0.2-0.2l-1,0.5l-0.2,0.2l-0.2-0.2L56,53.9l-1.4-1.4L53.9,52l-0.7-0.7V51l-0.2-0.5l-0.5-0.5v-0.5L52,49.2v-0.5
	l-0.2,0.2l-0.2,0.5l0.2,0.2v1.4l-0.2,0.5L51,51.3l-0.5-0.2l-0.2-0.2l-0.5-0.2v-0.2l-0.2-0.2v-0.7l0.2-0.2l0.2-0.2l0.2-0.2h0.5v-0.5
	l0.2-0.5v-0.2l-0.2-0.7H51l-0.5-0.5V46L50,45.5h-0.2l-0.5-0.2L48.6,45h-1v-0.2L47.1,45v0.2h-0.2l-0.2,0.2l-0.5,0.2h-0.5l-0.2-0.2
	h-0.2L45,45.3l-0.2-0.2v-0.5H44l-0.2-0.2l-0.2-0.2h-0.2v-0.2l0.2-0.2l0.2-0.2l0.5-0.5h-0.5l-0.2,0.2l-0.5,0.5l-0.2,0.5h-1.7v-0.2
	l-0.2-0.2l-0.2-0.2h-0.2v-0.2h-0.2v-0.5H40v-0.2h-0.2v-0.5h-0.3v-0.2l-0.2-0.2L39,41v-0.2h-0.2v-0.2h-0.2v-0.2h-1L37.3,40h-0.2v-0.5
	h0.2v-0.2h0.7l0.2-0.2v-0.2l-0.2-0.2v-0.2h-0.2l-0.2-0.2h-1.4l-0.5-0.2h-0.2l-0.2-0.2h-0.2v-0.5h-0.2v-0.5l-0.2-0.2l0.2-0.2h0.5v0.2
	l0.2,0.2l0.2,0.2l0.2,0.2l0.2,0.2h1.2v0.2h1v-0.2h0.2l-0.2-0.2v-0.2h-0.2v-0.2h-0.2l-0.2-0.2h-0.2l-0.2-0.2h-0.2v-0.2h-0.2l-0.2-0.2
	h-0.2v-0.2h-0.2v-0.2h-1.2l-0.2,0.2h-0.2v0.5L34,36.2h-2.2v-0.2h-0.2l-0.2-0.2v-0.5h-0.2v-0.5l0.2-0.2h0.2l0.2-0.2h0.7V34l-0.2-0.2
	h-0.2l-0.2-0.2h-0.2v-0.2h-0.5V33h-0.2v-1.4h0.7v0.5h0.2v0.2l0.2,0.2v0.2l0.2,0.2l0.2,0.2H33l-0.5-1.2L32,30.9v-0.7l-0.2-0.5
	l-1.2-0.2l-1.2,0.7l-1,0.2L28,30.2L27.5,30h-1.9v0.2l0.2,0.2l0.5,0.2l0.5-0.2H27l0.2,0.5v0.7h-0.5l-0.2,0.2v0.2H27l0.2,0.2v0.2h0.2
	v0.2l0,0v0.2h0.2v0.7L27.5,34l-0.2,0.2V35L27,35.2v0.2h-0.2v0.2H27V36h0.2v0.2h0.5V36l-0.2-0.2h0.2v-0.5H28l0.2-0.2h0.5l0.2,0.2h0.2
	v0.5H29v1h-0.5V37l-0.2,0.2L28,37.4h-0.5l-0.2,0.2h-1v-0.2H26v-0.2L25.8,37h-0.5v0.2h-0.5v-1h-0.5v0.2h-0.5v0.2h-0.2v0.2l-0.2,0.2
	h-0.2v-0.2h0.2v-0.2l0.2-0.2v-0.2h-0.2v0.2l-0.2,0.2v0.2h-1L22,36.7h-0.2l-0.2-0.2v0.2h-0.2v0.2H21v0.2l-0.2,0.2v0.2h-0.5L20,37.9
	l-0.2,0.2l-0.2-0.2h0.2v-1l-0.2-0.2l-0.2,0.2v-0.5h-0.2l-0.2-0.2v0.2h-0.5l-0.2,0.2h-0.2v-0.5h-2.2l-0.2,0.2h-0.2v0.2H15l0.2,0.2H15
	v0.2h-0.2v0.5h-0.2v0.2H15v0.5h-1v-0.2l0.2-0.2l0.2-0.2v-0.7h-1.2v0.2H13v-0.2h-0.7v0.2l-0.2-0.2h-0.2v-0.2h-0.2v-0.2h-0.5v-0.5
	h-0.7v-0.2h-0.2v0.2H8.8v0.2l-0.2-0.2H8.1l-0.2,0.2v0.2H7.6v0.2H5.9l0,0H5.7v-0.2H5.4v-0.5h0.2v-0.2H5.4v-0.2h0.2v-1H5.4V34h0.2v-1
	h0.2v-0.5h0.2V33h0.2v0.2h1v0.2h1v0.2h0.2v-0.2h0.2l0,0h0.7v-0.2h0.2v0.2l0.2-0.2h0.2V33h1l0.2-0.2H12V33h0.2v-0.2h0.2l0.2-0.2
	l0.2,0.2h0.2V33h0.2l0.2,0.2l0.2-0.2v0.2h0.2l0,0h0.2l0.2,0.2h0.2v-0.2H15v0.2h0.5v0.2l0.2-0.2H16l0.2-0.2V33h1l0.2-0.2h0.2l0.2-0.2
	l0.2-0.2h0.5V32h0.5v-0.2h0.2v-0.2h0.5v-0.2h0.2v-0.2h0.5v-0.5h0.2v-0.2l0.2-0.2v-0.5h0.2v-0.2h0.2v-1.6h-0.2v-0.2L21,27.3v-0.2
	h-0.2v-1h-0.2v-0.2h-0.2v-1L20,24.6v-0.5h-0.2v-0.2h-0.7v-0.2h-0.2v0.2l-0.2-0.2v-0.2h-0.2V23l-0.2-0.2h-0.5v-0.2h-0.2v-0.2h-1.2V22
	h-0.5v-0.2h-0.2V22h-0.2v-0.2L15,21.5v-0.5h-0.5v-0.2h-0.7v-0.2h-0.2v-0.5h-0.5v-0.2h-0.2v-0.2l-0.2-0.2h-0.2v-0.2h-0.2v-0.2h-0.2
	v-0.2h-0.2v-0.2h-0.2v-0.2h-0.2V18h-0.2v-0.2h-0.2v-0.2h-0.2l-0.2-0.2L10,17v-0.2H9.5l-0.2-0.2v-0.2H9V16H8.3v-0.2h-1l-0.2-0.2H6.6
	v-0.2H6.4V15l-0.2-0.2v-0.2H5.7v-0.2l0,0l-0.2-0.2H5.2v-0.2H4.9v0.2l0,0l-0.2,0.2v-0.2h-1v-0.2H3.5v-0.2l-0.2-0.2v-0.2H3v-0.2l0,0
	v-0.2H2.8v-0.2H2.5v-0.2H1.8v-0.2H0.6v-0.2H0.4v-0.2h0.2l0,0h0.2v-0.2h0.5L1.6,11h0.2v-0.2H1.3V11H1.1l-0.2-0.2v-0.2l0.2,0.2v-0.2
	H0.6v0.2L0.4,11v-0.2h0.2l0.2-0.2v-0.2h0.7v0.2H2l0.2,0.2h1.2l0.2-0.2H4V9.1l0.2-0.2h0.5V8.6H5V7.9l0.2-0.5V7.2h0.5v0.5h0.2v-1h0.2
	V6.2h0.2V5.9H6.1V5.7H5.9V5.5H5.7V5.2H5.2v0.2L4.9,5.2H4.7V5L4.5,4.5V4.3H4.2V3.8l0,0L4.5,4h1l0.2-0.2h0.5l0,0h0.2V4h1V3.8L7.2,3.5
	H6.6V3.1h0.2V2.8h0.2v0.2h0.2l0.2-0.2h0.7V2.3l0.2,0.2l0.2-0.2H9V2.1h1V1.9l0,0V1.6l0.2,0.2V1.6h0.5V1.4H11l0.2-0.2h1l0.2-0.2v0.2
	h0.5V0.9h0.2v0.2h0.2l0,0l0.2-0.2v0.2h0.5l0.2,0.2h0.5L15,1.1v0.2l0.2,0.2v0.2l0.2-0.2h0.2l0.5,0.2l1,0.5l0.5,0.2h0.2l0.2,0.2v0.5
	l0.2,0.2l0.2,0.2L18.9,4v0.2l0.2,0.2H21l0.2,0.2h0.5V5h0.5v0.2l0.2,0.2h0.2l0.5,0.2h0.2l0.5,0.5v0.2l0.5,0.2l1,0.2l0.5,0.5H27
	l0.2,0.2h0.5v0.2h0.5v0.2l0.2,0.2l0.2,0.2v0.5l0.2,0.2h0.2v0.2h0.5l0.2,0.2h0.5l0.2,0.2h0.2l0.2,0.2h0.7v0.2l0.5,0.2h0.2l0.2,0.2H33
	l0.2,0.2l0.5,0.2l0.5,0.2h0.2l0.2,0.2l0.2,0.2l0.2,0.2v0.2l0.2-0.2v0.7l0.2,0.2h0.2l0.2,0.2h0.7l0.2,0.2h0.2l0.2-0.2H39v0.2h0.2v1
	H39v0.2h0.2v0.2l0,0v0.2h0.5v0.2H40l0,0l0,0V16l0.2-0.2h0.2l0.2,0.2v0.2H41v0.2h0.5l0.2,0.5l0.2,0.2l0.2,0.5l0.5,0.7v0.2l0.2,0.2
	v0.2l0.2-1l0.2-0.2h0.2v0.5h-0.2v0.5l-0.2,0.2v1.7h0.2v0.7l-0.2,0.2v1h0.2l0.2,0.2h0.2v0.2h0.2v0.2l0.2,0.5v0.2l0.2,0.2v0.2h0.2v0.2
	h0.5v0.5l0.2,0.2l0.2,0.2l0.2,0.2h0.2v0.2l0.2,0.2v0.2h0.2v0.5H47v0.2h0.2V28h0.2v0.2h0.2v0.2h0.2l0.5,0.2l0.2,0.2h0.2v0.2h0.2v0.2
	l0.2,0.2l0.2,0.2v0.2h0.2l0.2,0.2v0.2l0.2,0.2h0.2l0.2,0.5l0.2,0.5v0.5h0.2v0.5h0.2v0.5h0.2l0.2,0.2l0.2,0.2l0.2,0.2l0.2,0.2
	l0.2,0.5V35h0.2v0.2h0.5l0.2,0.2h1l0,0h0.5v0.2h0.5l0.2,0.2h0.2v0.2h0.2v0.5h0.2l-0.2,0.2v-0.2h-0.5l-0.2-0.2h-0.2l-0.2,0.2h-0.3
	v-0.2h-0.5v0.2l-0.2,0.2h-0.2v0.2h-0.2v0.2h-0.2l-0.2,0.2v0.2l-0.2,0.2h0.2v1.2l0.2,0.7l-0.2,0.5v0.7l0.2,0.2h0.2V42h-0.5v0.2
	l0.2,0.5v0.7l-0.2,0.2v-0.2h0.2v-0.2h-0.5v-0.2h-0.2v-0.2h-0.2v-0.2h-0.2v0.5l-0.2,0.2v0.2l0.2,0.5l-0.2-0.2L52,43.9v0.2l0.2,0.7
	h0.2l0.2,0.7v0.2l0.2,0.7v1h0.2V48l0.2,0.2V49h0.2v0.7h0.2v0.2l0.2,0.2v0.2l0.2,0.2l0.2,0.2l0.5,0.2v0.2h0.5v0.2h0.7v0.2h2.2V52h1
	v0.2h0.2v0.2l0.2,0.2V53h0.2v0.5h0.2l0.2,0.2h0.2l0.2,0.2v0.2h0.5v0.2h0.2l0.2,0.2h0.2l0.2,0.2h0.2v0.2H63l0.2,0.2h0.5v0.2h0.5
	l0.5,0.2h1l0.2,0.2h0.5v0.2h1l0.2,0.2l0.2-0.2h1v-0.2h0.5l0.5-0.2h0.5l0.5-0.2h0.5l0.5-0.2h0.5v-0.2h1v-0.2h1.7v-0.2H76l0,0h-0.2
	v0.2h-1.2v0.2H75v0.2h1.2v-0.5l0.5,0.2l0.2-0.2l0.7-0.2l0.7-0.2h0.2l0.7-0.2h0.2l0.2-0.2H80l0.2-0.2l0.5-0.2l0.2-0.2l0.5-1.4
	l0.2-0.2l0.2-0.5l0.7-0.7l1.2-0.7L84.9,49.4z M40.2,15.8H40v-0.2h0.2L40.2,15.8z M56.5,36L56.5,36L56.5,36z M49.1,48.2h-0.2
	l-0.2-0.5h-0.5l-0.5-0.2h-0.5l-0.5-0.2L46.2,47L46,46.5h1.4l0.5-0.2l0.5-0.2h0.7l0.2,0.2l0.2,0.2V47l-0.2,0.5V48L49.1,48.2z"/>
</svg>
