<?xml version="1.0" encoding="utf-8"?>
<!-- Generator: Adobe Illustrator 20.1.0, SVG Export Plug-In . SVG Version: 6.00 Build 0)  -->
<svg version="1.1" id="Layer_1" xmlns="http://www.w3.org/2000/svg" xmlns:xlink="http://www.w3.org/1999/xlink" x="0px" y="0px"
	 viewBox="0 0 114.6 50.2" style="enable-background:new 0 0 114.6 50.2;" xml:space="preserve">
<style type="text/css">
	.st0{fill:#C14803;}
</style>
<title>central_asia</title>
<path class="st0" d="M52.8,0.4L53,0.6h0.7v0.2L54,1.1h0.2l0.5,0.2l0.2,0.2l0.2,0.2L55.4,2h0.2l0.2,0.2h0.5l0.2,0.2h0.2v0.2l0.7,0.5
	l0.2,0.2H58l0.2,0.2L59,4l1,0.2l1,0.5L61.2,5l0.5,1v0.5H61l-0.2,0.2h-0.2l0.2,0.2L61,7.2l1,0.2h0.5l0.2,0.2L63,7.9l0.2,0.2v0.2
	L63,8.6v0.2l0.5,0.2L64,9.5h0.2l0.2,0.2l0.2,0.2h0.5l0.5-0.2h1.4l0.5,0.2h0.2l0.2,0.2h0.2v0.2H69l0.5-0.2h1.7l0.7,0.2l0.5-0.2
	l0.5-0.2l0.2-0.2h0.2l0.5,0.2h0.2l0.5,0.5H75l0.5,0.2h0.7l0.7,0.2h1.9l0.5,0.2l0.5,0.2h0.5l0.2,0.2h0.7l0.5,0.2l0.2,0.2h0.2l0.2,0.2
	l0.2,0.2l0.2,0.2v0.5l0.2,0.2h0.2l0.2-0.2v-1.4h-0.2v-0.7l-0.2-0.2V10l0.2-0.2h0.7l0.2-0.2h1.2l0.5,0.2l0.7,0.2H87l0.5,0.2l0.7,0.2
	h0.5V10h0.5l0.7,0.2l0.5,0.2l0.5,0.2l0.5,0.2h0.2v0.2l0.5,0.2l0.2,0.2h0.2l1.2,0.5l0.2,0.2h0.5l0.5,0.2l0.7,0.2h0.2l0.5,0.2h0.5
	l0.5,0.2l0.5,0.2l0.5,0.5l0.2,0.2l0,0v0.5L99,15l0.2,0.2l0.2,0.2l-0.2,0.2l-0.5-0.2h-0.7l-0.2-0.2l-1.2,0.2h-3.1l-0.5-0.2h-0.5
	L91.9,15h-0.7l-0.2-0.2h-0.5l-0.7-0.2h-2.4l-0.5-0.2h-1.2l-0.2,0.2L85.2,15h0.2v0.2l-0.2,0.2V16l0.2,0.2v0.2l0.2,0.2v0.5l0.2,0.2
	v0.2l-0.2,0.2v0.2h-0.5l-0.5-0.2h-0.5l-0.2,0.2h-0.2l-0.2-0.2h-0.2l-0.5-0.2l-0.5,0.5H82l-0.2,0.2h-1.4l-0.2,0.2l-0.2,0.2h-0.2
	l-0.2,0.2v0.2h-0.5l-0.5,0.2h-1l-0.5,0.2h-0.2l-0.5,0.2h-1l-0.5-0.2h-2.6v-0.2H71l-0.2,0.2h-0.2v0.2h-0.2l-0.5,0.2h-1l-0.5,0.2v0.2
	h-1L67.1,21l-0.2,0.2h-1.6L65,21.5l-0.2,0.2h-0.2L64.3,22h-0.5l-0.2-0.2v0.5h-0.5l-0.2,0.2h-1l-0.2-0.2h-0.2l-0.2,0.2l-0.2,0.2h-0.5
	l-0.2,0.2H59l-0.7,0.2L58,23.4h-1.4l-0.5,0.2l-0.5,0.2l-0.5,0.2v0.2l-0.2,0.2l-0.2,0.5v0.5l-0.2,0.2l-0.2,0.2h-0.5l-0.2,0.2v0.2
	h-0.2V27L53,27.2l-0.2,0.2v0.2L52.5,28v0.2h-0.2L52,28.4l-0.2,0.2h-0.5l-0.2,0.2h-3.6l-0.2-0.2L47,29.2v1.2l-0.2,0.2h-0.2l-0.2,0.2
	v0.2L46,31.3l-0.2,0.2v0.2h-0.2L45.1,32l-0.7-0.2h-0.7V32l-0.2,0.2h-0.5L42.7,32h-1.2v0.5h-1l0.2,0.5H41l0.2,0.5l0.2,0.2l0.2,0.2
	l0.2,0.2l0.5,0.2l0.5,0.2l0.2,0.2l0.5,0.2l0.5,0.5h0.2l0.5,0.2l0.2,0.2l0.5,0.2l0.5,0.2h0.2l0.2,0.2H47l0.2,0.2h0.2l-0.2,0.2
	l0.2,0.2l0.2,0.5l0.2,0.2h0.2v0.2h0.2l0.5,0.2l0.5,0.2h0.2l0.2,0.2h0.7l0.2,0.2l0.5,0.2h0.2l0.2,0.2l0.5,0.2l0.5,0.2v0.2l0.2,0.2
	h0.2l0.2,0.5v1h0.2v0.5l0.5,0.2l0.2,0.2h-0.2v-0.3h-0.7v-0.2h-1.2l0.2,0.2v0.2h-0.2v0.2l0.2,0.2v0.2l0.2,0.2v0.2H53V45h0.2v0.2h0.2
	v0.5h0.2L53.5,46v0.5h-0.7v-0.2h-0.2v0.2l0.2,0.2l0.2,0.2h0.2v0.2l0.2,0.2v1.4h-0.2v-0.2H53v-0.5h-0.2v0.2l0.2,0.2h-0.2v-0.2h-0.2
	v-0.2h-0.2l0,0l0.2,0.2h-0.2l0.2,0.2h-0.2v0.2H52v0.2l-0.2-0.2h-0.2v-0.2h-0.2v-0.2H51l-0.2-0.2h-0.5l-0.2-0.2h-0.2l-0.2-0.2
	l-0.2-0.2l-0.2-0.2l-0.5-0.5h-0.5v-0.2h-0.2v-0.2h-0.2L47.5,46h-0.2v-0.2L47,46h-0.2L46,46.2l-0.5,0.5h-0.5l-0.2,0.5v0.2l-0.2,0.2
	h-0.5l-0.2,0.2h-0.2l-0.5,0.2h-0.2l-0.7-0.2L41,48.2h-0.5L40,47.9h-1l-1.2,0.2l-0.5,0.5l-0.5,1h-1v-0.2h-0.5l0,0h-0.2v-0.3H35v-0.2
	l-0.2-0.2l-0.2-0.2l-0.2-0.2L34,47.9v-0.2l-0.2-0.2l-0.2-0.2v-0.7l0,0v-0.2h-0.2v-0.5H33v-1l-0.2-0.2v-0.7l-0.2-0.2v-0.2h-0.2v-0.2
	h-0.2v0.2h-0.2l0,0h-0.2v0.5l-0.2-0.2h-0.2v0.2h-0.2v-0.2h-0.2v-0.5l0.2-0.2v-1l-0.2-0.2h-0.2v0.2h-0.2l-0.2-0.2v-0.2h-0.2l-0.2-0.2
	v0.2l-0.2,0.2l0,0H29v0.2l-0.2-0.2v-0.5h-0.2v1l-0.2-0.5h-0.5v0.7h-0.2v0.5h-0.2v0.2h-0.2v0.2h0.2v0.2h0.2l0.2,0.2v0.2H28v1h-0.2
	v0.2h-0.2V45H27l-0.2-0.2h-1V45h-0.2l-0.2-0.2l0,0h-0.2v0.5h-0.2V46h0.2v0.2h0.2v0.5h0.2v0.5h-0.2v0.2l-0.5-0.7l-0.2-0.5l-0.7-0.5
	l-0.5-0.2L23.2,45v-0.5L22.8,44h-1l-0.2-0.2l-0.2-0.2v-0.5H21l-0.2,0.2l0.2,0.2v0.5l0.2,0.2V45l0.2,0.5v1.2l-0.2,0.2L21,47.2
	l-0.2,0.2l-0.2,0.2l-0.5,0.2l-0.5-0.2l-0.2-0.2l-0.2-0.5V46l-0.2-0.2l-0.2-0.2V45l-0.2-0.5l-0.2-0.2V44l-0.2-0.5v-0.5l-0.2-0.5v-1.9
	l0.2-0.2l-0.2-0.2h-0.5L17,40h-0.5v0.7h-0.2v1.4h-0.5v0.5h-0.5v-0.2h-0.2v0.2l-0.2,0.2h-0.2v-0.2h-0.2l-0.2-0.2h-0.7l-0.2-0.2h-0.2
	v0.2h-0.2l-0.2,0.5l-0.2,0.2L11,43.6l-1,0.2H8.6l-0.5,0.2l-0.5-0.7v-0.3l0.2-0.5v-0.2l-0.2-0.5v-0.2l-0.2-0.7l-0.2-0.2v-0.5L7.4,40
	l0.2-0.2l0.5-0.2h0.2v-0.2L8.1,39v-0.2H7.9l-0.2-0.2v-0.2H7.4v-0.2l-0.2-0.2l-0.2-0.2v-0.5H6.7l0.2-0.2v-0.2h0.2v-1.2l-0.2-0.2v-1
	L6.7,34l-0.2-0.2L6,33.3L5.7,33h-1l-0.2-0.2H4v-0.2l-0.2-0.2L3.5,32l-0.2-0.2H2.8v-0.2l-0.2-0.2H1.9l-0.2-0.2l-0.2-0.2l-0.2-0.2
	l-0.2-0.2h0.2v-0.2h0.2v-1l0.2-0.2l0.2-0.2h0.2v-0.2h0.5l0.2-0.2h0.2V28l0.2-0.2l0.2-0.2V27l0,0v-0.2h0.2v-0.5H4L4.2,26h0.2L5,25.6
	v-0.2l0.2-0.2v-1h0.5l0.7-0.5v-0.2l0.5-0.2v-0.2h0.5l0.5-0.2l0.5-0.2h0.2L9.1,22l0.2-0.2h1V22l-0.2,0.2l0.2,0.2v1.2l0.2,0.2v0.2
	l0.2,0.2v1.7l0.2,0.2h0.2v-0.2h0.2v-0.5l0.2-0.2l-0.2-0.2v-0.7l-0.2-0.5L11,23.4v-2.2L10.8,21l0.2-0.5v-0.2l-0.2-0.7l-0.2-0.2v-0.2
	l-0.2-0.2v-0.5L10,17.9v-0.2l-0.2-0.5l-0.5-0.5L9,16.5H8.8v-0.2L8.6,16l-0.2-0.2l-0.2-0.2l-0.2-0.2V15H7.6l-0.2-0.2v-0.2l-0.5-0.2
	L6.4,14l-0.2-0.5L6,13.3l-0.2-0.5v-0.2H5.5l-0.2-0.2H5l-0.2-0.2L5,11.9l0.2-0.2v-0.7h0.2v-0.5l-0.2-0.2L5,10L4.5,9.8L4.3,9.5V9.2
	L4,9H3.5V8.8H3.3L2.8,8.3l0.2-0.2h0.2l0.5,0.5l0.5,0.2L5,9.2l0.7,0.5L6.2,10l0.7,0.5l0.5,0.2h1l0.2,0.2l0.2,0.2h0.2l0.2,0.2h1
	l0.2,0.2l0.2,0.2H11l0.2,0.2l0.5,0.2l0.2,0.2h0.2l0.2,0.2l0.5,0.2h0.5l0.2-0.2v-0.5h0.5l0.2,0.2l0.2,0.2l0.5,0.2l0.2,0.2h0.2
	l0.2,0.2l0.2,0.2h0.2l0.2,0.2l0.2,0.2l0.2,0.2h0.2l0.2,0.2l0.2,0.2H18v0.2h0.2l0.2,0.2v0.2l0.2,0.5l0.2,0.2h1l0.5,0.2l0.2-0.2v0.2
	h0.5l0.2,0.2l0.2,0.2l0.2,0.2v0.2h0.5v-0.2l0.2-0.2l-0.2-0.5v-0.2h0.2v-0.2h0.7l0.2-0.2h0.7l0.2,0.2h1.9l0.5,0.2h0.5l0.2,0.2h1
	l0.5,0.2h0.5l0.5,0.2h0.5l0.5,0.2h0.7l0.5-0.2h0.5l0.5-0.2h0.5l0.5,0.2h1l0.5,0.2h0.7v0.2h0.5l0.2,0.2h0.2v-0.2H38v-0.2l-0.2-0.2
	h-0.5L37,16.9h-0.5l-0.2-0.2h-0.2l-0.5-0.5L35.2,16v-0.2L35,15.2L34.8,15h-0.5L34,14.8l-0.2-0.2h-0.2l-0.2-0.2h-0.7l-0.2-0.2
	l-0.2-0.2l-0.2-0.2v-0.7l-0.2-0.2l0.2-0.2h0.7l0.2,0.2h0.5l0.2,0.2h0.2l0.2,0.2l0.2,0.2l0.2,0.2l0.2,0.2l0.2,0.2l0.2,0.2l0.5,0.2
	h0.2l0.2,0.2l0.5,0.2h1.2l0.2-0.2l0.5,0.2h0.2l0.5,0.2h0.5l0.5,0.2h1l0.2-0.2l0.2-0.2v-0.2l0.2-0.2v-0.2h0.7v-0.2h1v-0.2h1.4v0.2
	l0.2-0.2H46v0.2h1l0.2-0.2v-0.2L47,13.3h-0.2l-0.2-0.2v-0.5h-0.2v-0.5H46l-0.2-0.2h-0.2v0.2h-0.7v-0.2h-0.2l-0.2-0.5v-0.2l0.2-0.2
	l0.2-0.5l0.2-0.2V10l-0.2-0.2L44.6,9V8.8l-0.5-0.2l-0.2-0.5V7.3h0.2l0.2-0.2h0.2l0.2-0.2V6.6l0.2-0.2h-0.2V5.7l-0.2-0.5l-0.2-0.2
	l-0.2-0.2l-0.2-0.2V4h1.7l0.2-0.2H48l0.2-0.2l0.2-0.2h0.2L48.9,3h0.2l0.2-0.2l0.2-0.2V2.3L49.9,2h0.5l0.2-0.2l0.2-0.2l0.5-0.2V1.1
	l0.2-0.2l0.2-0.2h0.7V0.4H52.8z M35.5,41.9H36v0.2l0,0v0.2h0.5v0.2h0.2v0.2h-0.2l0,0h-0.2v-0.2l0,0l0,0h-0.2l-0.2-0.2v0.2h-0.2v-0.2
	l0,0v0.2h0.2v0.2h0.5v0.2l-0.2-0.2v0.2h-0.2l0,0h-0.2v-0.2h-0.2v-0.2H35l0,0h-0.5l0,0l-0.2-0.2l0,0v0.2h0.5v0.2h0.5v0.2h0.2v0.2
	h-0.2l0,0L35,43.1l0,0h-0.2l0,0H35v0.2h0.2v0.2H35l0,0l-0.2-0.2v0.2H35v0.2h0.2v-0.2l0.2,0.2h0.2v-0.2h-0.2v-0.2h0.2v0.2l0.2,0.2
	l0,0v-0.2l0.2,0.2l0,0v-0.2h0.5v0.2l0,0v-0.2h-0.2v-0.2h0.2v0.2h0.7v-0.2h-0.2l0,0h-0.2l0,0h-0.2l0,0h0.2v-0.2h-0.2v-0.2h0.2v-0.2
	l0,0v-0.2h-0.5v-0.2l0,0l0,0h-0.2l0,0L36,41.9L35.5,41.9L35.5,41.9L35.5,41.9z M103.9,11.2h1l0.7,0.2l0.5,0.2l0.7,0.2l0.7,0.2
	l0.5,0.2l0.2,0.2l0.2,0.2l0.5,0.5v0.2l0.2,0.2h0.2l0.5,0.2h0.2l0.7,0.5l0.2,0.2l0.2,0.2h0.5l0.5,0.2h0.5l0.2,0.2l0.5,0.2h0.5
	l0.2,0.2v0.2H114l-0.2,0.2h-0.2l-0.5,0.2h-0.2l-0.2,0.2h-1.4v-0.2h-0.5l-0.5-0.2l-0.5-0.2l-0.2-0.2h-0.2l-0.2-0.2h-1l-0.5-0.2h-0.7
	l-0.5,0.2h-1l-0.5-0.2h-0.2l-0.5-0.2h-1.4l-0.7-0.2l-0.2-0.2l-0.5-0.2l-0.5-0.2l-0.2-0.2l-0.2-0.2v-0.2h0.5l0.2-0.2v-0.2l0.2-0.2
	l0.2-0.2h0.2v-0.2h0.5l0.2-0.2l0.2-0.2v-0.2l0.2-0.2v-0.2l0.2-0.2h0.2L103.9,11.2z M53,48.9l0.2,0.2h0.2v0.2h-0.2L53,49.1h-0.5v-0.2
	l0,0v-0.2h0.2v0.2L53,48.9z M52.8,49.1H53v0.2L52.8,49.1L52.8,49.1z"/>
</svg>
