<?xml version="1.0" encoding="utf-8"?>
<!-- Generator: Adobe Illustrator 20.1.0, SVG Export Plug-In . SVG Version: 6.00 Build 0)  -->
<svg version="1.1" id="Layer_1" xmlns="http://www.w3.org/2000/svg" xmlns:xlink="http://www.w3.org/1999/xlink" x="0px" y="0px"
	 viewBox="0 0 58.6 142.6" style="enable-background:new 0 0 58.6 142.6;" xml:space="preserve">
<style type="text/css">
	.st0{fill:#C14803;}
</style>
<title>coastal_africa</title>
<path class="st0" d="M51.8,14.1v-0.2h-0.2v0.2H51.8l-0.2,0.5l0,0l-0.7,1.2l0.2,0.2l0,0v0.2l0.2-0.2v0.2h-0.5V16h-0.5l-0.2,0.2l0,0
	l0.2-0.2h0.5v0.5l-0.2,0.2v-0.2l-0.2-0.2l-0.2,0.5l-0.7,0.7l-0.5,0.7l-0.7,0.7l-1,1l-0.7,0.5H47l0.2-0.2h0.2v0.2h-0.7v0.2h-0.5
	l0.2-0.2v-0.5h-0.2l0.2,0.2h-0.2v0.7H46v-0.5h-0.2v0.2l0,0l0.2-0.2v0.2h-0.2v0.2H46v0.7h0.2V22l0,0l0,0H46v-0.5h-0.2v0.2h-0.5V22
	l0,0v0.2h0.2v0.2h-0.2v0.2H45L44.8,23l-0.2,0.2h-0.2l0,0h-1v0.2h-0.5v0.2h-0.5v0.5h-0.2v0.2h-0.2v0.2h0.2v0.2h-0.2v0.5h0.2v0.2l0,0
	v0.2h-0.2v0.5l-0.2,0.2v0.7h-0.2v0.2H41l0,0h-0.2v0.2l0,0v0.5l-0.2,0.5V29H40v-0.3h-0.2v0.2h0.5v1H40v0.5h-0.2v0.2l0,0l-0.2,0.2v0.2
	h-0.2v-0.2H39v0.2h-0.2l0,0H39v0.2h0.2v0.2H39v0.5h-0.2v0.5l-0.2,0.2V33h-0.2v0.2l-0.2,0.2V34l-0.2-0.2l0,0l0,0h-0.2l0.2,0.2l0,0
	v0.2h-0.5V34h-0.2v0.2h-0.2v0.2h-0.2v0.2h0.2V35h-0.2l0,0h-0.2l0,0h0.2l0,0h0.2v0.2h-0.2l0.2,0.2h-0.2v0.5l-0.2-0.2l0.2-0.2h-0.2
	v0.2h-0.2l0.2,0.2v0.2h-0.2l0,0h0.2v0.2h-0.2l0.2,0.2v0.2h-0.2v0.2h-0.2v0.2l0,0v0.5h-0.2l0.2,0.2h-0.2v0.2h-0.2V39h-0.2v0.5H35V40
	h-0.2v0.5h-0.2v0.7h-0.2v0.7h0.2v0.2h0.2v0.2l0,0v0.2l0,0v0.2h-0.2v0.5l0,0v0.2l0,0l0,0h0.2l0,0H35v0.2h0.5v0.2h0.2l-0.2-0.2h0.2
	v0.5h0.5v0.5h0.2v0.5h0.2l0,0h0.2l-0.2,0.2l0,0l0,0h0.2V46l0,0v-0.2h0.2V46h0.7v0.5h0.2v1h-0.2l0,0h-0.2v0.2h-0.2V48l-0.2,0.2v0.2
	h-0.2l0,0h0.2l-0.2,0.2v0.2l-0.2,0.2v0.5l-0.2,0.2l0,0l0.2,0.2v0.7h-0.2V51h0.2v-0.5h0.2v0.2h0.2l0.2,0.2v0.2h-0.2v0.5h0.2V52
	l-0.2,0.2v0.2l-0.2,0.2V53h-0.2v0.5h-0.2v1.4h0.2v1h0.5v0.5h0.2v0.2l0.2,0.2h-0.2l-0.2-0.2v0.2h0.2v0.7l-0.2,0.2h0.5v-0.3h0.2V58
	h0.2v0.5l0,0v0.7h-0.2v0.2h-0.2l0,0h0.2l0.2,0.2v0.2l0,0v0.2h0.2v1l0,0v0.2h0.2v0.7h-0.2l-0.2,0.2v0.2h0.2v-0.3h0.5v0.2h0.2v0.2h0.2
	V63h0.2v0.2l0,0V63l0.2,0.2h0.5v0.5H40V64h0.2v-0.2h0.2l0.2,0.2H41v-0.2h-0.2l0,0H41V64h0.2v0.2l0,0v0.2h0.2l0,0h0.2v-0.2h-0.2
	l0.2-0.2v0.2l0,0v0.5l0,0V65l-0.2,0.2h0.2V65h0.5v0.5h0.2v0.5h0.2v0.2h-0.5v0.2H42v0.2h0.2l0.2,0.2v0.2H42v0.5l0,0v0.2h0.2v0.5H42
	l-0.2,0.2v0.2h-0.2V69l-0.2,0.2l0,0L41,69.5h0.2v0.2h0.5V70h-0.2v0.5l-0.2,0.2l0.2,0.2h-0.2v0.2l0,0l0.2,0.2h-0.2v0.2h0.2v0.5l0,0
	v0.7h0.2v0.2h-0.2v1l0,0v0.2l0,0l0,0h-0.2l0,0H41v0.2l0.2-0.2v0.2h0.2V75l0,0v0.2h-0.2l0,0H41l0.2,0.2H41v0.2l0,0v-0.2h0.2v0.2h0.5
	L41.5,76l0.2,0.2l0.2,0.2h-0.5v0.2h0.2v0.2H42v0.2h-0.5v0.2h-0.2v0.2h-0.5v0.7h0.5v-0.2H41v-0.2h0.2v0.2h0.2v0.5h-0.2v0.2l0.2,0.2
	h-0.2v0.7h0.2v0.5h-0.2v0.2H41v0.2h-0.2V81H41l0,0h0.2l0,0h0.2v0.2h-0.2L41,81.5v0.2h0.2v1.7l0,0l0.2,0.2l-0.2,0.2l0,0v0.2H41
	l-0.2,0.2v0.2H41v0.2h0.2v-0.2l0.2-0.2l0,0h0.2v1h-0.5v0.7H41l0.2,0.2l0,0H41v0.2h0.2v-0.5h0.2v-0.2h0.2v-0.2h0.5v1H42V87h0.2v0.5
	H42V88h-0.5v0.2H41v0.2h0.2l0,0h0.2v0.2H41V89h0.2v0.2h-0.5l-0.2,0.2h-0.2v0.2h0.2l0.2-0.2v0.2H41v0.5l-0.2,0.2v0.2h-0.2v0.2h-0.2
	v0.5H40v0.2h-0.2v0.2h-0.2v0.2l-0.2,0.2L39,92.6v0.2h-0.2L38.6,93l-0.2,0.2l-0.2,0.2l-0.2,0.2h-0.2V94h-0.2l0,0h0.5v0.2h-0.2v0.2
	h-0.2v0.2h-0.2v0.5h-0.7l0,0h-0.2l0,0h0.2v0.2h-0.5v0.2l0,0v0.5h-0.2v0.2l0.2-0.2h0.2v0.2h-0.5v0.2h-0.2v0.2h-0.2L35,97.1h-0.2
	l-0.2,0.2l-0.2,0.2h-0.5v0.2h-0.5v0.2h-0.2l-0.2,0.2h-0.2v0.2h-0.2v0.2h-0.5V99h0.2v-0.2h0.2V99l-0.2,0.2h-1v0.2h-1v0.2l-0.2-0.2
	l0,0l-0.2,0.2h-0.2l0,0h-0.2l0,0H29v0.3h-0.5v0.2H28l-0.2,0.2l0,0h-0.2l-0.2,0.2H27v-0.5h-0.2l0.2,0.2v0.2h-0.2l0,0H27l-0.2,0.2
	l-0.2-0.2l0,0v0.2h-0.5v0.2h-0.5v0.2h-0.2l-0.2,0.2l0,0l0,0h-0.2l-0.2,0.2h-0.2l-0.2,0.2l0,0h-0.2v0.2h-0.2l-0.2,0.2l0,0H23l0,0l0,0
	v0.2h-0.2l-0.2,0.2h-0.2v0.2H22v0.2h-0.2l-0.2,0.2v0.2l-0.2,0.2H21v0.2l-0.2-0.2v0.2h-0.2v0.2h0.2v0.2h-0.2v0.2h-0.2v0.2h-0.2l0,0
	h-0.2v0.2h0.2l0,0l-0.2,0.2h-0.2v0.2l-0.2,0.2h-0.2v0.2h-0.2l-0.2,0.2v0.2l-0.2-0.2v0.2l-0.2-0.2l0,0v0.2h0.2v0.2h-0.2v0.2h-0.2v0.2
	h-0.2v0.5l0,0v0.2h-0.2v0.2l0.2-0.2l0,0l-0.2,0.2v0.2h-0.2v-0.2l-0.2-0.2v0.2h-0.2v0.2h-0.5v0.2l0,0v-0.2H16v0.2h-0.5v0.2H15l0,0
	l0,0v0.2h-0.2l-0.2,0.2h-0.2v0.2l-0.2-0.2v0.2l0,0v0.2h-0.2l-0.2,0.2v0.2l0,0l-0.2,0.2h-0.2v0.2h-0.2v0.2l0,0v-0.2l-0.2,0.2l0,0l0,0
	h-0.2l0.2,0.2h-0.2v0.2h-0.2v0.2h-0.2v0.2h-0.2v0.2h-0.2l-0.2,0.2H11v0.2h-0.2v0.2h-0.2l-0.2,0.2H10v0.2H9.6v-0.2H9.3v-0.2H9.1v-0.2
	H8.8v-0.2H8.6v0.2l0,0v0.2h0.5v0.5h0.2l-0.2,0.2v0.7H8.8v0.2h0.2v0.5H8.4v0.2h0.5v0.2H8.6v0.5l0,0v0.2H8.4v0.2h0.2v0.5H8.4l0.2-0.2
	H8.4l0,0H8.1v0.2h0.2l0,0h0.2v0.3h0.2v0.2h0.2v0.2H8.8v0.2h0.2v-0.2h0.2v0.2h0.2l0,0h0.2v0.2l0,0v0.2l0,0v0.2H10v0.5l0,0v0.2h0.2
	l0,0H10v0.5H9.8v0.2l0,0l0,0H10v0.2H9.8l0,0H10v0.5l0,0v-0.2H9.8v0.2l0,0v0.2H10v0.2l0,0v-0.5h0.2l0,0l-0.2,0.2v0.2l0.2,0.2v0.5
	l0.2,0.2v0.2h0.2v0.5h-0.2l0.2,0.2h-0.2v0.2l0.2-0.2v0.2h-0.2v0.2h0.2v2.2h0.5v-0.2h0.2v-0.2l0,0v-0.2l0.2,0.2v1.7l-0.2,0.2v0.5
	h-0.2v0.7l0,0v1h0.2v0.2h0.2l-0.2-0.2h0.2v0.2l-0.2,0.2v0.2h-0.2v0.2l-0.2,0.2v1.2h-0.2v0.5h-0.2v1l-0.2,0.2l0,0H10v1l-0.2,0.2v0.4
	l0,0v-0.2H10v-0.5h0.5V135h0.2v-0.2H11v0.2h-0.2v0.2H11l-0.2,0.2v0.5h-0.2v0.7l-0.2,0.2l-0.2,0.2v0.2H9.8v0.2l-0.2,0.2l-0.2,0.2
	l-0.2,0.2v0.2H8.8v0.2H8.6v0.2H8.4v0.2H7.9v0.2H7.4v0.2H7.2l-0.5,0.2H6.4l-0.2,0.2H5.7l-0.2,0.2H5l-0.2,0.2H4.3v0.2H3.5v0.2H3.1
	l-0.2,0.2H2.3l-0.2,0.2H1.6v0.3H1.1v0.2H0.4V142h0.2v-0.2h0.2v-0.2h0.2v-0.2L0.9,141h0.2v-0.5H0.9V140l-0.2-0.2v-0.5l0.2-0.2h0.5
	v0.2h0.5l0.7-0.5l0.7-0.7l0.5-0.2l0.5-0.5l0.2-0.5v-1.7l0.2-0.2H5l0.2,0.5l0.2,0.2l0.2,0.2l0.5-0.2l0.5-0.5l0.2-0.7l0.5-0.5v-1
	l0.2-1v-1l-0.2-1v-1.4l-0.5-0.2l-0.5,0.2l-0.5,0.2H5.5l-0.2-0.2v-0.2l0.5-0.5l0.5-0.5l0.5-0.7l0.5-0.5v-0.2l-0.2-0.5v-1.2l0.2-0.5
	v-0.5l0.2-0.5v-0.2l0.2-0.5H6.9l-0.5,0.2h-1v-1l0.5-0.2h0.2l0.5-0.2l0.5-0.2l0.5-0.2h0.5l0.2-0.2v-0.5l-0.2-0.5l-0.2-0.2l-0.2-0.5
	l-0.2-0.2l-0.2-0.5v-1.2l0.2-0.7v-0.7l0.2-0.5v-1.2l-0.2-0.5v-0.2l-0.2-0.2v-0.7l0.2-0.5l0.2-0.2l0.2-0.5l0.2-0.2h0.5l0.2,0.2
	l0.5-0.7l1-1.4l0.5-0.7l0.5-1l0.2-0.2l0.2-0.2h0.5l0.5-0.7l0.2-0.2v-0.7l0.2-0.2l0.2-0.2v0.2h0.2v0.2h0.2v-0.2l-0.2-0.2H16l0.5-0.2
	l0.2-0.2l0.5-0.5l0.5-0.2l0.5-0.2l0.7-0.5h0.2l0.5-0.2l0.5-0.5l0.7-0.2l0.7-0.2l1-0.2l0.7-0.2h0.5l0.2-0.2l0.7-0.2l0.5-0.2l0.7-0.2
	l0.7-0.5l0.7-0.2l1-0.7l0.7-0.2l1-0.5l0.7-0.5l0.5-0.5l0.7-0.5l0.7-0.5l0.2-0.5l0.2-0.5h0.2v-0.2h0.2V94h0.2v-0.2H34v-0.3h0.2V93
	h0.2v-0.2h0.2v-0.2H35v-0.2h0.2v-0.2h0.2v-0.2l0.2-0.2v-0.2H36v-0.2h0.2v-0.2l0.2-0.2v-0.2h0.2v-0.2h0.2v-0.5h0.2v-0.2h0.2v-0.5h0.2
	v-0.5h0.2v-0.7h0.2v-0.5h0.2v-0.7h0.2v-1h0.2v-1.6h-0.2v-1h-0.2v-0.2h-0.7l-0.2-0.2h-1.9v0.2H35l-0.2-0.2h-0.2V82l0.2-0.2H35v-0.3
	h0.7v-0.2h0.5l0.2-0.2h0.5v-0.2h0.5v-0.2h0.5v-0.2l0.2-0.2v-0.2h0.2v-0.5h0.2v-0.7h0.2v-2.4h-0.2v-0.7h-0.2v-0.2h-0.2L37.9,75h-0.2
	v-0.2h-0.5v-0.2h-0.2v-1.4h-0.2v-0.2h-0.2v-0.2h-0.2v-0.2h-0.2v-0.2h-0.2v-0.2l-0.2-0.2h-1l-0.2-0.5l-0.5-0.5l-0.2-0.5H33V70h-1.2
	v0.2h-1V70h-0.5l-0.2-0.2l-0.2-0.2v-0.7h0.2v-0.5h0.2v-0.2h0.2l0.2-0.2h0.2v-0.2h0.2l0.7-0.5l0.7-0.2l0.7-0.5l0.5-0.5l0.7-0.5
	l0.5-0.5v-0.2L35,64.5h-0.2l-0.2-0.2H34V64l-0.2-0.5l0.2-0.2l0.2-0.5l0.2-0.2l0.5-0.3l0.5-0.2l0.5-0.5v-1.2h0.2l0.2,0.2l0.2,0.5
	l0.2,0.2v-0.2l0.2-0.5l-0.2-0.2v-1h-0.2l-0.2-0.5L36,58.7l-0.2-0.5L35.5,58L35,57.5h-0.5L34,57.3V57l0.2-0.2V56H34l-0.2-0.2v-0.7
	l0.2-0.2l0.2-0.5l0.5-0.2l0.3-0.2l-0.2-0.5v-0.2l-0.2,0.2h-0.2l-0.5,0.5l-0.2,0.2l-0.5,0.5v0.5l-0.2,0.7l-0.2,1l-0.5,0.5h-0.2
	l-0.2-0.5v-0.7l-0.2-0.2h-1l-0.2-0.2l-0.2-0.2v-1l0.2-0.5v-0.7l0.5-0.7v-0.7l0.2-0.2v-0.7l-0.5-0.2h-0.7L29,50.3l-0.2-0.2l-0.2-0.5
	v-0.5l0.2-0.2l0.5-0.5l0.7-0.5l0.5-0.5l0.7-0.5l0.7-0.5l0.2-0.5l-0.2-0.2v-0.5l0.2-0.2v-0.5l0.2-0.2v-1l0.2-0.2l0.2-0.7v-0.4
	l0.2-0.5v-0.5l-0.2-0.2l-0.5-0.2l-0.2-0.2L31.9,40l-0.2-0.2l-0.2-0.2l-0.2-0.2L30.9,39v-0.5l0.2-0.5v-0.5l0.2-0.5v-0.5l0.2-0.5v-0.2
	l0.2-0.2l-0.2-0.2v-0.2l-0.2-0.2l0.5,0.2v0.2l0.2,0.2l0.2,0.2v0.5l0.2,0.2v0.2h0.2v0.2h1v-0.2H34v-0.2h0.2v-0.5h0.2v-0.2l0.2-0.2
	v-0.5h-0.2v-0.2h-0.2v-0.2H34v-0.2h-0.2l-0.2-0.2H33L32.6,34h1.2l0.5-0.2l0.2-0.5l0.2-0.7v-0.7l0.2-0.5v-0.7l0.2-0.5l0.5-0.2h1
	l0.5-0.2l0.5-0.2l0.5-0.5v-0.7l0.2-0.7v-0.7l0.5-0.7l0.2-0.7l0.5-0.7l0.5-1.2l0.5-1l0.2-0.7l0.7-0.7v-1.2h-0.2v-1.4L41,18.1v-0.7
	h-0.2v-0.7l-0.2-0.2V16h-0.2v-0.5L40,15.3v-1h-0.2v-1.4h0.5v0.2h0.2v0.5h0.2l0.2,1l0.5,1l0.5,1.2l0.2,1.2v1l0.2,1h0.2l0.5-0.5
	l0.5-0.5l0.2-0.2l0.5-0.5v-0.2l0.2,0.2H45v-0.5l-0.2-0.2l0.2-0.5l0.2-0.2l0.2-0.5l0.5-0.5l0.7-0.7l0.5-0.7l0.5-0.7l0.5-0.7l0.5-1
	l0.2-0.5l0.2-0.5l0.2-0.5V10l-0.2-0.5l0.2-1l0.2-0.7V7.1l0.2-0.5l0.2-0.2l0.2-0.5l0.5-0.2l0.5-0.2h1.2L53,5.9l0.5,0.2l0.2,0.5
	l0.2,0.7l0.2,0.5l0.5-0.2l0.2-0.2l0.2-0.2l0.2-0.2V6.4h-0.2V6.1h-0.2V5.9l-0.2-0.2V4.9l-0.2-0.2V3.2h-0.2V3h-0.2V2.5h-0.2V1.3
	l-0.2-0.2V0.6h0.2V0.4h0.2v0.2h0.2v1h0.2v0.7l0,0v0.5h0.5v1h0.2v1.4h0.2v0.7h0.2v0.2h0.2v0.2h0.5l0.5-0.5h1v0.2H58v0.7h0.2v0.3
	L58,7.3l-1,0.7l-1.4,1.7l-1.2,1.2l-1.2,1.4l-0.7,1L51.8,14.1z M54.7,11.9L54.7,11.9z M52.5,14.3v-0.2l0.2-0.2l0.2-0.5l0.2-0.2
	l0.5-0.2l0.2-0.5l0.5-0.2l0,0l0,0v0.2h-0.2l0,0H54v0.2h-0.2v0.2h-0.2v0.2l-0.2,0.2v0.2H53v0.2h-0.2v0.2h-0.2L52.5,14.3z M53.5,13.3
	L53.5,13.3z M53.3,13.8L53.3,13.8z M53,13.8L53,13.8z M52.8,14.3h-0.2l0,0H52.8V14l0,0V14.3z M51.6,15.3V15l0.2-0.2l0.5-0.2H52v0.2
	h-0.2V15L51.6,15.3z M52.3,14.5L52.3,14.5z M52.1,15.3h-0.2L52,15L52.1,15.3z M51.6,15.5L51.6,15.5z M51.6,15.5L51.6,15.5z M51.3,16
	v-0.2h0.2V16L51.3,16z M48.2,20.1H48l0,0h-0.2l0,0H48l0.2-0.2l0.2-0.2v-0.2h0.2l0.2-0.2v0.2h-0.2v0.2l-0.2,0.2h-0.2V20.1z
	 M48.9,19.3L48.9,19.3z M48.7,19.8L48.7,19.8L48.7,19.8z M48.5,19.8L48.5,19.8z M47.7,20.3L47.7,20.3z M47.7,20.5l0.2-0.2v0.2H47.7z
	 M47.5,20.3v0.2h-0.2L47.5,20.3z M47.5,20.5L47.5,20.5z M47,20.5h0.2V21L47,20.8V21h-0.5v0.5l-0.2-0.2v-0.5h0.5v-0.2L47,20.5z
	 M46.3,21.5L46.3,21.5z M46,22h-0.5v-0.2H46V22z M42.2,24.6L42.2,24.6z M39.3,31.4L39,31.1h0.2V31.4z M37.1,34.5L37.1,34.5z
	 M37.8,34.2v0.2h-0.2l0,0L37.8,34.2z M39.3,35.7h0.2v0.2h0.2v0.2H40v-0.3l0,0v-0.2h0.2v0.5L40,36.4v1.2l0,0v0.2h-0.2v0.2l-0.2,0.2
	l0,0h-0.2v0.2H39v-0.2h-0.2v-0.2H39l0,0l0.2-0.2H39v-0.2h0.2v-0.2h0.2l0,0H39l0,0h0.2v-0.2l0.2,0.2v-0.5h-0.2v-0.2l0,0v-0.2l0,0
	v-0.2l0,0v-0.2H39v-0.2L39.3,35.7L39,35.4h0.2V35.7z M40,35.9L40,35.9z M40,35.9h-0.2v-0.2L40,35.9z M39,36.2L39,36.2z M39,36.6
	L39,36.6L39,36.6z M40,36.4h0.2v0.2H40V36.4z M36.4,36.9L36.4,36.9z M38.8,36.9v-0.2H39v0.2H38.8z M39,36.9L39,36.9z M36.4,37.1
	l-0.2,0.2L36.4,37.1z M38.8,37.4L38.8,37.4z M39.8,38.4L39.8,38.4L39.8,38.4z M38.6,38.4h0.2v0.2h0.2v0.2l-0.2-0.2L38.6,38.4z
	 M39.3,38.6L39.3,38.6v-0.3h0.2v0.2L39.3,38.6z M37.4,40.8v0.7h0.2v1h0.2l0,0h0.2v-0.2l0,0V43l0.2,0.2v0.7h-0.5l-0.2-0.2v-0.6l0,0
	v0.2h-0.2v-0.2h-0.2v-0.5h-0.2v0.5h-0.2v-0.2h-0.2v-1l0,0v-0.7h0.2v-0.5h0.2v-0.2l0.2-0.2h-0.2l0.2-0.2v0.2h0.2v0.5L37.4,40.8z
	 M36.7,40.5L36.7,40.5z M36.9,40.5L36.9,40.5z M36.9,42.9L36.9,42.9z M29.5,47.2V47l-0.2-0.2L29,46.5V46h0.2L29,45.7h0.5v0.5
	l0.2,0.2l0.2,0.2v0.2l-0.2,0.2L29.5,47.2z M37.4,48.9L37.4,48.9z M39.8,50.6v0.2h-0.2v0.5l-0.2,0.2h-0.5v0.2L38.6,52h-0.2v-0.2h-0.2
	l0.2-0.2h0.2v-0.2h0.2V51h0.2v-0.2h0.2v-0.2l0.2,0.2v-0.5h0.2L39.8,50.6L39.8,50.6z M36.4,50.8L36.4,50.8z M36.7,51.1L36.7,51.1z
	 M23.2,51.8V52h-1.7v0.2h-0.5v0.2h-0.2v0.2h-0.5V53h-0.2v0.2h-0.2l-0.2,0.2h-0.5V53l0.2-0.2v-0.2h0.2v-0.2h0.2V52h0.2v-0.2h0.2v-0.3
	h0.2v-0.2h0.5l0.2-0.2h1.4v0.2H23v0.2h0.2L23.2,51.8z M39.3,51.6L39.3,51.6z M37.6,51.6l0.2,0.2h-0.2V51.6z M39.3,51.8L39.1,52l0,0
	v-0.2H39.3z M39.1,51.8L38.8,52v-0.2H39.1z M37.6,54.9l-0.2-0.2h0.2V54.9z M37.4,55.4L37.4,55.4z M37.6,57L37.6,57v0.2h-0.2V57H37.6
	z M37.6,57.5L37.6,57.5z M37.9,57.7L37.9,57.7z M41.2,63.7L41.2,63.7z M42.7,66.4l0.2,0.2h-0.2V66.4z M42.9,66.8l-0.2,0.2v-0.2H42.9
	z M42.9,67.8L42.9,67.8v-0.2l0.2,0.2H42.9z M42.7,68.6L42.7,68.6L42.7,68.6z M42.4,68.8l-0.2-0.2L42.4,68.8L42.4,68.8z M42.4,69.8
	L42.4,69.8z M42,73.9v0.2h-0.2v-0.2H42z M41.5,74.9v-0.2l0,0V74.9z M42,74.9V75h-0.2v-0.2H42l0,0V74.9z M42,75.4h-0.2l0.2-0.2V75.4z
	 M42,75.6L42,75.6z M41.7,76.1v-0.2H42L41.7,76.1z M42,76.3L41.7,76H42V76.3z M41.5,89L41.5,89z M40.3,91.2V91l0,0V91.2z M36.9,95.5
	L36.9,95.5z M36.7,95.5v0.2h-0.2v0.5h-0.2v-0.3h-0.2v-0.2h0.2v-0.2h0.2v0.2l0,0v-0.2L36.7,95.5z M36.7,96h-0.2l0.2-0.2V96z
	 M36.4,96.2L36.4,96.2z M32.1,99L32.1,99L32.1,99z M32.1,100h-0.2v-0.2h0.2V100z M13.1,102.2v0.2h-0.5v-1h0.5l0.2,0.2v0.2
	L13.1,102.2z M20.8,104.6L20.8,104.6z M19.8,105.6L19.8,105.6z M19.8,105.8L19.8,105.8z M18.1,107.5L18.1,107.5z M17.9,108l-0.2,0.2
	V108H17.9z M16.9,109.2h-0.2l-0.2,0.2v-0.2H17l0,0H16.9z M16.2,109.4L16.2,109.4z M14.2,110.4L14.2,110.4z M8.5,113.5L8.5,113.5z
	 M8.7,113.8L8.7,113.8z M8.7,113.8H8.6v-0.2h0.2L8.7,113.8z M9,113.8L9,113.8z M9.2,114H9.1l0,0H9.2z M8,117.8v-0.2l0.2,0.2H8z
	 M8.5,117.8L8.5,117.8z M9.2,118.3h0.2v0.2H9.3L9.2,118.3z M9.7,118.6L9.7,118.6z M9.4,118.8L9.4,118.8z M9.9,119.5L9.9,119.5z
	 M11.4,124.5v-0.7h0.2V123h0.2v0.2l-0.2,0.2v0.7l0,0v0.2L11.4,124.5z M11.6,124.8L11.6,124.8z M11.6,124.8h-0.2v0.2l-0.2-0.2h0.2
	v-0.2h0.2V124.8z M11.6,125L11.6,125z M11.4,125.2v0.2h-0.2v-0.2H11.4z M11.6,126.4L11.6,126.4z"/>
</svg>
