<?xml version="1.0" encoding="utf-8"?>
<!-- Generator: Adobe Illustrator 20.1.0, SVG Export Plug-In . SVG Version: 6.00 Build 0)  -->
<svg version="1.1" id="Layer_1" xmlns="http://www.w3.org/2000/svg" xmlns:xlink="http://www.w3.org/1999/xlink" x="0px" y="0px"
	 viewBox="0 0 147.9 72.3" style="enable-background:new 0 0 147.9 72.3;" xml:space="preserve">
<style type="text/css">
	.st0{fill:#C14803;}
</style>
<title>guinean</title>
<path class="st0" d="M10.5,10.2h-0.2V10H10V8.8h0.2v-1l0.2-0.2V6.1h0.2V3.7h-0.2V3.5h-0.2V3H9.8V2.8H9.6V2.5H9.1V2.3H8.8V1.1H8.6
	V0.6h0.5V0.4h2.6v0.2h0.2v0.5h0.2v2.4h-0.2v1h-0.2v0.7h-0.2v1.4h0.2v0.5h0.2v1.4h-0.2V9h-0.2v0.5h-0.2v0.2H11v0.5L10.5,10.2
	L10.5,10.2z M9.5,3.5H10v0.2L9.8,4L10,4.2v1h0.2v0.7H10v0.5H9.8L9.6,6.6H9.1v0.2l0,0v0.2h0.5v0.2h0.2v0.2H10v0.2H9.8v0.7H9.6v0.2
	H9.3V9L9.1,9.2H8.8V8.8H8.6V7.6H7.9V7.3H7.4V6.9H6.9V6.1h0.2V5.9H6.9l0,0H6.7v0.2H6.4v0.2H6.2v0.2H5.9L5.7,6.4V6.1l0.2-0.2V5.7h0.2
	V4.9H5.9v0.2H5.7V4.7h0.2V4.5h0.2V4.2h0.7v0.2h0.2V4.2h0.2V4h0.2l0,0h0.2V3.7h0.2V3.5h0.5V3.3h0.7v0.2L9.5,3.5z M14.8,6.4h1.7v0.5
	h-0.2v0.2h0.2v0.2h0.2v0.7h-1.2v0.2H15l-0.2,0.2h-0.2v0.2h-0.2v0.5h0.2v0.2h-0.2v0.2L14.1,10v0.2h0.2v0.2l-0.2,0.2v-0.2h-0.2v-0.2
	h-0.5V10h-1V9.7h-0.5V9h0.2V8.8h0.5V8.3h0.2V7.8h0.2V7.6h0.5V7.1h0.2V6.9h0.5V6.4L14.8,6.4L14.8,6.4z M80.3,11.2h-0.5V9.7h0.2V9.5
	l0.2-0.2h0.2l0.2,0.2H81V10h-0.2v0.2l-0.2,0.2v0.2h-0.2L80.3,11.2L80.3,11.2z M2.3,12.6v0.2l-0.5,0.2h1l0.2,0.2h0.2v0.2h0.5v0.2H4
	l0.2,0.2l0.2,0.2h0.2v0.2h0.5v0.2h0.2L5.7,15h0.2v0.2h0.5v0.2h0.2l0.2,0.2h0.2V16h0.2v0.2h0.2l0.2,0.2h0.2v0.2h0.2V17h0.2v0.2h0.2
	v0.2H9v0.2h0.2v0.2h0.2v0.2h0.2v0.2H10v0.2h0.2v0.2h1.4v-0.2l0.2-0.2v-0.2l0.2-0.2v-0.2h0.2v-0.5h0.2v-0.7h0.2v-0.2l0.2-0.2v-0.2
	h0.2v-0.3l0.2-0.2h0.2V15h1.9l0.2,0.2h0.7v0.2h0.5v0.2l0.2,0.2v0.2l0.2,0.2v0.2h0.2v0.5h0.2v0.2l0.2,0.2v0.2h0.2v0.5h0.2v0.5h0.2
	v0.2h0.2v0.2l0.2,0.2l0.2,0.2V20h0.2l0.5-0.2l0.7-0.5l0.7-0.2l0.5-0.2v-0.2h0.2v-0.5h0.5v-0.2h-0.7v-0.2H22v-0.2h-0.7v-0.2h0.2
	l-0.2-0.2v-0.5h0.5v-0.2h1V16h-0.5v-0.5h1v0.7h0.2v0.2H24v-1h0.2v-0.2h0.5V16h-0.2v0.7h0.2v1.2h-0.2v0.5h0.2v1H25v0.2h0.2v-0.7h0.2
	v-1.7h-0.2v-1l0.2-0.2v-0.4h0.2V15h0.2v0.5l-0.2,0.2v1h-0.2v0.5h0.2v1.9h0.5v0.2h-0.5v0.2l0,0v0.2h0.5v0.5h0.2l0.2,0.2h0.2v0.2h0.2
	V21h0.2v0.2h0.2v0.2h0.2v0.2H28V22h0.2v0.2h0.2l0.2,0.2H29v0.2h0.2V23h0.2v0.2H30l0.2,0.2h0.5v0.2h0.7v0.2h0.5v-0.5l0.2-0.2l0.2,0.2
	h0.2l0.2-0.2l0.2-0.2v-0.5h0.2v0.2h-0.2V23l-0.2,0.2v0.2h0.5v-0.2h0.2v0.5l-0.2,0.5h-0.5l-0.5,0.2h-0.2v0.7l0,0l0.2-0.2h0.2l0.7-0.5
	l0.5-0.2l0.5-0.2v-0.2h0.5l0.5-0.5h0.2l0.2-0.2l-0.2-0.2l0.2-0.2h1.2v0.2L36.4,23v0.2h0.5l0.2,0.2h0.2v0.2l-0.2,0.2v0.2h0.2l0.2,0.2
	l-0.2,0.2v0.5l0.2,0.5v1l0.2,0.5l0.2-0.5v0.2h0.2v-0.7l-0.2-0.5v-1h0.7l0.5,0.7v1.2l-0.2,0.2l0.2,0.5l0.2-0.2H40l0.5,0.2l0.2,0.5
	L41,28l0.2,0.2l0.5-0.2H42v-0.7h0.2l0.2,0.2v0.2h0.2V28h0.2v-0.2h0.2v-0.3l0,0l0.2,0.2l0.2,0.2l0.2,0.5l0.5,0.5l0.2,0.2v1.2l0.2,0.5
	v0.5l0.2,0.2l0.2,0.5l0.2,0.2l0.2-0.5v-0.7l0.2-0.7l0.2-0.2l0.2-0.2H47l0.2-0.2v-0.7l0.5-0.2l0.5-0.2l0.5-0.2v-0.5l-0.2-0.2L48.2,27
	h-0.2l0.5-0.5l0.5-0.2l0.2-0.5v-1l-0.2-0.7l-0.2-0.5l0.2-0.2l0.2-1l0.2-0.5h1.4l0.5,0.2l0.2,0.2l0.2-0.2l0.2,0.2v0.2h0.5l0.5,0.2
	l0.2,0.2l0.2,0.2v0.5l0.2,0.5h0.5l0.2-0.7l0.5-0.2l0.7-0.5l0.5-0.2l0.7-0.5l0.7-0.2l0.7,0.2l0.7,0.2l0.5,0.7l0.5,0.5l0.2,0.5
	l0.5,0.5l0.5,0.2l0.7,0.5l0.7,0.7l1.2,0.5l1,0.5l1,0.5l1.2,0.7h0.2v0.5h0.5l-0.2,0.2h0.2v0.2H68v-0.2h0.2v0.2h0.5v0.2h0.2v0.2h0.7
	v0.2h0.2V30h0.5v0.2h0.2v0.5h0.2l0,0H71v-0.2h0.2v-0.2h0.2v0.2h-0.2V31H71v0.2l0,0v0.2h0.2v0.2L71,32h0.2v1L71,33.2l-0.7,0.5
	l-0.5,0.5l-1,0.5l-0.5,0.5l-0.7,0.5l-0.7,0.2l-0.7,0.5l-1,0.2l-0.7,0.2L63.7,37l-0.5,0.2l-0.5,0.2l-0.2,0.2h-0.7v0.5h-0.5v0.2h-0.2
	v0.2h-0.5V39h-0.5v0.2h-0.5l-0.2,0.2v-0.2h-0.2L59,39l0,0h-0.2v-0.2h-0.2v-0.2H58v-0.2h-1l-0.2-0.2h-1l-0.2-0.2h-0.7l-0.2-0.2
	l-0.2-0.2v-0.2H52l-0.5-0.2v0.2h-1.2l-0.2-0.2h-1.9l-0.7,0.2h-1.2l-0.7,0.2h-1.4v-0.2h-1.4l-0.2,0.2l0,0l-0.2,0.2H41v0.2h-1.5v0.2
	h-0.5v0.2h-0.5v-0.2h-0.2v0.2h0.2l-0.2,0.2h-0.2l-0.2,0.2h-0.7V39h-0.5v0.2h-1v0.2h-0.5v0.2H34V40h-0.2v0.2h-0.2v0.2h-0.7v0.2h-0.5
	V41h-0.5v0.2h-0.2l-0.2,0.2h-1.6v-0.2h-0.5V41L29,40.7h-0.5l-0.2-0.2h-1L27,40.2h-0.2V40h-0.5l-0.2-0.2h-0.2v-0.3l-0.2-0.2h-0.5
	L24.9,39h-0.5v-0.2h-0.2L24,38.5h0.2v-1H24l-0.2-0.2h-0.2L23,37.5v0.2h-0.5v-0.2h-0.2v-0.2h-0.5v-0.2H22l0,0h-0.5v-0.2h0.2v-0.2
	h-0.2v0.2h-0.2L21,36.6v-0.2h-0.2v-0.2l-0.2-0.2h-0.2v-0.2h0.2v-0.2h-0.2v0.2l-0.2-0.2h-0.2v-0.2h-0.2v-0.2h-0.2v-0.2h-0.2v-0.2
	h-0.2v-0.2h-0.2V34h-0.2l-0.2-0.2v-0.3h-0.2v-0.2h0.2l0,0h-0.2v-0.5h-0.2V33h0.2v0.2L17.7,33h-0.2v-0.2h-0.2v-0.2H17l-0.2-0.2h-0.2
	V32h-0.2L16,31.8h-0.5l-0.2-0.2h-0.5v-0.2h-0.5v-0.5h0.2v-0.2l0,0l-0.2,0.2v-0.2h-0.2v-0.2l-0.2-0.2h-0.2l-0.2-0.2h-0.2v-0.2
	l-0.2-0.2l0.5-0.2v-0.5l-0.2-0.2l-0.2-0.2h-0.7l-0.2,0.2h-0.2l0,0h-0.2v0.2l0,0v-0.5h-0.2V28H11l-0.2-0.2h-0.2l0.2-0.2h-0.5V27
	l0.2-0.2h-0.2v-0.2L10,26.3H9.8v-0.2H9.1l-0.5-0.2H8.4v-0.5H8.1v0.2H7.9v0.2l-0.5-0.2l-0.5-0.2l-0.2-0.2l0.5-0.2h0.2l0.5-0.2
	l0.2-0.2l0.2-0.5v-0.2l-0.2-0.2H7.6v0.2H7.2v-0.5l0.2-0.2v-0.2l-0.2-0.2H6.9l-0.2,0.2l-0.2,0.2H6.2l-0.5-0.2l-0.2-0.2v-0.2L5.2,22
	L5,21.5L4.8,21l-0.5-0.2H3.8V21H3.3v0.2H3.1l-0.2,0.2v-0.2h0.2L2.8,21v-0.2l0,0v-0.2H2.6v-0.2l-0.2-0.2l0.2-0.2H2.3l0,0h0.2l0,0h0.5
	v0.2h0.2l0.2,0.2h0.7v-0.5l0.2-0.2h1L6,19.3v-0.2l-0.2-0.2l-0.5-0.2l-0.5-0.2H4v0.7H3.8v0.2H3.5v-0.2H3.3v0.5H3.1v-0.2H2.8v-1.4h0.7
	l0.2-0.2L4,17.4v-0.7l-0.2-0.2H3.5l-0.5,0.2l-0.5,0.2v-0.2h0.2v-0.5h0.2V16H2.8v0.2H2.6V16h0.2v-0.7H2.6v0.2H2.3v-0.2H2.1L2.3,15
	v-0.2H2.1l0,0H1.9v-0.2H1.6v-0.2l-0.2-0.2H1.1v0.2H0.9l0.2-0.2v-0.2h0.2v-0.7l0.2,0.2v-0.2l0,0v-0.2H1.4l0.2-0.2l-0.2,0.2v0.2H0.9
	v-0.5h0.2v-0.2h0.2v-0.2l0,0l0.2-0.2l0.2-0.2l0.2,0.2v0.2l0.2,0.2L2.3,12.6z M5.7,12.6v0.5l-0.2,0.2v1H5v-1.7L5.7,12.6L5.7,12.6z
	 M79.1,15.3h0.2v0.2h-0.5v0.2h-0.2V16h-1.2v-0.2h-0.2v-0.3l0.2-0.2h0.7l0.2-0.2h0.7V15.3z M78.1,16.9h-0.2l-0.2-0.2l0.2-0.2h0.5v0.5
	H78.1z M28.7,17.7v0.2H28v-0.2h-0.2v0.2H28v0.2l-0.2,0.2v0.2h-0.5v-0.5H27v-0.5h-0.2v-0.2H27v-0.2l0,0v-0.2h0.5v0.2h0.7v0.2h0.5
	L28.7,17.7z M138.4,18.1l-0.2,0.5l-0.2,0.2l-0.2,0.2h-0.2l-0.2,0.2v0.2l-0.5-0.2h-0.2v-0.5l0.2-0.5h1l0.2-0.2l0.2-0.2v-0.5h0.2
	L138.4,18.1L138.4,18.1z M75.6,17.9v0.2h0.2v0.7h-0.2v0.7h-0.2l-0.2-0.2h-0.2v-1.4l0.2-0.2h0.5L75.6,17.9z M133.4,22.2h-0.7
	l-0.2-0.2l-0.2-0.2v-1l0.2-0.2l0.2-0.5l-0.2-0.2l-0.2-0.5v-0.5l-0.2-0.2l0.2-0.2l0.5-0.2v0.5l0.2,0.2h0.2v1l0.2,0.2h0.2l0.2,0.2v1.2
	h-0.5v0.2l0.2,0.2v0.2L133.4,22.2z M140.1,20.3h0.5l0.2-0.2l0.2,0.2l0.2,0.2V21h-0.5v-0.2h-0.5l-0.2-0.2h-0.5l0.2-0.2v-0.5h0.2
	L140.1,20.3L140.1,20.3z M27.8,19.8H28v0.2h0.2L28,20.3l0,0v0.2h-0.2v-0.2l-0.2,0.2v-0.2h0.2v-0.2l0,0L27.8,19.8z M135.6,20.5h-0.7
	v-0.7l0.5,0.2h0.2V20.5z M75.8,20.5v1.9l-0.2,0.2v0.2l0.2,0.2H76v0.2h0.5l0.2,0.2v0.2H77v0.7h-0.2v0.2h-0.2v0.2h-0.2L76,25.3
	l-0.2,0.2l-0.2,0.2v0.2l-0.2,0.2l-0.2,0.2v0.2L74.8,27v0.2l-0.2,0.2v0.2h-0.2v0.5h-0.2l-0.2,0.2h-0.2v0.2h-0.7V28h0.2v-0.2h0.2v-0.3
	h0.2l0.2-0.2V27h0.2v-3.6l0.2-0.2V22h-0.2v-0.7h0.2v-0.5l0.2-0.2h1v-0.3h0.2L75.8,20.5z M101.7,27.5h1.7l0.2,0.2l0.5,0.2l0.2,0.5
	l0.2,0.2l0.5,0.5l0.2,0.2v0.5l0.2,0.7l0.2,0.5h0.2v0.2l0.2-0.2h0.5l0.2-0.2h0.5l0.2-0.2h0.5l0.2,0.2v0.7l0.2,0.2v0.5h0.2l0.2,0.2
	h0.2l0.2,0.2h0.2l0.2,0.2h1v0.2h0.7L112,33h0.2l0.2-0.2l0.2-0.2h0.3v-0.2l0.2-0.2h0.5l0.2-0.2h1l0.2,0.2v0.2h0.2l0.2,0.2l0.2,0.2
	v-0.2l0.2-0.5v-0.2l0.2-0.5v-0.2l-0.5-0.2l-0.2-0.2l-0.2-0.5l0.2-0.2h2.6l0.2,0.2h1.2l0.2-0.5v-0.2h0.7v1.2l0.2,0.2v0.2l0.5,0.5
	l0.2-0.2v0.2l0.2,0.2v-0.5l0.2,0.2v-0.2l0.2,0.2h0.2v-0.2l0.2,0.2h0.2l0.2,0.5l0.2,0.2l0.2-0.2l0.2-0.2v-0.2l-0.2-0.2h-0.5l0.2-0.2
	l0.2-0.2v-0.2l0.2-0.2h0.7v-0.2l0.2-0.2h0.2l0.2-0.2v0.2h0.2l0.2-0.2h1.4v0.2h0.2l0.2,0.5l0.2,0.2v0.2h-0.2l-0.2,0.2v0.7l0.5-0.2
	v0.5l0.2,0.2h-0.2v0.2h-0.5l-0.2-0.2h-0.7v0.2h-0.2l-0.2,0.2V33H126v-0.5h-0.7v0.2L125,33v0.2h0.2v0.5H125V34h0.5v0.2l-0.2,0.2v-0.2
	l-0.2,0.2h-0.2l-0.2,0.2V35h-0.2l-0.2,0.2h-0.2l-0.5,0.2l-0.2,0.2h0.2v0.2l0.2-0.2h1v0.5l0.2-0.2v-0.5h0.7v0.2l-0.2,0.5l0.2,0.2v0.7
	l0.2,0.2l0.2,0.7l0.5,0.5l0.5,0.2l0.2,0.2v1.4l0.2,0.2l0.5,0.5v0.2l0.2,0.2l0.2,0.2h0.2v0.2h-0.2l-0.2,0.2h-0.2l-0.5,0.2H127
	l-0.2,0.2H126l-0.2,0.2h-0.5l-0.2-0.2h-0.2l-0.2,0.5l-0.2,0.2l-0.2,0.5h-0.7l-0.2,0.2l-0.2,0.2h-0.2v0.2l-0.2,0.2v0.2h-1l-0.7,0.2
	l0.2-0.2l0.2-0.2v-0.2l0.2-0.2l0.2-0.2l0.2-0.2v-0.7l-0.2-0.5v-0.2l-0.2-0.2h-0.5l-0.2,0.2h-0.2v0.2H120l-0.2,0.2h-0.5l-0.2,0.2
	l-0.2,0.2h-0.2v-0.2H118l-0.2-0.2h-0.2v-0.2h-0.2v-0.7H117v-0.3h-0.2v-0.2l0,0l0.2-0.2v-0.2l0.2-0.2V40l-0.5-0.2h-0.2l-0.2-0.2v-0.2
	l-0.5,0.2h-0.5v-0.2l-0.2,0.2v-0.2l0.2-0.2h-0.2l-0.5,0.2l-0.2-0.5l-0.5-0.2v-0.7l-0.5,0.2l-0.5-0.2v-0.2l-0.2-0.5v1.2l0.2,0.2V39
	l0.2,0.5v0.2l-0.5,0.2h-1.9l-0.5-0.2h-0.7l-0.5-0.2h-0.5l-0.5-0.2H107l-1,0.2h-0.2v0.2h-0.2V40h-0.2v0.2h-0.5v0.2h-0.5v0.2h-1v-0.2
	h-0.2V40l-0.2-0.2V39h-0.7v0.2h-0.2v0.2h-1v-0.2h-0.5v-0.5h-0.2v-0.2H100v-0.7h-0.2v-1h0.2v-0.2h0.2v-0.2h0.2v-0.2h0.2v-0.2
	l-0.5-0.7H100l-0.2-0.2l-0.2-0.2l-0.2-0.2L98.8,34l-0.2-0.2l-0.2-0.2l-0.2-0.2h-0.2L97.4,33l-0.5-0.7L96.4,32l-0.5-0.5l-0.5-0.5
	l-0.2-0.2l-0.5-0.2h-1.2l-0.5-0.2h-0.5v-0.2h0.2v-0.2h-0.2l0,0h-0.2v-0.2h-1.4l-0.7,0.2l-0.5,0.2h-2.2l-0.7,0.2h-1.9l-0.5-0.2h-0.2
	v-0.5l0.2-0.5v-0.5l0.2-0.2l0.2-0.5l0.2-0.2l0.2-0.2l0.2-0.5h1l0.5,0.2l0.5,0.2l0.2,0.2l0.5-0.2v-0.2l0.2-0.5v-0.5l0.2-0.2l0.2-0.5
	l0.5-0.7l0.7-0.5l0.5-0.5l0.5-0.2l1-0.2l0.5-0.2l0.5-0.2l0.7-0.2l0.5-0.2l1.2-0.7l1-0.2l0.7-0.2H98l0.5,0.2l0.7,0.5l0.5,0.2l0.5,0.2
	v1.7l-0.2,0.7v0.5l0.2,0.5l0.2,0.5l0.7,0.5h0.2l0.2,0.5L101.7,27.5z M138.9,23.2v0.7l-0.2,0.5h-0.2v0.5l-0.5,0.7v0.2l-0.5,0.2
	l-0.2-0.2l-0.5-0.2l-0.2,0.2l0.5,0.2l-0.5,0.2l-0.2-0.2l-0.2,0.2l0.2,0.2L136,27h-0.2v0.2l-0.2,0.2H135l-0.2-0.2h-0.2l-0.2-0.2
	l-0.2,0.5h-0.2v-0.2l-0.2-0.2h-0.2v0.2l-0.5,0.5h-0.5v0.5l-0.2,0.2l-0.2,0.2l0.2,0.2h0.5l0.2,0.2l-0.2,0.2l-0.2,0.2h-0.7v0.2
	l-0.5,0.2l-0.5,0.2h-0.2l-0.2,0.2l-0.2-0.2h-1l-0.5,0.2v-0.2l0.2-0.5v-0.2l-0.2-0.2l-0.2-0.2h-0.5v-0.7l-0.2-0.2l0.2-0.2h0.2v-0.7
	h0.2L128,27v-0.5l-0.2-0.2l0.5-0.2v-0.2l0.2-0.2h0.2l0.2-0.2v-0.2l0.2-0.2l-0.2,0.5v0.5h-0.2v0.2l0.2,0.2l0.2,0.2V27h0.2l0.2,0.2
	l0.2,0.2h0.5l0.2-0.2l-0.2-0.5h0.2l0.5,0.5h0.2l0.5-0.2l0.2-0.5l-0.2-0.2l-0.2-0.2l-0.2-0.2v-1l0.5-0.2l0.2,0.2l0.5,0.2v-0.5h0.7
	l0.2-0.5h0.2v0.2l-0.2,0.5l-0.2,0.5h0.5l0.2,0.5l0.2-0.5l0.2-0.5v-0.5l0.5-0.2v0.2l0.2,0.2L135,25h0.2l0.5,0.2h0.7l0.2-0.2v-0.5
	l-0.2-0.7l0.2-0.2l0.2-0.5l0.2,0.2h0.5l0.5-0.5l0.5-0.2L138.9,23.2z M38.8,23.7h-0.2l0.2-0.2V23h0.2v0.5L38.8,23.7z M39.8,23.9h-0.2
	v-0.5l0.2-0.2H40v0.5L39.8,23.9z M43,24.4v0.2h-0.2v0.2l0,0v0.5l-0.2-0.2l0,0v-0.7H43z M127.4,25.4l-0.2,0.2h-0.5v-0.2h0.2l-0.2-0.2
	l0.2-0.2h0.2l0.2,0.2l0,0L127.4,25.4z M145.7,25.2v0.2l-0.2,0.2h-0.2l-0.2,0.2h-0.2l-0.2-0.2l-0.5-0.2l0.2-0.2H145.7L145.7,25.2z
	 M41,25.3L41,25.3v0.2l-0.2-0.2h-0.2v-0.2H41V25.3z M147.6,25.8v0.2h-0.7l-0.2,0.2v1h-0.5l-0.2-0.5h-0.2l-0.2,0.2v0.5l-0.2,0.2
	l-0.2-0.2v-1l0.2-0.2l0.2-0.2h0.5l0.2-0.2h0.2l0.2-0.2l0.2-0.2l0.2-0.2l0.5,0.2V25.8z M41,25.8h-0.2v0.2H41v0.5h-0.5l-0.2-0.2
	L40,26.1h-0.2v-0.2H41z M10.5,27.7L10.5,27.7z M11,28l-0.2-0.2L11,28z M127.4,32.8V33h0.5v0.2h0.2v0.5h-0.5l-0.2,0.2l-0.5,0.2
	l-0.2,0.2l0.5,0.2h-0.7v-0.2h-0.2l-0.2-0.2l0.2-0.2h0.5l0.2-0.2l-0.2-0.2l-0.2-0.2V33l0.2-0.2v-0.2h0.2L127.4,32.8z M38.6,38.1v0.2
	h-0.2v-0.2H38.6z M115.9,44.6h1v0.2h0.2v0.5h-0.2v0.2l-0.2,0.2V46l-0.2,0.2v0.2h-0.2V47h-0.2v0.2l-0.2,0.2H115l-0.2-0.2h-0.2V47
	h-0.2v-0.5h0.2v-0.2l0.2-0.2v0.2h0.5v-0.7l0,0l0.2-0.2v-0.5h0.2v-0.2L115.9,44.6z M108.7,55.4h0.2l0,0l0.2,0.2h-0.2l0,0l0.2,0.2
	h-0.2v0.2h-0.2v0.2l-0.2-0.2v-0.2h0.2C108.7,55.8,108.7,55.4,108.7,55.4z M107.9,57L107.9,57z M108.2,57.2h-0.2l0.2-0.2V57.2z
	 M104.8,62v0.2h0.2v0.2h0.2v0.7h-0.2l-0.2,0.2v0.2h-0.2V64h-0.2v0.2h-0.2v-0.5l-0.2-0.2v-0.7l0.2-0.2h0.2v-0.3h0.5L104.8,62z
	 M99.3,71.9L99.3,71.9L99.3,71.9z"/>
</svg>
