<?xml version="1.0" encoding="utf-8"?>
<!-- Generator: Adobe Illustrator 20.1.0, SVG Export Plug-In . SVG Version: 6.00 Build 0)  -->
<svg version="1.1" id="Layer_1" xmlns="http://www.w3.org/2000/svg" xmlns:xlink="http://www.w3.org/1999/xlink" x="0px" y="0px"
	 viewBox="0 0 111.9 142.1" style="enable-background:new 0 0 111.9 142.1;" xml:space="preserve">
<style type="text/css">
	.st0{fill:#C14803;}
</style>
<title>horn_of_africa</title>
<path class="st0" d="M25.5,14.1l0.5,0.7l1.4,1l1,1.2l1,0.7l0.7,0.7l1,1.2l0.7,1l0.7,1.2l0.5,1v0.5l0.5,1v1l0.2,1l0.5,1l0.7,1.2
	l0.7,1l0.7,0.7l0.5,0.7l1,0.5l0.7,0.2l1.7,0.7l0.7,0.2l0.5,0.2l0.5,0.7h0.7l0.5,0.2l0.7,0.2l0.5,0.5l0.7,0.5v0.7l0.2,0.7l-0.2,0.5
	v0.5l-0.2,0.7l-0.2,0.5l0.5,1v1.9l0.2,1.2l0.2,1.2l0.2,1l0.2,1v2.2l0.2,1.2l0.5,1l0.2,0.2l0.7,0.5l0.3,0l0.7,0.5l1,0.5l0.7,0.2
	l1.4,0.7l1.9,0.5h2.4l1.9-1l1.2-0.4l1.4-0.7h0.5l0.5-0.3l1.2-0.2l1.2-0.5l0.5-0.2l1.2-0.5l0.5-0.2h1.4l0.2-0.2l2.2-1l1.2-0.5h0.5
	l0.7-0.2l0.7-0.2l0.2-0.2h1.4l0.5,0.2h1l1-0.2l0.5-0.5h1l1.2-0.2l0.5-0.5l1.2-0.7l0.5-0.5l0.5-0.2l0.5-0.2l0.5-0.5l1-0.7l0.7-0.5
	l0.5-0.2h0.2l0.5-0.2l1.2-0.2l2.2,0.2l3.4-0.5l2.4-0.5l1-1.2l0.5-2.4l1.7-1l2.9-1.2l0.7-2.9l1.7-1.7l1.7-0.7l1.7-2.2l1-4.3l1.7-1.7
	h0.5l0.5,0.7l0.5,0.7l-0.5,0.2h-0.2l0,0h-0.5v0.2h-0.2v0.7h-0.5V25h-0.2v0.2H109v2.4h-0.2v0.7h0.2v1h0.2v0.2l0.2,0.2v0.2h-0.2v0.2
	h0.2V31h0.2v0.5h0.2v0.2h0.2L110,32h-0.5v0.2h-2.4v0.2h-1v0.2h-0.5V33h-0.2l-0.2,0.2h-0.2v0.2l-0.2,0.2V34h-0.2v1.9l-0.2,0.2v0.2
	h0.2v0.2h-0.2l-0.2,0.2h-0.2l0.2,0.2h-0.2v0.2h-0.2v0.2h-2.1v0.2h-0.2l0,0l-0.2-0.2h-0.5v0.2h-1v0.2h-0.4v0.7h-0.2V39h-0.2v0.2h-0.2
	V40h0.2v0.2h0.2v0.5h-0.2v0.5l0,0v0.2h-0.2v0.2h-0.2v0.5h-0.2v0.2h-0.5v0.2H97l0,0h-0.5l0,0h-0.7v-0.2h-0.7v-0.2h-0.2v0.2h-0.5v-0.2
	h-0.2v0.2h-1.4v0.2h-0.2v0.2h-0.5l-0.2,0.2h-0.5v0.2h-0.5v0.2h-0.2v0.2h-0.2v-0.2h-0.5v0.2h-1v0.2h-0.5l-0.2,0.2h-0.5l-0.2,0.2h-0.4
	v0.2h-0.5L86.2,45h-0.5v0.2h-0.5L85,45.5l-0.5,0.2V46l-0.2,0.2H84v0.5L83.8,47v0.7l-0.2,0.2l0.2,0.2v0.5H84v0.7l0.2,0.2L84,49.8
	h-0.5v0.2H83l-0.2,0.2h-0.2v0.2h-0.5l-0.5,0.2L81.4,51h0.2v0.2h-1v0.2h-0.2l0,0h-0.2v0.2h-0.4L79.5,52h-0.7v0.2h-1v0.2H77l-0.2,0.2
	h-1L75.5,53h-0.2l-0.2,0.2v0.2h-0.5l-0.2,0.2h-0.2l0,0h-0.2l-0.2,0.2h-0.2v-0.2H73v0.2h-0.7v0.2h-0.7l-0.2,0.2h-0.2v0.2h-0.7v0.2
	h-0.5v0.2h-0.2l-0.2,0.2v0.2h-0.2v-0.2h-0.3v0.2h-0.2v0.5h-0.2v0.5h-0.2v0.2h-0.2v0.5h-0.2v0.2h-0.2v0.2h-0.2V58h-1L66,58.2h-0.2
	l0,0h-1.2l0,0h-0.2V58h-1.2v0.2h-0.2v0.2h-0.2v0.2h-0.7V59h-0.2v0.2h-0.2l-0.2,0.2v0.2H61v0.2h-0.2l-0.2,0.2h-0.7v0.2h-0.7l-0.2,0.2
	h-0.7l-0.2,0.2l-0.2,0.2h-0.5v0.2l-0.2-0.2h-0.5v0.2H55l-0.2-0.2l-0.2,0.2h-1.9v0.2h-0.7l-0.2,0.2l-0.2,0.2l-0.2,0.2l-0.2,0.2v0.2
	L50.7,63l-0.2,0.2h-0.7l-0.2,0.2h-0.2v0.2H49v0.5l-0.2,0.2v0.2h-0.3v-0.2h0.2v-0.2h-0.2v0.2H48l0,0h-0.2v0.2H48V65h-0.2v-0.3h-0.5
	l0,0h-0.2v-0.2h-1v0.2l-0.2,0.2l-0.2,0.2h-0.5v0.2h-0.7v-0.2h-0.2v0.2h-0.2l-0.2,0.2v-0.2l-0.2,0.2h-0.2v-0.2H43v-0.2h-0.7v-0.2
	h-0.7v-0.2h-0.3v0.2l-0.2,0.2h-0.2v-1h-0.2v-0.5h-0.2v-0.2l-0.2-0.2V63h-0.2v-0.2h-0.2v-0.5l-0.2-0.2v-1l0,0v-0.2l0.2-0.2v-1h-0.2
	v-0.7h-0.2v-0.5h-0.2v-0.2h-0.2V58l-0.2-0.2l0,0V57h-0.2v-0.5l-0.2-0.2V56l-0.2-0.2l0,0h0.2v-0.7h-0.2v-0.7h-0.2v-0.5h-0.2v-0.2H37
	v-0.2h0.2v0.2l0.2,0.2v-0.7h-0.2v-0.2H37v-0.7L36.7,52h-0.5v-0.2H36V52h-0.2v-0.2h-0.2v-0.3l0.2,0.2H36v-0.5h0.2v0.2h0.2l0,0l0,0v-1
	h-0.2V50H36v-1l0.2-0.2v-0.5h0.2v-1.8h-0.2v-0.7H36V45h-0.2v-1l-0.2-0.2l0,0v-0.2h-0.2v-0.2h-0.5l0.2-0.2h-0.2v-0.7h-0.2v-0.2h-0.5
	v-0.5h-0.2l0,0l-0.2-0.2v-0.7h-0.2v-0.2h0.2v-0.2h-0.2V40h-0.2v-0.2h-0.2v-0.3h-0.2v-0.2h-0.2l0.2,0.2h-0.2V39h-0.2l-0.2-0.2h-0.2
	v-0.2h-0.2v-0.2h-0.2v-0.2h-0.7v-0.2l0,0l-0.2-0.2v-0.2H30v-0.2h-0.2l0.2-0.2h-0.2v-0.2h-0.2v-0.2h-0.2v-0.2l0.2,0.2v-0.2h-0.2v-0.2
	h-0.2v-0.2l0,0v-0.2h-0.2v-0.7h-0.2v-0.2l-0.2-0.2l0,0h-0.2l0,0L27.9,34v-0.2h-0.2v-0.3h-0.2l0.2-0.2v-0.5h-0.2v-0.2h-0.2v-1.2h-0.5
	v-0.5h-0.2l0.2-0.2l0,0l-0.2-0.2v-0.2h-0.5l0.2-0.2h-0.2v-0.7h-0.5v-0.2h-0.2v-0.2l0,0V28H25v-0.2h-0.5V28h-0.2v-0.5H24v-0.2h-0.2
	v-0.5h-0.2v-0.2H23v-0.2h-0.5v-0.2h-0.2v-0.2l0,0l-0.2-0.2h-0.5v-0.2h-0.2v-0.2h-0.2v0.2h-0.2v-0.2h-0.2v0.2l0,0l-0.2-0.2h-0.2
	l-0.2-0.2h-0.2v-0.2l-0.2-0.2h-0.2v-0.5H19v-0.2h-0.2v-0.2h-0.3v-0.5l0,0v-0.2h-0.2v-0.2H18l0.2,0.2l0,0L18,22.5h0.2v-0.2H18l0,0
	h-0.2V22h-0.2v-0.2h-0.2v-0.5h-0.2V21h-0.2v-0.5h-0.2V20h-0.2v-0.5h0.2v-1h-0.2v-0.2h-0.2v-0.7h0.2v-0.2h-0.2v0.2h-0.2v-0.5h-0.2
	v-0.2h-0.2v-0.2h0.2v0.2l0,0v-0.5l-0.2-0.2h0.2v-0.5h0.2v-0.5l0,0l-0.2,0.2V15h0.2v-0.7h0.2v-0.2h0.2l0.5-0.5l0.2-0.7v-0.2l0.5-0.7
	l0.2-0.5l0.2-0.7l0.2-0.5V8.5l-0.5-0.7l-0.2-0.2l-0.2-0.2l-0.7-0.5l-0.7-0.5l-0.2-0.2l-0.7-0.2l-0.2-0.2l-0.7-0.7L13.7,4l-0.5-0.2
	h-1L11.5,3l-0.7-0.5l-0.5-0.7L9.6,1.1l0.2-0.5l0.2-0.2h0.7l0.2,0.5l0.7,0.5l1,0.7L14,2.8l1.2,0.7l0.5,0.2l0.5,0.5l0.5,0.5l0.7,0.7
	l0.5,0.2l0.5,0.7L19,7.1l0.5,0.7l1,1.2L21,9.5h0.2l0.5,0.7l0.5,0.5l0.7,1l0.5,0.2l0.7,0.7l0.2,0.5l0.5,0.5L25.5,14.1z M46.6,58.9
	l2.4-0.2l1.4-0.2l2.6-0.2V57l-1.4-1l-2.4-1l-2.6-1.9l-1.7-1.6l-1.2-2.6l-0.5-5.5v-3.1L43,37.8v-2.2l-1-0.7h-3.3L37,33.7l-1-2.6
	l-0.2-0.2l-1-1.4l-1.2-1l-1.4-1L31,26.3l-0.5-1l-0.2-1.2l-1.2-1.4L27.6,21l-2.2-1L24,19.3l-0.7-1.7l-2.4-1v-0.5l-0.7-0.7l-1,0.7
	l0.5,3.1l0.5,1l1.2,0.2l1,0.2l1.2,0.5v1.4l1.2,2.4l1.4,1.2l1.2,0.5l2.2,1.7l2.2,1.7l1.4,0.7l1.7,2.4l1,1.7l0.5,1.7l1,1.2l1.4,0.7
	l0.5,1.2l0.5,0.5l0.2,2.2l-0.5,1.9l1,3.6l1,1.7l0.3,1.4l1,2.6v1.5l-0.5,2.4l0.5,1.9h2.6L46.6,58.9z M15.9,14.8L15.9,14.8z M15.6,15
	L15.6,15z M15.6,16L15.6,16z M15.4,16L15.4,16z M15.4,16.3L15.4,16.3h-0.2V16h0.2V16.3z M110.4,23.7L110.4,23.7z M19,23.9v-0.2l0,0
	V23.9z M18.5,25.3v-0.2l0,0V25.3z M21.4,25.3L21.4,25.3z M21.4,25.3l0.2,0.2h0.2v0.2l0,0l-0.2-0.2h-0.2V25.3L21.4,25.3z M21.6,26.8
	h0.2l0,0H21.6z M24,27.5v0.2l-0.2-0.2H24z M24,28L24,28z M24.5,28.2L24.3,28L24.5,28.2z M25,28.2L25,28.2h-0.2l0,0H25z M24.2,28.7
	L24.2,28.7L24,28.5h0.2V28.7z M25,29.2L25,29.2z M25.7,29.4L25.7,29.4z M25.4,29.7h-0.2v-0.2L25.4,29.7z M25.4,29.7L25.4,29.7z
	 M25.7,30.4L25.7,30.4z M25.7,30.4L25.7,30.4z M25.9,31.4L25.9,31.4z M26.2,31.6L26.2,31.6z M27.2,32.8L27.2,32.8z M26.9,34.3h-0.2
	V34h0.2V34.3z M26.9,34.8L26.9,34.8z M27.6,35L27.6,35z M14,36.2v0.2h-0.3v-0.2H14z M37.7,133.6v0.2h-0.2v0.2l-0.5,0.2l-0.2,0.5
	l-0.5,0.2l-0.2,0.2l-0.2,0.5l-0.2,0.2v0.2h-0.5v-0.5l0,0v0.3h-0.2l0.7-0.7l0.7-1l1.2-1.4l1.2-1.2l1.4-1.6l1-0.7l0.2-0.2v-0.2h-0.2
	v-0.7h-0.2v-0.2h-1l-0.5,0.5h-0.5v-0.2h-0.2v-0.2h-0.2v-0.7h-0.2v-1.4h-0.2v-1h-0.5v-0.5l0,0v-0.7h-0.2v-1H37v-0.2h-0.2v0.2h-0.3
	v0.5l0.2,0.2v1.2H37v0.5h0.2v0.2h0.2v1.4l0.2,0.2v0.7l0.2,0.2v0.2h0.2v0.2h0.2v0.5l-0.2,0.2l-0.2,0.2l-0.2,0.2l-0.5,0.2l-0.2-0.5
	l-0.2-0.7l-0.2-0.5l-0.5-0.2l-0.5-0.5h-1.2l-0.5,0.2l-0.5,0.2l-0.2,0.5l-0.2,0.2l-0.2,0.5v0.7l-0.2,0.7l-0.2,1l0.2,0.5v0.5l-0.2,0.5
	l-0.2,0.5l-0.2,0.5l-0.5,1l-0.5,0.7l-0.5,0.7l-0.5,0.7l-0.7,0.7l-0.5,0.5l-0.2,0.5l-0.2,0.2l-0.2,0.5l0.2,0.2v0.5h-0.5l-0.2-0.2v0.2
	l-0.5,0.5l-0.2,0.2l-0.5,0.5l-0.5,0.5h-0.2l-0.2-1v-1l-0.2-1.2l-0.5-1.2l-0.5-1l-0.2-1l-0.2-0.7l-0.5-0.5l-0.2-0.5l-0.5-0.5
	l-0.2-0.7l-0.2-0.5l-0.5-0.5l-0.2-1v-1l0.5,0.2h0.7v-0.2h0.2l-0.2-0.5l-0.2-0.5l-0.2-0.2h0.5l0.2,0.2l0.2,0.2l0.2,0.2l0.2-0.2
	l-0.2-0.2l-0.2-0.7l-0.2-0.2l-0.2-0.2v-0.7l0.2-0.2l0.2-0.5l0.2-0.2v-0.5l-0.2-0.2v-0.2l-0.2-0.2h-0.2V124h0.5l0.5,0.2h0.2l0.2,0.5
	L24,125v0.2l0.2,0.2h0.2l0.2,0.2h0.5l0.2-0.2l0.2-0.5l-0.2-0.2l-0.2-0.2v-0.2l-0.5-0.2l-0.3,0l-0.2-0.2h-0.5l-0.5-0.2h-0.2l-0.5-0.2
	h-0.5v-0.5h0.2l0.2,0.2h0.5v-0.7l-0.2-0.2v-2.6l-0.2-0.2l-0.5-0.2l-0.2,0.2l-0.2-0.2l-0.5,0.2l-0.2-0.2h-0.2l-0.2-0.2h-0.2v-2.4
	l-0.2-0.5v-0.2l-0.2-0.2h-1.2l-0.2-0.2H18v-0.2l-0.2-0.2h-0.2l-0.2-0.2l-0.5-0.2h-0.7l-0.7-0.2l-0.2-0.2l-0.2-0.5l-0.2-0.2v-0.5
	l-0.5-0.2l-0.2-0.5l-0.2-0.2l-0.5-0.5l-0.2-0.5h-0.2l-0.2-0.2l-0.2-0.5l-0.7-0.2l-0.2-0.2l-0.7-0.2l-0.7-0.2l-0.5-0.2l-0.5-0.2
	l-0.5-0.2l-0.5-0.2H7.7l-0.2-0.2H7l-0.2-0.2L6,107.2H5.8l-0.5-0.2H4.8l-0.5-0.2h-1l-0.5,0.2l-0.2-0.2v-1l0.2-0.2v-0.7l-0.2-0.5H2.4
	V104l-0.2-1.4l-0.2-0.7v-1l-0.5,0.5l-0.7,0.2l0.2-0.5v-0.5h0.5l0.5-0.5l0.2-0.7v-0.7L2.4,98v-0.5L2.7,97v-0.7l0.2-0.5l0.2-0.2v-0.2
	l0.2-0.2l0.5,0.2l0.2,0.5l0.2,0.5v1h1l0.2-0.2l0.2-0.2h0.5L6,97.1l-0.2,0.2l-0.5,0.5H4.8l-0.2,0.2l-0.5,0.2l-0.2,0.2v1.2l0.2,0.2
	h0.7v0.2l0.2,0.2v0.2l0.5,0.2v0.5l0.2,0.2v0.5h0.5l0.2-0.2l0.5-0.2l0.2-0.2l0.2-0.5l0.2-0.2l0.2,0.2l0.2,0.5l0.2,0.5l0.2,0.5v0.5
	l0.2,0.2l0.2,0.2h0.5l0.5,0.2h0.5l0.2-0.2l0.2-0.5v-0.7l-0.2-0.2l-0.2-0.2v-0.5h0.2v-0.2l0.2-0.2v-0.2l0.2-0.2V100l0.2-0.2l0.2-0.2
	v-0.2l0.5-1v-0.7l0.2-0.2l0.2-0.2l0.2-0.2h0.2v-1l0.2-0.7l0.2-0.7V93l0.2-0.7l0.2-0.5l0.2-0.2l0.7-0.5l0.7-0.2l0.5-0.2v-0.7l0.5-0.5
	l0.2-0.2l0.2-0.5l0.2-0.5l0.2-0.2l0.5-0.5l0.7-0.2l1-0.5l0.5-0.2l0.5-0.7l0.5-0.5v-1l0.5-0.2l0.5-0.2l0.5-0.2v-0.2l0.2-0.2l0.2-0.5
	l0.2-0.5V81l0.2-0.5v-0.7l0.2-0.7l0.2-0.5v-2.4L24,76v-0.2L23.8,75v-0.5L23.5,74v-0.5l0.2-0.5l0.2-0.7l-0.2-0.5l-0.7-0.5l-0.5-0.2
	l-0.2-0.2l-0.2-0.5l-0.2-1L21.6,69v-3.1l0.2-1l0.2-1v-0.7l0.2-0.7v-1.6l0.2-0.5v-0.5l0.2-0.7v-0.7L22.6,58l-0.5-0.5L21.9,57
	l-0.2-0.5L21.4,56l-0.2-0.2l-0.2-0.5h0.2l0.2-0.5l-0.2-0.2v-1l-0.2-0.5l-0.2-0.2l-0.5-0.2l-0.2-0.2V52l-0.2-0.2h-0.5L19,52h-0.2
	l-0.2-0.2l-0.2-0.5l-0.5-0.5v-0.2l-0.2-0.5l-0.2-0.2l-0.5-0.5l-0.2-0.2v-0.5l-0.2-0.5l-0.2-0.5l-0.2-0.2h-0.5l-0.2-0.2l-0.2-0.5
	v-1.5l-0.2-0.5l-0.2-0.5v-0.2l0.5-0.5l-0.2-0.2l-0.2-0.2l-0.2,0.2L14,43.1l-0.2-0.7v-1.2L13.2,40v-1L13,38.5l-0.2-0.2h-0.3l0.2-0.5
	l0.3-0.7l0.5-0.7h0.2v0.2H14v0.2h0.2v-0.2h0.2v0.5l0,0v0.2h0.2v0.2h0.2v0.5h0.2v0.2h0.2v0.2l0.2,0.2V39h0.2v0.2l0.2,0.2v0.2l0.2,0.2
	v0.2l0.2,0.2v0.5l0.2,0.2v0.7h0.2v0.7h0.2v0.5l0.2,0.2v0.5h0.2V44l-0.2-0.2V44h0.2v1H18v1.2l0,0l0.2,0.2v1h0.2V48h0.2v0.5H19v0.2
	h0.5v1h0.2v0.2h-0.2l0.2,0.2v0.2H20v-0.2h0.2v0.2h0.2v0.5h0.2v0.5h0.2v1.2h0.2l0.2,0.2h0.2v-1.3h-0.2V51l-0.2-0.2h0.2l0,0l0.2-0.2
	v-0.2l0.2,0.2h0.2v0.2l0.2,0.2h0.5v0.5h-0.2v0.2l0,0V52h0.2v0.2h0.2v0.2l0,0v0.2h0.2v0.5h0.5v0.2h0.5v-0.2h0.2l0,0l0,0V53h0.2v0.2
	h0.5V53h0.2l0,0l-0.2,0.2h0.5v0.2l0.2,0.2v-0.2h0.2l0,0H26v0.2h0.2v0.2h0.2v0.2l0,0v0.2h0.7v0.2h0.7l0.2,0.2h0.5v0.2h0.2v0.2h0.2
	v0.2h0.2v0.5h0.2v0.2h0.2v0.2l0.2,0.2h0.2V57l0.2,0.2v0.2h0.2v0.2H31V58l0.2,0.2L31,58h0.2v0.5h0.2v0.2h0.7V59h0.5l0.2,0.2v0.2h0.2
	v0.2h0.2v0.2l0.2,0.2h0.2v0.2h0.2v0.2l0,0v-0.5h-0.2v-0.3l0.2,0.2h0.2v0.2l0.2,0.2v0.5h0.2v0.5l0.2,0.2v0.5l0.2,0.2h0.5v-0.2l0,0
	v0.2H36l0,0l0.2,0.2h0.2v0.5H37v0.5l0.2,0.2L37,64.2h0.5l0,0l0.2,0.2H38l0,0h0.2V64h0.2v0.2h0.2v0.2h0.2V65h0.2v0.5h0.2v0.2h0.2v0.2
	l0.2,0.2v0.2h0.2v0.2h0.2v0.7h0.2v1.4h-0.5V69h-0.7v0.2h-0.2v0.2h-0.2v0.2h-0.5V70h-1v0.5h-0.2v0.2H37V71h-0.2l0,0h-0.5v0.5h0.5l0,0
	H37v-0.2h0.2V71h1.7v-0.3l0.2,0.2h0.2l0,0h0.2v0.2h0.2v0.2h0.5l0,0l0,0v0.2h0.2v0.2h0.2v0.2h0.5v0.7h0.2v0.2h0.2v0.5H42v0.2l0.2,0.2
	v0.2h0.2v0.2h0.2v0.2H43l0.2,0.2v0.2l0.5,0.2v0.2H44l0.2,0.2h0.2v0.2h0.5v0.2h0.2v0.2h0.2v0.2h0.5v0.2h1.9v-0.2h0.7v0.2H49v-0.2h0.2
	v-0.2h0.5v-0.2h0.5l0.2-0.2h0.2V76l0.2-0.2h0.7v-0.3h0.5v-0.2h0.2l0.2-0.2h0.2l0.2-0.2h0.5V75h0.2l-0.2-0.2h0.2V75h0.5v0.2h1V75h0.5
	v0.2H56v0.2h0.5v0.2h0.2l0.2-0.2h0.7v-0.2h0.5V75h0.5v-0.2h0.2v-0.2h0.2v-0.2l0.2,0.2v-0.2h0.2v-0.2H60v-0.2h0.2v-0.2h0.2l0.2-0.2
	H61l0.2-0.2h1.2v0.2h0.2l0.2,0.2h0.2l0.2-0.2h1.9l0.2-0.2h0.2v-0.2h0.5v-0.2h0.2v-0.2h2.2v0.2h1.7v-0.2h0.7v-0.2h1v-0.2h0.2l0.2-0.2
	H73v-0.2h0.2l0.2,0.2H74v-0.2h0.5v-0.2l0.2,0.2h0.5v-0.2h0.5v-0.2h0.5v-0.2h0.5v-0.2h0.5v-0.2h0.2v-0.7h0.2l0,0h-0.3l0,0l0.2-0.2V69
	h1v-0.2h0.2V69h0.7l0.2,0.2H80v0.2h0.2l0,0h0.2l0,0h0.7v1h-0.3V71h-0.2v0.2l-0.2,0.2l0.2,0.2h-0.2v1.4h0.5v0.5h-0.2v1l0.2,0.5v1h0.2
	v0.2h-0.2l-0.2,0.2h0.2v0.2h-0.2V77h-0.2v0.2l0.2-0.2h0.7v-0.3l0,0v-0.2h-0.2l0,0h0.2l0.2,0.2h0.7v0.5l0,0v0.2l-0.2-0.2h-0.5v-0.2
	h-0.5l-0.2,0.2h-0.5l-0.2,0.2h-0.2l-0.2,0.2v0.5h0.2v0.5h-0.2v0.2h0.2v0.7l-0.2,0.2V81l-0.2,0.2v0.5h0.2v0.7l-0.2,0.2l-0.2,0.2v0.2
	H79v0.2l-0.2,0.2H79v0.2l-0.2,0.2v0.2h-0.3v0.2h-0.2v0.2H78v0.2h-0.2v0.7h-0.2v0.5h-0.2v1h-0.2v0.2h-0.2v0.2L76.6,88v0.7h-0.2
	L76.1,89v0.2h-0.5v0.2h-0.2v0.2l-0.2,0.2l0,0l-0.2,0.2v0.7h0.2l-0.2,0.2v0.2l-0.2,0.2v0.5l-0.2,0.2v0.2l-0.2,0.2V93l-0.2,0.2
	l-0.2,0.2v0.2h-0.2V94l-0.2,0.2v0.2H73v0.2L72.8,95v0.2h-0.3v0.5h-0.2v0.5L72,96.4v0.2l-0.2,0.2v0.5h-0.2v0.7l-0.2,0.2v0.2l0.2,0.2
	L71.3,99v0.5l-0.2,0.5l-0.2,0.2v0.2h-0.2v0.5h-0.2v0.2l-0.2,0.2v0.2h-0.2l-0.2,0.5v0.2l-0.2,0.2v0.2l-0.5,0.5v0.2h-0.2v0.2l-0.5,0.5
	v0.2l-0.2,0.2l-0.2,0.2v0.2l-0.2,0.2l-0.2,0.2v0.3l-0.2,0.2v0.2l-0.2,0.2v0.2h-0.2v0.2l-0.2,0.2v0.2l-0.2,0.2v0.2l-0.2,0.2v0.2h-0.2
	l-0.2,0.2v0.2h-0.2v0.2h-0.2v0.2l-0.2,0.2h-0.2v0.2l-0.2,0.2l-0.2,0.2l-0.2,0.2v0.2h-0.2v0.2l-0.2,0.2h-0.2v0.2l-0.2,0.2h-0.2v0.2
	h-0.2v0.2h-0.2v0.2h-0.2v0.2l-0.2,0.2l-0.2,0.2l-0.2,0.2l-0.2,0.2l-0.2,0.2l-0.2,0.2v0.2l-0.2,0.2h-0.2l-0.2,0.5l-0.2,0.2l-0.2,0.2
	l-0.2,0.2l-0.2,0.2h-0.2v0.2h-0.2v0.2l-0.2,0.2h-0.2v0.2h-0.2v0.2h-0.2v0.2h-0.2v0.3h-0.2v0.2h-0.2v0.2h-0.2v0.2h-0.2v0.2h-0.2v0.2
	h-0.2v0.2h-0.2l-0.2,0.2h-0.2l-0.2,0.2h-0.2l-0.2,0.2h-0.2v0.2h-0.2l-0.2,0.2h-0.2v0.2h-0.2l-0.2,0.2h-0.2l-0.2,0.2h-0.2l-0.2,0.2
	h-0.5v0.2h-0.5v0.2h-0.2v0.2h-0.2l-0.2,0.2h-0.5v0.2h-0.2v0.2H49l-0.2,0.2l-0.2,0.2h-0.2v0.2H48l-0.2,0.2l-0.2,0.2h-0.2v0.2h-0.2
	v0.2h-0.2l-0.2,0.2l-0.2,0.2l-0.2,0.2v0.2h-0.2l-0.2,0.2h-0.2v0.2h-0.2v0.2h-0.2l-0.2,0.2l-0.2,0.2h-0.2v0.2h-0.2v0.2h-0.2v0.2h-0.2
	l-0.2,0.2v0.2H43l-0.2,0.2h-0.3l-0.2,0.5L42,129l-0.2,0.2l-0.2,0.2l-0.2,0.2L41,130l-0.2,0.2v0.2h-0.2v0.2h-0.2v0.2l-0.2,0.2h-0.2
	v0.2l-0.2,0.5h-0.2v0.2h-0.2v0.2h-0.2l-0.2,0.2l-0.2,0.2l-0.2,0.2l-0.2,0.2L37.7,133.6z M15.4,110.6l0.2-0.2v-0.5h-0.2v-0.2
	l-0.2,0.2h-0.2v0.7C14.9,110.6,15.4,110.6,15.4,110.6z M40.6,79.9l-0.2-0.5l-0.2-0.5h-0.2l-0.2-0.5h-0.2l0.5-0.2l0.5-0.2v-0.2
	l-0.2-0.2L39.9,77l-0.7-0.2h-1.2L37.7,77l-0.2,0.5v0.5l0.2,0.5l0.7,0.7l0.5,0.2l0.5,0.2v0.2l-0.2,0.2l-0.5-0.2h-1l-0.5,0.2L37,80.3
	h-0.2v-0.2h-0.5L36,80.3l-0.5,0.2H35l-0.2,0.2h-0.2v-0.2h-0.7l-0.2,0.2v-0.7l-0.5-0.2h-0.5l-0.7,0.2l-0.7,0.2l-0.7,0.2l-1,0.2
	l-1,0.2l-0.7,0.2L27,81.7l-0.5,0.5l-0.7,0.5l-0.5,0.5l-0.7,0.7l-0.5,0.7l-0.7,0.7l-0.7,0.5l-0.5,0.5l-0.5,0.2v0.2l-0.5,0.5l-0.7,0.2
	L20.1,88l-0.5,0.2h-0.5l-0.5,0.2v0.5l-0.2,0.5v0.7l-0.5,0.5l-0.2,0.2l-0.2,0.7h0.2v0.5h-0.2v0.2l-0.2,0.2l-0.5,0.7L16.5,94L16,94.5
	l-0.2,0.5v0.2l-0.2,0.5L15,96.4l-0.2,0.7l-0.5,0.5v0.2l-0.2,0.2l-0.7,0.5L13.1,99H13l-0.5,0.5v0.5l-0.2,0.7v0.5l-0.2,0.5v1.9
	l0.5,0.2l0.5,0.5v0.2l0.2,0.5l0.2,0.2H14l0.2-0.2v0.2l-0.2,0.2l-0.2,0.2l-0.5,0.2v0.2l0.2,0.2l0.2,0.5l0.2,0.7v0.5l-0.2,0.5l0.2,0.7
	h0.7l0.5-0.5l0.5-0.5v-0.5l0.2-0.5v-1l0.2-0.7l0.5-0.7l0.2-0.5l0.2-0.5l0.2-0.5l0.2-0.7l0.5-0.5l0.2-0.2v0.2l0.2,0.5v0.2l0.2,0.2
	l0.5,0.2l0.2,0.2h0.2l0.7,0.7v-0.2l0.2-0.2v0.5l0.5,0.2h1.4l0.2-0.5l0.2-0.2l0.2-0.5l-0.2-0.2l-0.5-0.2l-0.2-0.2l-0.2-0.2l0.2-0.2
	v-0.2h2.1l0.2-0.5l0.2-0.2v-0.5l-0.2-0.2h-0.5l-0.5-0.2h-0.5l-0.5,0.2h-0.5l-0.2-0.2V100h0.5l0.5,0.2h0.7L24,100v-0.2l-0.2-0.2
	l-0.2-0.2L23.3,99v-0.5l0.2-0.5l0.2-0.2v-0.2l0.2-0.2l0.2-0.2l0.2-0.5l0.2,0.2v0.5l-0.2,0.2v0.7l-0.2,0.5v0.5l0.2,0.5H25l0.7,0.2
	l0.5,0.2h1.2V100l0.2-0.5v-1.5l0.2-0.5v-0.5l0.2-0.2v-0.7l-0.2-0.5l0.2-0.2l0.2,0.2l0.5,0.2l0.5-0.2h0.5v-0.2l-0.2-0.2l-0.5-0.2
	h-0.2l-0.2-0.2l-0.2-0.2l0.5-0.2h1.7l0.2-0.5v-0.5l-0.2-0.5l-0.2-0.2L30,92.3h-1v-0.2l0.2-0.5v-1l-0.5-0.2h-1.6l-0.5-0.2l-0.2-0.2
	v-0.7l-0.2-0.5v-1.2h0.2l0.2,0.2l0.2,0.5h0.5V87l0.2,0.5h0.5l0.2-0.2h0.2l0.2-0.2l-0.2-0.2l-0.2-0.2h0.2l0.2,0.2h1.4l0.2-0.2v-0.2
	l0.2-0.5H31l0.5-0.2l0.5-0.2h1l0.5,0.2l0.2,0.2l0.2-0.2v-1.2l0.2-0.2v0.2l0.2,0.2v0.2l0.2,0.2l0.2,0.7v0.2h0.5v-2.9l0.2,0.5v0.5
	l0.2,0.5v0.5l0.2,0.2l0.2,0.2h0.2l0.2-0.2v-0.2l-0.2-0.2v-1.2l0.2,0.5l0.2,0.5v0.5l0.2,0.5l0.2,0.5v0.5l0.2-0.2H38v0.2l0.5,0.2h0.2
	v-1.2l-0.5-0.2L38,84.9l-0.2-0.2v-0.2l-0.2-0.5v-0.2l0.5,0.5l0.2,0.2l0.2,0.5l0.2,0.5l0.5,0.2l0.2,0.7l0.2,0.2h0.5l0.2-0.2v-0.5
	l-0.2-0.2l-0.5-0.2l-0.5-0.5L39,84.4l-0.2-0.5v-0.2l0.5,0.2l0.2,0.2l0.5,0.7l0.5,0.2h0.5l0.2-0.2v-0.5l-0.2-0.2v-0.5l-0.2-0.5
	l-0.2-0.2v-0.5L40.1,82v-0.5l0.2-0.5v-0.5l0.2-0.5V79.9z M14.2,36.7h-0.2l0.2-0.2V36.7z M29.1,38.3L29.1,38.3z M102.3,39.5v0.2l0,0
	V40H102v-0.2l0,0v-0.3H102.3z M103.7,39.7L103.7,39.7z M101.5,39.7V40h-0.2v-0.2L101.5,39.7z M31.7,41.9L31.7,41.9z M31.7,41.9v0.2
	l-0.2-0.2H31.7z M31.2,42.4h0.5v0.2h-0.2v-0.2H31.2z M34.1,42.4L34.1,42.4z M31,42.6L31,42.6L31,42.6z M30.5,42.9h-0.2v-0.2h0.2
	l0.2,0.2H30.5z M31.7,42.9v0.2l0,0v0.2H32v0.2h0.2v0.2L32,43.6h-0.3v-0.2h-0.2v-0.2h-0.2v-0.2h0.2l0.2-0.2L31.7,42.9z M30.7,42.9
	L30.7,42.9z M30.2,43.3H30l-0.2-0.2v-0.2H30v0.5L30.2,43.3z M31,43.1h0.2v0.2h0.2v0.5h1l0,0h-0.2v-0.2h0.2v-0.2h0.2v0.5H33v0.2
	l0.2-0.2v0.2h-0.3v0.2h0.2v0.2h-0.2l-0.2-0.2l0,0v-0.2h-1v-0.2h-0.5v-0.5H31V43.1h-0.2v-0.2H31V43.1z M30,43.1l0.2,0.2H30V43.1z
	 M34.1,43.1L34.1,43.1z M32.2,43.1v0.2l0,0V43.1z M30.7,43.3L30.7,43.3z M32.2,43.6L32.2,43.6z M34.3,43.6L34.3,43.6z M33.1,43.6
	L33.1,43.6z M31,43.8h0.2v0.2h-0.5v-0.2H31z M34.8,44.1L34.8,44.1z M31.5,44.3v-0.2l0,0V44.3z M32.5,44.3v0.2h-0.2v-0.2l0,0l0,0
	L32.5,44.3z M31.8,44.3L31.8,44.3z M33.4,44.3L33.4,44.3z M32.2,44.5L32.2,44.5z M34.2,44.5L34.2,44.5z M32.5,44.8L32.5,44.8z
	 M22.9,44.8L22.9,44.8h0.2V45h-0.2V44.8L22.9,44.8z M33.4,45.5L33.4,45.5L33.4,45.5z M36.3,45.7H36l0,0H36.3z M33.9,45.7L33.9,45.7z
	 M34.6,45.7L34.6,45.7z M33.9,45.7L33.9,45.7z M20,45.7V46h-0.3L20,45.7z M21.7,46h-0.2l0.2-0.2V46z M33.4,46.2V46l0,0V46.2z
	 M32.2,46v0.2L31.9,46H32.2z M33.4,46L33.4,46v0.2h-0.2V46H33.4z M33.9,46.2L33.9,46.2V46h0.2L33.9,46.2z M34.6,46.2L34.6,46.2
	L34.6,46.2z M20.9,46.2L20.9,46.2z M23.3,46.2L23.3,46.2z M34.8,46.2L34.8,46.2L34.8,46.2z M22.1,46.7l0.2-0.2v0.2H22.1z M34.1,46.7
	L34.1,46.7L34.1,46.7z M22.6,46.7L22.6,46.7z M23.1,46.9v0.2h-0.2v-0.2H23.1v-0.2l0.2,0.2H23.1z M22.1,46.7L22.1,46.7z M22.3,46.9
	L22.3,46.9z M19.4,46.9v0.2h0.2v0.2h-0.2V46.9C19.4,46.9,19.4,46.9,19.4,46.9z M22.5,47.2h0.2v0.2h-0.2v0.2h0.2v0.2h-0.2v-0.2h-0.4
	v-0.2h0.2v-0.2H22.5z M23,47.4L23,47.4L23,47.4L23,47.4z M23.7,47.9h-0.2v-0.2h0.2V47.9z M21.8,47.9L21.8,47.9z M22.5,47.9l-0.2,0.2
	v-0.2L22.5,47.9z M23,48.1v-0.2l0,0V48.1z M20.1,47.9L20.1,47.9z M20.4,48.1h0.2l-0.2,0.2V48.1L20.4,48.1z M23.3,48.1L23.3,48.1z
	 M25.2,48.1L25.2,48.1z M21.8,48.4L21.8,48.4z M25.2,48.4v-0.2h0.2L25.2,48.4z M24.2,48.4H24v-0.2h0.2L24.2,48.4z M22.7,48.4h-0.2
	v-0.2h0.2V48.4z M22,48.4h0.5v0.2h0.2v0.2H23v0.7h0.2v0.2h0.2v-0.2l0,0l-0.2-0.2H24v0.2h0.2v0.2l0,0v-0.2h0.2v0.5h-0.7v-0.2h-1.2
	l0,0h-0.5v-0.5h-0.2l0.2-0.2v0.5h0.7l-0.2-0.2l-0.2-0.2h-0.5v-0.2h0.5v-0.2h0.2l-0.2-0.2L22,48.4z M23,48.4L23,48.4z M24.7,48.6
	v-0.2l0,0V48.6z M24.2,48.6L24.2,48.6z M25.7,48.9v-0.2l0,0V48.9z M23.7,48.6L23.7,48.6z M23,48.6v0.2h-0.2L23,48.6z M35.5,49.1
	L35.5,49.1z M24.7,49.1L24.7,49.1z M26.1,49.1L26.1,49.1z M34.5,49.1h0.2v0.2h-0.5v-0.2L34.5,49.1z M23.3,49.6H23v-0.2h0.2V49.6z
	 M35,49.1L35,49.1z M25.7,49.3h-0.2v-0.2h0.2V49.3z M21.8,49.1L21.8,49.1z M34.1,49.6h-0.2v-0.2L34.1,49.6z M35.7,49.3v-0.2H36
	L35.7,49.3z M35.3,49.3H35l0.2-0.2V49.3z M35.7,49.6L35.7,49.6z M26.4,49.6L26.4,49.6z M25.7,49.8L25.7,49.8z M26.4,50.1L26.4,50.1z
	 M25.9,50.1L25.9,50.1z M27.3,50.1L27.3,50.1z M35.3,50.1L35.3,50.1z M31.7,50.1L31.7,50.1z M22.3,50.3L22.3,50.3z M34.5,50.5
	l-0.2-0.2l0,0h0.2V50.5z M26.4,50.3L26.4,50.3z M35,50.3L35,50.3z M26.1,50.5L26.1,50.5z M21.1,50.5L21.1,50.5z M24,50.3h0.2v0.2H24
	V50.3z M35.8,50.5l-0.2,0.2l0,0l0,0l0,0h0.2V51h-0.2l0.2,0.2l0,0l-0.2,0.2h-0.2v-0.7h0.2v-0.2L35.8,50.5z M26.2,50.8h-0.2l0.2-0.2
	V50.8z M35.8,50.8L35.8,50.8z M29,51.5v0.2l-0.2-0.2H29z M23.5,51.7L23.5,51.7z M32.9,52L32.9,52z M23.1,51.8V52h-0.2v-0.2H23.1z
	 M32.7,52L32.7,52z M22.8,52L22.8,52L22.8,52z M23.8,52v0.2h-0.2V52H23.8z M23.1,52.2L23.1,52.2z M24.3,52.2L24.3,52.2z M24.1,52.2
	L24.1,52.2L24.1,52.2z M24.1,52.5L24.1,52.5z M33.7,52.7h-0.2v-0.2h0.2V52.7z M25,52.7L25,52.7L25,52.7z M24.3,52.9H24v0.2h-0.2
	v-0.2H24v-0.2h0.2L24.3,52.9z M24.8,52.7h-0.3l0,0H24.8z M23.3,52.9v-0.2h0.2v0.2H23.3z M33.4,52.9L33.4,52.9z M25,52.9L25,52.9z
	 M37.5,53.2L37.5,53.2z M26.5,53.9v-0.2l0,0V53.9z M26.7,54.1L26.7,54.1z M27.2,54.4L27.2,54.4z M37.5,55.1h-0.2v-0.2h0.2V55.1z
	 M37.8,55.6l-0.2-0.2h0.2V55.6z M37,58.5v0.2h-0.2v-0.2h-0.3v-0.2h-0.2l0.2-0.2h0.2l0,0H37V58.5L37,58.5z M65.3,58.2L65.3,58.2z
	 M66,58.2l-0.2,0.2v-0.2H66z M32.9,58.9L32.9,58.9z M32.7,58.9L32.7,58.9z M37.2,58.9L37.2,58.9z M36.8,59.9h-0.3v-0.2h0.2v-0.2H37
	v0.2h-0.2L36.8,59.9z M37,59.7L37,59.7z M33.9,59.9v0.2l-0.2-0.2H33.9z M36.8,60.4L36.8,60.4z M34.1,60.4L34.1,60.4z M39.4,62.1
	L39.4,62.1z M36,62.5L36,62.5z M37.4,63.3l0.2,0.2h-0.2V63.3L37.4,63.3z M37.4,63.5L37.4,63.5z M37.7,63.5L37.7,63.5z M37.7,63.7
	L37.7,63.7z M37.4,63.7L37.4,63.7z M37.9,63.7L37.9,63.7l0.2,0.2h-0.2l0,0l-0.2-0.2H37.9z M38.2,63.7L38.2,63.7z M38.2,64.2h-0.2V64
	h0.2V64.2z M37.7,64.2h-0.2l0.3-0.2L37.7,64.2z M37.2,64.2L37.2,64.2z M37.9,64.2L37.9,64.2z M38.2,64.5h-0.2v-0.2L38.2,64.5z
	 M47.3,64.9H47v-0.2L47.3,64.9z M92.6,64.9h0.2l0.2,0.2l0.2,0.2h0.2l0.2,0.2h0.2v-0.2h0.2l0,0h0.2v-0.2h0.7v-0.2l0.2,0.2H96v0.2h0.7
	v0.2h0.5v0.2h0.2l0,0h-0.2v0.2H97v0.2h-1v0.2h-0.2v0.2H95v0.2l-0.2-0.2h-0.2v0.2h-1.7v-0.2h-0.5v-0.2h-0.2v-0.2h-0.2v-0.2h-0.5
	l-0.2-0.2h0.5v-0.7h0.5v-0.2L92.6,64.9L92.6,64.9z M40.6,65.2L40.6,65.2h-0.2v0.2l0,0v-0.2H40.6z M85.2,67.3h0.2v0.2h1.2v0.2h-1
	v-0.2H85v-0.2H85.2z M90,67.8h0.2l0.2,0.2H90V67.8L90,67.8z M91.4,68.1L91.4,68.1z M41,71.4L41,71.4z M40.3,71.7l0.2-0.2L40.3,71.7z
	"/>
</svg>
