<?xml version="1.0" encoding="utf-8"?>
<!-- Generator: Adobe Illustrator 20.1.0, SVG Export Plug-In . SVG Version: 6.00 Build 0)  -->
<svg version="1.1" id="Layer_1" xmlns="http://www.w3.org/2000/svg" xmlns:xlink="http://www.w3.org/1999/xlink" x="0px" y="0px"
	 viewBox="0 0 130.5 74.9" style="enable-background:new 0 0 130.5 74.9;" xml:space="preserve">
<style type="text/css">
	.st0{fill:#C14803;}
</style>
<title>iranoan-atolian</title>
<path class="st0" d="M41.3,21.8h1.4v-0.2l0.2,0.2l0.2,0.2l0.2-0.2h0.2l0.2-0.2l0.5,0.2v-0.2h1.2l0.2,0.2v0.5h0.2v1h-0.2L45.7,23v0.5
	h0.2l-0.2,0.2h-0.5V24h-0.5l-0.2,0.2L44.2,24L44,23.7l0.2-0.2H44l0.2-0.2v-0.7l0.2,0.2V23H45v-0.5h0.2v-0.2H44v0.2l-0.5-0.2H43
	l-0.2,0.2v0.2L43,23h-0.2v0.2h-0.2V23h-2.1v-0.2l-0.2-0.2v-0.2h-0.2L39.7,22h1.7V21.8z M118.3,73.1l0.2,0.2h1.2l0.2,0.5l-0.5,0.5
	H119l-0.7-0.2v0.2l-0.5,0.2h-1l-0.2-0.2l0.2-0.2l0.7-0.5l-0.5-0.5v-0.5l0.2,0.2l0.2,0.2L118.3,73.1z M94.1,9h0.2v0.2h0.2l0.2,0.2
	h0.7v0.2h0.2L96,10h0.5v0.2h0.7v0.2h0.2l0.2,0.2L98,11v0.5h-0.2l-0.2,0.2H97L96.8,12H96l-0.2-0.2h-0.2l-0.2-0.2h-0.2v-0.3L94.8,11
	v-0.2l-0.2-0.2v-0.2L94.4,10h-0.2l-0.2-0.2V9H94.1z M1.5,10L2,10.2h0.5l0.2,0.2h0.7l0.2,0.2l0.2-0.2v-0.2H3.4V10L3.2,9.8L2.9,9.5
	H2.5V9.3H2V9H1.5V8.8h0.2L2,8.6V8.3l0.2-0.2h0.2l0,0H3l0.5,0.2v0.2l0.2-0.2h0.7l0.2-0.2h0.2l0.2,0.2h0.5l0.2,0.2h0.2V8.3h0.2
	l0.2-0.2v0.2h0.2V8.1H7V7.6H6.8V7.4H7V7.1H6.5l0.2-0.2V6.6H7v0.7h0.2v0.5l0.2-0.2h0.2v1H8l0.2-0.2V8.1h0.2V7.8h0.2v0.2L9,8.3v1h0.7
	L9.9,9V8.8l0.2-0.2V8.3h0.2V8.1l0.2-0.2h0.2l0.2,0.5v0.2l-0.2,0.2v0.5h0.5V9h0.2l0.2,0.2V9H12l0.2,0.2L12.5,9V8h0.7v0.2h0.5L14,8.1
	h1v0.2h0.2v0.2H15l-0.2,0.2H14L13.7,9l-0.2,0.2v0.2h-0.2L13,9.8h0.7L14,10l0.2-0.2h0.5V10h0.5l0.2,0.2h0.2v0.2h0.5V10h1.2l0.5-0.2
	V10h0.2v0.2l0.2,0.2v1.2l0.5,0.2H19v0.2h0.2v0.2H19v0.2h0.2l0.2,0.2v0.7h-0.2v0.2H20v-0.5h0.2v-0.5h0.2l0.2-0.2H21v0.2h0.2v-0.2
	l0.2-0.2v-0.7h0.2v-0.2h0.7v-0.2l0.2-0.2v-0.2l-0.2-0.2v-0.2h0.7V10h0.2l-0.2-0.5h0.5v0.7h0.7V10h0.2l0.2-0.2H25l0.2-0.2h0.5v0.2
	h1.2V9.5l0.2,0.2V9.5l0.2,0.2h-0.2V10h1l-0.2,0.2h-0.2v0.2H27v0.2h-0.5l0.2,0.2h-0.5L26,11.2v0.5l-0.2,0.2h-0.2l-0.2,0.2H25v0.2h0.5
	v0.2l-0.2,0.2v0.2h0.2l0.2-0.2v0.2H26l0.2-0.2h0.5l0.2-0.2h1v-0.2h-0.2l0.2-0.2h1.7l0.2,0.2v0.5h0.2v-0.2h0.2v-0.2h-0.2v-0.5h0.2
	v-0.2l-0.2,0.2v-0.2h-0.2v-0.2l0.2,0.2v-0.2h0.2l0.5,0.2H31l-0.2-0.2v-0.2H31L30.8,11v0.2h-0.5V11h-0.2v-0.2h-0.5v-0.2h1v0.2h0.2
	L31,11l0.2,0.2h1l0.2,0.2h0.2v-0.3H33L32.7,11v-0.2h0.2v-0.2h0.2V11l0.2,0.2l0.2-0.2h0.7v0.2l0.2-0.2v-0.5l-0.2-0.2V10h0.2v0.2h0.5
	l0.5,0.2l0.2,0.2h0.2V11h0.2l0.2,0.2h0.7l0.2,0.2v-1.2H37V10h-0.2V9.8h-0.2l-0.2-0.2V8.8h-0.5V8.6H36V8.1h0.2V7.8h0.2l-0.2-0.2h0.2
	V7.4h0.2L37,7.1h2.2v0.5h0.2l0.2-0.2h0.5V7.1l0.2,0.2h0.2v0.5l0.2-0.2l0.2,0.2v1h-0.2l0.2,0.2l0.2-0.2l0.2-0.2H42V8.3l0.2-0.2V7.8
	h0.2V7.6h0.2V7.4L43,7.6h0.2l0.2,0.2h1V7.6l0.2-0.2V7.1H45v0.2l-0.2,0.2v0.2h-0.2v0.2h0.2L45,7.8V7.6h0.2V7.4h0.5V7.1h0.5v1h0.5V7.8
	h0.5l0.2,0.2v0.2h0.2v0.2h1l0.2-0.2h0.5l0.2-0.2l0.2-0.2V7.6h0.5v-1h0.2V6.2h-0.2L50,5.9h-0.5l-0.2,0.2H49v0.5h-0.2L49,6.9v0.2h-0.5
	V6.9h-0.2V6.6H48V6.4h0.2V6.2l0.2-0.2V5.2L48.8,5L49,4.7V4h-0.2V3.8l0,0V3.5h-0.2V3.3L48.3,3h-0.5V2.8l0.2-0.2h0.5V1.8l-0.2-0.5H48
	l-0.5,0.2l-0.5-0.2l-0.2-0.2V0.9h1.9l0.5,0.2l0.5,0.2l1-0.2l1.2-0.7l1.2,0.2l0.2,0.5v0.7L53.8,3l0.5,1.2h-0.5L53.6,4l-0.2-0.2V3.5
	l-0.2-0.2V3h-0.2V2.6h-0.7V4h0.2v0.2h0.5v0.2h0.2l0.2,0.2h0.2L53.8,5v0.2h-0.7l-0.2,0.2h-0.2l-0.2,0.2v0.5h0.2v0.5l0.2,0.2h0.2v0.2
	h2.2l0.2-0.2V6.4h0.2L56,6.2h1.2v0.2h0.2v0.2h0.2l0.2,0.2h0.2v0.2h0.2l0.2,0.2h0.2l0.2,0.2h0.2v0.2h0.2v0.2l0.2,0.2h-0.2v0.2h-1V8.3
	h-1.2l-0.2-0.2l-0.2-0.2l-0.2-0.2l-0.2-0.2V7.1H56l-0.2,0.2L56,7.6v0.5h0.2v0.5h0.2l0.2,0.2H57L57.4,9h1.4l0.2,0.2h0.2v0.2l0.2,0.2
	V10l-0.2,0.2h-0.7v0.2h-0.2V11h0.2l0.2,0.2h1v0.2h0.2v0.2h0.2V12l0.2,0.5l0.2,0.2v0.2H61v0.5h0.2v0.2h0.2v0.5h0.2v0.2H62l0.2,0.2
	l0.2,0.2V15h1.7l0.2-0.5l0.5-0.5l0.2-0.2h0.5l-0.5,0.5l-0.2,0.2l-0.2,0.2V15h0.2l0.2,0.2l0.2,0.2h0.7V16l0.2,0.2l0.2,0.2h0.2
	l0.2,0.2h0.5l0.5-0.2l0.2-0.2h0.2V16l0.5-0.2V16h1l0.7,0.2l0.5,0.2h0.2l0.5,0.5v0.2l0.5,0.5h-0.2l0.2,0.7v0.2l-0.2,0.5v0.5h-0.5
	l-0.2,0.2l-0.2,0.2l-0.2,0.2V21l0.2,0.2v0.2l0.5,0.2l0.2,0.2l0.5,0.2l0.5,0.2L73,22v-1.4l-0.2-0.2l0.2-0.5l0.2-0.2v0.5l0.5,0.5V21
	l0.5,0.5l0.2,0.5v0.2l0.7,0.7l0.7,0.5l1.4,1.4l0.2,0.5l0.2,0.2l0.2-0.2l1-0.5l0.2,0.2l0.5,0.5l0.7,0.7l1,0.5l2.2,1l1.9,0.7l0.5,0.2
	l0.5,0.5l0.2,0.5l0.5-0.5l1-0.2l2.2,0.5l2.2,0.5h2.2l0.5-0.2l1.2,0.7l1.7-1l0.5-0.7H99l0.2-0.7l0.2-0.5l0.2-0.5l0.2-0.2l0.7,0.2
	l0.5,0.2h0.5l0.5-0.2l0.5-0.2l0.2-0.2l0.5-0.5l0.5-0.2l0.2-0.5l1.2-1.2v-0.2l0.5-0.5l0.2-0.5l0.2-0.7l0.2-0.2l0.2-0.2l0.2-0.2
	l0.2-0.2V21l-0.5-0.2l-0.2,0.2l-0.2-0.5v-0.2h-0.5l-1-0.2l-1.8-0.2l-0.7-0.5H102v-0.2l-0.2-0.2v-0.2h-0.2v-0.2h-1l-0.2-0.2l-0.2-0.2
	h-0.2l-0.2-0.2l-0.2-0.2l-0.2-0.2v-1h-0.2V16h-0.2v-0.5h0.2V15h-0.2l-0.2-0.2l-0.2-0.2l0.2-0.2l0.2-0.2h1v-0.2h0.2v-0.2h0.2l0.2-0.2
	l0.2-0.2l0.2-0.2l0.2,0.2l0.2,0.2h0.2l0.2,0.2h0.2l0.2,0.2h0.7l0.2,0.2h0.8v0.2h0.5v0.2h0.2l0.2,0.2l-0.2,0.2h-0.2v0.2l0.2,0.2h0.5
	l0.2,0.2h0.2l0.2,0.2h0.2v0.2h0.2v0.2h0.5v0.2h1.4l0.2,0.2l0.2,0.2v0.2h0.2l0.2,0.5h0.2l0.2,0.2h0.3v0.2h0.5l0.2,0.2h0.2l0.2,0.2
	l0.2,0.2h0.2l0.2,0.2l0.2,0.2h0.5l0.5,0.2v0.2h0.2l0.2,0.2h0.2v-0.2h0.2l0.2,0.2h0.5v-0.2l-0.2-0.2h0.2v0.2h1.7l0.2,0.2l0.2,0.2h0.7
	v0.2h0.2l0.2,0.2h0.7l0.2,0.2h0.2l0.2,0.2l0.2,0.2l0.2,0.2h0.2l0.2,0.2h0.2l0.2,0.2h0.2v0.2h0.2V23h0.2l0.2,0.2l0.2,0.2h0.7l0.2,0.2
	h0.2l0.2,0.2l0.2,0.2h0.2v0.2h0.5l0.2,0.2h0.2v0.2l0.2,0.2l0.2,0.2h0.2l0.2,0.2l0.2,0.2l0.2,0.2h0.2v0.2l1,0.5l0.7,0.5l0.7,1
	l0.2,0.5l0.7,0.5V30l-0.5,0.2l-0.5,0.5h-0.5l-0.2,0.5l-0.2,0.2v0.2l-0.2-0.5l-0.5-0.5l-0.6-0.3l-0.2-0.5l-0.7-0.5l-0.7-0.5l-0.7-0.5
	l-0.5-0.2V28l-0.7-0.7l-0.2-0.2l-0.5-0.5h-1l-0.5,0.2l-1-0.2l-0.7-0.5l-0.7-0.2l-0.5-0.5l-1.2-0.5l-0.5-0.2l-0.6-0.2l-1.2-1
	l-1.2-0.7l-0.2-0.2l-1-0.2h-1l-0.7-0.2l-0.5-0.2h-0.7l-0.2-0.2h-0.5l-0.2,0.2l0.2,0.5l0.7,0.5l0.7,0.2l0.7,0.2l1.4,0.5l0.7,0.2
	l0.5,0.2l0.7,0.5l0.5,0.5l0.5,0.5l0.2,0.2l1,0.7l0.5,0.5l0.7,0.2l0.5,0.5l0.5,0.2l0.5,0.2l0.5,0.5l0.5,0.5v0.7l-0.5-0.2l-0.7-0.5
	l-1-0.2l-0.7-0.2h-0.5l0.2,0.5v0.2l-0.5-0.2h-2.2l-0.5-0.2H113l-0.7-0.2h-1.4l-0.7-0.2h-0.5L109,28l-0.2-0.2l0.5-0.2h0.8l0.7,0.2
	h0.7l0.7-0.2h0.5l0.7,0.2l0.7,0.2l0.5,0.2l0.5,0.2l0.2-0.2l-0.5-0.7v-1l-0.2-0.5h-1.2l-0.7-0.2l-0.7-0.5l-0.2-0.5l-0.2-0.5l-1.4-0.2
	h-0.7l-0.5-0.2v0.2l-0.5,0.5l-0.2,0.2l-0.2,0.2l-0.5,0.5l-0.2-0.7l-0.2-0.2l-0.2,0.2l-1,0.7l-0.5,0.7l-1,0.5l-1,1l-1.4,1.4l-1,0.5
	l-0.7,0.5l-1.7,1.2l-0.2,0.2l-0.5,0.5l-0.5,0.2l-0.7,0.2l-0.5,0.2l-0.5,0.2l-1,0.2l-0.7,0.2l-1.2,0.2l-1.2-0.2l-0.7,0.2l-0.2-0.5
	l-0.5-0.7v-0.2l-0.2-0.2L88,31.6l-0.7-0.2h-1l-1-1l-0.7-0.5l-0.7-0.2l-0.7-0.2l-1.2-0.2l-1-0.2h-1l-0.7,0.2L78.3,29l-0.7-0.5l-1-0.2
	l0.5,0.7l0.2,0.5L78,30l0.2,0.5l-0.7,0.5v0.5l0.2,0.5H79l0.5-0.2l0.5-0.2l0.7,0.2h1.7l0.7,0.2l0.7,0.2l0.2,0.2l-0.2,0.5l0.5,0.2h2.9
	l0.7-0.2h0.7V33h-0.2v0.7l-0.2-0.2L87.9,34l0.5,0.2v0.2h-0.5l-0.7-0.2h-2.9l-1,0.2h-1l0.2,0.5l0.5,0.2l0.2,0.5l0.5,0.2l0.5,0.2v0.2
	h-0.7l-0.2,0.2h0.5l0.2,0.5h-0.7l-0.7,0.5l-0.7,0.7l-0.2,0.5h-0.2L81.1,39l-0.2,0.5l-0.5,1L80.1,41l0.2,0.7l0.2,1.2l0.2,0.2l0.2-0.5
	l0.5-0.5l0.5-0.5l0.5-0.2l1.5-1.4l0.5-0.5l0.2-0.2L85,39l0.5-0.5h0.2v0.2l-0.2,0.5v1l0.2,0.7l0.2,0.7v1.2l0.2,0.7l0.5,0.2l0.7,0.2
	l0.7,0.5l0.2,0.2l0.5,0.2l0.5,0.2l-0.5-0.5l-0.2-0.5l0.2-0.2l0.5,0.2l0.7,0.5l0.5,0.5l0.2,0.2l1,0.5l0.7,0.5l0.7,0.5l0.2,0.5
	l0.2,0.5l1,2.4l0.2,0.5v1l0.2,0.2l0.7-0.2l0.5,0.2l0.2-0.2l0.2,0.2v0.5h-0.7l-0.2,0.2l0.2,0.5h-0.5l-0.5,0.2l-0.5,0.2v0.7l0.2,0.5
	v0.5l0.2,1V57l0.2,0.5V58l0.2,0.5l0.5,0.5l0.5,0.5h0.7l0.2,0.2v-0.2l-0.2-1v-1l0.2-0.5l-0.2-0.5L97,55.8l0.5-0.2l0.2,0.5l0.5,0.2
	h0.5l0.2,0.2l0.2,0.5v0.5L98.9,58l-0.2,0.2l0.7,0.2l1,0.2l0.5,0.2l1,0.2l0.7,1l0.5,0.2l0.7,0.5l0.2,0.2v0.2l-0.2,0.2h0.2l1,0.7
	l0.5,0.2l0.5,0.2l0.2,0.5l0.2,0.5l0.2,0.5l0.2-0.5l0.2-0.5v0.5l0.5,1V65l0.2,0.2l0.2-0.2v-0.2l0.5,0.2l0.5-0.2l0.5-0.2l0.5,0.2h0.2
	l0.2,0.2l1,1l1,0.5l0.2,0.2l0.7,0.5l0.2,0.2l0.2,0.2v-0.2l-0.2-0.2v-0.5h0.2l0.2,0.2l0.5,0.5v0.2l0.2,0.2l0.2,0.5l1,0.2v-0.2
	l0.2-0.5h0.7l0.2-0.2v-1l0.5,0.2l-0.5-1l1,1l0.7,0.5l0.7,0.2l0.7,0.5l1.2,0.2l1,0.5l0.7,0.2l0.2,0.5v0.2l-0.5,0.5l-0.2,0.5v0.7
	l-0.5,0.2l-0.2,0.2l-0.7,0.2l-0.5,0.5h-0.7l-0.5-0.2l-1,0.2v-0.5l0.7-0.2l0.5-0.5v-0.7l-0.7-0.2l-0.5-0.2l-1-0.2h-0.5l-0.5,0.2
	l0.5,0.5l0.5,0.5l-1.4,0.5l-0.4-0.5l-0.5-0.5l-0.2,0.2l-0.7,0.7h-0.5l-1-0.2h-0.5l-1.2,0.2l-0.5-0.2l-0.7-0.5l-0.5-0.5l-0.2-0.5
	h-0.2l-0.5,0.5l-0.5,0.2L108,71l-0.5,0.2l-1-1l-0.7-0.5l-0.7-0.5l-0.2-0.2v0.2l-0.2,1l-0.5-0.2h-0.5l0.2-0.5h-0.5l-0.5-0.2l-0.5,0.2
	l-0.2,0.5h0.2l-0.7,0.5l-0.5-0.2l-0.5-0.2l-0.5-0.2l-0.5-0.5l-0.2,0.2h-0.2l-0.2,0.2h-0.2l-0.2-0.2L98,69l-0.7-1L97,67.8h-0.5
	l-0.7-0.2l-1-0.5l-1-1l-1-1L92,63l-0.7-1.4H91l-1.2-1l-1.4-1l-1.7-1.2L85,57.3L84.5,57l-1-1L83,55.5l-0.2-0.2V55l-0.7-0.7l-0.2-0.5
	l-0.5-0.5l-0.7-0.7l-0.7-1l-2.4-1.4h-1.2L75.6,50l-0.7-0.5l-0.7-0.7L71.3,48l-0.7-0.5l-1.7-1l-0.2-0.2l-1.2-1l-1-1L65,42.6v-0.2
	L64.8,40v-1.9l-0.5-0.5L64,37.1l-0.2-0.5l-2.6-2.4L60,31.6v-1l-0.2-0.5l-1-0.2h-1l-0.5,0.2l-0.5-0.2l-0.2-0.7l-0.5-1l0-0.6h-1
	l-0.5-0.2h-0.7L53.6,27h-1.4l-1.2-0.7L50.5,26l-0.2-0.5L50,25.4l-0.5-0.2l0.2-0.2l-0.2-0.5v-0.5h-0.2l-0.5-0.2h-0.2l-0.5-0.2
	l-0.2-0.2V23l-0.5-0.2L47.1,23l-0.2-0.2h-0.2v-0.2h-0.2v-0.7h-0.2V21h0.2v-0.5l0.2-0.2h-0.5V20h-0.2l-0.2-0.2h-0.5L45,19.6h-0.2
	l-0.5-0.2h-0.5v-0.2h-0.2v0.2H43l-0.2-0.2h-1v-0.2h-0.5L41,18.6l-0.2,0.2h-0.5l-0.2-0.2l-0.2,0.2h-0.7v0.2h-0.5l-0.2,0.2h0.5
	l0.2,0.2h3.1l0.2,0.2h0.2v1H43V21h-1v0.2h-0.5l-0.2,0.2l-0.5-0.2h-1.6L38.9,21v-0.5h-0.2v-0.2h-0.5L38,20.1v-0.2h-0.2v-0.2h-0.5
	v-0.2h0.2l0.2-0.2l0.2-0.2v-0.2h0.2L38,18.4v0.2l-0.2-0.2H38v-0.7h-0.5v0.5h-0.2l0.2,0.2h-0.2L37,18.6h-0.7v0.2l-0.2,0.2l-0.2,0.2
	l-0.2-0.2l-0.2,0.2h-0.5v0.2l-0.2,0.2v0.2h0.2v-0.2l0.2,0.2h-0.2v0.2h-0.2l-0.5,0.5l-0.2-0.2l-0.2,0.2V21l-0.2-0.2h-0.2l0,0H33V21
	l-0.2-0.2h-0.5V21H32v-0.2L31.8,21h-1v0.2h-0.5L30,21h-0.7v0.2h-0.2l-0.2,0.2v0.2h-0.2L28.4,22v0.2h-0.2v0.2h-0.2v0.2h-0.2l-0.2,0.2
	v0.2h-0.2v0.5l-0.2,0.2h-0.2l0.2,0.2v0.5h-0.7L26,25.1l-0.2-0.2v0.2l-0.2,0.2v0.2l-0.2,0.2L25,25.6v-0.5l0.2-0.2v-0.2l0.2-0.2v-0.2
	h0.2v-0.2H26l0.2-0.2v-0.2h0.2V23h0.2l0.5-0.2l0.2-0.2l0.2-0.2l0.2-0.2l0.2-0.2l0.2-0.2v-0.2h0.2V21h-0.2v0.2h-0.2l-0.2,0.2
	l-0.2,0.2L27.4,22h-0.2L27,22.2h-0.2V22h-0.2v0.2l-0.2,0.2V22H26l-0.2,0.2h-0.2v-0.5l0.2-0.2l-0.2-0.2v-0.7l0.2-0.2v-0.5h-0.2v0.2
	h-0.2L25,20.3v-0.7l0.2,0.2v-0.2H25l0.2-0.2H25l-0.2-0.2l-0.2,0.2H24v-0.2l0.2-0.2h-0.7v-0.2h-0.2v-1h-0.2v-0.2l0.2-0.2V17h-0.2v0.2
	h-0.2v0.2h-0.2l0,0h-0.7v0.7h-0.2l0.2,0.2h-0.2v0.2h-0.2v0.2h-0.2l-0.2,0.5v0.2l-0.2-0.2l-0.2,0.2l-0.2,0.2h-0.5l-0.2,0.2v-0.5
	l0.2-0.2v-0.2l-0.2,0.2h-0.7v0.2l-0.2,0.2v-0.2h-0.2v-0.2H18l-0.2,0.5v0.2l-0.2,0.2h-0.2v-0.5h-0.5l-0.2,0.2l-0.2,0.2l0.2,0.2
	l0.2,0.2h0.2l0.2,0.2l-0.2,0.2v0.2h-0.2v0.2h-0.2V22h-0.7l-0.2,0.5h-1.2v0.2h-0.2L14,22.5v0.2h0.2V23H13v0.2l-0.2,0.2H14v0.2h-0.5
	V24h-0.2v0.2H13v0.5l-0.2,0.2h-0.2v0.2h-0.2v0.5H12v-0.2h-0.5v0.2l0.2,0.2l-0.2,0.2h-0.2l-0.2,0.2h-0.2v-0.5h-0.2v-0.3h-0.2
	l-0.2-0.2v-0.2h0.2v-0.2h0.5v-0.2h-0.5l-0.2-0.2H9.6l-0.2-0.2v-0.2H8.9v-0.2H8.7v0.2H8.2v-0.2H8l-0.2,0.2l-0.2,0.2h0.7l0.2,0.2v0.2
	H8.2L8,24.4H7.7v0.2L8,24.9v0.5l-0.2-0.2l0,0H7v-0.2H6.8v-0.2H6.5v-0.2h0.2v-0.2H6.5v-0.7H6.3l-0.2-0.2v-0.5H5.8l0,0H5.6v0.7
	l0.2,0.2v0.2l0,0L6,24.2v0.2l0,0v0.2h0.2v0.2h0.2v0.2H6.3l-0.2-0.2v-0.2l-0.2-0.2H5.6v-0.2H5.3v-0.2H5.1v-0.2H4.8v-0.2H4.4v-0.2H4.1
	V23H3.9v-0.2H3.4v-0.2l-0.2-0.2V22h0.2v-0.2H2.9V22H2.7l0,0H2.5v-0.2l0,0V21l-0.2-0.2v-0.2H2v-0.7l-0.2-0.2l-0.2-0.2l-0.2-0.2v-0.2
	H1v-0.4l-0.2-0.2v-0.5L0.5,17v-0.7h0.2V16h1v0.2L2,16v-0.5l0.2-0.2v-0.5L2,14.6H1.2v-0.7L1,13.6v-0.2l-0.2-0.2v-0.2H0.5v-0.2
	l0.2-0.2l-0.2-0.2l0.2-0.2v0.2h0.7l0.2,0.2h0.5l0.2,0.2v0.5h1l0.2,0.2h0.7l0.2-0.2v-0.5H4.1v-0.7H3.9v-0.2H3.2l0.2-0.2l-0.2-0.2
	L2.9,11H2l-0.2,0.2H1.2V11L1,10.7v-0.5h0.2L1.5,10z M70.1,19.1h0.2l0.2-0.2v-0.5l0.2-0.5v-0.5l-0.2-0.2L70.4,17h-0.7l-0.5,0.2
	l-0.5,0.2h-1.4l0.2,0.5l0.5,0.2l0.5,0.2h0.5l0.5,0.2h0.5L70.1,19.1z M79.7,28.2L80,28h0.5l0.5,0.2l0.2-0.2v-0.2l-0.5-0.2l-1.2-0.2
	L78.8,27L78,26.8L77,26l-0.5-0.5l-0.7-1l-0.5-0.5l-0.7-0.7l-0.2-0.2l-0.2,0.2l-0.2,0.2v0.2l-0.2-0.2l-0.2-0.2l0.5,1l0.5,0.5l0.7,0.5
	l0.7,0.2l0.5,0.5l0.7,0.5l0.2,0.5l0.2,0.2l0.2,0.2l0.5,0.2h0.5l0.5,0.2l0.2,0.2L79.7,28.2z"/>
</svg>
