<?xml version="1.0" encoding="utf-8"?>
<!-- Generator: Adobe Illustrator 20.1.0, SVG Export Plug-In . SVG Version: 6.00 Build 0)  -->
<svg version="1.1" id="Layer_1" xmlns="http://www.w3.org/2000/svg" xmlns:xlink="http://www.w3.org/1999/xlink" x="0px" y="0px"
	 viewBox="0 0 110 113.4" style="enable-background:new 0 0 110 113.4;" xml:space="preserve">
<style type="text/css">
	.st0{fill:#C14803;}
</style>
<title>japan</title>
<path class="st0" d="M3.7,0.4L4,0.7h0.2l0.2,0.2h0.2v0.2h0.5v0.2h0.2l0.2,0.2h0.5v0.2l0.5,0.2h0.2l0.5,0.2v0.2h0.5v0.2h0.5v0.2h0.2
	v0.2H9v0.2h0.2v0.2h0.5V4H10l0.2,0.2l0.2,0.2H11v0.2h0.5V5h0.2l0.2,0.2h0.2l0.2,0.2h0.2l0.2,0.2L13.4,6h0.5v0.2h0.5l0.2,0.2h0.2v0.2
	H15l0.5,0.2H16l0.2,0.2h0.5L17,7.4h1v0.2h1.2l0.2,0.2h0.2v0.2h0.2v0.2h0.5v0.2h1.9V8.4l0,0V8.1l0,0V7.4l0.2-0.2l-0.2-0.2V6.7h0.5
	v0.2L23,7.1v0.5l0.2,0.2v0.5l0.2,0.2v0.2h0.2v0.5H24v0.2h0.2l0.2,0.2l0.2,0.2h0.2l0.2,0.2h0.7v0.2l0,0v-0.2h-0.5v0.2h0.2l0.2,0.2
	l0.2,0.2l0.2,0.2h0.2v0.2l0.2,0.2H27l0.2,0.2v-0.2h-0.5l-0.2-0.2v0.2H27v0.2h0.7l0,0H28v0.2h0.2L28,11.9h-0.2v-0.2H28v-0.2h0.7v0.2
	h-0.5v0.5h0.2v0.2l0,0l0,0h-0.7v0.2l-0.2-0.2v0.2H27v0.2h0.5v0.2h-0.2l0,0H27l0,0l0.2,0.2v0.2H27v-0.2h-0.5l-0.2-0.2h0.2l0.2,0.2
	v-0.2h-0.5l0,0H26v0.2l0.2,0.2h0.2v0.2l-0.2-0.2h-1.4v-0.2h-0.7l-0.2,0.2h-0.2v0.5h-0.2v2.2l0.2,0.5V17h0.2v0.2l0.2,0.2h0.2v0.2
	l0.2,0.2v0.2h0.2v0.5l0.2,0.2h-0.2l-0.2-0.2h-0.2v-0.2h-0.5l-0.2-0.2h-0.2L23.2,18h-0.7l-0.2-0.2h-0.5l-0.2-0.2H21v-0.2h-0.5
	L20.3,17h-0.5v-0.2h-0.5l-0.2-0.2h-0.2v-0.2h-0.7V16h-0.5l-0.2-0.2h-0.2v-0.2h-0.7v-0.2h-1l-0.2,0.2H15V16h-0.2v0.2l-0.2,0.2v0.2
	h0.2V17h-0.5l0,0h0.2v-0.2H14l-0.2-0.2l-0.2-0.2h-0.2l0,0L13.1,16h-0.2v-0.2h-0.2l-0.2-0.2h-0.5l0,0h-0.5v0.7l0.2,0.2V17l0.2,0.2
	h0.2v0.2h0.7v0.2h0.2l0.2,0.2h1.2v0.2H15v0.2h0.2v0.2h0.5l0.2,0.2h0.2v0.2h0.7v0.2h0.5v0.2h0.2v0.2h-0.2v0.2h-0.5l-0.2-0.2h-1v-0.2
	h-0.2v0.5h-0.2v0.2l0.2,0.5h0.2v0.2h-0.2v0.2h-0.2v0.2h0.2v0.2h-0.2L15,21.5h-0.5l-0.2-0.2L14,21.1h-0.2v-0.2l-0.2-0.2v-0.2h-0.2
	v-0.5l-0.2-0.2h0.2l-0.2-0.2v-0.2h-0.2v-0.2h-0.2v-0.2h-0.2v-0.2h-0.2v-0.2h-0.2L11.6,18h-0.5l-0.2-0.2h-0.2v-0.2h-0.5L10,17.2V17
	H9.7v-0.5H9.5V16H9.2v-0.2H9v-0.2H8.8V15h0.5v-0.7h0.2v0.2h0.2v-0.7H9.5v-0.2h0.2v-0.5H9.2v-0.2H9l-0.2-0.2H8.5l-0.2-0.2H8.1v-0.2
	H7.8v-0.5h0.2v-0.2h0.2v0.2h0.5v0.2H9l0.2,0.2h0.5v0.2H10l0.2-0.2v0.2h0.2l-0.2-0.2h0.5v0.2h0.5l0.2,0.2h0.2l0.2-0.2v-0.7h-0.2v-0.2
	h-0.2v-0.2h-0.2V11H11v-0.2h-0.3v-0.2h-0.2v-0.2h-0.2V10H10V9.8H9.7V9.6H9.5V9.1H10V8.6H9.7V8.1H9.5V7.9L9.2,7.6H9V7.4H8.8L8.5,7.2
	V6.9H8.3V6.4H8.1V5.9H7.8V5.7L7.6,5.5V5.2L7.3,5L7.1,4.8L6.9,4.5L6.6,4.3L6.4,4H6.1L5.9,3.8V3.5L5.2,3.1L4.9,2.8L4.5,2.6L4,2.1H3.7
	V1.9H3.5V1.4L3.2,1.1H3V0.9h0.2v0.2h0.2V0.9l0.2,0.2V0.7H3.5V0.4H3.7z M0.6,0.9L0.6,0.9h0.2v0.2h0.2l0.2,0.2v0.2H1.1V1.4H0.9
	L0.6,1.1V0.9H0.4l0,0H0.6z M2.1,1.9h0.5l0.2,0.2L3,2.3v0.2H2.8V2.3H2.3V2.1H2L2.1,1.9z M6.9,6L6.9,6z M6.4,6.2L6.4,6.2z M25.6,10.5
	L25.6,10.5z M27.5,12L27.5,12z M28.7,12.5h-0.2v-0.2L28.7,12.5z M27.5,13.2L27.5,13.2z M27,13.7L27,13.7z M9.2,17.2v0.2h0.2v0.5
	l0.2,0.2v0.2l-0.2-0.2l-0.2-0.2H9v-0.5h0.2L9.2,17.2z M29.6,57.1v0.2h0.2v0.2h-0.7l0,0l0,0l0,0h0.2l0.2,0.2l0,0l0,0h-0.2V58h0.2v0.2
	h-0.7V58h-0.2v0.2L28.5,58v-0.2h-0.2V58H28l0.2,0.2H28L27.7,58h-0.2l0.2,0.2h-0.2l0,0h0.2v0.2l-0.2-0.2l0,0l0.2,0.2l0,0v0.2h-0.2
	l-0.2-0.2l0,0H27l-0.2-0.2v0.2h-0.2l0,0h-0.2v0.2h0.2V59H26l0,0h-0.2l0,0h-0.2v0.2h0.2v0.2h-0.2l-0.2,0.2v-0.2h-0.2l0,0h-0.5v-0.2
	L24.4,59h-0.2v-0.2h-0.5l-0.2-0.2v1h0.2v0.2h0.2V60l0,0l0.2,0.2h0.2v0.2h0.2v0.2l0.2,0.2h-0.2v0.2h0.2l0.2,0.2h0.2v0.2h-0.2v-0.2
	h-0.2l-0.2-0.2h-0.7V61h-0.5l-0.2-0.2h-0.2l0.2,0.2h-0.2v-0.2l0,0v-0.2h-0.7l0,0H22v0.2l-0.2-0.2v0.2h-0.3v-0.2h-0.2v0.2H21v-0.2
	h-0.2v0.2H21v0.5h-0.2V61h-0.2v0.2L20.3,61v-0.2h-0.5l-0.2-0.2h-0.2v0.7l0,0V61h-0.2v-0.2h-0.2v-0.2h-0.2v-0.2h-0.5v-0.5l-0.2-0.2
	h-0.2v-0.2h-0.2V59h-0.2v-0.2h0.2v-0.2h-0.5v-0.2l0.2,0.2h0.7v0.2h0.2v-0.2l0,0l0,0l0,0l0.2,0.2l0,0h0.2v-0.2h0.2v-0.2l0,0V58h-0.2
	v-0.5l0,0v-0.2h0.2V57h0.5v-0.2h-0.2v-0.2h0.2v-0.2l0,0v-0.2l0,0v-0.2h-0.2v-0.2h0.2v-1.2l0,0v-0.5h0.2v-0.2l-0.2-0.2l-0.2-0.2h-0.2
	V53h0.2v-0.2h0.7v-0.2l0,0v-0.2h0.5l0,0l0.2,0.2l-0.2-0.2h0.2l0,0H21v0.2h-0.2l0.2,0.2h0.2V53H22v-0.2h0.2v-0.2h0.2v0.2h1.4l0,0
	l0.2-0.2l0,0l0.2,0.2v-0.2l0.2,0.2v-0.2h0.5v-0.2h0.2V52h0.2v-0.2l0.2,0.2h0.2l0.2-0.2V52h0.2l-0.2-0.2h0.2V52l0.2-0.2L27,52h0.5
	v-0.2h0.2v-0.2l0,0v-0.2h0.5v0.2h0.2l0.2,0.2l0,0l0.2,0.2v0.5h0.2l0,0h0.5v0.2h0.2l0,0h0.2l0,0h0.2l0,0h-0.5v-0.2l0,0v-0.2h0.2v0.2
	h0.2l0,0h0.2l0,0l0,0v0.2h0.5v-0.2h0.2v0.2l-0.2-0.2v0.2h0.5l0,0l-0.2-0.2h-0.2v-0.2l0.2,0.2h0.2v-0.2l0.2,0.2v-0.2h-0.5l0.2-0.2
	l0,0l0,0l0.2,0.2V52l0,0l0,0l0,0v-0.2h-0.2v-0.2h-0.2v-0.2h0.2v0.2h0.2v0.2h0.2V52h0.2v-0.2h-0.2v-0.2h-0.2v-0.2h-0.2L31.3,51h-0.2
	l-0.2-0.2l-0.2-0.2h-0.2v-0.2h-0.5v-0.5h-0.2v-0.5h-0.2v-0.5l0,0v-0.5h-0.2v-0.2h0.2v-0.5l-0.2-0.2V47h-0.2v-0.5h-0.2v-0.2L28.5,46
	l-0.2-0.2v-0.2L28,45.3h-0.2v-0.2h-0.3v-0.2h-0.2L27,44.6h-0.2v-0.2h-0.2v-0.2H26v-0.2h-0.2v-0.2l0,0l-0.2-0.2l-0.2-0.2v-0.5h0.2
	v0.2h0.2v-0.2H26l-0.2-0.2H26v-0.2h1v0.2h0.2v0.2H27v0.2h0.5v0.5h-0.2v0.2h0.2v0.2H27v-0.2h-0.2v0.2H27v0.2h0.2v0.2l0.2,0.2v-0.2
	h0.2v0.2H28v-0.2h0.2v0.2h0.2v0.2h0.2v0.2H29v0.2l0.2,0.2l0,0l0.2,0.2h0.5V46h0.7l0,0h0.2l0,0h0.2v-0.2l-0.2-0.2l-0.2-0.2h0.5l0,0
	h-0.5V45h0.5l0.2-0.2h0.2v-0.2h0.2v-0.2h0.2v-0.5l0.2,0.2v-0.2h0.2v-1l0,0v-0.5h-0.2v-0.5l-0.2-0.2v-0.2h-0.2l-0.2-0.2V41h-0.2v-0.2
	h-0.3v-0.5h0.2v-0.5h0.2v-0.2l0.2,0.2h-0.2v-0.2h0.2v-0.2h-0.2v-0.5h-0.2v-0.2l-0.2-0.2h-0.2v-0.2h-0.2v-0.2h-0.2v-0.2h-0.2v-0.2
	h-0.2v-0.2l-0.2-0.2v-0.2h-0.2v-0.2h-0.2v-0.2L28.9,36l0,0v-0.5l-0.2-0.2V35h-0.2l-0.2-0.2l0,0v-0.2H28l-0.2-0.2V34h-0.3v-0.2h-0.2
	v-0.2H27v-0.2h-0.2L26.5,33v-0.2l-0.2-0.2v-0.2H26l-0.2-0.2l-0.2-0.5l-0.5-0.2l-0.2-0.2v-0.2h-0.2l-0.2-0.2l-0.2-0.2h-0.2l-0.2-0.2
	h-0.2v-0.2h-0.5v-0.2h-0.5v0.2h-0.2l0,0L22,29.7h-0.2l-0.2-0.2h-0.2v-0.2h0.5V29l-0.2-0.2v-0.2h-0.2L21,28.3L20.8,28v-0.2h-0.2
	l-0.2-0.2l-0.2-0.2h-0.2V27h-0.5v-0.2h-0.2l-0.2-0.2l-0.2-0.2h-0.2v-0.2h-0.7v-0.5l-0.2-0.2v-0.2h0.5v-0.2h0.2l-0.2-0.2v-0.5h-0.2
	l-0.2-0.5l-0.2-0.2l-0.2-0.2l0,0V23h-0.2v-0.5h0.2v0.2h0.2V23h0.2v-0.2h0.5l0.2,0.2l0.2,0.2v0.2l0.2,0.2h0.2l0.2,0.5l0.2,0.2h0.2
	v0.2h0.5v-0.5h-0.2V24l-0.2-0.2h0.2l0.2,0.2h0.2v0.2h0.5v0.2h0.5V24L21,23.7v-0.2h-0.2V23h-0.2v-0.2h-0.2v-0.2h-0.5V23h-0.2
	l-0.2-0.2V23h-0.5v0.2h-0.2V23l-0.2-0.2v-0.2h-0.2V22h-0.2v-0.7h-0.2V21h0.2l0.2,0.2h0.5l0.2,0.2h0.2v0.2h0.5l0.2,0.2H20l0.2-0.2
	l0,0h0.2v0.5h0.2v0.2l0.2,0.2l0.2,0.2v0.2l0.2,0.2l0.2,0.2v0.2H22v0.2h0.2v0.2l0.2,0.2l0.2,0.2l0.5,0.5l0.5,0.2l0.5,0.2l0.5,0.2v0.2
	h0.7v0.2h0.5v0.2h0.5l0.2,0.2h0.2l0.2,0.2h0.2v0.2h0.2l0.2,0.2H28V28h0.2l0,0l0.2,0.2h0.2l0.2,0.2l0,0v0.2h0.5V29h0.5v0.2h0.5v0.2
	h0.2v0.2h0.5V30h0.2v0.2h0.5v0.2l0.2,0.2h0.2v0.2h0.2v0.2h0.2v0.2l-0.2-0.2v-0.2h0.2v0.2H33v0.2h0.5v0.5l0,0l0.2,0.2v-0.2H34v0.2
	l0,0v0.2h0.2v0.2h0.2v0.2h0.2l0,0h-0.2l0.2,0.2h0.5v0.2L35,33.1v0.2h0.2v0.2l0.2,0.2l0,0V34h0.2l0.2,0.2h-0.2l0,0h-0.2V34l0,0v0.2
	h0.2v0.2h0.2l0,0h-0.5v-0.2h-0.2v0.2h0.5v0.2h0.2V35h0.5l0,0h-0.7l0,0h0.2v0.2h0.2v0.2h0.2v0.2h0.2V36l0,0l0.2,0.2h-0.2l0,0h0.5
	l0.2,0.2v0.2h0.2v0.2h0.2l-0.2-0.2h0.2v0.2h0.2l0,0h-0.2l0.2,0.2h0.2v0.2l0,0v0.2h0.2l0,0l0.2-0.2v0.2l0,0l0.2,0.2h0.2v0.2H39v-0.2
	h-0.5v-0.2h-0.2L38,37.4l0,0h-0.5l-0.2,0.2l0,0h-0.5l0.2,0.2l0.2,0.2l0,0l0,0v0.2h0.2v0.2l0,0l0.2,0.2l0,0l0.2,0.2l0.2,0.2l0,0
	l0.2,0.2l0,0h0.2v0.2L39,40h0.2v0.2h0.5v0.2H40v0.2h0.2v-0.2H40l0.2,0.2h0.2V41h0.2l0.2,0.2h0.2l0.2,0.2v0.2h0.2l0.2,0.2l0.2,0.2
	h0.2v0.2l0.2,0.2l0.2,0.2h0.2v0.2h0.2v0.2h0.2l0.2,0.2l0.2,0.2l0.2,0.2l0.2,0.2l0.2,0.2l0.2,0.2h0.2v0.2H45v0.5h0.2v0.2h0.2V46
	l0.2,0.2l0.2,0.2v0.2h0.2V47h0.2v0.2l0.2,0.2v0.2h0.2V48h0.2l0.2,0.2v0.2h0.2v0.2l0.2,0.2h0.2l0.2,0.2l0.5,0.5h0.2l0.2,0.2h0.2v0.2
	h0.2l0.2,0.2h0.2l0.2,0.2l0,0l0,0l0.5,0.2l0.5,0.2l0.2,0.2H52l0.2,0.2h0.2v0.2l-0.2-0.2L52,51.8h-0.5v0.5h0.2v0.5L52,53l0.2,0.2v0.2
	h0.2l0.2,0.2H53V54h0.2v0.2l0.2,0.2v0.2h-0.2v0.2L53,54.7h-0.3v0.2h0.2v0.2h-0.2v0.2h0.2v0.2h0.2v0.2h-0.7v-0.2h-0.2v-0.2L52,55.2
	h-0.2v-0.2h-0.3v-0.2h-0.2L51,54.4v-0.2l-0.2-0.2h-0.2l-0.2-0.2l0,0v-0.2l0,0v-0.2H50v-0.5l0.2,0.2H50v-0.5l0,0v-0.2h-0.2L49.3,52
	h-0.2v-0.2h-0.5V52l0,0l0,0h-0.2v-0.2l0,0V52l-0.2-0.2V52h0.2l0,0h-0.2l0,0l0.2,0.2l0,0l0.2,0.2h0.2v0.2l0,0v-0.2l0,0l-0.2,0.2l0,0
	V53h0.5v0.2l0,0v0.2h0.2v0.2h0.2V54h0.2l-0.2-0.2h0.2V54h0.5v0.2l0,0v0.2h0.2v0.2h-0.2v-0.2h-0.2v-0.2h-0.5V54h-0.2v-0.2h-1.2V54
	h-0.2v0.2l0.2,0.2l0.2,0.2l0,0v0.2h0.2v0.2h0.2v0.2h0.2v0.2h0.5v0.2h0.2v0.5h0.2v0.5l0.2,0.2h0.2v0.2h-0.2l0,0h-0.2l0.2,0.2h-0.2
	v-0.2h-0.5v-0.2h-0.5v-0.2l-0.2-0.2l-0.2-0.2h-0.2v-0.2h-0.2v-0.2h-0.2v-0.2h-0.2v-0.2h-0.2v-0.2h0.2v0.2h0.2v-0.2l-0.2-0.2h-0.2
	l-0.2-0.2h-1v0.7h0.2l0,0h0.2v0.2h-0.2v0.2l0,0v0.2h0.2v0.2l0.2,0.2h-0.2v0.2h0.2v0.2l0.2,0.2h0.2v0.2h-0.2v-0.2h-0.7L46,57.1h-0.5
	v0.2h-0.2l0,0L45,57.1h-1.2l-0.5,0.2h-0.2v0.2h-0.7l-0.2-0.2v-0.2l0.2,0.2l0,0v-0.2h0.5v-0.2l0,0v0.2h0.2l-0.2-0.2l0,0v-0.2h-0.5
	v-0.2h-0.5v0.2h-0.7v-0.2h-0.5v-0.2h-0.2v-0.2h-0.2l0.2,0.2l0.2,0.2v0.2h0.2l0.5,0.2v0.2l-0.2-0.2h-0.5v-0.2h-0.2v-0.2h-0.2v-0.2H40
	l-0.2-0.2l-0.2-0.2l-0.2-0.2v-0.2l0,0L39,54.9l0,0l0,0v0.2l-0.2-0.2l0,0v0.2h-0.2l-0.2-0.2l0.2,0.2l0,0v0.5h0.2l0.2,0.2v0.2l0.2,0.2
	v0.5h0.2v0.2H40v0.2l0.2,0.2l0,0h0.5l0.2,0.2h0.5V58h0.2l0,0h0.5v0.2h0.2L42.1,58h0.2v0.2h0.2l0,0h0.2v0.2h0.2v0.2h-0.2l0,0h0.2V59
	h0.2l0.2,0.2l0,0v0.2l-0.2-0.2h-0.2V59l0.2,0.2V59h-0.2v0.2L42.9,59h-0.2l0,0h-0.2v-0.2h-0.2V59h0.2v0.2h-0.2l0,0l0,0v0.2l-0.2-0.2
	l0.2,0.2h-0.2l0,0h-0.2l0,0h-0.2v0.2h0.2V60h0.2v0.2h-0.2l0,0h0.2v0.2h0.5l-0.2,0.2h0.2l0,0h-0.2l0,0h-0.2v0.2h0.2v-0.2h0.2v0.5
	l-0.2-0.2v0.2l0,0v0.2l0.2,0.2l0.2,0.2v0.2l0.2,0.2v0.2l0,0l0.2,0.2l0,0v0.7l0,0l-0.2-0.2h-1l0,0l-0.2-0.2h-0.5l-0.2-0.2h-0.2v-0.2
	h-0.5v-0.2H40v-0.2l0.2,0.2v-0.2h-0.5v-0.2h-0.3l0,0H39v-0.2h-0.5l-0.2-0.2H38v-0.2h-0.5v-0.2h-0.2v-0.5h-0.2l-0.2-0.2h-0.2V60h0.2
	v-0.2h-0.5v-0.2h-0.5v-0.2h-0.2L35.4,59h0.5v-1h-0.2v-0.2h-0.2v-0.2l0,0v-0.2h-0.2V57h-0.5l0,0h-0.2v-0.2H34v0.5h-1L32.8,57h-0.2
	l-0.2-0.2h-0.5v-0.2h-1.7l0.2,0.2h-0.2l-0.2-0.2v0.2h-0.2V57.1z M11.6,21.3l-0.2-0.2h0.2V21.3z M12.4,23.7L12.4,23.7z M25.6,33.3
	L25.6,33.3z M36.4,35.2h-0.2V35l0,0v0.2L36.4,35.2z M28.7,37.2h0.2l0,0H28.7z M38.3,37.4L38.3,37.4z M37.3,37.9L37.3,37.9z
	 M26.7,37.9v0.2l0.2,0.2h0.2v0.2h0.2v0.2l0.2,0.2l0,0l0.2,0.2h0.2v-0.2h0.2v0.2h0.2v0.2l0.2,0.2l0.2,0.2v0.5h-0.2v0.2h-0.2v-0.2l0,0
	v-0.2h-0.2L28.2,40v-0.2H28v-0.2h-0.2v0.2h-0.3v-0.2h-0.2v-0.2H27v-0.5h-0.2v-0.5l0,0v-0.2h-0.2v-0.2L26.7,37.9z M39.7,38.1h-0.5
	v-0.2l0.2,0.2H39.7z M39,38.1h-0.2l0,0H39z M39.3,38.1l0.2,0.2h-0.2V38.1L39.3,38.1z M22.9,40.5L22.9,40.5z M27.7,44.1l0.2,0.2h-0.5
	l-0.2-0.2h0.2l0,0H27.7z M16.7,48.4H17v0.2h0.5v0.2h0.2v0.2l-0.2-0.2v0.2h0.2l0,0h-0.2v0.2l-0.2-0.2H17l-0.2-0.2h-0.2v-0.5
	L16.7,48.4z M16.7,49.4H17v0.2l0.2,0.2H17l-0.2-0.2v0.2l0,0v-0.2l0,0V49.4L16.7,49.4z M17,49.4v0.2h0.5v0.2h-0.2v-0.2H17V49.4z
	 M17.2,49.9l0.2,0.2h-0.2V49.9z M48.6,52L48.6,52z M48.6,52.2L48.6,52.2z M50.1,52.2L50.1,52.2z M48.9,52.5L48.9,52.5z M49.1,52.7
	L49.1,52.7z M48.9,53L48.9,53z M39,55.2L39,55.2z M52.2,56.8v0.2H52l-0.2-0.2h-0.3v-0.2h-0.2v-0.2h0.2v0.2h0.2l0.2,0.2H52.2z
	 M15.7,56.4v0.2l0,0V56.4z M29.9,56.8L29.9,56.8z M29.9,56.8L29.9,56.8z M32.3,56.8L32.3,56.8z M29.9,56.8L29.9,56.8z M29.6,57.1
	v-0.2l0.2,0.2H29.6z M9,57.1h0.5v0.2H9.2l0.2,0.2h0.2v0.2H10v0.5l0.2,0.2L10,58.3v0.2h0.5v0.2l-0.2-0.2v0.2h0.5V59h-0.2v-0.2h-0.2
	l0,0H10l0,0h0.2l0,0H10l-0.2-0.2l-0.2-0.2l0,0V58H9.2v-0.2H9v-0.2H8.8v-0.2H9V57.1L9,57.1L9,57.1L9,57.1z M32.5,57.1L32.5,57.1z
	 M30.1,57.1L30.1,57.1z M29.9,57.1L29.9,57.1z M31.1,57.1L31.1,57.1z M34,57.1L34,57.1z M31.3,57.1L31.3,57.1z M31.1,57.1v0.2h-0.2
	v-0.2H31.1z M31.3,57.3h-0.2l0,0H31.3z M29.9,57.3L29.9,57.3z M34,58v0.5h0.2l0.2,0.2h0.2V59H35v0.2l0,0v0.5h-0.5v-0.2h-0.2l0,0H34
	v-0.2h-0.2v-0.7h-0.3v-1h0.2v0.2H34V58z M30.9,57.8h0.2l0.2,0.2l0.2,0.2h-0.2V58h-0.3v0.2l0.2,0.2h-0.2v-0.2h-0.2V58h-0.5l0,0h0.2
	v-0.2H30.9z M42.2,57.8V58l0,0V57.8L42.2,57.8z M52.5,58L52.5,58z M18.4,58L18.4,58z M18.6,58L18.6,58z M29.9,58L29.9,58z M42.4,58
	L42.4,58z M30.1,58h0.2v0.2h-0.2V58L30.1,58z M30.6,58.2L30.4,58h0.2L30.6,58.2z M30.4,58L30.4,58z M29.9,58v0.2l0,0L29.6,58H29.9z
	 M27.7,58v0.2l0,0V58z M52.9,58.2L52.7,58L52.9,58.2z M30.4,58.5L30.4,58.5z M28,58.3L28,58.3z M53.7,59l-0.2-0.2h-0.2v-0.2h-0.2
	v-0.2h0.2v0.2h0.2L53.7,59z M29.2,58.3L29.2,58.3z M29.4,58.5L29.4,58.5z M30.9,58.5L30.9,58.5z M28.9,58.5L28.9,58.5L28.9,58.5z
	 M30.6,58.8v-0.2l0,0V58.8z M26.8,58.5H27v0.2h-0.2L26.8,58.5z M31.1,58.8h0.2V59l0,0v-0.2h0.2l0,0h0.2V59l0.2,0.2h0.7v0.2h1l0,0H34
	v0.2h0.2l0.2,0.2l0,0v0.2h0.2v0.2H35v0.2h0.5v0.2h0.5v0.2l0.2,0.2h-0.3l0,0h0.5l0,0h0.2v0.2h-0.2v0.2l0,0v0.2l0,0v0.2h-0.2l0,0h-0.2
	l0.2,0.2v0.5h0.2v0.5l0.2,0.2V64h0.2v0.2l0.2,0.2l0.2,0.2l-0.2-0.2h-0.2v-0.2h-0.5V64h-0.5v-0.2h-0.5v-0.2h-0.5v-0.2H34V63h-0.7v0.2
	L33,63.5l0,0h-0.2v0.2H33l-0.2-0.2H33v0.2h-0.2V64h-0.2l0,0h0.2v0.2l0,0l0.2,0.2l0,0v0.2h0.2V65h0.2l0,0h-0.2v0.2h0.2v0.5h-0.2V66
	h0.2v0.2h0.2v0.2H34v0.2l0,0v0.2h0.5v0.2h0.2v0.2h-0.2v-0.2h-1.2v-0.2H33v0.2h-0.2v-0.2l-0.2-0.2l0,0l0,0h0.2v-0.2h-1v-0.2l0,0v0.2
	l-0.2-0.2l0,0v0.2h-0.2v-0.2h-0.2V66h0.2v0.2l0,0V66h-0.5v-0.2h-0.2l0,0h-0.2l0,0h0.2v-0.2h-0.2v-0.2h-0.5V65l0,0l-0.2-0.2l0,0h0.2
	V65h0.2v-0.2h-0.2v-0.2h-0.5l0.2-0.2h-0.7V64h-0.2v-0.2h-0.2v-0.2h-0.2l0,0L28,63.3v0.2h-0.2v0.2h-0.3l0.2,0.2h-0.2v-0.2L27.3,64
	v-0.2h0.2l-0.2-0.2h0.2v-0.2h0.2v-0.2H28v-0.2h-0.2v-0.2H28l0.2-0.2v-0.2L28,61.9l-0.2-0.2l-0.2-0.2l-0.2-0.2h0.2l-0.2-0.2v-0.2l0,0
	v-0.2h0.2v-0.2h-0.2L27,60l0,0h0.2l0.2,0.2l0,0h0.2v0.2h0.5v0.2h0.2v0.2h0.5v0.2l0,0l0.2-0.2l0,0h0.2v-0.2h0.7l0,0l0.2,0.2l0.2-0.2
	h-0.2v-0.2h0.2l-0.2-0.2V60h-0.2v-0.2h-0.2l-0.2-0.2h-0.5v-0.2h0.2v0.2h0.5v-0.7l0,0V59h0.2v-0.2h-0.2l0,0h0.2l0,0L31.1,58.8
	L31.1,58.8l-0.2,0l0,0l0,0v-0.2h0.2L31.1,58.8z M28.5,58.5v0.2h-0.2v-0.2H28.5z M29.2,58.8v-0.2l0,0V58.8z M29.4,58.5L29.4,58.5
	L29.4,58.5z M29.4,58.5h0.2v0.2L29.4,58.5z M26.8,58.5L26.8,58.5z M27.3,58.8L27.3,58.8z M27.5,58.8L27.5,58.8z M29.7,58.8
	L29.7,58.8z M26.8,58.8H27V59h0.5v0.2h-0.2V59h-0.5L26.8,58.8z M26.8,59v-0.2l0,0V59z M27.5,59L27.5,59z M10.7,59l-0.2-0.2h0.2V59z
	 M28.9,59L28.9,59z M28.2,58.8L28.2,58.8z M28.5,59L28.5,59z M24.1,59l-0.2-0.2h0.2V59z M53.4,59h-0.2v-0.2L53.4,59z M26.8,59h0.5
	v0.2h-0.5V59L26.8,59z M9.8,59H10l0.2,0.2V59l0.2,0.2V59l0,0l0,0h0.2v0.5H11v0.2l0,0l0.2,0.2v0.2H11l0,0L10.7,60l-0.2-0.2l-0.2-0.2
	v-0.2H10V59H9.8z M29.5,59L29.5,59z M24.2,59L24.2,59z M26.3,59L26.3,59z M10.7,59L10.7,59z M26.5,59L26.5,59z M23.7,59.5v-0.2h-0.2
	V59h0.2V59.5z M28.7,59L28.7,59z M10.7,59h0.2v0.2h-0.2L10.7,59z M26.5,59l0.2,0.2H27v0.2l0,0v0.2h-0.2v-0.5h-0.2L26.5,59z
	 M26.3,59.2L26.3,59.2H26V59L26.3,59.2z M35.4,59L35.4,59z M35.2,59.2h-0.2l0,0H35.2z M24.4,59.2l0.2,0.2l0.2,0.2l0.2,0.2h-0.2v-0.2
	h-0.2l-0.2-0.2h-0.2v-0.2l0,0l0.2,0.2l0,0V59.2L24.4,59.2L24.1,59L24.4,59.2z M35.4,59.2L35.4,59.2z M27.5,59.2h0.2l0,0H27.5z
	 M29.4,59.2L29.4,59.2z M26.3,59.2l0.2,0.2H26v-0.2l0.2,0.2V59.2z M27.5,59.2L27.5,59.2z M27.5,59.5h-0.2v-0.2h0.2V59.5z M26.3,59.2
	L26.3,59.2z M27.7,59.5h-0.2v-0.2L27.7,59.5z M53.9,59.5L53.9,59.5v0.2h-0.2v-0.2H53.9z M27.2,59.5h0.2v0.2h-0.2V59.5L27.2,59.5z
	 M33.9,59.5l0.2,0.2H34L33.9,59.5z M25.8,59.7h-0.2v-0.2h0.2V59.7z M25.5,59.7L25.5,59.7L25.5,59.7z M25.1,59.7L25.1,59.7V60h0.5
	l0,0l0.2,0.2l0,0L25.5,60v0.2h-0.5V60l0,0V59.7L25.1,59.7z M23.9,59.7L23.9,59.7z M26.5,59.7V60l-0.2-0.2H26.5z M27.5,59.7h0.2v0.5
	h-0.2V60l-0.2-0.2l0.2,0.2L27.5,59.7C27.5,59.7,27.5,59.7,27.5,59.7z M26.8,59.7L26.8,59.7z M26.3,59.7L26.3,59.7z M28.5,59.7
	L28.5,59.7z M35.2,60L35.2,60z M24.4,59.7h0.2V60l0,0v-0.2H24.4z M25.4,60L25.4,60z M24.9,60L24.9,60z M26.3,60L26.3,60z M29.9,60
	L29.9,60z M56.3,60.2v0.2h-0.2l-0.2-0.2V60h0.2v0.2H56.3z M27.5,60L27.5,60z M17.9,60v0.2l0,0V60z M25.9,60.4l-0.2-0.2h0.2V60.4z
	 M22.5,60.4L22.5,60.4z M25.4,60.4L25.4,60.4z M22.5,60.7L22.5,60.7l-0.2-0.2h0.2V60.7z M25.6,60.7h-0.2v-0.2L25.6,60.7z M26.6,60.7
	L26.6,60.7v0.2l0,0V60.7z M22.1,60.7L22.1,60.7z M37.2,60.7L37.2,60.7z M25.4,60.7L25.4,60.7z M26.4,60.7v0.2l-0.2-0.2H26.4z
	 M26.2,60.7L26.2,60.7z M23.3,60.7l0.2,0.2v0.2l-0.2-0.2l0,0V60.7z M27.1,60.9h-0.2v-0.2L27.1,60.9z M26.9,60.9L26.9,60.9z
	 M25.7,60.9L25.7,60.9z M25.2,60.9h0.2l0.2,0.2h0.2v-0.2h0.2v0.2h-0.2v0.2l0,0v-0.2h-0.2v0.2h-0.2l-0.2-0.2H25v-0.2H25.2z
	 M19.2,61.2v0.2l0,0v-0.5l0.2,0.2h0.2v-0.2h0.2v0.2l0.2,0.2v0.2h0.5v0.2h0.2v0.2H21v0.2h0.5v0.2h0.7l0,0l0.2,0.2h1v-0.5h0.7v0.2h0.2
	v0.2h0.5v0.2h0.2v0.2h0.2v0.2l0.2,0.2h-0.2V64h-0.5l0.2,0.2h0.2v0.2h1l0,0h0.2v0.2h0.2v-0.2h0.5v0.2l0,0V65l0.2,0.2H28v0.2h0.5l0,0
	l0.2,0.2h-0.2V66h0.2v0.2h0.7v0.2l0,0v0.2l0,0v0.2h0.2v-0.2l0.2,0.2h-0.2v0.2h-0.2v-0.2l0.2,0.2h-0.2l0,0h0.2v0.2l0.2,0.2h-0.2v0.2
	h0.2v0.2h-0.2v-0.2h-0.2l0.2,0.2l0.2,0.2l0,0h0.2v0.2l0,0v0.2h0.2v0.5h0.2v0.2l0.2,0.2V70h0.2v0.2l0.2,0.2v0.2l0.2,0.2l-0.2-0.2
	l0.2,0.2l0,0v0.2l0.2,0.2l0.2,0.2v0.2h0.2v0.2h0.5v0.2l0.2,0.2v0.2h0.2v0.5h0.2v0.2l0,0v0.2h0.2v0.2H34v0.5l0,0v-0.2h-0.5l-0.2-0.2
	h-0.5l-0.2-0.2v0.5l0.2,0.2h0.5V75h0.2v0.2h-0.2l0.2,0.2v0.2h-0.2V76H33l-0.2,0.2l0,0l0,0h-0.2v-0.7h-0.2v-0.2H32v-0.5h-0.2v-0.2
	h-0.2v-0.2h-0.2l-0.2-0.2h-0.2l-0.2-0.2l-0.2-0.2h-0.5v-0.2h-0.2v-0.2h0.5v0.2h0.2v0.2h0.2v-0.2h-0.2v-0.5h-0.2v-0.2h-1l0.2,0.2v0.5
	h0.2v0.5h0.2v0.2h0.2v0.2h0.2l0.2,0.2h0.2v0.2H31l0.2,0.2h0.2l0.2,0.2l0,0v0.2h-0.7v-0.2h-0.2V75h-1.4v-0.2h-0.5l0.2-0.2h-0.5v-0.2
	h-0.5v-0.2h0.2l0,0h0.2v0.2h0.2v-0.5l-0.2-0.2l-0.2-0.2v-0.2h-0.2v-0.2h-0.5v-0.2h-0.2l-0.2-0.2H27l-0.2-0.2l0,0H27l-0.2-0.2h-0.2
	v-0.2h-0.2v-0.2L26,71.2h-0.2V71h-0.2v-0.2h-0.2v-0.2h0.5l0,0l0,0V70l0,0v-0.2h-0.2v-0.2l0.2,0.2l-0.2-0.2h0.2l0,0h-0.2v-0.2h-0.2
	v-0.7h-0.2l-0.2-0.2v-0.2l0,0v-0.2h-0.7l0,0h-0.2v-0.2h0.2v-0.2l0,0l-0.2-0.2v-0.2h-0.5v-0.2h-0.5v-0.2h-0.5v-0.2h-0.2v-0.2h-0.5
	v-0.5h-0.5v-0.2h-0.5l0,0L20.5,65h-0.2v-0.2h-0.2l0.2,0.2l0,0v0.5l-0.2-0.2v0.2h0.2l0.2,0.2h0.2V66h0.5v0.7h0.2v0.2h0.2v-0.2h0.7
	v0.2h0.2l0.2,0.2v0.2h0.2v0.5l-0.2-0.2v0.2l0,0v0.2l-0.2-0.2h-0.2v-0.2h-0.2v-0.2h0.2l-0.2-0.2H22v-0.2h-0.2v0.2l-0.2-0.2v0.2H21
	l0.2,0.2v0.7H21v-0.5l0,0l-0.2-0.2l0,0h-0.2v-0.2H20v-0.2h-0.5l-0.2-0.2l-0.2-0.2h-0.2v-0.2h-0.2V66l-0.2-0.2v-0.2h0.2v0.2h0.2V66
	l0,0v-0.2l0.2,0.2h0.2v0.2h0.2l0,0l0,0v0.2h0.2v0.2h0.5l0,0h0.5v0.2H21v-0.2h-0.5v-0.2H20V66h-0.2v-0.2h-0.7l-0.2-0.2l0.2,0.2
	l-0.2-0.2l0,0v0.2h-0.2v-0.2h-0.2v-0.2h-0.2V65h-0.2l0.2,0.2v0.2l-0.2-0.2l0,0V65h-0.2l-0.2-0.2l0,0h-0.5v-0.2l0,0l-0.2-0.2h-0.2V64
	h0.2l0,0h0.7v0.2h0.5v0.2l0,0v-0.2h-0.2V64h-0.2v-0.2l0,0l0,0l0.2,0.2l-0.2-0.2h-0.2v-0.2h-0.5v-0.2h0.2v0.2h0.2l-0.2-0.2l0,0h-0.2
	V63h0.5l0.2,0.2l0,0h0.2v0.2h0.2v-0.2h0.2V63h-0.2v-0.2h-0.2l0,0l0,0v-0.5l0.2,0.2h0.2v0.2h0.7v-0.2h-0.2v-0.2h-0.2v0.2h-0.2v-0.2
	h0.2v-0.5h-0.2l-0.2-0.2v-0.5h0.2v0.2h0.2v-0.5h0.2v0.2l0,0v-0.2h0.2v0.2L19.2,61.2z M25.7,60.9L25.7,60.9z M25,60.9L25,60.9z
	 M36,60.9L36,60.9z M26.6,60.9v0.2h-0.2v-0.2H26.6z M27.3,61.2v0.2l0,0V61.2L27.3,61.2z M26.3,61.2L26.3,61.2z M17.5,61.2L17.5,61.2
	L17.5,61.2z M36.7,61.2L36.7,61.2z M57.8,61.4h-0.3v-0.2l0,0L57.8,61.4z M24.7,61.2L24.7,61.2z M24.7,61.4L24.7,61.4z M16,61.4
	L16,61.4z M24.7,61.4L24.7,61.4z M36.2,61.4L36.2,61.4z M36.9,61.4L36.9,61.4z M14.6,61.4h0.2v0.2H15l0.2,0.2l0,0l0.2,0.2H15
	l-0.2-0.2l0,0h-0.2L14.6,61.4L14.6,61.4L14.6,61.4z M24.9,61.4h0.2v0.5h-0.2v-0.2l0,0V61.4z M25.9,61.6l0.2,0.2h-0.2V61.6L25.9,61.6
	z M24.9,61.9h-0.2v-0.2L24.9,61.9z M25.9,62.1h-0.2v-0.2h0.2V62.1z M24,62.1L24,62.1z M18,62.4L18,62.4z M36.5,62.6L36.5,62.6z
	 M18.5,62.6L18.5,62.6L18.5,62.6z M16.5,62.8L16.5,62.8z M16.3,62.8L16.3,62.8L16.3,62.8z M17.5,62.8L17.5,62.8z M16.8,63.1
	L16.8,63.1L16.8,63.1z M17.5,63.1L17.5,63.1z M15.8,63.3v0.2l-0.2-0.2l0,0H15.8z M43.2,63.3h0.2v0.2h-0.3L43.2,63.3z M17,63.6v0.2
	h-0.3v-0.2H17z M16.8,63.6L16.8,63.6z M15.8,63.6L15.8,63.6L15.8,63.6z M15.8,64l-0.2-0.2v-0.2l0,0v0.2h0.2V64z M16.8,63.8
	L16.8,63.8z M16.1,63.8h0.2V64h0.2v0.2l0,0v0.2h0.2V65h-0.5l0,0h0.2v-0.2h-0.2v-0.2l0,0v-0.2H16V64h0.2v-0.2L16.1,63.8z M28.5,64
	L28.5,64z M15,64.5h-0.2l0,0H15z M14.8,64.5L14.8,64.5z M30.1,64.8L30.1,64.8z M29.4,64.8V65l0,0V64.8z M14.8,64.8H15V65h-0.2
	L14.8,64.8z M15.5,65h-0.2l0,0H15.5z M14.8,65L14.8,65z M29.2,65h0.2l0,0H29.2z M16,65.7v0.2h0.7v0.2h-0.2v0.2h0.2v0.5l0,0v-0.2
	h-0.2v-0.2h-0.2v-0.2h-0.5V66l0.2,0.2L15.8,66l0.2,0.2V66h-0.2v-0.2l0,0v-0.2h-0.3v-0.2L15.2,65h0.2v0.2h0.2v0.2L16,65.7L16,65.7
	L16,65.7z M63.3,65.7H63v-0.2h-0.5l-0.2-0.2V65l0.2,0.2H63v0.5L63.3,65.7z M29.6,65L29.6,65z M17.4,65.2L17.4,65.2z M62.3,65.2
	L62.3,65.2z M30.1,65.5L30.1,65.5z M29.9,65.5h-0.2l0.2-0.2V65.5z M18.1,65.7L18.1,65.7L18.1,65.7L18.1,65.7L18.1,65.7z M16.7,66
	L16.7,66z M17.2,66L17.2,66z M16.5,66L16.5,66z M28.7,66L28.7,66z M29.4,66.2L29.4,66.2z M15.7,66.2L15.7,66.2z M31.3,66.2
	L31.3,66.2z M18.6,66.2h0.2v0.2h-0.2V66.2z M16,66.4l-0.2-0.2H16V66.4z M16,66.2v0.2h0.5v0.2h-0.2L16,66.4h0.2l0,0H16V66.2z
	 M18.9,66.4L18.9,66.4z M16,66.4L16,66.4z M18.9,66.7L18.9,66.7z M16.2,66.7v0.2l0,0V66.7H16l0,0H16.2z M16,66.7v0.2h0.2v0.2H16
	v-0.2h-0.2l0,0H16L16,66.7z M16,67.2h0.2v0.2h0.2v0.2H17v0.2h-0.3v0.2h-0.2v-0.2l-0.2,0.2l0,0H16v-0.2h-0.2v-0.2l0.2,0.2l-0.2-0.2
	h-0.3v-0.2l0,0l-0.2-0.2h0.2v0.2h0.2v-0.2H16L16,67.2h-0.2v-0.2L16,67.2z M17,67.2v0.2l-0.2-0.2l0,0H17z M21.3,67.4L21.3,67.4z
	 M32.6,67.2h0.2v0.2h-0.2V67.2z M30.2,67.4L30.2,67.4z M20.8,67.6h-0.2v-0.2L20.8,67.6z M16.8,67.4L16.8,67.4z M20.8,67.6L20.8,67.6
	z M15.8,67.9L15.8,67.9z M29.8,67.6L29.8,67.6z M20.9,67.9v-0.2l0,0V67.9z M24,67.9h0.2v0.2l0.2,0.2h-0.2v-0.2H24V67.9z M29.8,67.9
	L29.8,67.9z M24.5,68.1h-0.2v-0.2h0.2V68.1z M24.5,68.3v-0.2l0,0V68.3z M17.5,68.1L17.5,68.1z M21.3,68.3L21.3,68.3z M22.8,68.3
	L22.8,68.3z M23.2,68.3h0.2v0.2h0.2v0.2H24v0.2h0.2v0.2h0.2v0.2h-0.2l0,0h0.2v0.2l-0.2-0.2v0.2h0.2V70h-0.2l0,0l0,0l0,0H24v-0.2
	h-0.2v-0.2l0.2,0.2l-0.2-0.2H24l0,0h-0.7V69H23v-0.5h-0.3v-0.2L23.2,68.3L23.2,68.3z M24.4,68.3l0.2,0.2v0.2h0.2v0.2l-0.2-0.2
	l0.2,0.2v0.2l-0.2-0.2H24v-0.2l0,0v-0.5h0.2v0.2h0.2V68.3z M66.2,68.8L66,68.6h0.2V68.8z M25.2,69.3v-0.2l0,0V69.3z M24.2,69.3
	L24.2,69.3L24.2,69.3z M24.7,69.3L24.7,69.3z M24.9,69.3L24.9,69.3z M24.7,69.3L24.7,69.3z M24.9,69.3h0.2v0.2h-0.2V69.3z
	 M24.9,69.5h-0.2v-0.2L24.9,69.5z M24.9,69.5v0.2h-0.2v-0.2H24.9z M24.7,69.8L24.7,69.8z M24.9,70l-0.2-0.2L24.9,70z M24.7,70h0.2
	v0.2h0.2v0.2h0.2v0.2h-0.2v-0.2h-0.2v-0.2h-0.2V70L24.7,70L24.7,70z M24.4,70.3L24.4,70.3z M24.2,70.3L24.2,70.3z M17.7,71.3
	L17.7,71.3z M25.2,72h0.5v0.2h-0.2V72H25.2L25.2,72h-0.2v-0.2L25.2,72z M25.4,72.2v0.2l-0.2-0.2H25.4z M25.2,72.2v0.2h0.2v0.5h0.2
	v0.2h-0.2l-0.2-0.2l0,0v-0.2h0.2v-0.2h-0.2V72.2z M33.8,73.7v0.2l-0.2-0.2H33.8z M29,74.7L29,74.7z M26.6,75.4L26.6,75.4z
	 M30.4,77.5h-0.2v-0.2h0.2V77.5z M35.4,77.3v0.2h0.2v0.2h0.2V78h0.2v0.5h0.2v0.2h0.2V79l0,0v0.5h0.2v0.2h0.2l0,0l-0.2,0.2h-0.2
	l-0.2-0.2v-0.2h-0.2l0,0h0.2l-0.2-0.2v-0.5l-0.2-0.2l-0.2-0.2V78h-0.2V77.3z M32.6,77.5L32.6,77.5z M32.3,77.5v0.2h-0.2v-0.2H32.3z
	 M35,78v-0.2l0,0V78z M79.1,79.2L79.1,79.2z M33,79.2h0.2l0.2,0.2H33V79.2L33,79.2z M34.4,79.2l0.2,0.2h0.5v0.2h0.5l0.2,0.2v0.5l0,0
	v0.2h-0.2v-0.2h-0.5l-0.2-0.2h-0.2v-0.2h-0.2v-0.5h0.2L34.4,79.2z M34.4,82h-0.2v-0.2h0.2V82z M33,82.3L33,82.3z M34.2,82.3h0.2
	l0.2,0.2h0.2v0.2h-0.2l-0.2-0.2L34.2,82.3z M33.7,83.5L33.7,83.5z M34.7,83.5H35v0.2h-0.3L34.7,83.5z M35.2,84.7H35v-0.2h0.2V84.7z
	 M35,86.3h-0.3v-0.2l0,0v0.2H35z M35.2,87.8L35.2,87.8z M40,89.7l0.2,0.2H40v0.5h-0.2v0.2l0,0v0.2l0,0l0.2,0.2h-0.2v0.2H40v0.2h-0.2
	v-0.2h-0.5v-0.2H39l0,0h-0.2v-0.2l-0.2,0.2v-0.2l0,0l0,0h0.2v-0.2h-0.2v-0.2h0.2l0,0H39v-0.2l0,0V90l0.2,0.2l0,0l0,0v-0.5h0.2v0.2
	h0.2v-0.2l0.2,0.2h-0.2v-0.2h-0.2v-0.2h0.2v0.2H40z M41.9,90.4v0.2h-0.2v-0.2l0,0v-0.2h0.2V90.4z M38.6,90.7L38.6,90.7z M38.8,91.2
	H39v0.2h0.2l0,0h0.2v0.2H40v0.2l-0.2-0.2v0.2h-0.3l0,0l-0.2-0.2v-0.2h-0.5L38.8,91.2z M38.8,91.4l0.2,0.2h-0.2V91.4z M39.3,92.1
	L39.3,92.1z M39.8,92.1L39.8,92.1h-0.3v-0.2L39.8,92.1z M38.8,92.8H39l0.2,0.2h0.2v0.2h0.2l0.2,0.2V94h-0.2v-0.2h-0.5v-0.5H39V93
	h-0.2V92.8z M101.2,93.8L101.2,93.8z M101.6,94.3L101.6,94.3z M39.7,95.3v0.2l-0.2,0.2h-0.2v-0.2l0,0l0.2-0.2H39.7z M103.8,96.8
	L103.8,96.8z M104,96.8h0.2V97H104V96.8z M104.3,97h0.2v0.2h-0.2V97L104.3,97z M37.8,97.5v-0.2l0,0V97.5z M40.2,97.2v0.2H40v-0.2
	H40.2z M104.5,97.5l-0.2-0.2L104.5,97.5z M38.3,98H38v-0.2h0.2V98z M40.2,98.4h0.2v0.2h0.2v0.5h0.2l-0.2,0.2h-0.2v0.2l0.2,0.2h-0.5
	l0.2,0.2h-0.2v0.5l-0.2-0.2h-0.2v0.2H40l0.2,0.2l0.2,0.2h0.2v0.2h-0.2l-0.2-0.2v0.7h0.5v0.5h-0.2v0.2l-0.2-0.2V102H40v-0.2l0,0
	l-0.2-0.2l0,0v-0.2H40V101h-0.2l-0.2-0.2l-0.2-0.2l0,0l0.2-0.2V100h0.2v-0.2H40l-0.2-0.2h-0.5v-0.2H39V99h0.5v0.2h0.7L40,99.1v-0.5
	l0,0v-0.5h0.2L40.2,98.4z M38.3,98.9h0.2v0.2h-0.2V98.9L38.3,98.9z M105.7,99.2h0.3v0.2h0.2l0.2,0.2l-0.2-0.2H106v-0.2H105.7z
	 M39.7,99.4h-0.2v-0.2L39.7,99.4z M36.4,99.6v0.2h-0.2v-0.2H36.4z M106.9,99.9L106.9,99.9z M106.7,99.9L106.7,99.9z M40.7,100.9
	L40.7,100.9z M34.9,100.9h0.2v0.1h0.2v0.2l-0.2-0.2h-0.5v-0.2L34.9,100.9z M40.7,100.9v0.1l-0.2-0.2L40.7,100.9z M36.8,100.9v0.1
	l-0.2-0.2L36.8,100.9z M35.6,100.9v0.1h-0.2v-0.2L35.6,100.9z M40.9,101.6L40.9,101.6z M38,101.6L38,101.6z M38.5,102.1l-0.2-0.2
	v-0.2l0.2,0.2V102.1z M37.8,101.8L37.8,101.8z M38.8,101.8L38.8,101.8z M38.3,101.8L38.3,101.8z M38.3,101.8L38.3,101.8z
	 M38.1,102.1l-0.2-0.2h0.2V102.1z M41.2,102.1H41l0.2-0.2V102.1z M58,103.1h0.2v0.2H58V103.1z M22.2,103.3L22.2,103.3z M26.6,103.3
	L26.6,103.3z M58.2,103.8H58v-0.2h0.2V103.8z M22,103.9L22,103.9z M107.7,105.8h-0.2l0,0H107.7z M33.3,108.4L33.3,108.4z
	 M33.3,108.4h0.2v0.2H34v0.2l0.2,0.2h0.5l0.2,0.2h-1v-0.2h-0.2v-0.5h-0.3v-0.2L33.3,108.4z M33.5,108.9h-0.2l-0.2-0.2h0.2
	L33.5,108.9z M33.3,108.9L33.3,108.9z M110.6,109.2h-0.2v-0.2h0.2V109.2z M31.4,109.4l-0.2-0.2h0.2V109.4z M31.8,109.9h-0.2v-0.2
	h0.2V109.9z M29.9,110.1h0.2v0.7h0.2v0.2l0.2,0.2h-0.2v0.2h-0.2v-0.2h-0.2v-0.2h-0.5v-0.2l0,0v-0.2l0.2,0.2h0.2v-0.2h0.2v-0.2h-0.2
	V110.1z M63.3,110.8L63.3,110.8z M28.3,110.8L28.3,110.8z M24.2,110.8L24.2,110.8z M28,111.1h0.7v0.2h0.5l-0.2,0.2h0.2v0.2h-1l0,0
	H28v-0.2l0,0l0,0h0.2l0.2,0.2l-0.2-0.2v-0.2H28L28,111.1h0.2l0,0H28L28,111.1L28,111.1z M28.3,111.3L28.3,111.3z M29.5,111.5h-0.2
	v-0.2h0.2V111.5z M173.2,111.8L173.2,111.8z M113.5,112L113.5,112z M29.7,112L29.7,112z M29.7,112L29.7,112z M29.7,112L29.7,112z
	 M29.5,113h-0.2l0.2-0.2V113z"/>
</svg>
