<?xml version="1.0" encoding="utf-8"?>
<!-- Generator: Adobe Illustrator 20.1.0, SVG Export Plug-In . SVG Version: 6.00 Build 0)  -->
<svg version="1.1" id="Layer_1" xmlns="http://www.w3.org/2000/svg" xmlns:xlink="http://www.w3.org/1999/xlink" x="0px" y="0px"
	 viewBox="0 0 117.2 115.2" style="enable-background:new 0 0 117.2 115.2;" xml:space="preserve">
<style type="text/css">
	.st0{fill:#C14803;}
</style>
<title>madagascar</title>
<path class="st0" d="M88.7,0.4L88.7,0.4z M88.7,2.8L88.7,2.8z M89.7,3h-0.2v0L89.7,3z M88.7,2.8V3h0.2v0.2h-0.2V3h-0.2V2.8L88.7,3
	V2.8z M89.7,3L89.7,3z M89.5,3.3h-0.2V3h0.2V3.3z M89.7,3.3L89.7,3.3z M88.5,3.3L88.5,3.3z M86.3,3.5L86.3,3.5z M86.3,4h-0.2V3.7
	h0.2V4z M87.3,4.7h0.2v0.7h0.2v0.2h-0.3V5.4h-0.2V5.2l0,0V4.9H87V4.7l0,0V4.4h0.2L87.3,4.7L87.3,4.7z M90,4.5L90,4.5z M87.6,4.7
	L87.6,4.7z M76,7.3L76,7.3z M76,9L76,9z M75.3,10.2L75.3,10.2z M77.7,10.2L77.7,10.2z M75.8,10.7L75.8,10.7z M74.3,13.1L74.3,13.1z
	 M90.6,18.1h-0.2l0.2-0.2v-0.2l0,0V18.1z M72.4,18.1h-0.2v-0.2h0.2V18.1z M62.5,28.9L62.5,28.9z M38.1,29.4h0.5v0.2l-0.2-0.2l0,0
	H38.1z M37.8,29.4L37.8,29.4z M37.6,29.4v0.2h-0.2v-0.2H37.6z M39,29.4v0.5h-1l-0.2,0.2h-0.2v-0.2h-0.2v-0.2l0.2,0.2h1v-0.2h0.2
	v-0.2H39L39,29.4z M37.6,29.6L37.6,29.6z M62.3,30.3L62.3,30.3z M62.3,30.6L62.3,30.6z M38.8,31.6L38.8,31.6z M44.8,31.6L44.8,31.6z
	 M44.5,31.6L44.5,31.6z M45.3,33.3v0.2H45v-0.2H45.3z M62.8,33.5H63l-0.2,0.2L62.8,33.5L62.8,33.5L62.8,33.5z M62.8,34L62.8,34z
	 M90.6,35l-0.2-0.2V35H90.6z M90.9,35.5l-0.2-0.2h0.2V35.5z M21.7,40l0.2,0.2v1.7l0.2,0.2v0.5l0.2,0.2h-0.2v0.2H22v-0.2h-0.2v-0.2
	h-0.5v-0.2H21v-0.5l0.2-0.2v-1.2l0.2-0.2h0.2L21.7,40z M42.1,41.2L42.1,41.2L42.1,41.2z M22.2,84.2h0.2v-0.7l0.2-0.2v-1L22.5,82l0,0
	v-0.5h-0.2v-0.2L22,81l0.2,0.2V81H22l0.2-0.2H22V80l0,0v-0.2l0,0v-0.2h0.2v-0.5L22,78.9v-0.7l0,0l-0.2-0.2v-0.2l-0.2-0.2V76l0.2-0.2
	h-0.3v-1.2h0.2v-1H22v-0.2h-0.5v-0.5l0,0v-0.7h0.2v-0.2l0.2-0.2v-0.2l0,0l0,0h0.2v-0.2h0.2v-0.5h0.2v-0.5h0.2l0,0l0.2-0.2v-0.2h0.2
	v-0.2h0.2V69h0.2v-0.2l0.2-0.2l0,0l0.2-0.2h0.2v-0.5l-0.2-0.2l0.2-0.2l0,0h0.2v-0.5l0,0l-0.2-0.2v-0.5h0.2v-0.7h0.5l0,0h0.7l0.2,0.2
	l0.2-0.2v0.2H27v-0.2h0.5v-0.2h0.2l0.2-0.2h0.2v-0.2h0.2v-0.2h0.2l0.2-0.2h0.2v1h0.2V65h0.2l0,0l0,0v-0.3l0,0v-0.2h0.2l0.2-0.2h0.5
	v0.2l0,0v0.2l-0.2,0.2l0.2-0.2l0,0v0.2h0.2v-0.7h0.2v-0.5l0,0v-0.2h0.2v-0.2h0.2v0.2H32l0.2-0.2l0,0h0.5v0.5h0.5v-0.2l0,0l0.2-0.2
	h-0.2v0.2H33l0.2-0.2V63h1v0.5l0,0V64h0.2v0.5l0,0v-0.2h0.2v0.2l0,0v-0.2H35v0.2l0,0v-0.2h0.2v0.2h0.2v-0.2h-0.2V64l0.2,0.2v0.2h0.2
	l-0.2-0.2V64h-0.2v-0.2H35v-0.3h-0.3v-0.2h0.2V63h-0.5l0.2-0.2v-0.2h0.2v-0.2h0.2v-0.2h0.2v-0.2h0.2l0,0h0.2l0.2-0.2h0.2v-0.2h0.2
	l0,0l0,0v-0.2h0.5v-0.2h0.2v-0.2h0.2l0.2-0.2h0.5v0.5h0.2v0.2l0,0v0.2h-0.2l-0.2,0.2v0.5l0,0v-0.2h0.2v0.5l0.2-0.2v-0.2h0.2v-0.2
	h0.7v-0.2h-0.2v-0.2H39l0.2-0.2h-0.5v-0.2l0,0v-0.5l0.2-0.2l0,0l0.2-0.2h0.2v-0.2h0.2v-0.2H40v-0.2h0.2v-0.2l0,0v0.2l0.2-0.2h0.2
	v-0.2h-0.2v0.2h-0.2v-0.5l0.2-0.2l0.5-0.2l0.2-0.2v0.2l0,0v0.5h0.2l-0.2,0.2v0.2H41v0.2l-0.2,0.2v0.5h-0.2l0.2,0.2v-0.2H41l0.2-0.2
	v-0.2h0.2l-0.2,0.2l0.2-0.2v-0.2l0.2-0.2v-0.2h0.2V58h0.2l0.2-0.2l0,0v-0.3h0.2v-1l0,0v-0.2l0,0v-0.5l0.2-0.2h0.2l-0.2-0.2h0.2v-0.2
	h0.2v0.2h0.5v-0.2l0.2-0.2h-0.2v-0.5h0.2v0.2h0.2v0.2h-0.2v0.7l0,0l0,0l0,0v-0.2h0.2v-0.2l0,0v-0.2l0,0l0.2-0.2v-0.5l0,0l-0.2,0.2
	l-0.2-0.2l-0.2-0.2h0.7v-0.2h-0.3l0,0h-0.2v-0.2h-0.2v-1h0.2l0,0h-0.2v-0.2h0.2v-0.5h0.2V52l0,0v-0.2l0,0v-0.3h0.2v0.2h0.2v-0.2H45
	V52l0,0v-0.2h0.2v0.7h0.2v0.2h-0.2l0,0h0.2V53H46l0,0l0.2-0.2l0,0v-0.2l0,0V52l0,0v-0.2l0,0v-0.3h0.2v0.2h0.2v-0.2h0.5l0,0l0,0v-0.7
	h0.2V51h1v-0.2h0.2v-0.2h0.2l-0.2-0.2h0.2V50l0,0v-0.2l0,0v-0.2l0,0v-0.2h0.2v-0.5h0.2v-0.2h0.2v-0.2h0.2v-1l0,0v-0.2l0,0v-0.2h-0.2
	v-0.5h0.2v-0.2h-0.2l0,0l-0.2,0.2l0,0V46l0,0l-0.2-0.2l0,0l0,0v-0.3h0.5v0.2h0.2V46h0.2v-0.5h0.2V45l0.2,0.2V45H51v-0.2h0.2v-0.5
	h0.2v-0.2H51v-0.2h0.5l0,0l0.2,0.2v-0.2h-0.2v-0.2l0,0l0.2-0.2v-0.2H52v0.2h0.2v0.5h0.2v0.2h-0.2v0.2h0.2v0.2h-0.2v-0.2H52l0,0h-0.2
	v0.2H52v0.2h-0.2l0,0h-0.3V45h0.2l0.2-0.2V45h0.2v-0.5h0.2V45h0.2v0.2h0.5v0.5l-0.2-0.2v0.2l0,0V46h0.2v-0.2l0.2,0.2v0.2h-0.2V47
	h0.2v0.2h0.2v0.5l0,0v-0.2h0.2l0,0h0.2v0.7h0.2v0.2h0.2v0.5h0.2v0.2l-0.2,0.2v0.5h0.2l-0.2,0.2h0.2v0.5h0.2v0.2h-0.2V51h0.2v0.2
	h-0.2v0.2h0.2v0.7l0.2,0.2v2.2h-0.2v0.7h0.2v0.5L55.1,56v2h0.2v0.5l0,0V59h0.2v0.7h0.2v0.5h0.2v1h-0.2v0.7h-0.2v0.5h-0.2v0.2
	l-0.2,0.2V63l-0.2,0.2v0.2h-0.2v0.2L54.4,64v0.2l0,0l-0.2,0.2h-0.2v-0.2h-0.2V64h-0.2v-0.2l0,0l-0.2-0.2h0.2v-0.2h-0.2v-1h-0.2v-1
	h-0.2v0.2H52l-0.2,0.2h-0.3V63l0.2,0.2v1h-0.2v1h0.2v0.2h0.5V66H52v1.4h-0.2v0.2l-0.2,0.2v0.2h-0.2v0.2H51v0.2h0.2v0.2h0.2V69h-1
	v0.2h-0.2v0.2h-0.2V70h-0.2v0.2l0,0l-0.2,0.2v0.2h-0.2V71l-0.2,0.5v0.5h0.2l-0.2,0.2l0.2,0.2l-0.2,0.2h0.2l-0.2,0.2h0.2v0.2h-0.2
	l0.2,0.2v0.2h-0.2v0.5l-0.2,0.2v0.2L48.6,75l-0.2,0.2V76h-0.2v0.5l-0.2,0.2v0.5l-0.2,0.2v0.2h-0.2l-0.2,0.5v0.2l-0.2,0.5h-0.2
	l-0.2,0.5v0.2l-0.2,0.5L46,80.3l-0.2,0.5V81l-0.2,0.2v0.2l-0.2,0.2V82L45,82.2v0.5h-0.2V83l-0.2,0.2v0.2l-0.2,0.2v0.5l-0.2,0.5v0.2
	h-0.2v0.2l0,0v0.5h-0.2v0.2h-0.2v0.2l-0.2,0.5l-0.2,0.2V87h-0.2v0.2l-0.2,0.2v0.2L42.2,88v0.5l-0.2,0.2v0.2l-0.2,0.2v0.2l-0.2,0.2
	v0.5l-0.2,0.2v0.2L41,90.8v0.2l-0.2,0.2v0.2l-0.2,0.2V92l-0.2,0.2L40,92.8V93l-0.2,0.2v0.5L39.5,94v0.2h-0.2v0.5L39,95l-0.2,0.2v0.2
	l-0.2,0.2v0.2l-0.2,0.2v0.2l-0.2,0.2v0.2h-0.2v0.2l-0.2,0.2v0.2l-0.2,0.2v0.2h-0.2v0.5L36.9,99v0.2l-0.2,0.2v0.5l-0.2,0.2v0.5
	l-0.2,0.2v0.2h-0.2v0.5l-0.2,0.2v0.5h-0.2v0.5l-0.2,0.2l-0.2,0.2v0.2l-0.2,0.2v0.5h-0.2v0.7h-0.2v0.5l0,0l-0.2,0.2v0.3l-0.2,0.2
	l-0.2,0.2v0.2h-0.2v0.2l-0.2,0.2v0.2l0,0l-0.2,0.2v0.2h-0.2v0.2l-0.2,0.2v0.5h-0.2v0.5l-0.2,0.2l-0.2,0.2v0.2l-0.2,0.2v0.5h-0.2v0.2
	h-0.2v0.5h-0.2l0,0l-0.2,0.2h-0.2v0.3h-0.2v0.2l-0.2-0.2v0.2h-0.5v0.2h-0.2v0.2h-0.2l0.2-0.2h-0.2v0.2h-2.2l-0.2,0.2h-0.2l-0.2,0.2
	h-0.5l-0.2,0.2h-0.2l-0.2,0.2h-0.2l-0.2,0.2h-0.2v0.2h-0.5l-0.2,0.2l-0.2,0.2l-0.2,0.2h-1.9v-0.2h-0.2v-0.2h-0.5v-0.2h-0.2v-0.2
	l-0.2-0.2h-0.2v-0.2h-0.7l-0.5-0.2h-0.7V113l-0.2-0.2v-0.2h-0.2v-0.2h-0.7v-0.5H16v-1h-0.2V110l0,0l0.2-0.2h-0.2v-0.2l-0.2-0.2v-0.2
	h-0.2v-0.2H15v-0.5l-0.2-0.2l0.2-0.2v-1h0.2v-0.2l-0.2-0.2h0.2v-1.7l0.2-0.2l0.2-0.2H16v-1h-0.2V103h-0.3v-0.5l0.2-0.2h-0.2v-0.5
	h0.2v-0.2h-0.2v-0.2h-0.2l-0.2-0.2v-0.2l-0.2-0.2V100h-0.2v-0.2l0,0v-2.7h0.2v0.2H15v-0.5h-0.2l0,0h-0.2l0.2-0.2v-0.7H15v-0.5h0.2
	v-0.2l0.2-0.2v-0.2l0.2-0.2l0.2-0.2h0.2v-0.5l0,0v-0.5l0,0V93h0.2v-0.5l0.2-0.2v0.2h-0.2l0.2,0.2v-0.5h0.2l0,0h0.7l0,0l0.2-0.2h0.2
	v-0.2l0.2-0.2v-0.2l0.2-0.2v-0.7h0.2v-0.5h0.2v-0.2h0.2l0,0l0,0v-0.2l0.2,0.2v-0.2l0,0v-0.2h0.2v-0.2l0.2-0.2v-0.5h0.2V88h0.2v-0.2
	h0.2l0.2-0.3v-0.2l0,0V87h0.2v-0.2h0.2v-0.2l0.2-0.2l0,0l0,0V86H22v-0.2h0.2L22,86l0.2-0.2v-0.2l0.2-0.2v0.2l0,0v-1h-0.2v-0.5
	L22.2,84.2z M27.5,44.1v1.4h-0.2V45h-0.5v-0.2h-0.2l0,0l-0.2-0.2h-0.2v-0.2h0.2v0.2h0.2v-0.2H27v-0.5h0.2L27.5,44.1L27.5,44.1
	L27.5,44.1z M52.5,44.1L52.5,44.1z M50.6,44.8L50.6,44.8z M23,44.8h0.5V45h0.5v0.2h0.2v0.2h-0.3v-0.2l-0.2,0.2l0,0l-0.2-0.2h-0.5V45
	l-0.2-0.2L23,44.8z M53.5,46.5v0.2h-0.2v-0.2H53.5z M53.5,46.7L53.5,46.7z M29.9,46.7L29.9,46.7z M30.4,46.9L30.4,46.9v0.2h0.5v0.5
	h-0.2v0.2l0,0v0.5h-0.2l0.2,0.2h-0.5l0,0l-0.2-0.2l0,0v-0.2h0.2v0.2h0.2v-0.2l-0.2-0.2v-0.5h-0.3v-0.2h0.2v-0.2L30.4,46.9z
	 M53.7,46.9L53.7,46.9L53.7,46.9z M48.7,47.4L48.7,47.4z M31.2,47.4L31.2,47.4z M54.5,47.7L54.5,47.7z M48.5,47.9h-0.2v0.5h-0.3
	v-0.2h0.2v-0.5L48.5,47.9z M54.7,47.9v0.2h-0.2v-0.2H54.7z M46.3,49.8L46.3,49.8v0.2h0.2v0.5l0,0v0.2L46.3,51v-0.2h-0.5v-0.7H46
	v-0.2H46.3z M45.8,50.3L45.8,50.3z M47.3,50.5L47.3,50.5L47.3,50.5z M46.5,51.3h-0.2V51h0.2V51.3z M47,51.3l-0.2,0.2v-0.2H47z
	 M47,51.5L47,51.5z M46.3,52.5L46.3,52.5z M43.4,54.2h-0.3v-0.2h0.2L43.4,54.2z M43.2,54.7L43.2,54.7z M43.4,54.9h-0.3v-0.2
	L43.4,54.9z M42.4,55.9L42.4,55.9z M41.9,56.9h0.2V57L41.9,56.9L41.9,56.9z M39.3,61.7l0.2-0.2L39.3,61.7z M52.3,61.9L52.3,61.9z
	 M38.9,61.9L38.9,61.9z M38.6,61.9L38.6,61.9z M38.4,61.9L38.4,61.9z M38.6,62.2h-0.3l0,0H38.6z M38.6,62.2h-0.3l0.2-0.2L38.6,62.2z
	 M33,63.5L33,63.5l-0.2-0.2H33V63.5z M32.8,63.5L32.8,63.5z M35.2,64l-0.2-0.2h0.2V64z M76,64L76,64z M35,64L35,64z M35.2,64
	L35.2,64z M35,64L35,64z M34.8,64.2V64l0,0V64.2z M35.2,64.2L35.2,64.2z M35.5,64L35.5,64L35.5,64z M35,64.2L34.7,64h0.2L35,64.2z
	 M34.8,64.2L34.8,64.2z M35,64v0.2l0,0V64z M34.8,64.2L34.8,64.2z M27.3,65.4L27.3,65.4z M52.3,69v0.2H52l0,0l-0.2,0.2v0.2L51.5,70
	v0.2h-0.2l0.2-0.2v-0.5l0,0l0.2-0.2V69H52v-0.2h0.2v-0.5h0.2v0.2l-0.2,0.2L52.3,69z M100.8,68.6L100.8,68.6z M100.6,68.8v-0.2l0,0
	V68.8z M16,70L16,70z M51.3,70.5L51.3,70.5z M22.5,82L22.5,82z M22.7,83.2l-0.2,0.2v-0.2H22.7z M22.2,83.7l0.2-0.2L22.2,83.7z
	 M116.8,83.7v0.2l-0.2,0.2h-0.7v-0.3h0.5l0.2-0.2L116.8,83.7z M22.5,84.9h-0.2l0.2-0.2V84.9z M87.5,85.6v0.2h0.2v0.7H88v0.2L87.8,87
	v0.2h-0.3v0.2h-0.2V88h-0.5v0.2h-1.2V88h-0.5l0.2-0.2h0.2v-0.5h0.2L85.6,87h0.2v-0.5h0.2l0.2-0.2h0.2V86l0,0l0.2-0.2l0.2-0.2
	l0.2-0.2h0.2L87.5,85.6z M87.7,85.6L87.7,85.6l-0.2,0.2L87.7,85.6z M21,87.5L21,87.5z M85.3,87.7L85.3,87.7z M75.7,89.9v0.2h1v0.7
	H77v0.5h0.2v0.5H77v0.7h-0.7v0.2h-0.5v-0.2H75v-0.2h-0.2v-0.2h-0.2v-0.7l-0.2-0.2v-0.2h0.2v-0.2h0.2v-0.2H75v-0.2h0.5v-0.2H75.7z
	 M17.9,91.3L17.9,91.3z M14.5,96.3L14.5,96.3z M14.5,97.1h0.2l0,0H14.5z M0.6,97.8H0.4v-0.2h0.2V97.8L0.6,97.8L0.6,97.8z"/>
</svg>
