<?xml version="1.0" encoding="utf-8"?>
<!-- Generator: Adobe Illustrator 20.1.0, SVG Export Plug-In . SVG Version: 6.00 Build 0)  -->
<svg version="1.1" id="Layer_1" xmlns="http://www.w3.org/2000/svg" xmlns:xlink="http://www.w3.org/1999/xlink" x="0px" y="0px"
	 viewBox="0 0 332.3 164.2" style="enable-background:new 0 0 332.3 164.2;" xml:space="preserve">
<style type="text/css">
	.st0{fill:#C14803;}
</style>
<title>mediterranean</title>
<path class="st0" d="M1.8,163.6H1.6v-0.2l0.2-0.2v-0.2h0.5v-0.2h0.5v1H2.5v0.2H1.8V163.6z M5.9,161.9H5.7v0.5H5.4v0.2h0.2v0.5h0.2
	v0.2h1v-0.2h0.2v-1H6.6v-0.5H6.4v-0.5H5.9V161.9L5.9,161.9z M8.8,162.4v-0.2H9v-0.2h0.2v-0.7H8.8v0.2H8.5v0.5H8.3v0.2h0.2L8.8,162.4
	z M11.2,156.6v0.2h0.2v0.2h-0.5v0.5h0.2v0.2h0.7v-0.2h0.2v-0.2h0.2l0.2-0.2v-0.2h-0.2v-0.2l-0.2-0.2l-0.2,0.2h-0.2v-0.2h-0.2v0.2
	L11.2,156.6z M4.5,154.2v0.2h0.2v0.5h0.2v-0.2h0.2v-0.2h0.5v-0.2H4.9V154H4.7v0.2L4.5,154.2z M11.9,154.2v0.2h0.2v-0.2h0.2V154h-0.2
	v-0.2h0.2v-0.5h-0.5L11.9,154.2L11.9,154.2z M1.6,153H1.3v0.5h1v-0.2h0.2V153H2.3v-0.2H1.8v0.2H1.6z M54.4,95.9v0.2h0.5l0.2,0.2
	l0.2-0.2l0.2-0.2v-0.2h0.2v-0.2h-0.5v0.2h-0.2v0.2h-0.2l-0.2-0.2v0.2H54.4z M66.6,94.2h-0.5v0.2h-0.2v0.2h-0.2v0.7h0.2v0.2l0.2,0.2
	h0.5v-0.2h0.7v-0.2h0.2v-0.5h0.2v-0.2l0.2-0.2h-0.2v-0.2l0.2-0.2v-0.2L67.8,94v-0.2h-1.2C66.6,93.7,66.6,94.2,66.6,94.2z M57.5,90.9
	l-0.2,0.2h0.2v1l0.2-0.2H58v-0.2l0.2-0.2v-0.5h0.2l0.2-0.2h-0.2v-0.5h-0.7l-0.2,0.2l-0.2,0.2h0.2L57.5,90.9z M78.9,88.5h-0.2v0.2
	h-0.7v0.2h-0.5l-0.2,0.2l-0.2,0.2v0.2h-0.2v0.2h0.2v0.2l0.2-0.2h0.2v-0.2h0.7l0.2-0.2h0.2v-0.2h0.2v-0.2l0.2-0.2v-0.2h0.2v-0.2h-0.2
	V88h-0.2V88.5L78.9,88.5z M305.7,80.1h0.2v-1h-0.2v0.5h-0.2l-0.2,0.2h-0.5V80l-0.2,0.2V81l-0.5,0.2v0.2h-0.2v2.9l0.2,0.5l0.2,0.2
	v0.2l-0.2-0.2v0.7h0.2l0.2,0.2l0.2,0.2h0.5v-1h-0.5v-0.5h-0.2v-0.2h0.2v-0.5h-0.2v-0.5h-0.2v-1.4h0.2v-0.5h0.2v-0.2h0.2v-1.2h0.2
	v-0.5h0.2L305.7,80.1z M280,76.7v0.2h-0.2v0.2h-0.2l-0.2,0.2H279v-0.2h-0.5v0.2h-0.2v0.2H278v0.2h-0.2v0.2h-0.5v0.2h-0.2v0.2h-0.2
	l-0.2,0.2h-0.2v0.2h-0.2l-0.2,0.2h-0.5v0.2h-0.5l-0.2,0.2h0.7v0.2h1.4l0.2-0.2l1.2-0.5l0.7-0.5l1-0.5l1.2-1.4l0.2-0.2H281v-0.2h0.7
	v-0.2h0.5V76h-0.2l-0.2,0.2h-0.2l-0.5,0.2h-0.2l-0.2-0.2h-0.2v0.2L280,76.7z M304.5,77.2v0.2h-0.7v0.5l0.2,0.2l-0.5,0.2h0.2l0.5,0.2
	l0.5,0.5v-1.2l0.2-0.5v-0.5l-0.5-0.5h-1v0.2l0.2,0.2h0.3L304.5,77.2z M243.5,68.8h-1.2l-0.2-0.2h-0.5v0.2h-0.2V69h-0.2l-0.2,0.2
	h-0.2l-0.2,0.2h-1.4l-0.2,0.2h-0.2l-0.2,0.2H238v0.2h-0.7v0.2H237l-0.2,0.2h-0.2v0.2h-0.2l-0.2,0.2h-0.2l-0.2,0.2l-0.2,0.2l-0.2,0.2
	l-0.2,0.2v0.2h-0.2v0.2h-0.2v0.2h-0.2v0.5h-0.2v0.2h-0.2v1l-0.2,0.2V75l0.2,0.2v1h0.2V77h0.2v0.5h0.2v1h-0.2v0.2l0.2-0.2l1.4-1.4
	l0.2-0.7l0.5-0.5L237,75l0.2-0.5l0.5-0.5l1-0.5l0.7-0.2l0.7-0.5l1-0.2h1.8v-0.2h0.5v0.2h2.4l0.2-0.2h0.5l0.2-0.2h0.5v-0.2h0.7
	l-0.2-0.2v-0.5h0.5v-0.2H248v-0.7h-0.2V70h-0.7v-0.2h-0.5l-0.2-0.2h-0.5v-0.2h-0.7V69h-1v-0.2H244v-0.2h-0.2v0.2L243.5,68.8z
	 M197.6,68.3h-0.2v0.2l-0.2,0.2v0.7h1v0.2l0.2,0.7l0.2,0.2l0.2,0.2l0.5,0.5l0.2,0.2l-0.2,0.5l-0.7,0.5l-1.2,0.2l-1,0.2l-1,0.2
	l-1.2,0.2l-0.7,0.2l-0.2,0.5l0.5,0.2h1.9l1.2-0.2h1.7l1,0.2h3.1l1.4-0.2l1.4-0.2h2.2l1.4,0.2l0.2,0.5l0.5,0.5l0.2,1l0.7,0.7l1,0.2
	l1.4,0.2h2.6v-0.2h-0.5V77H215l-0.2-0.2h-0.2v-0.2h-0.2v-0.2L214,76v-0.2l-0.2-0.2v-0.2l-0.2-0.5v-0.5l-0.2-0.2v-1l0.2-0.2v-0.2
	l-0.2-0.2v-0.4H213v-0.5h-1v-0.2h-1.4v-0.2h-0.7v-0.2h-0.2v-0.2h-0.2l-0.2-0.2l-0.2-0.2v-0.2h-1.2v-0.2h-0.5l-0.2-0.2h-1.2V69h-0.5
	v-0.2h-1.2l-0.2,0.2h-0.5v0.2h-2.6l-0.2-0.2H200v-0.2h-0.2l-0.2-0.2h-0.2v-0.2H199v-0.2l-0.2-0.2h-0.7v0.2l-0.2,0.2L197.6,68.3z
	 M194.8,52.7h-0.5l-0.2,0.2l-0.2,0.2v0.2l0.2,0.2l0.2-0.2h0.2l0.2-0.2L194.8,52.7L194.8,52.7z M195,54.4l0.2,0.2v0.5h0.2v0.2h-0.2
	v0.2H195l-0.2-0.2h-0.2l-0.2-0.2v-0.7l0.2-0.2h0.5L195,54.4z M193.1,45.7h-0.7V46h-1v0.2h-0.2l-0.2,0.2h-0.5v0.2l-0.2,0.2l-0.2,0.2
	h-0.2v0.2h-1l-0.2,0.2h-1.2l-0.2-0.2h-0.2v0.2h-0.5v0.2h-0.5v0.2l-0.2-0.2v0.2h-0.2l-0.2-0.2v-0.5h-0.7l-0.2-0.2V47h-0.5v-0.3h-1
	v0.2h0.4v0.5h-0.2v0.2h-1v0.2h-0.5v-0.5h-1.2v-0.5l-0.2-0.2h-0.5v0.2h-0.5v0.2h-0.2v0.5h-0.5l-0.2,0.2h-0.2l-0.2,0.2H176v0.2h-0.5
	v0.5h-0.7v0.2h-1v-0.2h-0.2v-0.5h-0.2v-0.2h-0.2v-0.2h-0.5l-0.2-0.2l-0.2,0.2h-0.7l-0.2-0.2h-2.9l-0.2,0.2h-0.2l-0.2,0.2h-0.5v0.2
	h-1.4v0.2h-0.5v-0.2H165v-0.2h-0.5v0.2H164l0.2,0.2H164l-0.2,0.2h-0.2v0.2h-0.5v0.2h-1v-0.2h-0.7v0.2h-0.7l-0.2,0.2h-0.2l-0.2-0.2
	l-0.2,0.2v-0.2l-0.2,0.2h-2.2v0.2h-1.2v0.2h-0.5v0.2h-0.2v0.2h-0.5l-0.2,0.2H154V51h-0.2l-0.2,0.2H153l-0.2,0.2h-0.2v0.2H152V52
	h-0.2l-0.2,0.2v0.2h-0.2v0.2h-0.2V53l-0.2,0.2h-0.2v0.2h-0.2l-0.2,0.2l-0.2-0.2h-0.5V53h-0.2l-0.2,0.2l-0.2-0.2v0.5h-0.2v0.2h-0.2
	l-0.2,0.2h-0.5l-0.2-0.2H147v0.2h-0.7v0.2h-0.5v0.2l-0.2,0.2h-0.5v0.2l-0.2,0.2v0.2l-0.2,0.2l-0.2,0.2h-0.2v0.2h-0.5l-0.2,0.2h-0.5
	v0.2h-0.2v0.2h-0.5V57h-0.5l-0.2,0.2h-1.7V57h-0.5v-0.2h-0.2V57h-0.2l-0.2,0.2h-0.5l-0.2-0.2h-0.7v-0.5h0.2v-0.2h-0.2v-0.5l0.2-0.2
	v-0.2h-0.2v0.2l-0.2,0.2l-0.2,0.2l-0.2,0.2h-0.2l-0.2,0.2h-0.5v0.2H135v-0.2h-0.7v-0.2H134v-0.2l-0.2,0.2h-0.2v0.2h-0.7l0.2-0.2
	h-0.2l-0.2,0.2v-0.2l-0.2,0.2h-0.5l-0.2,0.2h-0.7V57l-0.2-0.2H130l-0.2-0.2h-0.5v-0.2H129v-0.2h-0.2v-0.2h-0.2v-0.2h-0.2v-0.5H128
	v-0.2h-0.2v-1.4l0.2-0.2v-0.2h-0.7v0.2h-0.2l-0.2,0.2v-0.2h-0.2v0.2l-0.2-0.2v0.2h-0.2l-0.2,0.2v-0.2h-0.5v0.2l-0.2,0.2v0.2h-0.2
	v0.2h-0.2v0.2l-0.2,0.2v0.2l-0.2,0.2l-0.2,0.2l-0.2,0.2l-0.2,0.2l-0.2,0.5v0.2L123,57h-0.2l-0.2,0.5v0.2l-0.2,0.2l-0.2,0.2v0.2
	l-0.5,0.5l-0.2,0.2l-0.2,0.2l-0.5,0.5v0.2l-0.5,0.5l-0.2,0.2l-0.2,0.2l-0.2,0.2v0.2h-0.2l-0.2,0.5l-0.2,0.2h-0.2v0.2h-0.2v0.2
	l-0.5,0.2l-0.5,0.2v0.2H117l-0.2,0.2h-0.2l-0.2,0.2h-0.5l-0.2,0.2l-0.2,0.2h-0.5l-0.2,0.2l-0.2,0.2h-0.7v0.2h-0.2l-0.2,0.2h-0.7v0.2
	H112v0.2h-0.7l-0.2,0.2h-0.5l-0.2,0.2h-0.2l-0.2,0.2l-0.2,0.2h-0.5v0.2h-0.2l-0.2,0.2v0.2l-0.2,0.2h-0.2V68h-0.2v0.2h-0.5v0.2
	l-0.2,0.2L107,69h-0.2l-0.2,0.2l-0.2,0.2H106v0.2l-0.5,0.2l-0.2,0.2H105l-0.5,0.5v0.5h-0.2v0.2H104v0.2h0.2v0.2H104v0.5l-0.2,0.2
	l-0.2,0.2l-0.2,0.2v0.2h-0.2v0.2h-0.2l-0.2,0.2l-0.2,0.2h-0.2v0.2h-0.2l-0.2,0.2v0.2h-0.2l-0.2,0.2l-0.2,0.2v0.5h-0.2l-0.2,0.2h-0.2
	v0.2l-0.2,0.2l-0.2,0.2h0.3l-0.2,0.2v0.5h-0.3v0.5h-0.2v0.7L99,78.8v0.5l-0.2,0.2V80h-0.2v0.2h-0.2v0.2h-0.2v0.2h0.5V81h0.2v0.7H99
	V82l-0.2,0.5v0.2h-0.2V83l-0.2,0.2v0.2H98v0.2h-0.2v0.2l-0.2,0.2l-0.2,0.2v0.2h-0.2v0.2h-0.2l-0.2,0.2l-0.2,0.2l-0.2,0.2l-0.2,0.2
	h-0.2v0.2h-0.2v0.2l-0.2,0.2l-0.2,0.2V87h-0.2l-0.2,0.2v0.2h-0.2v0.2H94L93.8,88h-0.3v0.2h-0.2v0.2H93v0.2h-0.2v0.2h-0.2l-0.2,0.2
	H92v0.2h-0.5v0.2h-0.2l-0.2,0.2h-0.5l-0.2,0.2h-0.2l-0.2,0.2h-0.2l-0.2,0.2h-0.2v0.2h-0.2v0.2h-0.2l-0.2,0.2h-0.2v0.2H88l-0.2,0.2
	h-0.3V92h-0.2v0.2H87v0.2h-0.2v0.2h-0.2V93H86l-0.2,0.2h-0.7v0.2h-0.5l-0.2,0.2h-0.5V94h-0.5l-0.2,0.2h-0.5v0.2h-0.2l-0.2,0.2v-0.2
	h0.2l0.2-0.2h-0.2L82,94.5h-1.2l-0.2,0.2h-1.2V95h-0.2l-0.2,0.2v0.2h-0.2l-0.2,0.2v0.2h-0.2l-0.2,0.2h-0.2v0.2h-0.2v0.2h-0.2v0.5
	l-0.2,0.2l-0.2,0.2v0.2h-0.2v0.2h-0.2v0.2H76v0.2h-0.2v0.2h-0.3v0.5h-0.2v0.2L75,99.8h0.2l0.2-0.2l0.7-0.2l0.5-0.3l0.5-0.5l0.5-0.7
	l0.7-0.5l0.7-0.5l0.7-0.5l1.4-0.5l1.4-0.5h1l1-0.2l1.4-0.2l1.4-0.5l1.2-0.2l1-0.2l1-0.2l1-0.2l0.7-0.2h1l1-0.2H95l0.7-0.2l1-0.5
	l0.2-0.2h-0.5l-0.7,0.2h-0.2l0.2-0.5l0.2-0.5l0.5-0.5l0.7-0.2l0.5-0.5l0.7-0.2l0.7-0.5l0.7-0.5h0.2l-0.2-0.2l0.5-0.2l0.5-0.5
	l0.5-0.2l0.7-0.2l0.7-0.5l1-0.5l0.2-0.2l0.5-0.5h0.5l0.5-0.5l0.2-0.5l-0.2-0.2h1.2l0.7-0.2l0.5-0.5l0.5-0.5l0.5-0.7l0.5-0.2l0.2-0.2
	l0.5-0.5l0.7-0.5l0.5-0.5l0.5-0.2h0.2l0.2-0.2l0.2-0.2l-0.2-0.2h-0.2l-0.5-0.2v-0.2l0.2-0.2l0.5-0.5h1.9l0.7-0.2l0.5-0.2v0.2
	l-0.5,0.5l-0.2,0.5l-0.2,0.2v0.2h1.2l0.2,0.5h1.4l0.7-0.2v-0.5l0.2-0.2h0.5l0.7-0.2l0.5-0.5l0.5-0.5l0.5-0.5l0.5-0.5l0.5-0.5v-0.2
	l-0.5-0.2h-0.5l-0.2-0.2l0.2-0.2l0.7-0.2l1.2-0.5l1-0.5l1-0.2l0.5-0.2l1.2-0.2h0.7l1-0.2l1.2-0.2h0.5l1-0.2h0.7l0.7-0.2l0.5-0.2
	l0.5-0.2h1.4l0.5-0.2l0.5-0.2v0.5h-0.5l-0.5,0.5l0.2,0.2l0.5-0.2h0.5v0.5H135l-0.2,0.5v0.5l0.5,0.2l1-0.2l1-0.2l1-0.2l0.7-0.5
	l0.7-0.5h1.2l1.2-0.2l0.7-0.5l1.2-0.7l1-0.2l0.5-0.2l0.7-0.5l1.9-0.7l1.4-0.5l1.7-0.7l1.7-0.5l1.4-0.5l1.7-0.5l1.7-0.5l1.2-0.2
	l1.7-0.2l1.2-0.2l1-0.5l1.2-0.2l1.4-0.7l1-0.7l1-0.7l1.2-0.7l1-0.7l1.2-0.7l1-0.5l0.7-0.5l1.2-0.5l1-0.2h1l1.4-0.2l1.4-0.2l1,0.2
	l0.7,0.2l0.7,1l0.5,0.5l1.2,0.5l0.7,0.2l0.7,0.5l1,0.2l0.7,0.2h2.9l0.7,0.2h0.5l0.5,0.2l0.2-0.2l0.2-0.2l0.2-0.2v-0.7l-0.2-0.2v-0.2
	h-0.2l0.5-0.2h0.2l0.5-0.2l0.2-0.2l0.2-0.5l0.2-0.2v-0.7l0.2,0.2v0.2l0.2,0.2l0.2-0.2l0.2-0.2l0.2,0.2l-0.2,0.2l-0.2,0.2l-0.5,0.2
	l-0.2,0.5l-0.2,0.2l-0.2,0.5v0.5l-0.2,0.2v0.5l0.2,0.2v-0.5l0.2-0.2v-0.2h0.2v-0.2h0.2l0.2-0.2h0.5v-0.2h0.2l0.2-0.2l0.2-0.2h0.2
	v-0.2h0.5v-0.2h0.2v-0.2h0.5v-0.5h0.2v-0.2h0.2v-0.2H196l0.2-0.2v-0.2h0.2v-0.5h0.2l0.2-0.2V57h0.2v-0.2h0.2v-0.2h0.2l-0.2-0.2
	l-0.2-0.2v-0.2l0.2-0.2v-1h0.2v-0.2h-0.2v-0.2h-0.7v-0.2l0.2-0.2h-0.7v-0.2l-0.2-0.2v-0.5h-0.2V51h0.2v-0.2l0.2-0.2l0.2-0.2h0.5V50
	h0.5l0.2-0.2v-0.2h0.2v-0.2l0.2-0.2v-0.2l0.2-0.2h0.2v-0.2h0.2v-0.2h0.2v-1.4l-0.2,0.2h-0.5v0.2l-0.2,0.2h-0.2v0.2h-0.2l-0.2,0.2
	H197v0.2h-0.2v0.2h-0.2v0.2h-0.7v-0.2h-0.2v-0.2h0.2v-0.2h0.2v-0.2h-0.2l-0.2-0.2v-0.7h0.2v-0.2h-0.2v-0.2h0.2l-0.3-0.2h-0.2v-0.2
	H195V46h-0.5v0.2l-0.2,0.2H194v-0.2h-0.2V46h0.7v-0.2h-0.2v-0.3h-1v0.2L193.1,45.7z M309.3,72.4l0.2-0.2v-0.2l0.2-0.2v-0.5l-0.2-0.7
	l-0.2-0.5l-0.2-0.2l-0.2-0.2l-0.2-0.2V69l-0.2-0.5l-0.2-0.2h-0.2v0.5l-0.2,0.2v0.5l0.2,0.2v0.5h-0.2v1.2l0.2,0.2l0.5,0.2l0.7,0.2
	h0.2L309.3,72.4z M69.7,69.3v0.5H70l0.2,0.2h0.5v0.2h0.7V70h0.2v-0.2h0.5v-0.3h-0.5l-0.2-0.2V69h-0.2v0.2h-0.7V69H70v0.2L69.7,69.3z
	 M192.4,64.7h-1l-0.2-0.5v-0.5l-0.2-0.2l-0.2-0.2h-0.2l0.2,0.5v0.7l-0.2,0.7v1.2l0.2,0.5l-0.2,0.5v0.5l0.2,0.5h0.2v0.5l0.5,0.5h1.4
	l0.5-0.2l0.5-0.2l0.7,0.2l0.5,0.5h0.7l0.5,0.2v-0.2l0.2-0.5v-0.2l0.2-0.2v-0.5l-0.2,0.2h-0.2l0.2-0.2l-0.2-0.2l0.2-0.2h0.7v-0.2
	l-0.2-0.2v0.2h-0.5l-0.2-0.2h-0.5v-0.5h0.3v-0.2h-0.2v-1.4H195v0.5h-0.7l0.2,0.2H194v-0.5h0.2l-0.2-0.2h-0.2l-0.5,0.2h-0.2l-0.5-0.2
	L192.4,64.7z M194.5,64l-0.2,0.2v0.2h0.7v0.2h-0.2v0.2h0.2v-0.2h0.2v-0.2h0.2v-0.2h0.2v-0.5h-0.2v-0.2h-1L194.5,64L194.5,64z
	 M291.3,56.3v0.2l-0.2,0.2V57h-0.5v-0.2h-1V57h-0.2v0.2l-0.2,0.2h-0.5v-0.2h-0.2v0.5h0.2v0.7h0.2v0.5h0.2v0.2h0.5v0.2h0.5v0.2h0.5
	v-0.2h0.5v0.2h0.2v0.2h0.2v-0.2h0.2v-0.2h0.3l0.2-0.2h1l0.2-0.2h0.2l0.2-0.2h0.2v-0.2h0.2V58h1.2v-0.2h0.2l0.2,0.2v-0.5l-0.2-0.2
	h-0.2V57h-0.2v-0.7h0.2v-0.2h0.5v-0.2l0.2-0.2h0.2v-0.2l0.5-0.2l0.2-0.2h0.2v-0.2l0.5-0.2h0.2v-0.2h-0.5v0.2h-0.5v0.2h-0.5v0.2h-0.5
	v0.2h-0.2l-0.2,0.2h-0.2l-0.2,0.2h-0.7l-0.2,0.2h-0.7v0.2h-1v-0.2h-1.4L291.3,56.3L291.3,56.3z M251.7,55.1h-0.7v1h-0.2v0.2h0.2v0.2
	h1l0.2-0.2v0.2h0.7v0.2h1.7l0.2,0.2h0.5v0.2h0.7V58h-0.2l0.2,0.2h0.2V58h0.5l0.2,0.2V58h1.2v-0.2h2.6v-0.3h1v0.2h0.5v-0.2h0.2V57
	l0.2-0.2l-0.2-0.2h-0.2l-0.2,0.2v-0.2h-0.5v0.2h-0.7V57h-0.5v-0.2h-0.2l0.2-0.2V56h0.2v-0.2l-0.2,0.2v-0.2l-0.2,0.2v-0.2h-0.2
	l-0.2,0.2h-0.7v-0.2l-0.2,0.2H258v-0.2h-0.5v-0.2h-2l-0.2,0.2h-1.2v-0.5l-0.2-0.2v0.2h-0.5v-0.2h0.5v-0.2l-0.2-0.2h-0.2v0.2h-0.2
	v0.2h-0.5v-0.2h-0.7v-0.7h-0.2L251.7,55.1L251.7,55.1z M266.1,54.9h0.2v0.5h0.2v-0.7h-0.2v-0.2h0.2v-0.5h0.2v-0.7h-0.2v0.7h-0.2v0.5
	h-0.2C266.1,54.4,266.1,54.9,266.1,54.9z M211.8,52.9v0.2h0.2v0.2h0.7v-0.5h-0.2v-0.2h-0.5v-0.2h-0.2
	C211.8,52.5,211.8,52.9,211.8,52.9z M211.6,52.5h0.2V52h-0.5v0.2h0.2L211.6,52.5z M268.9,52v1.2h0.2V53h0.2l0.2-0.2v-0.2l0.2-0.2
	l0.2-0.2h0.2v-0.5h0.2v-0.2h0.2v-0.7h0.2v-0.5l-0.2,0.2h-0.7v0.2h-0.5v0.2h-0.2V51h-0.2v0.5h-0.5v0.2h0.2L268.9,52z M248.5,51v0.5
	l0.2,0.2h0.2v-0.5h0.2V51H249v-0.2h-0.2v-0.2h-0.2L248.5,51L248.5,51z M322.7,50.3h-1v-0.7l-0.2,0.2L321,50v0.5l0.2,0.2h0.2l0.2,0.2
	v-0.5h0.7l0.5,0.2h0.2v-0.2L322.7,50.3z M262.9,49.8h0.2v-0.2h0.2v-0.5h-0.2l0.2,0.2h-0.7v0.2h0.2L262.9,49.8z M269.2,49.6h0.5v-0.2
	h-0.2v-0.2h-0.2L269.2,49.6L269.2,49.6z M327.7,43.6h-1.2v0.2l-0.5-0.2l-0.2,0.2h-0.2l-0.2,0.2l-0.2-0.2l-0.2-0.2v0.2h-1.4V44h-1.7
	l0.2,0.2h0.2v0.2l0.2,0.2V45h2.2v0.2h0.2V45h0.2l-0.2-0.2v-0.2l0.2-0.2h0.5l0.5,0.2v-0.2h1.2v0.2H327V45h-0.5v-0.2l-0.2-0.2v0.7
	l-0.2,0.2h0.2l-0.2,0.2l0.2,0.2l0.2,0.2l0.2-0.2h0.5v-0.2h0.5l0.2-0.2h-0.2V45l0.2,0.2h0.2v-1H328v-0.5L327.7,43.6z M304,40v0.2
	h-0.2l0.2,0.2h-0.2v0.2h-0.2V41h-0.2l-0.2,0.5v0.2l-0.2-0.2l-0.2,0.2l-0.2,0.2h-0.5l-0.2,0.2v-0.5l0.2-0.2v-0.2l-0.2,0.2h-0.7v0.2
	l-0.2,0.2v-0.2h-0.2v-0.2h-0.2l-0.2,0.5v0.2l-0.2,0.2h-0.2v-0.5H299l-0.2,0.2l-0.2,0.2l0.2,0.2l0.2,0.2h0.2l0.2,0.2l-0.2,0.2v0.2
	H299v0.2h-0.2v0.2H298l-0.2,0.5h-1.2v0.2h-0.2V45h-1.2v0.2l-0.2,0.2h1.2v0.2h-0.5V46h-0.2v0.2h-0.2v0.5l-0.2,0.2h-0.2v0.2h-0.2v0.5
	h-0.2v-0.2h-0.5v0.2l0.2,0.2l-0.2,0.2h-0.2l-0.2,0.2H293v-0.5h-9.9v0.2h1.2v0.2h0.2l0.2,0.2h0.2l0.2,0.2h0.2v0.2h0.5v0.2h0.5
	l0.2,0.2h0.5v0.2h0.2l0.2,0.2v0.2l0.2,0.2v0.2h0.2V51l0.2,0.2h0.2v0.2h0.2v0.2h0.2V52h0.5l0.2,0.2h0.5v0.2h0.2v-0.2h0.2V52h1v-0.2
	h1.9l0.2-0.2h0.2v0.2l0.2-0.2l0.2-0.2h0.2v-0.5h0.2l0.2,0.2l0.2-0.2h0.2v-0.5h0.2v-0.2h0.2v-0.2l0.2-0.2v-0.2h0.2l0.2-0.2h0.2v-0.2
	l0.2-0.2h0.2v-0.2h0.2l0.2-0.2h0.7v0.2h0.2v0.2h0.5v0.2l0.5,0.2h0.2l0.2,0.2h0.2l0.2,0.2h0.2v-0.2h1v-0.2l0.2-0.2h-0.5v-0.2h0.2
	v-0.2h1v-0.2l0.2-0.2v-0.2h0.7v0.2h0.2v0.2h0.2v1.2h-0.2v0.2H304v0.5h-0.5v0.5h-0.2l-0.2,0.2V51l0.2,0.2h0.2v0.5h0.2V52l0.2,0.2v0.5
	h-0.2v0.5h-0.5v0.2h0.2v0.7h-0.2v0.5l-0.2,0.2h0.2v0.2h0.2l0.2,0.2l0.2,0.2v1h0.2v0.2H304v1.7l0.2,0.5v0.5l0.2,0.2v0.7h-0.2
	l-0.2,0.2h-0.2v0.2h-0.2v0.5h-0.2v0.5H303v0.5h0.2v0.2l-0.2,0.2l0.2,0.2H303v0.5h-0.5v0.7h-0.2V65l-0.2,0.2v0.5h-0.2V66l-0.2,0.2v1
	h-0.2v0.5h-0.2v0.7h-0.2v0.5h0.2V69h-0.2v0.2h-0.2V69l-0.2,0.2v1.7h-0.2v1.2h-0.2v0.7l-0.2,0.2v0.7h-0.2v0.5l-0.2,0.2V75h-0.2v0.2
	l-0.2,0.2v0.2l0.2,0.2h0.2l0.2-0.2l0.2,0.2l0.2,0.2V76h0.7v0.7h0.5l0.2,0.2l0.5-0.2l0.5-0.5v-0.5l0.2-0.2v-1.5l0.2-0.2v-0.5h0.2
	l0.2-0.2h0.5l-0.2,0.2h0.5l0.2,0.5v0.2h0.2l-0.2,0.5l-0.2,0.2v0.7l-0.2,0.2V76l0.5-0.2l0.7-0.2v-1.5l0.2-0.2v-0.2l0.2-0.2h0.2v-0.2
	l0.2-0.5l0.2-1h-0.2l-0.2-1l-0.2-0.5v-0.5h-0.2l-0.2-0.2h-0.7l0.2-0.2V69h0.2v-0.7l-0.2-0.5v-0.7l0.2-0.2l0.2-0.2h0.2v-0.7l0.2-0.2
	v-0.2l0.2-0.2l0.2-0.2h0.5v0.2l0.2-0.2l1-0.5V64l0.7-0.2l0.7-1.7l0.2-0.5v-0.2l-0.5-0.7v-0.7l0.2-0.2l0.2-0.2l0.2-0.2v-1l0.2-0.2
	h0.2v-1.6l0.2-0.7h1l0.5-0.2h0.2l0.2-0.2v-0.2l-0.2-0.5v-0.7l0.2-0.2l0.2-0.5l-0.2-0.5v-0.2h-0.5v0.5l0.2,0.2v0.2h-0.7v-0.5
	l-0.5-0.5V52l0.2-0.2h0.7l0.5-1l0.2-0.2l0.5,0.2l0.2-0.5h0.2V50l0.2-0.7l0.2-0.5l0.2-0.2h0.2v1l0.2,0.2v0.7h0.2l0.2-0.2l0.2-0.2
	l0.2-0.2h1.2l0.2-0.2v-0.5h0.2v-0.2l0.5-0.2l1-0.5l1-0.2l0.7-0.5h1.6v0.2h0.2l0.2,0.2l0.7,0.2h1l0.5,0.5h0.2l0.2,0.2l0.2-0.2
	l0.7-0.5l0.7,0.2h0.7l0.7-0.2l0.5-0.2h0.5l0.2,0.2l0.7,0.2l0.7-0.2l0.7-0.5v-0.5l0.2-0.2l-0.2-0.5V46h-0.2l-0.5-0.2h-0.2l-0.5-0.2
	l-0.2-0.2V45l-0.5-0.2l-0.2,0.2l-0.2-0.2h-0.2v-0.2h-0.2v-0.7h-0.2v-0.7h0.2v-0.5l0.2-0.2h-0.5v-0.2H328l-0.2-0.2h-0.5l-0.2-0.2
	h-0.2l-0.5-0.2h-0.5v-0.2h-0.2v0.2h-0.5l-0.2-0.2h-1v-0.2h-0.5l-0.2-0.2l-0.2,0.2h-0.5l-0.2-0.2l-0.2,0.2h-0.7v0.2h-0.5l-0.2,0.2
	h0.5l0.2,0.2h3.1l0.2,0.2h0.2v1h0.2v0.2h-1v0.2h-0.5l-0.2,0.2l-0.5-0.2h-1.7l-0.2-0.3v-0.5h-0.2v-0.2h-0.5l-0.2-0.2v-0.2h-0.2v-0.2
	h-0.5v-0.2h0.2l0.2-0.2l0.2-0.2v-0.2l-0.2-0.2h0.2v-0.7h-0.5v0.5h-0.2l0.2,0.2h-0.2l-0.2,0.2h-0.7v0.2l-0.2,0.2l-0.2,0.2l-0.2-0.2
	l-0.2,0.2h-0.5v0.2l-0.2,0.2v0.2h0.2v-0.2l0.2,0.2h-0.2v0.2h-0.2l-0.5,0.5l-0.2-0.2l-0.2,0.2v0.2l-0.2-0.2H315v0.2l-0.2-0.2h-0.5
	v0.2H314v-0.2l-0.2,0.2h-1v0.2h-0.5l-0.2-0.2h-0.7v0.2h-0.2l-0.2,0.2v0.2h-0.2l-0.2,0.2v0.2h-0.2v0.2H310v0.2h-0.2l-0.2,0.2v0.2
	h-0.2v0.5L309,46h-0.2l0.2,0.2v0.5h-0.7l-0.2,0.5l-0.2-0.2v0.2l-0.2,0.2v0.2l-0.2,0.2l-0.2-0.2v-0.5l0.2-0.2v-0.3l0.2-0.2v-0.2h0.2
	V46h0.2l0.2-0.2v-0.3h0.2V45h0.2l0.5-0.2l0.2-0.2l0.2-0.2L310,44l0.2-0.2l0.2-0.2v-0.2h0.2v-0.2h-0.2v0.2h-0.2l-0.2,0.2l-0.2,0.2
	l-0.2,0.2h-0.2l-0.2,0.2h-0.2v-0.2h-0.2v0.2l-0.2,0.2v-0.5H308l-0.2,0.2h-0.2v-0.5l0.2-0.2l-0.2-0.2v-0.7l0.2-0.2v-0.5h-0.2v0.2
	h-0.2l-0.2,0.2v-0.7l0.2-0.2h-0.2l-0.2-0.2l-0.2,0.2h-0.5v-0.2l0.2-0.2h-0.7v-0.2h-0.2v-1h-0.2v-0.2l0.2-0.2V39h-0.2v0.2h-0.2v0.2
	h-1L304,40L304,40z M255.3,48.9H255v-0.2h-0.2v0.2h-0.2v0.2h0.5L255.3,48.9h0.2v-0.5H255v0.2h0.2L255.3,48.9z M258.6,48.9h0.2v0.2
	h0.2v-0.5h-0.2v-0.2h-0.2V48.9z M268.2,48.4v0.2H268v-0.2h-0.2v0.7h0.2v-0.2h1v-0.5h-0.2v-0.2h-0.2v0.2H268.2z M328.2,48.6H327
	l-0.2,0.2l0.2,0.2h0.7l0.7-0.2h0.5l0.2-0.2v-0.2l-0.2,0.2l-0.2-0.2l-0.2,0.2H328.2z M202.7,48.6h0.2v-0.5h-0.5v0.2h0.2L202.7,48.6z
	 M269.4,48.6h0.7v-0.2h-0.2v-0.2h-0.7v0.2h0.2V48.6z M272.8,48.4v0.2h0.2v0.2h0.5v0.5h0.2v-0.5h0.3v-0.2h0.2l0.2,0.2h0.2v0.5h-0.2
	v0.2h0.5v0.2h-0.2v0.2h0.2v0.2h-0.2v0.2h0.2v0.2h0.5V51h0.2v0.2h0.2V51h0.2v0.2h0.2l0.2,0.2h0.5v0.2h0.7l0.2-0.2v-0.2h1V51h0.2v-0.2
	h0.5L280,51h0.2v0.2h0.2V51h0.2v-0.2l-0.2,0.2v-0.2h0.2v-1h0.2v-1.4l0.2-0.2v-0.2h-9.1v0.2h0.5v0.2l0.2-0.2L272.8,48.4z M261,47.9
	v0.2h-0.5l0.2,0.2h0.5v-0.2h0.2v-0.2h0.2v-0.2l-0.2,0.2l-0.2-0.2v0.2H261z M266.3,47.9v0.2H266v0.2h-0.5v0.5h0.2v-0.2l0.2-0.2h0.5
	v-0.2h0.7v-0.5H267l-0.2,0.2v-0.2l-0.2,0.2H266.3z M47.2,47.7h0.2v-0.5h-0.7v0.2h0.5V47.7z M259.3,47.7h0.2v-0.2h0.2v-0.2l0.2-0.2
	v-0.7h-0.5v0.2h-0.2v0.2h-0.2v0.7h0.2L259.3,47.7z M265.3,46.7h0.2v-0.2h-0.2v-0.2h-0.2v0.2L265.3,46.7z M210.6,12.6h-0.7v0.5h0.2
	l0.2,0.2h0.2v0.2h0.7l0.2-0.2v-0.2h-0.2l-0.2-0.2h-0.2L210.6,12.6z M118.9,37.6h0.2v0.2h-0.2v0.2h-0.5v0.5H118v-0.3l0.2-0.2l0.2-0.2
	v-0.2h0.2v-0.2h0.2L118.9,37.6z M206.5,9.8h0.2L207,10h0.2l0.2,0.2h0.2v0.2h0.3v0.2h0.2l0.2,0.2h0.2v0.2l0.2,0.2v1.2h-0.5v-0.2h-0.2
	v-0.2l-0.2-0.3v-0.2h-0.2v-0.2l-0.2-0.2v-0.2h-0.2v-0.2H207l-0.2-0.2h-0.2v-0.2h-1v0.2h-0.2l-0.2-0.2V10l0.2-0.2l0.2-0.2h1
	L206.5,9.8z M125.4,50.1v-0.2h0.2L125.4,50.1z M161.9,27.7h-0.2l0.2-0.2V27.7z M199.3,6.9h1.4l0.2,0.2h0.2v0.2h0.2v0.7h1l0.2,0.2
	l0.2,0.2h0.2l0.2,0.2h0.2l0.2,0.2h0.5v0.2h0.2V10h-0.2l-0.2,0.2h-0.2l-0.2-0.2l-0.2-0.2h-0.2V9.5H203l-0.2-0.2h-0.2L202.2,9L202,8.8
	h-0.2V8.5h-0.2l-0.2,0.2v0.5H201V9h-0.2V8.8h-0.2l-0.2-0.2h-0.5V8.3h-0.5l-0.2-0.2l-0.2-0.2l-0.2-0.2V7.1l0.2-0.2h0.2V6.6L199.3,6.9
	z M213.3,16h0.2v0.7h0.2V17h0.5l0.2,0.2l0.2,0.2h-0.2v0.2h-0.2v0.2l0.2,0.2l0.2,0.2l0.2,0.2v0.2h0.2v0.5l-0.2,0.2h-0.2l-0.2-0.2
	h-0.2v-0.3h-0.5v0.2l0.2,0.2v0.2h0.2v0.2h0.2v0.2l0.2,0.2h0.2v0.2h0.2v-0.5l0.2-0.2h1.2v0.2h0.2l0.2,0.2h0.2v0.2h0.2v0.7l-0.2,0.2
	l-0.2,0.2v0.5h0.2v0.2l-0.2,0.2v0.2l0.2,0.2v0.2h0.2v0.2h0.2v0.7h-0.2v0.2l-0.2-0.2v-0.2h-0.2v-0.2h-0.5l-0.2-0.2v-0.7h-0.7v0.2
	h-0.7v-0.2h-0.2l0.2-0.2v-0.2h-0.2v-0.2h-0.2v-0.2H213l-0.2-0.2h-0.2v-0.2h-0.2v-0.2H212v-0.2h-0.2v-0.5h0.2v-0.2l0.2-0.2h0.2v-0.7
	l-0.2-0.2v-0.2l0.2-0.2v-0.2h0.2v-0.5h0.2v-0.2h0.2v-0.5h-0.7v0.2h-0.2v0.2l-0.2,0.2l-0.2,0.2h-0.2l-0.2-0.2v-0.5l0.2-0.2v-0.2
	l0.2-0.2l0.2-0.2l0.2-0.2l0.2-0.2V16h0.2v-0.2h0.5L213.3,16z M182.1,5v0.7h-0.2v0.2h-0.5v0.2h-0.2v0.7h-0.5v0.2h-0.5v0.2h-0.2v0.5
	h-0.2v0.2h-0.5v0.5h-0.2v0.2h-0.5v0.5h-0.2v0.2h-0.5v0.2h-0.2v0.5H177v0.2h-0.2v0.2H176l-0.2-0.2h0.2v-0.2l0.2-0.2V9.7h0.2V9.5h0.2
	V9.3h0.2v-1h0.2V8.1h0.5V7.8h0.5V7.6h-1v0.2h-0.7V7.3h-0.2v0.2H176V8h-0.2v0.2h-1.2V8.1h-1.9v0.2l-0.2,0.2h0.2l0.2,0.2h0.5V9
	l-0.2,0.2v1.2h-0.5l-0.2,0.2h-1v0.2h1.2v-0.2h0.2v0.7h-0.2v-0.2h-0.2v0.5h0.2v0.5h-0.5v0.7H172v0.2h0.7v0.2h0.2v0.2h-0.7v0.2h-2.2
	v0.2h0.2v0.2h0.7v0.5h-0.7V15H170v0.7h0.2V16H170v0.2h-0.2v0.5h-0.2V17h0.7v-0.3h0.5l0.2,0.2h-0.2v0.2h-0.2v0.2h-0.2v0.2l-0.2,0.2
	h-0.2v0.2h0.7l0.2-0.2h0.5v0.2h0.2v0.2H171v0.2h-0.2v0.2h0.5v0.2h-0.5l-0.2,0.2H170v0.2h-2.1v0.7h-0.2v0.2h-0.2v-0.5h-0.5v0.2h-0.5
	v0.2h-0.2v0.2H166V21h-0.2v-0.2l0.2-0.2h-0.2v0.2h-0.2V21h-0.7l0.2-0.2v-0.2l0.2-0.2V20H165v-0.2l-0.2-0.2h-0.5v0.2H164v0.5h-0.2
	v0.5h-0.2v-0.5l0.2-0.2v-0.7h0.2v-0.2h-0.5v0.5h-0.2v0.2h-0.5v-0.5h0.2v-0.2h-0.2l-0.2-0.2v0.2h-0.2v-0.2l-0.2,0.2v-0.2h-0.5v-0.5
	h-0.2v0.2h-0.2v0.2l-0.2,0.2h-0.2v0.2h-0.5v0.2h-0.5v-0.2H159v-0.2h0.5v-0.5l0.2-0.2v-0.2h-0.2v0.2H158l-0.2,0.2h-0.5v-0.5h0.7v-0.2
	h-0.2l-0.2-0.2h-1.4v-0.2h0.2v-1h-0.2v0.5h-0.5v0.2h0.2v0.5l-0.2,0.2h-0.2v-0.2h-0.2v-0.2h-0.2v0.2l-0.2-0.2v0.2h-0.5l-0.2-0.2h-0.5
	v-0.2l-0.2,0.2H153v0.2h-1v0.2h-1.2v0.2l-0.2-0.2h-0.5v-0.2h-0.5v0.2h-0.5l-0.2-0.2h-0.2l-0.2-0.2h-0.2l-0.2-0.2h-0.2v-0.2h-0.2
	l-0.2-0.2l-0.2,0.2h-1.9v-0.2l-0.2-0.2h-0.7v0.2h-2.9l-0.2-0.2l-0.2,0.2h-0.7l-0.2,0.2h-0.7l-0.2-0.2h-0.7v0.2h-0.5v0.2h-1.4v-0.2
	l-0.2-0.2h-0.2l-0.2,0.2H135l-0.2,0.2l-0.2,0.2l-0.2,0.2l-0.2,0.2v0.2h-0.2v0.2h-0.2v0.2h-0.2l-0.2-0.2h-0.2v-0.7l-0.2-0.2h-0.5
	l-0.2,0.2l-0.2,0.2l-0.2,0.2h-0.2l-0.2,0.2l-0.2,0.2h-0.2l0.2,0.2v0.2h0.2v0.2h0.5l0.2-0.2h0.7v0.5h-0.2v1l-0.2,0.2h-1v-0.2h-1.2
	v0.2h-0.2l-0.2,0.2v0.5h1l0.2,0.2v1h-0.2V23H130v0.2l-0.2,0.2V24h-0.2v0.2h-0.2v0.2H129v0.7h-0.2l-0.2,0.2h-0.7l-0.2,0.2h-1.2v0.2
	h-0.2v0.2h0.2l0.2,0.2h0.2l0.2-0.2h0.7v-0.2h1l0.2,0.2v0.2l-0.2,0.2h0.2V27l0.2,0.2v0.2H129V28h-0.2v0.2h-0.2v0.2h-0.2l-0.2,0.2
	h-0.2l-0.2,0.2h-0.2l-0.2,0.2h-0.2l-0.2,0.2h-1v0.2h-0.5v0.2h-0.2l-0.2,0.2v-0.5h0.2v-0.5h-0.2l0.2-0.2v-0.5h0.2V28h-0.2l-0.2-0.2
	h-0.2V28h-0.2v0.2H124v0.2h-0.2l-0.2,0.2l-0.2,0.5l-0.2,0.2v0.2h-0.2v0.5h-0.2v0.2h-0.2v0.7h-0.2v0.2h-0.2v0.2l-0.2,0.5h-0.2v0.2
	h-0.2l-0.2,0.5h-0.2v0.5h-0.2v0.5h-0.2l-0.2,0.2h-0.2l-0.2,0.2l-0.2,0.2h0.2v0.2h-0.2v-0.2l-0.2,0.2h-0.2V35h-0.2v0.5l-0.2,0.2v0.2
	H118v0.2h-0.2v0.2l-0.2,0.2v0.5l-0.5,0.2l-0.2,0.2v0.5l-0.2,0.2h1.2l-0.2,0.2v0.7h-0.2v0.5h0.7v-0.3h0.5v-0.2h0.2l0.2,0.2h0.2v0.2
	h0.2V40l-0.2-0.2h-0.5v0.7h-0.2V41h-0.2v0.5l-0.2,0.2l-0.5,0.2v1.2h-0.2v0.5l-0.2,0.2v0.2h-0.2l0.2,0.2h-0.2v0.5h-0.2v0.5l-0.2,0.2
	h-0.2v0.2l-0.2,0.2v0.2h-0.2v0.2l-0.2,0.2h-0.2V47h-0.2v0.2h0.5V47h0.7v-0.3h0.5l0.2-0.2v0.2h1l0.2,0.2v-0.2h0.5l0.2,0.2l0.2,0.2
	h0.2v0.2h0.2l0.2-0.2h0.5v-0.2h0.2l0.2-0.2h0.2v-0.2h0.5l0.2-0.2h0.2l0.2-0.2h-0.2l0.2-0.2v0.5h1V46h0.2l0.2,0.2h0.2V46h0.2v0.2
	h-0.2v0.2h0.5l0.2,0.2h0.2V47h0.2v0.2h0.2v0.2h0.2v0.7h0.2v0.2h-0.5v0.2H125l0.2,0.2v0.2h0.2v0.2h0.2v0.2h-0.5v0.5l0.2,0.2v0.5h0.2
	v0.7h0.5l0.2,0.2V52h0.2l0.2,0.2h0.2v0.2h0.2v-0.2h0.7v-0.5l0.2-0.2h0.5v-0.2h0.2V51l0.2-0.2l0.2-0.2l0.2-0.2h0.3l0.2-0.2h0.5
	l0.2-0.2h1.4v-0.2h0.2v-0.2h0.5v-0.2h0.2v-0.2h0.2v-0.2h2.4v-0.2l0.2,0.2h1.2v0.2h0.2l0.2-0.2h0.5l0.2-0.2v0.2h1l0.2-0.2v0.2h0.2
	v0.2h1v-0.2h0.2v-0.2l0.2-0.2h1.2v0.2h0.2v0.2h0.5v-0.2h0.2v-0.2h0.2v-0.2h0.2v-0.2h0.5v-0.5h0.2v-0.2l0.2-0.2v-0.2h0.2V46h0.2
	l-0.2-0.2h0.2V46l0.2-0.2h0.2v-0.3l0.2-0.2h0.2l0.2-0.2h0.5v-0.2l0.2-0.2h0.2v-0.2h1.2l0.2-0.2v0.2h0.2v-0.2l0.2,0.2h0.2l0.2-0.2
	v0.2l0.2-0.2h0.2l0.2-0.2h-0.5v-0.2h-0.2v-0.2h0.2l0.2-0.2v-0.2h0.2v-0.2l0.2-0.2l0.2-0.2h0.2v-0.2l0.2-0.5v-0.2h0.2v-0.2h0.5v-0.5
	h0.2v-0.2h0.5v-0.5h0.2l0.2-0.2h0.2v-0.2h1V39l0.2-0.2h0.2l0.2-0.2l0.2-0.2h0.2l0.2-0.2v-0.5h-0.2v-0.2h-0.5l-0.2-0.2v-2.9h0.2v-0.5
	h0.2v-0.2h0.2v-0.2h0.2V33h0.2v-0.2l0.2-0.2l0.2-0.2h0.2V32h0.2v-0.2l0.2-0.2v-0.2h0.2l0.2-0.2h0.2v-0.2l0.2-0.2l0.2-0.2h0.2v-0.2
	l0.2-0.2h0.2v-0.2h0.2v-0.2h0.2v-0.2l0.2-0.2l0.2-0.2l0.2-0.2l0.2-0.2h0.2v0.2h0.2V28h0.7v-0.7h-0.2V27h0.2v-0.2h0.2v-0.2h0.2v-0.2
	h0.2v-0.2h0.2v-0.2h1v-0.2h0.6l0.2-0.2h0.2l0.2-0.2h1v-0.2h1l0.2-0.2h0.2v-0.2h0.2v-0.2h0.2v-0.2h0.2v-0.2h0.5v-0.2h0.5v-0.2h0.5
	v-0.2h0.5l0.2-0.2h0.2v-0.2h0.5l0.2-0.2h0.2V22h0.2v-0.2h0.5v-0.5h0.2v-1H173v-0.7h0.7v-0.2h0.2l-0.2-0.2h-0.2v-1H173l0.2-0.2v-1
	l0.2-0.2v-1h0.2v-0.1l0.2-0.2V15h0.2v-0.2h0.2v-0.2h0.5v-0.2h1v-0.2h0.2v-0.2h0.2l0.2-0.2h0.2l0.2-0.2l0.2-0.2h0.2l0.2-0.2h0.7v0.2
	h-0.2v0.2h1.9v0.2l-0.2-0.2v0.5h0.7v-0.2l0.2,0.2l0.2-0.2h0.5v0.5h1v-0.2h0.2v0.7h0.5l0.2,0.2h0.4V15h0.5v0.5h0.2V15h0.2v0.2h1V15
	l0.2,0.2V15h0.2v0.2h0.2V15h0.5l0.2-0.2h0.5v-0.2h0.2v-0.2h-0.2v-0.2h0.2l0.2-0.2v-0.2h0.6v-0.2h0.2v-0.5h0.8v-0.5h0.5v-0.2h0.5
	v-0.2h0.5l0.2-0.2h1v-0.2h1v-0.2h0.5v-0.2h0.2v-0.2l0.2-0.2h0.2V10h0.1V9.7h0.5V9.5l0.2-0.2V9h0.3V8.8h0.5V8.5h0.2l0.2-0.2h0.5v0.2
	h0.7l0.2,0.2V9h0.2V8.8h0.5V9h0.2v0.2h0.5v0.3h0.2V10h0.5v0.2h0.2V10h0.2v0.2h0.2v0.2h0.5l0.2,0.2V11h0.2v2.4h0.2v0.2h0.2v0.7h0.2v1
	h-0.2v0.5h-0.2V16h1v0.2h0.2v0.2l-0.2,0.2V17h0.7v0.2l0.2,0.2v0.2h0.2v0.5h0.2v0.5h-0.5v0.2h0.2v0.2h0.2v-0.2h1v0.2h0.5v0.2h0.2v0.2
	l0.2,0.2v0.5h0.2v0.5h0.5V21h0.2l0.2,0.2h0.2v0.2l0.2,0.2v0.5h0.2v0.2h0.2v0.2h0.2l0.2,0.2v0.2l0.2,0.2v0.5h0.5l0.2,0.2v-0.2h0.2
	v0.2h0.5v0.2l0.2,0.2v0.5h0.2v-0.2h0.2v-0.2h1v0.2h0.2v0.2h0.5v-0.2h0.5l0.2,0.2l0.2,0.2v0.2h0.2v0.7h0.2v0.5l0.2,0.2H215v0.2h0.2
	V27h0.2v0.2h0.2V27h0.5v0.2h0.2v0.2h0.2v0.2l-0.2,0.2l-0.2,0.2h-0.2v0.2h0.2v-0.2h1V28h0.2l0.2,0.2V28h0.5v0.5h0.2V29l0.2,0.2v0.5
	h-0.5l0.2,0.2h-0.2v0.2h0.2v0.5h0.6v0.2h0.2v0.5h0.2l0.2,0.2h0.3v-0.2h0.2v-0.3h0.5v0.2h0.2v0.2h0.2v2.2h0.2V34h0.2v1l0.2,0.2v0.2
	l-0.2,0.2v0.5l0.2,0.2v0.5h0.2v1h-0.2v0.2h-0.2v0.2l-0.2-0.2h-0.2l-0.2,0.2h-0.2l-0.2,0.2v0.2l0.2,0.2v0.5h-0.2v0.2h-0.2v0.5H220
	v0.2h-0.2v0.2h-0.5v0.7H219l0.2,0.2V42H219l0.2,0.2v0.2h1.4l0.2-0.2h0.2v-0.5l0.2-0.2v-0.2l0.2-0.2l0.2-0.2l0.2-0.2h0.2v-0.2h0.5V40
	h0.2v-0.2h0.2v-1.7h0.2v-0.2l0.2-0.2h0.2l0.2-0.2l0.5-0.2h1.2l0.2-0.2v-0.2l-0.2-0.2v-0.5l0.2-0.2v-0.2H226l0.2-0.2v-0.7H226v-0.2
	h-0.2V34h-0.5v-0.2l-0.3-0.3h-0.7v-0.2H224v-1l0.2-0.2l0.2-0.2l0.2-0.2v-0.2h-0.2v-0.2h0.2v-0.2h0.2v-0.2l0.2-0.2v-0.2l0.2-0.2h0.2
	v-0.2l0.2-0.2v-0.2h0.2v-0.2h0.2l0.2-0.2h0.5l0.2,0.2h0.2v0.2h-0.2v0.2h0.2v0.2h0.7v0.2h1.4v0.2h0.2v0.5h0.2v1.2h0.2v0.2h0.2v0.2
	h0.5v0.2h0.2l0.2-0.2v-0.7h0.3v-0.2h0.2v-0.2l0.2-0.2l-0.2-0.2v-0.7H232v-0.2l-0.2-0.2l-0.2-0.2v-0.2H231v-0.2h-0.2V28h-0.2v-0.2
	l-0.2,0.2l-0.2-0.2h-0.2v-0.3h-0.2l-0.2-0.2h-0.5V27h-0.2l-0.2-0.2h-0.2v-0.2l-0.2-0.2h-0.2V26h-0.2v-0.2h-0.5v-0.2h-0.5v-0.2
	l-0.2,0.2v-0.2h-0.5v-0.2h-0.5v-0.2h-0.5v-0.2h-0.5v-0.2h-0.5v-0.2h-0.5v-0.2h-0.2v-0.2h-0.2v-0.7h0.2v-0.2h0.2l0.2-0.2l0.2-0.2h0.2
	v-0.7h-0.2v-0.2h-1.4v0.2h-0.2v-0.2h-0.5l-0.2,0.2l-0.2,0.2v-0.2h-0.2v0.2h-0.2v-0.2h0.2l-0.2-0.2h-1V21h-0.2v-0.2h-0.7v-0.2h-0.2
	V20h-0.2v-0.2h-0.5v-0.2h-0.2v-0.2l-0.2-0.2v-0.2H217l-0.2-0.2l-0.2-0.2v-0.2h-0.2v-0.2l-0.2-0.2v-0.2l-0.2-0.2v-1h-0.2v-1.4h-0.2
	v-0.7l-0.2-0.2v-1h-0.2v-0.2h-0.5l-0.2-0.2H214l-0.2-0.2v-0.2h-0.2v-0.2h-0.2l-0.2-0.2v-0.2h-0.2v-0.2h-0.5v-0.2h-0.5v-0.2h-0.2
	v-0.2h-0.7v0.2l-0.2-0.2h-0.2V10h-0.5V9.7h-0.7V9.5H209V9.3h-0.2V9h-0.2V8.8H208V8.5h-0.2l-0.2-0.2h-0.2V8.1h-0.7V7.8h-0.7v0.2h-0.2
	V7.6h-0.7V7.3h-0.5V7.1h-0.2V6.9h-0.7V6.6h-0.7V6.4h-0.2V6.1h-0.7V5.9h-0.5V5.7h-1V5.4h-0.5V5.2h-1v0.2h-0.5v0.2l-0.2,0.2h-0.2
	l-0.2,0.2v0.2h-0.2v0.2h-0.2V6.4h-0.2V5.9h-0.2v0.2h-1.4v0.2H195V6.1h0.2V5.9h0.2V5.7h0.7V4.9h-0.5v0.2h-1.2v0.5h-0.2v0.2h-0.5v0.2
	h-0.2v0.2h0.2v0.7h-0.2v0.2h-0.2v1h-0.2v0.2h-0.2v0.2h0.2V8.5h0.2l0.2-0.2h0.2v0.2h0.2V8.3h1V9h-0.2v0.2h-0.2V9h-0.2v0.2h-0.2v0.3
	l-0.2,0.2h-1v0.5h0.2v0.2h-0.2v-0.2h-0.2v0.2h-0.2v-0.2h0.2V10h-0.2V9.7h-0.2V10h-0.2v0.2l-0.2,0.2h-0.2v-0.2h-0.2V10h-0.5V9.7h-0.5
	v0.5h-0.5V9.7h-0.5V9.5H189v0.7h-0.5V10l0.2-0.2l0.2-0.3V9.3h-0.2v0.2h-0.2v0.2l-0.2,0.2h-0.5V9.7h0.5V9.3H188v-1h-0.2V8.1h0.7V7.6
	h0.2V7.3h0.2V7.1h-0.2v0.2h-0.2v0.2H188v0.2l-0.2-0.2h-0.5V7.3h-0.5v0.2h-0.2V7.3h-0.5v0.2h-0.5V7.3h-1V7.1h0.2V6.9h-0.5V6.6h0.2
	V6.4h-0.5V6.1H184v0.2h-0.2v0.2h-0.5V6.1l0.2-0.2h0.2V5.7h0.2V5.4h-0.2v0.2h-0.2V5.4l0.2-0.2l0.2-0.2h-0.5v0.2h-0.2V4.9h-0.5V3.2
	h0.2V3l0.2-0.2V2.5L183,2.3v0.5h-0.2V3h-0.2v1.5h-0.2v0.5L182.1,5z M125.9,48h-0.2l0.2-0.2V48z M211.8,16.3v0.2l-0.2,0.2V17h-0.5
	v-0.7l0.2-0.2h0.2L211.8,16.3z M122.3,45.3h-0.2V45h0.2V45.3z M212.1,14.6h0.2V15h-0.2v0.2h-0.7v-0.5l0.2-0.2l0.2-0.2h0.2
	L212.1,14.6z M119.2,39.3V39h0.2L119.2,39.3z M126.6,47.4v-0.2h0.2L126.6,47.4z M119.4,36.9v-0.2h0.2L119.4,36.9z M258.1,44.3h0.2
	v0.2h0.2v-0.2h0.2v-0.2h-0.2v-0.2h-0.7v0.2h0.2L258.1,44.3z M209.1,40.9h-0.5v0.2h-0.2v0.5H208v0.2h-0.2v-0.2h-0.2v-0.5h-0.2
	l-0.2,0.2h-0.2v0.2h-0.5l-0.2,0.2v0.2l-0.2,0.2h-0.2v1.2h0.2v0.2h0.2l0.2,0.2v0.2h0.2l0.2-0.2h0.5v0.2l0.2-0.2v0.2h0.2v0.2h0.7v0.2
	l0.2,0.2v0.2h0.2v0.2h0.2l0.2,0.2h0.5V46h0.2v0.2h0.2v0.2h0.5v0.2h1.4V47h0.2l0.2,0.2v0.2h0.2v0.5h0.2v0.5h0.5l0.2,0.2h1l0.2,0.2
	h0.5v0.2l0.2-0.2v-1h0.2v-0.2h0.2v-0.2h0.2v-0.2h0.2v-0.5h-0.2V46h0.2v-0.2h-0.5v-1.2h0.2v-0.3h0.2v-0.5h0.2v-0.7h0.2v-0.2h0.2v-0.2
	l0.2-0.2l0.2-0.2v-0.2h0.2l0.2-0.2v-0.2l0.2-0.2l0.2-0.2v-0.2h0.2v-0.2h-0.7v0.2h-0.5l-0.2,0.2h-0.5v0.2h-0.2l-0.2,0.2v-0.2h-0.5
	v-0.2h-0.5v0.2h-0.5l-0.2,0.2l-0.2,0.2h-1v0.2h-1v-0.2l-0.2,0.2h-0.2v-0.2H212v0.2h-0.5v0.2H211v-0.2h-0.5v-0.2h-0.2v-0.2h-0.5v-0.5
	h-0.2v-0.2l-0.2,0.2L209.1,40.9z M239.6,43.1h0.2v0.2h0.2v0.2h0.2v0.2h0.2v-0.5h0.2v-0.5h-0.7v-0.5h-0.5L239.6,43.1L239.6,43.1z
	 M48.6,42.9h-1.2v-0.2h-0.7v0.5h0.2v0.2h0.7v0.2h0.7v-0.2h1v-0.2h0.2v-0.5h-0.2l-0.2,0.2v-0.2h-0.2v0.2L48.6,42.9z M251.4,43.6h0.2
	v-0.2h0.2v-0.2h-0.7v0.2h0.2L251.4,43.6z M256.4,42.1v0.2h0.2v0.2h0.2v0.2h0.2l-0.2,0.2h0.5v0.5h0.2v-1.2h-0.5v-0.2h-0.2v-0.2h-0.2
	v0.2L256.4,42.1z M239.9,40.2v-0.5h0.5v-0.2h-0.7v0.7h-0.7v0.5h-0.2v0.5h0.2v-0.2h0.2v0.5h1v0.2h0.2l0.2-0.2v-0.2h-0.2v-0.2
	l-0.2-0.2v-0.2l-0.2,0.2L239.9,40.2L239.9,40.2z M239.2,40.7l-0.2-0.2h0.2V40.7z M266.8,29.2v0.2h-0.5v-0.2h-0.2v0.2h-0.2l-0.2-0.2
	l-0.2,0.2v0.2h-0.2v0.2h-0.2v0.2h-0.2v0.2h-0.5v0.5h-0.2v0.5h-0.2v0.2h-0.2v-0.2h-0.2v0.2l-0.2,0.2l0.2,0.2h-0.2v1.4h-0.2v0.7h1.2
	V34h0.7l0.2-0.2h1.2v0.5h-0.2v0.2h-0.2v0.2h-0.2V35h-0.2v0.5h0.2v0.5h0.2l0.2,0.2v0.2h-0.2v0.7h0.5v-0.2h0.2v0.2h0.2v0.2h-0.2v0.2
	h-0.5v0.2h0.2v0.2l-0.2-0.2v0.2h-0.7v0.2h0.2v0.5h0.2V39l0.2,0.2v0.2h1v0.2h-0.5l-0.2,0.2h-1v-0.2h-0.2v0.5h-0.2l0.2-0.2h-0.2v-1
	h-0.2v-0.5h-0.2l-0.2-0.2v0.2h-0.2v0.7h0.2v0.2h0.2V40l-0.2,0.2h-0.5V40h-0.2v0.7h0.5V41h0.5v0.2h0.2v0.2h0.2V41h0.5v-0.3l0.2,0.2
	v0.2h0.2v0.5h0.7l0.2,0.2h0.2v0.2l0.2-0.2v0.2h0.2v0.5H267v0.2h0.2v0.2l-0.2,0.2l-0.2,0.2h-0.5v-0.5H266v0.2l-0.2-0.2h-0.2v-0.2
	h-0.5l-0.2,0.2h-0.5v0.5h0.7v0.2l0.2,0.2v-0.2h0.2v-0.2h0.5v0.2h0.7v0.2h0.2v0.2h-0.2v0.5h0.2V45l-0.2,0.2h0.2v0.2h1v0.2h0.5v0.5
	h-0.2v0.5h-0.5l-0.2-0.2H267v1h0.2v-0.2h1l0.2,0.2h0.2v-0.2h1L270,47v0.2h0.5l0.2-0.2h1v0.2h-0.5v0.2H271v0.2h-0.2v-0.2h-0.2v0.5
	h-0.2v0.2h0.2v0.2h0.2v0.2h-0.2v0.7h-0.2v0.2h0.2v-0.2h0.2v-0.3h0.2v-0.2h0.2v-0.2h0.2v-0.2h-0.2v-0.2l0.2-0.2v0.2h0.2v0.2h0.2v-0.5
	h20.8v-0.2h-0.2l-0.2-0.2v-0.2h0.2v-0.2h0.5v-0.2h-0.5l-0.2-0.2h-0.5l-0.2-0.2V46H291v-0.2h-0.2V46h-0.5v-0.2H290l-0.2,0.2l-0.2,0.2
	h0.7l0.2,0.2v0.2h-0.2l-0.2-0.2h-0.2v0.2L290,47v0.5l-0.2-0.2h-0.7V47h-0.2v-0.3h-0.2v-0.2h0.2v-0.2h-0.2v-0.7h-0.2l-0.2-0.2v-0.5
	h-0.5v0.7l0.2,0.2V46l0.2,0.2v0.5h0.2V47h0.2v0.2h-0.2l-0.2-0.2v-0.3l-0.2-0.2h-0.2v-0.2h-0.2V46h-0.2v-0.2h-0.2v-0.3h-0.5v-0.2
	h-0.2V45H286v-0.2h-0.5v-0.2l-0.2-0.2V44h0.2v-0.2H285V44h-0.5v-1l-0.2-0.2v-0.2H284v-0.7l-0.2-0.2l-0.2-0.2l-0.2-0.2v-0.2h-0.2
	v-0.5l-0.2-0.2v-0.5l-0.2-0.7v-0.7h0.2v-0.2h1v0.2l0.2-0.2v-0.5l0.2-0.2v-0.5l-0.2-0.2h-0.7v-0.7l-0.2-0.2v-0.2l-0.2-0.2l-0.2,0.2
	v1.2l0.2,0.2h-0.2v0.2h-0.2v0.2l-0.2-0.2l-0.2-0.2h-1v-0.2h0.2v-0.2h-0.5v-0.5l-0.2-0.2v-0.7h-0.2l-0.2,0.2l-0.2-0.2v-0.5l-0.2-0.2
	h0.2v-0.5l0.2-0.2h1l0.2,0.2l0.2,0.2h-0.2l-0.2,0.2v0.2h-0.2v0.7h0.7l-0.2-0.2v-0.5h0.7l0.2,0.2l0.2-0.2v-0.2l0.2-0.2h0.2v0.2h0.7
	l0.2,0.2h0.5l0.2,0.2v0.5h1l0.2,0.2h0.7l0.2-0.2v-0.5h-0.5V34H286v-0.2h-0.7l0.2-0.2l-0.2-0.2L285,33h-1l-0.2,0.2h-0.5V33l-0.2-0.2
	v-0.5h0.2l0.2-0.2v-0.2h-0.7v0.2h-0.5l-0.2-0.2h-1l-0.2-0.2h-0.2l-0.2-0.2v-0.2h0.2v0.2h0.7v-0.2h-0.2v-0.2h-0.2v-0.2h-0.5v-0.2
	h-0.7v0.2h-0.2v0.2l-0.2-0.2l-0.2-0.2h-0.5l-0.2,0.2H278l-0.2,0.2v0.2h-0.5l-0.2-0.2l-0.2-0.2v-0.2h-1l-0.2-0.2v-0.2h-1.2l0.2-0.2
	h0.2v-0.2h0.2l0.2-0.2l-0.2-0.2v0.2h-0.2v0.2h-2.9l-0.2-0.2v0.2l-0.2-0.2v0.2H270l-0.2,0.2h-0.2l-0.2,0.2v-0.2h-0.5v0.2h-0.5v-0.2
	H268l-0.2-0.2v-0.5h-0.2v0.2h-0.2v-0.2H267v0.2H266.8z M267.8,45.3h-0.2V45h0.2V45.3z M261.5,39.3l0.2,0.2h0.2v1h-0.5v0.2h0.2V41
	h0.2v0.2h0.2V41h0.2v-0.5h0.2V39h-0.2v-0.2h-1L261.5,39.3L261.5,39.3z M248.3,40.3h0.2v0.2h0.2v0.2h0.7V41l0.2-0.2V41h0.5l0.2,0.2
	v0.2l-0.2,0.2h-0.7v-0.2l-0.2,0.2v0.2h0.2v0.2h-0.2v0.2H249l-0.2-0.2l-0.2-0.2v-0.2H248v-0.2h-0.5v-0.2h-0.7V41h-0.7v-0.5h-0.5v-0.2
	h-1v0.2h-0.2v0.2h-0.2v0.5h-0.7l-0.2-0.2h-0.5v0.7l-0.2,0.2l-0.2,0.2H242v0.2h-0.2l-0.2,0.2v0.2h0.5l0.2,0.2v0.2l0.2,0.2h-0.2v0.2
	h0.5l0.2,0.2h0.2v0.2h0.2v0.2l0.2,0.2V46h-0.2l-0.2,0.2V47l0.2,0.2v0.2h0.2v0.2h-0.2v0.2l0.2,0.2l0.2,0.2v-0.2h0.2v0.5h0.2v-0.2h0.2
	v-1.2h0.5V47h0.2v0.2h0.2v0.5h0.2v0.5h0.2v0.5h0.2v1l-0.2,0.2h0.2v0.2h0.2v0.2h0.2v-1h0.2v-0.3h-0.2v-0.2h0.2v-0.2h0.2v-0.2h0.2
	v-0.2h0.5l0.2,0.2v0.5h0.2v0.5h0.2v0.5h0.5v0.2h0.5v-0.2h-0.2v-0.2l-0.2-0.2v-0.7h0.2v-0.5h-0.2v-0.7H249l0.2-0.2v-0.5H249v-0.2
	l-0.2,0.2v-1h-0.2v-0.5h-0.2V44h0.2v0.5h0.7v0.2h0.8V45h-0.2v0.5h0.2v0.2h0.2v-0.2h0.2v-0.2l0.2-0.2h0.7v-0.2l-0.2-0.2v-0.2h-0.7
	v-0.2H250v-0.2h0.2l-0.2-0.2h0.2v-0.2H250v-0.2h0.2v-0.2h-0.7v-0.5h0.7v-0.2h1v-0.2h0.2v0.2h0.2v-0.5h0.5v0.2H252v0.2h0.2v0.2h0.2
	l0.2,0.2v0.2l0.2,0.2v-0.2h0.2v0.2l0.2,0.2v0.2l0.2,0.2h0.2v-0.5h0.2v-0.5h-0.2v-1.2l-0.2-0.2h0.2v-0.2h0.2v-0.5h-0.2l-0.2-0.2h-0.2
	v-0.2h-1v-0.5h-4.8V40h0.2v0.5h0.2v-0.2L248.3,40.3l0-0.3h0.2L248.3,40.3z M37.6,39.5l0.2,0.2h0.7V40h0.2v-0.2h0.7v-0.3H39v-0.2
	h-0.2V39h-1v0.2L37.6,39.5z M250.2,36.9v0.2h-0.5v0.2h-0.5v0.2h0.7v-0.2h0.2v0.2h0.5l0.2,0.2h0.2v0.2l0.2,0.2h0.2v0.2h0.2V39
	l0.2-0.2V39h0.2v0.7h0.5V40h0.2v-0.2l0.2,0.2h0.7v0.2h0.2v0.2h0.2l-0.2,0.2h0.2V41h-0.2l0.2,0.2v0.2h0.4v0.2h-0.2v0.2h0.2l0.2,0.2
	v-0.3h0.2l0.2,0.2h0.3v-0.2h0.2v-0.7h-0.7v-0.2l-0.2,0.2v-0.2h-0.5V40h-0.2v-0.5l0.2-0.2V39h-0.2v-0.5h-0.2v-0.2h-0.5v0.2h-0.2v-0.2
	h-0.7v-0.5h-0.2v0.2h-0.2v-0.2h-0.2l-0.2-0.2l-0.2-0.2v-0.5h-0.2v-0.2l-0.2-0.2l-0.2,0.2h-0.5v0.2L250.2,36.9z M39.7,38.5H40
	l0.2,0.2h0.2V39h0.2v0.2H41v-0.5h-0.3v-0.2h-0.2v-0.2H40v-0.2h-0.5v0.2h0.2V38.5z M37.1,38.8h-0.2v0.5h0.7V39h0.2v-0.2h-0.2v-0.2
	h-0.2v0.2L37.1,38.8z M161.7,38.5L161.7,38.5v-0.5h-0.5v0.5l0.2-0.2L161.7,38.5z M256,37.3v0.2h0.2v0.2h0.5v-0.2h-0.2v-0.5h-0.2
	v-0.2H256C256,36.9,256,37.3,256,37.3z M262.7,34.9v0.2h-1v0.7h0.3v0.2h0.7v-0.2h0.2v-0.2h0.5v0.2h-0.2v0.2h-0.5v0.5h0.7l0.2,0.2
	h0.7v-0.2l-0.2-0.2v-0.2h0.2v-0.5h-0.2v-0.2h-0.2v-0.5h-0.2v-0.2H263v0.2L262.7,34.9z M252.9,36.4h0.2v-0.2l-0.2-0.2h-0.2v0.2h0.2
	V36.4z M196,25.3h-0.2v0.2h-0.5l-0.2,0.2h-0.2v0.2h-0.2v0.2l-0.2,0.2h-0.5v0.2h-0.2l-0.2,0.2h-1.2v-0.2l-0.2-0.2V27h-0.2v0.5h-0.2
	v0.2h0.2V28h-0.2v0.2h0.2l-0.2,0.2h0.5v0.2h0.2v0.7h-0.2v0.2h0.2v0.2h0.2l-0.2,0.2v0.5h-0.2l0.2,0.2v0.2h-0.5v0.2l-0.2,0.2v0.5h0.2
	v-0.2h0.2v1h-0.5v0.7l-0.2,0.2L191,34v0.5l-0.2,0.2V35h0.2v0.2h-0.2v0.2h-0.2V36l0.2-0.2v0.5h-0.5v0.7h0.2v-0.2h0.2v-0.5h0.2v0.2
	h0.2v0.2H191v0.2h0.2v0.2H191v0.2h0.2l0.2-0.2h0.2l0.2,0.2h0.2v-0.3h0.2l0.2-0.2l0.2-0.2v-0.7h0.2v-0.2h0.7v-0.2h0.2v0.2h0.5v0.2
	h0.7v-0.5h0.2v-0.2h0.2v-0.7h0.2v-0.7h0.2V33h0.2v-0.7h0.2v-1h0.2v-0.7h-0.2v-0.5h0.2v-0.5h0.2v-0.2h0.5v-0.5h0.2v-0.7l-0.2,0.2V28
	h0.2v-0.2h-0.2v-1.2h-0.2v-0.3l0.2-0.2h-0.5v-0.2h0.2v-0.5h-0.2v0.2H197v-0.7h-0.2v0.2h-0.2v-0.2H196V25.3z M253.6,35.9h0.5v-0.2
	h-0.2v-0.2h0.2v-0.2h-0.2v0.2h-0.2L253.6,35.9L253.6,35.9z M169.1,32.1h-0.2v0.2h-0.5v0.2h-0.2v0.2h-0.2l-0.2,0.2h-0.2l-0.2,0.2
	h-0.2v0.2h-0.5v0.2h0.2V34h0.2v0.2h0.2V34h0.2v-0.2h0.5v1h0.7V35h0.2v0.5l0.2-0.2l0.2-0.2h0.2v-0.3l0.2,0.2v-0.2l0.2-0.2v-0.2h0.2
	V34h0.2v-0.2h0.2v-0.5h0.5v-0.5H171v-0.2h-0.2v0.2H170v-0.5h0.2v-0.2H170v-0.2h-0.5l-0.2,0.2L169.1,32.1z M258.6,31.6v0.7h0.2v0.2
	h0.5l-0.2-0.2v-0.2l0.2-0.2l0.2,0.2h-0.2v0.2h0.2v0.2h0.2v-0.7h0.2v-0.2h0.2v-0.2h-0.5v0.2h-0.5v-0.2h-0.5v0.2L258.6,31.6z
	 M173.2,31.6l-0.2,0.2h1v0.2h0.2v0.2h0.7v-0.7l-0.2-0.2v-0.2l-0.2,0.2v-0.2h-1.2L173.2,31.6L173.2,31.6z M251.9,31.3v0.2h0.5
	l0.2,0.2h0.5v-0.2h-0.2v-0.2h-0.5v-0.2l-0.2-0.2v-0.2h-0.5v0.5h0.2V31.3z M254.3,29.4v0.2h0.2v0.2h0.7v0.2l0.2,0.2v0.2h0.2v0.2h0.3
	v-0.5l-0.2-0.2v-0.2h-0.2v-0.2H255v-0.2h-0.2v-0.2h-0.2v0.2L254.3,29.4z M236.1,29.7L236.1,29.7l0.2-0.2h-0.2v-0.2h-0.2v0.2
	L236.1,29.7z M260.8,29.4h0.2v-0.2h0.2v-0.5h-0.7v0.2h-0.2l0.2,0.2h0.2L260.8,29.4z M269.7,29.2v0.2h0.5v-0.2h0.5v-0.2l-0.2-0.2h-1
	v0.2h0.2L269.7,29.2z M277.6,27.5v0.2h-1v-0.2h-0.2v0.2h-0.5V28h-1.4v0.2h-0.2l-0.2,0.2h-0.2v0.2h0.3V29h0.2v-0.5h0.2l0.2-0.2h1.7
	V28h1.2l0.2-0.2h0.2v-0.3h0.2l-0.2-0.2h-0.2l-0.5-0.2l-0.2,0.2h0.5L277.6,27.5z M257.2,28.5l0.2-0.2h0.2v-1h-0.7v0.2l-0.2,0.2v0.5
	h0.5V28.5z M274.7,26.3h0.2v0.2h0.2v0.2h0.5V27h0.2v0.5h0.2l0.2-0.2h0.7l-0.2-0.2h-0.2v-0.2h-0.5v-0.2h-0.2l-0.2-0.2l-0.2-0.2h-0.2
	v-1h-0.2v0.7h-0.2L274.7,26.3L274.7,26.3z M197.9,16.7v0.5h-1.2v0.2l-0.2,0.2h-0.7v0.2h-0.5v0.2H195v0.5l-0.2,0.2h-0.2v0.2h0.2
	l-0.2,0.2h0.2l0.2,0.2h-0.7v0.2h0.2l-0.2,0.2l0.2,0.2h0.2v0.2h0.2v0.2h-0.5V21h-0.2v0.5h0.5v-0.2h0.2v0.5h-0.2V22l-0.2,0.2v0.2
	l0.2-0.2v0.2h0.5v0.2H195V23l-0.2-0.2v0.5h0.2v0.2h0.2v0.2h0.5v0.2l0.2-0.2v0.2h-0.2v0.2h0.5v-0.3h0.2v-0.2h0.2v-0.5h0.2v-0.5h0.2
	v-0.2h0.2v-1.2l0.2-0.2l0.2-0.2v-0.2h0.2v-0.5h0.2v-2.2h-0.2v-0.2h0.2l-0.2-0.2h0.2v-0.5l0.2-0.2v-0.2h-0.2l0.2-0.2v-0.5h-0.5v0.5
	h-0.2L197.9,16.7L197.9,16.7z M201,17.2h0.2v-0.2h0.2l-0.2-0.2h-0.5v0.2h0.2L201,17.2z M202,17.2h0.2l-0.2-0.2h0.2v-0.5H202v0.2
	h-0.5v0.2h0.2L202,17.2z M226.5,16v0.2h2.2l-0.2-0.2h-1.4v-0.2h-0.5l0.2,0.2H226.5z M229.1,16.2h0.5V16h-0.2v-0.2h-1V16h0.7
	L229.1,16.2z M226,14.3h0.5l0.2,0.2v-0.2l0.2,0.2v-0.2h0.7v-0.2h-0.2v-0.2H226V14.3z M226,10.9h-0.2l-0.2,0.2v0.2h0.2v0.2l0.2,0.2
	v0.2h0.7v-0.5l-0.2-0.2l-0.2-0.2H226V10.9z M243,39.5h-0.2v-0.2L243,39.5z M224.5,11.2v0.2l-0.2,0.2v-0.2l-0.2,0.2h-0.2v-0.2h0.5
	v-0.2l0.2-0.2L224.5,11.2z M223.1,9.7h0.2V10h-0.2V9.7l-0.2-0.2v0.2l-0.2-0.2h0.5L223.1,9.7z M222.4,9.3L222.1,9v0.2L221.9,9v0.2
	h-0.5v0.5h0.2V10h0.2v0.5h0.2v0.2h0.2V11h0.2v0.5h0.7v0.5h0.5v0.2h0.5l-0.2,0.2v0.7h0.5v0.2h0.2v0.2h0.2v-0.5h0.2l0.2,0.2h0.2v-0.2
	h-0.2v-0.2h0.7v0.2h0.2v0.2h0.2v0.2h1v0.2h0.2v0.2h0.2v-0.2h0.5l0.2,0.2v0.2h0.2v0.5h-0.2V15h0.2l0.2,0.2v0.2h0.2v0.2h0.2V16h0.2
	v0.2h-0.5v0.2h0.5v0.2h0.5V17h0.2l0.2-0.2V17h-0.2l0.2,0.2h0.7v0.2h0.2v0.2h0.5v0.5h0.2v0.2h0.5v0.2h0.2v0.2h0.5v-0.2h0.2v-0.2h0.5
	v0.5l-0.2-0.2v0.2h-0.5v0.2h0.5v0.5h0.5v0.2h0.2v0.2h0.2v0.2h0.2l0.2,0.2v0.7h0.2v0.2h0.5v0.2h1V23h-0.2l0.2,0.2H237v0.7h-0.2v0.7
	h0.2v0.5h-0.2v1.2h0.2v0.5h-0.5v0.5h-0.2v0.5H236v0.5l0.2,0.2h0.2v0.2l-0.2,0.2h0.2v0.7H236v0.2l0.2,0.2v0.2h0.2l0.2,0.2h0.2v0.2
	h0.5l-0.2,0.2h0.5v0.2h0.3v0.5h-0.2l0.2,0.2h0.2v0.5h-0.5v-0.3h-0.2v0.2h-0.7v0.7h0.2v0.2h0.2v0.2h0.2V34l-0.2,0.2h0.5v-1h-0.2V33
	h0.2v-0.2h0.3V33h0.5v0.2h0.2V34h0.2v0.7h0.2L239,35h0.2v0.2h0.7l-0.2,0.2l0.2,0.2h0.2v0.5h0.2l0.2,0.2v0.7h0.2v-0.7h0.2v0.2h1v-0.2
	h0.2v0.7h0.2v0.2h-0.2v-0.3h-0.2v0.2h-0.2v-0.2h-0.2v-0.2h-0.5v0.2h-0.2v0.2h-0.2v0.2h-0.2l-0.2,0.2l-0.2,0.5v0.2l-0.2,0.2h0.7v-0.5
	h0.2v-0.2h0.2l0.2-0.2v0.2h0.2l-0.2,0.2h0.2v0.2l0.2-0.2v1h0.2l0.2-0.2v0.2h-0.2v0.2h0.2V40h-0.5v0.2h0.7v0.2h0.2v-0.2h0.2v-0.5h0.2
	V40h0.5v0.2h0.5V40l0.2,0.2h0.5V40h0.5l0.2-0.2V40h0.7v0.2h0.2l0.2-0.2v0.2h0.5v-0.5h5v-0.5h-0.2v0.2h-0.2v-0.2h-0.2l-0.2-0.2h-0.2
	l0.2-0.2v-0.2h-0.5v-0.3h-0.2v0.2h-0.2v-0.5h-0.7v-0.2l-0.2,0.2v-0.2h-0.5v-0.5l-0.2,0.2H248l0.2-0.2v-0.2h0.2v0.2h0.7v-0.2h0.5
	v-0.2h0.3v-0.7h-0.2v-0.2h-0.2v-0.2h-0.2v-0.5h0.7l-0.2-0.2v-0.2h0.2v0.2h0.5v0.2h0.2v0.2l0.2,0.2v0.2h-0.2v0.2h0.2v-0.2h0.5v-0.5
	l-0.2-0.2v-0.2H251v-0.2l-0.2-0.2v-0.2l-0.2-0.2h-0.2v-0.2H250v-0.2h-0.2v-1l-0.2-0.2h-0.2v-0.7h-0.5v-0.7l-0.2-0.2h0.2v-0.7h0.2
	v-0.2h0.2v-0.2H249v-0.5h0.2v-0.5l0.2,0.2v-0.2l0.2,0.2v-0.2h0.3v-0.2h0.2V28h0.2v0.7H250v0.5h0.2v0.2h0.2l0.2,0.2v0.2h0.5l0.2,0.2
	h0.2v0.2h0.2v-0.2l0.2-0.2h0.2v0.2h0.7v0.2h0.2v0.2h0.2v0.7h0.2v0.2h0.2v0.2h0.2v-0.5h0.2v-0.3l-0.2,0.2v-0.7h-0.5v-0.2h-0.2v-0.2
	h-0.2v-0.5h0.5v-0.2h0.2v-0.2l-0.2-0.2v-0.2h0.5v-0.2h-0.5V28h-0.5v-0.2h0.2v-0.3h0.2v-0.2h0.2l0.2,0.2h0.5l0.2,0.2v-0.2h0.2
	l0.2-0.2h0.5v-0.5h0.2v-0.2h0.5v-0.2h0.2v0.2l0.2,0.2V27l0.2-0.2V27h0.5l0.2-0.2v-0.2h0.5v-0.2h0.2v-0.2h0.2l0.2,0.2v0.2h1l0.2,0.2
	h0.2L261,27v-0.2h0.2l0.2,0.2h1.2v0.5l0.2,0.2v0.5h1.9l0.2-0.2h0.7v0.2h0.2l-0.2,0.2h-0.2v0.2h-0.7v0.2h-0.2v0.2h-0.5v0.2h-0.5v0.2
	h-0.2v0.2h0.2v0.5l-0.2,0.2v0.2h-0.2v0.2h0.5v-0.2h0.2v-0.5h0.2v-0.2h0.2l0.2-0.2h0.2v-0.2h0.2v-0.5h0.2v-0.2h0.5v-0.2h0.2l0.2-0.2
	h0.5v-0.2h0.5V28h-1v-0.7h-1.4l-0.2-0.2h-0.2l-0.2-0.2l-0.2-0.2l-0.5-0.2l-0.2-0.2l-0.5,0.2h-0.2l-0.2-0.5l-0.5-0.5l-0.5-0.2h-3.3
	l-0.5-0.2v0.2l-0.2,0.2v0.2l-0.2,0.2h-0.7l-0.5-0.5l-0.5-0.2h-0.5l-0.2,0.2l-0.5,0.5h-0.2l-0.5-0.2l-0.5-0.5l-1.2-0.7l-0.5-0.5h-0.2
	l-0.2-0.2h-0.2v-0.2h-0.2l-0.2-0.2l-0.2-0.2l-0.2-0.2h-0.2v-0.2H249l-0.2-0.2H248v1.9l0.5,0.5v0.5l0.2,0.2V27l-0.2,0.7v1.4h-0.2
	v-0.2h-1v-0.5H247V28h-0.2v-0.7h0.2v-0.5h-0.5V27h-0.7v0.2h-0.2v0.2h-0.2l-0.2,0.2h-0.7v-0.2h-0.2v-1.2H244v-0.2h-0.5v-0.2l-0.2-0.2
	v-0.7H243v-0.5h-0.2v-0.2l-1-0.5v-0.2h-0.2v-0.2h-0.2l-0.2-0.2v-0.5h-0.2v-1l0.2-1l0.2-0.7v-0.2l-0.2-0.2l-0.2-0.5l-0.2-0.2h-0.2
	l-0.2,0.2h-0.2l-0.2,0.2v0.2l-0.2,0.2h-0.5v0.2l-0.2,0.2v0.2l-0.2,0.2h-0.2l-0.2-0.2h-0.2v-1h-0.5v-0.2H237v-1h-0.7v-0.2h-0.5v-0.2
	h-0.2v-0.5h0.2v-0.2l-0.2-0.2h-0.5v0.2h-1.4v-1.2h0.2v-0.2h-0.5v0.2h-0.2v-0.2h-0.2v-0.2h-1v-0.5h-0.2v-0.5h-0.2v-1h-0.2v0.5h-0.7
	v-0.2h-1v-0.2H229v-0.2h0.2v-0.2h-0.5v0.2h-0.2v-0.5h0.5v-0.2h-0.2v-0.2h-0.2v-0.5h-0.2v-0.2H228v-0.5l-0.2,0.2h-0.5v0.2h0.2v0.2
	h0.2v0.2h0.2v1h0.2v0.2h-0.7v-0.7h-0.2v-0.2l-0.2-0.2v-0.2h-0.2v-0.2h-0.2l-0.2-0.2V11h-0.2v-0.3H226v-0.2h-0.5V10H225V9.7h-0.5V10
	h-0.2V9.5h-1V9.3h-0.5V9h-0.2v0.2L222.4,9.3z M221.9,10.9h0.2v-0.2l-0.2-0.2h-0.2v0.2h0.2V10.9z M191.9,6.9v0.2h0.2v1h-0.2v0.2h0.2
	v0.2h-0.2V9h0.7V8.8h-0.2V8.3h0.2V8.1h0.2V7.8h0.2V7.3h-0.2V7.1h-0.2V6.9h-0.2l0.2-0.2h-0.2V6.4l0.2-0.2V5.7l0.2-0.2h-0.5v0.5h-0.2
	v0.5h-0.2C191.9,6.4,191.9,6.9,191.9,6.9z M220.7,8.1v0.2h0.5l-0.2-0.2h0.2V7.8h-0.2V7.6h-0.5l0.2,0.2V8.1z M218.8,6.1v0.7h-0.2v0.5
	h0.2V7.1h0.2v0.2l0.2,0.2V7.1L219,6.9h0.2V6.6H219V6.4l0.2,0.2V5.4H219v0.5h-0.2V5.7h-0.2v0.2L218.8,6.1z M220.7,6.6v0.5h0.2v-1
	h-0.5v0.2h0.2L220.7,6.6z M217.8,5.2h-0.2l0.2,0.2V5.2z M217.8,0.6h-0.7V0.4h-0.2l-1,1l-0.2,0.5v0.2h0.2V1.8h0.2V1.6l0.2-0.2
	l0.2,0.2h0.2v0.2h0.2v0.5h-0.2v0.2l-0.2,0.2h-0.2V3l-0.5-0.2v0.5l0.2,0.2v1.7h0.2v0.2h0.2v0.7h0.2v0.2h0.5V6.1h0.2V5.7h0.5V5.2
	l0.2-0.2l0.2-0.2V4.2h0.2V3.7h0.7V3.5H219V3.2h-0.2V3h-0.2v0.5h0.2v0.2h-0.2v0.5l-0.2,0.2V4L218,3.8l-0.2-0.2h-0.2v-1h0.7v0.2h0.5V3
	h0.5V2.8H219V2.5h-0.2V2.3h0.2V1.6h-0.2v0.5h-0.2V1.8H218V1.3l-0.2-0.2h0.2V0.9h-0.2L217.8,0.6z M219.5,4.7v0.2h-0.2v0.2h0.2v0.2
	h0.5v0.2h0.7V5.4h-0.2V5.2h-0.2V4.7H220V4.2h-0.2v0.5H219.5z M220,4.2l0.2,0.2l0.2,0.2h0.2V4.5h-0.2V4.2h-0.2V4H220V3.7h-0.5V4h0.2
	L220,4.2z M0.6,163.8v-0.2h0.2v-0.2H0.4v0.5L0.6,163.8z M5.9,154.7h0.5v-0.2H5.7v0.2H5.9z M3.7,154.2H3.5v0.2L3.7,154.2z M3.3,154.2
	V154L3,154.2L3.3,154.2z M3,153.7v-0.2H2.8v0.2H3z M0.6,152.7h0.5v-0.2h0.5v-0.2h0.2l0.2-0.2h0.2v-0.7H1.6v0.2H1.1v0.2H0.4v1
	L0.6,152.7z M59.4,94.4h0.2l0.2-0.2h0.2v-0.5l-0.2-0.2h-0.5l-0.2,0.2v0.7H59.4z M62,94.4h0.5l0.2-0.2H63V94h0.2v-0.2h0.2v-0.3h0.2
	v-0.2L64,93v-0.2l0.2-0.2h0.2v-0.2h0.2l0.2-0.2h0.2v-0.2h0.5v-0.2h-1.2v0.2h-0.2v0.2h-0.5v0.2h-0.5v0.2h-1.7v1.2l0.2,0.2v0.5
	L62,94.4z M72.4,94.2h0.7l0.2-0.2l0.2-0.2h0.2l0.2-0.2h0.7v-0.2h0.5V93h0.2v-0.2l0.2-0.2v-0.2H76v-0.5h0.2v-0.5h0.2v-0.7h-0.7v0.2
	l-0.2,0.2l-0.2,0.2v0.2H75v0.2h-0.2v0.2l-0.2,0.2l-0.2,0.2v0.2H74V93h-0.2v0.5h-0.5v0.2h-0.2L72.9,94h-0.5l-0.2,0.2L72.4,94.2z
	 M289.1,77.7v-0.2h-0.2v0.2H289.1z M297.7,77.2l0.2-0.2l0.2-0.2h0.2v-0.2l0.2-0.5v-0.2h-0.2V76l-0.2,0.2l-0.2,0.2v0.2h-0.2V77h-0.2
	v0.2L297.7,77.2z M282.4,76.5v-0.2l-0.2,0.2H282.4z M282.6,75.7h-0.2V76L282.6,75.7z M312.9,73.3l0.2-0.7v-0.7l-0.2-0.2v-1l-0.5-0.2
	l-0.2-0.5v-0.4h-0.2l-0.2,0.2l-0.2,0.2v0.2l0.2,0.5v0.7l0.2,0.7l0.2,0.2v0.5l0.2,0.2l0.2,0.2H312.9z M74.5,68.1v-0.2h-0.2v0.2H74.5z
	 M198.4,67.6h-0.2l0.2,0.2V67.6z M196.9,67.1L196.9,67.1l-0.2-0.2v0.2H196.9z M196.5,66.9l-0.2-0.2v0.2H196.5z M291.7,59.9h-0.2
	l0.2,0.2V59.9z M196.7,59.6l0.2-0.2h-0.7l0.2,0.2H196.7z M197.2,59.4l0.2-0.2h0.5v-0.4h-0.2v0.2h-0.5v0.2H197v0.2L197.2,59.4z
	 M253.1,58.4h-0.2l0.2,0.2V58.4z M252.9,58.1l-0.2-0.2v0.2H252.9z M137.7,56.7l-0.2-0.2v0.2H137.7z M265.4,55.7l0.2-0.2h0.2v-0.2
	h-0.2v0.2h-0.5v0.2H265.4z M291.3,55.7L291.3,55.7v-0.2H291v0.2H291.3z M203.9,55.1h0.2l-0.2-0.2l-0.2,0.2H203.9z M251.2,54.9h-0.2
	l0.2,0.2V54.9z M250.2,53.4v-0.2l-0.2-0.2v0.5L250.2,53.4z M276.9,52v-0.2h-0.2V52H276.9z M268.2,51.3H268v0.2L268.2,51.3z
	 M258.4,51.3l-0.2-0.2v0.2H258.4z M268.9,51.3V51h-0.2v0.2L268.9,51.3z M259.3,50.8v-0.2l0.2-0.2h-0.2l-0.2,0.2v0.2H259.3z
	 M260.8,50.6L260.8,50.6v-0.3h-0.2v0.2l0.2,0.2V50.6z M261,50.6h-0.2l0.2,0.2V50.6z M264.6,50.8v-0.2h-0.2v0.2H264.6z M267.7,50.3
	h-0.2v0.2L267.7,50.3z M259.3,50.3L259.3,50.3v-0.2h-0.2v0.2H259.3z M267.3,50.3h0.2v-0.5l-0.2,0.2l-0.2,0.2L267.3,50.3z M249,50.1
	l-0.2-0.2v0.2H249z M269.6,49.8l-0.2-0.2v0.2H269.6z M266.3,49.6v-0.2l-0.2,0.2H266.3z M266.8,49.6v-0.5l-0.2,0.2h-0.2l0.2,0.2
	L266.8,49.6z M257.2,49.1h-0.2l0.2,0.2V49.1z M256.9,49.1L256.9,49.1v-0.2l-0.2,0.2H256.9z M258.1,49.1v-0.5l-0.2,0.2v0.2
	L258.1,49.1z M266.5,49.1v-0.2h-0.2v0.2H266.5z M244,48.6v-0.2h-0.2v0.2l0.2,0.2V48.6z M302.6,48.6h-0.2v0.2L302.6,48.6z
	 M243.8,48.4h-0.2v0.2L243.8,48.4z M166,48.1h-0.2l0.2,0.2V48.1z M255.8,48.4v-0.5l-0.2,0.2v0.2L255.8,48.4z M271.4,48.1h-0.2
	l0.2,0.2V48.1z M272.6,48.4l-0.2-0.2v0.2H272.6z M259.6,48.1v-0.2h-0.2v0.2L259.6,48.1z M260.6,48.1l-0.2-0.2v0.2H260.6z
	 M260.3,47.9v-0.5h-0.2v0.5H260.3z M256.5,47.7v-0.5h-0.2v0.5H256.5z M265.8,47.4h0.2v-0.2l-0.2-0.2v0.2h-0.2v0.2l0.2,0.2V47.4z
	 M266.8,47.4h-0.2v0.2L266.8,47.4z M258,47.4v-0.2h-0.2v0.2H258z M258.4,47.4v-0.2h0.2v-0.5h0.2v-0.2h-0.5l-0.2,0.2v0.2H258v0.2
	l0.2,0.2L258.4,47.4z M268,47.4l-0.2-0.2v0.2H268z M256.3,47.2L256.3,47.2v-0.2H256v0.2H256.3z M261.1,46.7l-0.2-0.2v0.2H261.1z
	 M255.6,46.5h0.2v-0.2h-0.5v0.2H255.6z M250,46v-0.2h-0.2V46H250z M251.2,45.5h0.2l0.2-0.2h-0.5L251.2,45.5H251v0.2L251.2,45.5z
	 M265.1,45.8v-0.3h-0.2v0.2L265.1,45.8z M266.6,45.8v-0.3h-0.2v0.2L266.6,45.8z M255.3,45.5v-0.2h0.2V45h-0.2v0.2H255v0.2
	L255.3,45.5z M264.4,45.5v-0.2h-0.2v0.2H264.4z M257.4,45.3v-0.7h-0.2v0.7H257.4z M258.8,45.3l-0.2-0.2v0.2H258.8z M255.2,45
	L255.2,45v-0.2H255V45L255.2,45z M259.3,45h0.2v-0.2h-0.5V45L259.3,45z M253.3,44.8v-0.2h-0.2v0.2H253.3z M296.3,44.8L296.3,44.8
	l-0.2-0.2v0.2H296.3z M191,44.6v-0.3h-0.2v0.2L191,44.6z M251.4,44.6v-0.3l-0.2,0.2L251.4,44.6z M262,44.6h0.2v-0.3h0.7v-0.2h0.2
	v-0.2h0.2v-0.2h-0.2l-0.2,0.2h-0.7v0.2H262v0.2h-0.2v0.2L262,44.6z M264.2,44.3h-0.2v0.2L264.2,44.3z M255,44.3v-0.2h0.2v-0.5H255
	v0.2h-0.2v0.5H255z M263.9,44.3v-0.2h-0.2v0.2H263.9z M250.9,44.1h0.2v-0.2h-0.5v0.2H250.9z M256.7,44.1v-0.2h-0.2v0.2H256.7z
	 M264.1,43.8h-0.2l0.2,0.2V43.8z M257.9,43.8L257.9,43.8v-0.2h-0.2v0.2H257.9z M254.3,43.4H254v0.2L254.3,43.4z M251.4,42.6l0.2-0.2
	l0.2-0.2h-0.2l-0.2,0.2h-0.2v0.2H251.4z M205.3,42.4v-0.2h-0.2v0.2H205.3z M204.3,42.2v-0.3h-0.2v0.2L204.3,42.2z M307.3,41.7h-0.2
	l0.2,0.2V41.7z M207.2,41H207l0.2,0.2V41z M320.2,40.7l-0.2-0.2v0.2H320.2z M240.3,40.2V40h-0.2v0.2l0.2,0.2V40.2z M216.9,40
	l-0.2-0.2V40H216.9z M264.1,40l-0.2-0.2V40H264.1z M118.7,39.5h-0.2l0.2,0.2V39.5z M263.7,39.7v-0.2h-0.2v0.2H263.7z M265.4,39.7
	v-0.2l-0.2,0.2H265.4z M216.7,39.5v-0.2h-0.2v0.2H216.7z M240.9,39.5v-0.2h-0.2v0.2H240.9z M263.5,39.3h-0.2v0.2L263.5,39.3z
	 M265.1,39.5v-0.2h-0.2v0.2H265.1z M216.4,39.3V39h-0.2v0.2L216.4,39.3z M263.2,39.3V39H263v0.2L263.2,39.3z M215.2,39v-0.2H215V39
	L215.2,39z M240.9,38.8h-0.2l0.2,0.2V38.8z M241.4,39v-0.2l-0.2,0.2H241.4z M260.6,39v-0.2h-0.2V39L260.6,39z M217.4,38.8v-0.2
	l-0.2,0.2H217.4z M241.4,38.8v-0.2h-0.2v0.2H241.4z M43.6,38.5h0.7v-0.2h0.2v-0.2h0.2l-0.2-0.2h-1.2v0.7L43.6,38.5z M118.5,38.3
	h-0.2v0.2L118.5,38.3z M161.9,38.5v-0.2l-0.2,0.2H161.9z M240.9,38.5v-0.2l-0.2,0.2H240.9z M209.7,38.3v-0.2l-0.2,0.2H209.7z
	 M161,37.3h0.7v-0.2h0.5v-0.2h0.2v-0.2h0.2v-0.5h-0.7v0.2h-0.5v0.2h-0.2v0.2H161v0.2h-0.2v0.2L161,37.3z M41.7,36.6h0.2v-0.5h-0.2
	v0.2l-0.2,0.2L41.7,36.6z M250.2,36.6v-0.2l-0.2,0.2H250.2z M264.6,36.6h0.2l-0.2-0.2v-0.2h-0.2v0.5L264.6,36.6z M168.4,36.1v-0.2
	h-0.2v0.2L168.4,36.1z M190,36.1l0.2-0.2v-0.2H190v0.2h-0.2v0.2H190z M250.5,36.1v-0.2h-0.2v0.2L250.5,36.1z M253.3,36.1l-0.2-0.2
	v0.2H253.3z M251.9,35.9h0.2v-0.2h-0.5v0.2H251.9z M254.5,35.2v-0.5h-0.2v0.5L254.5,35.2z M29.9,34.7h0.2v-0.2h0.2v-0.2h0.2V34h-0.5
	v0.2h-0.2v0.2l-0.2,0.2L29.9,34.7z M238.2,34.7h0.2l-0.2-0.2H238v0.2H238.2z M255,34.7v-0.2h-0.2v0.2H255z M238,34.5L238,34.5v-0.2
	h-0.2v0.2H238z M258.4,34.2v-0.5l-0.2,0.2v0.2L258.4,34.2z M31.6,33v-0.2L31.3,33H31.6z M262.7,32.5v-0.2h-0.2v0.2L262.7,32.5z
	 M235.8,32.3V32l-0.2,0.2H235.8z M170.5,31.8v-0.2l-0.2,0.2H170.5z M261.5,30.8h1v-0.7H262v0.2h-0.7v0.5H261.5z M235.8,28.7h-0.2
	l0.2,0.2V28.7z M268.7,28.9v-0.2h-0.2v0.2H268.7z M269.2,28.9v-0.2h-0.2v0.2H269.2z M215.7,28.5h-0.2v0.2L215.7,28.5z M272.8,28.7
	v-0.2l-0.2,0.2H272.8z M161.4,28.5L161.4,28.5l-0.2-0.2v0.2H161.4z M269.2,28.5v-0.2h0.2l0.2-0.2h-1v0.2l0.2,0.2H269.2z M214.5,27.7
	h0.2v-0.2h-0.5v0.2L214.5,27.7z M275.2,27v-0.2h-0.2V27H275.2z M210.9,26.8v-0.2l-0.2,0.2H210.9z M236.5,26.8L236.5,26.8l0.2-0.2
	h-0.5v0.2H236.5z M192.1,26.3V26h-0.2v0.2H192.1z M192.6,25.8v-0.2h-0.2v0.2H192.6z M197.2,25.1h-0.2l0.2,0.2V25.1z M196.5,24.1
	v-0.2l-0.2,0.2L196.5,24.1z M236.8,24.1L236.8,24.1l-0.2-0.2v0.2H236.8z M201.5,19.3v-0.2h-0.2v0.2L201.5,19.3z M237.5,18.8h0.2
	v-0.2h-0.5v0.2H237.5z M234.4,18.6L234.4,18.6v-0.2l-0.2,0.2H234.4z M200.8,17.8v-0.2h-0.2v0.2H200.8z M230.8,17.4v-0.2h-0.2v0.2
	H230.8z M227.4,17.1l0.2-0.2h-0.5v0.2H227.4z M230.1,17.1v-0.2h-0.5l0.2,0.2H230.1z M229.3,16.9v-0.2l-0.2,0.2L229.3,16.9z
	 M169.6,16.6v-0.2h-0.2v0.2H169.6z M186.1,15.6v-0.1l-0.2,0.2L186.1,15.6z M200.1,15.6v-0.1h-0.2v0.2L200.1,15.6z M223.1,15.6v-0.1
	h-0.2v0.2L223.1,15.6z M224.5,15.6h0.2v-0.1h0.3v-0.2h-0.7v0.5L224.5,15.6z M227.6,14.9h-0.2v0.2L227.6,14.9z M227.9,15.2h0.7V15h-1
	v0.2L227.9,15.2z M225.7,15v-0.2h-0.2V15H225.7z M226.2,15h0.7l-0.2-0.2v-0.2h-0.5v0.2h-0.5L226,15H226.2z M228.6,14.8h0.2l-0.2-0.2
	h-0.2v0.2H228.6z M181.1,13.8h-0.5l0.2,0.2L181.1,13.8z M225.7,14v-0.2h-0.2V14H225.7z M170.1,13.8L170.1,13.8v-0.2h-0.2v0.2H170.1z
	 M225.3,13.8h0.2v-0.2H225v0.2H225.3z M231.3,13.3L231.3,13.3v-0.2H231v0.2L231.3,13.3z M221.7,11.1h-0.2l0.2,0.2V11.1z M221.9,11.1
	h-0.2l0.2,0.2V11.1z M221.4,11.1v-0.2h-0.2v0.2H221.4z M222.4,11.1v-0.2h-0.2v0.2H222.4z M221.2,10.9L221.2,10.9v-0.2H221v0.2
	L221.2,10.9z M201,10.5v-0.2h-0.2v0.2H201z M220.9,10.5v-0.2h-0.2v0.2H220.9z M221.6,10.2h-0.2l0.2,0.2V10.2z M220.6,10.2
	L220.6,10.2V10h-0.2v0.2L220.6,10.2z M221.4,10.2L221.4,10.2V10h-0.2v0.2L221.4,10.2z M220.4,10L220.4,10V9.7h-0.2V10L220.4,10z
	 M220.8,10V9.7h-0.2V10L220.8,10z M221.1,9.7h-0.2l0.2,0.2V9.7z M190.1,9.7L190.1,9.7V9.5H190L190.1,9.7L190.1,9.7z M190,9.5
	L190,9.5V9.3h-0.2v0.2H190z M220.2,9.3H220l0.2,0.2V9.3z M219.5,8.8h-0.2l0.2,0.2V8.8z M221.2,9L221,8.8V9L221.2,9z M221.4,8.8h-0.2
	l0.2,0.2V8.8z M221.7,8.8h0.2l-0.2-0.2h-0.2v0.2l0.2,0.2V8.8z M222.7,9L222.7,9l-0.2-0.2V9L222.7,9z M220.3,8.8V8.5H220v0.2
	L220.3,8.8z M222.2,8.8V8.5H222v0.2L222.2,8.8z M221.5,8.5L221.5,8.5V8.3h-0.2v0.2L221.5,8.5z M221.7,8.1h-0.2l0.2,0.2V8.1z
	 M219.3,8.1V7.8H219v0.2L219.3,8.1z M219,7.6h-0.2l0.2,0.2V7.6z M221.2,7.6V7.3h-0.2v0.2L221.2,7.6z M220.4,7.3l-0.2-0.2v0.2H220.4z
	 M186.4,7.1h0.2V6.6h-0.5v0.5H186.4z M220.7,6.9l-0.2-0.2v0.2H220.7z M220.2,6.6h0.2l-0.2-0.2h0.2l-0.2-0.2H220v0.5L220.2,6.6z
	 M221.2,5.9V5.2H221v0.7L221.2,5.9z M219,5.4L219,5.4V5.2l-0.2,0.2L219,5.4z M219,5.2L219,5.2V4.5h-0.2v0.7L219,5.2z M220.9,4.9
	l-0.2-0.2v0.2H220.9z M211.6,3.5h-0.2v0.2L211.6,3.5z M212.3,3V2.8l-0.2-0.2V3H212.3z"/>
</svg>
