<?xml version="1.0" encoding="utf-8"?>
<!-- Generator: Adobe Illustrator 20.1.0, SVG Export Plug-In . SVG Version: 6.00 Build 0)  -->
<svg version="1.1" id="Layer_1" xmlns="http://www.w3.org/2000/svg" xmlns:xlink="http://www.w3.org/1999/xlink" x="0px" y="0px"
	 viewBox="0 0 112.7 132.8" style="enable-background:new 0 0 112.7 132.8;" xml:space="preserve">
<style type="text/css">
	.st0{fill:#C14803;}
</style>
<title>new_zealand</title>
<path class="st0" d="M80.6,0.4L80.6,0.4v0.2h-0.2V0.4H80.6z M-1707.2,1.6h0.2v0.2h-0.2V1.6L-1707.2,1.6z M-1708.6,6.9L-1708.6,6.9z
	 M37.4,13.6h0.2v0.2h-0.2V13.6L37.4,13.6z M91.9,27.3v0.2h-0.2v-0.2H91.9z M95.2,28.7v0.2H95v0.5h-0.2v0.7l0.2,0.2v0.2h0.2v0.2H95
	v0.2h0.5v0.2h-0.2v0.5h0.2v-0.2h0.2v-0.2h-0.2v-0.2H96l0.2-0.2l0,0h0.2v0.2H96v0.7h0.5v-0.2h0.2l0,0h0.5v0.2h0.7v0.2h0.2l-0.2,0.2
	h0.2v0.2h0.5v0.2h-0.2v-0.2l-0.2,0.2l0.2-0.2h-0.2v0.2h-0.2l0.2,0.2h0.2v0.2l0,0v0.2l0,0l0,0h0.2l0,0h0.2l0,0h-0.2l0,0h-0.2v-0.2
	l0,0l0.2-0.2v0.2h0.2V33h0.2l0,0h0.2v-0.2h0.2L99.4,33v0.2l0,0v0.2l0,0l0,0h-0.2v0.2h0.2v0.5h0.2v0.2l-0.2,0.2h0.2v0.5h-0.2v0.5l0,0
	l0,0l0,0v0.7h-0.2l0,0h-0.2v0.2h-0.2v0.7h0.5v1h0.2v0.2h0.2l-0.2,0.2h-0.2V39h0.2l0,0l0,0l0,0h-0.2l0,0h-0.2v0.2h0.2v0.2h-0.2v-0.2
	h-0.2l0.2,0.2l0,0l0,0v0.2l-0.2-0.2v0.2l0,0v0.5l0,0l0,0h0.5v0.2h-0.2l0,0h-0.5v0.2l0.2-0.2v0.2h-0.2v0.7h0.2l-0.2,0.2v-0.2l0.2,0.2
	l0,0v0.2h-0.2v0.2h0.2v-0.2l0,0v-0.2h0.2v0.2h0.2v-0.2h0.2v0.2l0,0v0.2h0.2l0,0h0.2l0,0h0.2v0.2l0,0v1.2h0.5v-0.2h0.2l-0.2,0.2v-0.2
	h0.5v-1.7h0.2v-0.2H101l0,0h0.5v-0.5l-0.2,0.2l0.2-0.2h-0.2v-0.2h0.2v-0.2h0.2v-0.2h-0.2l-0.2-0.2v-0.2h0.2v-0.2h0.2V40h0.2l0,0l0,0
	v0.2h0.2v0.2H102v0.2h0.2V41H102v0.2h0.2V41h0.5l0,0l0.2-0.2V41h-0.2v0.2h-0.2v0.2h-0.2l0,0H102v0.2l0,0v0.2h0.2v-0.5h0.2l0,0h0.2
	v0.7l0,0v0.2h-0.2v0.2l0,0v-0.2l0.2,0.2l-0.2,0.2v0.2l-0.2,0.2v0.2l0,0V45l0.2,0.5v0.2h0.2V46h0.5v0.2h0.5v0.2h0.2v0.2h0.2V47h0.7
	v0.2h0.5v0.2h0.5v0.2h0.7v-0.2h1v-0.2h0.2V47h0.2v-0.3h0.5v-0.2h0.2v-0.2L109,46h0.5v-0.2h0.5v-0.2h0.5v-0.2h1.2v0.2l0.2,0.2h0.5V46
	l0,0l-0.2,0.2v0.2l-0.2,0.2h-0.2V47h-0.2v0.5h-0.2v0.2h-0.2v0.5h-0.2v0.2h-0.2v0.2l0,0v0.2h-0.2v0.2l0,0v0.2l-0.2,0.2v0.2h-0.2v0.2
	l-0.2,0.2v0.2h-0.2l-0.2,0.2l-0.2,0.2h-0.2v0.2h-0.7v0.2l0,0l-0.2,0.2l-0.2,0.2v0.2H107v0.5l-0.2,0.2v0.5h0.2l-0.2,0.2h-0.2v0.2
	l-0.2,0.2l-0.2,0.2v-0.5h0.2l-0.2-0.2h0.2v-0.2h0.2v-0.2h-1.9l-0.5,0.2h-0.2l-0.2,0.2h-0.5v0.2h-0.2v0.2h-0.2l-0.2,0.2v0.2h-0.2
	l-0.2,0.2l-0.2,0.2v1.2h0.2v0.2h-0.2v0.2l-0.2,0.2v0.2h-0.2v0.2H101v0.2h-0.2V58l-0.2,0.2v0.2h-0.2V59H100l-0.2,0.2h-0.2v0.2h-0.2
	L99,59.7v0.2h-0.2v0.2l-0.2,0.2v0.2h-0.2v0.2h-0.5l-0.2,0.2l-0.2,0.2l-0.2,0.2l-0.2,0.2h-0.2l-0.2,0.2v0.2l-0.2,0.2v0.2H96V63h-0.2
	v0.2h-0.2v0.5h-0.2V64L95,64.2h-0.2v0.2l-0.2,0.2h-0.2V65H94v0.2h-0.2v0.2h-0.5v0.2H93v0.2h-0.5v0.2h-0.2l-0.2,0.2h-0.5v0.2h-0.5
	v-0.7h0.2v-0.2h-0.2v-0.2h-0.7v0.2H90v-0.5h0.2v-0.2h0.2v-0.2H90v0.2l0,0v0.2h-0.5l0,0h-0.2v-0.5h0.2v-0.2h0.2v-0.2H90V64h0.5v-0.5
	H91v-0.2l0.2-0.2v-0.2l0.2-0.2h0.2v-0.2h0.2v-0.5h0.2v-0.2h0.2v-0.2l0.2-0.2l0.2-0.2v-0.2l0.2-0.5l0.2-0.2v-1.7h-0.2v-0.5h-0.2v-0.2
	h-0.2l-0.2-0.2v0.2h-0.2l-0.2-0.2h-0.2V57h-0.2v-0.2h-0.2v-0.5H91v-0.2h-0.2l-0.2-0.2h-0.7v-0.2h-0.2v-0.5h-0.2v-0.7h0.2v-0.2
	l0.2-0.2H90v-0.2h0.2v-0.2h0.5l0.2-0.2h0.2l0.2-0.2h0.2l0.2-0.2h0.2l0.2,0.2l0.2-0.2h0.2l0.2-0.2v-0.2h0.2l0.2-0.2l0.2-0.2v-0.2h0.2
	V51l0.2-0.2v-0.2l0.2-0.2V50h0.2v-0.5H95v-0.2h0.2v-0.5h0.2v-0.5h0.2v-0.2H96v-0.2l0.2-0.2v-0.7l0.2-0.2h0.2v-0.5L97,46v-1.7h0.2
	l0.2-0.2h-0.2v0.2H97v-1.7h-0.2v-0.5H97l-0.2-0.2H97v-0.2l0,0v-0.5l-0.2-0.2v-0.7l-0.2-0.5v-0.2h0.2l0,0l0.2-0.2V40h0.2L97,40.2h0.2
	l0,0l0,0l0,0h0.2l-0.2,0.2h0.2v-0.2l0,0V40l0,0v-0.2l0,0v-0.3h0.2V39h0.2l0,0h-0.2l0,0h-0.2l0,0h-0.2v0.2L97,39h0.2v-0.2h0.5v-0.2
	h0.2l0,0h0.5v-0.2h-0.2l0,0l-0.2,0.2l0,0l0,0h-0.2l0,0h-0.2l0,0l0,0l0,0h0.2v-0.2h0.2v-0.2l0,0l0.2-0.2l0,0l0,0h-0.2v0.2l-0.2,0.2
	l0,0h-0.2v-0.2l0,0v-0.2l0,0l0,0l-0.2,0.2v-0.2h0.2l0,0h-0.2v0.2l0,0v0.2l0.2-0.2l-0.2,0.2h0.2l0,0h-0.2l0,0H97v-0.2h-0.2l0,0h-0.2
	v-0.2h-0.2l0.2,0.2v0.2h0.2V39h-0.2v0.2H96V39h0.2v-0.7H96v-0.7l-0.2-0.2v-0.2l-0.2-0.2v-0.5l-0.2-0.2v-0.2L95,35.7v-0.5h-0.2v-0.7
	l-0.2-0.2V34l-0.2-0.2V33H94v-0.2h0.5v-0.2l0.2-0.2v-1L94.5,31v-0.2l-0.2-0.2v-0.7H94v-0.2l-0.2-0.2h-0.2v-0.5l0.2-0.2v0.2h0.7v-0.2
	H95.2L95.2,28.7z M97.6,31.6L97.6,31.6z M98.3,31.8L98.3,31.8z M99.1,33L99.1,33z M98.3,33L98.3,33z M100.7,34.5L100.7,34.5z
	 M99.3,35.7L99.3,35.7z M99.8,36.7L99.8,36.7z M101.7,36.9L101.7,36.9z M99.8,36.9L99.8,36.9z M102.4,37.4v0.5l0,0v0.2l0,0v0.5h0.2
	v0.2h-0.2l0,0h-0.2v-0.2H102v-0.3h-0.2v-0.2h0.2v-0.2h0.2v-0.5L102.4,37.4z M101,38.1v0.2h-0.2v-0.2H101z M101.7,38.1L101.7,38.1z
	 M99.5,39.3v0.2h-0.2v-0.2H99.5z M103.4,39.5h-0.2v-0.2h0.2V39.5z M103.1,40.3v0.2h-0.2v-0.2H103.1z M99.1,41v0.2l0,0V41z M100.1,41
	l0.2,0.2H100v0.2h-0.2l0,0h-0.5v-0.2h0.7L100.1,41L100.1,41L100.1,41z M101.3,41L101.3,41z M98.9,41.2v0.2h-0.2v-0.2H98.9z
	 M100.1,41.5v0.5h-0.2l0.2-0.2l0,0V41.5z M102.9,42.7L102.9,42.7z M103.7,43.9L103.7,43.9z M103.7,45.8L103.7,45.8z M105.6,47
	L105.6,47z M82.8,60.9h1l0.2,0.2l-0.2-0.2H82.8v0.2h-0.2v0.2l-0.2,0.2v0.5l0.2,0.2v0.2H83v-0.3h0.2L83,62.5h0.2v-0.2h0.2v0.2h-0.2
	v0.2h0.2v0.5h-0.2v0.2l0,0v0.2H83l0,0h0.2V64H83v0.5h0.2L83,64.2h0.2v0.5l0,0V65h0.2v0.2l0.2-0.2l0,0l0.2-0.2h0.2v-0.2l0.2-0.2h0.5
	V64h0.2v-0.2h0.2V64h0.2v-0.2h0.5v-0.3l-0.2,0.2v-0.2h0.2v-0.2h0.2l0.2-0.2v0.2h0.2V63h0.2l0,0l0,0v0.2h-0.2v0.2h-0.5l0,0l0,0
	l-0.2,0.2V64l0,0v-0.2h0.5l0,0L86.4,64l0,0v0.2l0,0v0.2h-0.2v0.2h-0.5V65l0.2-0.2V65l0,0l0.2-0.2h0.2v-0.2h1v-0.2l-0.2,0.2v-0.2
	h-0.2l0,0l-0.2,0.2h-0.2v-0.2h0.2V64l0.2-0.2V64h0.2v-0.2h0.2v-0.3h-0.2v0.2h-0.2l0.2-0.2l-0.2,0.2v-0.2h0.2v-0.2l0,0v0.2h0.5l0,0
	h0.2l0,0h0.2l0,0h-0.2v0.2h0.2v-0.2h0.2l0,0H88V64h-0.2v0.2h-0.2l0.2-0.2h-0.2v0.2l0,0v0.2H87l0,0h-0.2v0.2h-0.5V65l0.2-0.2l0,0h0.2
	l0,0H87l0,0h0.5l0,0H88l0,0h-0.2V65h-0.2v0.2h-0.2V65H87v0.2h-0.2v0.2l-0.2,0.2v0.5h0.2v0.2l0,0l0.2,0.2h-0.2v0.5H87v0.2l0,0v0.2
	h-0.2v0.2h-0.2v0.2h-0.2v0.2h-0.2l-0.2,0.2v0.2h-0.2L85.4,69v0.5h-0.2v0.2h-0.2V70h-0.5v0.2l-0.2,0.2l-0.2,0.2h0.2V71H84v-0.3h-0.2
	v0.2h-0.2l-0.2,0.2v0.5H83v0.2l-0.5,0.2v0.2l-0.2,0.2v0.2H82v0.5h-0.2l-0.2,0.2l-0.2,0.2H81l-0.2,0.2h-0.2l-0.2,0.2h-0.5v0.2h-0.2
	v-0.2l-0.2,0.2h0.2l-0.2,0.2l0,0V75h-0.2v0.2l-0.2,0.2v1l-0.2,0.2h0.2V77h-0.5v0.2h0.2l0,0h0.2V77h0.2v0.2l0,0V77h0.2v0.2h-0.2v0.2
	h0.2V77l0.2,0.2v0.2l0.2-0.2v0.2h0.2v0.2l0,0v0.2h-0.2v0.2h-0.2v0.2h-0.5v-0.2h0.2v-0.3h-0.2l0.2-0.2h-0.2v0.7h-0.5l0,0h-0.2v-0.5
	l0,0v0.2h-1.2L77,78.4l0,0h-0.7v0.2h-0.5l-0.2,0.2h-0.2L75,79.1h-0.2l-0.2,0.2h-0.5l-0.2,0.2h-0.2l-0.2,0.2l-0.2,0.2h-0.2v0.2h-0.2
	l-0.2,0.2h-0.2l-0.2,0.2v0.5l-0.2,0.2l-0.2,0.2v0.5h-0.2v0.7L71,83.4v0.5h-0.2v0.2h-0.2v0.2h-0.2v0.2H70v0.2h-0.2v0.2h-0.2v0.2h-0.2
	v0.2L69,85.8v0.2l0,0v0.2l-0.2,0.2l0,0v0.2h-0.2V87l-0.2,0.2h-0.2v0.2h-0.2V88h0.2v0.2h-0.2l-0.2,0.2l0,0h-0.2v0.2h0.2v-0.2h0.2
	v-0.2h0.2V88l0.2,0.2h-0.2v0.2l0,0v0.2h-0.2l0,0h-0.7V89h-0.7l-0.2,0.2l-0.2,0.2h-0.2l0.2,0.2h-0.2v0.2l-0.2,0.2L65,90.4l-0.2,0.2
	h-0.2v0.2H64v0.2h-0.2v0.5H63v0.2l0.2-0.2l0,0h0.2v0.2h-0.2L63,92.1h-0.7v0.2h-0.5v0.2l-0.2-0.2v0.2h-0.5l0,0h-0.5v0.2l-0.2-0.2H60
	v-0.5l0,0v0.2l-0.2-0.2h-0.2l-0.2,0.2h-0.7l0,0h0.2l0.2-0.2h-1v0.2l0,0v-0.2h-0.2v-0.2H58l0,0h0.5v-0.2l0,0v-0.2h-0.2v0.2l0,0v0.2
	H58v-0.5h-0.2v-0.3h-0.2v-0.2l-0.2,0.2v-0.2H57v0.2h-0.2l-0.2,0.2v-0.2h-0.5v-0.2h0.2v-0.2l-0.2-0.2h-0.2l0.2-0.2v-0.2l0,0v0.2h-0.5
	l-0.2-0.2h-0.2v0.2h-0.2v0.2l-0.2,0.2v-0.2h-0.2v0.2H54v-0.2h-1.7v-0.5h0.2v-0.2H53v-0.5h0.5v-0.2h-0.2v0.2H53l-0.2,0.2l0,0v0.2
	h-0.2l0.2-0.2h-0.2v0.2h-0.2v-0.5H53v-0.2h-0.2v-0.2l0.2-0.2h-0.2v0.2h-0.2v0.2l-0.2,0.2h-0.5v-0.7H52v-0.2h1V88h0.5l0,0H54v-0.2
	h-0.5L53.3,88v-0.5H54v-0.2h-0.2l-0.2,0.2h-0.2v-0.2h0.2V87H54v-0.2h0.5l0,0H54L53.8,87H53l0.2-0.2h0.2l-0.2-0.2h0.2V86h0.2v0.2H54
	V86h-0.2v-0.2H54v-0.2h0.5v0.2h0.2v0.5L54.4,86v0.2h0.2v-0.5h0.2v0.7h-0.2l0,0h0.2l0,0h0.2l-0.2-0.2v-0.5h-0.2v-0.2h0.5v0.2h0.2l0,0
	h-0.2v-0.2l0.2-0.2h-0.2v0.2h-0.5v-0.7h0.2v-0.2l0.2,0.2v0.2l0,0v-0.5l0,0l0,0h0.2l0,0l0,0v-0.5h0.2v0.2h0.2l-0.2-0.2v-0.2h0.2v-0.2
	h0.2v-0.2h0.5v0.2l-0.2,0.2h0.2l-0.2,0.2h0.2v-1h0.2v-0.2h0.2v0.2l0,0l0,0h0.2v-0.2h-0.2l0.2-0.2h0.2v-0.2h0.2v-0.2H58l0.2-0.2h0.2
	v0.2h0.2v0.2H59v-0.2h-0.2V82h-0.2l0.2-0.2v-0.3l0.2-0.2l0.2-0.2h0.2v-0.2l0.2-0.2l0,0l0.2,0.2v-0.2h0.2L60,80.3h0.2v-0.2h0.2v-0.2
	h0.2l0.2-0.2l0.2-0.2v-0.2h0.7v-0.2h1.2l0.2-0.2h0.2v-0.2h0.2l0.2-0.2h0.2l0.2-0.2l0.2-0.2H65v-0.2h0.5v-0.2h0.2l0.2-0.2l0,0h0.7
	v-0.2h0.2l0.2-0.2l0.2-0.2l0.2-0.2h0.2v-0.2h0.5l0.2-0.2v-0.2h0.5V75h0.2l0.2-0.2v-0.2h0.2v-0.2h0.5l0.2-0.2l0.2-0.2h0.5l0.2-0.2
	h0.2v-0.2H72l0.2-0.2l0,0l0.2-0.2l0.2-0.2l0.2-0.2h0.2v-0.2h0.2v-0.2h0.2v-0.2h0.2v-0.2l0.2-0.2v-0.2h0.2v-0.2l0.2-0.2v-0.2h0.2V70
	l0.2-0.2v-0.5h0.2v-0.5h0.2v-0.2l0.2-0.2v-0.2l0.2-0.2v-0.5h1l0.2-0.2l0.2-0.2h0.2v-0.2H78v-0.2h0.2v-0.2l0.2-0.2v-0.2h0.2l0.2-0.2
	v-0.2h0.2v-0.5l0,0l0.2-0.2v-0.7h0.2v-1h0.2v-0.2h0.2v-0.2h0.2v-0.2h0.2l0,0h0.2v-0.2h0.2v-0.2h0.2l0.2-0.2h0.2v-0.2h0.5v-0.2
	L82.8,60.9L82.8,60.9z M87.6,61.6L87.6,61.6z M87.3,61.9v0.2l-0.2,0.2v0.2h-0.2v0.2h-0.2V63h-0.2v-0.2h0.2v-0.5h0.2l0,0l0,0v-0.2
	h0.5V61.9z M87.3,62.3L87.3,62.3z M91.2,62.6h-0.2v0.2h-0.2l0.2-0.2H91.2z M87.6,62.8V63l-0.2-0.2L87.6,62.8z M87.6,63.1v0.2h-0.2
	V63L87.6,63.1z M86.6,63.5L86.6,63.5L86.6,63.5z M90.2,64H90l0.2-0.2L90.2,64z M88,64L88,64z M88.5,64l-0.2,0.2v0.2h-0.5l0,0
	l-0.2,0.2l0,0v-0.2H88v-0.2h0.5V64h-0.2v0.2H88V64H88.5z M87.8,64.5L87.8,64.5z M87,64.5L87,64.5z M83.4,64.7V65h-0.2v-0.3
	L83.4,64.7z M83.2,65L83.2,65z M83.4,65L83.4,65z M76,67.8L76,67.8z M78.6,77.2h-0.2l0.2-0.2V77.2z M-1689.2,77.4h0.2v0.2h1.2l0,0
	l-0.3,0.2h-0.2v0.7l0,0v-0.2h-0.2v-0.2h0.2v-0.2h-0.2v-0.2h-0.2l0,0h-0.2v0.2h0.5v0.2h-0.2v0.5h0.2v0.2h0.2v0.2h0.2v0.2h-0.5v0.2
	h-0.5v-0.2h-0.2v-0.5h0.2l0,0h0.2v-0.5h-0.2v-0.2h-0.2v-0.2h-0.2v0.2h-0.7v-0.2h0.2l0,0h0.2v-0.2h0.5L-1689.2,77.4z M-1690.2,78.4
	L-1690.2,78.4z M-1688.3,78.7L-1688.3,78.7z M-1686.6,80.1L-1686.6,80.1z M-1687.3,80.3h0.3v0.2h-0.2v0.2h-0.3v-0.2h0.2
	L-1687.3,80.3L-1687.3,80.3L-1687.3,80.3L-1687.3,80.3z M-1687.5,80.6h-0.2l0.2-0.2V80.6z M54.6,85.6h-0.2v-0.2h-0.2l0.2-0.2v-0.2
	h0.2C54.6,84.9,54.6,85.6,54.6,85.6z M54.2,85.6L54.2,85.6z M53,87L53,87z M53.5,87.2L53.5,87.2z M53,87.2h0.2v0.5H53V88h-0.2l0,0
	h-0.2v-0.2h-0.2L52,88v-0.2h0.2v-0.3h0.2v-0.2L53,87.2L53,87.2z M53.5,87.7h0.2V88h-0.2V87.7z M52.5,88L52.5,88z M53.2,88H53
	l-0.2,0.2h-0.2V88L53.2,88L53.2,88z M52.5,88L52.5,88z M52.2,89.2L52,89.4v-0.2H52.2z M52,89.4v0.2l-0.2-0.2H52z M52.5,89.6
	L52.5,89.6z M52.2,89.9v-0.2h0.2v0.2H52.2z M56.3,91.6L56.3,91.6z M52.7,92L52.7,92z M58.5,92h0.2l-0.2,0.2V92z M56.3,92.8h0.2v0.5
	h0.2v0.2H57v0.2h-0.5l0.2,0.2h-0.2v-0.2h-0.2V94l-0.2,0.2l0.2-0.2h0.5v0.2H57V94l0,0v0.2l0,0v0.2l0,0v0.2h-0.2V95l-0.2-0.2V95h-0.7
	v0.2h-1l0,0l0,0v0.2h-0.2v0.2l0.2-0.2v0.2h-0.7v-0.2h0.2v-0.2h0.2v-0.5h0.2v-0.2h0.2l0.2-0.2l0,0V94h0.2v-1.2L56.3,92.8L56.3,92.8z
	 M58.7,93v0.2h-0.2V93L58.7,93z M55.1,93h0.2v0.2h-0.2V93z M58.7,93L58.7,93z M57.5,93.5L57.5,93.5z M57.5,94h-0.2v-0.2h0.2V94z
	 M57,94L57,94z M57,94L57,94z M55.4,94L55.4,94z M55.1,94.2V94h0.2L55.1,94.2z M53.9,95.2L53.9,95.2z M55.1,95.4v-0.2l0,0V95.4z
	 M54.9,95.4L54.9,95.4z M53.9,95.4L53.9,95.4z M53.9,95.7h-0.2l0.2-0.2V95.7z M96.4,97.8L96.4,97.8L96.4,97.8z M49.8,99.3L49.8,99.3
	z M92,107.7v0.2h-0.2v-0.2H92z M91.8,107.7L91.8,107.7z M46,111.7L46,111.7z M45.8,112h-0.2v-0.2h0.2V112z M45.5,112L45.5,112h0.2
	v0.2h-0.2v0.2h-0.2l0,0l0,0l-0.2,0.2h0.2v0.2H45v-0.2h-0.2v0.2H45v0.2l0,0v-0.2h0.2v0.2l0,0l-0.2,0.2h-0.5v-0.2h-0.2v0.2h-0.5
	l0.2-0.2l0.2-0.2h0.2v-0.2h0.2v-0.2H45V112h0.2v-0.2h0.2V112z M44.5,112.5L44.5,112.5z M44,113.5l0.2,0.2h0.2v-0.2h0.2v0.2h-0.2v0.2
	h-0.2v-0.2H44V113.5z M53.4,121.4v0.2l0,0v0.2l0,0l-0.2,0.2H53v-0.2l0,0v-0.2h0.2v-0.2H53.4z M15.7,131.2v0.5h-0.2v0.5h-0.2v0.2H15
	l0.2-0.2l0,0v-0.5h0.2v-0.5H15.7z"/>
</svg>
