<?xml version="1.0" encoding="utf-8"?>
<!-- Generator: Adobe Illustrator 20.1.0, SVG Export Plug-In . SVG Version: 6.00 Build 0)  -->
<svg version="1.1" id="Layer_1" xmlns="http://www.w3.org/2000/svg" xmlns:xlink="http://www.w3.org/1999/xlink" x="0px" y="0px"
	 viewBox="0 0 30.6 61.3" style="enable-background:new 0 0 30.6 61.3;" xml:space="preserve">
<style type="text/css">
	.st0{fill:#C14803;}
</style>
<title>new_zealand</title>
<path class="st0" d="M1783.2-55.1L1783.2-55.1v0.2h-0.2v-0.2H1783.2z M-4.6-53.9h0.2v0.2h-0.2V-53.9L-4.6-53.9z M-6-48.6L-6-48.6z
	 M1740-41.9h0.2v0.2h-0.2V-41.9L1740-41.9z M1794.4-28.2v0.2h-0.2v-0.2H1794.4z M1797.8-26.8v0.2h-0.2v0.5h-0.2v0.7l0.2,0.2v0.2h0.2
	v0.2h-0.2v0.2h0.5v0.2h-0.2v0.5h0.2v-0.2h0.2v-0.2h-0.2v-0.2h0.5l0.2-0.2l0,0h0.2v0.2h-0.4v0.7h0.5v-0.2h0.2l0,0h0.5v0.2h0.7v0.2
	h0.2l-0.2,0.2h0.2v0.2h0.5v0.2h-0.2v-0.2l-0.2,0.2l0.2-0.2h-0.2v0.2h-0.2l0.2,0.2h0.2v0.2l0,0v0.2l0,0l0,0h0.2l0,0h0.2l0,0h-0.2l0,0
	h-0.2v-0.2l0,0l0.2-0.2v0.2h0.2v-0.3h0.2l0,0h0.2v-0.2h0.2l-0.2,0.2v0.2l0,0v0.2l0,0l0,0h-0.2v0.2h0.2v0.5h0.2v0.2l-0.2,0.2h0.2v0.5
	h-0.2v0.5l0,0l0,0l0,0v0.7h-0.2l0,0h-0.2v0.2h-0.2v0.7h0.5v1h0.2v0.2h0.2l-0.2,0.2h-0.2v0.2h0.2l0,0l0,0l0,0h-0.2l0,0h-0.2v0.2h0.2
	v0.2h-0.2v-0.2h-0.2l0.2,0.2l0,0l0,0v0.2l-0.2-0.2v0.2l0,0v0.5l0,0l0,0h0.5v0.2h-0.2l0,0h-0.5v0.2l0.2-0.2v0.2h-0.2v0.7h0.2
	l-0.2,0.2v-0.2l0.2,0.2l0,0v0.2h-0.2v0.2h0.2v-0.2l0,0v-0.2h0.2v0.2h0.2v-0.2h0.2v0.2l0,0v0.2h0.2l0,0h0.2l0,0h0.2v0.2l0,0v1.2h0.5
	v-0.2h0.2l-0.2,0.2v-0.2h0.5v-1.7h0.2v-0.2h-0.3l0,0h0.5v-0.5l-0.2,0.2l0.2-0.2h-0.2v-0.2h0.2V-15h0.2v-0.2h-0.2l-0.2-0.2v-0.2h0.2
	V-16h0.2v0.5h0.2l0,0l0,0v0.2h0.2v0.2h-0.2v0.2h0.2v0.2h-0.2v0.2h0.2v-0.2h0.5l0,0l0.2-0.2v0.2h-0.2v0.2h-0.2v0.2h-0.2l0,0h-0.2v0.2
	l0,0v0.2h0.2V-14h0.2l0,0h0.2v0.7l0,0v0.2h-0.2v0.2l0,0v-0.2l0.2,0.2l-0.2,0.2v0.2l-0.2,0.2v0.2l0,0v1.4l0.2,0.5v0.2h0.2v0.3h0.5
	v0.2h0.5V-9h0.2v0.2h0.2v0.2h0.7v0.2h0.5V-8h0.5v0.2h0.7V-8h1v-0.2h0.2v-0.2h0.2v-0.3h0.5V-9h0.2v-0.2l0.2-0.2h0.5v-0.2h0.5V-10h0.5
	v-0.2h1.2v0.2l0.2,0.2h0.5v0.3l0,0l-0.2,0.2V-9l-0.2,0.2h-0.2v0.2h-0.2V-8h-0.2v0.2h-0.2v0.5h-0.2v0.2h-0.2v0.2l0,0v0.2h-0.2v0.2
	l0,0v0.2l-0.2,0.2v0.2h-0.2v0.2l-0.2,0.2v0.2h-0.2l-0.2,0.2l-0.2,0.2h-0.2v0.2h-0.7V-4l0,0l-0.2,0.2l-0.2,0.2v0.2h-0.3v0.5l-0.2,0.2
	V-2h0.2l-0.2,0.2h-0.2v0.2l-0.2,0.2l-0.2,0.2v-0.5h0.2l-0.2-0.2h0.2v-0.2h0.2v-0.2h-1.9l-0.5,0.2h-0.2l-0.2,0.2h-0.5v0.2h-0.2v0.2
	h-0.2l-0.2,0.2v0.2h-0.2l-0.2,0.2l-0.2,0.2v1.2h0.2v0.2h-0.2v0.2l-0.2,0.2v0.2h-0.2V2h-0.2v0.2h-0.2v0.3l-0.2,0.2V3h-0.2v0.5h-0.3
	l-0.2,0.2h-0.2V4h-0.2l-0.2,0.2v0.2h-0.2v0.2l-0.2,0.2v0.2h-0.2v0.2h-0.5l-0.2,0.2l-0.2,0.2l-0.2,0.2l-0.2,0.2h-0.2l-0.2,0.2v0.2
	l-0.2,0.2v0.2h-0.2v0.2h-0.2v0.2h-0.2v0.5h-0.2v0.3l-0.2,0.2h-0.2V9l-0.2,0.2h-0.2v0.2h-0.3v0.2h-0.2V10h-0.5v0.2h-0.2v0.2h-0.5v0.2
	h-0.2l-0.2,0.2h-0.5v0.2h-0.5v-0.7h0.2v-0.2h-0.2V9.9h-0.7v0.2h-0.4V9.7h0.2V9.5h0.2V9.2h-0.5v0.2l0,0v0.2h-0.5l0,0h-0.2V9.2h0.2V9
	h0.2V8.7h0.2V8.5h0.5V8h0.5V7.8l0.2-0.2V7.3l0.2-0.2h0.2V6.8h0.2V6.3h0.2V6.1h0.2V5.9l0.2-0.2l0.2-0.2V5.1l0.2-0.5l0.2-0.2V2.7h-0.2
	V2.3h-0.2V2h-0.2l-0.2-0.2V2h-0.2l-0.2-0.2h-0.2V1.5h-0.2V1.3h-0.2V0.8h-0.2V0.6h-0.2l-0.2-0.2h-0.7V0.1h-0.2v-0.5h-0.2v-0.7h0.2
	v-0.2l0.2-0.2h0.2v-0.2h0.2v-0.2h0.5l0.2-0.2h0.2l0.2-0.2h0.2l0.2-0.2h0.2l0.2,0.2l0.2-0.2h0.2l0.2-0.2v-0.2h0.2l0.2-0.2l0.2-0.2V-4
	h0.2v-0.5l0.2-0.2V-5l0.2-0.2v-0.2h0.2v-0.5h0.2v-0.2h0.2v-0.5h0.2v-0.5h0.2v-0.2h0.2v-0.2l0.2-0.2v-0.7l0.2-0.2h0.2v-0.5l0.2-0.2
	v-1.7h0.2l0.2-0.2h-0.2v0.2h-0.2v-1.7h-0.2v-0.5h0.2l-0.2-0.2h0.2v-0.2l0,0v-0.5l-0.2-0.2v-0.7l-0.2-0.5V-16h0.2l0,0l0.2-0.2v0.7
	h0.2l-0.2,0.2h0.2l0,0l0,0l0,0h0.2l-0.2,0.2h0.2v-0.2l0,0v-0.2l0,0v-0.2l0,0V-16h0.2v-0.5h0.2l0,0h-0.2l0,0h-0.2l0,0h-0.2v0.2
	l-0.2-0.2h0.2v-0.2h0.5V-17h0.2l0,0h0.5v-0.2h-0.2l0,0l-0.2,0.2l0,0l0,0h-0.2l0,0h-0.2l0,0l0,0l0,0h0.2v-0.2h0.2v-0.2l0,0l0.2-0.2
	l0,0l0,0h-0.2v0.2l-0.2,0.2l0,0h-0.2v-0.2l0,0v-0.2l0,0l0,0l-0.2,0.2v-0.2h0.2l0,0h-0.2v0.2l0,0v0.2l0.2-0.2l-0.2,0.2h0.2l0,0h-0.2
	l0,0h-0.2v-0.2h-0.2l0,0h-0.2v-0.2h-0.2l0.2,0.2v0.2h0.2v0.7h-0.2v0.2h-0.5v-0.2h0.2v-0.7h-0.2v-0.7l-0.2-0.2v-0.2l-0.2-0.2v-0.5
	l-0.2-0.2v-0.2l-0.2-0.2v-0.5h-0.2V-21l-0.2-0.2v-0.2l-0.2-0.2v-0.8h-0.3v-0.2h0.5V-23l0.2-0.2v-1l-0.2-0.2v-0.2l-0.2-0.2v-0.7h-0.2
	v-0.2l-0.2-0.2h-0.2v-0.5l0.2-0.2v0.2h0.7v-0.2H1797.8L1797.8-26.8z M1800.2-23.9L1800.2-23.9z M1800.9-23.7L1800.9-23.7z
	 M1801.6-22.5L1801.6-22.5z M1800.9-22.5L1800.9-22.5z M1803.3-21L1803.3-21z M1801.9-19.8L1801.9-19.8z M1802.4-18.8L1802.4-18.8z
	 M1804.3-18.6L1804.3-18.6z M1802.4-18.6L1802.4-18.6z M1805-18.1v0.5l0,0v0.2l0,0v0.5h0.2v0.2h-0.2l0,0h-0.2v-0.2h-0.2v-0.3h-0.2
	v-0.2h0.2v-0.2h0.2v-0.5L1805-18.1z M1803.6-17.4v0.2h-0.2v-0.2H1803.6z M1804.3-17.4L1804.3-17.4z M1802.1-16.2v0.2h-0.2v-0.2
	H1802.1z M1806-15.9h-0.2v-0.2h0.2V-15.9z M1805.7-15.2v0.2h-0.2v-0.2H1805.7z M1801.6-14.5v0.2l0,0V-14.5z M1802.6-14.5l0.2,0.2
	h-0.3v0.2h-0.2l0,0h-0.5v-0.2h0.7L1802.6-14.5L1802.6-14.5L1802.6-14.5z M1803.8-14.5L1803.8-14.5z M1801.4-14.3v0.2h-0.2v-0.2
	H1801.4z M1802.6-14v0.5h-0.2l0.2-0.2l0,0V-14z M1805.5-12.8L1805.5-12.8z M1806.2-11.6L1806.2-11.6z M1806.2-9.7L1806.2-9.7z
	 M1808.2-8.5L1808.2-8.5z M1785.4,5.4h1l0.2,0.2l-0.2-0.2H1785.4v0.2h-0.2v0.2l-0.2,0.2v0.5l0.2,0.2v0.2h0.5V6.8h0.2l-0.2,0.2h0.2
	V6.8h0.2v0.2h-0.2v0.2h0.2v0.5h-0.2V8l0,0v0.2h-0.3l0,0h0.2v0.3h-0.2V9h0.2l-0.2-0.2h0.2v0.5l0,0v0.2h0.2v0.2l0.2-0.2l0,0l0.2-0.2
	h0.2V9l0.2-0.2h0.5V8.5h0.2V8.3h0.2v0.2h0.2V8.3h0.5V8l-0.2,0.2V8h0.2V7.8h0.2l0.2-0.2v0.2h0.2V7.5h0.2l0,0l0,0v0.2h-0.2V8h-0.5l0,0
	l0,0l-0.2,0.2v0.3l0,0V8.3h0.5l0,0l-0.2,0.2l0,0v0.2l0,0V9h-0.2v0.2h-0.5v0.2l0.2-0.2v0.2l0,0l0.2-0.2h0.2V9h1V8.8l-0.2,0.2V8.8
	h-0.2l0,0l-0.2,0.2h-0.2V8.8h0.2V8.5l0.2-0.2v0.2h0.2V8.3h0.2V8h-0.2v0.2h-0.2l0.2-0.2l-0.2,0.2V8h0.2V7.8l0,0V8h0.5l0,0h0.2l0,0
	h0.2l0,0h-0.2v0.2h0.2V8h0.2l0,0h-0.3v0.5h-0.2v0.2h-0.2l0.2-0.2h-0.2v0.2l0,0V9h-0.5l0,0h-0.2v0.2h-0.5v0.2l0.2-0.2l0,0h0.2l0,0
	h0.2l0,0h0.5l0,0h0.5l0,0h-0.2v0.2h-0.2v0.2h-0.2V9.5h-0.2v0.2h-0.2V10l-0.2,0.2v0.5h0.2v0.2l0,0l0.2,0.2h-0.2v0.5h0.2v0.2l0,0v0.2
	h-0.2v0.2h-0.2v0.2h-0.2v0.2h-0.2l-0.2,0.2v0.2h-0.2l-0.2,0.2V14h-0.2v0.2h-0.2v0.2h-0.5v0.2l-0.2,0.2l-0.2,0.2h0.2v0.2h-0.2v-0.3
	h-0.2v0.2h-0.2l-0.2,0.2v0.5h-0.3v0.2l-0.5,0.2v0.2l-0.2,0.2v0.2h-0.3v0.5h-0.2l-0.2,0.2l-0.2,0.2h-0.2l-0.2,0.2h-0.2l-0.2,0.2h-0.5
	v0.2h-0.2v-0.2l-0.2,0.2h0.2l-0.2,0.2l0,0v0.2h-0.2v0.2l-0.2,0.2v1l-0.2,0.2h0.2v0.2h-0.5v0.2h0.2l0,0h0.2v-0.2h0.2v0.2l0,0v-0.2
	h0.2v0.2h-0.2V22h0.2v-0.5l0.2,0.2V22l0.2-0.2V22h0.2v0.2l0,0v0.2h-0.2v0.2h-0.2v0.2h-0.5v-0.2h0.2v-0.3h-0.2l0.2-0.2h-0.2v0.7h-0.5
	l0,0h-0.2v-0.5l0,0v0.2h-1.2l-0.2,0.2l0,0h-0.7v0.2h-0.5l-0.2,0.2h-0.2l-0.2,0.2h-0.2l-0.2,0.2h-0.5l-0.2,0.2h-0.2l-0.2,0.2
	l-0.2,0.2h-0.2v0.2h-0.2l-0.2,0.2h-0.2l-0.2,0.2v0.5l-0.2,0.2l-0.2,0.2v0.5h-0.2v0.7l-0.2,0.5v0.5h-0.2v0.2h-0.2v0.2h-0.2v0.2h-0.2
	v0.2h-0.2v0.2h-0.2v0.2h-0.2v0.2l-0.2,0.2v0.2l0,0v0.2l-0.2,0.2l0,0v0.2h-0.2v0.2l-0.2,0.2h-0.2V32h-0.2v0.5h0.2v0.2h-0.2l-0.2,0.2
	l0,0h-0.2v0.2h0.2V33h0.2v-0.2h0.2v-0.2l0.2,0.2h-0.2V33l0,0v0.2h-0.2l0,0h-0.7v0.2h-0.7l-0.2,0.2l-0.2,0.2h-0.2l0.2,0.2h-0.2v0.2
	l-0.2,0.2l-0.5,0.2l-0.2,0.2h-0.2v0.2h-0.5v0.2h-0.2v0.5h-0.7v0.2l0.2-0.2l0,0h0.2v0.2h-0.2l-0.2,0.2h-0.7v0.2h-0.5v0.2l-0.2-0.2
	v0.2h-0.5l0,0h-0.5v0.2l-0.2-0.2h-0.4v-0.5l0,0v0.2l-0.2-0.2h-0.2l-0.2,0.2h-0.7l0,0h0.2l0.2-0.2h-1v0.2l0,0v-0.2h-0.2v-0.2h0.2l0,0
	h0.5v-0.2l0,0v-0.2h-0.2v0.2l0,0v0.2h-0.3v-0.5h-0.2v-0.3h-0.2v-0.2l-0.2,0.2v-0.2h-0.2v0.2h-0.2l-0.2,0.2v-0.2h-0.5v-0.2h0.2v-0.2
	l-0.2-0.2h-0.2l0.2-0.2v-0.2l0,0v0.2h-0.5l-0.2-0.2h-0.2v0.2h-0.2v0.2l-0.2,0.2v-0.2h-0.2v0.2h-0.4v-0.2h-1.7v-0.5h0.2v-0.2h0.5
	v-0.5h0.5v-0.2h-0.2v0.2h-0.3l-0.2,0.2l0,0v0.2h-0.2l0.2-0.2h-0.2v0.2h-0.2v-0.5h0.7v-0.2h-0.2v-0.2l0.2-0.2h-0.2v0.2h-0.2v0.2
	l-0.2,0.2h-0.5V33h0.2v-0.2h1v-0.2h0.5l0,0h0.5v-0.2h-0.5l-0.2,0.2V32h0.7v-0.2h-0.2l-0.2,0.2h-0.2v-0.2h0.2v-0.3h0.5v-0.2h0.5l0,0
	h-0.5l-0.2,0.2h-0.8l0.2-0.2h0.2l-0.2-0.2h0.2v-0.5h0.2v0.2h0.2v-0.2h-0.2v-0.2h0.2v-0.2h0.5v0.2h0.2v0.5l-0.2-0.2v0.2h0.2v-0.5h0.2
	V31h-0.2l0,0h0.2l0,0h0.2l-0.2-0.2v-0.5h-0.2v-0.2h0.5v0.2h0.2l0,0h-0.2v-0.2l0.2-0.2h-0.2v0.2h-0.5v-0.7h0.2v-0.2l0.2,0.2v0.2l0,0
	v-0.5l0,0l0,0h0.2l0,0l0,0v-0.5h0.2v0.2h0.2l-0.2-0.2v-0.2h0.2v-0.2h0.2v-0.2h0.5v0.2l-0.2,0.2h0.2l-0.2,0.2h0.2v-1h0.2v-0.2h0.2
	v0.2l0,0l0,0h0.2v-0.2h-0.2l0.2-0.2h0.2v-0.2h0.2v-0.2h0.2l0.2-0.2h0.2v0.2h0.2v0.2h0.2v-0.2h-0.2v-0.2h-0.2l0.2-0.2V26l0.2-0.2
	l0.2-0.2h0.2v-0.2l0.2-0.2l0,0l0.2,0.2v-0.2h0.2l-0.2-0.2h0.2v-0.2h0.2v-0.2h0.2l0.2-0.2l0.2-0.2v-0.2h0.7v-0.2h1.2l0.2-0.2h0.2
	v-0.2h0.2l0.2-0.2h0.2l0.2-0.2l0.2-0.2h0.2v-0.2h0.5v-0.2h0.2l0.2-0.2l0,0h0.7v-0.2h0.2l0.2-0.2l0.2-0.2l0.2-0.2h0.2v-0.2h0.5
	l0.2-0.2v-0.2h0.5v-0.3h0.2l0.2-0.2V19h0.2v-0.2h0.5l0.2-0.2l0.2-0.2h0.5l0.2-0.2h0.2v-0.2h0.2l0.2-0.2l0,0l0.2-0.2l0.2-0.2l0.2-0.2
	h0.2v-0.2h0.2v-0.2h0.2v-0.2h0.2v-0.2l0.2-0.2v-0.2h0.2v-0.2l0.2-0.2v-0.2h0.2v-0.2l0.2-0.2v-0.5h0.2v-0.5h0.2v-0.2l0.2-0.2v-0.2
	l0.2-0.2v-0.5h1l0.2-0.2l0.2-0.2h0.2v-0.2h0.2v-0.2h0.2v-0.2l0.2-0.2v-0.2h0.2l0.2-0.2V9.7h0.2V9.2l0,0L1782,9V8.3h0.2v-1h0.2V7h0.2
	V6.8h0.2V6.6h0.2l0,0h0.2V6.3h0.2V6.1h0.2l0.2-0.2h0.2V5.6h0.5V5.4L1785.4,5.4L1785.4,5.4z M1790.2,6.1L1790.2,6.1z M1789.9,6.4v0.2
	l-0.2,0.2v0.2h-0.2v0.2h-0.2v0.2h-0.2V7.3h0.2V6.8h0.2l0,0l0,0V6.6h0.5V6.4z M1789.9,6.9L1789.9,6.9z M1793.8,7.1h-0.2v0.2h-0.2
	l0.2-0.2H1793.8z M1790.2,7.3v0.2l-0.2-0.2L1790.2,7.3z M1790.2,7.6v0.2h-0.2V7.5L1790.2,7.6z M1789.2,8.1L1789.2,8.1L1789.2,8.1z
	 M1792.8,8.5h-0.2l0.2-0.2L1792.8,8.5z M1790.6,8.5L1790.6,8.5z M1791.1,8.5l-0.2,0.2V9h-0.5l0,0l-0.2,0.2l0,0V9h0.5V8.8h0.5V8.5
	h-0.2v0.2h-0.2V8.5H1791.1z M1790.3,9L1790.3,9z M1789.6,9L1789.6,9z M1786,9.2v0.2h-0.2V9.2L1786,9.2z M1785.8,9.5L1785.8,9.5z
	 M1786,9.5L1786,9.5z M1778.6,12.3L1778.6,12.3z M1781.2,21.7h-0.2l0.2-0.2V21.7z M13.4,21.9h0.2v0.2h1.2l0,0l-0.3,0.2h-0.2v0.7l0,0
	v-0.2h-0.2v-0.2h0.2v-0.2h-0.2v-0.2h-0.2l0,0h-0.2v0.2h0.5v0.2h-0.2v0.5h0.2v0.2h0.2v0.2h0.2v0.2h-0.5v0.2h-0.5v-0.2h-0.2v-0.5h0.2
	l0,0h0.2v-0.5h-0.2v-0.2h-0.2v-0.2h-0.2v0.2h-0.7v-0.2h0.2l0,0h0.2v-0.2h0.5L13.4,21.9z M12.4,22.9L12.4,22.9z M14.3,23.2L14.3,23.2
	z M16,24.6L16,24.6z M15.3,24.9h0.3v0.2h-0.2v0.2h-0.3v-0.2h0.2L15.3,24.9L15.3,24.9L15.3,24.9L15.3,24.9z M15,25.1h-0.2l0.2-0.2
	V25.1z M1757.2,30.1h-0.2v-0.2h-0.2l0.2-0.2v-0.2h0.2C1757.2,29.4,1757.2,30.1,1757.2,30.1z M1756.8,30.1L1756.8,30.1z M1755.6,31.5
	L1755.6,31.5z M1756.1,31.8L1756.1,31.8z M1755.6,31.8h0.2v0.5h-0.2v0.3h-0.2l0,0h-0.2v-0.2h-0.2l-0.3,0.2v-0.2h0.2V32h0.2v-0.2
	L1755.6,31.8L1755.6,31.8z M1756.1,32.2h0.2v0.3h-0.2V32.2z M1755.1,32.5L1755.1,32.5z M1755.8,32.5h-0.2l-0.2,0.2h-0.2v-0.2
	L1755.8,32.5L1755.8,32.5z M1755.1,32.5L1755.1,32.5z M1754.8,33.7l-0.2,0.2v-0.2H1754.8z M1754.6,33.9v0.2l-0.2-0.2H1754.6z
	 M1755.1,34.2L1755.1,34.2z M1754.8,34.4v-0.2h0.2v0.2H1754.8z M1758.9,36.1L1758.9,36.1z M1755.3,36.6L1755.3,36.6z M1761.1,36.6
	h0.2l-0.2,0.2V36.6z M1758.9,37.3h0.2v0.5h0.2V38h0.2v0.2h-0.5l0.2,0.2h-0.2v-0.2h-0.2v0.3l-0.2,0.2l0.2-0.2h0.5v0.2h0.2v-0.2l0,0
	v0.2l0,0V39l0,0v0.2h-0.2v0.2l-0.2-0.2v0.2h-0.7v0.2h-1l0,0l0,0V40h-0.2v0.2l0.2-0.2v0.2h-0.7V40h0.2v-0.2h0.2v-0.5h0.2V39h0.2
	l0.2-0.2l0,0v-0.2h0.2v-1.2L1758.9,37.3L1758.9,37.3z M1761.3,37.5v0.2h-0.2v-0.2L1761.3,37.5z M1757.7,37.5h0.2v0.2h-0.2V37.5z
	 M1761.3,37.5L1761.3,37.5z M1760.1,38L1760.1,38z M1760.1,38.5h-0.2v-0.2h0.2V38.5z M1759.6,38.5L1759.6,38.5z M1759.6,38.5
	L1759.6,38.5z M1757.9,38.5L1757.9,38.5z M1757.7,38.7v-0.2h0.2L1757.7,38.7z M1756.5,39.7L1756.5,39.7z M1757.7,40v-0.2l0,0V40z
	 M1757.5,40L1757.5,40z M1756.5,40L1756.5,40z M1756.5,40.2h-0.2l0.2-0.2V40.2z M1798.9,42.4L1798.9,42.4L1798.9,42.4z M1752.4,43.8
	L1752.4,43.8z M1794.6,52.2v0.2h-0.2v-0.2H1794.6z M1794.4,52.2L1794.4,52.2z M1748.6,56.3L1748.6,56.3z M1748.3,56.5h-0.2v-0.2h0.2
	V56.5z M1748.1,56.5L1748.1,56.5h0.2v0.2h-0.2V57h-0.2l0,0l0,0l-0.2,0.2h0.2v0.2h-0.2v-0.2h-0.2v0.2h0.2v0.2l0,0v-0.2h0.2v0.2l0,0
	l-0.2,0.2h-0.5v-0.2h-0.2v0.2h-0.5l0.2-0.2l0.2-0.2h0.2v-0.2h0.2V57h0.2v-0.5h0.2v-0.2h0.2V56.5z M1747.1,57L1747.1,57z M1746.6,58
	l0.2,0.2h0.2V58h0.2v0.2h-0.2v0.2h-0.2v-0.2h-0.2V58z M1756,65.9v0.2l0,0v0.2l0,0l-0.2,0.2h-0.2v-0.2l0,0v-0.2h0.2v-0.2H1756z
	 M1718.3,75.7v0.5h-0.2v0.5h-0.2v0.2h-0.2l0.2-0.2l0,0v-0.5h0.2v-0.5H1718.3z"/>
</svg>
