<?xml version="1.0" encoding="utf-8"?>
<!-- Generator: Adobe Illustrator 20.1.0, SVG Export Plug-In . SVG Version: 6.00 Build 0)  -->
<svg version="1.1" id="Layer_1" xmlns="http://www.w3.org/2000/svg" xmlns:xlink="http://www.w3.org/1999/xlink" x="0px" y="0px"
	 viewBox="0 0 65.9 20.2" style="enable-background:new 0 0 65.9 20.2;" xml:space="preserve">
<style type="text/css">
	.st0{fill:#C14803;}
</style>
<title>new_caledonia</title>
<path class="st0" d="M8.8,2.1v-1L9,0.9v1.2L8.8,2.1z M4.2,1.4L4.2,1.4z M0.4,3.3L0.4,3.3z M26.8,3.5L26.8,3.5z M0.6,3.5L0.6,3.5z
	 M27,4.3h0.2v0.2H27V4l0,0V4.3L27,4.3z M28.4,5.7v0.5h-0.2V5.7H28.4z M27.4,5.9L27.4,5.9z M29.4,6.4L29.4,6.4l-0.2-0.2V5.9h0.2V6.4z
	 M28.4,6.2V5.9l0.2,0.2v0.2h0.2v0.2h0.2v0.2h0.2v0.2h0.5V6.9h0.5v0.2h0.5v0.2L31,7.6v0.2h0.2v0.2h0.5v0.2H32v0.5h0.2l0.2,0.2v0.2H33
	v0.2h0.7v0.2H34v0.5h0.2v0.2h0.5V11h-0.2v0.2h0.2v0.2H35v0.2h0.5V12l0,0v0.5h0.7v0.2h0.2v0.2h0.2l0,0h0.2v0.7h0.2v-0.2l-0.2-0.2l0,0
	l0.2-0.2v0.2h0.2v0.5h0.5v0.2h0.2v0.2h0.2l0.2,0.2l0,0v0.2H39v0.2l0,0l0.2,0.2v0.2h0.2v0.2h0.2v0.2h0.5V16h0.2l-0.2,0.2h0.5l0.2,0.2
	h0.2v0.7h0.2v0.5h-0.2v0.2h-0.2v0.2h-0.2v-0.2h-0.2l0,0l0,0v0.2H40v-0.2h-0.2v-0.2h-0.5L39,17.5l0,0l-0.2-0.2v0.5h-0.2v-0.2l0,0
	v-0.2l0,0V17h-0.2v0.2h-0.2V17h-0.5v-0.2h-0.2v-0.2l-0.2,0.2v-0.2h0.2v-0.2l0,0v-0.5h-0.2v-0.2h-0.2v0.2l0,0L36.6,16v-0.2h-0.2v-0.2
	h-0.2v-0.2l-0.2,0.2v-0.5h-0.2v-0.5l-0.2,0.2l0,0v-0.2l-0.2,0.2l0,0h-0.2v-0.2h-0.5v-0.5h-0.7v-0.2h-0.2v-0.2h-0.2v-0.2H33v-0.2
	h-0.2v-0.2h-0.2v-0.2l0,0l-0.2-0.2v0.2H32v-0.2l-0.2-0.2V12h-0.2v-0.2h0.2v-0.2h-0.2v-0.2h-0.5v-0.5l0,0l-0.2-0.2h-0.2v-0.2h-0.5V10
	h-0.2V9.8h-0.2V9.6h0.2V9.3h-0.2V8.8h-0.2V8.6h-0.2V8.4h-0.2V7.9h-0.2V7.6h0.2V7.4l0,0V7.2h-0.2l0,0h-0.2l-0.2-0.2h0.5V6.7l0,0V6.4
	h-0.2L28.4,6.2z M28.1,6.2L28.1,6.2z M28.4,6.9l-0.2-0.2h0.2V6.9z M29.6,6.9L29.6,6.9z M29.3,7.1L29.3,7.1z M29.6,7.1L29.6,7.1z
	 M29.8,7.1L29.8,7.1z M29.8,7.1L29.8,7.1z M28.6,7.4L28.6,7.4z M28.6,7.4L28.6,7.4z M41.1,7.6v0.5h-0.2v0.2l0,0l-0.2,0.2v0.2h0.2
	l-0.2,0.2v0.2h-0.5l0.2-0.2l0.2-0.2V8.4h0.2V7.9h-0.1V7.6L41.1,7.6L41.1,7.6z M40.6,7.6L40.6,7.6z M38.7,7.6L38.7,7.6z M44,9.3v0.5
	L43.7,10H44v0.2h-0.2v0.2h0.5V11h0.2v0.2l-0.2,0.2v0.2H44V12l-0.2-0.2v-0.2h-0.2v-0.2l-0.2,0.2v-0.2h-0.5v-0.5l0,0l-0.2-0.2H43v-0.2
	h0.2V10l0.2-0.2h-0.4V9.6h-0.2V9.3h0.7V9.1h0.2v0.2H44z M40,9.3v0.2h-0.2l0,0H40V9.3z M30.4,10.5L30.4,10.5z M31.1,11.5L31.1,11.5z
	 M46.5,11.8h-0.2v-0.2h0.2V11.8z M45.3,11.8L45.3,11.8z M45.8,12.9L45.8,12.9z M46.8,12.9H47v0.5h0.2v-0.2h0.5v0.2h-0.2v0.7h-0.2
	v0.2h-0.7v-0.2H46v-0.2h0.2v-0.7L46,12.9L46.8,12.9l0-0.3H47v0.2L46.8,12.9z M32.4,12.9L32.4,12.9z M39,14.6L39,14.6L39,14.6z
	 M35.4,14.8v0.2h-0.2L35.4,14.8z M35.6,15.1L35.6,15.1z M37.3,15.8L37.3,15.8z M37.1,16L37.1,16z M36.6,16L36.6,16z M36.9,16.2V16
	l0.2,0.2H36.9L36.9,16.2z M36.9,16.5h-0.2l0.2-0.2V16.5z M37.1,16.7L37.1,16.7z M37.8,17.2L37.8,17.2z M38.5,17.2L38.5,17.2z
	 M38.5,17.4v0.2h-0.2v-0.2H38.5z M65.7,18.2L65.7,18.2z M40.2,18.2h0.2v0.2h-0.2v0.2H40v-0.5H40.2z M43.1,18.9h0.2v0.2h0.2v0.2h-0.2
	v0.2h-0.5v-0.2l0,0l0.2-0.2L43.1,18.9z M50.5,19.4L50.5,19.4z M43.5,19.6v0.2h-0.2l0,0h0.2V19.6L43.5,19.6z"/>
</svg>
