<?xml version="1.0" encoding="utf-8"?>
<!-- Generator: Adobe Illustrator 20.1.0, SVG Export Plug-In . SVG Version: 6.00 Build 0)  -->
<svg version="1.1" id="Layer_1" xmlns="http://www.w3.org/2000/svg" xmlns:xlink="http://www.w3.org/1999/xlink" x="0px" y="0px"
	 viewBox="0 0 103.3 295" style="enable-background:new 0 0 103.3 295;" xml:space="preserve">
<style type="text/css">
	.st0{fill:#C14803;}
</style>
<title>polymicro</title>
<path class="st0" d="M-1728.4,1.1V0.9h0.2v0.2H-1728.4z M-1728.2,1.1V0.9l0.2,0.2H-1728.2z M-1719.1,12.4L-1719.1,12.4z
	 M-1669.4,28.3L-1669.4,28.3z M-1659.1,32.6h0.5v0.5h-0.2v0.2l-0.2,0.2v0.2l-0.2,0.2h-0.2v0.2h-1.2V34l-0.2-0.2h-0.2v-0.5h0.2V33
	h0.2v-0.2h0.5v-0.2L-1659.1,32.6L-1659.1,32.6z M-1662.7,33.6L-1662.7,33.6z M-1662.7,33.8l-0.2,0.2v0.2h-0.5v0.2h-0.3v0.2h-0.2
	v-0.2l0.2-0.2l0.2-0.2h0.2l0.2-0.2H-1662.7z M-1652.8,35.8V37h0.2v-0.5l0.2,0.2l0,0h-0.2V37h0.2v0.5l-0.2,0.2v-0.2h-0.2v0.2h-0.2
	l-0.2-0.2v-0.2l-0.2,0.2h-0.2v-0.2h0.2V37h-0.2l0,0h-0.2v0.2h0.2v0.2h-0.7V37h-0.2v-1h0.7v-0.2h0.2l0.2-0.2h0.2v-0.2h0.2v0.2h0.2
	V35.8L-1652.8,35.8L-1652.8,35.8z M-1653.8,37.2l0.2-0.2v0.2H-1653.8z M-1650.5,37.9h1l0.2,0.2v-0.2h0.2v0.2h1v0.2h-0.2v0.2h-1.4
	v-0.2h-0.5l0,0h-0.2v0.2h-0.5v-0.5h0.5L-1650.5,37.9z M-1647.6,38.9l0.2,0.2v0.5h0.2v-0.2h1.2v0.5l0.2-0.2v0.2h0.2V40h0.2v0.5h-0.2
	v0.2h-0.5V41h-1v0.2h-0.7v-1h0.2V40h-0.7l-0.2-0.2v-0.5l0.2-0.2v-0.2h0.5L-1647.6,38.9z M-1647.4,39.4L-1647.4,39.4z M-1649.5,39.4
	h0.2v0.2h0.2V40h-0.2v0.2h-0.7v-0.5l-0.2-0.2l0.2-0.2h0.5V39.4z M-1648.3,41.3v0.2h-0.7l0.2-0.2h0.2V41h0.2V41.3L-1648.3,41.3
	L-1648.3,41.3z M-120.9,41.5L-120.9,41.5z M-1645.2,42.9h0.2v0.2h0.3l0.2,0.2v0.2h1v0.2h0.2v0.2h0.5v0.2h0.2v0.5h0.2v0.5h-0.2v0.2
	h0.5v0.7l0.2,0.2h0.2V47h-0.2v0.2h-0.2l-0.2,0.2h-0.2v0.2h-0.5l-0.2,0.2h-0.2l-0.2,0.2h-0.5l0,0h-0.5v0.2h-0.5v0.2h-0.5v0.2h-0.2
	v0.2l-0.2,0.2v0.2h-0.2l-0.2,0.2h-0.2v-0.2h-0.2l-0.2-0.2h-0.2v-1h0.2v-0.5l0.2-0.2V46h-0.2v-0.5h0.2v-0.2h0.2V45h0.5v-0.2h0.2v-0.2
	h0.2v-0.2h0.2v-0.5l-0.2-0.2v-0.2l0.2-0.2v-0.2L-1645.2,42.9L-1645.2,42.9z M-115.4,45.8L-115.4,45.8z M-8.8,48h-0.2v-0.2h0.2V48z
	 M-8.8,48L-8.8,48z M-8.6,48L-8.6,48z M-110.8,50.8h-0.2v-0.2h0.2V50.8L-110.8,50.8z M-107.9,54.2h-0.2V54h0.2V54.2z M-106.3,56.8
	L-106.3,56.8z M-105.3,58.3h0.2v0.2h-0.2V58.3z M-1720,61.4L-1720,61.4z M-103.7,61.6L-103.7,61.6z M-103.2,63.3h0.2v0.2h-0.5v-0.2
	H-103.2z M-100.1,65.2L-100.1,65.2z M-99.1,69.1h-0.2v0.5h0.2v0.2l-0.2-0.2v0.2h0.2V70h-0.2l-0.2-0.2V69L-99.1,69.1L-99.1,69.1z
	 M-99.3,70.5v0.2h0.2l-0.2,0.2v-0.2h-0.2v-0.2h-0.2V70h0.2v0.2h0.2V70.5z M-99.5,71.5v-0.2l0,0V71.5z M20.5,72.7L20.5,72.7z
	 M20.5,72.7L20.5,72.7z M-99.1,74.9v0.2h-0.2v0.2l-0.2-0.2l0,0v-0.2h0.2l0,0H-99.1z M-99.5,78h0.2v0.5l-0.2,0.2v1.2h-0.2v-0.2h-0.2
	v-0.2l-0.2-0.2V79h-0.2v-0.2h0.2v-0.2h0.5v-0.7h0.2V78z M33.5,85L33.5,85z M33.5,85.2L33.5,85.2z M9.9,87.9L9.9,87.9z M-5.7,88
	L-5.7,88z M11.3,88.2L11.3,88.2z M10.9,89L10.9,89z M17.6,89.2L17.6,89.2z M-4.5,89.9L-4.5,89.9z M34.6,90.2v0.2h-0.2L34.6,90.2z
	 M19.5,90.6L19.5,90.6z M16.9,90.9L16.9,90.9z M17.1,90.9L17.1,90.9z M36.8,94.2L36.8,94.2z M42.1,95.2L42.1,95.2z M37.7,95.7
	L37.7,95.7z M16.6,95.7L16.6,95.7z M17.1,96L17.1,96L17.1,96z M32.9,96.7L32.9,96.7z M33.2,97.2L33.2,97.2z M-118.7,97.4
	L-118.7,97.4z M35.1,97.6L35.1,97.6z M34.6,97.6L34.6,97.6z M35.1,97.6L35.1,97.6z M34.4,97.9L34.4,97.9z M-113.9,98.1L-113.9,98.1z
	 M-8.1,98.1L-8.1,98.1z M-125.9,98.8v0.2h0.2v0.2h-0.2l0,0l0,0v0.2h-0.2v0.2l-0.2-0.2l0,0v-0.2h0.2v-0.2h0.2V98.8h-0.2l0,0H-125.9z
	 M38.7,99.3L38.7,99.3z M40.4,99.3L40.4,99.3z M40.4,99.6L40.4,99.6z M40.6,99.8L40.6,99.8z M26.5,100L26.5,100z M25.5,101.5
	L25.5,101.5z M18.5,102.5L18.5,102.5z M21.1,102.5L21.1,102.5z M20.9,102.5L20.9,102.5z M45.3,102.7L45.3,102.7z M28.8,102.7
	L28.8,102.7z M29,103.2L29,103.2z M28.8,103.4L28.8,103.4z M29,103.4v0.2l-0.2-0.2H29z M-64.6,104.4h-0.2v-0.2h0.2V104.4z
	 M-52.3,104.4L-52.3,104.4z M-60.7,104.4L-60.7,104.4z M47.5,104.7v0.2l-0.2-0.2H47.5z M47.5,105.9L47.5,105.9z M28.1,105.9
	L28.1,105.9z M47.7,106.4L47.7,106.4z M47.5,106.4L47.5,106.4z M48,106.4L48,106.4z M-141.6,107.1L-141.6,107.1z M33.4,108.8
	L33.4,108.8z M-141.3,109.5v1.2h-0.2l0,0h-0.2v-0.2h-0.2V110h0.2l0,0l0,0v-0.2l0,0v-0.2h0.2v-0.2l0,0V109h0.2
	C-141.3,109-141.3,109.5-141.3,109.5z M37.5,109.5L37.5,109.5L37.5,109.5z M37.5,110.2L37.5,110.2z M35.8,110.7l-0.2-0.2l0,0
	L35.8,110.7z M-51.6,110.2h0.2v0.2h-0.2V110.2z M-52.1,110.7L-52.1,110.7z M-52.5,110.7v0.2h-0.2v-0.2H-52.5z M-51.1,110.7
	L-51.1,110.7z M-51.3,110.9h-0.2v-0.2h0.2V110.9z M-51.8,110.7L-51.8,110.7z M-142.1,110.9h0.2l0,0H-142.1L-142.1,110.9z
	 M-52.3,110.9L-52.3,110.9z M36.3,110.9H36v-0.2L36.3,110.9z M-142.1,111.2h0.2v0.2h-0.2l0,0l0,0V111.2z M36.5,110.9L36.5,110.9z
	 M-51.1,111.2L-51.1,111.2z M36.5,111.2L36.5,111.2z M-51.3,111.2L-51.3,111.2z M-142.1,111.2L-142.1,111.2z M-142.3,111.4
	L-142.3,111.4z M52.1,111.4L52.1,111.4L52.1,111.4z M49.2,111.6v-0.2l0,0V111.6z M-50.4,111.6L-50.4,111.6z M-142.1,111.9h-0.2v-0.2
	L-142.1,111.9z M-50.6,111.9L-50.6,111.9z M50.2,112.4h-0.2l-0.2-0.2h-0.5l-0.2-0.2h0.2v0.1h0.2l0.5,0.2L50.2,112.4z M-50.6,111.9
	L-50.6,111.9z M50.4,112.1L50.4,112.1z M53.7,111.9v0.1l0,0l-0.2-0.2l0,0L53.7,111.9z M50.6,112.1L50.6,112.1L50.6,112.1z
	 M50.4,112.4L50.4,112.4l0.2-0.2l0,0v0.2H50.4z M53.5,112.1l-0.2,0.2V112L53.5,112.1z M53,112.6L53,112.6z M-142.8,112.6
	L-142.8,112.6v-0.2h0.2v0.2H-142.8z M52.3,112.6h0.2l0.2,0.2h-0.2v-0.2H52.3z M-17.8,112.6L-17.8,112.6z M-17.8,112.8h0.5v0.2h0.2
	v0.2l0,0l0,0h0.2v0.2h-0.2v0.2l-0.2-0.2v0.2h-0.4v-0.5h-0.2V113l0,0v-0.2h0.2l0,0L-17.8,112.8z M-17.3,113.1v-0.2l0,0V113.1z
	 M-143.3,113.1h0.2v0.2h-0.2V113.1z M-16.8,113.3L-16.8,113.3z M-18.5,113.8L-18.5,113.8z M-18.5,113.8L-18.5,113.8L-18.5,113.8z
	 M-18.5,114L-18.5,114z M-1695.6,115.9l0.2,0.2v0.5h-0.2v-0.5h-0.2v0.2l-0.2-0.2v-0.2h-0.2l-0.2-0.2v-0.2l-0.2-0.2h-0.5l-0.2-0.2
	h-0.2l-0.2-0.2h0.5l0.2,0.2l0.2,0.2h0.2l0.2,0.2l0.5,0.2l0.2,0.2H-1695.6z M42.5,116.6L42.5,116.6z M-1696.3,116.6l-0.2,0.2
	l-0.2-0.2H-1696.3z M-1698.2,116.6h1l0.2,0.2h-1.5l-0.2-0.2H-1698.2z M42.5,116.6L42.5,116.6z M-3.5,116.6L-3.5,116.6z M54.1,116.8
	L54.1,116.8z M54.1,117.1L54.1,117.1z M42.8,117.1L42.8,117.1z M55,117.6L55,117.6z M54.8,117.6L54.8,117.6z M43.8,117.6L43.8,117.6
	z M55.5,117.6H56v0.2l-0.2-0.2H55.5z M44,117.8L44,117.8z M43.5,118.3V118H44l0,0h-0.2v0.2L43.5,118.3z M42.5,118L42.5,118z
	 M56.7,118.3L56.7,118.3z M43.5,119v-0.2l0,0V119z M56.7,118.5L56.7,118.5z M-1694.4,118.3v0.2h-0.2v-0.2H-1694.4z M-1696.3,118.5
	L-1696.3,118.5z M43,118.7L43,118.7z M36,119.7v0.2l0,0V119.7L36,119.7z M-40,120.2L-40,120.2z M-38.8,120.5L-38.8,120.5z
	 M9.6,121.5v0.2H9.2v-0.2l0.2-0.2h0.2V121.5z M-39.4,121.7v-0.2h0.2L-39.4,121.7z M9.1,121.7H8.9v-0.2L9.1,121.7z M9.6,121.7
	L9.6,121.7z M-1688.1,124.5v0.2h-0.2v-0.2H-1688.1z M-152.3,125L-152.3,125z M40.4,125L40.4,125z M39.9,125.2L39.9,125.2z
	 M40.4,125.2h0.2l0,0H40.4z M-150.2,126.7L-150.2,126.7z M-1681.2,128.6v0.2h-0.2v-0.2H-1681.2z M-1681.2,128.8h0.2v0.2h-0.2V128.8z
	 M-1680.7,129.1v0.2h-0.7v-0.2h0.2v0.2h0.5L-1680.7,129.1z M63.9,131.7h-0.2v-0.2h0.2V131.7z M63.4,132.9h0.2v-0.2l0,0v0.2H63.4z
	 M63.4,133.2h-0.5v0.2h-0.2v-0.2H63.4z M66.1,138.7h0.2v0.5h-0.2v-0.2h0.2v-0.2L66.1,138.7L66.1,138.7L66.1,138.7z M-1671.8,138.7
	h0.2v0.2h0.5v0.2h-0.2v0.7h0.5l0.2,0.2h0.2v0.2h-0.2l0,0h-0.2l-0.2-0.2h-0.7v-0.2h-0.2v-0.2h-0.5l0.2-0.2l0.2-0.2v0.2h-0.2l0,0h0.2
	v0.2h0.2l0,0l0,0v-0.2h0.2v-0.5h-0.2V138.7h-0.2l0,0H-1671.8z M-1671.8,138.7L-1671.8,138.7z M64.2,139.2L64.2,139.2z M64.9,140.4
	h0.2v-0.5h-0.2v-0.2h-0.2v-0.2h-0.2v-0.2l0,0v0.2h0.2v0.2h0.2v0.2h0.2v0.5H64.9z M63.9,139.4L63.9,139.4z M63.9,139.4L63.9,139.4z
	 M64.6,140.8v0.2l0,0V140.8z M64.9,141L64.9,141z M64.9,141.3L64.9,141.3z M64.9,141.5L64.9,141.5z M65.1,141.5L65.1,141.5z
	 M65.6,142l-0.2-0.2h0.2V142z M65.8,142v0.2l0,0V142L65.8,142L65.8,142z M64.6,142.2L64.6,142.2z M65.1,142.2v0.2l-0.2-0.2H65.1z
	 M64.9,142.5L64.9,142.5z M64.9,142.5L64.9,142.5z M65.1,143.9L65.1,143.9z M65.3,144.2v0.5h-0.2v-0.2h0.2V144.2l-0.2,0l0,0
	L65.3,144.2z M65.1,144.2L65.1,144.2z M69.7,146.8l0.2,0.2l0,0h-0.2V146.8L69.7,146.8z M70.1,147.5h-0.2v-0.2h0.2V147.5z
	 M69.7,147.5L69.7,147.5z M69.9,147.8h0.2l0,0H69.9z M67,148.2L67,148.2z M67.3,148.2L67.3,148.2z M68.3,148.2L68.3,148.2
	L68.3,148.2z M68.5,148.5v0.2h-0.2v-0.2l0,0v-0.2h0.2V148.5z M68,148.5L68,148.5z M-1685.5,151.4L-1685.5,151.4z M33.2,152.4v-0.2
	l0,0V152.4z M71.8,152.1L71.8,152.1z M72.3,152.4L72.3,152.4z M72.5,152.6v0.2h0.2l0,0h-0.2V152.6L72.5,152.6z M46.9,153.8h0.2v0.2
	h-0.2V153.8z M74,155.3v0.2h0.2v0.2h0.2l0,0h-0.2v-0.2H74V155.3z M80.7,156.3v0.2h0.2l0,0h-0.2V156.3h-0.2V156h0.2V156.3z
	 M74.7,156.3L74.7,156.3z M83.1,156.3v0.2h0.2l0,0h-0.2V156.3L83.1,156.3z M75.2,157h-0.2v-0.2h0.2V157z M75.7,157L75.7,157z
	 M75.9,157.2L75.9,157.2z M75.9,157.2L75.9,157.2z M75.9,157.7L75.9,157.7z M78.3,158.9L78.3,158.9L78.3,158.9z M78.5,159.6
	L78.5,159.6L78.5,159.6z M78.5,159.9L78.5,159.9z M78.3,159.6h0.2v0.2h-0.2L78.3,159.6z M80.7,162.8v-0.2l0,0V162.8z M85,163.5v-0.2
	l0,0V163.5L85,163.5z M-1746.7,163.9v0.2h0.2l0.2,0.2h-0.7v-0.2h0.2v0.2h0.2v-0.2h-0.2V163.9h-0.2l0,0H-1746.7z M-1741.4,168.9
	L-1741.4,168.9z M-1658.8,170.3h0.2v0.2h-0.2V170.3z M-1744.3,172.7L-1744.3,172.7z M-1748.8,172.9L-1748.8,172.9z M-1749.3,173.2
	L-1749.3,173.2L-1749.3,173.2z M-1749.1,173.2L-1749.1,173.2z M-1761.5,173.7v0.2l0,0V173.7z M-1761.3,173.9L-1761.3,173.9z
	 M-1663.9,178.7h0.2v0.3h-0.2L-1663.9,178.7z M80.5,179L80.5,179z M80.7,179.2L80.7,179.2L80.7,179.2z M86.7,181.4v0.2h-0.2v-0.2
	H86.7z M81.4,182.6L81.4,182.6z M85.5,187.1L85.5,187.1z M85.3,187.4L85.3,187.4z M93.2,188.6h0.2v0.2h-0.2V188.6z M-1584.2,191
	L-1584.2,191z M-1584.4,191.2h-0.2v0.2h-0.2v-0.2H-1584.4L-1584.4,191.2z M91.6,191.5v-0.2h0.2L91.6,191.5z M95.4,194.1L95.4,194.1z
	 M-1750.2,194.6L-1750.2,194.6z M94.9,194.6L94.9,194.6z M-1584.4,195.1L-1584.4,195.1z M-1582.2,195.6v0.2h0.7l0,0l0,0v0.2h0.2v0.2
	h-0.2l0,0h-0.2l0,0h-0.2v0.2h-0.5v-1L-1582.2,195.6z M-1579.1,196h0.2v0.2h-0.2v0.2h-0.2V196L-1579.1,196z M-1674.6,196.5h-0.2l0,0
	H-1674.6z M-1674.4,196.8h-0.3v-0.2h0.2L-1674.4,196.8z M-1675.1,197L-1675.1,197z M-1674.6,197.2h-0.2l0,0H-1674.6z M-1674.6,197.2
	L-1674.6,197.2z M-1746.6,197.7h-0.2v-0.2h0.2L-1746.6,197.7z M-1581.8,198.4v0.7h-0.2v-0.2h-0.2v-0.2h0.2v-0.2L-1581.8,198.4z
	 M-1743.5,198.7L-1743.5,198.7z M98.3,198.4L98.3,198.4z M98.5,198.9h-0.2v-0.2h0.2V198.9z M-1576.3,200.4v0.2h0.5v0.2l0.2-0.2v0.2
	h-1.2v0.2h-0.5v-0.5h0.5v-0.2L-1576.3,200.4L-1576.3,200.4z M-1577,201.4v0.2l0.2-0.2v0.5l-0.2-0.2v0.2h-0.2v-0.2h0.2V201.4z
	 M-1634.6,201.6L-1634.6,201.6z M-1634.6,201.6L-1634.6,201.6z M-1575.8,201.8h0.2v0.2h-0.2V201.8z M-1634.8,202.1L-1634.8,202.1z
	 M-1691,202.1L-1691,202.1L-1691,202.1z M-1690.7,202.1h-0.2l0,0H-1690.7z M-1690.2,204.2V204l0,0V204.2z M-1690.5,204.2
	L-1690.5,204.2z M-1575,204.2h0.5v0.5h-0.5V204.2z M-1715.4,206.6L-1715.4,206.6z M-1715.2,206.9L-1715.2,206.9z M-1742.3,207.6
	L-1742.3,207.6z M-1643,209.5L-1643,209.5z M81.9,215h0.2v0.2h-0.7l0.2-0.2H81.9z M-1768.1,219.3v0.2l0,0V219.3h-0.2v-0.2l0,0
	l0.2-0.2v0.2h0.2v0.2H-1768.1z M-1701.4,219.8L-1701.4,219.8z M-1748.4,220h0.2v0.2l0.2,0.2v0.2h0.2v0.2l0.2,0.2h-0.2v0.7h-0.2v-0.2
	h-1v0.2l-0.2-0.2v0.2h-0.2v-0.2h-0.2v-0.2l-0.2-0.2l-0.2-0.2h-0.2v-0.2h-0.2v-0.2h-0.2v-0.2h1.4l0,0l0.2-0.2L-1748.4,220
	L-1748.4,220z M-1745.7,221.7v0.2h0.5v0.2h0.7v0.2h0.2v0.2l0.2-0.2v0.2h0.2l0,0h0.2v0.5h-1.7l-0.2-0.2h-0.7v-0.2h-0.2v-0.2h-0.2
	l-0.2-0.2h0.2V222h1L-1745.7,221.7z M-1746.9,222.2L-1746.9,222.2z M-1743.6,223.2L-1743.6,223.2z M-1590.7,223.7L-1590.7,223.7z
	 M-1589.5,223.9h-0.2l0,0H-1589.5z M-1589.5,223.9L-1589.5,223.9z M-1734.2,223.9L-1734.2,223.9z M-1734.5,223.9L-1734.5,223.9z
	 M-1590,223.9L-1590,223.9z M-1733.5,224.2h0.2v0.2h-0.5v-0.2H-1733.5z M-1739.7,224.4h0.5l0,0h-0.2v0.2h-0.2l0,0h-0.2v0.2h-0.2l0,0
	h-0.2v-0.2h0.5v-0.2H-1739.7L-1739.7,224.4L-1739.7,224.4z M-1777.7,224.6h-0.2l-0.2-0.2h0.5V224.6z M-1739,224.6h-0.2v-0.2h0.2
	V224.6z M-1613.3,224.6v0.2l-0.2-0.2v0.2l0,0v-0.2H-1613.3z M-1777.2,224.8L-1777.2,224.8v0.2l-0.2-0.2H-1777.2L-1777.2,224.8z
	 M-1613.5,225.1h0.2l0,0H-1613.5z M-1608.2,225.1h-0.2v0.2h-0.2l0.2-0.2H-1608.2z M-1609.2,225.3h0.2l0,0H-1609.2z M-1614.5,225.3
	L-1614.5,225.3z M-1615.2,225.1L-1615.2,225.1l-0.2,0.2v-0.2H-1615.2z M-1615.7,225.3v-0.2h0.2v0.2H-1615.7z M-1613.8,225.3
	L-1613.8,225.3L-1613.8,225.3z M-1615.2,225.6h-0.2l0.2-0.2V225.6z M-1609,225.6L-1609,225.6z M-1616.2,225.8L-1616.2,225.8z
	 M-1609.7,226L-1609.7,226L-1609.7,226z M-1610.1,226.2v0.2l0,0v0.2h-0.2v-0.2L-1610.1,226.2z M-1577.5,227.2v0.2h-0.2v-0.2H-1577.5
	z M-1627.9,227.5h0.2l0,0H-1627.9z M-1627.9,227.7L-1627.9,227.7z M-1627.9,227.7L-1627.9,227.7z M-1624.5,228h-0.2v-0.2l0,0v0.2
	H-1624.5z M-1623.5,227.7L-1623.5,227.7z M-1623.1,227.7h0.2v0.2h-0.2V227.7z M-1606.7,228L-1606.7,228z M-1624.5,228L-1624.5,228z
	 M-1622.3,228L-1622.3,228L-1622.3,228z M-1622.3,228.2L-1622.3,228.2z M-1621.6,228.9v-0.2h-0.5v-0.2l0.2,0.2h0.2L-1621.6,228.9z
	 M-1624,228.7L-1624,228.7z M-1625.5,228.9h-0.2l0,0H-1625.5z M-1621.1,229.4l-0.2-0.2h0.2V229.4z M-1618.3,229.2L-1618.3,229.2z
	 M-1623.1,229.4L-1623.1,229.4z M-1617.3,229.6l-0.2-0.2h0.2V229.6z M-1620.9,229.4L-1620.9,229.4z M-1615.9,229.9h-0.2l0,0H-1615.9
	z M-1615.9,229.9L-1615.9,229.9z M-1621.4,229.9L-1621.4,229.9z M-1616.4,229.9L-1616.4,229.9z M-1615.4,230.1L-1615.4,230.1z
	 M-1616.6,229.9L-1616.6,229.9z M-1615.4,230.6L-1615.4,230.6z M-1611.6,230.8h-0.2v-0.2h0.2V230.8z M-1615.7,231.1L-1615.7,231.1z
	 M-1764.5,231.6h-0.2v-0.2h0.2l0,0h0.2v0.2H-1764.5z M-1611.8,231.6L-1611.8,231.6z M-1619,231.8v-0.2l0,0V231.8z M-1786,232.3
	l-0.3-0.3h0.2L-1786,232.3z M-1607.5,232v0.2l-0.2-0.2H-1607.5z M-1607.7,232L-1607.7,232z M-1610.1,232.2h0.2v0.8l0,0v-0.5l0,0
	v-0.2L-1610.1,232.2z M-1617.1,232.5v-0.2l0.2,0.2H-1617.1z M-1657.7,232.3L-1657.7,232.3z M-1614.5,232.5h-0.2v-0.2L-1614.5,232.5z
	 M-1626,232.8v-0.2h0.2v0.2H-1626z M-1588.3,232.5L-1588.3,232.5z M-1657.9,232.5L-1657.9,232.5z M-1588.5,232.5L-1588.5,232.5z
	 M-1615.7,232.5L-1615.7,232.5z M-1614,232.8h-0.2l0,0H-1614z M-1588.5,232.5L-1588.5,232.5z M-1610.4,233v0.2l-0.2-0.2H-1610.4z
	 M-1596,233l0.2,0.2h-0.2V233z M-1596.2,233v0.2h-0.2l0,0h0.2V233z M-1754.8,233.2L-1754.8,233.2h0.2l0,0H-1754.8z M-1584.9,233.2
	h0.3v0.2l0,0v-0.2h-0.5v0.2l0,0v-0.2H-1584.9z M-1612.8,233.7l0.2,0.2v0.7h0.2v0.2l0.2,0.2h-0.2v-0.2h-0.2v-0.7l-0.2-0.2V233.7h-0.2
	v0.2h-0.2l0.2-0.2H-1612.8z M-1597.2,234.4v-0.2l0.2-0.2v0.2h-0.2V234.4z M-1782,233.9L-1782,233.9z M-1613.5,233.9L-1613.5,233.9z
	 M-1613.7,233.9L-1613.7,233.9L-1613.7,233.9z M-1609.6,234.2L-1609.6,234.2z M-1608.6,234.2L-1608.6,234.2z M-1596.4,234.2
	L-1596.4,234.2z M-1786,234.2h-0.3l0,0H-1786z M-1616.3,234.2v0.2h-0.2v-0.2H-1616.3z M-1616.6,234.4h0.2v-0.2h-0.2V234.4z
	 M93.7,234.2v0.2h-0.2l-0.2,0.2H93v0.2h-0.2v0.2h-0.2v0.2h-0.2v0.2H92v0.2l-0.2,0.2h-0.2l-0.2,0.2h-0.2v0.2l0,0v0.2h-0.5v0.2h-0.3
	l0.2,0.2h-0.2v0.2h0.5v-0.2h0.2l0.2-0.2h0.2v-0.2h0.2v-0.2H92v-0.2h0.2l0.2-0.2h0.2l0,0l0.2-0.2v0.2l-0.2,0.2v0.2h-0.2v0.2h-0.2v0.2
	h0.2v0.2h0.2v0.2h-0.2l0,0h-0.2v-0.2h-1v0.2h-0.5l0,0h-0.2l0,0l-0.2,0.2l0,0h-0.2l0,0h-0.2l0,0h-0.5v-0.2h0.5v-0.2h-0.2v-0.2h-0.7
	v0.2h-0.2v0.2h-0.2l-0.2,0.2v0.2h-0.2l0,0h0.2v0.2h-0.5V238h-0.2l0,0h-0.2l-0.2,0.2l0,0v0.2l-0.2-0.2v0.5h-0.5v-0.2l-0.2-0.2l0,0
	v-0.7h-0.2v0.2h-0.2l-0.2-0.2l0,0v-0.2h0.5V237H86v-0.2h-0.2l0,0h0.5v0.2h0.2v-0.2h0.5v-0.2h0.2l0,0h0.2v-0.2h0.2v-0.2h0.2v-0.2l0,0
	l0.2,0.2v-0.2h1v-0.2h1.2v-0.2l0,0l0.2-0.2h0.2v-0.2h0.5l0,0h0.2v-0.2h0.2v-0.2H92l0,0h0.2v0.2h0.2l0.2-0.2v0.2H93v-0.2h0.5v-0.2
	L93.7,234.2z M93.5,234.4h-0.2v-0.2h0.2V234.4z M91.8,234.4L91.8,234.4z M-1597.1,234.9L-1597.1,234.9z M91.8,234.4L91.8,234.4
	L91.8,234.4z M92.5,234.4v0.2h-0.2v-0.2H92.5z M-1609.4,234.7L-1609.4,234.7z M89.1,234.7L89.1,234.7z M91.5,234.7L91.5,234.7z
	 M-1643.9,234.7h-0.2l0,0H-1643.9z M-1643.9,234.9L-1643.9,234.9z M90.1,235.2h0.2v0.2h-0.2V235.2z M90.1,235.4L90.1,235.4z
	 M-1612,235.4L-1612,235.4z M-1606.5,235.4L-1606.5,235.4z M-1606,235.6h-0.2l0,0H-1606z M-1606.8,235.6L-1606.8,235.6z
	 M-1599.6,235.6L-1599.6,235.6z M-1611.3,235.9l-0.2-0.2L-1611.3,235.9z M-1646.3,235.9L-1646.3,235.9z M-1646.1,235.9
	L-1646.1,235.9z M-1605.8,236.1v-0.2h-0.2l0,0h0.2V236.1z M-1646.1,235.9h-0.2v-0.2L-1646.1,235.9z M-1785.8,235.9v0.5h-0.3v-0.5
	H-1785.8z M-1643.4,235.9L-1643.4,235.9z M-1603.8,235.9L-1603.8,235.9L-1603.8,235.9z M-1643.9,235.9L-1643.9,235.9z
	 M-1643.7,235.9h0.2v0.2h-0.2V235.9z M-1643.4,236.4L-1643.4,236.4z M-1603.6,236.1L-1603.6,236.1z M93.2,236.4L93.2,236.4z
	 M-1603.7,236.4v-0.2l0,0V236.4z M-1643.7,236.4h-0.2v-0.2h0.2V236.4z M-1658.4,236.4L-1658.4,236.4z M-1611.8,236.4h-0.2v-0.2h0.2
	V236.4z M-1658.1,236.4L-1658.1,236.4z M-1642.5,236.4L-1642.5,236.4z M-1603.4,236.4L-1603.4,236.4z M-1602.7,236.8h-0.2v-0.2h-0.5
	v-0.2l0.2,0.2h0.2v0.2H-1602.7z M86.2,236.6L86.2,236.6z M-1642.5,236.6h0.2v0.2l0,0v0.2h-0.2v-0.2h-0.2v-0.2H-1642.5z M86.5,236.6
	L86.5,236.6z M92.7,236.8v0.2h-0.2v-0.2h0.5l0,0H92.7z M-1602,236.8h0.2l0,0H-1602z M-1605.8,236.8L-1605.8,236.8z M-1605.6,237.1
	v-0.2l0,0V237.1z M-1598.9,236.8L-1598.9,236.8z M-1639.9,237.1L-1639.9,237.1L-1639.9,237.1v0.2h-0.2v0.2h-0.2v-0.2h0.2v-0.2
	H-1639.9z M-1785.1,237.6v0.2h-0.3v0.2h-0.2v0.2h-0.2v0.2l-0.2-1h0.2v-0.2h0.2V237h0.2v0.5L-1785.1,237.6z M80.9,237.1v0.2h-0.2v0.2
	h-0.2v0.2H80l0,0h0.2l0.2-0.2h0.2v-0.2h0.2V237.1L80.9,237.1z M-1610.8,237.3L-1610.8,237.3z M-1605.1,237.3L-1605.1,237.3
	L-1605.1,237.3z M-1642.3,237.3v0.2h0.2v0.2h0.2v0.2h-0.2v0.2h-0.2l0,0h-0.2l0.2-0.2h-0.2v-0.7L-1642.3,237.3z M-1610.1,237.3
	L-1610.1,237.3z M-1598.6,237.3L-1598.6,237.3z M-1784.4,237.3L-1784.4,237.3z M-1784.8,237.3h0.2v0.2l-0.2,0.2V237.3L-1784.8,237.3
	z M-1610.1,237.6h-0.2v-0.2h0.2V237.6z M-1639.9,237.6v0.2h-0.2v-0.2H-1639.9L-1639.9,237.6z M-1639.6,237.6h-0.2l0,0H-1639.6z
	 M85.3,237.6L85.3,237.6z M-1654.7,237.8v-0.2l0,0V237.8z M-1608.4,237.8v-0.2l0,0V237.8z M84.3,237.6v0.2l0,0V237.6z M-1655,237.8
	L-1655,237.8z M-1609.6,237.8L-1609.6,237.8z M92.5,238.8h-0.2v-0.5h0.2l0.2-0.2v-0.2H93v-0.2l-0.2,1v0.2L92.5,238.8z
	 M-1606.3,237.8L-1606.3,237.8z M88.4,237.8L88.4,237.8z M-1594.3,237.8L-1594.3,237.8z M-1608.2,237.8L-1608.2,237.8z M80,238v0.2
	h-0.2L80,238z M-1607.7,238L-1607.7,238z M87.9,238.2L87.9,238.2z M-1608.7,238.5L-1608.7,238.5z M-1601,238.5L-1601,238.5z
	 M79.5,238.5L79.5,238.5z M-1632.9,238.8L-1632.9,238.8z M-1632.7,238.8l-0.2-0.2h0.2L-1632.7,238.8z M-1600.3,238.8L-1600.3,238.8z
	 M79.3,238.8L79.3,238.8L79.3,238.8z M-1607.9,238.8L-1607.9,238.8z M-1782.2,238.8L-1782.2,238.8z M-1632.7,238.8L-1632.7,238.8z
	 M-1632.7,239L-1632.7,239z M-1606.5,239L-1606.5,239z M79,239.2h-0.2v0.2h-0.2v-0.2h0.2l0,0H79L79,239.2z M-1606.3,239.2h-0.2V239
	h0.2V239.2z M-1607,239.2L-1607,239.2z M77.1,239.5L77.1,239.5z M-1781,239.5h0.2v0.2h0.5v0.2l-0.2,0.2v0.2h-0.3v-0.2h0.2v-0.5h-0.2
	L-1781,239.5z M-1781,239.7L-1781,239.7z M89.6,240v0.5l-0.2,0.2v0.2h-0.2v-0.2h0.2v-0.2h-0.2l0.2-0.2l0,0V240L89.6,240z
	 M-1783.4,240h0.2v0.2h-0.2L-1783.4,240z M-1781.2,240.2h-0.2V240h0.2L-1781.2,240.2z M-1783.2,240.2L-1783.2,240.2z M78.1,240.2
	v0.2h-0.2v-0.2H78.1L78.1,240.2z M83.6,240.2L83.6,240.2L83.6,240.2z M-1576.7,240.4L-1576.7,240.4z M83.4,240.4h0.2v0.5h-0.3v0.2
	h0.2v-0.2l0.2,0.2v0.2h0.2v0.2h0.5v0.2h0.2v0.2H85l-0.2,0.2v0.2h-0.2v0.2h0.2v0.2l0,0v0.2l0.2-0.2v0.2h-0.2l0,0h-0.2v0.5l0,0l0,0
	h0.2v0.5L85,244v0.2h-0.2v0.2h-0.2v0.2h-0.2v-0.2l0.2-0.2h-0.2v0.2h-0.5v0.2h-0.2v-0.2h-0.3l0,0h-0.2v0.2h-0.5v0.2h-0.2v0.2h-0.2
	v0.2h-0.2v-0.2h-0.2l-0.2,0.2v-0.2h-0.2v0.2h-0.5v-0.2h-0.5L80,245h-0.7v-0.2H79l0,0h-0.5l0,0l-0.2-0.2h-0.2v-0.7l0,0v-0.5h0.5v-0.2
	h0.2v-0.2H79v-0.7h0.2v-0.2h0.2l0,0l0.2-0.2l0,0v-0.2h0.5v-0.2h0.2l0,0h0.2v-0.2h0.2l0,0h0.2l0.2-0.2v0.2h1v-0.2h0.7v-0.2
	L83.4,240.4z M-1612.7,240.4L-1612.7,240.4z M78.1,240.7L78.1,240.7z M-1577.2,240.7v-0.2l0,0V240.7z M-1613,240.7L-1613,240.7
	L-1613,240.7z M-1780.3,240.4l-0.2,0.2v-0.2H-1780.3z M-1592.4,240.4h0.2v0.2h-0.2V240.4z M-1780,240.7L-1780,240.7z M-1577,240.7
	L-1577,240.7z M-1592.4,240.7L-1592.4,240.7z M-1612.3,240.9h-0.2v-0.2h0.2V240.9z M-1592.4,240.9L-1592.4,240.9z M-1612.6,240.9
	L-1612.6,240.9z M-1612.1,241.2v-0.2l0,0V241.2z M-1781.3,241.2L-1781.3,241.2h-0.2v-0.2h0.2L-1781.3,241.2z M-1612.6,241.2
	L-1612.6,241.2z M87.1,240.9v0.2h-0.2v-0.2H87.1z M-1602.2,241.2L-1602.2,241.2z M-1612.1,241.4L-1612.1,241.4z M-1634.2,241.4v0.5
	h-0.5v-0.2h-0.2v-0.2h0.5v-0.2h0.5v0.2L-1634.2,241.4z M78.5,241.4L78.5,241.4z M-1632.5,241.4h0.2v0.2h0.5v1h0.7v0.7h-0.5l-0.2-0.2
	v-0.2h-0.2l0,0h-1v-0.2h-0.2v-0.5h-0.2v-0.5h0.2v-0.2L-1632.5,241.4L-1632.5,241.4z M-1779.1,241.4L-1779.1,241.4z M-1598.1,241.6
	h0.2v0.2L-1598.1,241.6L-1598.1,241.6z M-1598.6,241.6L-1598.6,241.6z M87.2,241.9v0.2h-0.2v-0.2H87.2z M77.6,241.9L77.6,241.9z
	 M86,242.6h-0.2v-0.5H86l0,0h0.2v0.2L86,242.6z M-1638.5,242.1l0.2,0.2h-0.2V242.1z M-1779.6,242.4v-0.2l0,0V242.4z M-1638.4,242.1
	L-1638.4,242.1z M-1588.3,242.4v0.2l-0.2,0.2h-0.2v0.2h-0.2v0.2h-0.5v-0.2l0,0v0.2h0.2l0.2-0.2h0.2v-0.2h0.2v-0.2h0.2V242.4z
	 M-1589.3,242.8h0.2v-0.2h0.2v-0.2h0.2v0.2h-0.5v0.2H-1589.3z M85.7,242.8h-0.2v-0.2h0.2V242.8z M-1781.8,242.8h-0.5v-0.2h0.5
	L-1781.8,242.8z M77.8,242.6L77.8,242.6L77.8,242.6z M87.6,242.8L87.6,242.8z M88.8,242.8L88.8,242.8L88.8,242.8z M78.8,243.1
	L78.8,243.1z M-1600.6,243.1L-1600.6,243.1h-0.2l0,0H-1600.6z M-1625.6,243.3L-1625.6,243.3z M88.1,243.8h0.2v0.7h-0.2v-0.2h-0.2
	v-0.5H88.1z M-1596.5,243.8L-1596.5,243.8z M-1780.6,243.8v0.2l-0.2-0.2L-1780.6,243.8z M-1756.8,244L-1756.8,244z M-1596.4,244.2
	V244h0.2v0.2H-1596.4z M-1589.4,245L-1589.4,245h-0.2v-0.2h-0.2v-0.2l-0.2-0.2h0.2v0.5h0.2v0.3L-1589.4,245z M-1597.1,244.5
	L-1597.1,244.5z M84.3,244.5v0.2l0,0l0,0h-0.2L84.3,244.5z M84.1,244.5L84.1,244.5z M-1596.7,244.8L-1596.7,244.8z M-1756,244.8
	L-1756,244.8z M-1596.4,245L-1596.4,245z M-1779.1,245h0.2v0.2h-0.5V245H-1779.1z M-1596,245.2L-1596,245.2z M-1570.3,246h-0.2v-0.5
	l0,0v0.2L-1570.3,246z M-1596.4,245.5L-1596.4,245.5L-1596.4,245.5z M-1596.4,245.7L-1596.4,245.7z M-1589,246.2V246h-0.2v-0.2l0,0
	v0.2h0.2V246.2z M81.9,246v0.2h-0.2V246H81.9z M82.1,246.2h-0.2V246h0.2V246.2z M-1777.4,246.4h-0.3l0.2-0.2L-1777.4,246.4z
	 M-1567.9,246.4h0.2v0.2h0.2v0.2l0,0v-0.2h-0.5L-1567.9,246.4L-1567.9,246.4L-1567.9,246.4z M79.3,247.1v-0.2l-0.2-0.2h0.2V247.1
	L79.3,247.1z M90.8,246.9h-0.2v0.2l0,0v0.2h-0.2v-0.2h-0.2l0.2-0.2H90.8L90.8,246.9z M-1754.9,246.9v0.2h0.2l0,0h-0.2v0.2h-0.2l0,0
	l0.2-0.2h-0.2v0.2h-0.2v-0.2h0.2v-0.2H-1754.9z M-1754.6,247.4L-1754.6,247.4z M-1777.4,247.4v0.2l-0.2-0.2L-1777.4,247.4z
	 M-1755.6,247.4L-1755.6,247.4z M-1754.6,247.6L-1754.6,247.6z M-1778.1,247.6L-1778.1,247.6z M-1755.1,247.6L-1755.1,247.6z
	 M-1755.3,247.6L-1755.3,247.6z M-1755.3,247.6L-1755.3,247.6z M-1754.9,247.6L-1754.9,247.6z M-1755.6,247.9L-1755.6,247.9z
	 M-1594.6,248.1L-1594.6,248.1z M-1755.1,247.9L-1755.1,247.9z M-1579.9,248.1L-1579.9,248.1z M-1595.1,248.1L-1595.1,248.1z
	 M83.3,247.9L83.3,247.9z M-1758.2,248.3L-1758.2,248.3z M83.3,248.3L83.3,248.3z M-1684.3,248.3L-1684.3,248.3L-1684.3,248.3z
	 M-1778.1,248.3h0.2v0.2h-0.2L-1778.1,248.3z M83.1,248.6h0.2v0.2h-0.5v-0.2H83.1z M-1779.6,249.3v-0.2h-0.2l0.2-0.2v0.2l0,0
	L-1779.6,249.3z M-1784.1,248.8h0.5v0.2h-0.2l0,0h-0.2v0.2l0,0V248.8L-1784.1,248.8z M-1776.9,249.1L-1776.9,249.1z M82.2,248.8h0.2
	v0.2h0.5v0.2l0,0l-0.2,0.2l0,0h-0.5v-0.2h-0.2l0,0h-0.2v0.2h-0.5v0.2h0.2l-0.2,0.2v-0.2L81,250h-0.7v-0.2h0.2l0.2-0.2h0.5l0.2-0.2
	v-0.2h0.7V248.8z M-1734.2,250h-0.5v-0.7l0.2-0.2h0.5v0.7h-0.2L-1734.2,250z M-1778.8,249.3L-1778.8,249.3z M-1754.8,249.3
	L-1754.8,249.3z M81.4,249.8L81.4,249.8z M-1777.4,249.8h-0.3v0.2h0.2l0,0h-0.2v-0.2H-1777.4z M-1589.5,249.8h0.2v0.2h-0.2V249.8z
	 M-1776.7,250L-1776.7,250z M89.1,250v0.2l0,0V250z M81,250.2L81,250.2z M-1759.1,250.2L-1759.1,250.2z M-1592.1,250.2
	L-1592.1,250.2L-1592.1,250.2z M-1776.7,250.3L-1776.7,250.3z M-1679.9,250.5L-1679.9,250.5z M-1679.9,250.5v0.2l-0.2-0.2H-1679.9z
	 M-1582.3,251.2V251h0.2L-1582.3,251.2z M-1582.3,251.2h-0.2V251h0.2V251.2z M-1579.6,251.2L-1579.6,251.2z M-1588.3,252.7
	L-1588.3,252.7z M-1588.5,252.4L-1588.5,252.4z M-1588.5,252.7L-1588.5,252.7z M-1759.7,252.9L-1759.7,252.9z M-1756.1,252.9
	L-1756.1,252.9z M-1759.9,252.9v0.2h0.2v0.2h-0.2l-0.2-0.2v-0.2H-1759.9z M-1756.1,253.2L-1756.1,253.2L-1756.1,253.2z M-1674,253.6
	h-0.2v-0.2h0.2V253.6z M-1756.3,253.6L-1756.3,253.6z M-1676.9,253.6L-1676.9,253.6z M-1610.9,253.9h-0.2v-0.2L-1610.9,253.9z
	 M-1756.5,254.1L-1756.5,254.1z M-1611.1,254.1h0.2l0,0H-1611.1z M-1756.8,254.4L-1756.8,254.4z M-1756.8,254.4L-1756.8,254.4z
	 M-1676.1,254.4h0.2v0.2h-0.2V254.4z M-1757.7,254.6L-1757.7,254.6z M-1672.1,255.6l-0.2-0.2v-0.2l0.2,0.2V255.6z M-1758.2,255.8
	L-1758.2,255.8z M-1757,256.3L-1757,256.3z M-1757.7,256.3L-1757.7,256.3z M-1604.1,256.8v-0.2l0,0V256.8z M-1604.4,256.8
	L-1604.4,256.8z M-1758,257L-1758,257z M-1757.5,257L-1757.5,257z M-1758,257.2L-1758,257.2z M-1761.1,257.5h-0.2l0.2-0.2V257.5z
	 M-1777.4,258L-1777.4,258z M-1777.2,258L-1777.2,258z M-1602.2,258.2L-1602.2,258.2z M-1582.7,258.4L-1582.7,258.4z M-1579.6,259.2
	h-0.2v-0.2h0.2v-0.2l0,0L-1579.6,259.2L-1579.6,259.2z M-1582.7,258.7L-1582.7,258.7z M-1760.1,260.1L-1760.1,260.1z M-1760.4,260.3
	h0.5v0.2h0.2v0.2h0.2v-0.5h0.2v0.2l0,0v0.2h-0.2v0.2h-0.2l-0.2-0.2h-0.5v-0.2h-0.2v-0.2L-1760.4,260.3z M-1759.6,260.1
	L-1759.6,260.1z M-1758.9,260.3h-0.2v-0.2h0.2V260.3z M-1684.3,260.8h0.2v0.2h-0.5v-0.2H-1684.3z M-1758.2,262h-0.2v-0.2h-0.2v-0.2
	h0.2l0,0h0.2L-1758.2,262L-1758.2,262z M-1571.5,261.5L-1571.5,261.5z M-1571,261.5L-1571,261.5z M-1571,261.5L-1571,261.5z
	 M-1570.3,261.5L-1570.3,261.5z M-1569.8,262v0.2h-0.2L-1569.8,262z M-1565.5,262.2L-1565.5,262.2z M-1566,262.2L-1566,262.2z
	 M-1565.2,262.5h-0.2v-0.2L-1565.2,262.5z M-1566.2,262.5L-1566.2,262.5z M-1590.7,263.2v0.2h-0.2v-0.2H-1590.7z M-1591,263.4h0.3
	v-0.2h-0.2L-1591,263.4z M-1675,264.6h-0.5v-0.2h0.5V264.6z M-1569.1,264.9h-0.2l0,0H-1569.1z M-1569.4,265.1L-1569.4,265.1z
	 M-1764.2,266.8L-1764.2,266.8z M-1643.2,267.8v-0.2h-0.2v-0.2h0.2V267.8L-1643.2,267.8z M-1650.6,268.5v-0.2h0.2L-1650.6,268.5z
	 M-1564,270.7h-0.2v0.2l0,0v-0.2H-1564z M-1564,270.9L-1564,270.9z M-1564.5,270.9v0.2h-0.2v-0.2H-1564.5z M-1634.6,272.4v-0.2h0.2
	v0.2H-1634.6z M-1625.7,274.8L-1625.7,274.8z M-1625.9,274.8L-1625.9,274.8v0.2h-0.2v-0.2L-1625.9,274.8z M-1544.6,275.3h-0.2V275
	h0.2V275.3z M-1533.6,277.2v0.5h-0.2v-0.2L-1533.6,277.2L-1533.6,277.2L-1533.6,277.2z M-1517,279.1L-1517,279.1z M-1542.9,281.3
	h-0.2l0.2-0.2V281.3z M-1447.9,291.8L-1447.9,291.8v0.2h-0.5v0.2h-0.5V292h0.2v-0.5h0.5v0.2L-1447.9,291.8z M-1612.3,294.5
	L-1612.3,294.5L-1612.3,294.5v0.2h-0.2v-0.2H-1612.3L-1612.3,294.5z"/>
</svg>
