<?xml version="1.0" encoding="utf-8"?>
<!-- Generator: Adobe Illustrator 20.1.0, SVG Export Plug-In . SVG Version: 6.00 Build 0)  -->
<svg version="1.1" id="Layer_1" xmlns="http://www.w3.org/2000/svg" xmlns:xlink="http://www.w3.org/1999/xlink" x="0px" y="0px"
	 viewBox="0 0 223.3 295" style="enable-background:new 0 0 223.3 295;" xml:space="preserve">
<style type="text/css">
	.st0{fill:#C14803;}
</style>
<title>polymicro</title>
<path class="st0" d="M58.2,1.1V0.9h0.2v0.2H58.2z M58.5,1.1V0.9l0.2,0.2H58.5z M67.6,12.4L67.6,12.4z M117.3,28.3L117.3,28.3z
	 M127.6,32.6h0.5v0.5h-0.2v0.2l-0.2,0.2v0.2l-0.2,0.2h-0.2v0.2h-1.2V34l-0.2-0.2h-0.2v-0.5h0.2V33h0.2v-0.2h0.5v-0.2L127.6,32.6
	L127.6,32.6z M124,33.6L124,33.6z M124,33.8l-0.2,0.2v0.2h-0.5v0.2H123v0.2h-0.2v-0.2l0.2-0.2l0.2-0.2h0.2l0.2-0.2H124z M133.8,35.8
	V37h0.2v-0.5l0.2,0.2l0,0h-0.2V37h0.2v0.5l-0.2,0.2v-0.2h-0.2v0.2h-0.2l-0.2-0.2v-0.2l-0.2,0.2h-0.2v-0.2h0.2V37h-0.2l0,0h-0.2v0.2
	h0.2v0.2h-0.7V37h-0.2v-1h0.7v-0.2h0.2l0.2-0.2h0.2v-0.2h0.2v0.2h0.2V35.8L133.8,35.8L133.8,35.8z M132.8,37.2l0.2-0.2v0.2H132.8z
	 M136.2,37.9h1l0.2,0.2v-0.2h0.2v0.2h1v0.2h-0.2v0.2H137v-0.2h-0.5l0,0h-0.2v0.2h-0.5v-0.5h0.5L136.2,37.9z M139.1,38.9l0.2,0.2v0.5
	h0.2v-0.2h1.2v0.5l0.2-0.2v0.2h0.2V40h0.2v0.5h-0.2v0.2h-0.5V41h-1v0.2H139v-1h0.2V40h-0.7l-0.2-0.2v-0.5l0.2-0.2v-0.2h0.5
	L139.1,38.9z M139.3,39.4L139.3,39.4z M137.1,39.4h0.2v0.2h0.2V40h-0.2v0.2h-0.7v-0.5l-0.2-0.2l0.2-0.2h0.5V39.4z M138.3,41.3v0.2
	h-0.7l0.2-0.2h0.2V41h0.2L138.3,41.3L138.3,41.3L138.3,41.3z M1665.7,41.5L1665.7,41.5z M141.5,42.9h0.2v0.2h0.3l0.2,0.2v0.2h1v0.2
	h0.2v0.2h0.5v0.2h0.2v0.5h0.2v0.5h-0.2v0.2h0.5v0.7l0.2,0.2h0.2V47h-0.2v0.2h-0.2l-0.2,0.2h-0.2v0.2h-0.5l-0.2,0.2h-0.2l-0.2,0.2
	h-0.5l0,0H142v0.2h-0.5v0.2H141v0.2h-0.2v0.2l-0.2,0.2v0.2h-0.2l-0.2,0.2h-0.2v-0.2h-0.2l-0.2-0.2h-0.2v-1h0.2v-0.5l0.2-0.2V46h-0.2
	v-0.5h0.2v-0.2h0.2V45h0.5v-0.2h0.2v-0.2h0.2v-0.2h0.2v-0.5l-0.2-0.2v-0.2l0.2-0.2v-0.2L141.5,42.9L141.5,42.9z M1671.3,45.8
	L1671.3,45.8z M1777.9,48h-0.2v-0.2h0.2V48z M1777.9,48L1777.9,48z M1778.1,48L1778.1,48z M1675.9,50.8h-0.2v-0.2h0.2V50.8
	L1675.9,50.8z M1678.7,54.2h-0.2V54h0.2V54.2z M1680.4,56.8L1680.4,56.8z M1681.4,58.3h0.2v0.2h-0.2V58.3z M66.6,61.4L66.6,61.4z
	 M1683,61.6L1683,61.6z M1683.5,63.3h0.2v0.2h-0.5v-0.2H1683.5z M1686.6,65.2L1686.6,65.2z M1687.6,69.1h-0.2v0.5h0.2v0.2l-0.2-0.2
	v0.2h0.2V70h-0.2l-0.2-0.2V69L1687.6,69.1L1687.6,69.1z M1687.4,70.5v0.2h0.2l-0.2,0.2v-0.2h-0.2v-0.2h-0.2V70h0.2v0.2h0.2V70.5z
	 M1687.1,71.5v-0.2l0,0V71.5z M1807.1,72.7L1807.1,72.7z M1807.1,72.7L1807.1,72.7z M1687.6,74.9v0.2h-0.2v0.2l-0.2-0.2l0,0v-0.2
	h0.2l0,0H1687.6z M1687.1,78h0.2v0.5l-0.2,0.2v1.2h-0.2v-0.2h-0.2v-0.2l-0.2-0.2V79h-0.2v-0.2h0.2v-0.2h0.5v-0.7h0.2V78z M1820.1,85
	L1820.1,85z M1820.1,85.2L1820.1,85.2z M1796.6,87.9L1796.6,87.9z M1781,88L1781,88z M1798,88.2L1798,88.2z M1797.5,89L1797.5,89z
	 M1804.2,89.2L1804.2,89.2z M1782.2,89.9L1782.2,89.9z M1821.3,90.2v0.2h-0.2L1821.3,90.2z M1806.2,90.6L1806.2,90.6z M1803.5,90.9
	L1803.5,90.9z M1803.8,90.9L1803.8,90.9z M1823.4,94.2L1823.4,94.2z M1828.7,95.2L1828.7,95.2z M1824.4,95.7L1824.4,95.7z
	 M1803.3,95.7L1803.3,95.7z M1803.8,96L1803.8,96L1803.8,96z M1819.6,96.7L1819.6,96.7z M1819.8,97.2L1819.8,97.2z M1667.9,97.4
	L1667.9,97.4z M1821.8,97.6L1821.8,97.6z M1821.3,97.6L1821.3,97.6z M1821.8,97.6L1821.8,97.6z M1821,97.9L1821,97.9z M1672.7,98.1
	L1672.7,98.1z M1778.6,98.1L1778.6,98.1z M1660.7,98.8v0.2h0.2v0.2h-0.2l0,0l0,0v0.2h-0.2v0.2l-0.2-0.2l0,0v-0.2h0.2v-0.2h0.2V98.8
	h-0.2l0,0H1660.7z M1825.4,99.3L1825.4,99.3z M1827,99.3L1827,99.3z M1827,99.6L1827,99.6z M1827.3,99.8L1827.3,99.8z M1813.1,100
	L1813.1,100z M1812.1,101.5L1812.1,101.5z M1805.1,102.5L1805.1,102.5z M1807.8,102.5L1807.8,102.5z M1807.5,102.5L1807.5,102.5z
	 M1832,102.7L1832,102.7z M1815.4,102.7L1815.4,102.7z M1815.7,103.2L1815.7,103.2z M1815.4,103.4L1815.4,103.4z M1815.7,103.4v0.2
	l-0.2-0.2H1815.7z M1722.1,104.4h-0.2v-0.2h0.2V104.4z M1734.3,104.4L1734.3,104.4z M1725.9,104.4L1725.9,104.4z M1834.2,104.7v0.2
	l-0.2-0.2H1834.2z M1834.2,105.9L1834.2,105.9z M1814.7,105.9L1814.7,105.9z M1834.4,106.4L1834.4,106.4z M1834.2,106.4
	L1834.2,106.4z M1834.6,106.4L1834.6,106.4z M1645,107.1L1645,107.1z M1820,108.8L1820,108.8z M1645.3,109.5v1.2h-0.2l0,0h-0.2v-0.2
	h-0.2V110h0.2l0,0l0,0v-0.2l0,0v-0.2h0.2v-0.2l0,0V109h0.2C1645.3,109,1645.3,109.5,1645.3,109.5z M1824.1,109.5L1824.1,109.5
	L1824.1,109.5z M1824.1,110.2L1824.1,110.2z M1822.4,110.7l-0.2-0.2l0,0L1822.4,110.7z M1735.1,110.2h0.2v0.2h-0.2V110.2z
	 M1734.6,110.7L1734.6,110.7z M1734.1,110.7v0.2h-0.2v-0.2H1734.1z M1735.6,110.7L1735.6,110.7z M1735.3,110.9h-0.2v-0.2h0.2V110.9z
	 M1734.8,110.7L1734.8,110.7z M1644.6,110.9h0.2l0,0H1644.6L1644.6,110.9z M1734.4,110.9L1734.4,110.9z M1822.9,110.9h-0.2v-0.2
	L1822.9,110.9z M1644.6,111.2h0.2v0.2h-0.2l0,0l0,0V111.2z M1823.2,110.9L1823.2,110.9z M1735.6,111.2L1735.6,111.2z M1823.2,111.2
	L1823.2,111.2z M1735.3,111.2L1735.3,111.2z M1644.6,111.2L1644.6,111.2z M1644.4,111.4L1644.4,111.4z M1838.8,111.4L1838.8,111.4
	L1838.8,111.4z M1835.9,111.6v-0.2l0,0V111.6z M1736.3,111.6L1736.3,111.6z M1644.6,111.9h-0.2v-0.2L1644.6,111.9z M1736,111.9
	L1736,111.9z M1836.8,112.4h-0.2l-0.2-0.2h-0.5l-0.2-0.2h0.2v0.1h0.2l0.5,0.2L1836.8,112.4z M1736,111.9L1736,111.9z M1837,112.1
	L1837,112.1z M1840.4,111.9v0.1l0,0l-0.2-0.2l0,0L1840.4,111.9z M1837.3,112.1L1837.3,112.1L1837.3,112.1z M1837,112.4L1837,112.4
	l0.2-0.2l0,0v0.2H1837z M1840.2,112.1l-0.2,0.2V112L1840.2,112.1z M1839.7,112.6L1839.7,112.6z M1643.8,112.6L1643.8,112.6v-0.2h0.2
	v0.2H1643.8z M1839,112.6h0.2l0.2,0.2h-0.2v-0.2H1839z M1768.9,112.6L1768.9,112.6z M1768.9,112.8h0.5v0.2h0.2v0.2l0,0l0,0h0.2v0.2
	h-0.2v0.2l-0.2-0.2v0.2h-0.4v-0.5h-0.2V113l0,0v-0.2h0.2l0,0L1768.9,112.8z M1769.4,113.1v-0.2l0,0V113.1z M1643.4,113.1h0.2v0.2
	h-0.2V113.1z M1769.8,113.3L1769.8,113.3z M1768.2,113.8L1768.2,113.8z M1768.2,113.8L1768.2,113.8L1768.2,113.8z M1768.2,114
	L1768.2,114z M91.1,115.9l0.2,0.2v0.5h-0.2v-0.5h-0.2v0.2l-0.2-0.2v-0.2h-0.2l-0.2-0.2v-0.2l-0.2-0.2h-0.5l-0.2-0.2h-0.2l-0.2-0.2
	h0.5l0.2,0.2l0.2,0.2h0.2l0.2,0.2l0.5,0.2l0.2,0.2H91.1z M1829.2,116.6L1829.2,116.6z M90.4,116.6l-0.2,0.2l-0.2-0.2H90.4z
	 M88.5,116.6h1l0.2,0.2h-1.5l-0.2-0.2H88.5z M1829.2,116.6L1829.2,116.6z M1783.1,116.6L1783.1,116.6z M1840.7,116.8L1840.7,116.8z
	 M1840.7,117.1L1840.7,117.1z M1829.4,117.1L1829.4,117.1z M1841.7,117.6L1841.7,117.6z M1841.4,117.6L1841.4,117.6z M1830.4,117.6
	L1830.4,117.6z M1842.2,117.6h0.5v0.2l-0.2-0.2H1842.2z M1830.7,117.8L1830.7,117.8z M1830.2,118.3V118h0.5l0,0h-0.2v0.2
	L1830.2,118.3z M1829.2,118L1829.2,118z M1843.4,118.3L1843.4,118.3z M1830.2,119v-0.2l0,0V119z M1843.4,118.5L1843.4,118.5z
	 M92.3,118.3v0.2h-0.2v-0.2H92.3z M90.4,118.5L90.4,118.5z M1829.7,118.7L1829.7,118.7z M1822.7,119.7v0.2l0,0V119.7L1822.7,119.7z
	 M1746.6,120.2L1746.6,120.2z M1747.8,120.5L1747.8,120.5z M1796.3,121.5v0.2h-0.5v-0.2l0.2-0.2h0.2V121.5z M1747.3,121.7v-0.2h0.2
	L1747.3,121.7z M1795.8,121.7h-0.2v-0.2L1795.8,121.7z M1796.3,121.7L1796.3,121.7z M98.5,124.5v0.2h-0.2v-0.2H98.5z M1634.3,125
	L1634.3,125z M1827.1,125L1827.1,125z M1826.6,125.2L1826.6,125.2z M1827.1,125.2h0.2l0,0H1827.1z M1636.5,126.7L1636.5,126.7z
	 M105.5,128.6v0.2h-0.2v-0.2H105.5z M105.5,128.8h0.2v0.2h-0.2V128.8z M106,129.1v0.2h-0.7v-0.2h0.2v0.2h0.5L106,129.1z
	 M1850.6,131.7h-0.2v-0.2h0.2V131.7z M1850.1,132.9h0.2v-0.2l0,0v0.2H1850.1z M1850.1,133.2h-0.5v0.2h-0.2v-0.2H1850.1z
	 M1852.7,138.7h0.2v0.5h-0.2v-0.2h0.2v-0.2L1852.7,138.7L1852.7,138.7L1852.7,138.7z M114.8,138.7h0.2v0.2h0.5v0.2h-0.2v0.7h0.5
	l0.2,0.2h0.2v0.2H116l0,0h-0.2l-0.2-0.2h-0.7v-0.2h-0.2v-0.2h-0.5l0.2-0.2l0.2-0.2v0.2h-0.2l0,0h0.2v0.2h0.2l0,0l0,0v-0.2h0.2v-0.5
	h-0.2V138.7h-0.2l0,0H114.8z M114.8,138.7L114.8,138.7z M1850.8,139.2L1850.8,139.2z M1851.6,140.4h0.2v-0.5h-0.2v-0.2h-0.2v-0.2
	h-0.2v-0.2l0,0v0.2h0.2v0.2h0.2v0.2h0.2v0.5H1851.6z M1850.6,139.4L1850.6,139.4z M1850.6,139.4L1850.6,139.4z M1851.3,140.8v0.2
	l0,0V140.8z M1851.5,141L1851.5,141z M1851.5,141.3L1851.5,141.3z M1851.5,141.5L1851.5,141.5z M1851.8,141.5L1851.8,141.5z
	 M1852.2,142l-0.2-0.2h0.2V142z M1852.5,142v0.2l0,0V142L1852.5,142L1852.5,142z M1851.3,142.2L1851.3,142.2z M1851.8,142.2v0.2
	l-0.2-0.2H1851.8z M1851.5,142.5L1851.5,142.5z M1851.5,142.5L1851.5,142.5z M1851.8,143.9L1851.8,143.9z M1852,144.2v0.5h-0.2v-0.2
	h0.2V144.2l-0.2,0l0,0L1852,144.2z M1851.8,144.2L1851.8,144.2z M1856.3,146.8l0.2,0.2l0,0h-0.2V146.8L1856.3,146.8z M1856.8,147.5
	h-0.2v-0.2h0.2V147.5z M1856.3,147.5L1856.3,147.5z M1856.6,147.8h0.2l0,0H1856.6z M1853.7,148.2L1853.7,148.2z M1853.9,148.2
	L1853.9,148.2z M1854.9,148.2L1854.9,148.2L1854.9,148.2z M1855.2,148.5v0.2h-0.2v-0.2l0,0v-0.2h0.2V148.5z M1854.7,148.5
	L1854.7,148.5z M101.2,151.4L101.2,151.4z M1819.9,152.4v-0.2l0,0V152.4z M1858.5,152.1L1858.5,152.1z M1859,152.4L1859,152.4z
	 M1859.2,152.6v0.2h0.2l0,0h-0.2V152.6L1859.2,152.6z M1833.5,153.8h0.2v0.2h-0.2V153.8z M1860.7,155.3v0.2h0.2v0.2h0.2l0,0h-0.2
	v-0.2h-0.2V155.3z M1867.4,156.3v0.2h0.2l0,0h-0.2V156.3h-0.2V156h0.2V156.3z M1861.4,156.3L1861.4,156.3z M1869.8,156.3v0.2h0.2
	l0,0h-0.2V156.3L1869.8,156.3z M1861.8,157h-0.2v-0.2h0.2V157z M1862.3,157L1862.3,157z M1862.6,157.2L1862.6,157.2z M1862.6,157.2
	L1862.6,157.2z M1862.6,157.7L1862.6,157.7z M1865,158.9L1865,158.9L1865,158.9z M1865.2,159.6L1865.2,159.6L1865.2,159.6z
	 M1865.2,159.9L1865.2,159.9z M1865,159.6h0.2v0.2h-0.2L1865,159.6z M1867.4,162.8v-0.2l0,0V162.8z M1871.7,163.5v-0.2l0,0V163.5
	L1871.7,163.5z M40,163.9v0.2h0.2l0.2,0.2h-0.7v-0.2H40v0.2h0.2v-0.2H40V163.9h-0.2l0,0H40z M45.3,168.9L45.3,168.9z M127.8,170.3
	h0.2v0.2h-0.2L127.8,170.3z M42.4,172.7L42.4,172.7z M37.8,172.9L37.8,172.9z M37.4,173.2L37.4,173.2L37.4,173.2z M37.6,173.2
	L37.6,173.2z M25.1,173.7v0.2l0,0V173.7z M25.4,173.9L25.4,173.9z M122.8,178.7h0.2v0.3h-0.2L122.8,178.7z M1867.2,179L1867.2,179z
	 M1867.4,179.2L1867.4,179.2L1867.4,179.2z M1873.4,181.4v0.2h-0.2v-0.2H1873.4z M1868.1,182.6L1868.1,182.6z M1872.2,187.1
	L1872.2,187.1z M1871.9,187.4L1871.9,187.4z M1879.9,188.6h0.2v0.2h-0.2V188.6z M202.5,191L202.5,191z M202.2,191.2H202v0.2h-0.2
	v-0.2H202.2L202.2,191.2z M1878.2,191.5v-0.2h0.2L1878.2,191.5z M1882.1,194.1L1882.1,194.1z M36.4,194.6L36.4,194.6z M1881.6,194.6
	L1881.6,194.6z M202.3,195.1L202.3,195.1z M204.4,195.6v0.2h0.7l0,0l0,0v0.2h0.2v0.2h-0.2l0,0h-0.2l0,0h-0.2v0.2h-0.5v-1
	L204.4,195.6z M207.5,196h0.2v0.2h-0.2v0.2h-0.2V196L207.5,196z M112,196.5h-0.2l0,0H112z M112.3,196.8H112v-0.2h0.2L112.3,196.8z
	 M111.5,197L111.5,197z M112,197.2h-0.2l0,0H112z M112,197.2L112,197.2z M40,197.7h-0.2v-0.2H40L40,197.7z M204.9,198.4v0.7h-0.2
	v-0.2h-0.2v-0.2h0.2v-0.2L204.9,198.4z M43.1,198.7L43.1,198.7z M1884.9,198.4L1884.9,198.4z M1885.2,198.9h-0.2v-0.2h0.2V198.9z
	 M210.4,200.4v0.2h0.5v0.2l0.2-0.2v0.2h-1.2v0.2h-0.5v-0.5h0.5v-0.2L210.4,200.4L210.4,200.4z M209.7,201.4v0.2l0.2-0.2v0.5
	l-0.2-0.2v0.2h-0.2v-0.2h0.2V201.4z M152.1,201.6L152.1,201.6z M152.1,201.6L152.1,201.6z M210.9,201.8h0.2v0.2h-0.2V201.8z
	 M151.9,202.1L151.9,202.1z M95.7,202.1L95.7,202.1L95.7,202.1z M95.9,202.1h-0.2l0,0H95.9z M96.4,204.2V204l0,0V204.2z M96.2,204.2
	L96.2,204.2z M211.6,204.2h0.5v0.5h-0.5V204.2z M71.2,206.6L71.2,206.6z M71.5,206.9L71.5,206.9z M44.3,207.6L44.3,207.6z
	 M143.7,209.5L143.7,209.5z M1868.6,215h0.2v0.2h-0.7l0.2-0.2H1868.6z M18.6,219.3v0.2l0,0V219.3h-0.2v-0.2l0,0l0.2-0.2v0.2h0.2v0.2
	H18.6z M85.3,219.8L85.3,219.8z M38.3,220h0.2v0.2l0.2,0.2v0.2H39v0.2l0.2,0.2H39v0.7h-0.2v-0.2h-1v0.2l-0.2-0.2v0.2h-0.2v-0.2h-0.2
	v-0.2l-0.2-0.2l-0.2-0.2h-0.2v-0.2h-0.2v-0.2h-0.2v-0.2h1.4l0,0l0.2-0.2L38.3,220L38.3,220z M40.9,221.7v0.2h0.5v0.2h0.7v0.2h0.2
	v0.2l0.2-0.2v0.2h0.2l0,0h0.2v0.5h-1.7l-0.2-0.2h-0.7v-0.2h-0.2v-0.2H40l-0.2-0.2H40V222h1L40.9,221.7z M39.7,222.2L39.7,222.2z
	 M43.1,223.2L43.1,223.2z M196,223.7L196,223.7z M197.2,223.9h-0.2l0,0H197.2z M197.2,223.9L197.2,223.9z M52.4,223.9L52.4,223.9z
	 M52.2,223.9L52.2,223.9z M196.7,223.9L196.7,223.9z M53.2,224.2h0.2v0.2h-0.5v-0.2H53.2z M46.9,224.4h0.5l0,0h-0.2v0.2h-0.2l0,0
	h-0.2v0.2h-0.2l0,0h-0.2v-0.2h0.5v-0.2H46.9L46.9,224.4L46.9,224.4z M9,224.6H8.8l-0.2-0.2H9V224.6z M47.6,224.6h-0.2v-0.2h0.2
	V224.6z M173.4,224.6v0.2l-0.2-0.2v0.2l0,0v-0.2H173.4z M9.5,224.8L9.5,224.8v0.2l-0.2-0.2H9.5L9.5,224.8z M173.2,225.1h0.2l0,0
	H173.2z M178.5,225.1h-0.2v0.2H178l0.2-0.2H178.5z M177.5,225.3h0.2l0,0H177.5z M172.2,225.3L172.2,225.3z M171.5,225.1L171.5,225.1
	l-0.2,0.2v-0.2H171.5z M171,225.3v-0.2h0.2v0.2H171z M172.9,225.3L172.9,225.3L172.9,225.3z M171.5,225.6h-0.2l0.2-0.2V225.6z
	 M177.7,225.6L177.7,225.6z M170.5,225.8L170.5,225.8z M177,226L177,226L177,226z M176.5,226.2v0.2l0,0v0.2h-0.2v-0.2L176.5,226.2z
	 M209.2,227.2v0.2h-0.2v-0.2H209.2z M158.8,227.5h0.2l0,0H158.8z M158.8,227.7L158.8,227.7z M158.8,227.7L158.8,227.7z M162.1,228
	h-0.2v-0.2l0,0v0.2H162.1z M163.1,227.7L163.1,227.7z M163.6,227.7h0.2v0.2h-0.2V227.7z M179.9,228L179.9,228z M162.2,228L162.2,228
	z M164.3,228L164.3,228L164.3,228z M164.3,228.2L164.3,228.2z M165,228.9v-0.2h-0.5v-0.2l0.2,0.2h0.2L165,228.9z M162.6,228.7
	L162.6,228.7z M161.2,228.9H161l0,0H161.2z M165.5,229.4l-0.2-0.2h0.2V229.4z M168.4,229.2L168.4,229.2z M163.6,229.4L163.6,229.4z
	 M169.4,229.6l-0.2-0.2h0.2V229.6z M165.8,229.4L165.8,229.4z M170.8,229.9h-0.2l0,0H170.8z M170.8,229.9L170.8,229.9z M165.2,229.9
	L165.2,229.9z M170.2,229.9L170.2,229.9z M171.2,230.1L171.2,230.1z M170,229.9L170,229.9z M171.2,230.6L171.2,230.6z M175.1,230.8
	h-0.2v-0.2h0.2V230.8z M171,231.1L171,231.1z M22.2,231.6H22v-0.2h0.2l0,0h0.2v0.2H22.2z M174.8,231.6L174.8,231.6z M167.6,231.8
	v-0.2l0,0V231.8z M0.6,232.3L0.4,232h0.2L0.6,232.3z M179.2,232v0.2l-0.2-0.2H179.2z M178.9,232L178.9,232z M176.5,232.2h0.2v0.8
	l0,0v-0.5l0,0v-0.2L176.5,232.2z M169.5,232.5v-0.2l0.2,0.2H169.5z M129,232.3L129,232.3z M172.2,232.5H172v-0.2L172.2,232.5z
	 M160.7,232.8v-0.2h0.2v0.2H160.7z M198.4,232.5L198.4,232.5z M128.8,232.5L128.8,232.5z M198.1,232.5L198.1,232.5z M171,232.5
	L171,232.5z M172.7,232.8h-0.2l0,0H172.7z M198.1,232.5L198.1,232.5z M176.3,233v0.2l-0.2-0.2H176.3z M190.7,233l0.2,0.2h-0.2V233z
	 M190.5,233v0.2h-0.2l0,0h0.2V233z M31.8,233.2L31.8,233.2h0.2l0,0H31.8z M201.7,233.2h0.3v0.2l0,0v-0.2h-0.5v0.2l0,0v-0.2H201.7z
	 M173.9,233.7l0.2,0.2v0.7h0.2v0.2l0.2,0.2h-0.2v-0.2h-0.2v-0.7l-0.2-0.2V233.7h-0.2v0.2h-0.2l0.2-0.2H173.9z M189.5,234.4v-0.2
	l0.2-0.2v0.2h-0.2V234.4z M4.7,233.9L4.7,233.9z M173.2,233.9L173.2,233.9z M172.9,233.9L172.9,233.9L172.9,233.9z M177,234.2
	L177,234.2z M178,234.2L178,234.2z M190.3,234.2L190.3,234.2z M0.7,234.2H0.4l0,0H0.7z M170.3,234.2v0.2h-0.2v-0.2H170.3z
	 M170.1,234.4h0.2v-0.2h-0.2V234.4z M1880.4,234.2v0.2h-0.2l-0.2,0.2h-0.2v0.2h-0.2v0.2h-0.2v0.2h-0.2v0.2h-0.2v0.2l-0.2,0.2h-0.2
	l-0.2,0.2h-0.2v0.2l0,0v0.2h-0.5v0.2h-0.3l0.2,0.2h-0.2v0.2h0.5v-0.2h0.2l0.2-0.2h0.2v-0.2h0.2v-0.2h0.2v-0.2h0.2l0.2-0.2h0.2l0,0
	l0.2-0.2v0.2l-0.2,0.2v0.2h-0.2v0.2h-0.2v0.2h0.2v0.2h0.2v0.2h-0.2l0,0h-0.2v-0.2h-1v0.2h-0.5l0,0h-0.2l0,0l-0.2,0.2l0,0h-0.2l0,0
	h-0.2l0,0h-0.5v-0.2h0.5v-0.2h-0.2v-0.2h-0.7v0.2h-0.2v0.2h-0.2l-0.2,0.2v0.2h-0.2l0,0h0.2v0.2h-0.5V238h-0.2l0,0h-0.2l-0.2,0.2l0,0
	v0.2l-0.2-0.2v0.5h-0.5v-0.2l-0.2-0.2l0,0v-0.7h-0.2v0.2h-0.2l-0.2-0.2l0,0v-0.2h0.5V237h0.2v-0.2h-0.2l0,0h0.5v0.2h0.2v-0.2h0.5
	v-0.2h0.2l0,0h0.2v-0.2h0.2v-0.2h0.2v-0.2l0,0l0.2,0.2v-0.2h1v-0.2h1.2v-0.2l0,0l0.2-0.2h0.2v-0.2h0.5l0,0h0.2v-0.2h0.2v-0.2h0.2
	l0,0h0.2v0.2h0.2l0.2-0.2v0.2h0.2v-0.2h0.5v-0.2L1880.4,234.2z M1880.1,234.4h-0.2v-0.2h0.2V234.4z M1878.4,234.4L1878.4,234.4z
	 M189.5,234.9L189.5,234.9z M1878.4,234.4L1878.4,234.4L1878.4,234.4z M1879.2,234.4v0.2h-0.2v-0.2H1879.2z M177.3,234.7
	L177.3,234.7z M1875.8,234.7L1875.8,234.7z M1878.2,234.7L1878.2,234.7z M142.7,234.7h-0.2l0,0H142.7z M142.7,234.9L142.7,234.9z
	 M1876.7,235.2h0.2v0.2h-0.2V235.2z M1876.7,235.4L1876.7,235.4z M174.6,235.4L174.6,235.4z M180.2,235.4L180.2,235.4z M180.6,235.6
	h-0.2l0,0H180.6z M179.9,235.6L179.9,235.6z M187.1,235.6L187.1,235.6z M175.4,235.9l-0.2-0.2L175.4,235.9z M140.4,235.9
	L140.4,235.9z M140.6,235.9L140.6,235.9z M180.9,236.1v-0.2h-0.2l0,0h0.2V236.1z M140.6,235.9h-0.2v-0.2L140.6,235.9z M0.9,235.9
	v0.5H0.6v-0.5H0.9z M143.2,235.9L143.2,235.9z M182.8,235.9L182.8,235.9L182.8,235.9z M142.8,235.9L142.8,235.9z M143,235.9h0.2v0.2
	H143V235.9z M143.2,236.4L143.2,236.4z M183.1,236.1L183.1,236.1z M1879.9,236.4L1879.9,236.4z M183,236.4v-0.2l0,0V236.4z
	 M142.9,236.4h-0.2v-0.2h0.2V236.4z M128.3,236.4L128.3,236.4z M174.8,236.4h-0.2v-0.2h0.2V236.4z M128.5,236.4L128.5,236.4z
	 M144.1,236.4L144.1,236.4z M183.2,236.4L183.2,236.4z M184,236.8h-0.2v-0.2h-0.5v-0.2l0.2,0.2h0.2v0.2H184z M1872.9,236.6
	L1872.9,236.6z M144.1,236.6h0.2v0.2l0,0v0.2h-0.2v-0.2h-0.2v-0.2H144.1z M1873.1,236.6L1873.1,236.6z M1879.4,236.8v0.2h-0.2v-0.2
	h0.5l0,0H1879.4z M184.7,236.8h0.2l0,0H184.7z M180.8,236.8L180.8,236.8z M181.1,237.1v-0.2l0,0V237.1z M187.8,236.8L187.8,236.8z
	 M146.8,237.1L146.8,237.1L146.8,237.1v0.2h-0.2v0.2h-0.2v-0.2h0.2v-0.2H146.8z M1.6,237.6v0.2H1.3v0.2H1.1v0.2H0.9v0.2l-0.2-1h0.2
	v-0.2h0.2V237h0.2v0.5L1.6,237.6z M1867.6,237.1v0.2h-0.2v0.2h-0.2v0.2h-0.5l0,0h0.2l0.2-0.2h0.2v-0.2h0.2V237.1L1867.6,237.1z
	 M175.8,237.3L175.8,237.3z M181.6,237.3L181.6,237.3L181.6,237.3z M144.4,237.3v0.2h0.2v0.2h0.2v0.2h-0.2v0.2h-0.2l0,0h-0.2
	l0.2-0.2h-0.2v-0.7L144.4,237.3z M176.5,237.3L176.5,237.3z M188.1,237.3L188.1,237.3z M2.3,237.3L2.3,237.3z M1.8,237.3h0.2v0.2
	l-0.2,0.2V237.3L1.8,237.3z M176.5,237.6h-0.2v-0.2h0.2V237.6z M146.8,237.6v0.2h-0.2v-0.2H146.8L146.8,237.6z M147,237.6h-0.2l0,0
	H147z M1871.9,237.6L1871.9,237.6z M131.9,237.8v-0.2l0,0V237.8z M178.3,237.8v-0.2l0,0V237.8z M1871,237.6v0.2l0,0V237.6z
	 M131.7,237.8L131.7,237.8z M177,237.8L177,237.8z M1879.2,238.8h-0.2v-0.5h0.2l0.2-0.2v-0.2h0.2v-0.2l-0.2,1v0.2L1879.2,238.8z
	 M180.4,237.8L180.4,237.8z M1875.1,237.8L1875.1,237.8z M192.4,237.8L192.4,237.8z M178.5,237.8L178.5,237.8z M1866.7,238v0.2h-0.2
	L1866.7,238z M178.9,238L178.9,238z M1874.6,238.2L1874.6,238.2z M178,238.5L178,238.5z M185.7,238.5L185.7,238.5z M1866.2,238.5
	L1866.2,238.5z M153.8,238.8L153.8,238.8z M154,238.8l-0.2-0.2h0.2L154,238.8z M186.4,238.8L186.4,238.8z M1865.9,238.8
	L1865.9,238.8L1865.9,238.8z M178.7,238.8L178.7,238.8z M4.5,238.8L4.5,238.8z M154,238.8L154,238.8z M154,239L154,239z M180.2,239
	L180.2,239z M1865.7,239.2h-0.2v0.2h-0.2v-0.2h0.2l0,0H1865.7L1865.7,239.2z M180.4,239.2h-0.2V239h0.2V239.2z M179.7,239.2
	L179.7,239.2z M1863.8,239.5L1863.8,239.5z M5.7,239.5h0.2v0.2h0.5v0.2l-0.2,0.2v0.2H5.9v-0.2h0.2v-0.5H5.9L5.7,239.5z M5.7,239.7
	L5.7,239.7z M1876.3,240v0.5l-0.2,0.2v0.2h-0.2v-0.2h0.2v-0.2h-0.2l0.2-0.2l0,0V240L1876.3,240z M3.3,240h0.2v0.2H3.3L3.3,240z
	 M5.4,240.2H5.2V240h0.2L5.4,240.2z M3.5,240.2L3.5,240.2z M1864.7,240.2v0.2h-0.2v-0.2H1864.7L1864.7,240.2z M1870.3,240.2
	L1870.3,240.2L1870.3,240.2z M209.9,240.4L209.9,240.4z M1870,240.4h0.2v0.5h-0.3v0.2h0.2v-0.2l0.2,0.2v0.2h0.2v0.2h0.5v0.2h0.2v0.2
	h0.2l-0.2,0.2v0.2h-0.2v0.2h0.2v0.2l0,0v0.2l0.2-0.2v0.2h-0.2l0,0h-0.2v0.5l0,0l0,0h0.2v0.5l0.2-0.2v0.2h-0.2v0.2h-0.2v0.2h-0.2
	v-0.2l0.2-0.2h-0.2v0.2h-0.5v0.2h-0.2v-0.2h-0.3l0,0h-0.2v0.2h-0.5v0.2h-0.2v0.2h-0.2v0.2h-0.2v-0.2h-0.2l-0.2,0.2v-0.2h-0.2v0.2
	h-0.5v-0.2h-0.5l-0.2-0.2h-0.7v-0.2h-0.2l0,0h-0.5l0,0l-0.2-0.2h-0.2v-0.7l0,0v-0.5h0.5v-0.2h0.2v-0.2h0.2v-0.7h0.2v-0.2h0.2l0,0
	l0.2-0.2l0,0v-0.2h0.5v-0.2h0.2l0,0h0.2v-0.2h0.2l0,0h0.2l0.2-0.2v0.2h1v-0.2h0.7v-0.2L1870,240.4z M173.9,240.4L173.9,240.4z
	 M1864.7,240.7L1864.7,240.7z M209.4,240.7v-0.2l0,0V240.7z M173.7,240.7L173.7,240.7L173.7,240.7z M6.4,240.4l-0.2,0.2v-0.2H6.4z
	 M194.3,240.4h0.2v0.2h-0.2V240.4z M6.6,240.7L6.6,240.7z M209.6,240.7L209.6,240.7z M194.3,240.7L194.3,240.7z M174.3,240.9h-0.2
	v-0.2h0.2V240.9z M194.3,240.9L194.3,240.9z M174.1,240.9L174.1,240.9z M174.6,241.2v-0.2l0,0V241.2z M5.4,241.2L5.4,241.2H5.2v-0.2
	h0.2L5.4,241.2z M174.1,241.2L174.1,241.2z M1873.8,240.9v0.2h-0.2v-0.2H1873.8z M184.4,241.2L184.4,241.2z M174.6,241.4
	L174.6,241.4z M152.5,241.4v0.5H152v-0.2h-0.2v-0.2h0.5v-0.2h0.5v0.2L152.5,241.4z M1865.2,241.4L1865.2,241.4z M154.2,241.4h0.2
	v0.2h0.5v1h0.7v0.7h-0.5l-0.2-0.2v-0.2h-0.2l0,0h-1v-0.2h-0.2v-0.5h-0.2v-0.5h0.2v-0.2L154.2,241.4L154.2,241.4z M7.5,241.4
	L7.5,241.4z M188.5,241.6h0.2v0.2L188.5,241.6L188.5,241.6z M188,241.6L188,241.6z M1873.8,241.9v0.2h-0.2v-0.2H1873.8z
	 M1864.2,241.9L1864.2,241.9z M1872.6,242.6h-0.2v-0.5h0.2l0,0h0.2v0.2L1872.6,242.6z M148.2,242.1l0.2,0.2h-0.2V242.1z M7.1,242.4
	v-0.2l0,0V242.4z M148.2,242.1L148.2,242.1z M198.4,242.4v0.2l-0.2,0.2h-0.2v0.2h-0.2v0.2h-0.5v-0.2l0,0v0.2h0.2l0.2-0.2h0.2v-0.2
	h0.2v-0.2h0.2L198.4,242.4z M197.4,242.8h0.2v-0.2h0.2v-0.2h0.2v0.2h-0.5v0.2H197.4z M1872.4,242.8h-0.2v-0.2h0.2V242.8z M4.9,242.8
	H4.4v-0.2h0.5L4.9,242.8z M1864.5,242.6L1864.5,242.6L1864.5,242.6z M1874.3,242.8L1874.3,242.8z M1875.5,242.8L1875.5,242.8
	L1875.5,242.8z M1865.4,243.1L1865.4,243.1z M186.1,243.1L186.1,243.1h-0.2l0,0H186.1z M161.1,243.3L161.1,243.3z M1874.7,243.8h0.2
	v0.7h-0.2v-0.2h-0.2v-0.5H1874.7z M190.2,243.8L190.2,243.8z M6.1,243.8v0.2l-0.2-0.2L6.1,243.8z M29.9,244L29.9,244z M190.2,244.2
	V244h0.2v0.2H190.2z M197.2,245L197.2,245H197v-0.2h-0.2v-0.2l-0.2-0.2h0.2v0.5h0.2v0.3L197.2,245z M189.5,244.5L189.5,244.5z
	 M1871,244.5v0.2l0,0l0,0h-0.2L1871,244.5z M1870.8,244.5L1870.8,244.5z M190,244.8L190,244.8z M30.6,244.8L30.6,244.8z M190.2,245
	L190.2,245z M7.6,245h0.2v0.2H7.3V245H7.6z M190.7,245.2L190.7,245.2z M216.4,246h-0.2v-0.5l0,0v0.2L216.4,246z M190.2,245.5
	L190.2,245.5L190.2,245.5z M190.2,245.7L190.2,245.7z M197.7,246.2V246h-0.2v-0.2l0,0v0.2h0.2V246.2z M1868.6,246v0.2h-0.2V246
	H1868.6z M1868.8,246.2h-0.2V246h0.2V246.2z M9.3,246.4H9l0.2-0.2L9.3,246.4z M218.8,246.4h0.2v0.2h0.2v0.2l0,0v-0.2h-0.5
	L218.8,246.4L218.8,246.4L218.8,246.4z M1865.9,247.1v-0.2l-0.2-0.2h0.2V247.1L1865.9,247.1z M1877.5,246.9h-0.2v0.2l0,0v0.2h-0.2
	v-0.2h-0.2l0.2-0.2H1877.5L1877.5,246.9z M31.8,246.9v0.2h0.2l0,0h-0.2v0.2h-0.2l0,0l0.2-0.2h-0.2v0.2h-0.2v-0.2h0.2v-0.2H31.8z
	 M32.1,247.4L32.1,247.4z M9.3,247.4v0.2L9,247.4L9.3,247.4z M31.1,247.4L31.1,247.4z M32.1,247.6L32.1,247.6z M8.6,247.6L8.6,247.6
	z M31.6,247.6L31.6,247.6z M31.3,247.6L31.3,247.6z M31.3,247.6L31.3,247.6z M31.8,247.6L31.8,247.6z M31.1,247.9L31.1,247.9z
	 M192.1,248.1L192.1,248.1z M31.5,247.9L31.5,247.9z M206.7,248.1L206.7,248.1z M191.6,248.1L191.6,248.1z M1870,247.9L1870,247.9z
	 M28.4,248.3L28.4,248.3z M1870,248.3L1870,248.3z M102.4,248.3L102.4,248.3L102.4,248.3z M8.5,248.3h0.2v0.2H8.5L8.5,248.3z
	 M1869.8,248.6h0.2v0.2h-0.5v-0.2H1869.8z M7.1,249.3v-0.2H6.8l0.2-0.2v0.2l0,0L7.1,249.3z M2.5,248.8H3v0.2H2.8l0,0H2.5v0.2l0,0
	V248.8L2.5,248.8z M9.7,249.1L9.7,249.1z M1868.8,248.8h0.2v0.2h0.5v0.2l0,0l-0.2,0.2l0,0h-0.5v-0.2h-0.2l0,0h-0.2v0.2h-0.5v0.2h0.2
	l-0.2,0.2v-0.2l-0.2,0.2h-0.7v-0.2h0.2l0.2-0.2h0.5l0.2-0.2v-0.2h0.7V248.8z M52.5,250H52v-0.7l0.2-0.2h0.5v0.7h-0.2L52.5,250z
	 M7.8,249.3L7.8,249.3z M31.8,249.3L31.8,249.3z M1868.1,249.8L1868.1,249.8z M9.3,249.8H9v0.2h0.2l0,0H9v-0.2H9.3z M197.2,249.8
	h0.2v0.2h-0.2V249.8z M10,250L10,250z M1875.8,250v0.2l0,0V250z M1867.6,250.2L1867.6,250.2z M27.5,250.2L27.5,250.2z M194.5,250.2
	L194.5,250.2L194.5,250.2z M10,250.3L10,250.3z M106.7,250.5L106.7,250.5z M106.7,250.5v0.2l-0.2-0.2H106.7z M204.4,251.2V251h0.2
	L204.4,251.2z M204.4,251.2h-0.2V251h0.2V251.2z M207,251.2L207,251.2z M198.4,252.7L198.4,252.7z M198.2,252.4L198.2,252.4z
	 M198.2,252.7L198.2,252.7z M27,252.9L27,252.9z M30.6,252.9L30.6,252.9z M26.8,252.9v0.2H27v0.2h-0.2l-0.2-0.2v-0.2H26.8z
	 M30.6,253.2L30.6,253.2L30.6,253.2z M112.7,253.6h-0.2v-0.2h0.2V253.6z M30.4,253.6L30.4,253.6z M109.8,253.6L109.8,253.6z
	 M175.8,253.9h-0.2v-0.2L175.8,253.9z M30.1,254.1L30.1,254.1z M175.6,254.1h0.2l0,0H175.6z M29.9,254.4L29.9,254.4z M29.9,254.4
	L29.9,254.4z M110.5,254.4h0.2v0.2h-0.2V254.4z M28.9,254.6L28.9,254.6z M114.6,255.6l-0.2-0.2v-0.2l0.2,0.2V255.6z M28.4,255.8
	L28.4,255.8z M29.6,256.3L29.6,256.3z M28.9,256.3L28.9,256.3z M182.5,256.8v-0.2l0,0V256.8z M182.3,256.8L182.3,256.8z M28.7,257
	L28.7,257z M29.2,257L29.2,257z M28.7,257.2L28.7,257.2z M25.6,257.5h-0.2l0.2-0.2V257.5z M9.3,258L9.3,258z M9.5,258L9.5,258z
	 M184.5,258.2L184.5,258.2z M203.9,258.4L203.9,258.4z M207.1,259.2h-0.2v-0.2h0.2v-0.2l0,0L207.1,259.2L207.1,259.2z M203.9,258.7
	L203.9,258.7z M26.5,260.1L26.5,260.1z M26.3,260.3h0.5v0.2H27v0.2h0.2v-0.5h0.2v0.2l0,0v0.2h-0.2v0.2H27l-0.2-0.2h-0.5v-0.2h-0.2
	v-0.2L26.3,260.3z M27,260.1L27,260.1z M27.7,260.3h-0.2v-0.2h0.2V260.3z M102.4,260.8h0.2v0.2h-0.5v-0.2H102.4z M28.5,262h-0.2
	v-0.2H28v-0.2h0.2l0,0h0.2L28.5,262L28.5,262z M215.2,261.5L215.2,261.5z M215.7,261.5L215.7,261.5z M215.7,261.5L215.7,261.5z
	 M216.4,261.5L216.4,261.5z M216.9,262v0.2h-0.2L216.9,262z M221.2,262.2L221.2,262.2z M220.7,262.2L220.7,262.2z M221.4,262.5h-0.2
	v-0.2L221.4,262.5z M220.4,262.5L220.4,262.5z M195.9,263.2v0.2h-0.2v-0.2H195.9z M195.7,263.4h0.3v-0.2h-0.2L195.7,263.4z
	 M111.7,264.6h-0.5v-0.2h0.5V264.6z M217.5,264.9h-0.2l0,0H217.5z M217.3,265.1L217.3,265.1z M22.5,266.8L22.5,266.8z M143.5,267.8
	v-0.2h-0.2v-0.2h0.2V267.8L143.5,267.8z M136,268.5v-0.2h0.2L136,268.5z M222.7,270.7h-0.2v0.2l0,0v-0.2H222.7z M222.7,270.9
	L222.7,270.9z M222.2,270.9v0.2h-0.2v-0.2H222.2z M152.1,272.4v-0.2h0.2v0.2H152.1z M161,274.8L161,274.8z M160.7,274.8L160.7,274.8
	v0.2h-0.2v-0.2L160.7,274.8z M242.1,275.3h-0.2V275h0.2V275.3z M253.1,277.2v0.5h-0.2v-0.2L253.1,277.2L253.1,277.2L253.1,277.2z
	 M269.7,279.1L269.7,279.1z M243.7,281.3h-0.2l0.2-0.2V281.3z M338.7,291.8L338.7,291.8v0.2h-0.5v0.2h-0.5V292h0.2v-0.5h0.5v0.2
	L338.7,291.8z M174.3,294.5L174.3,294.5L174.3,294.5v0.2h-0.2v-0.2H174.3L174.3,294.5z"/>
</svg>
