<?xml version="1.0" encoding="utf-8"?>
<!-- Generator: Adobe Illustrator 20.1.0, SVG Export Plug-In . SVG Version: 6.00 Build 0)  -->
<svg version="1.1" id="Layer_1" xmlns="http://www.w3.org/2000/svg" xmlns:xlink="http://www.w3.org/1999/xlink" x="0px" y="0px"
	 viewBox="0 0 39.6 41" style="enable-background:new 0 0 39.6 41;" xml:space="preserve">
<style type="text/css">
	.st0{fill:#C14803;}
</style>
<title>succulent_karoo</title>
<path class="st0" d="M29.4,31v-0.2L29.2,31v0.5l-0.2,0.2h-0.2l-0.2-0.2v0.2L28.2,32L28,31.7h-0.2V32l0.2,0.2v0.2h0.5l0,0h-0.2
	L28,32.7V33h-0.2l-0.2,0.2h-0.7v0.2h-0.2l-0.2-0.2L26.1,33v-0.2l-0.2-0.2V32h-0.5v0.2h-0.3l0.2-0.2v-0.2l-0.2-0.2h-0.2v-0.2
	l-0.2,0.2v-0.7l-0.2-0.2h-0.2v-0.2h0.2V30l-0.2-0.2h-0.2v0.5l-0.2,0.2v0.2h0.2V31l-0.2,0.2h0.2l-0.2,0.2h0.2v0.2h0.5v0.7h0.2
	l0.2,0.2v0.2h0.7v0.2h-0.2l0.2,0.2h0.5l-0.2,0.2l-0.2,0.2h0.5v0.5h-0.5l0,0h-0.2l0,0h-0.2v-0.2h-0.2v-0.2h-0.2v0.2h0.2v0.2l-0.2-0.2
	h-0.2v0.2h0.2v0.2h0.2v0.2h-0.2v0.2h0.2v0.5h0.5v0.2l0,0v-0.2h0.2v0.2h0.2v-0.2h0.7v-0.2l0,0v-0.2h0.2v-0.2H27v-0.5h0.2v-0.2h0.2
	v-0.2h0.2v1.2h1.7v0.2h-0.2v0.2h-0.2V36h0.2v0.2h0.2V36h0.5v-0.5h0.7v1h-0.5l0,0h-1v0.2l-0.2-0.2h-0.5l-0.2,0.2H27v-0.2h-1.9v0.2
	l0,0V37h-0.2v0.2h-0.5v0.2h0.7v0.2h0.7v-0.2h-0.2v-0.2l0,0V37l0.2,0.2h0.2v0.2h0.5V37h-0.2l0,0h1.2l0.2,0.2H28V37h1.2v0.2h-1.9v0.2
	H27l-0.2,0.2h0.5l0.2-0.2h0.2v0.2h0.5V38h0.2l0.2-0.2h0.2L28.7,38v0.2l0,0l0.2,0.2v0.2h0.5V39h0.5v0.2h1l0.2,0.2v-0.2h0.5v0.2h-0.7
	v0.2l-0.2,0.2h-3.2v-0.2h-0.2v0.2h-0.7v0.2l-0.2-0.2l0,0h0.2v-0.2h0.2v-0.3h0.5v-0.2h-1.4l-0.2-0.2v-0.2h-1.2v-0.2h-0.2v-0.2l0,0
	v0.2h-1.4v-0.2h-0.2v-0.7l0,0v-0.2h0.7V37h-1v-0.2H22L21.8,37v-0.7l0,0V36H22v-1.4h0.2L22,34.4v-0.5h-0.2v-0.5h-0.5v-0.2H21v-0.5
	l0,0v-0.2l-0.2-0.2L20.5,32h-0.2v-0.2h-0.2v-0.2h-0.2v-0.2L19.6,31v-0.2h0.2v-0.2h-0.2v-0.2h0.2v-0.5l0,0v-0.7h0.2v-0.5h-0.2v-0.2
	h0.2v-0.2h-0.2v-0.2h-0.2v-0.2h0.2l-0.2-0.2v-0.5l-0.2-0.2v-0.5L19.1,26v-0.2h0.2v-0.2h-0.2v-0.2h-0.5v0.2h0.5v0.2h-0.2V26l-0.2-0.2
	V26h0.2v0.7h0.2v0.5h-0.2v0.2h-0.2l0,0h0.2v1h-0.2v0.2l0,0l0.2,0.2h-0.2v-0.3h-0.2v-0.2h-0.2v-0.2h-0.2v0.5h-0.2v-0.2h-0.2l0.2,0.2
	h-0.2v0.5h0.2v0.5h0.2v0.2h-0.2v-0.2h-0.2v-0.2h-0.2v-0.2h-0.2l0.2,0.2v0.2h0.2V30h-0.2v-0.5h-0.2l-0.2-0.2h-0.2V29h-0.2v-0.2h0.2
	v-0.2h-0.2v-0.5H16v0.5l0.2,0.2v0.2H16v1l0.2,0.2v0.5l0.2,0.2v0.5h0.2v0.2H17v-0.2h0.2v0.7H17l0,0h-0.3v0.2h0.2v0.2h0.2l0,0h0.2V33
	h0.2l0,0h-0.2l0,0h-0.5v-0.2h-0.5v-0.5h-0.2v-0.5H16v-1l-0.2-0.2l0.2-0.2L15.7,30v-1h-0.2v-0.4l-0.2-0.2h0.2v-0.2h-0.2l0,0H15v-0.5
	h-0.2v-0.2l-0.2-0.2v-0.2h-0.2v-0.2L14,26.4h-0.2V26l-0.2-0.2h-0.2v-0.5h-0.2v-0.5h-0.2v-0.5h-0.2V24l-0.2-0.2v-0.5h-0.2V23h-0.2
	v-0.7h-0.2v-0.2l-0.2-0.2v-0.4h-0.2v-0.5h-0.2v-0.5l-0.2-0.2v-0.5l-0.2-0.2V19h-0.2v-0.5H10v-0.2l0,0v-1H9.7v-0.5l-0.2-0.2v-0.5
	l-0.2-0.2v-0.2H9v-0.5l-0.2-0.2v-0.5H8.5v-0.2H8.3v-0.5H8.1v-0.2H7.8v-0.2H7.6v-0.7H7.3v-0.2H7.1l0,0L6.9,12l-0.2-0.2l-0.2-0.2H6.1
	v-0.2L5.9,11H5.7l-0.2-0.2v-0.2l-0.2-0.2H4.9v-0.2L4.7,9.9L4.5,9.6L4.2,9.4H4V9.2H3.7L3.5,8.9V8.7H3.3V8.4l0,0V8.2L3,8V7.7H2.8V7.5
	H2.5V6.8H2.3V6.5L2,6.3V6H1.8V5.8L1.6,5.6V5.3H1.3v-1L1.1,4.1l0,0v-1H0.6V2.7L0.4,2.4V1.7h0.2l0,0l0.2-0.2H0.6V1L0.4,0.8V0.5
	l0.7,0.2l1,0.2l1.4,0.2h0.7v0.2l0.2,0.2v0.5h0.2v0.5l0.2,0.2v0.2h0.2v0.5h0.2v0.5h0.2v0.5h0.2v0.2h0.2v0.5h0.2v0.2l0.2,0.2V6h0.2
	v0.2l0.2,0.2v0.2h0.2V7l0.2,0.2v0.2h0.2v0.2L8.1,8v0.2h0.2v0.2h0.2v0.2l0.2,0.2v0.2H9v0.2h0.2v0.2h0.3v0.2h0.2v0.2H10v0.5h0.2v0.2
	h0.2v0.5h0.2v0.5H11V12h0.2v0.2l0.2,0.2v0.2h0.2V13h0.2v0.2h0.2v0.2h0.5v0.2h0.7V14h0.7v0.2h0.7v0.2H16v0.2L15.8,15l-0.2,0.2v0.2
	l-0.2,0.2v2.1h0.5V18H16v0.2h0.2v0.5H16v0.5h-0.2v0.2H16v0.2h0.2V20H16v0.5h-0.2v0.2H16V21h-0.2v0.2l0.2,0.2h0.5v0.2H17v0.2h0.5v0.2
	h0.2v0.5h0.5v-0.2h0.5v0.2h0.5v-0.2h0.2l0,0h0.2v-0.7h0.2v-0.3h0.2v0.2h0.7v0.2h0.5v0.2h0.5v0.2H22v0.2h0.2v0.2h0.2v0.2h0.2v1h-0.2
	v0.5h0.2v0.2h0.5V25h0.2v1h-0.2v0.2H23v0.5h0.2V27h0.2v0.2H23v0.2h0.2v0.2h0.2v0.2h0.5v0.5l-0.2,0.2v0.2h-0.2v0.2h0.5v0.5h0.2
	l0.2-0.2l0.2,0.2l0.2,0.2l0,0l0.2-0.2v-0.5l0.2,0.2v0.5h0.2V30l0.2,0.2v1.2h0.2V30h-0.2v-0.5h0.2l0.2,0.2h0.2V30h0.2v0.2l0.2,0.2
	h0.2v-0.2h0.5l0.2,0.2l0.2-0.2h0.2V30l0.2-0.2H29v0.5l0.2,0.2l0.2,0.2h0.2v-0.2l0.2-0.2v0.2h1l0,0l0.2,0.2h0.5V31h-0.5v-0.2h-1
	l0.2,0.2v0.2l0.2-0.2l0.2,0.2h-1V31l-0.2-0.2L29.4,31z M23.4,29.8l-0.2-0.2v-0.5h0.2l-0.2-0.2l-0.2-0.2l-0.2,0.2l-0.2,0.2v1h0.2v0.2
	h0.2v0.2h0.2l0.2,0.2V31h0.2v-1h-0.5l-0.2-0.2L23.4,29.8L23.4,29.8z M20.5,30.8L20.5,30.8L20.5,30.8h-0.7V31l0,0l0,0h0.2l0,0h0.2
	l0,0h0.2l0,0h0.2v-0.2L20.5,30.8z M20.3,30.3h-0.2l0,0h-0.5v0.2h0.7V30.3z M22.5,29.1v-0.5l-0.2-0.2v0.5L22,29.1L22.5,29.1
	L22.5,29.1z M21.7,27.9h-0.5l0.2,0.2h-0.2v0.2H22l0,0h0.2v-0.5L22,28.2L21.7,27.9z M22.7,27.2L22.5,27l-0.2-0.2l0.2-0.2h-0.2v-0.3
	H22v0.2l-0.2,0.2h-0.3v0.2H22l0.2,0.2L22.7,27.2L22.7,27.2z M22.5,26L22.5,26z M14.8,20.2L14.5,20h-0.2v-0.2L14.1,20l0.2,0.2h-0.2
	L13.8,20v1.2l0.2-0.2v0.7l0.2,0.2v0.2l0.2,0.2H15v-0.2l0.2,0.2v-0.7L15,21.4h0.2L15,21.2v-0.2h-0.5v-0.2l-0.2-0.2h0.2L14.8,20.2z
	 M13.6,20.7h-0.2v-0.2l-0.2-0.2V20l-0.2-0.2h-0.2V20l0.2,0.2v0.2l0.2,0.2V21h0.5V20.7z M12.1,19h-0.2l-0.2-0.2V19l0.2,0.2h0.2
	L12.1,19z M12.9,18.8v-0.5h-0.2V18h-0.2v-1.9h0.2l-0.2-0.2h-0.2v0.7h-0.2v1.2h0.2v0.5h0.2v0.2h0.2v0.2H12.9z M16.2,31.8v-0.2H16v0.2
	H16.2l0,0.5h0.2v-0.5L16.2,31.8z M20.3,31.5v-0.2h-0.2v0.2l0.2,0.2h0.2l0,0h-0.2L20.3,31.5z M24.1,36h-0.5v0.2h-0.2v0.2h0.2
	l-0.2-0.2h0.7L23.9,36H24.1z M25.8,36.2L25.8,36.2z M24.4,36.2h-0.2v0.2h0.7v-0.2H24.4z M22.7,36.5L22.7,36.5l-0.2,0.2h0.2V36.5
	L22.7,36.5z M22.5,36.2h-0.2v0.2l0,0v-0.2H22.5z M24.4,37L24.4,37v0.2h0.2V37L24.4,37z M24.6,38v-0.2h0.2l-0.2-0.2V38L24.6,38
	L24.6,38z M26.5,37.7h-1V38h0.2v0.2h0.5V38h0.2l0.2-0.2L26.5,37.7z M27,38L27,38L27,38z M27.5,38h-0.2v0.2h0.2v0.2h0.2v-0.3H28V38
	H27.5L27.5,38z M0.9,3.9L0.9,3.9z M1.1,4.1L1.1,4.1z M15.3,28.4L15.3,28.4z M21.7,34.4h-0.2v-0.2h0.2V34.4z M30.6,36.8h-0.5L29.9,37
	h-0.7l0,0h0.5l0.2-0.2C29.9,36.8,30.6,36.8,30.6,36.8z M30.4,37.2L30.4,37.2V37h0.2v0.2H30.4z M38.1,37.2v0.2h-0.2v-0.2H38.1z
	 M39.1,37.5h0.2v0.2H39l0,0h-0.5V38h-1v0.2h-0.2V38l0.2-0.2h-0.2L37.1,38v-0.2h-0.2v-0.2h0.5l0,0h0.7l0,0h0.2l0.2,0.2H39L39.1,37.5z
	 M33.8,37.5v0.2h-0.3v-0.2H33.8z M34,37.7h-0.2l0.2-0.2V37.7z M33,38.9h-0.2v-0.2h-0.2v0.2h-0.2v-0.5h-0.5v0.2h-0.7v-0.2h-0.5v-0.7
	l0.2,0.2h0.2l0.2-0.2h1.2V38h0.7v0.2h0.5l-0.2,0.2H33L33,38.9L33,38.9z M37.1,38.2h-0.2l0,0H37.1z M21.3,38.2h0.2l0.2,0.2H22v0.2
	h0.2v0.2h0.2l0,0h0.2v0.2l0,0v0.5H23v0.2h-0.3v-0.2h-0.2v0.2h-0.2v0.2H22v0.2h-0.5v-0.2l0,0v-0.2h-0.2v0.2h-0.5v-0.2H21v-0.2l0,0
	v-0.2l0.2-0.2v-0.2H21v-0.2h-0.2v-0.2l0,0v-0.2L21.3,38.2L21.3,38.2z M21.3,38.7L21.3,38.7L21.3,38.7z M22.5,39.2h-0.2v0.2h0.2V39.2
	z M22,39.6v-0.2h-0.2v0.2H22z M21.7,39.6v-0.2l-0.2,0.2h-0.2v0.2h0.2v-0.2l0.2,0.2V39.6z M29.9,38.2h-0.2v0.2h-0.7l0.2-0.2h0.5l0,0
	H29.9z M22.7,38.4h0.7l0.2,0.2l0,0h0.2v0.2l-0.2-0.2h-0.2v0.2h-0.7v-0.2h-0.2v-0.2h-0.2v-0.2h0.2v0.2H22.7z M34.7,38.9v-0.2h-0.5
	v-0.2h0.2v0.2h0.2L34.7,38.9z M34.2,39.2H34l0,0h-0.2l0.2-0.2h0.2L34.2,39.2z M23.2,39.6h0.2v0.2l0,0l0.2,0.2h0.2v-0.2h0.2v0.2h0.2
	v0.2h-0.5v-0.2h-0.2l0,0h-0.2v0.5h-0.5v-0.2h-0.2v-0.2h0.2v-0.5H23.2z M23.5,39.9v-0.2h-0.2l0,0H23v0.5h0.2v-0.2L23.5,39.9z
	 M23.5,40.4v-0.2h-0.2v0.2H23.5z"/>
</svg>
