<?xml version="1.0" encoding="utf-8"?>
<!-- Generator: Adobe Illustrator 20.1.0, SVG Export Plug-In . SVG Version: 6.00 Build 0)  -->
<svg version="1.1" id="Layer_1" xmlns="http://www.w3.org/2000/svg" xmlns:xlink="http://www.w3.org/1999/xlink" x="0px" y="0px"
	 viewBox="0 0 90.8 83.8" style="enable-background:new 0 0 90.8 83.8;" xml:space="preserve">
<style type="text/css">
	.st0{fill:#C14803;}
</style>
<title>wallacea</title>
<path class="st0" d="M56.3,0.6h-0.2V0.4h0.2V0.6z M56.5,0.9L56.5,0.9z M47.9,0.9L47.9,0.9z M56.8,1.1L56.8,1.1z M56.8,1.3v0.2h-0.2
	V1.3H56.8z M48.9,1.8L48.9,1.8z M54.9,1.8h0.2V2h0.2v0.7h0.2V3h0.2v0.2h-0.2v0.5h-0.2v1h-0.7V4.2h0.2V4h0.2V3.2h-0.5V1.8L54.9,1.8z
	 M54.6,4.7v0.2h0.2l0.2,0.2l-0.2,0.2l0.2,0.2h-0.2V5.4h-0.2V5.2h0.2V4.9h-0.2V4.7h-0.2V4.5h0.2V4.7z M55.8,5.9l-0.2,0.2V5.9h-0.2
	V5.7h-0.2V5.4h0.2l0.2,0.2L55.8,5.9z M49.1,5.7h0.2l0,0H49.1L49.1,5.7z M49.1,5.9L49.1,5.9z M48.4,6.1h0.2l0.2,0.2h0.2v0.2l0,0v0.2
	h0.2v0.2h0.2v0.2l0,0v0.2h0.2l-0.2,0.2l0,0l0,0h-0.2l0,0h-0.2V7.6l0,0v0.2l-0.2-0.2V7.3l0,0l-0.2-0.2h0.2V6.8h-0.2V6.6h-0.2
	l-0.2-0.2V6.1L48.4,6.1z M49.8,7.6L49.8,7.6z M49.1,7.8L49.1,7.8z M49.6,8.1L49.6,8.1z M48.6,8.8V8.5h0.2v0.2H48.6z M49.1,9L49.1,9
	L49.1,9L49.1,9z M48.6,9.2L48.6,9.2z M49.1,9.5L49.1,9.5z M48.9,11.2l-0.2,0.2v0.2h0.2v0.2h-0.2v-0.2l-0.2-0.2v-0.5h0.5L48.9,11.2z
	 M47.4,11.4L47.4,11.4z M48.9,11.4v0.2l0,0V11.4z M49.1,11.6v0.2h-0.2v-0.2H49.1z M65.7,12.1v0.2h0.2v0.2l0.2,0.2l0,0v0.2h-0.2v0.5
	l-0.2,0.2v0.7h-0.2v0.2h-0.2L64.9,15l-0.2-0.2V15H64v-0.2h-0.2v-1h-0.3v-0.2h0.2v-0.2H64v-0.5l0.2-0.2h0.2v-0.2h0.2v-0.2h0.5v-0.2
	h0.2L65.7,12.1z M63.3,13.3L63.3,13.3l0.2,0.2H63v-0.2H63.3L63.3,13.3L63.3,13.3L63.3,13.3z M48.9,13.1h0.2v0.5h-0.2l-0.2-0.2v-0.2
	L48.9,13.1z M48.4,13.3L48.4,13.3z M48.6,13.6L48.6,13.6z M61.3,13.8h0.2V14h-0.2V13.8L61.3,13.8L61.3,13.8z M62.3,14.3h0.2V14h0.2
	v0.5h-0.2v0.2h-0.3v0.5h-0.2v0.2h-0.2v0.7h0.5l0.2,0.2h0.2v0.5h-0.2l0.2,0.2l0,0v1.7h-0.2v0.2l-0.2,0.2v0.2h-0.5v0.2h-0.2V20h-0.2
	l-0.2,0.2h-0.2v0.5l0.2,0.2h0.2v0.2l0.2,0.2h0.7v-0.2h0.2V21l-0.2-0.2h0.2V20h0.2v-0.2h1v-0.7h-0.5v-0.2h0.2v-0.2h0.2v-0.2H64v-0.2
	h0.5v-0.2h0.2v-0.2H65l0.2-0.2v0.2h0.2l0.2-0.2h1v0.2h-0.2v0.5l0.2,0.2v0.5h-0.2v0.2l0,0v1h-0.2v0.2h-0.3l-0.2,0.2h-0.2v0.2h-0.5V21
	h-0.7v0.2h0.2v0.2h-0.2v-0.2H64v0.2h-0.2l0.2,0.2l0.2,0.2l0,0l0.2,0.2h0.2v0.2l0,0v-0.2H65v0.2h0.5v0.2h1v1.2h0.2l0.2,0.2h0.5v0.2
	h0.2v0.2l-0.2-0.2h-0.5v-0.2h-1v-0.2h-0.5v-0.2h-1.2L64,23.4l0,0h-0.2l-0.2-0.2v0.2l-0.2-0.2h-0.7l-0.2,0.2v0.5l-0.2,0.2h0.5v0.2
	l0,0v0.7h-0.3v1h0.2v0.5h0.2v0.7l0.2,0.2V28h0.2v0.5h0.2v0.2h0.2V29l0.2,0.2v0.2l0.2,0.2h0.2v0.2h0.2v0.2l0.2,0.2h0.2l0,0h-1
	L64,30.1h0.2v-0.2l0,0l0,0H64v-0.2h-0.5l-0.2-0.2H63v-0.2h-0.2v-0.5l-0.2-0.2v-0.2h-0.2v-0.5h-0.2v-0.2h-0.5v-0.2h-0.2V27h-0.2v-0.5
	l0.2-0.2v-1.2l0,0v-1.2h-0.5v-0.2h-0.2v-0.7h-0.2v-1.2h0.2l0.2-0.2v-0.2h-0.2V21h-0.5v-1h-0.2v0.2L59.7,20v-1l0.2-0.2v-0.2h0.2v-0.6
	h0.2l-0.2-0.2v-0.2h0.2v-0.2l-0.2-0.2h0.2v-0.5h0.2v-0.2h0.2V16l0,0v-0.5h0.2v-0.2h0.2V15h0.2v-0.2h0.2v-0.2h0.2v-0.2l0.2-0.2
	L62.3,14.3z M63.5,14L63.5,14z M61.4,14L61.4,14z M61.1,14.3L61.1,14.3z M48.9,14.5v0.2h-0.2v-0.2H48.9z M63.8,14.8L63.8,14.8z
	 M47.2,16.2V16l0.2-0.2V16L47.2,16.2z M47.7,16.5v-0.2h-0.2l0.2-0.2v0.2h0.2v0.2H47.7z M62.8,16.5h-0.2v-0.2L62.8,16.5z M45.8,16.5
	L45.8,16.5z M47.2,16.5L47.2,16.5z M29.2,50.5H29v-1.4h0.2v-1h0.2v-0.5h0.2v-0.2l-0.2-0.2v-0.2H29v-0.2h-0.3v0.2l-0.2-0.2h-0.2
	L28,46.5v-0.2L27.7,46v0.2l0,0V46l0,0l-0.2-0.2h-0.2L27,45.5l-0.2-0.2L26.5,45h-0.2v-0.2h-0.2v-0.2h-0.2v-0.2h-0.2v-0.7h0.2v-0.5
	h0.2v-0.2h0.2v-0.2h0.2v-1.2l0.2,0.2v-0.2h-0.2l0,0h0.2l-0.2-0.2h0.2l-0.2-0.2v-0.2l0,0v-0.2h-0.2v0.2h-0.2v-0.2h0.2v-0.2h0.2V40
	l0,0l-0.2-0.2h0.2l0,0h-0.2l0,0h-0.7l0,0h-0.2v-0.3h-0.7v0.2h-0.5L23.9,40v0.2h-0.2l-0.2,0.2l-0.2,0.2h-0.5V41h-0.2v0.2H22v0.2h0.2
	v0.5h0.2l-0.2,0.2l0,0v0.2h0.5l0.2,0.2v0.2h0.2v1H23v0.2l0,0v0.2h0.2V45h0.2v0.5h-0.2v0.2L23,46v1.4h0.2v0.5H23v0.5h0.2v0.2H23v0.5
	h0.2v1h0.2l0.2,0.2h-0.2v0.2l-0.2,0.2v0.5h-0.5v0.2l0,0v0.2l0,0V53l0.2,0.2v0.5h0.2l0.2,0.2v0.5h0.2v1l0,0v-0.3h-0.5v-0.5h-0.2v0.2
	h-0.7v0.2h-0.7l-0.2-0.2H21l-0.2,0.2v0.2h-0.2v0.2h-0.2l-0.2,0.2v-0.2h-0.7l0.2-0.2h-0.7v-0.5h-0.2l-0.2,0.2l0,0v-0.5h-0.2v-0.2
	h-0.2v-1.2l0,0l0.2-0.2v-0.2l0.2-0.2V52h0.2v-0.5l0,0v-0.7l0,0v-0.5h0.2v-0.5h0.2v-0.2l0,0l-0.2-0.2h0.2v-1.2h-0.2v-0.2h0.2v-1.2
	l0,0v0.2h-0.2v-0.5h-0.2V46l-0.2-0.2v-0.5h-0.2V45h0.2v-0.7l-0.2-0.2h-0.2v-0.2h-0.7v0.2h-0.7v0.2h-0.2v-0.2H16v0.2h-0.2l0,0h-0.3
	l0,0h-0.2v-0.2H15l0.2-0.2H15v-1l-0.2-0.2v-0.5h-0.2v-0.2H15v-1.2h-0.5v-0.2l-0.2-0.2h0.2v-0.5h0.2l0,0h0.5l0.2-0.2h0.2v-0.2H16V39
	l0,0v-0.2h0.5v-0.5l-0.2-0.2v-0.2l0,0v-0.2h0.2v-0.5h0.2v-1h0.5v-0.2h0.2v-0.2l0.2-0.2h-0.2v-0.5h-0.2v-0.7h0.2V34h-0.2v-0.2l0,0V33
	l0.2-0.2h-0.2V32h0.2v-0.2h0.2v-0.2h0.2v-0.2h0.2v-0.5l0.2-0.2v-0.5h0.5v-0.2h0.2v-0.5h0.2v-0.2h0.2v0.5h0.2v0.5h0.2v0.2l0.2-0.2
	v-0.2h-0.2v-0.5h-0.2v-0.7l-0.2-0.2v-1.2l0.2-0.2v-0.7h-0.2v0.2h-0.2v-0.2h-0.2v-0.2h-0.2v-0.2h0.2v-0.2h0.2v0.2h0.2v0.5h0.5v-0.5
	h0.2v-0.2l-0.2-0.2h0.2l-0.2-0.2l-0.2-0.2v-0.2h-0.2l0.2-0.2l0.2,0.2h0.2v-0.5h-0.2v-0.5h0.2v-0.5H21V22h0.2v-0.2H22v-1l0.2-0.2h0.5
	v0.2h-0.2v0.5h0.2l0,0l0.2,0.2h0.7v0.2h0.2V21h0.2v-0.2h0.2v-0.2h0.2v-0.2h0.5v-0.2l0,0v-0.2h-0.2v-0.2h0.2v-0.7l-0.2-0.2h0.2v0.2
	h0.2v-0.2l0,0v0.2h0.2v-0.2h0.7v0.2h0.5l0.2,0.2h0.2v0.2h0.2v-0.2h0.7v-0.2h0.2v0.2h-0.2v0.5h0.2v0.2l0.2,0.2H29l0.2,0.2v-0.2
	l0.2,0.2v-0.2h0.2l0,0h1l0.2-0.2v0.2h0.2v0.2h0.5v-0.2h0.2v0.2h0.5l0,0l0,0v0.2h0.2l0,0h0.2v-0.2H33l0.2,0.2l0,0h0.2v-0.2h0.2v0.2
	h0.7l0,0l0.2,0.2l0.2,0.2h0.2v0.2h0.2l0,0h0.2v0.2h0.2v-0.2h0.2V21h0.2v-0.5h0.2v0.2h0.7V21h0.2v-0.2h0.2l0,0H38V21h0.2l0,0h0.2l0,0
	h1.2l0.2,0.2h0.5l0,0h0.2l0,0h0.7l0.2-0.2h0.2l0.2-0.2h0.5v-0.2h0.7V20h0.2v-0.5h0.2v-0.2h1l0,0H45v-0.2h-0.2l0,0h-0.2v-0.7H45l0,0
	h0.5v-0.2h0.2v-0.2H46l0,0l0.2-0.2H46v-0.5h0.2l0.2-0.2l0.2-0.2v-0.2H47v0.5h0.7v-0.2l0.2,0.2h-0.2v0.5h0.2l0.2,0.2v0.5h-0.5v0.2
	h-0.2v0.5l-0.2,0.2v0.7H47v0.2l-0.2,0.2l-0.2,0.2l-0.2,0.2H46V21h-0.5v0.2h-0.2v0.2L45,21.7V22l0,0l0,0h-0.2l0.2,0.2h-0.2v0.5h-0.2
	v0.5h-0.2v0.2h-0.7l0,0h-0.2v0.2h-1.2v0.2h-0.2l0,0h-0.7v0.2h-0.2l0,0H40v0.2l-0.2-0.2H39l0,0h-1l-0.2-0.2l-0.2-0.2h-0.2v-0.2
	L37,23.2V23h-0.2v0.2h-1.9V23h-0.2v0.2h-0.2l0,0h-0.2l0,0H34l0,0h-0.2V23l-0.2,0.2V23h-0.2v0.2h-1.7l-0.2,0.2h-0.2l0,0h-0.7
	l-0.2,0.2v-0.2h-0.2V23h-0.7l0,0h-0.2v-0.3h-0.2v0.5h-1.5l0,0L27,23.4l0,0h-0.5v0.2h-0.2v-0.2h-1l-0.2-0.2l0,0h-0.5v-0.2h-1.2
	l-0.2,0.2h-0.4v0.2h-0.2v0.2h-0.2v0.2L22,24.1v0.2l-0.5,0.2v0.7l-0.2,0.2v0.5H21v0.5h-0.2v0.7H21V28h0.2v0.2H21v0.5h0.2v0.7h0.2v0.5
	h0.2v0.2H22l0.2,0.2l0,0v0.2h0.2v0.2l0.2-0.2h0.5v0.2h0.2l0.2,0.2v0.2h0.2v1l0.2,0.2v0.2l0.2,0.2v0.2l0.2-0.2h0.2v-0.2h0.5V33h1v0.2
	h0.2l0.2-0.2l0.2-0.2v-0.5h0.2v-0.2l0.2-0.2v-0.2h0.2v-0.2l0.2-0.2l0,0l0.2-0.2h0.2v-0.5h0.2l0.2-0.2h0.2v-0.2h0.5v0.2h-0.2v0.2
	l0.2,0.2h0.2l0.2,0.2v-0.2h0.2v0.2h0.7v-0.2h1v-0.5h0.2l-0.2-0.2h0.5v-0.2h0.2v0.2H33v-0.2h1l0,0h0.2v0.2h0.2v-0.2h0.2v0.2h0.7v-0.2
	h0.7v-0.2h-0.7l-0.2-0.2h0.5v-0.2h0.7l0,0h0.2l0.2-0.2h1.2l0.2,0.2h0.2v0.2h0.2v0.2H39l-0.2,0.2H39v0.2h-0.2v0.2l0,0v0.5l-0.2,0.2
	v0.2h-0.2v0.2h-0.2v-0.2h-0.2v-0.2h-0.2v-0.2h-0.2v-0.5h-0.5v0.2h-0.5l-0.2,0.2l0,0h-0.5l-0.2,0.2l0,0v0.2l-0.2,0.2v0.2h-0.2v0.2
	h-0.2v0.5h-0.2v0.2h-0.2v0.2H34V33h-0.2v0.2h-0.3v0.2l-0.2,0.2H33L32.8,34h-0.2v0.2h-1.2v0.2h-0.2v0.2h-0.2v-0.2h-0.2v0.2h-0.2v0.2
	l-0.2,0.2v0.2l-0.2,0.2v0.2h-1v-0.2h-0.2v-0.2l-0.2,0.2v-0.2l0,0v-0.2H28v-0.2h-0.2v0.5H28v0.2l0,0l-0.2,0.2H28v0.2h0.2L28,35.9h0.2
	l0,0h0.2v0.2h0.2v0.5H29v0.5h0.7l0.2,0.2h0.2v0.2l0.2,0.2h0.2v0.5l0.2,0.2h0.2V39h0.2v0.5h0.2V40l0.2,0.2v0.2h0.2l0,0h0.2l0.2,0.2
	l0,0V41h0.7v0.2H33v0.2h-0.2v0.2H33l0.2,0.2v0.2h0.5v0.2H34v-0.2l0,0v0.2h-0.2v0.5l-0.2-0.2v0.2h-0.2l0.2-0.2h-0.2v0.2H33v0.5h0.5
	v0.5h-0.2v-0.5h-0.5v0.5H33v0.2l0,0v0.2h-0.5v0.5h0.2V45h0.5v0.2h0.2l0,0h0.2v0.2H34v0.2h0.2v0.5H35v0.2h-0.3v0.2l-0.2-0.2v0.2h0.5
	v0.2l0,0v0.2l0.2,0.2l0,0l0.2,0.2l-0.2-0.2h0.7v-0.2h-0.2v-0.2h0.2l0.2,0.2v0.2h0.2v0.7h-0.2v0.2h0.2v0.5h-0.2v0.2h-0.2v-0.2h-0.2
	v-0.2h-0.2l-0.2-0.2v0.5h0.5v0.5h-0.2v-0.2h-0.2l0,0h-0.2v-0.2h-0.5v0.2H34l-0.2-0.2v0.2h-0.5v0.2h-0.5l0,0h-0.2v0.2h-0.5v0.2
	l-0.2,0.2v0.7h0.2V51l0,0v0.2h-0.2v0.2h-0.2l-0.2-0.2h-0.5V51h-0.2l0,0l-0.2,0.2V51l-0.2,0.2h-0.3V51h-0.2v-0.2h-0.5L29.2,50.5z
	 M62.8,16.5L62.8,16.5z M45.5,16.7L45.5,16.7z M63,16.7L63,16.7z M45.7,16.7h-0.2v-0.2h0.2L45.7,16.7z M60.1,16.9L60.1,16.9
	L60.1,16.9z M47.1,16.7L47.1,16.7z M60.1,16.9L60.1,16.9z M63,16.9L63,16.9z M45.2,17.2v-0.2h0.2v0.2H45.2z M46,17.2L46,17.2z
	 M45.7,17.2L45.7,17.2z M63,17.4L63,17.4L63,17.4z M48.4,18.1v0.2h-0.5v-0.2h0.2v-0.2h0.2L48.4,18.1L48.4,18.1z M25.4,18.4
	L25.4,18.4z M54.4,18.9h-0.2v-0.2h0.2V18.9z M62.8,18.9L62.8,18.9L62.8,18.9z M22.9,20.3h-0.2v-0.2h0.2L22.9,20.3z M24.1,20.1
	l0.2,0.2h-0.2V20.1L24.1,20.1z M31.1,20.3L31.1,20.3z M24.7,20.5h-0.2v-0.2h0.2V20.5z M22.7,20.5L22.7,20.5z M53,20.5h0.2v0.2H53
	V20.5z M46.7,20.5L46.7,20.5z M35.4,21h-0.2v-0.2h0.2V21z M59.2,21L59.2,21z M35.9,21h0.2l-0.2,0.2V21z M60.1,21L60.1,21z
	 M60.4,21.2L60.4,21.2z M45.7,21L45.7,21z M59.4,21.7h-0.2v-0.5h0.5v0.5H59.4z M64.4,21.5L64.4,21.5z M45.2,21.5L45.2,21.5z
	 M64,21.5L64,21.5z M64.7,21.5v0.2h-0.2v-0.2H64.7z M45.3,21.7L45.3,21.7z M64.5,21.7l-0.2-0.2h0.2V21.7z M59.7,21.7h0.2v0.7h-0.5
	V22h0.2L59.7,21.7z M59.7,22h-0.2v-0.2h0.2V22z M69,22.2L68.8,22H69L69,22.2z M65.7,22.5L65.7,22.5L65.7,22.5z M66.2,22.5L66.2,22.5
	z M66.4,22.7L66.4,22.7z M67.4,23.2v-0.2h-0.3v-0.2h0.2L67.4,23.2L67.4,23.2z M20.1,22.9L20.1,22.9z M29.7,23.2L29.7,23.2z
	 M34.3,23.2L34.3,23.2z M60,23.4h-0.2v-0.2H60V23.4z M67.6,23.2L67.6,23.2z M59.7,24.2h-0.2v-0.3l0.2-0.2H60v0.5L59.7,24.2z
	 M68.1,24.9h-0.2v-0.2L68.1,24.9z M58.5,24.9L58.5,24.9z M58.3,24.9L58.3,24.9z M58.8,24.9L58.8,24.9z M60,25.1v0.2l0.2,0.2h-0.3
	v0.2l0,0v-0.2h-0.2v-0.5L60,25.1L60,25.1L60,25.1z M19,25.4L19,25.4z M60.2,25.6L60.2,25.6z M69.8,25.6H70v0.2h0.2l0.2,0.2v0.2H71
	v0.2h0.2v0.2h-0.5v-0.2l0,0v-0.3h-0.2l-0.2-0.2L70,25.8v-0.2L69.8,25.6z M71.5,25.9L71.5,25.9z M71.5,25.9v0.2h-0.2v-0.2H71.5z
	 M58.8,25.9L58.8,25.9z M59.8,26.3v-0.5H60v0.2h-0.2V26.3z M58.8,25.9L58.8,25.9z M60.2,26.1L60.2,26.1z M60.2,26.1L60.2,26.1z
	 M59,26.1v0.2l-0.2,0.2v-0.3L59,26.1z M29.5,26.3v0.5h-0.2v-0.2l0,0v-0.3L29.5,26.3z M58.3,26.8L58.3,26.8V27H58v-0.2L58.3,26.8z
	 M32.9,26.8V27h0.5v0.5L33,27.3V27h-0.5v-0.2L32.9,26.8z M32.3,27h0.2v0.2L32.3,27h-0.2l0.2-0.2V27z M31.8,27L31.8,27z M58,27v0.2
	h-0.2V27H58z M32.1,27L32.1,27z M58.9,27v0.2l0,0v0.5h0.2L58.9,28v0.2l0,0v0.2h-0.7v-0.2l0,0v-1l0.2-0.2L58.9,27L58.9,27z
	 M31.8,27.2v0.2h0.2V28l-0.2-0.2V28h-0.2l0.2-0.2h-0.2v-0.5L31.8,27.2L31.8,27.2L31.8,27.2z M31.3,27.2L31.3,27.2z M60.3,27.5h0.5
	V28h0.2l0.2,0.2h-0.2v0.2l-0.2,0.2v0.5h0.2v0.2h1.2v0.7h-0.2v0.2h-0.7v-0.2h-0.2v-0.5h-0.2v0.2h-0.7l0,0h-0.2v-0.5l0.2-0.2h-0.2V29
	h-0.5v-0.5h-0.2V28l0.2-0.2v-0.3h0.2l0.2,0.2V28h0.2v-0.5L60.3,27.5L60.3,27.5L60.3,27.5z M31.1,27.5h0.5V28h-0.2l0,0h-0.7v-0.5h0.2
	l0,0L31.1,27.5z M61.5,27.7L61.5,27.7z M30.5,27.5L30.5,27.5z M59.8,27.7L59.8,27.7z M30.8,28v0.5h-0.2v-0.2h-0.2v0.2h-0.2v-0.2
	l-0.2,0.2l0,0l-0.2,0.2h-0.2v-0.2h0.2v-0.2h0.2V28h0.2l0,0h0.5l0,0L30.8,28z M30.3,28L30.3,28z M34.4,28.2l-0.2,0.2v-0.2H34.4z
	 M59.1,28.4L59.1,28.4z M64.7,28.7v-0.2h0.2v0.2l-0.2-0.2V28.7z M59.1,28.7L59.1,28.7z M58.9,28.7h-0.2v-0.2h0.2L58.9,28.7z
	 M64.7,28.7L64.7,28.7z M64.9,28.7L64.9,28.7z M65.1,28.9L65.1,28.9z M29.4,28.7L29.4,28.7z M65.4,28.9L65.4,28.9z M65.7,28.9
	L65.7,28.9z M59.4,28.9h0.2v0.2h-0.2V28.9z M58.9,29.2h0.2v0.7h-0.7v-0.5h0.2v-0.5h0.2L58.9,29.2z M35.2,28.9L35.2,28.9z M59.4,29.2
	h-0.2v-0.2h0.2V29.2z M59.4,29.2L59.4,29.2z M30.1,29.7L30.1,29.7z M63.7,29.9l-0.2,0.2v-0.2H63.7z M39,30.1L39,30.1z M63.5,30.4
	l-0.2-0.2h0.2V30.4z M64.5,30.6h0.2v0.2H65l0.2,0.2h-0.5v-0.2h-0.2L64.5,30.6z M64.7,31.1L64.7,31.1z M64.2,31.3H64v-0.2L64.2,31.3z
	 M64.2,31.3L64.2,31.3z M65.2,31.3v0.2h-0.5v-0.2H65.2L65.2,31.3z M65,31.6L65,31.6z M60,32.1h-0.2v-0.5H60V32.1z M65.3,31.8
	L65.3,31.8z M38.2,31.8L38.2,31.8z M37.7,31.8v0.2h0.2v0.2h-0.2v0.5h0.2V33h0.2v-0.5h0.2v-0.2h0.2v-0.2h0.2v0.2h0.7v1h-0.2v0.2H39
	v0.2h-0.2l-0.2-0.2l0,0h-0.2v-0.2h-0.2v0.5h-0.2V34h0.2v0.2l-0.2,0.2v-0.2h-0.7V34h0.2v-0.2h0.2V33h-0.2l0.2-0.2h-0.2v-0.2l0,0
	l-0.2,0.2V33h-0.2v0.5h-0.2v0.2h-0.2V34l0,0l-0.2,0.2h-0.2v-0.5h-0.2v-0.3h-0.2v-0.2h0.2v-1h0.2V32h0.2v-0.2l0.2,0.2l0,0h0.5v-0.2
	h0.5V32h0.2L37.7,31.8z M60.7,31.8v0.2h0.7v0.5h-0.5v-0.2h-0.7v-0.2h0.2v-0.2H60.7z M38.4,32.5l-0.2-0.2v-0.2l0.2-0.2
	C38.4,31.8,38.4,32.5,38.4,32.5z M59.7,32.5H60v0.2h-0.2V32.5z M61.2,32.8h0.5V33h0.2v0.2h0.7v0.2h0.2v0.2H63l0.2,0.2h0.5v0.7h-2.6
	v0.2l-0.2-0.2v0.2h-0.5l-0.2-0.2h-0.2v-0.2h-0.2v-0.7h0.2v-0.5h0.5V33h0.2v-0.2L61.2,32.8L61.2,32.8z M59.4,33L59.4,33h0.2v0.2h-0.5
	v-0.5L59.4,33z M39.5,33.5v0.7h0.2l0,0l0,0v0.2l0,0v0.2h-0.5v-0.2H39l0.2-0.2V34H39l0.2-0.2l0,0h0.2L39.5,33.5L39.5,33.5L39.5,33.5z
	 M59.7,33.7L59.7,33.7z M35.4,33.7L35.4,33.7z M66.1,33.7L66.1,33.7z M66.9,33.7L66.9,33.7z M39,33.7L39,33.7z M63.5,34L63.5,34z
	 M44.5,34v0.2h-0.2V34H44.5z M64.7,34.5h-0.2v-0.2h0.2V34.5z M44.5,34.5h0.2v-0.2l0.2,0.2v-0.2h0.2l0.2,0.2h1v0.2h0.7V35h0.5v-0.3
	h0.5v0.5h0.2v-0.5h0.2v0.5h0.2v0.5h-1.7v0.2h-0.7v-0.2H46v0.2h-0.5v0.2h-0.7v0.2l-0.2-0.2l0,0v0.2h-0.5v-0.5h-0.2l-0.2-0.2v-0.2h0.2
	l-0.2-0.2h0.2v-0.7L44.5,34.5l0-0.3h0.2L44.5,34.5z M38.7,34.7h-0.2V35h-0.2v0.2h-0.2V35l0.2-0.2h0.2v-0.2h0.2L38.7,34.7z
	 M43.7,34.7L43.7,34.7z M37,34.7L37,34.7z M39.4,35L39.4,35z M42.8,35v0.2h-0.2V35H42.8z M43.5,35L43.5,35l-0.2,0.2V35H43.5z
	 M50,35.2V35l0,0V35.2z M37.3,35v0.7h-0.2l0,0l0,0v-0.2l0,0V35H37.3z M49.7,35L49.7,35z M49.3,35.2h1.2l0,0l0.2,0.2v-0.2h3.2l0,0
	l0.2,0.2l0,0h-0.2l-0.2,0.2v-0.2h-0.2v0.2h-1.2L52,35.9l-0.2-0.2h-0.5v0.2h-1.9v-0.2l0,0l-0.2-0.2v0.2h-0.2v-0.5h0.2l0.2-0.2
	L49.3,35.2z M54.8,35.2v0.2h-0.5v-0.2H54.8z M42.1,35.7h-0.2v-0.2h0.2L42.1,35.7z M61.1,35.4h-0.2v-0.2L61.1,35.4z M28.2,35.4
	L28.2,35.4z M40.2,35.4h0.2v0.2h-0.2V35.4z M38.5,35.7l0.2-0.2v0.2H38.5L38.5,35.7z M40.7,35.7L40.7,35.7z M40.9,35.7v0.2h0.2v0.2
	h-0.2l0,0h-0.2v-0.5L40.9,35.7z M40.2,35.9L40.2,35.9z M40.2,35.9H40v-0.2L40.2,35.9z M40.4,35.9L40.4,35.9L40.4,35.9z M28,35.9
	v-0.2l0,0V35.9z M40.7,35.9L40.7,35.9z M39.5,35.7L39.5,35.7z M29.9,35.9L29.9,35.9z M39.3,35.9L39.3,35.9z M43.6,36.1l0.2-0.2v0.5
	h-0.2V36.1z M52,36.1h0.2l0.2,0.2v0.2h-0.2v0.7l0.2,0.2v0.2l0.2,0.2v0.2H53v0.2l-0.2,0.2l-0.2-0.2h-0.2v-0.7H52v-0.5h-0.2v-1.2
	L52,36.1z M40.7,36.4L40.7,36.4z M40.7,36.4L40.7,36.4z M41.4,36.4v0.2h-0.2v-0.2H41.4z M44.1,36.4h-0.2v0.2l0,0v-0.2H44.1z
	 M40.7,36.9l-0.2-0.2h0.2V36.9z M41.4,36.9L41.4,36.9z M40,36.9L40,36.9z M37.6,37.3L37.6,37.3z M16.2,38.5v-0.2l0.2,0.2L16.2,38.5z
	 M15.2,39.7H15v-0.2h0.2L15.2,39.7z M26.2,39.7L26.2,39.7z M68,40.2L68,40.2z M70.9,40.5h0.5l0.2,0.2h0.5l0.2,0.2v0.2h0.2v-0.2l0,0
	v0.2H73v0.2h2.4l0.2,0.2l0,0H76v0.2h0.2l0.2,0.2h0.2v1l0.2,0.2v0.2h0.7v0.2l0,0v0.2l0.2,0.2h0.2v0.5h-0.3V46h-0.5v-0.2L77.2,46v-0.2
	h-0.5v-0.3l-0.2-0.2H76V45h-0.2v-0.2h-0.5v-0.2h-0.7v-0.2h-0.5v-0.2h-0.5l-0.2-0.2v-0.2l-0.2-0.2h-0.5v-0.2h-0.5l0,0H71v0.2l0.2,0.2
	v0.2L71,44.1v-0.2h-0.5v-0.2h-1.2L69,43.3h-1.2v-0.2H68v-0.5h-0.7v0.2h-0.2v0.2h-0.2l-0.2,0.2v0.5h-1.4v-0.2h-0.2v-0.2l-0.2-0.2
	v-0.2h-0.2v-0.2h-0.7v-0.5H64v-0.2h-0.5v0.5h-0.2v1H63v0.2h-0.2v0.7h-0.2v-0.7l0.2-0.2h-0.2v-0.3l-0.2-0.2v-0.5l0,0l0.2-0.2h0.2
	v-0.2h0.7v-0.5h-0.2v-0.2h0.5v-0.5H68v-0.2h0.5v0.7h0.2v0.2l0.2-0.2h0.5v-0.2H70v-0.2h0.2v-0.2L70.9,40.5L70.9,40.5L70.9,40.5z
	 M62.5,41.2h0.2v0.5H62l0.2-0.2v-0.2L62.5,41.2C62.5,41.2,62.5,41.2,62.5,41.2z M62.2,41.2L62.2,41.2z M63.2,41.7L63.2,41.7z
	 M33.2,41.4L33.2,41.4z M33.7,41.7L33.7,41.7z M33.5,41.7L33.5,41.7z M34.2,41.7v0.2H34v-0.2H34.2z M56,41.7v0.2l0.2-0.2l0.2,0.2H57
	v0.2h0.7v0.2H58l0.2,0.2v0.2l0,0l0,0H58v0.2h0.2v0.2l0.2,0.2v-0.2h0.7v1.2L59,44.8V45h-1v0.2h-0.2v0.2H57l-0.2,0.2h-0.2V46H56v-0.2
	h-0.7v-0.3h-0.5v-0.2h-0.5V45h-0.5v-0.2h-0.2l-0.2-0.2v-0.2h-0.2v-0.2h-0.2v-0.2h-0.2v-0.5h-0.2v-1h0.2v-0.2h0.2v-0.2l0.2,0.2v0.2
	h0.5v-0.2h0.2v-0.2h2.2L56,41.7z M34,41.9L34,41.9z M62.1,42.4h-0.2v-0.2L62.1,42.4z M61.8,42.4v0.5h-0.5l-0.2-0.2l0.2-0.2
	C61.4,42.4,61.8,42.4,61.8,42.4z M52.5,42.9L52.5,42.9z M60.6,42.9h0.2v0.2h0.2v0.2h-0.7v-0.5L60.6,42.9z M33.5,42.9L33.5,42.9z
	 M77.7,43.1L77.7,43.1z M33.5,43.1L33.5,43.1z M34,43.8v0.2h-0.2v-0.2h-0.3v-0.2h0.2v0.2H34z M17.9,43.8L17.9,43.8z M37.4,44.1
	l-0.2,0.2v-0.2H37.4z M66.9,44.3v0.5h-0.2v-0.2h-0.2v0.2l-0.2-0.2l0,0v-0.2h-0.3v-0.2h0.2l0.2,0.2h0.2v-0.2h0.2L66.9,44.3z
	 M64.5,44.1h0.2v0.5H65v0.2h-0.5v0.5h-0.2v0.2h-0.7l0,0h0.2v-0.2H64V45h0.2v-0.2H64V45h-0.2l-0.2,0.2h-0.2v0.2H63l-0.2,0.2v-0.2
	h-0.2V45h0.2v-0.2H63v-0.2h1v-0.2h0.2v-0.2L64.5,44.1z M66.4,44.3L66.4,44.3z M65.4,44.3h0.5v0.5h-0.7v-0.7h0.2V44.3z M33.2,44.3
	h0.2v0.2H33v-0.2L33.2,44.3z M37.8,44.5v0.2h-0.7v-0.2h0.2l0.2-0.2v0.2H37.8z M66.1,45L66.1,45z M67.1,45L67.1,45L67.1,45h-0.2
	l0.2-0.2V45z M59,45.7V46h0.2v0.2h-0.5V46l0,0v-0.2L59,45.7z M78.4,46.2L78.4,46.2z M81.1,47.2V47h-0.2v-0.5H81V47l0.2,0.2H81.1z
	 M34.7,46.7L34.7,46.7z M37.3,46.9h0.2v-0.2h0.2l0.2,0.2l0.2,0.2h-0.2v0.5h-0.2v0.2l-0.2,0.2h-0.2l-0.2-0.2h-0.2v-0.2h-0.2v-0.7h0.2
	v-0.2h0.2L37.3,46.9z M80.1,46.9l-0.2-0.2h0.2V46.9z M35.7,46.7L35.7,46.7z M27,46.9L27,46.9z M80.8,47.4L80.8,47.4h-0.5v-0.2h0.2
	v0.2H80.8z M28.4,47.4h0.2l0,0l0,0v0.2h-0.2V47.4l-0.2-0.2h0.2V47.4z M28.9,47.7v0.2h-0.2L28.9,47.7z M37.3,48.7v0.2h-0.2l0.2,0.2
	v0.2l0.2-0.2v0.2l0.2,0.2v0.2h0.2v0.2h-0.2l0,0l0.2,0.2v1h-0.2v-0.5h-0.2v-0.2h-0.2l0.2,0.2h-0.2l0,0h-0.2V51h-0.2v0.2h0.2v0.2h-0.2
	V52l0,0v0.7L36.6,53v0.2h0.2v-0.5h0.5v0.2h0.2v0.2h0.2l0.2,0.2v0.2h-0.2v0.2l-0.2,0.2h-0.5l-0.2-0.2v0.2h-0.5v0.2l-0.2,0.2h0.5v0.2
	l-0.2,0.2v0.2h-0.2v0.2h-0.2v-0.2h-0.2l0,0l-0.2,0.2h-0.2l-0.2-0.2l0,0v-0.5h-0.2v-0.5h0.5v-0.2h-0.2l0.2-0.2v-0.2h0.2v-0.2l0.2-0.2
	v0.2l0.2-0.2l0,0h-0.2v-0.7h0.2V52l-0.2,0.2V52h0.2v-0.2l0.2-0.2v-0.2h-0.2V51h0.2v-1.7h0.2v-0.2h0.2v-0.2h0.2v-0.2L37.3,48.7
	L37.3,48.7z M82,48.9h-0.2l0,0H82z M82.5,49.6h-0.2v-0.5H82l0,0h0.2v0.2h0.2L82.5,49.6z M73.1,49.6L73.1,49.6z M72.9,49.6v-0.2
	l0.2,0.2H72.9z M73.4,49.6l-0.2,0.2v-0.2H73.4L73.4,49.6z M35.4,49.6L35.4,49.6l0.2,0.2h-0.2V49.6h-0.2l0.2-0.2V49.6z M72.4,49.6
	L72.4,49.6z M35.2,49.8L35.2,49.8L35.2,49.8z M33.6,49.8L33.6,49.8z M35.5,50.1L35.5,50.1v0.5h0.2V51h-0.2l0.2,0.2v0.5h-0.2V52
	l-0.2,0.2H35V53l0,0v0.2h-0.3v0.2l0.2-0.2l0.2,0.2v0.5h-0.2v0.2h-0.2v0.2h-0.2v-0.5l0.2-0.2h-0.2v-0.2l0,0l0,0h-0.2v0.2h0.2v0.2
	h-0.2v0.2H34v-0.2l-0.2-0.2l0,0v0.2l-0.2,0.2h-0.2v-1l0,0v-0.2h0.2l-0.2-0.2h0.2v-0.2h0.2v-0.7h-0.3v-0.5L33.2,51h0.2v-0.5h1v-0.2
	h0.2v-0.2h0.5l0,0L35.5,50.1z M33.3,50.1v-0.2h0.2L33.3,50.1z M33.3,50.3v-0.2l0,0V50.3z M33.6,50.1L33.6,50.1z M33.3,50.1
	L33.3,50.1z M33.3,50.1L33.3,50.1z M34,50.3L34,50.3z M33.6,50.3v0.2l0,0V50.3C33.6,50.3,33.6,50.3,33.6,50.3z M33.6,50.3L33.6,50.3
	z M33.3,50.5L33.3,50.5z M15.8,50.5L15.8,50.5z M18.4,50.5L18.4,50.5z M82.8,50.8L82.8,50.8z M29.2,50.5L29.2,50.5z M37.6,50.8
	L37.6,50.8z M37.9,50.8L37.9,50.8z M37.6,50.8v0.5L37.3,51l0,0l0,0v-0.2L37.6,50.8z M33.3,51.3L33.3,51.3z M32.1,51.5h-0.2l0.2-0.2
	V51.5z M33.6,51.7L33.6,51.7z M32.6,52L32.6,52z M10.5,52.2L10.5,52.2z M31.4,52.2v0.2l0,0V52.2h0.2v0.5l0.2,0.2l0,0h0.2v0.2l0,0
	v0.5l-0.2,0.2h0.2v0.5h-0.5l0,0h-0.2v-0.2h-0.2v-0.2l-0.2-0.2v-0.2h-0.2v-0.2h0.2v-0.5l0,0v-0.2h0.2l0,0l0,0v-0.2L31.4,52.2z
	 M23.4,52.5L23.4,52.5z M11.7,52.7L11.7,52.7z M84.2,52.9L84.2,52.9z M9,53.2L9,53.2z M35.6,52.9L35.6,52.9z M35.4,53.4L35.4,53.4z
	 M10.2,53.4L10.2,53.4z M40,53.2v0.2h0.2v0.5h-0.5v-0.5H40V53.2z M30.6,53.4L30.6,53.4z M90.2,53.4h0.2v0.5h-0.2v1h-0.3v0.5h-0.5
	v0.2l-0.2,0.2v0.5l0,0v0.2h-0.2v0.2L88.7,57l-0.2,0.2V57h0.2v-0.7h0.2v-0.7h0.2v-0.2h0.2v-0.5h0.2v-1h0.2v-0.5L90.2,53.4z
	 M32.1,53.7L32.1,53.7z M84.2,53.7v0.2h-0.3v-0.2H84.2z M39.8,53.9h-0.3v-0.2L39.8,53.9z M44.1,53.7L44.1,53.7z M30.6,53.9h-0.2
	v-0.2h0.2V53.9z M10.7,54.1h-0.2v-0.2L10.7,54.1z M40.2,53.9h0.2l-0.2,0.2V53.9z M40.2,54.1H40v-0.2h0.2L40.2,54.1z M40.2,54.1
	L40.2,54.1z M35.2,54.1L35.2,54.1z M88,54.4h-0.2v-0.2L88,54.4z M41.2,54.4L41.2,54.4z M40.8,54.4l0.2,0.2h0.2v0.2h0.2l-0.2,0.2
	L41,54.9v-0.2h-0.3L40.8,54.4z M88,54.6L88,54.6z M32.3,54.6L32.3,54.6l-0.2-0.2h0.2V54.6z M32.1,54.6h-0.2l0,0H32.1z M14.3,54.6
	L14.3,54.6z M34.5,54.9h-0.2v-0.2h0.2V54.9z M17.7,54.6v0.2h-0.2v-0.2H17.7z M88.2,54.9L88.2,54.9v0.5l0.2,0.2h-0.2l0,0H88v-0.2l0,0
	v-0.5H88.2C88.2,54.9,88.2,54.9,88.2,54.9z M85.8,54.9h0.2v0.2h-0.2V54.9h-0.2l0.2-0.2V54.9z M88,54.9L88,54.9z M41.7,54.9
	L41.7,54.9z M41.7,55.1h-0.2v-0.2h0.2V55.1z M60.4,55.1L60.4,55.1z M87.8,55.1L87.8,55.1z M88,55.1L88,55.1z M41.4,55.1L41.4,55.1z
	 M85.6,55.1L85.6,55.1v0.2l0.2-0.2v0.2h-0.2V55.1C85.6,55.1,85.6,55.1,85.6,55.1z M87.8,55.1v0.2H88v0.5h0.2v0.5h0.2v0.2h-0.2V57H88
	v-0.2h-0.2l0,0h-0.3l0.2-0.2l0,0V56l0,0v0.5l0.3-0.2h-0.2v-0.5h-0.3v-0.5l-0.2-0.2h0.2v0.2h0.2L87.8,55.1z M85.8,55.3L85.8,55.3z
	 M88,55.3L88,55.3z M34.7,55.3v0.2h-0.2v-0.2H34.7z M23.7,55.3L23.7,55.3L23.7,55.3z M85.6,55.6L85.6,55.6z M87.3,55.6L87.3,55.6z
	 M85.4,55.6L85.4,55.6z M88,55.8L88,55.8z M42.2,56.1h-0.3l-0.2-0.2h0.5l0.2,0.2H42.2z M85.2,56.1L85,55.8h0.2V56.1z M88.3,56.1
	L88.3,56.1z M88.3,56.1L88.3,56.1z M24,56.1L24,56.1z M42,56.1L42,56.1z M24.2,56.3V57l0.2,0.2v1h-0.2v0.2h0.2v0.2l0,0V59h-0.2v1
	h-0.3v-1.5h-0.2V58h0.2v-0.2h-0.2v-1.7h0.2v0.2L24.2,56.3z M42,56.3L42,56.3z M87.4,56.3L87.4,56.3z M87.4,56.5L87.4,56.5z
	 M87.1,56.5L87.1,56.5z M42.7,57.5v-0.2h-0.2V57h-0.2v-0.5h0.2v0.2h0.2v0.5H43L42.7,57.5z M87,56.8h-0.2v-0.2H87l-0.2,0.2H87z
	 M86.5,57.3v0.2h-0.2v-0.2H86.5z M45.5,58L45.5,58z M23.7,58.5l-0.2-0.2l0.2-0.2C23.7,58,23.7,58.5,23.7,58.5z M35.7,58.2v0.2h-0.2
	v-0.2H35.7z M73.6,59L73.6,59z M73.8,59L73.8,59z M23.7,60L23.7,60z M26.8,60L26.8,60z M15.5,60.4L15.5,60.4z M23.9,60.7h-0.2v-0.2
	h0.2V60.7z M15.7,60.4L15.7,60.4z M23.9,60.9L23.9,60.9h-0.2v-0.2h0.2V60.9z M82.2,60.9v0.2L82,60.9v0.5h-0.2v-0.2l0.2-0.2v-0.2
	L82.2,60.9z M71.2,61.2L71.2,61.2L71.2,61.2z M26.6,61.4L26.6,61.4z M25.9,61.9v-0.2h-0.2v-0.2h0.2C25.9,61.4,25.9,61.9,25.9,61.9z
	 M17.5,61.6L17.5,61.6z M17,61.9v-0.2h0.2L17,61.9z M81.5,62.1v-0.2h0.2L81.5,62.1z M16,62.1L16,62.1z M33.3,62.1L33.3,62.1z
	 M69.3,62.5v-0.2h0.2L69.3,62.5z M83.9,62.8L83.9,62.8v-0.2h0.2v-0.2h0.2l-0.2,0.2v0.2H83.9z M25.6,63v-0.2h0.2V63H25.6v0.2h-0.7
	v-0.7h0.2v0.2h0.2L25.6,63z M81.3,63v-0.2l0.2,0.2H81.3z M66.6,62.8V63h0.5v0.2h-0.2v0.2l-0.2,0.2v-0.2h-0.5V63h0.2v-0.2H66.6z
	 M82.5,63L82.5,63z M12.1,63L12.1,63z M24.6,63L24.6,63z M81.2,63.2V63h0.2v0.2H81.2z M83.9,63v0.2h0.2v0.5h-0.5v-0.5h-0.7l0,0
	l-0.2,0.2v-0.2l0.2-0.2H83.9L83.9,63z M82.5,63v0.2h0.2v0.2h0.2v0.2h-0.7V64h0.2v0.5l0,0v0.2h0.2L82.5,65l0,0l0.2,0.2h-0.2v0.7h-0.2
	v0.2H82v0.2h-0.2v0.2h-0.3v0.2h-0.2L81,67.1v0.2l0,0l-0.2,0.2H81l-0.2,0.2h-0.2l0.2-0.2l-0.2-0.2v0.2l-0.2,0.2h-0.5l-0.2-0.2
	l0.2-0.2v-0.2h-0.2v-0.2h0.2v-0.5h-0.2v-0.2h0.2l0.2,0.2h0.2l0,0h0.2v-0.2l-0.2,0.2v-0.2H80v-0.2l0,0v-0.2l0.2-0.2l0,0H80l0,0h0.2
	v-0.5h0.2v-0.2h0.2v0.2l0.2-0.2v-0.5h0.2V64h0.2v-0.2h0.2v-0.5H82V63h0.2l0,0H82.5z M81.5,63.5v-0.2h0.2L81.5,63.5L81.5,63.5z
	 M13.3,63.5L13.3,63.5z M81.2,63.7H81l0,0H81.2z M81.2,64L81.2,64z M30.8,64L30.8,64z M26,64h1.2v0.2H26L25.8,64L26,64z M66.3,64.2
	L66.3,64.2z M11.9,64.2L11.9,64.2z M80.5,64.2v0.2h-0.2v-0.2H80.5z M27.2,64.2h0.5v0.2h-0.2l0,0h-0.2L27.2,64.2z M31.3,64.2v0.5
	h-0.5v-0.5H31.3z M8.7,64.4L8.7,64.4z M66.3,64.4L66.3,64.4z M80.7,64.7L80.7,64.7z M79.7,64.7L79.7,64.7v0.2h-0.2v0.2h-0.2l0,0
	h-0.5v-0.2l0.2-0.2H79.7z M31,64.9L31,64.9l-0.2,0.2l0,0v-0.2H31z M78,65.2L78,65.2z M8.4,65.2L8.4,65.2z M78.3,65.2h0.5v0.2H78
	v-0.2H78.3z M60,65.2h0.7v0.5h-0.5v0.2h-0.4v-0.2h0.2v-0.5l0,0H60z M8.3,65.4v-0.2h0.2L8.3,65.4z M59.9,65.2L59.9,65.2z M79.8,65.4
	L79.8,65.4z M79.1,65.4h-0.2v-0.2h0.2V65.4z M80.1,65.2L80.1,65.2z M72.2,65.4L72.2,65.4L72.2,65.4z M7.6,65.2h0.2v0.2H7.6V65.2z
	 M61.1,65.4L61.1,65.4z M61.3,65.7L61.3,65.7L61.3,65.7z M56.3,65.4v0.2h0.2v0.2h0.7v0.2h0.2v0.2h-1v0.2h-0.5v0.2h-0.2v0.2l-0.2,0.2
	v0.2h-0.2v-0.2h-1.4v-0.2h-0.7v0.2h-0.5v0.2h-0.5v0.2H52v-0.2h0.2v-0.5H52v-0.2h0.5v-0.2l0,0v-0.2h0.2v-0.5H53v0.2h0.7v0.2h0.5v-0.2
	h0.7v-0.2h0.2l0,0h0.2v-0.2h0.5v-0.2L56.3,65.4L56.3,65.4z M8.6,65.7L8.6,65.7z M60.4,65.9L60.4,65.9z M79.9,65.9l-0.2,0.2h-0.2v0.2
	h-0.5v-0.2h0.2l0.2-0.2H79.9z M52.7,66.1h-0.2l0.2-0.2V66.1z M73.9,66.4L73.9,66.4L73.9,66.4z M79.6,66.4L79.6,66.4L79.6,66.4z
	 M78.9,66.6L78.9,66.6z M74.1,66.4h0.2v0.2h-0.2V66.4z M72.7,66.9h0.5v0.7h-0.2v0.5h-0.5l-0.2-0.2v-0.2h-0.3v-0.2h-0.2v-0.5h0.2
	v-0.2h0.7L72.7,66.9z M71.5,67.6v-0.5h0.2v0.2L71.5,67.6z M51.8,68.1L51.8,68.1z M79.9,68.1h-0.2l0,0H79.9z M59.5,68.3h-0.2v-0.2H59
	l0.2-0.2h0.2C59.5,67.8,59.5,68.3,59.5,68.3z M80.1,68.1L80.1,68.1L80.1,68.1z M36.9,68.1v0.2h0.5v1h0.2v0.2h-0.2l0,0h-0.3l-0.2,0.2
	v0.5h-0.2V70h-0.2v0.2l0.2,0.2v0.2h0.2L36.6,71h-0.5v0.2h-1v0.2h-0.2v0.2h-2.1v0.2h-0.2l-0.2,0.2h-0.5v0.2h-1v0.2h-0.2v-0.5h-0.2
	l-0.2-0.2v0.2h-0.5v-0.3h-0.5v0.7h-1v-0.2l-0.2,0.2h-0.2v0.2l-0.2-0.2v0.2H27v-0.2h-0.2l-0.2-0.2v-0.2H26v0.2h-0.5v-0.2h-0.2
	l-0.2-0.2h-1l-0.2,0.2h-0.7v-0.2h-0.7l-0.2,0.2h-0.5v0.2h-0.2v-0.2l-0.2-0.2H21v-1.2h0.2V70h0.2l-0.2,0.2h0.5V70H22l0,0h0.2v-0.2
	l0,0V70h0.2l0,0h0.2v-0.2H23v-0.5h1.2V69h0.2v0.2h0.7V69l0.2,0.2h0.2v0.2h0.7v0.2h0.2l0,0h0.2l0,0H27l0,0l0.2,0.2H28v0.2h0.7v0.2H29
	v0.2h0.2v0.2h0.2l0.2-0.2v0.2h0.5v-0.2h0.2v-0.5h0.2v0.2h1l0,0h0.5v-0.2h0.2V70h0.2v0.2h-0.3v0.2h0.5l0,0l0.2,0.2h0.2V71h0.2
	l0.2,0.2H34V71h1v-0.5h-0.3v-0.2h0.5V70h0.2v-0.2h1v-0.3l0.2-0.2h0.2V69h0.2v-0.2h-0.7V69h-0.2v-0.2l0.2-0.2v-0.2h0.2v-0.2
	L36.9,68.1z M79.6,68.5h0.2v-0.2h0.2v0.2h-0.2v0.2h-0.5L79.1,69h-0.5v0.2l-0.2,0.2h-0.2V69h0.5l0.2-0.2l-0.2-0.2h0.2l0,0h0.2v-0.2
	l0.2-0.2v0.2h0.2L79.6,68.5z M11.2,68.3h0.7l0.2,0.2l0.2,0.2v0.5h0.2v0.2h0.2l0,0h0.2l-0.2,0.2h0.5v-0.2h0.2v-0.2h0.2V69h0.2
	l0.2,0.2H15v0.2l0.2,0.2V70l0,0L15,70.2v0.2h0.2v-1h0.2l0.2-0.2h0.7l0.2,0.2V70h0.2v0.5l0,0v0.7h0.5V71h0.2l0,0h0.2v0.2h-0.2v0.2
	l0,0v0.2h-1.2v-0.2h-0.2v0.2H16l-0.2-0.2h-0.3v0.2l0,0v0.2h1v0.2h-0.2l0,0h-0.5l-0.2-0.2h-0.2v0.2L15,71.9v0.2h-0.5l-0.2,0.2h-0.5
	v-0.2h-0.2v-0.5h0.2v-0.7h-0.2v0.2h0.2v0.2h-0.5v0.2h-0.2v0.2h-0.2v0.2h-0.2v0.2h-0.5v-0.2h-0.2v0.2h-0.2v0.2l-0.2-0.2v0.2h-0.7l0,0
	H10l-0.2,0.2H9.5v0.2H8.8v0.2H8.5l0,0H8.3l0,0l-0.2-0.2H7.6v0.2H7.3v0.2H6.6l-0.2-0.2H5.7v-0.2l-0.2,0.2v-0.2H5.2v-0.7h0.2v-0.2h0.2
	v-0.2H5.4v-0.2l0,0v-0.2l-0.2-0.2v-0.2h0.2v-0.2h0.2l-0.2-0.2h0.2l0,0h0.7v-0.2h0.2V70h0.2v-0.2h0.5L7.6,70l0,0h0.5l0,0l0.2,0.2h0.2
	V70h0.7v0.2l0.2,0.2V70l0.2,0.2v0.5H10l0,0h0.2V71h0.2v0.5l0.2,0.2v-0.2H11l0,0h0.2v0.2h0.5v-0.2h0.2v-0.2h0.7v0.2l0.2-0.2h0.2V71
	h-0.2v-0.3h-0.2l-0.2-0.2v-0.2l-0.2,0.2v-0.2h-1V70h-0.2v-0.2h-0.2v-0.3h-0.2v-0.2h-0.2V69H10v-0.5h0.5l0,0h0.2v-0.2H11.2L11.2,68.3
	z M73.4,68.5l-0.2,0.2V69h-0.2v-0.2h0.2v-0.2l0.2-0.2h0.2L73.4,68.5z M62.6,68.3H63v0.2h1.2v0.2H64L63.8,69v0.2h-0.3V69h-0.2
	L63,68.8V69l-0.2-0.2h-0.2v-0.2h-0.2v-0.2H62.6z M45.6,68.5v-0.2h0.2v0.5H46l0.2-0.2h1v0.2l0.2-0.2h1v0.2h0.2v0.7h-0.2l-0.2,0.2H47
	V70l-0.2-0.2V70h-0.2v-0.2H46V70h-0.7L45,70.2l0,0L44.8,70v0.2h-0.2v-0.7h0.2v-0.2H45V69l0,0v0.2h-0.2v-0.5H45v-0.2h0.2v-0.2h0.2
	L45.6,68.5z M17.2,69l-0.2,0.2V69h-0.2v-0.5h0.7V69H17.2z M8.3,68.5L8.3,68.5z M51,69.5h-0.2v-0.2h-0.2V69h0.2v-0.2H51v-0.2h0.2V69
	H51l0.2,0.2H51V69.5z M9.5,68.5H10v0.2H9.7V69H9.5v0.2l-0.2,0.2v0.2H8.8v-0.2H9v-0.2H8.8v-0.5H9v-0.2L9.5,68.5L9.5,68.5z M62.3,68.7
	L62,69l0,0h-0.7v-0.2h0.5v-0.2H62L62.3,68.7z M67.3,68.5h0.2l0,0H67.3z M67,68.5v0.2l0,0V68.5z M44.5,68.7L44.5,68.7z M41.9,69v-0.2
	h0.2V69l0,0v0.2h-0.7v0.5h-0.2V70h-0.5v0.2h-0.2v0.2h0.2v0.2h-0.5v-0.2H40v0.2h-0.2V71h-0.3v-0.3h-0.2l0,0h-0.7v-0.2h0.2l0.2-0.2
	h0.2V70h0.2v-0.2H40v-0.3h-0.2v-0.2h-0.3v0.2l-0.2-0.2l0,0h0.2V69h0.2v0.2H40V69h0.5l-0.2,0.2l0,0v0.2H40l0.2,0.2h0.2l0.2-0.2h-0.2
	v-0.2h0.2V69H41v0.2h0.2v-0.5h0.7L41.9,69z M44.1,68.8h0.2v0.7h-0.2v0.2h-0.2v0.5l-0.2,0.2v0.2h-0.5v-0.5h-0.2V70h-0.2l-0.2,0.2
	v-0.5l0.2-0.2h0.2l0.2-0.2v0.5h0.2v-0.3h0.2v-0.2h0.2v-0.5L44.1,68.8z M68.5,68.8h0.2v0.5L68.5,69h-0.5l-0.2-0.2H68.5z M44.5,69
	v-0.2h0.2L44.5,69z M64.7,68.8v0.5H64v-0.5l0.2,0.2l0,0l0.2-0.2H64.7z M42.9,69L42.9,69z M3,68.8L3.2,69H4v0.2h0.7v0.2H5v0.7
	l-0.2,0.2v0.2l-0.2,0.2v0.5H4.2v0.5H4v0.2l0,0l0,0h0.2v0.2l0,0v0.2H3.7v-0.5H3.5v0.2l0,0v0.5H3.2v-0.2h-1v-0.2H1.8l0,0H1.3v0.2l0,0
	v-0.2H1.1v-0.2H0.4v-0.5h0.5v0.2h0.2v-0.2h0.5l0,0l0,0v-1.2H1.3V70h0.5l-0.2-0.2h0.2l0.2-0.2h0.2v-0.2h0.2V69h0.2L3,68.8z M43.1,69
	L43.1,69z M38.5,69H39l0.2,0.2H39v0.2l0.2,0.2H39V70l-0.2-0.2l0,0h-0.5L38.1,70l0,0h-0.5v-0.5h0.2v-0.2h0.2V69
	C38.1,69,38.5,69,38.5,69z M77.7,69.2L77.7,69.2z M44.5,69.5h-0.2v-0.2h0.5L44.5,69.5z M4.9,69.5l-0.2-0.2h0.2V69.5z M31.1,69.7
	h-0.2v-0.2l0,0v-0.2h0.2V69.7L31.1,69.7z M4.9,69.5L4.9,69.5z M58.9,69.7h0.2v-0.2h0.2v0.2h0.5v0.5h-0.2l-0.2,0.2v0.2h-0.5v0.2
	l-0.2,0.2l-0.2,0.2H58v0.2h-1l-0.2,0.2h-0.2v0.2h-0.2l0,0h-0.2l-0.2,0.5v0.2h-1.7v0.2h-0.2l-0.2,0.2l-0.2,0.2h-0.2v0.2H52v0.2h-1
	v0.2h-0.7v0.2h-0.5v0.2L49.6,75l0,0l-0.2,0.2h-0.5l-0.2,0.2l-0.2,0.2h-0.2v0.7h-0.2v0.2h-0.2l-0.2,0.2l-0.2,0.2l-0.2,0.2v0.2
	l-0.2,0.2h-0.2v0.2h-0.2v0.2h-0.5v0.5h-0.2v0.2h-1.9v0.2l-0.2,0.2v0.2h-0.7v0.2h-0.5v0.2l-0.2-0.2v0.2h-0.2v-0.2h-0.5l0,0h-0.7v-0.5
	l0.2-0.2v-0.2h0.7v-0.2h0.5v-0.5h-0.7v0.2h-0.2v-1h0.5v-0.5h-0.2v-0.2h0.2v-0.2l-0.2-0.2l0,0l0.2-0.2h0.2V76h0.2v-0.2h0.2v-0.3h0.2
	v-0.2h0.2V75h0.2v-0.2h0.5v0.5h0.2L43.3,75v-0.2h0.2v-0.2h0.2v-0.2h0.7v-0.2H45l0.2-0.2v0.2h0.5v-0.2h0.5v-0.2h0.2v-0.2h0.2v-0.2
	h0.5v-0.2l0.2,0.2v-0.2h0.5l0.2-0.2v-0.5h0.5v-0.5h0.5v0.2h0.2l0.2,0.2v-0.2h-0.5v-0.2h-0.5v-0.5h0.2v-0.2h1.2v-0.2h0.5l0,0h0.2l0,0
	h0.5l0,0l0.2-0.2v0.2h0.2v-0.2h0.5l0.2-0.2h0.5v0.2h1.4l0.2-0.2h0.5V70h0.5v0.2h1V70h1l0.2-0.2H58v-0.3h0.7v0.2H58.9z M1.3,69.7
	L1.3,69.7z M1.6,69.5v0.2l-0.2-0.2H1.6z M34,69.5v0.2h-0.2L34,69.5z M42.4,69.5v0.2l0,0V69.5z M1.6,69.7L1.6,69.7z M22.2,69.7
	L22.2,69.7z M41.9,70h-0.2v-0.2h0.2V70z M21.3,69.8L21.3,69.8z M6.6,69.8L6.6,69.8z M18.1,70h0.5v0.2L18.4,70v0.2h-0.2L18.1,70z
	 M60.1,70.2L59.9,70h0.2L60.1,70.2z M6.1,70l-0.2,0.2H5.7V70H6.1L6.1,70z M9.7,70L9.7,70z M34.2,70h0.2v0.5h-0.2v-0.2H34V70H34.2z
	 M38.3,70h0.2l-0.2,0.2H38v0.2h-0.2v-0.2h-0.2v0.2h-0.2V71h-0.5v-0.5h0.5V70h0.2v0.2h0.2V70C37.8,70,38.3,70,38.3,70z M19.1,70
	l0.2,0.2v0.2h0.2l0,0h0.2l0,0h-0.2v0.2h0.2V71h-0.2v-0.3h-0.2v0.2l0,0v0.2h-0.2v0.2h0.2v0.2h-0.5v-0.2h0.2v-0.2h-0.2v-0.5h0.2v-0.2
	l0,0V70z M19.8,70.2L19.8,70.2z M36.6,70.2L36.6,70.2z M10,70.5H9.7v-0.2H10V70.5z M34.7,70.2L34.7,70.2z M19.8,70.2L19.8,70.2z
	 M44.3,70.5h-0.2v-0.2h0.2V70.5z M10.5,70.7h-0.2v-0.2l0,0L10,70.2h0.2v0.5L10.5,70.7z M19.8,70.2L19.8,70.2z M5.9,70.5L5.9,70.5z
	 M5.4,70.7H5.2v-0.2h0.2L5.4,70.7z M18.9,70.5L18.9,70.5z M20.3,70.7L20.3,70.7z M19.8,70.7L19.8,70.7z M20.6,70.7L20.6,70.7z
	 M17.2,70.9L17.2,70.9L17,70.7h0.2V70.9z M17.9,70.9L17.9,70.9z M20.6,70.7L20.6,70.7z M10.7,70.7L10.7,70.7z M20.1,70.9h0.2v0.5
	l0.2-0.2v-0.2h0.2l0,0H21v0.2h-0.2v0.2h-0.2v0.2l0,0v0.2l0.2-0.2v0.2H20v-0.2l0,0v-0.2h0.2l0,0l0,0v-0.2H20L20.1,70.9z M11.4,70.9
	v0.2h0.2l0,0h-0.2V70.9z M11.7,70.9L11.7,70.9z M20.6,71.2L20.6,71.2z M20.1,71.2h-0.2l0,0l-0.2,0.2v-0.2H20.1z M12.9,71.2
	L12.9,71.2z M18.2,71.4h-0.3v-0.2h0.2L18.2,71.4z M19.6,71.2L19.6,71.2z M21,71.4l-0.2-0.2H21L21,71.4z M5.2,71.4L5.2,71.4z
	 M1.1,71.9H0.9v-0.2h0.2L1.1,71.9z M20.3,71.9L20.3,71.9z M21,72.1h-0.2l0.2-0.2L21,72.1z M23.7,72.4L23.7,72.4L23.7,72.4z
	 M30.2,72.4v0.2h-0.3v-0.2H30.2z M22.5,75v0.2h0.2v0.2h0.7v0.2l0.2,0.2v0.5h1.2v0.2h0.2l0.2,0.2v0.2h0.2v0.5h0.2v0.2h0.5l0.2,0.2
	v0.2h0.2v0.2l-0.2,0.2h0.2l0,0h-0.5v0.2l-0.2,0.2h-0.2v0.2h-0.7v0.2h-0.2l0,0h-0.2l-0.2-0.2h-1l-0.2-0.2l-0.2-0.2l-0.2-0.2l0,0v-0.2
	h-0.2v-0.2h-0.2v-0.2H22l0,0h-0.2v-0.2h-0.5v-0.2h-0.5v-0.5h-0.2v-0.2h-0.3l0,0l-0.2,0.2l0,0h-0.2v-0.2h-0.5v0.2h-0.2v-0.2h-1.2
	l-0.2-0.2h-0.2l-0.2-0.2v-0.2h-0.2V76h-0.2v-0.2h0.2v-0.3l0.2-0.2h0.5l0.2-0.3h2.2v-0.2h0.2l0.2,0.2h1v-0.2h0.2v-0.2H22v0.2h0.2V75
	H22.5z M41.2,78.6L41.2,78.6z M40.5,79.1h0.2l-0.2,0.2h-0.2l0,0H40v0.2h0.2v0.2H40l0.2,0.2H40v-0.2h-0.2V80h-0.3v-0.2l0.2-0.2
	l0.2-0.2v-0.2h0.2v-0.2L40.5,79.1z M23.7,80.1h-0.2v-0.2h0.2V80.1z M39.5,80.1L39.5,80.1z M32.8,80.6H33v0.2h-0.2L33,81h-0.2v0.2
	h-0.2v0.2h-1v-0.2l0,0V81H32v-0.5L32.8,80.6L32.8,80.6z M40.2,80.8H40V81l0,0v0.5h0.2V82h-0.5l-0.2,0.2l0,0v0.2h-0.2v0.2H39v-0.2
	l-0.2,0.2l0,0h-0.5l0,0h-0.2V83l0,0l0,0h-0.2v0.2h-0.2l0,0h-0.2v-0.5h-0.2v-0.2h0.2v-0.2h1l0.2-0.2v-0.2H39v-0.2h0.7v-0.2h-0.2v0.2
	h-0.2v-0.2l0.2-0.3h0.2v-0.2H40v-0.2L40.2,80.8z M40.2,80.8V81L40,81.2V81h0.2V80.8z M30.9,81.5L30.9,81.5v0.2h-0.2v-0.3L30.9,81.5z
	 M36.9,82.5L36.9,82.5z M36.4,82.5l0.2,0.2h-0.2V82.5z M38.1,83v0.2l0,0V83z M38.1,83.2L38.1,83.2z M37.6,83.5L37.6,83.5L37.6,83.5z
	"/>
</svg>
