<?xml version="1.0" encoding="utf-8"?>
<!-- Generator: Adobe Illustrator 20.1.0, SVG Export Plug-In . SVG Version: 6.00 Build 0)  -->
<svg version="1.1" id="Layer_1" xmlns="http://www.w3.org/2000/svg" xmlns:xlink="http://www.w3.org/1999/xlink" x="0px" y="0px"
	 viewBox="0 0 115.5 110.7" style="enable-background:new 0 0 115.5 110.7;" xml:space="preserve">
<style type="text/css">
	.st0{fill:#C14803;}
</style>
<title>carrado</title>
<path class="st0" d="M98.5,59.2h0.2l0.2,0.2l0.2-0.2v-0.7l0.2-0.2v-0.7l0.2-0.2v-2.4h0.3v-0.7h-0.5v-0.5h0.5l0.2,0.2h0.2v0.2
	l0.2,0.2h0.5l-0.2,0.2l-0.2,0.2v0.2h-0.2v2.2h-0.2v0.2H100v1.7l0.2,0.2v-0.2l0.2,0.2v0.5l-0.2,0.2v0.5l0.2-0.2l0.2-0.2h0.2v-0.2
	l0.2-0.2v-0.2l0.2-0.2l-0.2-0.2v-0.2l0.2-0.2H101l0,0h-0.2V58l0.2-0.2V57l0.2-0.2v-0.5H101v-0.7l0.2-0.2h0.2v0.2h0.2v1l-0.2,0.2v0.5
	l0.2-0.2v-0.2h0.2v0.5l-0.2,0.2h0.2l0.2,0.2h0.2v-1.2h0.5v0.7h0.2l0.2,0.2V58h0.2v-0.2l0.2,0.2v0.2h0.2v0.5h-0.5V59h-0.2l0.2,0.2
	h0.2v0.2h0.5V59h0.2l0.2,0.2l0,0l0.2,0.2V60h-0.5l-0.2,0.2h-0.7l-0.2-0.2v-0.2l-0.2-0.2V59h-1v0.5h-0.2l-0.2,0.2v0.5l0.2-0.2
	l0.2,0.2h0.2v0.2h0.5v0.2h-0.2l-0.2,0.2v1.2l0.2,0.2l-0.2,0.2v0.2h0.2l0.2-0.2V63l-0.2,0.2h1l0.2-0.2h0.5v0.2h0.7v0.2h-0.2v0.2h0.5
	v0.5h0.2v0.2h-0.2l-0.2,0.2h-1l0,0h-0.5l-0.2-0.2v0.2H103l0.2,0.2v0.5l-0.2,0.2l-0.2,0.2h-0.2l-0.2-0.2h-0.5v0.5h-0.2v0.5l-0.2,0.2
	v0.2l0.2,0.2V68l-0.2,0.2v0.5l0.2,0.2l-0.2,0.2h-1V69l0.2-0.2h-0.5v-0.2H100l-0.2-0.2l-0.2,0.2V69h-0.2v0.2L99,69.5v0.2h-0.5V70H99
	l0.2,0.2H99v0.2h-1.2l-0.2-0.2h-0.2v-0.5h-0.2V70l-0.2,0.2v1l-0.2,0.2v0.2h-0.7v0.5l-0.2,0.2l0,0v0.2l-0.2,0.2h-0.5v-0.5l0.2-0.2
	h-0.2V72l-0.2-0.2V71h-0.2v-1l0.2-0.2v-0.2h-0.2l0.2-0.2v-0.7l-0.2-0.2v-0.5l-0.2,0.2v-1.2H94l-0.2,0.2v0.2h-0.3v0.2h-0.2v0.2h0.2
	v-0.2h0.2v0.5l-0.2,0.2v0.5L93.3,69v0.2L93,69.5v0.2L92.8,70l-0.2,0.2h-0.2v0.5L92.1,71h-0.2v0.2l-0.2,0.2v1.7h0.5v-0.2l0.2,0.2v0.5
	h0.2v0.5l0.2,0.2v0.5L93,75v0.2l0.2,0.2V76l0.2,0.2v0.5l0.2,0.2v0.2l0.2,0.2l0.2-0.2v-0.7L94,76.2v-1h-0.2v-0.7l-0.2-0.2L93.3,74
	v-0.5L93,73.3v-1.4l-0.2-0.2V71H93v-0.2h0.2V71h0.5v1l-0.2,0.2v1H94V73h0.2l0.2,0.2h0.2v0.2l-0.2,0.2V74h-0.2v-0.2L94,74v1l0.2,0.2
	v0.2l0.2,0.2v1.7l0.2,0.2H95v-0.2l0.2-0.2V77L95,76.8l-0.2-0.2V76l0.2,0.2l0.2,0.2l0.2,0.2V77l0.2,0.2v0.5L95.4,78v0.2l-0.2,0.2v0.7
	l0.2,0.2h-0.2v0.5L95,80.1h-0.3v0.2h-0.5v0.2h-0.5l-0.2-0.2h-1L92,80.6h-0.7l-0.5,0.2l-0.2-0.2h-1.2l-0.2-0.2v-0.5l-0.2-0.2v-0.5
	h-0.2l-0.2-0.2v-0.2l-0.2,0.2v0.5H88l-0.2-0.2h-0.3l-0.2-0.2H87l-0.2,0.2l0.2,0.2h0.2l0.2,0.2l0.2,0.2H88l0.2,0.2v0.2l0.2,0.2V81
	l0.2,0.2v1.2l-0.2,0.2V83l-0.2,0.2H88l-0.2,0.2h-0.5L87,83.7h-0.5v-0.2l-0.2-0.2l0.2-0.5v-0.5l0.2-0.2v-0.7h-0.5l-0.2,0.2l-0.2,0.2
	l-0.2-0.2v0.2h-0.5L84.9,82l-0.2,0.2h-0.5v0.5h-0.2l-0.2-0.2h-1l-0.2-0.2l-0.2,0.2v0.2l0.2,0.2h0.2l0.2,0.2v0.2h0.2v-0.2h-0.2V83
	h0.2v-0.2h0.2v0.7l0.2,0.2l0.2-0.2h0.2v-0.2h0.2V84l0.2,0.2l0.2,0.2h0.2v0.2l0.2,0.2v0.2l-0.2,0.2l-0.2-0.2h-0.2l-0.2,0.2v0.7
	l-0.2,0.2l0.2,0.2v0.2h0.2v0.5L84.4,87l-0.2,0.2L83.9,87l0.2-0.2h-0.5v0.5l-0.2,0.2h-0.2v-0.2l-0.2,0.2h-0.5v-0.2l0.5-0.2h0.5
	l-0.2-0.2h-0.7l-0.2-0.2h-0.5l-0.2,0.2V86H81l0.2,0.2H81V86h-0.2v-0.2H80v-0.2h-0.5v0.2h-0.5l-0.2-0.2v-0.2h-0.2l-0.2-0.2h-0.2
	l-0.2-0.2h-0.2l-0.2-0.2v-0.5h-0.2l-0.2,0.2v0.7l0.2,0.2v0.5h0.2V86h-1v0.2H76V87h0.5v0.2H77v0.5L76.7,88v2.2l0.2,0.2v0.7l0.2,0.2
	V94l-0.2,0.2h-0.2v0.2h-0.2l-0.2,0.2L76,95v0.2h-0.2v0.2l-0.2,0.2L75.3,96H75l-0.2-0.2h-0.5l-0.2-0.2h-0.7V95l0.2-0.2v-0.2h0.2
	l0.2-0.2l0.2-0.3H75v-0.2l-0.2-0.2v-0.2h-0.2V93l0.2-0.2l0.2-0.2v-0.2l0.2-0.2v-1.4l0.2-0.2v-0.2l0.2-0.5v-0.5L75.5,89v-0.5l0.2-0.2
	L76,88v-0.2l-0.2-0.2v0.2l-0.2-0.2l-0.2,0.2V88H75v-0.7l0.2-0.2H75v0.2h-0.2l-0.2,0.2l0.2,0.2L74.5,88v0.2l0.2,0.2v0.2H75V89
	l0.2,0.2V90L75,90.2l-0.2,0.2v-0.2h-0.2V90h-0.2l-0.2,0.2h-0.2v-0.5h-0.2L73.3,90l-0.2,0.2v0.2h0.5v0.5h0.2l-0.2,0.2v0.2h0.5v0.2
	h-0.2v0.2h0.2l-0.2,0.2l0.2,0.2v0.2h-0.2l-0.2,0.2l-0.2-0.2l-0.2,0.2v0.7h-0.2l-0.2,0.2v0.5h-0.2v0.2h-0.2l0.2,0.2V95h-0.5v0.2h0.2
	v0.2l0.2,0.2V96h0.2l-0.2,0.2h-0.2l-0.2,0.2h-0.7l-0.2,0.2h-0.2v-0.2l-0.2,0.2l-0.2,0.2v0.2H70l-0.2,0.2v-0.5H70v-0.2h-0.2l-0.2,0.2
	h-0.2v-0.2H69v0.5l-0.2,0.2h-0.2v-0.2l-0.2,0.2h-0.5v0.5l-0.2,0.2h0.7l0.2-0.2l0.2,0.2l0.2-0.2h0.2v1.4H69l-0.2,0.2v-0.2h-0.5
	L68.1,99h-0.2l-0.2-0.2h-0.5L66.9,99l-0.2-0.2L66.4,99h-0.2v0.5l0.2,0.2h0.2v-0.2l0.2-0.2h1l0.2,0.2l0.2,0.2l0.2,0.2h0.7v-0.2h0.2
	l0.2-0.2H71v1h-1.2l-0.2-0.2l-0.5,0.2h-0.2l-0.2-0.2h-0.7l-0.2,0.5h-0.7l-0.2-0.2h-0.2v0.5l0.5,0.2h0.5l0.2,0.2h1l0.2,0.2l-0.2,0.2
	h-1v-0.2h-1.2v1.2h-0.5l-0.2,0.2h-0.2l-0.2,0.2l-0.2,0.2l-0.2,0.2v0.2H64v0.2h-0.2v-0.2l-0.2-0.2v-0.2h-0.2l-0.2,0.2h-0.2l-0.5,0.2
	h-0.2l-0.2,0.2h-0.2l-0.2,0.2h-0.7l-0.2,0.2l-0.2,0.5h-0.3v1l0.2,0.2l0.2,0.2v0.2l0.2,0.2v0.2l0.2,0.2v0.2l0.2,0.2l0.2,0.2v0.5
	l0.2,0.2h0.2v0.5l0.2,0.2v0.2l-0.2,0.2h-0.5v-0.7l-0.2-0.2v-0.5h-0.7l-0.2-0.2h-0.5l-0.2-0.2l0.2-0.2V107l0.2-0.2l-0.2-0.2V106
	l-0.2-0.2h-0.2l-0.2-0.2h-0.2v-0.7l-0.2-0.2l0.2-0.2h1l0.2-0.2l-0.2-0.2h-0.5l0.2-0.2h0.5v-0.2h0.5l0.2-0.2v-0.2h0.2v-0.2h0.7v0.7
	l0.2-0.2v0.2h0.5l0.2-0.2l0.2-0.2l0.2-0.2h-0.5v-0.5h-0.3v-0.5h0.2l0.2-0.2h1.4v-1h0.2V100l0.2-0.5v-0.2h-0.2v-1.7l0.2-0.2v-0.7
	l-0.2-0.2H64v-0.2l-0.2-0.2v-0.2l-0.2-0.2H63l-0.5,0.2h-1.2l-0.5-0.2h-2.1l-0.2-0.2L58.2,95H58l-0.5-0.2H57v-0.2l-0.2-0.2l-0.2,0.2
	h-0.2v0.2h-0.7v-0.2h-0.2v0.2h-0.2v-0.5h-0.2V94l0.2-0.2v-0.2h-0.2V93l0.2-0.2l0.2-0.2l0.2-0.2h0.5V92l0.2-0.2l0.2,0.2v1l-0.2,0.2h1
	l0.2,0.2v0.2H58l0.2-0.2h1.7l0.2,0.2l0.2,0.2h1.2l0.2,0.2H63v0.2l0.2-0.2l0.3-0.2v-0.5h0.2l0.2,0.2v0.5l0.2-0.2h0.2v-0.2h0.2V94h0.5
	v-0.2h-0.2v-0.5h-0.2V93h-0.2v0.2h-0.2V93H64l0.2-0.2v-0.5h0.2l0.2-0.2v-0.2l0.2-0.2h0.5v-0.2h0.7v-0.2l0.2,0.2v0.2h0.2v0.7l0.2,0.2
	l0.2,0.2v1h0.2v0.7h0.2V95l0.2,0.2h0.2V95l0.2-0.2h0.2v-0.2l0.2-0.2V94h-0.2l0.2-0.2h0.5v-0.5H69L68.5,93v-0.5l-0.2-0.2h-0.2
	L67.8,92v-0.2l-0.2-0.2l-0.2-0.2l-0.2-0.2v-0.2h-0.2v-0.2h-0.2l-0.2-0.2l-0.2-0.2h-0.2v-1h0.2V89h-0.2l0.2-0.2v-0.2h0.2v-0.2
	l0.2-0.2l0.2-0.5h0.2l0.2,0.2v0.5h1v0.2l0.2,0.2v0.5h0.2v0.2l0.2-0.2v-1h-0.2V88l-0.2-0.2l0.2-0.2l0.5-0.2v-0.7L69,86.3v-0.2
	l-0.2-0.2l-0.2-0.2v-0.7l-0.2-0.5v-0.5L68,83.7l-0.2-0.2l-0.2,0.2h-0.2l-0.2-0.2h-0.2l0.2-0.2v-0.7l-0.2-0.2h-0.2V83h-0.2v1h0.2v0.2
	h0.5V85h-0.5v0.5l-0.2,0.2l-0.2,0.2h-0.2v-0.2h0.2l-0.2-0.2l0.2-0.2L65.9,85l-0.2-0.2h-0.5V85l-0.2,0.2v0.5h-0.2v-0.2h-0.2l-0.2-0.2
	L64,84.9h-1l-0.2-0.2h-0.5l-0.2,0.2v-0.2h-0.2l-0.2-0.2v-0.2l-0.2-0.2l-0.2,0.2h-0.2v0.2l-0.2,0.2h-0.2v-0.2l-0.2-0.2v-0.2h0.2v-0.2
	l0.2-0.2l0.2,0.2l0.2-0.2v-0.2h0.2l0.2-0.2h0.5l0.2-0.2v-0.2l0.2-0.5h0.2v-0.2l0.2-0.2v0.2l0.2,0.2h0.2v0.2l0.5,0.2h0.5l0.2,0.2h0.2
	V83h-0.2l0.2,0.2h0.2v0.2h-0.2l0.2,0.2V84h0.5l0.2-0.2v-0.2l-0.2-0.2V82l-0.2-0.2v-0.5l0.2-0.2l0.2-0.2l-0.2-0.2v-0.2h0.2l-0.2-0.2
	v-0.2h-0.2v0.2l-0.2,0.2l-0.2,0.2h-0.2v-0.2h-0.2v-0.7l0.2-0.2v-0.2h-0.2v-0.2h-0.2L64,78.6h-0.5l-0.2,0.2h0.2l0.2,0.2l0.2,0.2v0.2
	h-0.2v0.5h-0.5L63,80.3h-1l0.2-0.2h-0.5v-0.2l-0.2,0.2v-0.2h-0.2v-0.2h-0.5l-0.2-0.2h-0.2l-0.2,0.2h-0.5v0.2h-1.9v-0.2l0.2-0.2
	l0.2-0.2l0.2-0.2l0.2-0.2l0.2,0.2l0.2-0.2h0.2l0.2-0.5v-1.4h0.2l0.5-0.2h0.5l0.2-0.2h-0.2L60.6,76h0.2v-0.5l0.2-0.2h0.2V75h0.2
	l0.2-0.2h0.2v-0.2l0.2-0.2v0.5h0.2V75h0.2v0.5l0.2,0.2V76h0.2v-0.7L63,75h0.5v0.2l0.2,0.2v0.2H64v-0.2h-0.2v-0.2L63.5,75v-0.7h0.2
	V74H64v-0.2h0.2l0.2,0.2h0.2l0.2,0.2h0.2v0.2l0.2,0.2V75l-0.2,0.2L64.9,75h-0.2l-0.2-0.2L64.2,75H64v0.2h0.5l0.2,0.2h1.4v0.2h0.7
	v-0.2h0.2v-0.2h-1.2V75l0.2-0.2v-0.2h0.2v-0.2h0.2V74l0.2-0.2h0.7v-0.5l0.2-0.2l0.2-0.2h0.2v0.7l-0.2,0.2h0.5l0.2-0.2H69l0.2-0.2
	h0.2V74H70v0.2h0.2l0.2-0.2H71l0.2,0.2v0.2h0.2l0.2,0.2l0.2,0.2l0.2,0.2l0.2,0.2v0.2h0.2v-0.2l0.2-0.2h-0.2l0.2-0.2l-0.2-0.2
	l-0.2-0.2l-0.2-0.2h-0.3V74h-0.5v-0.2l-0.2-0.2h-0.2l-0.2-0.2h-0.2l-0.2-0.2v-0.2h0.7v-0.7l0.2-0.2l-0.2-0.2H70v-0.2l-0.2-0.2
	L69.5,71v-0.5l-0.2-0.2H69L68.8,70h-0.7v0.2h-0.2v1.2h-0.5l-0.2,0.2l-0.2-0.2v-1h-0.2l-0.2,0.2v0.7l0.2,0.2v0.2h-0.2v1.4l-0.2,0.2
	h-0.2v0.2h-0.5v-0.2h-0.2v-0.5l-0.2-0.5v-0.7l-0.2-0.2l0.2-0.2V71h-0.5l-0.2,0.2v0.5H64V72h-0.2v0.7h-0.3v0.5h-1v-0.2h-0.2v-0.2
	l-0.2-0.2V72h-0.2v-0.2h-0.5L61.1,72l-0.2,0.2h-0.2v0.5h-0.2l-0.2,0.2h-0.2l-0.2,0.2h-0.2l-0.2,0.2h-0.2l-0.2,0.2l-0.2,0.2v0.5
	l-0.2,0.2v0.2H58v-0.2h-0.2l-0.2-0.2v-0.2h-0.2v-0.2L57,73.6v-0.2l-0.2,0.2v0.2l-0.2,0.2v0.2l0.2,0.2v0.2L57,75h0.2v0.5h0.2l0.2,0.2
	H58l0.2,0.2v0.2l0.2,0.2l-0.2,0.2v0.5L58,77.4v0.2h-0.2v0.2l-0.2,0.2v0.2h-0.2v0.5H57v0.2l-0.2,0.2l-0.2,0.2v0.2L56.3,80v0.7L56,81
	v0.2h0.7V82l-0.5,0.2h-1v0.5L55.1,83l-0.2,0.2l-0.2,0.2v1h-0.2v0.2h0.2V85h-0.7v1.4l-0.2,0.2h-0.5V87l-0.2,0.2V88h-0.2v0.5l-0.2,0.2
	V89l-0.2,0.2v0.2L52,89.7L51.7,90l-0.2,0.2v0.2l-0.2,0.2v0.2L51,91.2h-0.2v0.2h-0.2l-1.4,0.2l-0.2,0.2h-0.2l-0.2,0.2h-0.5l-0.2,0.2
	h-0.5l-0.5,0.2h-1.4L45,92.3h-0.2l-0.2-0.2h-0.7v-0.2h-0.5v-0.2l-0.5-0.2l-0.2-0.2l-0.2-0.2l-0.2-0.2v-0.2h-0.2l-0.2-0.2h-1v-0.2
	h-0.2l-0.2-0.2L40,89.4l-0.2,0.2l-0.2,0.2v0.5l-0.2,0.2v0.5L39,91.3h-0.5v-0.2h-0.5l-0.2-0.2v-0.2h-0.7l-0.2,0.2v0.5l-0.2,0.2
	l0.2,0.2v0.5l0.2,0.2h0.2v0.2h0.7v0.5h0.2v0.5L38.1,94l-0.2-0.2h-0.2l-0.2-0.2h-0.2v-0.2h-0.2v-0.5h-0.5v0.5h0.2l-0.2,0.2h-0.2
	l-0.2,0.2h-0.2V94h-0.2v0.2h-0.5l-0.2,0.2h-0.2v0.7l0.2,0.2h-0.2v0.2h-0.2v-0.5H34l0.2-0.2H34v-0.2h-0.2v-0.2h-0.3v-1h-0.2l0,0H33
	V93h-1.2l-0.2,0.2v0.5L31.3,94v1.2h0.2v0.5h-0.2v0.2h-0.2v0.2h-0.5v-1h-1.2V95l0.2-0.2h0.2v-0.2l0.2-0.2v-0.7l0.2-0.2v-1h-0.5
	l-0.2,0.2v0.2L29.4,93l-0.2,0.2l-0.2,0.2l-0.2,0.2L28.5,94L28,94.2l-0.2,0.2v0.2L27.5,95l-0.2,0.2L27,95.5h-0.2l-0.2,0.2L26.3,96
	l-0.2,0.2h-0.2l-0.2,0.2l-0.2,0.2h-0.5v-0.2l0.2-0.2v-0.7h-0.2v-0.2L24.6,95h0.2v-0.7L24.6,94l-0.2-0.2h-0.2l-0.2-0.2l-0.2-0.2V93
	l0.2-0.2h0.2l0.5,0.2h0.7v-0.2l0.2-0.2v-0.2h-1L24.3,92l-0.2,0.2L23.9,92h-0.5v-1l0.2-0.2v-1h0.2l0.2-0.2l0.2-0.2l0.2-0.2v-0.7h-0.2
	l-0.2,0.2V89l-0.2-0.2V87l0.2-0.2h0.2v-0.2h0.5l0.2,0.2V87h0.2v0.2h0.2l0.2-0.2l0.2-0.2l0.2-0.2l0.2-0.2v-1h0.2v-0.7l0.2-0.5
	l0.2-0.2v-0.2h0.2l0.2-0.2L28,83v-0.2l-0.2-0.2h-0.3v0.2h-0.7l0.2-0.2v-1l-0.2-0.2V81l0.2-0.2h0.2l0.2-0.2l0.2-0.2L28,80h0.5
	l0.2,0.2v0.2l0.2,0.2v0.7l0.2,0.2V82l0.2-0.2l0.2-0.2l0.2,0.2h0.5v-0.2h0.5v0.7l0.2,0.2l0.2-0.2l0.2-0.2l0.2-0.2v-0.2h0.2l0.2,0.2
	V82l0.2,0.2v0.2l0.2,0.2L33,83l0.2-0.2v-0.2L33,82.2L32.8,82v-0.5l0.2-0.2l0.2,0.2l0.2,0.2V82l0.2,0.2v0.2H34l0.2-0.2v-0.5h0.2
	l0.2-0.2H35l0.2-0.2l0.2-0.2v-0.5l0.2-0.2v-0.2l0.2-0.2v-0.2l0.2-0.2l0.2-0.5v-0.2l0.2-0.2h0.2l0.2-0.2V77l-0.2-0.2l-0.2-0.2v-0.2
	L36.4,76v-1l0.2-0.2v0.5l0.2,0.2l0.2-0.2v-1h0.2V74l0.2-0.2v-0.5L37.3,73l-0.5-0.2h-0.2l-0.2-0.2l-0.2-0.2l0.2-0.2l0.2-0.2h1.2
	l0.2,0.2l0.2,0.2h0.2l0.2-0.2V71l-0.2-0.5h-0.2l-0.2-0.2h-0.2L37.6,70h-0.5l-0.2-0.2v-0.2h-0.2l-0.2-0.2L36.1,69h-0.2l-0.5-0.2
	l-0.2-0.2l-0.2-0.2h-0.5L34.2,68L34,67.8h-0.2v-0.2l-0.2-0.2H33v-0.2l-0.2-0.2h-0.2L32,66.6v-0.2h0.5l0.2,0.2H33l0.2,0.2l0.5,0.2H34
	l0.2,0.2l0.2-0.2h0.2l0.2-0.2h0.2l0.2-0.2h1l0.2-0.2h1v-0.2h0.2l0.2-0.2v-0.7L37.8,65v-0.5l0.2-0.2l0.2-0.3v-0.2l-0.2-0.2h-0.2
	l-0.5,0.2h-0.7L36.4,64l-0.5,0.2h-0.2l-0.2,0.2l-0.5-0.2h-2.9L31.8,64h-0.2v-0.2l0.2-0.2l0.2-0.2h0.2l0.2,0.2l0.5,0.2l0.2-0.2
	l0.2-0.2h0.2l0.2,0.2v0.2h0.5l0.5,0.2l0.2-0.2h0.2l0.2-0.5V63l0.2-0.5v-1.4l-0.2-0.2h-0.2l-0.2,0.2l-0.2,0.2l-0.2,0.2l-0.2,0.2
	l-0.2,0.2H34l-0.2-0.2l0.2-0.2l0.2-0.2v-0.2l0.2-0.2l0.5-0.2l0.2-0.2v-0.2H35l-0.5,0.2l-0.2,0.2L34,60.9l-0.2,0.2h-1.5l-0.2,0.2
	l-0.2-0.2l-0.2-0.2l-0.2-0.2h-0.5l-0.2,0.2h-0.2l-0.2,0.2l-0.2,0.2l-0.2,0.2h-0.5l-0.2-0.2h-1.2l-0.2,0.2l-0.2-0.2H27l-0.2-0.2
	l-0.2,0.2h-0.2l-0.2-0.2l0.2-0.2v-0.2h-0.2l-0.2-0.2h-0.2l-0.2,0.2h-0.5l-0.2,0.2v0.2l-0.2,0.2l-0.2,0.2l-0.2,0.2v-0.2l-0.2-0.2
	v-1.2l-0.2-0.2v-0.2h-0.2l-0.2-0.2h-0.5l-0.2,0.2L22,59.9v0.2l0.2,0.5h0.2v0.2l0.2,0.2l-0.2,0.2h-0.2L22,61.8l0.2,0.2v0.2l0.2,0.2
	v0.2h0.2v0.5l0.2,0.2v0.2l0.2,0.2h0.2l0.2,0.2v0.5h-0.5l-0.2-0.2l-0.2-0.2V64l-0.2-0.2l-0.2-0.5L22,63h-0.5l-0.2,0.2v1.2h-0.7v-1
	h0.2v-0.2L21,63l0.2-0.2v-1.2l0,0v-0.2H21l-0.2-0.2h-0.2l-0.2-0.2h-1.4l-0.2-0.2h-0.5v0.2l-0.5,0.2h-0.5l-0.2,0.2h-0.2v0.2h-2.9
	l-1.7-0.2v-0.2l0.5,0.2h0.2l0.2-0.2v-0.5l0.2-0.2v-0.2h0.5v1h0.2l0.5,0.2l0.2-0.2v-0.2H15v-1.2l-0.2-0.2l-0.2-0.2h-0.2L14.1,59
	l-0.2-0.2l-0.2-0.2h-0.5l-0.2-0.2l0.2-0.3v-0.2h-0.2l-0.2-0.2V57h0.2l0.2-0.2v-0.2h0.2V56h0.2l0.2,0.2v0.2h0.5v-0.2h0.2l0.2-0.2H15
	v0.2h0.7v-0.7h-0.5v-0.2l-0.5-0.2h-0.2L14,54.8h-0.5v-0.2l0.2-0.2v-0.2l0.2-0.2v0.2h0.2l0.2,0.2h0.7l0.2,0.2v0.2l0.2,0.2v0.2
	l0.2,0.2l0.2,0.2v1L16,57v0.2l0.2,0.2l0.2,0.2h0.2V58H17l0.2,0.2h0.2l0.2,0.2l0.2-0.2V58l0.2-0.5l0.2-0.2l0.2,0.2h0.7l0.5-0.2
	l0.2,0.2v0.2h0.2l0.2-0.2l0.2,0.2h0.5V58l0.2,0.2v0.2l0.2,0.2H22v-0.2h0.7V59H23v-0.2l0.2-0.2v-0.2l0.2-0.2v-0.2h0.5V58l0.2,0.2v1.2
	l0.2,0.2v1l-0.2,0.2v0.5l-0.2,0.2h0.2l0.2-0.2v-0.5l0.2-0.5v-0.2h0.2V60l0.2-0.2h0.2l0.2-0.2l0.2-0.2l0.2-0.2v-0.2l0.2-0.2V58
	l0.2-0.2l0.2-0.2v-0.2L27,57l0.2-0.2l0.2-0.2v-0.2h-0.2v-0.5L27,55.6v-0.2h1.2v-0.2l0.5-0.2h0.2v-0.2l0.2-0.2v-0.2h0.2v-0.2
	l-0.2-0.2h0.2v-0.2l0.2-0.2V51l-0.2-0.2h-0.2L28.7,51h-0.2l-0.2-0.2H28v-0.2l-0.2-0.2l-0.5,0.2h-0.5l-0.2,0.2h-0.3L25.8,51l-0.2,0.2
	l-0.2,0.2h-0.7l-0.2,0.2h-0.2L23.7,52l-0.5,0.2v0.2l0.2,0.2l-0.2,0.2l-0.2,0.2v0.5l-0.2,0.2v0.2l-0.5,0.2L22,54.6v0.2h-0.2l-0.2,0.2
	h-0.2L21,54.9l-0.2,0.2h-0.2l-0.2,0.2H20v-0.2l-0.2-0.2h-0.5v0.2h-0.7v-0.2h-0.2l-0.2-0.2v0.2l-0.2-0.2h-0.2l-0.2-0.2v-0.2l-0.2-0.2
	l-0.2-0.5l-0.2-0.2V53h-0.2v-0.2L16,52.2V52l-0.2-0.2l-0.2-0.2l-0.2-0.2v-0.5L15,50.5v-0.2l-0.2-0.2l-0.2-0.2l-0.2-0.2L14,49.3v-0.2
	l-0.2-0.5h1.4l0.2-0.2l0.5-0.2v-0.2h-0.2l-0.2-0.2H15v-0.2l-0.2-0.2V46l-0.2-0.2v-0.2l-0.2-0.2v-0.5l0.2-0.2v-0.5h-0.2v-0.2H14v-0.5
	l-0.5-0.2l-0.2-0.2v-1l-0.2-0.5l-0.2,0.2V44h-0.5v0.2l0.2,0.2v0.2l0.2,0.2v0.2h-0.5V45l-0.2-0.2V44h-0.7l-0.2,0.2h-1l0,0H9.5V44H9
	v0.2H8.8L8.5,44h0.2v-0.2L9,43.6h0.5l0.2-0.2l0.2-0.2l-0.5-0.2H9.2L9,43.1l-0.5-0.2l-0.2-0.2v-0.2h0.2v-0.7h0.2L9,41.4h0.5v-0.2h0.2
	v-0.7l0.2,0.2l0.2-0.2v-0.2l0.2-0.2l0.2-0.2l0.2-0.2l0.2,0.2h0.2v-0.2l0.2,0.2h0.2v-0.2l0.2-0.2l0.2,0.2h0.7v-0.2l-0.2-0.5l-0.2-0.2
	l-0.2-0.2v-1l0.5-0.2l0.2-0.2h0.7l0.2-0.2h0.2l0.2-0.2H15l0.2,0.2l0.2,0.2l0.2-0.2h0.5l0.2-0.2v0.7l0.2,0.5h0.7l0.2-0.2l0.5-0.2h0.2
	l0.2-0.2h0.5l0.2,0.2l0.2,0.2l0.2,0.2h1.4v1l0.2,0.2h1v0.5l-0.2,0.2v0.2l0.2,0.5v0.5h0.2v-0.2l0.2-0.2h0.2l0.2-0.2l0.2-0.2h0.2
	l0.2,0.2v0.5l0.2,0.5l0.2,0.2v0.2l0.2,0.2v0.2h0.2v-0.2h0.2v-0.2h0.2v1l-0.2,0.2h-0.3v0.5h0.2l0.5,0.2h0.2v0.5h-1l0.2,0.2v0.2
	l0.2,0.2H26l0.5,0.2V45l0.2,0.2l0.2,0.2v0.2l0.2,0.2H28v0.5l0.2,0.2h0.2l0.2-0.2V46l0.2-0.2V46l0.2,0.2h0.2l0.2,0.2h0.2l0.2,0.2h0.2
	l0.2-0.2l0.2-0.2V46l0.2-0.2l0.5-0.2v-0.2h0.5V45l0.2-0.2v-0.2l-0.2-0.2h-0.2v-0.5l-0.2-0.2v0.2h-0.2l-0.2-0.2v-0.2l0.2-0.2v-0.5
	h-0.3v-0.5l0.2-0.2l0.2-0.2v-0.2l0.2-0.2v-0.7h-0.2l-0.2-0.2v-0.5l-0.2-0.2v-0.2h-0.7L29.9,39v-0.5L29.7,38h0.2l0.2-0.2l0.2-0.2
	l0.2,0.2V38l0.2,0.2v0.2l0.2,0.2V39h0.2l0.2,0.5v0.2l0.2,0.2l0.2,0.2l0.2,0.2v-0.7l0.2-0.2l0.2-0.2H33v0.2h0.2v0.2H34V40l-0.2,0.2
	v0.2l0.2,0.2h0.2l0.2,0.2h0.2l0.2-0.2h0.2l0.2,0.2l-0.2,0.2v0.2h0.2v0.2h0.5l0.2,0.2v0.7l0.2,0.2l0.2,0.2l0.2,0.2l0.2,0.2l0.2,0.5
	l0.2,0.2l0.2,0.2v0.2l0.2,0.2v0.2l0.2,0.2h0.5l0.2,0.2l0.2,0.2l0.2,0.2h0.7l0.5-0.2h0.2v0.2h0.5l0.2,0.2h1.4l0.2,0.2h1v-0.2h0.5
	v-0.2H45l0.2-0.2h0.5v0.2l-0.2,0.5v1h0.2l0.2-0.2V47h0.2v-0.5h0.5l0.2-0.2V47h0.5l0.2-0.2l0.2-0.2l0.2-0.2h0.2l0.2-0.2h1l0.2,0.2
	l0.2-0.2h0.5l0.5-0.2h0.5l0.2-0.2l0.2-0.2l0.2-0.2l0.2-0.2l0.2-0.2l0.2-0.2l0.2-0.2h0.5l0.5-0.2h0.5l0.2-0.2l0.2-0.2v-0.2h0.2
	l0.2-0.2l0.2-0.2l0.2-0.2l0.2-0.2l0.2-0.2l0.2-0.2H57l0.5-0.2h0.2l0.2-0.2l0.2,0.2h0.2l0.2-0.2h0.2v-0.5l-0.2-0.2h-0.2V40h-0.2l0,0
	h0.2l0.2-0.5h0.2v-0.2h0.2v-0.5h-0.2V39h-0.2v-0.5h0.2V38h0.2l0.2-0.2h-0.2v-0.2h-0.2l-0.2,0.2L58.5,38v-0.5l-0.2-0.2h-0.5v-0.5
	l0.2-0.2v-0.2h0.2v-0.2H58l-0.2-0.2h-0.5v0.2H57l-0.2-0.2h-0.2v-0.5l-0.2-0.2v-0.5H56l-0.2-0.2h-0.2l-0.2-0.2h-0.2v-0.7h0.2
	l-0.2-0.2l0.2-0.2h0.5v0.2h0.2l0.2,0.2h0.2l0.2-0.2h0.7v0.2l0.2,0.2H58l0.2-0.2v-0.7H58l-0.2-0.2h0.7l0.2,0.2L59,33h0.5v-1l-0.2,0.2
	h-0.5V32l0.2-0.2h0.2v-0.5h-0.5L58.5,31l-0.2-0.2H58l-0.2-0.2h-0.3v-0.5h0.2v-0.2H58l0.2-0.2v-0.2h0.2l0.2,0.2l0.2,0.2h0.7v0.2h0.5
	l0.2,0.2l0.2,0.2h0.2v-0.2h0.2l0.2-0.2l0.2,0.2h0.2l0.2,0.2h0.7v-0.2l-0.2-0.2l0,0l-0.2-0.2l-0.2-0.2v-0.2l0.2-0.2l0.2-0.2v-0.2
	l0.2-0.2l0.2-0.2v-0.5l0.2-0.2v-0.2h0.2v-0.7h-0.2L63,26.3v-0.7h0.2v-0.5l0.2-0.2h1l0.2-0.2l0.2-0.2l0.2-0.5h0.2v-0.2l0.2-0.2v-0.2
	h0.2v-0.5h0.2l0.5-0.2h0.2l0.2-0.2h-0.2V22h0.2v-0.2l0.2-0.2l0.2-0.2V21h0.2v-0.2l0.2-0.2v-0.2l0.2-0.2h0.2v-0.2l0.2-0.2H69l0,0
	l-0.2,0.2V20h-0.2l-0.2,0.2v0.2h0.2v0.2h0.2V21h0.5v0.2h0.5l0,0H70v0.2h0.2v0.2L70,22h-0.2l-0.2-0.2h-1v0.7h0.7v0.2L69,23h-0.2
	l-0.2,0.2h-0.2v-0.7h-0.2v-0.2h-0.2v0.2l-0.2,0.2h-0.2V23h0.5v0.7h-0.2l0.2,0.2v0.5h0.2l0.2,0.2l0.2-0.2v0.2h0.2v1.2l-0.2,0.2v0.2
	h-0.2l-0.2,0.2h-0.7v-0.2l-0.2-0.2v-0.2h0.5v-0.5h-0.5l-0.2,0.2l-0.2,0.2h-0.5v-0.2h-0.2l-0.2,0.2h-0.2v-0.5l0.2-0.2h0.2l0.2-0.2
	v-0.2l0.2-0.2V24h0.2v-0.2h-0.5L65.9,24v0.5h-0.2V24l-0.2,0.2l-0.2,0.2h-0.2v0.2h-0.2v0.5l0,0v0.2h0.2v1.4h0.2v0.7l-0.2,0.2v0.5
	l0.2-0.2l0.2,0.2l0.2-0.2l-0.2,0.2v0.5h0.2l0.2-0.2v-0.2l0.2,0.2h0.2V29l0.2,0.2V29h0.2v-0.2l0.2-0.2h-0.2V28h-0.2v-0.2l0.2-0.2h0.5
	v-0.2h0.2l0.2-0.2h0.2l0.2-0.2h0.2l0.2,0.2H69v0.2l-0.2,0.2l-0.2,0.2H68v-0.2h-0.2l-0.2,0.2h-0.2v0.7h0.2v0.2h0.2v-0.2H68v1l0.2,0.2
	h0.2l0.2,0.2l0.2,0.2v0.5l-0.2,0.2v0.2l-0.2,0.2v0.2l-0.2,0.2H68v0.2l0.2,0.2v-0.2h0.5v1.4L68.5,34v0.2l-0.2,0.2v0.2l0.2,0.5v0.2h1
	v0.2h0.2v0.7H70v0.2h0.5l0.2-0.2v-0.2L71,36v-0.2l0.2-0.2h0.5v-0.2h0.2v-1l0.2-0.2v-0.2h0.7v-0.5h0.5V33h0.2v0.2h0.2V33h0.5v-0.2
	l0.2-0.2l0.2-0.2v-0.5H75v-0.5l-0.2-0.2h-0.5v-0.5h0.2v-0.2h-0.2v-0.5l-0.2-0.2v-0.2h0.2v-0.2L74.1,29h-0.5v-0.2l0.2-0.2h-0.2V28
	h-0.2v-0.2h0.2v-0.5L73.3,27v-1.2l0.2-0.2v-1l0.2-0.5v-0.2l-0.2-0.2h-0.5l-0.2,0.2h-0.2l-0.2-0.2v0.5h-0.7v-0.2l0.2-0.2l0.2-0.2
	l0.2-0.2v-0.5h-0.2v-0.2h0.2v-0.7h0.5l0.2-0.2v-0.2L72.9,21h0.2v-0.5h-0.2l-0.2-0.2V20l0.2-0.2l0.2,0.2h0.2v-0.2l-0.2-0.2v-0.2h-0.2
	v-0.5h0.2v-0.5l0.2-0.2v-0.2h0.2v-0.7l0.2-0.2h0.2v-0.2h-0.2v-0.2h0.2v-1l0.2-0.2V15l0.2-0.2v-0.5h-0.2V14h0.2v-0.2h0.2l0.2-0.2
	v-0.2h0.2v-0.5h0.2l0.2-0.2v0.2H76v-0.2h0.2v-0.5l0.2-0.2l-0.2-0.2v-1l0.2-0.2l-0.2-0.2V9.5l0.5-0.2H77V8.8l-0.2-0.2V8.3L77,8.1V7.3
	l-0.2-0.5h-0.2V6.4h-0.2V5.9H76V5.7h0.5l0.2-0.2v0.2H77l0.2,0.2V5.7h0.7v0.2h0.2V5.4l0,0V5.2L77.9,5h-0.2V4.7h-0.5V4.5l0,0V4.2h-0.5
	L76.5,4V3.8l-0.2-0.2H76V3h0.2l0.2-0.2V2.5l0.2-0.2l0.5,0.2v0.2h0.2L77.7,3h0.2l0.2,0.2h0.2l0.2,0.2l0.2,0.2h0.2L79.4,4h0.5V3.3
	L80.1,3h0.2V2.8l0.2-0.2h0.2v0.2h0.5v1.4l0.2,0.2V3.8h0.2V3.3H82v0.2l0.2,0.2V3.5l0.2-0.2V3l0.2-0.2H83l0.2-0.2V3h0.2V2.8l0.2-0.2
	h0.2v0.2L84.2,3v0.5l0.2,0.2L84.6,4l0.2-0.5v0.2h0.2V3.5l0.2-0.2V3l0.2,0.2H87l0.5-0.5l0.2-0.2l0.5-0.2L88.4,2l0.2-0.5v0.2h0.2
	L89.2,2h0.2v0.5h0.5V2.3l-0.2-0.2V1.6h-0.2l-0.2-0.5l0.2-0.2h1.2v0.2h0.2l0.2,0.2v0.2l0.2,0.5l0.2,0.2h0.2L92,2.1h0.2l0.2,0.2v1
	l-0.2,0.5V4L92,4.5l0.2,0.2h0.2L92.8,5H93l0.2,0.2H94l0.5,0.2L95,5.7h0.7v0.2l0.2,0.5l0.2,0.2v0.2l0.2,0.2l0.2-0.2h0.2l0.2-0.2h0.2
	v0.2h0.2v0.2l0.2,0.2V7.1h0.2v0.2h1v0.2l0.2,0.2v0.2h0.2l0.2-0.2h0.2l0.2,0.2L100,8.3l0.2,0.2h0.2v0.2h0.2L101,9V8.6l0.2-0.2V7.6
	h0.5v0.7h0.2l0.2,0.2l0.2,0.2v0.5h-0.2v0.5h0.2l0.2-0.2h0.2l0.2-0.2h0.5v0.2l0.2,0.2h1L105,10l0.2-0.2V9.5l0.2-0.2V9l0.2-0.2
	l0.2-0.2l0.2-0.2l0.2-0.2l0.2-0.2l0.2-0.2l0.2-0.2V7.1l0.2-0.2l0.2-0.2V6.4h0.2l0.2-0.2V5.9h0.2l0,0l1,0.2v0.5h0.2l0.2,0.2v1.7h0.2
	v1h-0.2l-0.2-0.2V9h-0.2l-0.2-0.2V9h-0.2l-0.2,0.2v1.9h0.2v-0.5h0.2v0.2l0.2,0.2h0.2v0.2h-0.2l-0.2,0.5h-0.2l-0.2,0.2h-0.2v0.5
	l-0.2,0.2l-0.2,0.2h-0.2l-0.5-0.2h-0.5v0.2l0.2,0.2v0.2l0.2,0.2l0.2,0.2v0.2l0.2,0.2h-0.5l-0.2-0.2l-0.2-0.5v-0.2l-0.2-0.2v-0.5
	l-0.2-0.2l-0.2-0.2h-0.2l0.2,0.5v0.5l-0.2,0.2v0.2l-0.2,0.2h-0.7l-0.2-0.5l-0.2,0.2l-0.2,0.5h-0.2l-0.5,0.2v0.2h-0.2l-0.2,0.2v0.2
	l-0.5,0.2h-0.2l-0.2,0.2h-1l-0.5-0.2h-0.2v0.2L100,16l-0.2,0.2l-0.2,0.2v1.7l-0.2,0.2v0.7L99,19.4v0.5h-0.2v0.5l-0.2,0.2V21H99v-0.2
	h0.7v2.4h-0.2v0.2h-0.2v0.2H99v0.2h-1.4l-0.2-0.2v-0.2l-0.2-0.2h-0.2V23l-0.2,0.2h-0.2l0.2,0.2V24h-0.2v0.2l0.2,0.5v1h0.2l-0.2,0.2
	h-0.2l-0.2,0.2l-0.2,0.2l-0.2,0.2h-0.5l-0.2,0.2L94.7,27l-0.2,0.2h-0.2v0.2H94V28h0.2v-0.2l0.2-0.2h0.7v-0.2h0.5V27l0.2,0.2h0.5
	l0.2,0.2l0.2,0.2v1L96.6,29h0.5v-0.2l0.2-0.7h0.2v-0.5h0.2V27l0.2-0.2h0.2l0.2,0.2h0.2l0.2,0.2h-0.2v1.2H99v0.2h0.5l0.5-0.2h0.2
	l0.2-0.2h0.5l0.2,0.2h0.2l0.2,0.2h0.2l0.2,0.2l0.2,0.2l0.2,0.2l0.2,0.2h0.2v0.2l0.2,0.2l0,0l0.2-0.2v-0.2l0.2-0.2l-0.2-0.2h0.2v0.2
	h0.2v0.2h-0.2v0.2h-0.2v0.5h-0.2v0.5l-0.2,0.5l-0.2,0.2h-0.2l-0.2,0.5l-0.2,0.2v0.2l-0.2,0.2V33l-0.2,0.2l-0.2,0.2l-0.2,0.2
	l-0.5,0.5l-0.5,0.2L100,35l-0.2,0.2l-0.2,0.2v0.2L99.3,36v0.5L99,36.7v2.6l0.2,0.5v1l0.2,0.5v1l-0.2,0.2V43H99l-0.2,0.5l-0.2,0.7
	l-0.2,0.5v0.2L98,45.2v0.5l-0.2,0.2v0.5l-0.2,0.2H98V47l-0.2,0.2l-0.2,0.2V48h0.2v0.5l-0.2,0.2v0.2l0.2,0.5v0.7l0.2,0.2l-0.2,0.2
	v0.7h-0.2v1.2h0.2l0.2-0.2v-0.5h0.5l0.2-0.2v0.2l0.2,0.5l0.2,0.2h0.5V53H99l-0.5-0.2h-1v0.7l-0.2,0.2V54L97,54.2h-0.2v0.2h-1.2
	l-0.2,0.2l-0.2,0.2v-0.2h-0.2v-1.5l-0.2-0.5L94.4,53v-0.5l-0.2-0.2v-1h0.2V51l-0.2-0.2v-0.5h0.2l0.2,0.2h0.5v-0.7l0.2-0.2v-1
	l-0.2,0.2V49h-0.2v0.2h-0.2v0.2l-0.5,0.2L94,50h-0.5l-0.2,0.2v0.5h0.2V51h0.2v0.2h-0.2v0.5l-0.2,0.5v0.5l0.2,0.2v0.5l0.2,0.2
	l0.2,0.2v0.5l-0.2,0.2v0.5l-0.2,0.5l-0.2,0.2L93,56v0.2l-0.2,0.2l-0.5,0.2l-0.2,0.5h-0.2l-0.2,0.2V58h0.2l0.2-0.2l0.2-0.2l0.2-0.2
	V57l0.5-0.2l0.5-0.5v-0.7h0.2v-0.2H94v-0.2h0.5v-0.2h0.2v0.5h0.5v1.9H95v0.2h-0.3l-0.2,0.2h-0.2v0.5h0.2v0.2l-0.2,0.2V59L94,59.2
	v0.5L93.7,60l0.2,0.2v0.5h0.2v-0.2h0.2v-0.2h0.2V60l0.2-0.2V59h-0.2v-0.2h0.5v-0.2l0.2-0.2l0.2-0.2v-0.2l0.2-0.2V57l0.2-0.2
	l-0.2-0.2V56h0.2l0.2-0.2h0.2V56h0.2v0.5h0.2v0.2h0.2v0.7l-0.2,0.2v0.5l0.2,0.2l0.2,0.2l0.2,0.2v0.2h-0.2l0.2,0.2h0.2v0.2h0.2
	l0.2-0.2L98.5,59.2z M66.4,57.8h-1.7L64.5,58l0,0h-0.2L64,58.2l0.2,0.2h0.5v0.7h-0.2v0.5l-0.2,0.2v0.2H63l-0.2,0.2h-1.7l-0.2,0.2
	l-0.5,0.2h-0.2v-0.7h-1l-0.2,0.2v0.2h-0.2v0.5h0.2v0.2l0.2,0.2h0.7l0.2-0.2l0.2-0.2v-0.2h0.2v0.2l0.2,0.2h0.7v0.2h-0.2l-0.2,0.2
	l-0.2,0.5v0.5h-0.5l0.2-0.2v-0.2l-0.2-0.2v-0.2h-0.2v0.2h-0.2v0.7h0.2V63l-0.2,0.2h0.5v0.2l0.2,0.2v0.5l0.2,0.2V65h-0.5l-0.2-0.2
	h-0.2l-0.2-0.2h-0.2l-0.2,0.2h-0.7v-0.2l-0.2-0.2h-0.5v0.2l-0.2,0.2h-0.2L57,65v0.2l0.2,0.2v0.2h-0.5V66h-0.2v0.5h0.2l0.2-0.2
	l0.2,0.2H58l0.2-0.2h0.2v-0.5h0.2l0.2-0.2l0.2,0.2h1.2l0.5-0.2h0.5l0.5-0.2l0.2-0.2l0.2-0.2h1l0.5,0.2H64l0.2,0.2v0.2l0.2,0.2h0.2
	v-0.2H65l0.2-0.2l0.2-0.2v-0.7h-0.2v-0.5h0.5l-0.2-0.2v-1.2h-0.2v-0.2l0.2-0.2v-0.7h-0.2l0.2-0.2l0.2-0.2v0.5l0.2,0.2v0.2l0.2,0.2h1
	v-0.2l0.2-0.2v-0.2h0.2v-0.5h0.2l0.2-0.2h-0.2l-0.2-0.2L67.4,60h-0.5l-0.2-0.2V59l-0.2-0.2v-0.2h0.2v-0.2L66.4,58l0.2-0.2L66.4,57.8
	z M99.7,61.8v-0.2h-0.2L99.7,61.8z M96.9,64.5h-0.2v-0.2l-0.2,0.2v0.2h0.2V65h0.2v0.7l0.2,0.2h0.2v-1.5
	C97.3,64.5,96.9,64.5,96.9,64.5z M68.3,54.6l-0.2,0.2h-1.2l-0.2,0.2h-0.7l-0.5,0.2l-0.2-0.2h-0.2l-0.5-0.2h-0.2L64,55.1v0.2
	l-0.2,0.2v0.2l0.2,0.2h0.2v0.2L64,56.6l0.2,0.2V57h-0.7l-0.2-0.2h-1v0.5l0.2,0.2v0.2l0.2,0.2v0.2l0.2,0.2v0.2h0.2v-0.5l0.3-0.2
	l0.2-0.2h0.7V57h0.2l0.2-0.2h0.2v-0.2h0.7l0.2-0.2h0.2l0.2-0.2l0.5-0.2h1l0.2-0.2v-0.5l0.2-0.2L68.3,54.6z M95.9,48.9L95.9,48.9h0.2
	v-0.5l0.2-0.2v-0.7l-0.2,0.2l-0.2,0.2V48.9L95.9,48.9z M78.1,32.8h-0.7v-0.5h0.2v-0.5h-0.5v0.2h-0.2v0.7h-0.2V33h0.2v0.2h0.2V33h0.2
	v0.2h1v-0.5L78.1,32.8z M77.7,30.4v-0.2h-0.5v-0.2h0.2v-0.2l-0.2-0.2V29h-0.2v1h-0.2v1.2h0.2v0.2h0.2V31l0.2-0.2v-0.2L77.7,30.4z
	 M76.7,26.1h1.2v-0.5h0.2v-0.5h0.2v-0.2l0,0v-0.2h0.7v-0.7h-0.5l-0.2,0.2h-0.2l-0.2,0.2h-0.2v-0.5l0.2-0.2v-0.2h-0.2l-0.2-0.2v0.7
	l-0.2,0.2h-0.2v0.2h-0.2v1.4h-0.2v0.2L76.7,26.1z M77.1,23.4v-0.7l-0.2-0.2h0.2l0.5,0.2V23h0.2v-0.7L77.7,22l-0.2-0.5v-0.2l-0.2,0.2
	h-0.2v0.7l-0.2,0.2v0.2h-0.2V23h0.2v0.2l0.2,0.2L77.1,23.4z M74.3,21.5h-0.2V22h-0.2v0.5l-0.2,0.2l0.2,0.2l0.2-0.2h0.2V21.5
	L74.3,21.5z M76.7,19.6v-0.2h-0.2v1h0.2v0.5h0.2v-0.2l-0.2-0.2l0.2-0.2v-0.5L76.7,19.6z M76.5,14.8H76L75.8,15v0.2H76l0.5,0.2
	l0.2-0.2H77V15L76.5,14.8z M77.2,13.1h-0.5l-0.2,0.2v0.2h0.5v-0.2h0.5v-0.2H77.2z M79.3,10V9.8l-0.2-0.2h-0.5v1h-0.2v0.2h0.2v-0.5
	h0.2V10H79.3z M76.7,10.5h0.7l0.2-0.2h0.2v0.2h0.2l0,0h0.2V10l0.2-0.2V9l-0.2,0.2h-0.2V9h-0.5l-0.2-0.5h-0.2v1h-0.7v1L76.7,10.5z
	 M67.1,32.3h-0.2v0.2h-0.2l-0.2,0.2V33h0.7L67.1,32.3L67.1,32.3z M67.6,30.6h-0.2l0,0h-0.5v0.2h0.7l0.2,0.2v-0.5H67.6z M66.6,23
	v-0.2h0.5v-0.2h-0.2l-0.2,0.2h-0.5V23l-0.2,0.2v0.2h0.2v-0.2h0.2L66.6,23z M36.9,67.1h-1.2l-0.5,0.2h-0.2v0.2h-0.2l0.2,0.2h0.5
	l0.5,0.2h0.7v-0.5h0.5v0.2l0.2,0.2h0.2v0.5l0.2-0.2l0.2-0.2l-0.2-0.2l0.2-0.2l-0.2-0.5v-0.2h-0.7L36.9,67.1z M59.9,67.8h-0.5
	l-0.2,0.2h-1v0.5h-0.6L57,69.3h0.2v0.2l0.2,0.2H58l0.5-0.2H59l0.2,0.2l0.2-0.2h0.2l0.2,0.2h0.5v-0.2l0.2-0.2V69h0.5l0.2-0.2v-0.5
	h-0.3L60.9,68h-0.2l-0.2,0.2h-0.5L59.9,67.8L59.9,67.8z M65.9,70l0.2-0.2v-0.2l0.2-0.2h0.2l0.2-0.2l0,0v-0.5l-0.2-0.2v-0.2h-1
	l-0.2,0.2v0.5l0.2,0.2l-0.2,0.2v1h0.5L65.9,70z M38.3,69.8h0.2v-0.5h-0.2L38.1,69h-0.5v-0.2h-1V69h0.7l0.2,0.2l0.2,0.2l0.2,0.2
	L38.3,69.8z M91.6,70l0.2-0.2v-1l0.2-0.2V68h-0.2v0.7h-0.2v0.5h-0.2V70H91.6z M38.8,88.7v-0.2l-0.2-0.2v-0.7l-0.2-0.2h-0.2v0.5
	L37.8,88l0.2,0.2V89h0.2v0.2h0.2l0.2,0.2H39v-0.2h-0.2L38.8,88.7L38.8,88.7z M82.7,77.7l0.2-0.2V77l0.2-0.2v-0.2l0.2-0.2l0.2-0.2
	v-0.5h-0.2V75l-0.2,0.2v0.2l-0.2,0.2h-0.2V76h-0.2l-0.2,0.2v0.5H82V77l-0.2,0.2V78h-0.3v0.2h0.2L82,78l0.2-0.2l0.2,0.2h0.2
	L82.7,77.7z M75.7,10.3h-0.2V9.8L75.3,9V8.6L75,8.3V7.6l-0.2-0.2V6.6L75,6.4h0.2v0.5h0.2v0.2l0.2,0.2v0.5H76v1.4h0.2v0.2H76V10
	L75.7,10.3z M74.1,8.1l-0.2,0.2h-0.5V9h0.2v0.5h-0.2l0.2-0.2V9h-0.2V8.3l0.2-0.2l0.2,0.2L74.1,8.1C74.1,8.1,74.1,8.1,74.1,8.1z
	 M67.1,15.8v0.5l-0.2,0.2v0.2h-0.5v0.2l0.2,0.2l-0.2,0.2h-0.2l-0.2,0.2h-0.2v-0.2h-0.2v-0.2l-0.2-0.2h-0.2l0.2-0.2v-0.5l0.2-0.2h0.7
	l0.2-0.2C66.3,15.8,67.1,15.8,67.1,15.8z M65.4,18.6h0.2v0.5l-0.2,0.2l0.2,0.2h0.5l0.2,0.2V21l0,0v1.2h-1v0.2h-0.2v-0.2h-0.2V22
	h-0.7L64,21.8V21l0.2-0.2V20H64v-0.2h0.2v-0.2l0.2-0.2v-0.7H65l0.2-0.2h0.2L65.4,18.6z M102.8,21.8l-0.5,0.5l-0.5,0.5V23h-0.5
	l-0.2,0.2h-0.5V23h-0.2l-0.2-0.2V22l0.2-0.2l0.2-0.2h0.2v0.2h0.5V22l0.2-0.2l0.2-0.2h0.2v-0.2l0.2,0.2h0.5L102.8,21.8z M70,22
	l0.2,0.2h0.5v0.2H71v-0.2h0.2l0.2,0.2V23h-0.2v0.2L71,23.5V24l0.2,0.5v0.5H71v0.2l-0.2,0.2v0.2h0.5v0.2h0.2l0.2,0.2v0.2h0.2l0.2,0.2
	h-0.3v0.2h-0.2l-0.2,0.2v0.2h-0.2l-0.2,0.2v-0.2h-0.2L70.5,27v-0.2h-0.2v0.7H70v-0.2L69.7,27l-0.2-0.5v-0.7h0.2l0.2-0.2v-0.2h0.2
	v-0.2L70,24.9l-0.2-0.2H70v-0.7l-0.2-0.2l0.2-0.2V22z M64,23.7h-0.2l-0.2-0.2v-0.2L63.3,23v-0.2l0.2-0.2v0.7l0.2,0.2L64,23.7z
	 M70.7,29.7h0.5l0.2-0.2h0.2l0.2,0.5v0.5h-0.2v1.9h-0.2l0.2,0.2v0.2h0.7L72.2,33h-0.5v0.2h-0.5V33H71v0.2h-0.3l-0.2,0.2v0.2H70v-0.5
	h0.2v-0.7h0.2v-0.2h0.2v-1.2l0.2-0.2v-0.5h-0.3l-0.2,0.2l-0.2-0.2v-0.5L70,29.7V29h0.2l0.2,0.5v0.2L70.7,29.7z M113.7,35.9l-0.2,0.2
	v0.7l0.2,0.2l0.2,0.2h0.2l0.2,0.2v0.2h0.5v0.2l0.2,0.2V39l-0.2,0.2h-0.2v0.2H114v0.2l-0.2,0.2v0.2l-0.2,0.2v1l-0.2,0.2v0.2l-0.2,0.2
	v0.2h-0.5v0.2H112l-0.2,0.2l-0.2,0.2l-0.2,0.2h-0.5l-0.2,0.7h-0.2l0,0h-0.2v0.5l-0.2,1v1.2l-0.2,0.2l-0.2-0.2h-0.2v-0.5h0.2
	l-0.3-0.3v-0.2l0.2-0.2v-1l-0.2-0.2V44l-0.2-0.2h-0.2v-0.5l-0.2-0.2v-2.6h0.2l-0.2-0.5h-0.2l-0.2-0.2v-1l0.2-0.7h1v-0.2h0.2v-0.2
	h0.5V38h0.2v-0.2l0.2-0.2v-0.5l0.2-0.2h0.2v-0.2l0.2-0.2l0.2-0.2v-0.2l0.2-0.2v-0.2l0.2-0.2L112,35v-0.2l0.2-0.2l0.2-0.2V34l0.2-0.2
	h0.5V34l-0.2,0.5V35l-0.2,0.7v0.5h0.5V36l0.2-0.2v-1.2l0.2-0.2l0.2-0.2h0.2v-0.2h0.2v-0.2l0.2,0.2v0.5l-0.2,0.2l-0.2,0.2v0.5h-0.2
	v0.2L113.7,35.9z M102.1,46h0.2v0.2l0.2,0.2v0.2h0.7v-0.2l0.2,0.2l0.2,0.2h0.2l0.2,0.2v0.2h0.2l0.2-0.2V47h0.2l0.2,0.2l0.2,0.2v0.2
	l0.2,0.2l0.2,0.2h0.2v-0.7l-0.2-0.2l-0.2-0.2v-0.5l0.2,0.2h0.2V47h0.2v0.2h0.2V48l-0.2,0.2v0.5l-0.2,0.2v0.2H106v0.2h-1l-0.2-0.2
	h-0.5v-0.7l0.2-0.2h-0.2V48H104l-0.2,0.2V48h-0.2v0.2h-0.2v0.5h0.2v0.5l-0.2,0.2v0.2h-0.2v0.5h-0.2v0.2l-0.2,0.5v0.7h-0.2l-0.2,0.2
	l-0.2-0.2v-1.2l-0.2-0.2v-0.5l0.2-0.2v-1h0.2v-0.2l-0.2-0.5v-0.2h-0.2v-0.2l-0.2-0.5V46l-0.2-0.2l-0.2-0.5v-0.7l0.5-0.7v0.2h0.2v0.2
	h0.2v1.2L102.1,46z M0.6,45h0.7v0.2h0.2v0.2h0.2V46H1.6l0,0H1.3v-0.2H1.1V46h0.2v0.5h0.5v0.2H2V47h0.5v-0.5h0.2v0.2l0,0v0.5H2.5
	l-0.2,0.2v-0.2H2v0.2H1.6v-0.2H1.3v0.2H1.1v-0.2h0.2V47H1.1v-0.7H0.9v-0.5H0.6v-0.2H0.4V45H0.6L0.6,45z M99.5,45.7h0.2l0.2,0.5
	l0.2,0.2v1h0.2l0.2,0.2l0.2,0.2v0.5l0.2,0.5v0.7h0.2V51l-0.2,0.2v0.2h-0.2l-0.2-0.2v-2.1l-0.2-0.2v-0.7h-0.2v-0.2h-0.5v-0.2h-0.2
	l-0.2-0.2v-0.2L99,47l-0.2-0.2l-0.2-0.2v-0.2l0.2-0.2v-0.5l0.2-0.2V45l0.2,0.2v0.5H99.5z M5.7,47.2v0.2h0.7v0.2H6.1l-0.2,0.2
	l-0.2-0.2v0.2H5.4v-0.7L5.7,47.2z M4.7,47.7L4.7,47.7h0.2v0.2h0.2v0.2h0.2v0.2l0,0v0.7H5.2v-0.2H4.9v-0.5H4.7v-0.5H4.5v-0.2
	l-0.2-0.2h0.5L4.7,47.7z M9.5,48.1v0.2h0.2v0.2H10v0.2h0.2v0.2l0,0v0.2h0.5v0.5l0,0v0.2h-0.5L10,50.3v0.2H9.7v0.2H9.5V51H10v-0.2
	h0.2v0.5l0.2,0.5v0.5h0.2v0.2H11v0.2h0.2V53h0.2v1.4h-0.2L11,54v-0.2h-0.5v-0.2l-0.2-0.2V53H10l0,0H9.7v-0.2H9.2v-0.5H8.8V52H8.5
	l0.2-0.2l0,0H9v-0.2H8.8v-0.7H9v-0.2l0,0v-0.2H8.8L9,50.1v-0.5H8.8v-0.5H8.5l0.2-0.2l-0.2-0.2H8.3v-0.2H8.1v-0.2h0.5v0.2h0.2v-0.2H9
	v-0.2h0.5L9.5,48.1z M5.9,49.3v0.2h0.2l0.2,0.2l0,0v0.2l-0.2-0.2v0.2h0.2l-0.2,0.2h0.2v0.2H6.1v-0.2H5.9v-0.5h0.2v-0.2H5.9L5.9,49.3
	z M14.7,52.7L15,53v-0.2h0.2V53l0.2,0.2v0.5h-0.7l-0.2-0.2v-0.2h-0.2v0.2L14,53.7h-0.2v-0.2l-0.2-0.2L13.3,53v-0.2l-0.2-0.2v-0.2
	h0.2v-0.5h0.2v-0.2l0.2,0.2H14l0.2,0.2l0.2,0.2l0.2,0.2L14.7,52.7z M7.7,53.2v-0.5H8V53L7.7,53.2z M7.3,53.4h0.5v0.2H8v0.2H7.8v0.5
	l-0.2-0.2v0.7h0.2v0.2H7.6v0.2H7.3v-1.2H7.1v-0.2H6.8v-0.2h0.2v-0.2l0.2-0.2L7.3,53.4z M8.3,53.7h0.2v0.5H8.3v0.7H8.1v-0.2l0,0v-0.5
	h0.2L8.3,53.7H8.1v-0.2L8.3,53.7z M58.4,84.9h0.2v-0.2l0.2,0.2l0.2,0.2h0.2l0.2,0.2v0.2h0.2v0.5h-0.2v-0.2h-0.2v-0.5h-0.2v0.5h-0.2
	l-0.2-0.2l0,0h-0.5L58,85.3v-0.5l-0.2,0.2l-0.2,0.2v-0.5h0.2v-0.7H58l0.2-0.2v0.2l0.2,0.2L58.4,84.9L58.4,84.9z M89.9,85.9v0.2h0.2
	v0.5h0.2l0.2,0.2h1V87h0.5v0.2h0.2v1l-0.2,0.2h-0.5v-0.2h-0.2L91.1,88v0.2l0.2,0.2l0.2,0.2v0.7h-0.2v0.5l-0.2,0.2l-0.2,0.2h-0.2v0.2
	l-0.5,0.2v-0.2h-0.2v0.2h-0.2l-0.2,0.2v-0.2l0.5-0.5l0.2-0.2v-0.2h-0.2l-0.2,0.5l-0.2,0.2h-0.2l-0.2,0.2v-0.2h-0.5l-0.2,0.2h-1v-0.7
	h0.2v-0.5l0.2-0.2H88l0.2,0.2h0.2v-0.2h0.2v-0.2L89,89l-0.2-0.2v-0.2h-1v-0.2h-0.2l-0.2,0.2H87v0.2l0.2,0.2L87,89.2v0.2l-0.2,0.2
	l-0.2,0.2h-0.2l-0.2,0.2h0.2l-0.2,0.2v-0.5l0.2-0.2v-1.4h-0.5V88h0.2v-0.2h1l0.2,0.2h0.5l0.5-0.2h0.2l0.2-0.2h0.5v-0.2l0.2-0.2h0.2
	v-0.5h-0.5v-0.5h0.2v-0.2l0.2-0.2v-0.2h0.2L89.9,85.9L89.9,85.9z M62.3,85.9h0.2l0.2,0.2l-0.2,0.2V87h0.7l0.2-0.2h0.2v-0.2l0.2-0.2
	l0.2-0.2v0.5h0.7v0.2L64.7,87l0.2,0.2v1l-0.2,0.2h-0.5v0.2L63.7,89h-0.2l-0.2,0.2v0.2H63l-0.2,0.2v-0.5h-0.5l-0.2,0.2l-0.2,0.2
	l-0.2-0.2h-0.5l0.2-0.2V89l-0.2-0.2l-0.5-0.2V88h0.2v-0.2l0.5-0.5l0.2-0.2v-0.5h0.2l-0.2-0.2h0.2v-0.2l0.2-0.2L62.3,85.9z
	 M39.7,91.6l0.2-0.2v0.5h0.5l0.2,0.2h-0.2v0.2h-0.2L40,92.5v0.2L39.7,93h-0.2v0.2H39v-0.5h0.2v-0.2l0.2-0.2v-1.2h0.2L39.7,91.6z
	 M37.1,93.8v0.7h0.2v0.2h-0.2V95l-0.2,0.2L36.6,95l-0.2,0.2v0.2h0.2v0.2L36.4,96v0.2L36.1,96v-0.2h-0.2V96l-0.2,0.2V96l-0.2-0.5
	v-0.2L35.2,95v-0.5l0.2-0.2v0.5h0.5V94l0.2-0.2L37.1,93.8L37.1,93.8z M39.3,95.2h0.5v0.2H40v-0.2h0.5v0.2l0.2,0.2v0.7l-0.2-0.2v0.5
	l-0.2,0.2v-0.5L40,96.2l-0.2,0.2v0.5l-0.2,0.2l-0.2-0.2H39v-0.7l0.2-0.2v-0.2H39l-0.2,0.2v0.5h-0.5v-0.7h-0.2v-0.5h-0.2l0.2-0.5h0.5
	l0.2,0.2h0.5V95.2z M35.7,96.4v0.7l-0.2,0.2v0.5h-0.2l-0.2,0.2v0.2h0.5v-0.2h0.2v-0.7l0.2-0.2h0.2l0.2,0.2h0.5l0.2-0.2v0.2h0.2v-0.2
	h0.5l-0.2,0.2v0.2h0.5v0.2l0.2,0.2v0.2h0.2v0.5h-0.7V99l0.2,0.2v0.2h0.2v-0.2l0.2,0.2h0.2v-0.2H39v0.5h-0.2v0.5L39,100v0.7h-0.5
	l-0.2-0.2H38V100h-0.2l-0.2-0.2l-0.2-0.2l-0.2-0.2L36.9,99v0.7h-0.5v-0.2l-0.2,0.2l-0.2-0.2v-0.2h-0.5v0.2l-0.2,0.2v0.5l-0.2-0.2
	v0.5l-0.2,0.2l0.2,0.2h0.7v-0.7h0.2v0.2h0.2l0.2,0.2l-0.2,0.2l-0.2,0.2v0.2h-0.2v0.5l-0.2,0.2h-0.5l-0.2-0.2l-0.2-0.2l-0.2-0.2
	l-0.2-0.2v-0.5l-0.2-0.2v-0.2l-0.2-0.2l-0.2-0.2v-1.5h0.2l0.2-0.2l0.2-0.2l0.2-0.2v-0.2l0.2-0.2v-0.5h-0.2v-0.2h0.7v-0.7h0.2v0.5
	l0.2,0.2L35.7,96.4z"/>
</svg>
