<?xml version="1.0" encoding="utf-8"?>
<!-- Generator: Adobe Illustrator 20.1.0, SVG Export Plug-In . SVG Version: 6.00 Build 0)  -->
<svg version="1.1" id="Layer_1" xmlns="http://www.w3.org/2000/svg" xmlns:xlink="http://www.w3.org/1999/xlink" x="0px" y="0px"
	 viewBox="0 0 52 126.1" style="enable-background:new 0 0 52 126.1;" xml:space="preserve">
<style type="text/css">
	.st0{fill:#C14803;}
</style>
<title>chilean</title>
<path class="st0" d="M49,11.8v0.5l0.2,0.2l0.2,0.2l0.2,0.2H50l0.2,0.2v2.9l0.2,0.2v0.2l0.5,0.2v1.4l-0.5,0.2l-0.2,0.2v0.7L50,19.7
	l-0.2,0.2v0.2l0.2,0.2l0.2,0.2v0.7L50,21.6v0.5l-0.2,0.2v0.5L49.5,23v0.5h-0.3L49,24l-0.2,0.2v0.2l-0.2,0.2v0.7l0.2,0.5v1.4
	l-0.2,0.5l-0.2,0.5h-0.5l-0.2,0.2V29l0.2,0.2v0.5L47.6,30h-0.2l-0.2,0.2l-0.2,0.2l-0.2,0.2v1.2l-0.2,0.2l-0.2,0.2v0.7l-0.2,0.2h0.2
	l-0.2,0.2v1.7h0.2V35h0.2v0.2h0.2v0.2l0.2,0.2V36H47l0.2,0.2l0.2,0.2l0.2,0.2v0.7l0.2,0.2h-0.2v0.5h-0.2v-0.2h-0.2L47,37.7l-0.2-0.2
	h-0.2v-0.2H46v0.2l0.2,0.2v0.2h0.2l0.2,0.2v0.5H47v1.2h-0.2v-0.2h-0.2l-0.2-0.2v-0.5h-0.2l-0.2-0.2v0.5l0.2,0.2v0.5h-0.2v0.5
	l0.2,0.2h0.2l0.2,0.2l0.2,0.2v0.2l-0.2,0.2v0.2h-0.2l0.2,0.2l0.2,0.2v0.2l-0.2,0.2L46.3,43v0.5l-0.2,0.2h-0.2v0.2h-0.2l-0.2,0.2
	l-0.2,0.2l0.2,0.2h0.2v0.2h0.2v0.5l0.2,0.2h0.2v0.5h0.2l0.2,0.2v0.5H47V47l0.2,0.2v1.2h-0.4l-0.2,0.2l0.2,0.2v0.2H47v0.5h0.2v0.7
	L47,50.6l0.2,0.2l0.2-0.2h0.2v0.2H48v1l0.2,0.2H49v0.2l0.2,0.2L49,52.8V53h-0.2l-0.2,0.2h-1v0.2l0.2,0.2v0.5h0.7v0.2l0.2,0.2
	l0.2-0.2h0.2l0.5,0.2l0.2,0.2l0.2,0.2h-0.2v0.5l-0.2,0.2l-0.2,0.2h-0.2l0.2,0.2v0.2l0.2,0.2l0.2,0.2v1l0.2,0.2h0.2l0.2,0.2v0.2
	L50.4,59v0.2l-0.2,0.2l-0.2-0.2L49.7,59l-0.2-0.2L49,58.6l-0.2-0.2v-0.7h-0.5v0.2l0.2,0.2v0.2l0.2,0.2l0.2,0.2v0.5l0.2,0.5v0.7
	L49,60.7V61h-0.5l-0.2,0.2v0.2L48,61.7l0.2,0.2h0.2l0.2,0.2v0.7l0.2,0.2v0.2h0.2v1h-0.5v0.2l-0.2-0.2V65h0.7v0.2H49v0.2h0.2V66h0.2
	v0.2l0,0v0.5l0,0v0.5h0.2v0.2l0,0v0.2l0,0v0.2h-0.2v0.2h0.2v0.2h-0.2v0.2h0.2v0.2H50l0.2,0.2v1H50v0.2h-0.2l0.2,0.2l0.2,0.2V71
	l0.2,0.5l0.2,0.7h-0.3l-0.2,0.2l-0.2,0.2l0.2,0.2v0.7h-0.2v1.4l-0.2,0.2h-0.2v-0.7l-0.2-0.2v-0.5l0.2-0.5v-0.2l-0.2-0.7h0.2v-0.2
	l-0.2-0.5H49V72l-0.2,0.2h-0.2L48.2,72H48l0.2,0.2v0.2L48,72.7v0.5h-0.5l0.2,0.2v0.5H48l0.2,0.2v0.5L48,74.9v-0.5h-0.2v0.2l0.2,0.2
	h0.2v0.5l-0.5,0.2l-0.2,0.2h0.7l0.2,0.2v0.2l-0.2,0.5H48l0.2,0.5H48v0.2h0.5l0.2,0.2v0.5h-0.2v0.2l0.2,0.5v1l0.2,0.2l0.2,0.5
	l0.2,0.7l0.2,0.5v0.5l0.2,0.5l0.2,0.2v0.7l0.2,0.5v0.2l0.2,1L50.4,86l-0.2,0.5L49.9,87h-0.5v0.5h-0.2L49,87.6l-0.2,0.2l-0.2,0.7v0.7
	l0.2,0.5l0.2,0.5l0.2,0.5h0.2v0.5l-0.2,1l0.2,0.7v1.9l0.2,0.5h-0.2l-0.2,0.5l0.5,0.7l0.5,1v0.2l0.2,0.5l0.2,0.5l-0.5,0.2L50,99.2
	l-0.2,0.7v1l-0.2,0.5h-0.3v0.6l-0.2,0.5h0.2l0.5,0.2v-0.5h0.5v0.8l-0.5,0.2l-0.2,0.2l1,0.2l-0.2,0.2v1H50l-0.2-0.7l-0.2,0.2
	l-0.2,0.7l0.2,0.2l0.2,0.2v0.5h0.5l0.5,0.7l0.2,0.2v1.4h-0.5l-0.2,0.5v0.5l0.5,0.5v0.5l-0.2,0.2l0.2,0.7l-0.2,0.2l-0.5,0.2v0.5
	l0.2-0.2l0.2,0.2l0.2,0.2v0.2l-0.2,0.2l-0.5,0.2v0.2h0.5l0.2,0.5l-0.2,0.2h0.2v-0.5l0.2-0.2l0.2,0.2l0.2,0.2l0.2,0.2v0.2h-0.5
	l-0.2,0.2h-0.2v0.2l-0.2-0.2h-0.2v0.2l0.2,0.2h0.2v0.2h-0.2v0.5l-0.2-0.2h-0.2l-0.2,0.5v0.2l-0.2,0.5v0.2l0.2,0.2h0.2v0.5l-0.2-0.2
	l-0.2,0.2v0.7h0.5l0.2,0.2v0.2h0.2v0.5h-0.2v0.2l-0.2,0.2h-0.2v0.2h-0.2v1H49v0.2l-0.2,0.2h-0.2l-0.2,0.2l-0.5,0.2h-0.2v0.2h-0.2
	l-0.5,0.2h-0.7v0.5h0.2v0.2l-0.2,0.2h-1l-0.2,0.7l-0.2-0.2v-0.5l0.2-0.2v-0.7h0.2l0.2-0.2h1.2v-0.2l-0.2-0.2h-0.2v-0.2h-0.5
	l-0.2-0.2v-0.2l0.2-0.2h0.5v0.2h0.2V121l0.2-0.2l-0.2-0.2l-0.2-0.2h-0.7l-0.2-0.2h-0.2v-0.2l-0.2-0.2h-0.2l-0.2,0.2l0.2,0.2v0.5
	l0.2,0.2v0.2h-0.2v0.2h-0.2v0.5l-0.2,0.2v0.2h-0.2l-0.2,0.2l-0.2,0.2v0.2l-0.2,0.2v0.2l-0.2,0.2l-0.2,0.2v1l-0.2,0.5v0.2l0.2,0.2
	h-0.7v-0.2h-0.5l-0.5-0.2l-0.2-0.2l-0.2-0.2h0.2v-0.2h-0.2l0,0h-0.5v0.2h-0.7v0.1h1l-0.2,0.2h-1V125l0,0l-0.2-0.2h-0.2v0.2l-0.2-0.2
	l-0.2-0.2h-0.2v-0.2h-0.2v-0.7h0.2v-0.2h-0.2v0.2h-0.2v0.2H37l0,0h-0.2v0.2h-0.2l0,0h-0.2v-0.2L36,124h-0.2v0.2h0.5v0.5h0.2v0.2h0.2
	v0.2h-0.2v0.2h-0.7v-0.2h-0.2V125h-0.2v-0.2H35l0.2-0.2H35V124l0,0l0.2-0.2v-0.2h0.5v-0.2H36l0,0h0.2v-0.5h0.2v-0.2h0.2v-0.2H37
	v-0.2l0,0l0.2-0.2h0.5v-0.5l0.2,0.2l0,0h0.2V121h0.2v-0.5h-0.2v0.2l0,0v0.2H38v0.2h-0.2v0.2h-0.5l-0.2-0.3V121h0.5l-0.2-0.2H37v-0.2
	l-0.2-0.2L37,120h0.2v0.2h0.2V120l0.2,0.2l0,0H38V120l0.2-0.2h0.2v0.2h0.7v0.5h0.2v0.5l0,0v-0.2h0.2v-0.2h-0.2v-0.2l-0.2-0.2l0,0
	v-0.2h0.5v0.2l0.2-0.2l0,0v0.2h0.2v-0.2h0.5v0.2l0.2,0.2l0,0v0.2l0.2,0.2l0,0v0.3h0.2v0.2l-0.2,0.2v0.2h0.2v-0.2h0.2l0.2,0.2v0.2
	h0.5v0.5H42v0.5h-0.2v0.2l-0.2,0.2v0.2l0.2,0.2H42v-0.5h0.2v-0.5l0.2-0.2l0.2-0.2l0,0h0.5v-0.2H43l0,0h-0.2L43,122v-0.2l0.2-0.2
	v-0.2l0.2-0.2l0,0h-0.3v0.2l-0.2,0.2v0.2h-0.2v0.5l-0.2,0.2v-1.7l0,0v-0.5h0.2v-0.5l0.2-0.2l0.2-0.2h0.2V119h0.2l0,0l0,0v0.2h0.2
	V119h-0.5v-0.2h-0.2v0.2l-0.2,0.2v0.2h-0.2v0.2h-0.2v-1l0.2-0.2v-0.2h-0.2V118h0.2v-0.2H43v-0.2h0.2v-0.2h0.2l0.2-0.2h-0.2l0,0h0.2
	l0.2,0.2v0.2h0.2v0.2h0.5l-0.2,0.2h0.7v-0.5h-0.2v0.2h-0.2l-0.2-0.2h-0.2v-0.2H44V117l-0.2-0.2h-0.5v0.2h-0.5v-0.2h-0.2l0,0h0.2
	v-0.2H43v-0.2h0.2v-0.2H43v-0.2h-0.2v-0.5H44v-0.2h0.2V115h0.5v-0.2h0.2v-0.2l0.2-0.2l0,0l0,0v-0.5l0,0v-0.2l0.2-0.2V113h0.2l0,0
	h-0.2v-0.2l0,0l-0.2,0.2h-0.2v-0.2h-0.2v-0.2h-0.5V112h-0.5v-0.2h-0.5v-0.2H43l0,0h-0.2v-0.5H43v-0.2h0.2v0.2h0.2v-0.2h-0.3v-0.7
	h0.2v-0.5h0.2v-0.5h-0.2V109h0.2v-0.2h0.2v-0.2h-0.5v-0.2h-0.2v-0.5H43v-0.2h0.2V107l0,0l0.2-0.2h0.2v-1.4l0.2,0.2h0.2v-0.2
	l-0.2-0.2l0,0h0.2v-0.2H44v-0.2h-0.2v-1.2h-0.2l0.2-0.2v-0.5H44v0.3h0.5v0.2l0.2-0.2v0.2h0.2V103h-0.5v-0.2h-0.2v-0.2h-0.2v-0.2
	h-0.2v-0.5h-0.2l0.2-0.2l0,0v-0.2h1v0.7h0.2v0.2h0.2v0.5h0.2l-0.2-0.2V102h-0.2v-1.9h-0.2l-0.2,0.2H44l0,0h-0.2v-0.2h-0.2v-0.2h-0.3
	v-0.2h0.2v-0.5h0.2v-0.2h0.2l0,0h0.5v-0.2h0.5v-0.2h0.2v-0.5l-0.2,0.2v0.2h-0.2v0.2h-0.7v-0.2h-0.2v-0.2l-0.2-0.2v-0.2h-0.2v-0.2H43
	l0,0h-0.5v0.2h-0.2v0.2H42v0.2h0.2v0.7h-0.5l-0.2-0.2v0.5h-0.2v-0.2H41v0.2h-0.5l-0.2-0.2h-0.7v-0.2h0.2v-0.5l-0.2-0.2l0,0h-0.2
	v-0.2h-0.2v-0.2l0,0v-0.2l0,0V97l0,0l-0.2-0.2h0.2l-0.2-0.2V96h-0.2v-0.5l0,0v-0.2h-0.2v-0.5l0.2-0.2v-1.2l0,0v-0.5h0.2v-0.2
	l0.2-0.2h-0.2v-0.2l0,0v-0.2h-0.2V91l0,0v-0.2h0.2V90l-0.2-0.2v-0.2h0.5v-0.2h0.2v-0.5h0.2V89h0.2v-0.2h-0.2v-0.7h0.2v-0.5h0.2v-0.2
	l0,0v-0.5h0.2v-0.2h-0.2v-0.2l0,0v-0.7h-0.2l0,0l0,0v-0.5h-0.2v-0.5l-0.2-0.5L39.1,84v-0.2l-0.2-0.2V83h-0.2v-0.2h-0.2v-0.7
	l-0.2-0.2v-1.2l-0.2-0.2h0.2v-1l-0.2-0.2V79l-0.2-0.5L37.4,78h-0.2v-0.2H37v-1h0.2v-0.5H37v-0.5h-0.2v-1.2H37v0.2h0.5v0.2l0,0v0.2
	h0.2v-0.2h0.7l0.2-0.2v-0.7h-0.3v-0.5l0.2-0.2l-0.2-0.2v-0.5h-0.2v-0.2l0.2,0.2v-1h0.2v0.7h0.5v-0.7h-0.2v-0.2l0,0l0.2-0.2l0,0l0,0
	V71h0.2v-0.7l0.2-0.2l-0.2-0.5v-0.7h0.2l-0.2-0.2v-0.2h0.2l0.2-0.2v-0.5h0.2l0.2-0.2l-0.2-0.2v-0.5h-0.2v-0.5h0.2V66h0.2v-0.7h0.2
	V65l0.2,0.2L40.6,65v-0.5h0.2v-0.2L41,64h0.2v-1.4h0.2v-0.5l0.2-0.2v-0.7L41.5,61l0.2-0.2v-0.2h-0.2v-0.2h0.2v-1L41.5,59l0,0v-0.2
	h0.2v-0.5H42v-0.5h0.2v-1h0.5v-0.2l0.3-0.2v-1h-0.2v-0.2h-0.2v-0.5h0.2v-0.2h-0.2V54h-0.2v-0.5H42v-0.2h0.2v0.2h0.2V53h0.2v-0.2l0,0
	v-0.2H43v-0.5h-0.2v-0.5H43v-0.2h0.2v-0.7H43v-0.5h0.2L43,49.9h0.2v-0.5h-0.5V49h-0.2v-2.2h-0.2v-0.2h0.2v-0.2h-0.2v-0.2L42,45.8
	l0,0v-1h-0.2v-0.4l-0.2-0.2l0,0v-0.7h-0.2V42H41v-1l-0.2-0.2H41l-0.2-0.2v-1.9l0.2-0.2v0.2h0.5v-0.2h0.2v-0.2H42v-1l0,0V37l0,0v-0.2
	h0.2V37h0.2v-0.7h-0.2V36H42v-0.5l0,0v-0.2h0.2V35H42v-1.2h-0.2v-0.2l0,0v-0.2h-0.2l-0.2-0.2v-0.2H41v-1l0,0v-0.2h-0.2V31h0.5v-0.5
	h0.2v-0.2h0.2v-0.5h-0.2v-0.2h0.2V29H42v-0.5h0.2v-0.2H42v-0.5h0.2v-0.2H42v-1.4h0.2v-1h0.2V25h0.2l0,0H43v-1.5h-0.2v-1l0,0v-0.2
	h-0.2V22h0.2l0,0H43v-0.4h0.2v-0.7L43,20.6h0.2v-0.5h0.2v-0.2h-0.3v-0.2h0.2v-0.5h0.2V19h-0.2v-1h0.2v-0.2h-0.2v-0.2h0.2v-0.2h-0.2
	v-1h0.2V16l-0.2-0.2l-0.2-0.2v-0.5H43v-0.2h0.2v-0.7h0.2v-0.5l0,0v-0.2H44V13h0.2v-1.2L44,11.6h-0.2v-0.2H44v-0.7h-0.2v-0.5
	l-0.2-0.2V9.4l0,0V9.1h-0.3V8.9h0.2V8.6h-0.2V8.2l0,0V7.9h0.2V7.7h-0.2V7.4l0,0V7.2h0.2V7l0,0V5l-0.2-0.2h0.2V4.6l0,0V4.3l0.2-0.2
	V2.9h-0.2l-0.2-0.2v0.2H43v0.2h-0.2l0,0l-0.2-0.2h0.2V0.5H43v0.2h0.7V0.5L44,0.2v6.2L44.2,7v1l0.2,0.5v0.7l0.2,0.5v1.7l0.2,0.2v4.8
	l0.2,0.5V17l0.2,0.2l0.2,0.2h0.2l0.2,0.2h0.7l0.2-0.2l0.2-0.5l0.2-0.5v-0.7l0.2-0.7v-0.5l0.2-0.2l0.2-0.5l0.2-0.5l0.2-0.7L49,11.8z
	 M43.5,16.8L43.5,16.8z M0,18L0,18z M42,28.1L42,28.1z M40.6,32.2L40.6,32.2z M41,33.2L41,33.2z M40.8,33.4L40.8,33.4z M41,33.2
	L41,33.2z M41,34.8L41,34.8z M42.5,47L42.5,47z M11.3,55.9v0.2h0.5v0.2h-0.5v-0.2H11v0.2h-0.2v-0.2H11v-0.2H11.3z M10.8,56.6
	L10.8,56.6z M3.1,57.1v-0.2H2.9v-0.2h0.2v0.2h0.2v0.2H3.1z M38.9,71.8L38.6,72v-0.2H38.9z M37.2,74.2L37.2,74.2v0.2L37,74.2v-0.2
	h0.2L37.2,74.2z M36.5,80.9v0.2h0.2v0.2h-0.2v-0.2h-0.2v-0.2H36.5z M42.5,97.7v-0.2l0,0V97.7z M42.5,97.9h0.2l-0.2,0.2V97.9
	L42.5,97.9z M42.7,98.4H43v0.2h-0.5v-0.2L42.7,98.4z M41.5,98.9h0.2l0,0H42v0.2h-0.5V98.9z M39.4,98.9L39.4,98.9z M42.2,98.9h0.2
	v0.2l0.2,0.2h-0.5v-0.2l0,0L42.2,98.9z M38.9,99.1h0.2v0.2h-0.2v0.2h0.5v-0.2h0.2l0.2-0.2h0.2l0,0h0.5v0.5l0,0v0.2l0,0v0.2l0.2,0.2
	l0.2,0.2v0.2h-0.2v0.2H41l0.2,0.2v0.2h0.2v0.5h-0.2v-0.2L41,102l0,0h-0.7v0.7h0.2v0.3h-0.2v0.2H40V103h-0.2l0.2-0.2v-0.2h-0.2v0.2
	l0,0v0.2l0.2,0.2h-0.2v0.2H40v0.2h0.2v0.2h0.2v0.2H41l0.2,0.2v0.5l-0.2-0.2v0.2h-0.5l0,0h0.2v0.2l0,0l0.2,0.2v0.2h0.2v0.5H41l0,0
	h-0.5v-0.2h-0.2v0.7h0.2v0.2h0.2v0.2H40l0.2,0.2v0.2h-0.5v-0.2h-0.2v0.2l-0.2-0.2h-0.2l0,0h-0.5V107h-0.5v-0.2h-0.2v-0.2l0,0V106
	l0,0v-0.2h0.2l0.2-0.2v-0.2h-0.2l0.2-0.2v-0.2h0.2v-0.5l0,0l-0.2-0.2h0.2v-0.2l0,0v-0.5h-0.2V103h-0.2v-0.7h0.2v-0.5l-0.2-0.2v-0.2
	h0.2V101h0.2v-0.2h-0.2l0.2-0.2V100h-0.2v-0.2h0.2v-0.5h-0.2v-0.2l0.2-0.2v0.2L38.9,99.1L38.9,99.1L38.9,99.1z M42,99.1L42,99.1
	L42,99.1z M41.3,99.4L41.3,99.4z M42,99.4L42,99.4z M42.2,99.4L42,99.1h0.2V99.4z M43,99.6L43,99.6z M42,99.6h-0.2l0.2-0.2V99.6z
	 M42.2,99.6L42.2,99.6z M44.6,100.6v-0.5h0.2v0.2h-0.2V100.6z M44.1,100.6L44.1,100.6z M44.4,100.4l-0.2,0.2v-0.2H44.4z M44.6,100.6
	v0.2l0.2,0.2h-0.2l-0.2-0.2l0,0v-0.2H44.6z M41.2,100.8v0.2H41v-0.2L41.2,100.8L41.2,100.8z M42.2,101.6L42.2,101.6z M42.5,101.6
	v0.4h-0.2v-0.2H42v-0.2h0.2l0,0L42.5,101.6z M42,101.8h-0.2v-0.2H42L42,101.8z M41.8,101.8H42v0.2h-0.2L41.8,101.8L41.8,101.8
	L41.8,101.8z M41.3,102.3H41V102L41.3,102.3z M42.5,102.3L42.5,102.3z M40.6,102.3h0.2v0.2l0.2,0.2l0.2,0.2v0.2l0,0V103H41v-0.2
	h-0.7v-0.2h0.2l-0.2-0.2H40.6z M41.8,102.3v0.2h-0.2v-0.2H41.8z M41,102.5L41,102.5z M41.5,102.5h0.2v0.2h-0.2V102.5z M42,102.8
	L42,102.8z M41.8,102.8H42v0.2h-0.2L41.8,102.8z M41,103.2h-0.2V103H41L41,103.2z M42.2,103.2v0.2H42L42.2,103.2H42l0,0H42.2z
	 M40.6,103.2l0.2,0.2v0.2H41v0.2h-0.2v-0.2h-0.2v-0.2h-0.2v0.2l-0.2-0.2v-0.2H40.6L40.6,103.2z M42,103.2v0.2h-0.2v-0.2H42z
	 M43,103.5L43,103.5h-0.2v-0.2L43,103.5z M41.1,103.5L41.1,103.5z M41.8,103.5H42v0.2L41.8,103.5L41.8,103.5L41.8,103.5z M43.7,104
	v-0.2l0,0V104z M43.2,104L43.2,104v0.2l0,0l0,0H43V104H43.2z M42.8,104L42.8,104z M42.8,104.2L42.8,104.2z M41.6,105.2L41.6,105.2z
	 M41.3,105.2h0.2l0.2,0.2H41v-0.2h-0.2V105H41L41.3,105.2z M41.6,105.7L41.6,105.7z M41.1,106.2v0.2h0.2l0,0H41L41.1,106.2
	L41.1,106.2z M41.1,106.6L41.1,106.6v0.2l-0.2-0.2v-0.2L41.1,106.6z M40.8,106.6h-0.5v-0.2h0.5V106.6z M40.8,107.4L40.8,107.4h-0.2
	l0,0h-0.2V107h0.2L40.8,107.4z M38.4,107.4l0.2,0.2h-0.3L38.4,107.4L38.4,107.4z M38.7,107.8h-0.3l0.2-0.2L38.7,107.8z M37,108.3
	h0.2v0.2h0.2v0.2h-0.7l0,0h-0.2v-0.5h0.2l0,0L37,108.3z M43.7,108.6L43.7,108.6z M43.5,108.8L43.5,108.8z M41.8,109.3L41.8,109.3z
	 M43.5,109.5L43.5,109.5z M40.4,109.5h0.2v0.2h-0.5v0.2l0,0l0.2,0.2h-0.2l0,0h-0.2V110l-0.2,0.2l0,0l-0.2-0.2h-0.2v-0.2h0.2v-0.2
	h0.2v0.2h0.5v-0.2H40.4z M39.9,109.8l-0.2-0.2h0.2V109.8z M39.6,109.8L39.6,109.8z M40.8,109.8v0.2h-0.7l0.2-0.2v0.2h0.2v-0.2H40.8z
	 M43.2,110.8h-0.5v-0.5L43,110h0.2C43.2,110,43.2,110.8,43.2,110.8z M41,110.2L41,110.2z M40.8,110.2L40.8,110.2z M41.2,110.4
	l-0.2-0.2h0.2V110.4z M40.5,110.4H40v-0.2h0.2L40.5,110.4z M39.3,110.4v-0.2l0,0V110.4z M41.2,110.6v0.2h0.2v0.2h-0.2v-0.2H41v-0.2
	h-0.2v-0.2l0.2-0.2v0.2h0.2L41.2,110.6z M40.8,110.4h-0.2v-0.2h0.2V110.4z M39.6,110.4h-0.2l0.2-0.2V110.4z M39.1,110.6h-0.2v-0.2
	h0.2V110.6z M42.7,110.6L42.7,110.6z M38.8,110.6L38.8,110.6z M41.5,110.6v0.2l0,0V110.6L41.5,110.6z M40.8,110.6L40.8,110.6z
	 M39.3,110.6v0.2l0,0V110.6z M38.8,110.9L38.8,110.9z M41,110.9L41,110.9z M39.6,110.9v0.2h-0.2v-0.2H39.6z M38.8,110.9h0.2v0.2
	h-0.2l-0.2-0.2H38.8z M40.5,110.9L40.5,110.9z M40.8,110.9L40.8,110.9z M39.8,111.1h-0.2v-0.2h0.2L39.8,111.1z M39,111.1L39,111.1z
	 M40.2,111.1h0.2v0.2l0,0l0,0h0.2l-0.2,0.2H40l-0.2-0.2l0.2-0.2H40.2z M41.7,111.1H42v0.2L41.7,111.1l0.1,0.2l0,0L41.7,111.1
	L41.7,111.1L41.7,111.1z M39.3,111.1v0.2H39v-0.2H39.3z M39.3,111.4v-0.2h0.2L39.3,111.4z M41.4,111.4v-0.2h0.2v0.2H41.4z
	 M38.8,111.1v0.2h-0.4v-0.2H38.8L38.8,111.1z M40.5,111.4L40.5,111.4z M39.8,111.4l0.2,0.2h0.5v0.2H40v0.5l0,0v-0.2h-0.2l-0.2-0.2
	v-0.2h0.2l0.2,0.2v-0.2h-0.2V111.4L39.8,111.4C39.8,111.4,39.8,111.4,39.8,111.4z M41.2,111.4v0.2H41v-0.2H41.2z M38.6,111.4
	L38.6,111.4z M38.3,111.6v-0.2l0.2,0.2H38.3z M39,111.6L39,111.6z M38.8,111.6H39v0.2h-0.2V111.6L38.8,111.6z M39,111.6L39,111.6z
	 M40.5,111.8v-0.2h0.2L40.5,111.8z M41,111.8h-0.2v-0.2H41L41,111.8z M42.9,111.8L42.9,111.8z M38.8,111.8l0.2,0.2h-0.6v-0.2H38.8
	L38.8,111.8z M39.5,111.8v0.2h-0.2v-0.2H39.5z M41.2,111.8v0.2H41v-0.2H41.2z M39.3,111.8L39.3,111.8z M40.7,111.8L40.7,111.8z
	 M40.2,111.8h0.2v0.2h-0.2V111.8z M41.9,111.8L41.9,111.8z M40.7,111.8v0.5h-0.2l0,0h-0.2v-0.2H40v-0.2h0.2v0.2h0.2v-0.2L40.7,111.8
	z M42.9,111.8L42.9,111.8z M41.9,112.1L41.9,112.1z M43.3,111.8v0.2l-0.2-0.2H43.3z M41.6,112.1L41.6,112.1z M41.4,112.1L41.4,112.1
	z M43.3,112.1v0.2l-0.2-0.2l0,0H43.3z M42.6,112.1L42.6,112.1z M39.5,112.1h0.2v0.2h0.7l-0.2,0.2v0.2l0,0l-0.2-0.2h-0.2v-0.2h-0.1
	L39.5,112.1z M39.5,112.1v0.5l0.2,0.2h-0.1v-0.2h-0.2v-0.5H39.5z M41.2,112.3L41.2,112.3z M43.8,112.3h-0.5l0,0l0,0v-0.2h0.5V112.3z
	 M42.8,112.3v-0.2H43v0.5h-0.5v-0.2l0.2-0.2L42.8,112.3z M41.4,112.3L41.4,112.3L41.4,112.3z M38.7,112.3L38.7,112.3z M39,112.6
	h-0.5v-0.2H39V112.6z M41.1,112.3h0.2v0.2h-0.2v0.2H41v-0.2h-0.2v-0.2H41l0,0h0.2v0.2l0.2-0.2H41.1z M40.4,112.6L40.4,112.6
	L40.4,112.6z M38.2,112.6v-0.2l0.2,0.2h-0.1l0,0H38.2z M43.8,112.6L43.8,112.6H44v0.2h0.7v0.2l0.2,0.2v0.2h-0.2v0.2h-0.3l-0.2-0.2
	v0.2h0.2v0.3h0.5v0.2h-0.2v0.2h-0.5v0.5h-0.2v0.2h-0.2l-0.2,0.2h-0.2v-0.2H43V115h-0.2v-0.2H43l0,0h0.2v-0.2H43v0.2h-0.2v-0.2l0,0
	v-0.2l-0.2,0.2V114h-0.2v-0.2h0.2v-0.2l0,0l0.2,0.2l0,0h0.5v-0.2H43v-0.2h0.2v0.2h0.2v-0.2h-0.3L43,113v-0.2l0.2-0.2h0.2v0.2h0.2
	v0.2H44v-0.2h-0.2L43.8,112.6l0.2,0l0,0L43.8,112.6z M40.6,112.6H41v0.2h-0.5v-0.2H40.6z M41.4,112.6L41.4,112.6z M44.5,112.6
	L44.5,112.6z M39,112.6v0.2l0.2,0.2h-0.5v0.2l-0.2-0.2l0,0v0.2H38l-0.2-0.2v-0.2h0.7v-0.2H39z M42.6,112.6L42.6,112.6z M42.8,112.8
	L42.8,112.8z M39.7,112.8h0.2l0,0h0.2v0.2l0.2,0.2h-0.5v0.2h-0.2v-0.2h-0.1V113h0.5v0.2h-0.2l-0.2-0.2v0.2h0.7V113h-0.7L39.7,112.8
	l0.2,0L39.7,112.8z M41.4,112.8h0.2v0.2h-0.2V112.8z M39.2,113h0.2v0.2h0.2v0.2l-0.2-0.2v0.2h-0.7v-0.2l0,0V113L39.2,113L39.2,113z
	 M40.6,113v0.2h-0.2V113L40.6,113z M41.4,113h0.2v0.2h-0.5V113L41.4,113z M41,113h0.2v0.2H41V113z M40.8,113H41v0.2h-0.2L40.8,113z
	 M42.7,113.2L42.7,113.2L42.7,113.2z M41.2,113.2L41.2,113.2z M41.5,113.2v0.2l-0.2-0.2l0.2,0.2h0.2v0.7h-0.2v0.2h-0.2v-0.2H41V114
	h-0.2v-0.2l-0.2-0.2h0.2v0.2H41v-0.2l0,0v-0.2L41.5,113.2L41.5,113.2z M42.7,113.5L42.7,113.5z M43.4,113.5L43.4,113.5z M38.6,113.5
	L38.6,113.5z M37.2,113.2v0.2h0.2v0.5h-0.2v-0.5H37v-0.2L37.2,113.2z M40.5,113.7h-0.2v-0.2h0.2V113.7z M42.9,113.5L42.9,113.5z
	 M39.8,113.5l0.2,0.2v-0.2h0.2v0.2h0.2v0.3h0.2l0,0h-0.2v0.2H40v0.2h-0.4l-0.2,0.2h-0.2v-0.2h-0.2v-0.2h-0.2v-0.5h0.5l0.2,0.2v-0.2
	h-0.2v-0.2L39.8,113.5L39.8,113.5z M41.7,113.7L41.7,113.7z M37.9,113.7h0.5v0.3h0.2v0.2h-0.5l-0.2-0.2l0,0h-0.2v-0.2L37.9,113.7z
	 M41,114.2L41,114.2z M38.4,114.2h0.2v0.2h0.2v0.2h0.2v0.3h-0.5v-0.2h-0.2v-0.2h-0.2L38.4,114.2z M41.7,114.2L41.7,114.2z
	 M41.7,114.4v0.6h-0.2v-0.2h-0.2v-0.2h0.2v-0.2h0.2V114.4z M40.5,114.4L40.5,114.4z M40.5,114.4h-0.2v-0.2L40.5,114.4z M40.5,114.4
	L40.5,114.4z M40.8,114.4H41v0.6h0.2v0.5H41l-0.2-0.2V115l0,0v0.2H41V115h-0.2v-0.2h-0.2v-0.2L40.8,114.4z M40.5,114.7v0.3h-0.7
	v-0.2H40v-0.2h0.5V114.7z M41.2,114.7v-0.2l0,0V114.7z M36.4,115.2h-0.2L36,115v-0.5h0.2v0.5h0.2L36.4,115.2z M41.2,114.9
	L41.2,114.9z M41.5,114.9L41.5,114.9z M39.6,114.9L39.6,114.9z M41.7,114.9L41.7,114.9L41.7,114.9z M39.8,114.9H40v0.2h0.5v0.2l0,0
	v0.2h-1v0.2H39v-0.2l0,0v-0.2h0.2v-0.2h0.2V115L39.8,114.9z M39.3,114.9v0.2l0,0V114.9z M38.8,115.2L38.8,115.2z M39.1,115.2
	L39.1,115.2L39.1,115.2z M38.8,115.2L38.8,115.2z M38.6,115.2h0.5v0.2h-0.5V115.2z M42.2,115.4L42.2,115.4z M42.9,115.4L42.9,115.4z
	 M37.9,115.4L37.9,115.4z M41.8,115.4L41.8,115.4z M42.2,115.6L42.2,115.6z M38.2,115.4L38.2,115.4z M41.5,115.6h0.2v0.2h-0.2V115.6
	z M41.3,115.6H41l0.2,0.2l0,0l0.2,0.2v0.2l0,0v0.2h0.2l0,0l0,0l0,0h-0.2l0.2,0.2l0,0v0.2h-0.5v-0.2h-0.7v-0.2H40v-0.2h-0.2v0.2h-0.2
	v-0.7h1v-0.2L41.3,115.6L41.3,115.6z M42.5,115.9L42.5,115.9z M42.2,115.9l-0.2-0.2h0.2V115.9z M39.1,115.9L39.1,115.9z M42.5,115.9
	L42.5,115.9z M42.7,116.1h-0.2l0.2-0.2V116.1z M42.5,116.1L42.5,116.1z M39.4,115.9v0.2h0.2v0.5l-0.2-0.2h-0.2l-0.2-0.2v-0.2
	C38.9,115.9,39.4,115.9,39.4,115.9z M42,115.9L42,115.9z M42.7,116.1H43v0.2h-0.2L42.7,116.1L42.7,116.1l0,0.2h-0.2v-0.2H42.7
	L42.7,116.1L42.7,116.1z M42.2,115.9v0.2l0,0V115.9z M42.5,116.1L42.5,116.1z M38.6,116.6v0.2h-0.2v-0.2l0.2-0.2L38.6,116.6z
	 M39.1,116.4h0.2v0.2h0.2v0.2h0.2v0.2l0,0v0.5l-0.2-0.2h-0.2v-0.2h-0.2V116.4z M42.5,116.6L42.5,116.6z M42.2,116.6L42.2,116.6z
	 M42.5,116.6L42.5,116.6z M40.6,116.8v0.2h0.2l0,0H41v-0.2h0.2v0.2h0.2v0.2l-0.2,0.2v-0.2l-0.2,0.2l0,0l0,0h-0.5v-0.2h-0.2l0,0H40
	v-0.2l-0.2-0.2H40l0.2-0.2h0.2L40.6,116.8z M40.1,116.8L40.1,116.8z M42.2,116.8h0.2v0.2l-0.2,0.2C42.2,117.3,42.2,116.8,42.2,116.8
	z M42,116.8v0.2h-0.2L42,116.8z M38.9,117.1L38.9,117.1z M38.2,116.8L38.2,116.8z M38.9,117.1L38.9,117.1z M42.5,117.1L42.5,117.1z
	 M39.1,117.1h0.2v0.2l0.2,0.2v0.2h-0.2l-0.2-0.2h-0.2l-0.2-0.2v-0.2C38.6,117.1,39.1,117.1,39.1,117.1z M40.1,117.3v-0.2l0,0V117.3z
	 M43.2,117.1l-0.2,0.2h-0.2v-0.2C42.8,117.1,43.2,117.1,43.2,117.1z M41.6,117.1l0.2,0.2h-0.2V117.1z M38.4,117.3L38.4,117.3z
	 M42.5,117.3L42.5,117.3z M42.5,117.3h0.2v0.2h-0.5v-0.2H42.5z M39.4,117.3h0.2l0,0l0.2,0.2l-0.2,0.2v-0.2L39.4,117.3z M40.1,117.3
	v0.2h-0.2v-0.2H40.1z M41.6,117.3L41.6,117.3z M40.6,117.8l-0.2-0.2v-0.2h0.2C40.6,117.3,40.6,117.8,40.6,117.8z M41.8,117.6
	L41.8,117.6z M41.3,117.6L41.3,117.6z M41.3,117.6h0.2v0.2h-0.2L41,118v-0.2h-0.5l0.2-0.2H41.3z M41.8,117.6l-0.2,0.2v-0.2H41.8z
	 M40.1,117.6L40.1,117.6z M40.3,117.8L40.3,117.8z M42.2,117.6v0.2l0,0V117.6z M45.1,117.8L45.1,117.8z M44.6,117.8L44.6,117.8z
	 M45.1,117.8l-0.2,0.2L45.1,117.8z M40.6,117.8h0.2v0.2h0.7v0.2l-0.2,0.2H41l0,0l-0.2-0.2h-0.2v0.2h-0.2v-0.2l0,0V118h0.2l-0.2-0.2
	H40.6z M38.9,118.8v-0.2h-0.2v-0.5l0.2-0.2h0.2v0.2h-0.2V118.8z M42,118.1v-0.2l0.2,0.2l0,0h0.2v0.2l0,0l-0.2,0.2l0.2,0.2l0,0v0.2
	h-0.2l0,0l0.2,0.2v0.2H42v-0.2h-0.2V119h-0.2v-0.5l0.2-0.2l0,0v-0.5H42L42,118.1z M40.3,118.1h-0.2v-0.2h0.2l-0.2,0.2H40.3z
	 M39.3,118.1h0.2v0.2h0.2v0.2l0.2,0.2v0.5h-0.4l0,0l0,0v0.2h-0.2v0.2h-0.2v-0.2h-0.2v-0.2h0.2V119l-0.2-0.2h0.2v-0.2h-0.2v-0.2h0.2
	v-0.5L39.3,118.1z M40,118.1L40,118.1z M40,118.3L40,118.3h-0.2v-0.2L40,118.3z M40.8,118.6h0.5v0.7H41v0.2h-0.2v-0.2h-0.2v-0.5l0,0
	v-0.2H40.8L40.8,118.6L40.8,118.6z M38.8,118.8l-0.2,0.2l0,0h0.2v0.2l-0.2,0.2h-0.5V119h0.2v-0.2h0.2v-0.2L38.8,118.8z M37.6,118.8
	L37.6,118.8l0.2,0.2v0.2l0,0l-0.2-0.2h-0.2v-0.2H37.6z M37.9,118.8L37.9,118.8z M41.5,119L41.5,119z M37.4,118.8v0.2h-0.2v-0.2
	L37.4,118.8z M38.8,119L38.8,119z M39.1,119.3h-0.2V119h0.2V119.3z M37.6,119.3h-0.2V119L37.6,119.3z M37.6,119.3L37.6,119.3z
	 M41.5,119v0.2H42v0.2h-0.2v-0.2h-0.2L41.5,119z M40,119.5h0.2v0.2h-0.7v-0.2h0.2v-0.2h0.2L40,119.5z M38.8,119.5L38.8,119.5z
	 M40.3,119.3L40.3,119.3z M40.8,119.5H41v0.5h0.2l-0.2,0.2v0.2l-0.2-0.2V120h-0.2v-0.5L40.8,119.5L40.8,119.5L40.8,119.5L40.8,119.5
	z M39.1,119.8h-0.5l0.2-0.2h0.2L39.1,119.8z M40.5,119.5L40.5,119.5z M41.2,119.8v-0.2h0.2L41.2,119.8z M40.5,119.5L40.5,119.5z
	 M40.5,119.8L40.5,119.8z M38.6,119.8L38.6,119.8z M41.5,119.8v-0.2l0.2,0.2H41.5v0.2h-0.2v-0.2L41.5,119.8L41.5,119.8L41.5,119.8z
	 M39.6,119.8L39.6,119.8L39.6,119.8z M42.2,119.8L42.2,119.8z M38.4,119.8h-0.2v-0.2L38.4,119.8z M42,119.8v0.2l0,0l0.2,0.2v0.8H42
	l0.2,0.2h0.2l-0.2,0.2v0.5H42v-0.2l0,0v-0.2h-0.5v-0.2h-0.2v-0.5l0,0v-0.5h0.2V120h0.2v-0.2L42,119.8z M38.4,119.8L38.4,119.8z
	 M41.7,120L41.7,120z M41,120.5v0.2h0.2L41,121L41,120.5L41,120.5z M42.2,121.2L42.2,121.2z M38.1,121.2h-0.2l0.2-0.2V121.2z
	 M41.5,121.4h-0.2v-0.2h0.2V121.4z M37.4,121.7h-0.2l0,0H37.4z M36.7,124.1L36.7,124.1z M36.9,124.1L36.9,124.1z M36.2,124.3v-0.2
	h0.2v0.2H36.2z M36.4,124.1v0.2l0,0V124.1z M36.7,124.3H37l0,0H36.7z M36.7,124.3L36.7,124.3z M37.2,124.6L37.2,124.6H37l0,0h-0.2
	v-0.2H37v0.2H37.2z M36.7,124.3l-0.2,0.2v-0.2H36.7z M36.7,124.8L36.7,124.8z M36.9,124.8L36.9,124.8z M40,124.8L40,124.8z
	 M39.3,125.5L39.3,125.5z"/>
</svg>
