<?xml version="1.0" encoding="utf-8"?>
<!-- Generator: Adobe Illustrator 20.1.0, SVG Export Plug-In . SVG Version: 6.00 Build 0)  -->
<svg version="1.1" id="Layer_1" xmlns="http://www.w3.org/2000/svg" xmlns:xlink="http://www.w3.org/1999/xlink" x="0px" y="0px"
	 viewBox="0 0 40.3 106.9" style="enable-background:new 0 0 40.3 106.9;" xml:space="preserve">
<style type="text/css">
	.st0{fill:#C14803;}
</style>
<title>east_australia</title>
<path class="st0" d="M2.9,1.1L2.9,1.1v0.2l0,0v0.2h0.2v1h0.2v0.2H3.2v0.2h0.2v0.2h0.2V4l0,0v0.7h0.2V5H3.7v0.2H3.4V6h0.2v0.5h0.2
	v0.2l0.2,0.2v0.2h0.2v0.2h0.2v0.2h0.2v0.2h0.2v0.5h0.2V8.1h0.2v0.2h0.2V8.1H6v0.5H5.8v1H6v0.7h0.2v0.5h0.2v1h0.2v0.5l0,0V13H6.5v0.2
	h0.2v0.2H6.5v0.7H6.3v0.5H6v0.7h0.2v0.2l0.2,0.2V16h0.2v0.2H7v0.5h0.7v0.7l0,0l0,0H7.5v0.7H7.2v0.5h0.2v0.5h0.2v0.2H8v0.2h0.2v0.7
	h0.2V21H8.2v0.2h0.5v0.2l0.2-0.2l-0.5,0.2H8.2L8,21.3v-0.2l-0.2-0.2v-0.2H7.5l-0.2-0.2L7,20.1l-0.2-0.2l-0.5-0.2H6l-0.2-0.2
	l-0.2-0.2l-0.2-0.2v-0.2L5,18.4v-0.7l-0.2-0.2v-0.2L4.6,17v-0.7L4.4,16l0.2-0.2l-0.2-0.2v-1l-0.2-0.2V14l-0.2-0.2v-0.2l-0.2-0.2
	v-1.9l-0.2-0.2V11l-0.2-0.2l0.2-0.2h0.2v-0.2L3.9,10V9.8l0.2-0.5V9.1l0.2-0.2V8.6L4.1,8.4L3.9,8.1V7.9L3.7,7.6H3.4L2.9,7.4L2.7,7.2
	L2.5,6.9L2.2,6.7L2,6.4L1.8,6.2L1.5,6H1.2L1,5.7L0.8,5.5L0.5,5.2L0.8,5L1,4.8V4.5h0.5l0.2-0.2V4L2,3.8V3.3l0.2-0.2l0.2-0.5V1.1h0.2
	l0.2-0.2V1.1z M7.2,15.3h0.2V16h0.2v0.5H7.5l0,0H7v-0.7H6.8v-0.2H6.5v-0.2h0.2L7,15.5h0.2L7.2,15.3z M20.5,24.9v0.2h-0.2v0.2H20
	v-0.2h0.2v-0.2H20.5z M17.8,24.9H18v0.2h0.2v0.2h0.2l0,0l0,0v0.2h0.2l0,0H19l0,0h-0.2v0.2H19l0,0h0.2L19,26.1l0,0h0.2v-0.2h0.2v0.2
	l0,0v0.2h0.2v0.2l0,0v0.5H20v0.2h-0.5v-0.2H19v0.2l-0.2,0.2V28H19v0.2h0.2v0.5h0.2v0.5h0.2l0,0h0.5v0.2h0.2l0,0l0,0v0.2h0.5v0.2h0.2
	v0.2h0.2v0.5h-0.2v0.5h0.2v0.2h0.2v0.5l0,0l0,0l0.2,0.2h-0.2v0.2l0,0l0,0h0.2l0,0h0.2v0.2l0,0v0.2h0.2v-0.2h0.2v0.2h-0.2V33h-0.2
	v0.2h0.2v0.5h-0.2V34h0.2v0.5l0,0V35l-0.2,0.2h-0.7V35h-0.2l-0.2-0.2l-0.2-0.2l-0.2-0.2L20.2,34L20,33.8v-0.2l-0.2-0.2l-0.2-0.2
	v-0.2h-0.2L19,32.6h-0.2v-0.2H18l-0.2-0.2v-0.5l-0.2-0.2h-0.2v-0.2H17v-0.7h0.2v-0.2l0.2-0.2V29l-0.2-0.2L17,28.5L16.6,28v-0.2
	l0.2-0.5l0.2-0.2l0.2-0.2v-0.5h0.2v-0.2l0.2-0.2v-0.2l-0.2-0.2h0.2v-0.2l0,0L17.8,24.9z M20.7,26.1L20.7,26.1v0.2h-0.2l0,0h-0.2
	v-0.2l0,0v-0.2l0,0v-0.2h0.2v0.2h0.2V26.1z M20.9,27.1v0.2h-0.2v-0.2H20.9L20.9,27.1z M27.4,36.7h0.2V37h0.2v0.2l0,0V37h0.2v0.5h0.2
	v0.2h-0.2l0,0h-0.2v0.5h0.2l0,0h0.2v-0.2l0,0v0.2l0,0v0.5h0.2v0.5l-0.2,0.2l0,0V40h-0.2v0.2h0.2l0,0h-0.2v0.2h-0.5v-0.2h-0.2
	L27.2,40l-0.2-0.2l-0.2-0.2v-0.2h-0.2v-0.5h-0.2v-1.4h0.2v0.2h0.2v0.2h0.5v0.2h0.2v0.2h0.2v-0.2h-0.2v-0.2h0.2v0.2h0.2v-0.2h-0.5
	v-0.5l0,0L27.4,36.7L27.4,36.7z M27.9,46.3l0.7,0.5h0.2l0.2-0.2l0.5-0.2H30l0.2-0.2h0.2v-0.2h0.2v-0.5H31v0.2l0,0V46h0.2v-0.2h0.2
	V46l0,0v-0.2H32V46h0.2v-0.2H32v-0.2h0.2v0.2l0,0l0,0h0.2l0,0h0.2v0.7H33l0,0h0.2v0.2h0.2v1h0.2v0.5l0,0v0.2h0.2v0.2h0.2v0.2h0.2
	v0.2h0.2v0.2h0.7v0.2h0.2v1.2h0.2v0.5h0.2v0.2h0.2v0.2l0,0v0.5H37l0,0h0.5v1H37v0.2h0.2v-0.2h0.2v0.2h-0.2v1l0,0v0.2h0.2V55l0,0v0.2
	h0.2v0.2l0,0V56h-0.2v0.2h0.2V56l0.2-0.2l0,0v-0.2l0,0v-0.2l0,0v0.5h0.2V56h0.2v0.2h-0.2v0.5H38v0.5h-0.2v1H38v0.2h-0.2v1.2l0,0v1.2
	h-0.2V61h-0.2v0.5h0.2v0.2h0.2V62h-0.5v0.2H37v0.2h0.5V63h-0.2l0,0l0,0v0.5h0.2v0.5h0.2l0,0H38v0.5h0.2v0.2l0,0v0.2H38l0.2,0.2v0.5
	h0.2v1.7h0.2v0.2H39V69h-0.2v1H39v0.7h-0.2v0.7l-0.2,0.2l-0.2,0.2L38,72.1v0.2l-0.2,0.2H38v0.2h-0.2v0.2h-0.2v0.5h-0.2V74l0,0v1H37
	v0.7h-0.2v0.7h-0.2V77h-0.2v0.2H36v0.2l0,0v0.2l0,0v0.5h-0.2v0.7h-0.2v0.2h-0.2v0.5h-0.2v0.7l0,0v0.2h-0.2v1.2h0.2v0.5h-0.2V83h-0.2
	v0.2h-0.2v0.2l0,0v0.7h-0.2v0.7h-0.2v0.2h-0.2v0.7h-0.2v0.5h-0.2v0.2h-0.2v0.2l0,0v0.2h-0.5v0.2l0,0l-0.2,0.2v0.2H32v0.5h-0.2v0.2
	H32V89h-0.2v0.5l0,0V90h-0.2v0.2H31v0.2h-0.2v0.2h-0.2v0.2H30v0.2h-0.5l0,0h-0.5v0.2h-0.2v0.2h0.2v-0.2h0.2v0.2l0,0v-0.2h0.2l0,0H30
	v0.2h-0.5v0.2h-0.7v0.2h-0.5v0.2h-0.2v0.2h-0.2v0.5h-0.2l-0.2,0.2v0.5h-0.2V94h-0.2v0.5h-0.2v0.2h-0.2v0.5h-0.2v0.5h-0.5v0.2h-0.2
	v-0.2h-0.2v-0.2H25v0.2h0.2v0.2l0,0v0.2h0.2v-0.2l0,0v0.2h0.2v0.2h-0.2v0.7h-0.2v0.2l0,0v0.7H25v-0.2h-0.2v0.2h-0.2v0.2h0.2l0,0l0,0
	v-0.2H25v0.2h-0.2v0.2l0,0v-0.2h-0.2v0.2h0.2v0.2h-0.2V99H24v0.2h-0.2v0.2h-0.2v0.7h-0.2v0.8h-0.2v0.2l0,0v0.7h-0.2v0.2h-0.2v0.5
	h-0.2v0.2h0.2v0.5h0.2v0.5h-0.5v-0.2l0,0v-0.2h-0.2v0.7h0.2v0.2h-0.2l0,0h-0.7v0.5h-0.2v0.2h-0.2v0.2l0,0v0.2h-0.2v0.7h-0.2v0.2
	h-0.2v-1.4l-0.2-0.2l-0.2-0.2l-0.2-0.2v-0.2h0.2v-2.6l0.2-0.2v-0.7l0.2-0.2v-0.5L20,99.6v-0.2h0.2v0.2h0.2v-0.2h0.2v-0.5l0.2-0.2
	h-0.2l-0.2,0.2l-0.2,0.2v-0.2l0.2-0.5l0.2-0.2l0.2-0.2v-2.6L20.7,95v-0.5l-0.2-0.2v-0.5l0.2-0.2h0.2v-0.2h-0.2v-0.5h-0.5v-0.2H20
	v-0.5h0.2v-0.7H20v-0.2l0,0v-0.2h-0.2v-0.7l0,0V90h-0.2v-0.7l-0.2,0.2v-0.7h-0.5v-1H19v-0.2h0.2v0.2h0.5V88h-0.2v0.5H20v-0.2h0.2
	v0.2h0.2v0.2h1V89h0.2v0.2H22v-0.5h0.7v-0.2h0.2l0,0h0.7v-0.2h0.2v0.2h0.2v-1h-0.2v-0.2h0.2V87h0.2v-0.2h0.5v-0.2h-0.2v-0.2h-0.2
	v-0.5h-0.2v-0.5h-0.2v-0.5h-0.2v-1.6l0,0v-0.5h-0.2v-1.2h-0.2v-1h-0.2v0.7h-0.2v-0.5h0.2v-0.2h-0.2v-0.2l-0.2-0.2v-0.2h0.2v-0.2
	h-0.2v-0.2l-0.2-0.2v-0.2H22l0,0h-0.2v-0.5H22l0,0h-0.5v0.2h-0.2v-0.2h0.2v-1l0.2-0.2H22v0.2h0.2v-0.2l0,0v0.2h0.2v-1h0.2v-0.2h-0.2
	V76h0.2l0,0h0.2v-0.7l0,0l0.2-0.2v-0.7h0.7v0.2h0.2l0,0h0.2v0.2h0.2V75h-0.2v0.2h0.5V75H25l0,0h0.2v-0.5h-0.5v-0.7H25v-0.2h0.5l0,0
	h0.2v-0.7H26v-0.2h-0.2v-0.2H26v0.2h0.2v-0.2H26v-0.5h-0.2l0.2-0.2v-0.2h0.2V70h0.2v0.5H27l0.2-0.2V70h0.2v-0.5h-0.2v-0.2h0.2v0.2
	h0.2v-0.2h0.2V69h0.2v-0.2h0.2v-0.2h0.2v-0.2h0.2v-0.2h-0.2v-0.2l0,0v-0.2h0.7v-0.2h0.7v-0.2l0,0v-0.2h-0.2v-0.2h-0.2v-0.2h0.2v0.2
	h0.7l0,0h0.2v0.7h0.5v0.2h0.2v0.5h0.2v0.2h0.5v0.5h0.2v-0.2h0.2v-1h-0.2v-0.5h0.2v-0.2h-0.5v-0.5H32v-0.5h-0.2v-0.2H31v-0.5L30.8,65
	v-0.2h-0.2v-0.2h-1v-0.2h0.2V64H30v-0.2h0.2v-0.2H30v-0.7h0.5v-0.2H30v-0.2h-0.2v-0.2h-0.2v-0.2h-0.5v-0.2l0.2-0.2v-0.7h-0.2v-0.5
	h-0.2v-0.2l-0.2-0.2v-0.2l0,0v-0.2h-0.2v-0.5h0.2v-0.2h0.2v-0.2h0.5v0.2h0.5v-0.2h-0.2v-1h1v-0.7h-0.2v-0.2h0.2V56H31v-0.7h0.2v-0.2
	h0.2l-0.2,0.2h0.2v0.5L31.2,56v0.7h0.2v0.5H32V56h0.2v-0.5H32v-0.2h-0.2v-1h-0.2v-0.2h-0.2L31,54.3h-0.7v-0.7h0.2v0.2h0.2V52
	l0.2-0.2v-0.2h0.2v-0.2h-0.5L30.6,51l0.2-0.5v-0.2h-0.7v0.2l-0.2-0.2v-0.2l0.2-0.2v-0.5h-0.2v-0.2h-1v-0.2l-0.2,0.2v1.4h-0.2v0.2
	h-0.2v-0.2h-0.2v-0.7l-0.2-0.2l-0.2-0.2h-1v-0.5l0.2-0.2h0.2l0.5-0.2v-1l-0.2-0.2V47l-0.2-0.7V46h-0.2l0.2-0.2v-0.5h0.2V45h0.2v0.2
	h0.2v0.2l0.2,0.5L27.9,46.3z M39.4,49.2v1.4h0.2v0.7h-0.2v0.5h-0.2v0.5h-0.2v0.5h-0.2v0.5h-0.2v0.5h-0.2v0.5L38,54.5v0.7l-0.2-0.2
	v-0.5h-0.2v-0.7h0.2v-0.5L38,53v-0.2h0.2V52H38v-0.2h0.2v-0.2h0.5v-0.2H39v-0.5h0.2v-0.7H39v-0.2h-0.2l0.2-0.2l0.2-0.2h0.2
	L39.4,49.2z M37.7,60.4v1.2H38v0.2h-0.2v-0.2h-0.2v-1h0.2L37.7,60.4z M39.2,61.4v0.5h-0.2v0.7l-0.2,0.2h0.2v0.5h-0.2v-1.7h0.5
	L39.2,61.4z M39.2,63.6h0.2l-0.2,0.2V64l-0.2,0.2v0.5h-0.2v0.5h-0.2v-0.5l0,0v-0.2h0.2v-1h0.2l0,0L39.2,63.6z"/>
</svg>
