<?xml version="1.0" encoding="utf-8"?>
<!-- Generator: Adobe Illustrator 20.1.0, SVG Export Plug-In . SVG Version: 6.00 Build 0)  -->
<svg version="1.1" id="Layer_1" xmlns="http://www.w3.org/2000/svg" xmlns:xlink="http://www.w3.org/1999/xlink" x="0px" y="0px"
	 viewBox="0 0 144.8 57.2" style="enable-background:new 0 0 144.8 57.2;" xml:space="preserve">
<style type="text/css">
	.st0{fill:#C14803;}
</style>
<title>himalaya</title>
<path class="st0" d="M130.2,32.8l0.2,0.2l0.7,0.2l0.2,0.2l0.5,0.2l0.7,0.5l0.7,0.5l0.5,0.5l0.5,0.5l0.5,0.2l0.2,0.2l0.5,0.2l0.2,0.2
	l0.2,0.2l0.5,0.2v0.5l0.5,0.5l0.2,0.2l0.5,0.5l0.2,0.5l0.2,0.5l0.2,0.2l0.2,0.5l0.5,0.2l0.2,0.2l0.2,0.5l0.7,0.5v0.2h0.2v0.2h0.5
	v0.2h0.2l0.2,0.2v0.2l0.2,0.2v0.2h0.3l0.2,0.2v0.5h0.5v0.2h0.2v0.2l0.2,0.2v0.2h0.2l0.2,0.2v0.2h0.2V46h0.2l0.2,0.2v0.2h-0.2
	l-0.2,0.2h-0.2V47h-0.5v0.2H143l-0.2,0.2v0.2h-0.5l-0.2-0.2h-0.2l-0.2-0.2l-0.2-0.5l-0.2-0.2l-0.5-0.2l-0.5-0.2l-0.2-0.2l-0.2-0.2
	h-0.2l-0.2,0.2V46l0.2,0.7l0.2,0.2h-0.2l-0.2-0.5h-0.2v-0.2h-0.2l-0.2-0.2l-0.2,0.2v0.2l0.2,0.2l0.5,0.5l0.5,0.2l0.2,0.2l0.2,0.2
	l0.2,0.2l0.2,0.2v0.2l0.2,0.5l0.2,0.2v0.2l-0.5-0.2l-0.2-0.2l-0.2-0.2l-0.2-0.2h-0.2v0.2h-0.7l-0.2-0.2h-0.7v-0.5h0.2v-0.3l-0.2-0.2
	l-0.2-0.2l-0.2-0.2v0.7h-1.4l0,0l-0.2,0.2l-0.2-0.2v0.2l-0.2,0.2h-0.2v0.5h0.2l0.2,0.2h0.5l0.2,0.2h0.2v0.5l-0.2-0.2v0.2l-0.2-0.2
	h-0.2v0.2h-0.2l-0.2,0.2v0.2h-0.2l-0.2-0.2H134v0.5h0.2V51h-1.2l-0.2-0.2h-0.5l-0.2-0.2l-0.2-0.2v0.2h-0.2v1l-0.2-0.5l-0.2-0.5v-0.5
	l0.5-0.5v-0.2l0.2-0.2h-0.5l-0.2,0.2v0.2h-0.2l-0.2,0.5l-0.2-0.2h-0.2l-0.2-0.2l-0.5,0.2v0.2h-0.7l-0.2,0.2l-0.2,0.2v1l-0.5,0.5
	l-0.2,0.5v1.2l0.2,0.2l0.2,0.2v0.2l-0.2,0.2v0.2h-0.2v-0.2l-0.7-0.2l-0.2-0.2h-0.2l-0.2-0.2v-0.7l0.2-0.2v-0.3l-0.2-0.2l-0.2-0.5
	l-0.2-0.2l-0.2-0.2v-0.2l-0.2-0.5l-0.2-0.2h-0.7l-0.2,0.2h-0.2l-0.2-0.2l-1.2,0.2h-0.5l-0.2,0.2l0.2,0.2v0.5h-0.2l-0.2,0.2v0.5
	l-0.2,0.2l-0.2,0.2h-1.2v0.2h-0.2V53h-0.2v0.2h-0.7l-0.2,0.2h-3.8v0.2h-1.2l-0.2,0.2h-1l-0.2-0.2l-0.2-0.2h-0.2l-0.2,0.2h-0.2v0.2
	h-1.2l-0.2,0.2v0.2l-0.2,0.2v1.2l-0.7-1.2l-0.7-2.2l-0.5-1l-0.5-0.7l-0.2-0.2h-1l-1.7-0.2h-1.7l-1.2,0.2l-0.5,0.7l-1,0.7l-1,0.2
	L95.9,52h-0.7l-0.7-0.2l-1.9-0.2h-0.5l-1.2-0.2l-2.6-0.5l-0.5-0.2l-1.2-0.2l-1.2-0.5l-1.2-0.5h-0.2l-1-0.2l-1.2-0.5l-0.5-0.2
	L80,47.7h-1.2l-0.5-0.2l-0.2-0.2h-0.2L77.7,47h-1.2L75,47.2h-1l-1.2-0.2l-0.5-0.2l-0.5-0.2l-0.2-0.2h-1.9V46l-0.5-0.2H69v-0.3h-0.2
	l-0.5-0.2L68.1,45h-0.2l-0.2-0.2l-0.2-0.2h-0.2L66.6,44h-0.2l-0.2-0.2l-0.7-0.2v-0.2H64l-0.2-0.2h-0.3v-0.2l-1.4-0.7l-1.4-0.7
	l-1.2-0.2h-1l-0.7-0.5L57,40l-0.5-0.5L56,39.3l-1.7-0.5l-1.2-0.5l-1.7-0.5l-1.2-0.5l-1.2-0.5l-0.5-0.5l0.5,0.2l-0.2-0.2h-0.2v-0.2
	h-0.2v-0.3l0.2-0.2l0.2-0.2v0.2h0.7l0.2,0.2H50v-0.5h-0.2l-0.5-0.2l-0.2-0.2h-1l-0.2-0.2h-0.5l-0.2-0.2h-0.2V34h-0.2v-0.5l-0.2-0.2
	h-0.2L46,33v-0.2h-0.2v-0.2l-0.2-0.2v-1h-0.2v0.2L45,31.8h-0.2v-0.2l-0.2-0.2L44.3,31v-0.2l-0.2-0.2l-0.2-0.2h-0.2v-0.2h-0.2v-0.2
	h-0.5v-0.2h-0.2v0.2h-1l-0.2-0.2h-0.2l-0.5-0.5H40v-0.2h-0.2v-0.5h-0.3v-0.2h-0.7v0.2l0.7,0.5h-1v0.2l-0.2-0.2H38l-0.2-0.2h-0.5
	v-0.2h-0.2l-0.2-0.2L36.4,28l-0.2-0.5h-0.2l-0.2-0.2h-0.2V27l-0.2-0.2l-0.5-0.2l-0.2-0.2h-0.2L34,26.1h-0.2l-0.2-0.2l-0.2-0.2v-0.2
	l0.2-0.2v-0.2l-0.2-0.2L33,24.4h-0.7v-0.2h-0.2l-0.5-0.2v-0.2l-0.2-0.2l-0.2-0.2h-0.2l-0.2-0.2v-0.2h-0.2v-0.2h-0.7l-0.2-0.2h-0.7
	L28.5,22h-0.2v-0.2H28v-0.3l-0.2-0.2V21l-0.2-0.2v-0.2l0.2-0.2L27.5,20h-0.2v-0.2L27,19.6h-0.2v-0.2l-0.2-0.2h-0.7l-0.2-0.2h-0.2
	v-0.2l-0.2-0.2h-0.2l-0.2-0.2v-0.2l-0.2-0.2l-0.2-0.2l-0.2-0.2l-0.2-0.2v-0.5h-0.2l-0.2-0.2h-0.7v0.2h-0.2v0.2h-0.5v0.2H21l-0.2-0.2
	H20v0.2h1v0.7h0.5v0.2h0.2v0.2H22v0.2h0.7v-0.5H23v1h0.2v0.5l0.2,0.2v0.2h1.2v0.2h0.5v-0.2h0.2l0.2,0.2l0.2,0.2v-0.2h0.2v0.2h0.2
	l0.2,0.2h0.2v0.2H27V21h0.2v0.2H27V22h-0.2l0,0h-0.5v0.2h-0.2L25.8,22h-0.2v0.2h-0.2L25.1,22h-0.2l-0.2-0.2l-0.2-0.2h-0.2l-0.2-0.2
	h-0.2V21h-0.2l-0.2-0.2h-0.2v-0.2h-0.5L22,20.3h-0.2v-0.2h-0.5v-0.2H21v-0.2h0.2v-0.2l0,0v0.2H21l-0.2-0.2v-0.5l-0.2-0.2l-0.2-0.2
	H20v-0.2l-0.5-0.2h-0.2l-0.2-0.2h-0.2v-0.2h-0.2v-0.2h-0.2l0.2,0.2h-0.2v-0.2l-0.7-0.2l-0.5-0.2h-0.2l-0.2-0.2h-0.2l-0.2-0.2H16
	l-0.5-0.5l-0.2-0.2H15l-0.2-0.2L14.5,15h-0.2v-0.2h-0.2v-0.2h-0.2v-0.2h-0.2l-0.2-0.2l-0.2-0.2v-0.2l-0.2-0.2v-0.2h-0.2v-0.5h0.2
	v-0.2h0.2v-0.2h0.2v-0.5h-0.2l-0.2,0.2h-0.2v-0.2h-0.2v-0.2h-0.2l-0.2-0.2l-0.2-0.2h-0.2l-0.2,0.2h-0.2v-0.2h-0.2l-0.2-0.2l-0.2-0.2
	H9.7l-0.2-0.2H9.2L9,10V9.7H8.8L8.5,10H8.1V9.7l0.2-0.2H8.1V9.3H7.8V9L7.3,8.5V8.3H7.1V8.1H6.8V7.8H6.4L6.1,7.6V7.1L5.9,6.9L5.7,6.6
	H5.4L5.2,6.4H4L3.8,6.1V5.7L4,5.4V5.2H3.7V4.7H3.5V4.5H3.2V4.2H2.5V4H2V3.7L1.8,4L1.6,3.8h0.2V3.5L1.6,3.3V2.8L1.3,2.5V2.3L1.1,2.1
	V1.8L0.6,1.3V1.1H0.4V0.4h0.5v0.2h0.2l0.2,0.2l0.2,0.2H3l0.2,0.2l0,0h0.3v0.2h0.2V1.3L4,1.1l0.2,0.2v0.2H5v0.2h0.2v0.2l0.2,0.2v0.2
	l0.2,0.2h0.2V2.5h4.6V2.3h2.6l0.2,0.2h0.2v0.2h0.2L14.1,3h0.5l0.2,0.2h0.5l0.2,0.2h0.2L16,3.7V4h0.2v0.2l0.2,0.5v0.7h-0.2v0.7
	l0.2,0.2l0.2,0.2h0.7l0.2,0.2h0.7l0.2,0.2h0.5v0.2l0.5,0.2l0.5,0.2l0.2,0.2v0.2l0.2,0.2V8.3h0.2v0.2h0.5v0.2h0.5V9H22v0.2l0.2,0.2
	l0.2,0.2l0.2,0.2H23v0.2l0.2,0.2h0.5v0.2h0.5v0.2h0.2v0.2h0.2v0.2h0.2l0.2,0.2l0.2,0.2h0.5v-0.2l-0.2-0.2h0.2v0.2l0.2,0.2v-0.2h-0.2
	l0.2-0.2v0.2h0.2v0.2l0.2-0.2v0.5h0.2v-0.2h0.5v0.2l0,0L27,12.4h0.2l0,0h0.2v0.2h-0.2v0.2l0.2-0.2v0.2h0.2v-0.2H28v0.2h0.2v0.2H28
	v0.2h0.2v0.2h0.2v0.2h0.2l0.2,0.2v-0.5l0.2,0.2l0,0h0.2l0,0l0.2,0.2h0.2l-0.2,0.2l0,0v0.2l0.2,0.2v-0.5h0.2v0.2h0.2V15h0.2v0.2
	l0.2-0.2l-0.2-0.2h0.2V15l0.2,0.2h0.2l-0.2,0.2h-0.2v0.2h0.5v-0.2h0.2V16h0.2v-0.2h0.2V16h0.2v0.2h0.2V16l0.2,0.2H33l0.2,0.2v0.2H33
	l-0.2-0.2h-0.2v0.2H33L32.8,17l0,0l0.2,0.2h0.2l0.2,0.2H34l0.2,0.2h0.5v-0.2h0.5v-0.2h0.2V17h0.5l0.2,0.2l0.7,0.5l0.2,0.2l0.2,0.2
	l0.2,0.2l0.2,0.2v0.2h0.5v-0.5H39v0.5h0.2v0.2h0.2l-0.2,0.2v0.2H40v-0.2h0.7l0.5,0.5l0.2,0.2v0.2l0.2,0.5l0.5,0.5l0.2,0.5l0.2,0.2
	v0.2h0.2v1h0.2V23h0.5l0.2-0.2l0.2,0.2l0.2,0.2h0.2v-0.5h0.2v-0.5L44.5,22v0.2l0.2,0.2h-0.5l-0.2-0.2v-0.7l-0.2-0.2v-0.5h0.2v-0.2
	h0.2l0.2-0.5h0.2l-0.2,0.2v0.2l0.2,0.2h0.5l0.2,0.2v-0.2h0.2l0.5,0.2l0.2,0.2h0.2v0.2l0.2,0.2l0.2,0.2l0.2,0.2l0.2,0.2l0.2,0.2
	l0.2,0.2l0.2,0.2l0.2,0.2v0.2l0.2,0.2l0.2,0.2l0.2,0.2l0.5,0.2l0.2,0.2l0.2,0.2h0.2l0.2,0.2H51v0.2h0.2v-0.2h0.2v-0.2l-0.2-0.2
	L51,24.6h0.2v0.2h0.2l0.2,0.2v0.2H52l0.2,0.2l0.2,0.2l0.5,0.2h0.2L53,25.6h0.2l0.2,0.2l0.2,0.2l0.2,0.2h0.5v0.2h0.7l0.2,0.2l0.2,0.2
	h0.2l0.2,0.2l0.5,0.2h0.2l0.2,0.2h0.7V28h0.5v0.2h0.2l0.2,0.2V28h0.5v0.2h0.5v0.2h-0.5l0.2,0.2h0.2l0.2,0.2h0.2v-0.3h0.2v0.2h0.5
	l0.2,0.2h0.2l0.2,0.2h0.5l0.2,0.2h0.2l0.5,0.2h0.2v-0.2l0.2,0.2l0.2,0.2l0.2,0.2l0.2,0.2v0.5H64v0.2h-0.2l0.2,0.2l0.2,0.2l0.2,0.2
	l0.2,0.2v0.2l0.2,0.2l0.2-0.2h0.2v0.2h0.5l0.2,0.2h0.2v0.2h0.5l0.2,0.2v0.2h0.5v0.5h0.2l0.2-0.2v0.2h0.5v0.2l0.2,0.2H69l0.2,0.2
	l0.2,0.2l0.2,0.2H70l0.2,0.2l0.2,0.2l0.2,0.2h-0.5v0.2l0.2,0.2l0.2,0.2h-0.2v0.2H71v0.2h0.5v0.5h0.2v0.2h-0.2l0.2,0.2l0.2,0.2h0.2
	v-0.2h0.2l0.2,0.2v-0.5l0,0v-0.2l0,0v-0.5h-0.2l0,0h0.2v-0.2l-0.2-0.2v-0.7l-0.2-0.2v-0.2h-0.3v0.2h-0.2v0.2l-0.2-0.2h-0.2l0.2,0.2
	l-0.2-0.2l-0.2-0.5l-0.2-0.2v-0.2h0.5v-0.2h0.2l-0.2-0.2h-0.7v-0.2H70L69.7,34l-0.2-0.2v-0.3h-0.2v-0.2h0.5v0.2h0.5v0.2h0.5V34h0.5
	l0.2,0.2l0.2,0.2l0.2,0.2l0.2,0.2v0.2l0.2,0.2l0.2,0.2v0.2l0.2,0.2h1l0.2,0.2l0.2,0.2l0.2,0.2l0.2,0.2l0.2,0.2l0.2,0.2l0.2,0.2H76
	v-0.2h-0.2l-0.2-0.2l0.2-0.2H76v0.2h0.2l0.2,0.2l0.2,0.2l0.2,0.2h0.5l-0.2-0.2v-0.2L77,37.4h0.5v0.2l0.5,0.2l0.5,0.2l0.2,0.2h0.2
	v0.2l0.2-0.2v-0.7h-0.2v-0.2l-0.2-0.2h-1l0.5-0.2l0.2-0.2h0.5l0.2,0.2h1l0.2,0.2h0.2l0.5,0.2h1.4l0.5,0.2h0.2l0.2-0.2h0.2v-0.3
	l0.2-0.2h1.4l0.5,0.2h2.4l0.2,0.2h1l0.2,0.2H90v0.2l0.2,0.2v0.2h0.2l0.2-0.2v-0.2h0.2l0.2,0.2h0.2l0.2,0.2l0.2,0.2v-0.2h0.2v0.5
	l0.2,0.2h0.2l0.2-0.2h0.5L93,38.5h-0.7l-0.2-0.2v-0.2l0.2-0.2h-0.2v-0.2h0.2v-0.2h0.5l-0.2-0.2l-0.2-0.2v-0.5h0.5l0.2,0.2h-0.2v0.2
	H93l0.2,0.2l0.2,0.2h-0.2L93,37.6v0.2l0.2,0.2v-0.2h0.2l0.2,0.2H94v-0.2l-0.2-0.2h-0.3v-0.2h0.2l0.3-0.2h0.7v0.2H95l0.2,0.2v0.2h0.2
	v-0.7h0.2v0.2l0.2,0.5l0.2,0.2h0.2v-0.2h0.2v-0.2h0.2l0.2,0.2h-0.2v0.2l0,0l0.2,0.2h-1.2l-0.2-0.2h-0.2l0.2,0.2l0.2,0.2l0.2,0.2h0.7
	l0.2-0.2l0.2,0.2l0.2,0.2l0.2,0.2h0.2V39l-0.2-0.2v-0.2h0.2v0.2l0.2,0.2h0.2v0.2h0.2V39l-0.2-0.2v-0.2l-0.2-0.2h-0.2l0.2-0.2h0.2
	l0.2,0.5v0.2L99,39l0.5,0.2l0.2-0.2l0.2,0.2v0.2h-0.7L99,39.7l0,0l0.2,0.2h1v0.2l0.2,0.2v0.5h-0.2v0.2l-0.2,0.2h-0.2l-0.2,0.2h-1
	v0.2l0.2,0.2l0.2,0.2v0.5h0.2l0.2,0.2l0,0h0.2v0.2l0.2,0.2l0.2,0.2h0.2V44h0.5v-0.7l-0.2-0.2v-0.2h-0.2v-0.5h0.2v0.2h0.2v0.2h0.5
	v-0.2h0.2l0.2-0.2h0.2v-0.2l0.2-0.2h0.2l0.2-0.2v-0.5h-0.2v-0.2h0.2l0.2-0.2l-0.2-0.2h-0.7V40l0.2-0.2h-0.2v-0.3h-0.2V39l-0.2-0.2
	h-0.7V39l-0.2-0.2h-0.5v-0.2l-0.2-0.2h-0.5l-0.2-0.2h0.2v-0.2h0.5l-0.2-0.2v-0.2l-0.2-0.2l-0.2-0.2h-1.2l-0.2,0.2l-0.2-0.2h-0.2
	l-0.2-0.2h1.2l0.2-0.2h0.7l0.2,0.2l0.2,0.2l0.2,0.2v0.2h0.5v-0.2l0,0l-0.2-0.2v-0.2h0.2l0.2,0.2h0.2l-0.2-0.2l-0.2-0.2h0.2l0.2,0.2
	h0.2v0.2h0.2v-0.2h0.5l0.2,0.2l0.2,0.2h0.7v0.2h-0.7l-0.2-0.2l-0.2,0.2v0.2h0.5v0.2h0.2l0.2,0.2l0.2,0.2v0.5h0.2v0.5l0.2,0.2v0.2
	l0.2-0.2l0.5,0.2h1.4l0.5,0.2l0.2,0.2h1V40h-0.7l-0.2-0.2h1.2v-0.3h0.7l-0.2-0.2H108l-0.2-0.2v-0.2h0.2V39h0.2l0.2,0.2h0.5l0.2,0.2
	l0.2,0.2v0.5h0.2l0.2,0.2h0.5l-0.2-0.2l-0.2-0.2h-0.2v-0.5h0.5l0.2,0.2l-0.2-0.2v-0.2l-0.5-0.2h-0.5l-0.5-0.2h-0.2l-0.5-0.2h-1.4
	l-0.2-0.2l-0.2-0.2l-0.5-0.2l-0.2-0.2H105l-0.5-0.2l-0.5-0.2h-0.5v-0.2h0.7l0.2,0.2l0.2,0.2h0.2l0.2,0.2h0.2l0.2,0.2h0.5l0.2,0.2
	h0.2v-0.5h0.2v0.2h0.7v-0.2h0.2l0.2,0.5l0.2,0.5h0.2l0.2,0.2h0.5l0.2-0.2h0.2v0.2h0.5l0.2,0.2h0.2v-0.2l-0.2-0.2v-1h0.2v0.2L111,38
	h0.7l-0.2-0.2l-0.2-0.2v-0.2l0.2,0.2h0.2l0.2,0.2l0.5,0.2h0.5v0.5h0.2v0.2l0.5,0.2l0.2-0.2l-0.2-0.5V38l0.2,0.2h0.2l0.2,0.2v0.2
	l0.2,0.2l0.2,0.2h0.5V39l-0.2-0.2v-0.2l-0.2-0.2l-0.2-0.2l-0.2-0.2v-0.5l0.2,0.2h0.5v-0.2h0.2v-0.5h0.2v0.2l0.2,0.5v0.2h0.2V38h0.2
	v-0.2l0.2-0.2v-0.5h0.2v-0.2l-0.2-0.2h-0.2v-0.5l0.2,0.2l0.2,0.2l0.2,0.2h0.5l0.2,0.2h0.5l0.2,0.2v-0.2l0.2-0.2v-0.2H118l-0.5-0.2
	h-0.2v-0.2h0.5l0.2,0.2h0.2v-0.2H118v-0.2h0.2l0.2,0.2h0.2v-0.5l0.2,0.2l0.2,0.2v0.5l0.2,0.2l0.2-0.2v-0.5h0.2l-0.2-0.2l-0.5-0.2
	v-0.2l0.2,0.2h0.2v-0.2l-0.2-0.2h-0.7v-0.2l-0.2-0.2l-0.2,0.2l-0.2-0.2v0.7h-0.2v-0.5l-0.2-0.2l-0.2-0.2l-0.2,0.2v0.5h-0.2l-0.2-0.5
	h0.2l-0.2-0.2v-0.2h-0.5v0.5l-0.2-0.2l-0.2-0.2l-0.2-0.2l-0.2-0.2h-0.5l-0.2,0.2v0.2l0.2,0.2h0.2v0.2h-1l-0.2-0.2h-0.7v-0.2h0.5
	l0.2,0.2h0.2v-0.7h-0.5l-0.2-0.2h-0.2l-0.2-0.2h-0.5l0.2,0.2l-0.2-0.2H112v0.5h0.2v0.5H112V34l-0.2-0.2h-0.2V34h-0.2v0.7H111V35
	l-0.2-0.2v-0.2l-0.2-0.2V34l-0.2-0.2h-0.5l-0.2-0.2l-0.5-0.2h1l0.2,0.2h0.5l0.2-0.2h0.2V33h0.2l-0.2-0.2l-0.2-0.2l-0.2-0.2h-0.2
	l-0.2-0.2v-0.2l0.2,0.2h0.2v-0.2l-0.2-0.2v-0.2l0.2,0.2v0.2h0.2l0.2,0.2l0.2,0.2h0.2l0.2,0.2V32h-0.2v-0.2h-0.2l-0.2-0.2H111v-0.2
	h-0.2l-0.2-0.2v-0.5l-0.2-0.2h0.2l0.2,0.2l0.2,0.2v0.2h0.5v0.2l0.2,0.2h0.3v-0.2h0.2l0.2,0.2l0.2,0.2v0.5l0.2,0.5l0.2,0.2h1.4
	l-0.2-0.2h-0.7l-0.2-0.2h-0.2v-0.7l-0.2-0.2v-0.2h-0.2l-0.2-0.2l-0.2-0.2l-0.2-0.2h0.5l0.2,0.2l0.2,0.2l0.2,0.2l0.2,0.2v0.2l0.2,0.2
	h0.2l0.2,0.2l0.2-0.2v-0.2h0.2l0.2,0.2v0.5h0.2v0.2l0.2-0.2v-0.2l-0.2-0.2h0.5l0.5,0.2l0.2,0.2l-0.2-0.2v-0.2l-0.5-0.2h0.7l0.2,0.2
	h0.2l0.2,0.2h0.2v0.5l0.2,0.2h-0.7l-0.7,0.2h-0.5l0.2,0.2h0.2l0.7,0.2h0.7l0.2,0.2h0.2v-0.2l0.2-0.2h0.5V34l0.2,0.2h0.2v-0.5
	l0.2,0.2l0.2,0.2l0.2,0.5h0.5l-0.2-0.2v-0.2l-0.3-0.2l-0.2-0.2l-0.2-0.2h-0.2l-0.2-0.2h-0.2V33h0.2l-0.2-0.2v-0.2h-0.5l-0.5-0.2
	v-0.5l0.5,0.2h0.7l0.2,0.2h0.2l0.5,0.2h1v-0.2h-0.5l-0.2-0.2l-0.2-0.2h-0.2l-0.2-0.2H119l-0.5-0.2H118l-0.2-0.2h-0.5l-0.2-0.2h-0.5
	l-0.2-0.2h-1l-0.2,0.2h-0.2v-0.2h-0.2l-0.2,0.2h-1l-0.2-0.2h1l0.2-0.2h0.5l-0.2-0.2h-0.2l-0.2-0.2H112l-0.2-0.2h-1l-0.2-0.2v-0.2
	h0.2l0.2,0.2h1.2l0.2,0.2v-0.2h-0.2l0.2-0.2l0.2,0.2h0.5l0.2,0.2h0.7l0.2,0.2h0.2l0.2,0.2h0.5v-0.2l0,0v-0.2h-0.5l-0.2-0.2h-0.5
	l-0.2-0.2l-0.2-0.2h-0.2l-0.2-0.2h-0.2v-0.5h0.2v0.2h0.5l0.2,0.2h0.7v0.2h0.2v0.2h0.5l0,0h0.5v-0.2h-0.7l-0.2-0.2h-0.2v-0.2l0.5,0.2
	l0,0v-0.2l0.2,0.2h0.7v-0.2l0.2-0.2v0.2h0.2l0.2,0.2v0.2h0.5v0.5H117l0.2,0.2H117l-0.5-0.2h-0.2l-0.2,0.2v0.2h-0.2v0.2h0.2v0.2h0.5
	l0.2-0.2l0.2,0.2h0.5l0.2-0.2v-0.2l0.2-0.2h0.2v1h0.5l0.2-0.2h0.7v0.2l0.2,0.2h-0.5l0.2,0.2h0.2l0.2,0.2h0.7l0.2,0.2h0.5l0.2,0.2
	v0.2h-0.2l-0.2-0.2h-0.2l0.2,0.2h0.2l0.2,0.2h0.2l0.2,0.2h0.2l0.2,0.2h0.2l0.5,0.2h0.2v-0.2H123l-0.2-0.2l-0.5-0.2l-0.2-0.2
	l-0.2-0.2l-0.2-0.5l-0.2-0.2l-0.2-0.2v-0.2l0.2,0.2l0.2,0.2l-0.2-0.5v-0.2h-0.2l-0.2-0.2v-0.3l0.2,0.2l0.2,0.2l0.2,0.2l0.2,0.2
	l0.2-0.2h-0.2l-0.2-0.5h-0.2v-0.2h0.5l0.2,0.2l0.2,0.2l0.2,0.2h0.2v0.2h-0.5v0.5l0.2,0.2l0.2,0.2l0.2,0.2h0.7v-0.5l-0.2-0.2v-0.2
	l-0.2-0.2l-0.5-0.2l-0.2-0.2l-0.2-0.2h0.2l0.2,0.2l0.5,0.2l0.2,0.2l0.2,0.2h0.3v0.2l0.2,0.2v0.5l0.2,0.2h0.2v-0.2h0.7l0.2,0.2
	l0.2,0.2l0.2,0.2l0.2,0.2l0.2,0.2l0.2,0.5l0.2,0.2l0.2,0.2V34h0.2v-0.2h0.2l0.2,0.2l0.2,0.2h0.5l0.2,0.2h0.2l0.2,0.2V35h0.2l0.2,0.2
	V35l-0.2-0.2v-0.2h-0.2l-0.2-0.2H129l-0.2-0.2h0.2v-0.2h0.2l0.2,0.2l0.2,0.2v0.2l0.2,0.2l0.5,0.2l-0.7-1.2l-0.2-0.5l-0.2-0.2v-0.2
	L130.2,32.8L130.2,32.8z M126.6,38.8h0.2v-0.2l-0.2-0.2l-0.2-0.2h-0.2v0.5h0.2L126.6,38.8z M95.2,43.1h1.4l0.2-0.2h0.2l0.2-0.2v-0.2
	h-0.2l-0.2-0.2l0.2-0.2h0.2v-0.2h-0.5l-0.2-0.2h-0.5v-0.5h-0.5v-0.5h-0.2v0.2h-1.2v-0.2L94,40.2v-0.5l-0.2-0.2h-0.3l-0.2-0.2h-0.5
	l-0.2,0.2l-0.2,0.2h-0.2v0.5h-0.2V40l-0.2-0.2V40h-0.5l0.2,0.2v0.2h-0.2v-0.2L90.9,40h-0.5l-0.2-0.2l-0.2-0.2l-0.2-0.2h-0.2L89.2,39
	h-0.5v0.5l-0.2-0.2H88l-0.2,0.2H87v0.2h-0.5V40l-0.2,0.2v0.2l0.2,0.2l0.2,0.2l0.2,0.2h0.2l0.2,0.2v-0.7h-0.2v-0.2h1l0.2,0.2l0.2-0.2
	h1.4l0.2,0.2h0.2l0.2,0.2v0.7h1v-0.5l0.2,0.2h0.2l0.2-0.2h0.2l0.2,0.5l0.2,0.2h0.5v0.2l0.2,0.2l0.2,0.2l0.2,0.2l0.2,0.2L95.2,43.1
	L95.2,43.1z M71.4,36.9h-0.2v-0.5l0.2,0.2V36.9z"/>
</svg>
