<?xml version="1.0" encoding="utf-8"?>
<!-- Generator: Adobe Illustrator 20.1.0, SVG Export Plug-In . SVG Version: 6.00 Build 0)  -->
<svg version="1.1" id="Layer_1" xmlns="http://www.w3.org/2000/svg" xmlns:xlink="http://www.w3.org/1999/xlink" x="0px" y="0px"
	 viewBox="0 0 139.1 122.5" style="enable-background:new 0 0 139.1 122.5;" xml:space="preserve">
<style type="text/css">
	.st0{fill:#C14803;}
</style>
<title>indo-burma</title>
<path class="st0" d="M87.1,121.4h-0.2v-0.5h0.2l0.2,0.2v1h-0.2l-0.2-0.2v-0.2h0.2V121.4z M85.9,120.2h0.2v0.2h0.5v-0.2h0.2l-0.2-0.2
	h-0.5v-0.2l-0.2,0.2V120.2z M90.4,111h0.5v0.2l0.2,0.2l0.2,0.2h0.2v0.3l0.2,0.2v0.2h0.2v0.2l0.2,0.2l0.2,0.2v0.2h0.2l0.2-0.2h0.7
	l-0.2-0.2h-0.2v-0.2h-0.5v-0.2l-0.2-0.2h-0.2V112h-0.2l-0.2-0.2v-0.2h-0.2v-0.2h-0.2V111h-0.2v-0.2h-0.2v-0.2l-0.2-0.2v0.2l-0.2,0.2
	L90.4,111z M81.3,112.7v0.3h0.2l0.2-0.2h0.5v-0.2l-0.2-0.2l-0.2-0.2h-0.2v0.2h-0.7v0.2h0.5L81.3,112.7z M80.8,111.7h0.2v-0.2h-0.2
	v-0.7h-0.2v0.5h-0.2l0.2,0.2L80.8,111.7z M71.2,98.2v0.2h0.2v-0.2h0.2V98h-0.2v-0.2h-0.2C71.2,97.8,71.2,98.2,71.2,98.2z M79.6,95
	h0.5v-0.2h-0.2v-0.2h-0.5v0.2h0.2V95z M99.3,91.6h-0.2v-0.2h-0.2v0.2l0.2,0.2h0.2v0.2h0.2l0.2,0.2v0.5L100,93v-0.7h0.2V92l-0.2-0.2
	v-0.5h-0.2l-0.2-0.2h-0.2L99.3,91.6L99.3,91.6z M39.3,89.2h-0.2V90h0.2v0.7H40l0.2-0.2H40V90h0.2v-0.2L40,89.4V89h-0.2v-0.2h-0.5
	L39.3,89.2L39.3,89.2z M69.3,89.5l0.2,0.2h0.2v-0.5h-0.2V89h-0.2C69.3,89,69.3,89.5,69.3,89.5z M70.8,89.2v0.2l0.2-0.2V89l-0.2-0.2
	h-0.2V89h0.2V89.2z M67.6,89h0.2v-0.2l-0.2-0.2h-0.2v0.2h0.2V89z M38.6,74.8V75l-0.2,0.2h0.2v0.5h-0.2V76h0.2v1.7h0.2v0.7h-0.2v0.2
	h-0.2l0.2,0.2v0.2h0.2v0.5h-0.2v0.2h0.2v1h0.2v1l-0.2,0.2v0.2h0.2l-0.2,0.2h0.2V83h-0.2v0.2h0.2v0.2l-0.2-0.2v0.2h-0.2v0.2h0.2V84
	l0.2,0.2v0.2h0.2v0.5h0.2v0.2h0.2v0.2h-0.2v0.5h0.2v0.2h-0.2v0.2H40v-1.2l0.2-0.2H40v-1.7h-0.5V83h0.2v-1H40v-0.2h0.2v-0.5H40V81
	h-0.2v-0.2H40v-0.2h0.2V80L40,79.8v-0.7h-0.2v-0.5l-0.2-0.2v-0.2h-0.2L39,77.9v-0.2h0.2L39,77.5h0.7v-0.7h-0.2v-0.2h0.2v-0.2h-0.5
	v-0.5h0.2v-0.2h-0.2v-0.7L39,74.6v0.2l-0.2-0.2v0.2L38.6,74.8z M68.9,84.4h0.2v0.2l0.2,0.2v0.2h0.5l0.2-0.2h-0.2v-1h-0.5v0.2
	l-0.2-0.2h-0.2V84.4L68.9,84.4z M90.5,84.9l0.2,0.2h0.2v-0.5h-0.2v-0.2h-0.2V84.9z M69.1,83.2v0.2h0.2v-0.2l0.2,0.2v0.2h0.2v-0.2
	l0.2-0.2h-0.2V83h-0.5l-0.2-0.2v-0.2h-0.2V83h0.2L69.1,83.2z M41,83.2h0.2V83H41v-0.2l-0.2-0.2H41l-0.2-0.2V83L41,83.2z M89.5,83.2
	V83l-0.2-0.2L89,82.5v-0.2h-0.7l0.2,0.2l0.2,0.2V83H89v0.2h0.2V83L89.5,83.2z M66.7,82h0.5v-0.2h-0.2v-0.2l-0.2-0.2
	C66.7,81.3,66.7,82,66.7,82z M65.9,81.3h0.5V81h0.2v-0.2l-0.2-0.2V81h-0.2v-0.2H66L65.9,81.3L65.9,81.3z M67.4,80.1h0.2v0.5h0.2v0.2
	h-0.2V81h0.2v0.2h0.2V81l0.2-0.2v-1h-0.5v-0.2l-0.2-0.2h-0.2L67.4,80.1L67.4,80.1z M124.3,80.1h0.2v-0.7h-0.2v0.2h-0.5l0.2,0.2h0.2
	L124.3,80.1z M66.7,77.4v0.2h0.2L66.7,77.4h0.2v-0.2h-0.2V77h-0.2v0.2L66.7,77.4z M57.1,59.4v0.2h0.2v0.5l0.2,0.2v0.2H58l0.2-0.2
	h-0.5v-0.2H58l-0.2-0.2v-0.7l-0.2,0.2v-0.2h-0.2V59L57,59.2L57.1,59.4z M117.3,46.7v0.5h0.2V47L117.3,46.7z M114.9,40.7h0.2V41h0.2
	v0.2h-0.2V41h-0.2V40.7l-0.7,0v-0.2h-0.5v0.2h-0.5l-0.2-0.2h-0.2l0.2,0.2V41h-0.5v0.5h-0.2v-0.2H112V41h-1.2v-0.2h-0.2l-0.2,0.2
	h-0.2v0.5h0.2v0.2h-0.5v-0.2h-0.7v-0.2h-0.2v0.2l-0.2,0.2v0.7h0.2v-0.2h0.2V42h0.2v0.2h-0.2v0.2h-0.2v0.2h-0.2v0.2h-0.2v0.2h-0.2
	v0.2h-0.2v0.2l-0.2,0.2v0.2h-0.5v1h0.5v0.5h-0.2l0.2,0.2V46h0.2v0.2l0.2,0.2V47h0.2v0.2l0.2,0.2l0.2,0.2V48l0.2,0.2v0.5h0.5v0.2h0.5
	v0.2h0.7v0.2h0.7l0.2,0.2h0.2v0.2h1.7v0.2h0.2l0.2,0.2h0.2v-0.2h0.2v-0.2h0.2v-0.5h-0.2v-0.2l0.2,0.2v-0.2l0.2,0.2h0.2v-0.2h0.7
	l-0.2-0.2h0.2v-0.2l0.2-0.2v-0.2h0.2V48h1v-0.2l-0.2-0.2h0.2v-0.2h0.2l-0.2-0.2v-0.2l-0.2-0.2v-1h-0.2l0.2,0.2h-0.2v-0.5l-0.2,0.2
	v-0.2h0.2v-0.7l0.2-0.2h-0.2v-0.5h0.2v-0.7l-0.2-0.2h0.2v0.2h0.5v-0.5h0.2v-0.2h-0.2l-0.2-0.5v-0.2l-0.5-0.5l-0.2-0.2v-0.2h-0.2V41
	h-0.2v-0.2h-0.5l-0.2-0.2h-0.2v-0.2l-0.2-0.2v0.2h-0.5v0.2h0.2L114.9,40.7z M33.1,47.2h0.2v0.2h0.2l0.2,0.2H34v0.2h0.2V47H34v-0.2
	h-1.2L33,47L33.1,47.2z M30.9,42.2h-0.2l0.2,0.2h0.2V42l-0.2-0.2v-0.2h-0.2V42h0.2V42.2z M110.6,39h0.5v-0.2h-0.2v-0.2h-0.2
	C110.6,38.5,110.6,39,110.6,39z M95.2,36.9h0.5l-0.2-0.2h0.2v-0.2h-1l0.2,0.2h0.2L95.2,36.9z M112.5,36.2h0.5v-0.2h-0.2l-0.2-0.2
	L112.5,36.2L112.5,36.2z M112,35.9h0.2v-0.5l-0.2-0.2h-0.5v0.2l0.2,0.2h0.2L112,35.9z M19.4,32.3v0.2h0.2v0.2h0.2V33h0.2v-0.5h-0.2
	v-0.2h0.2V32h-0.5v-0.2h-0.2V32.3L19.4,32.3z M120.4,32.3h0.5v-0.2h-0.2v-0.2h-0.2C120.4,31.8,120.4,32.3,120.4,32.3z M123.3,30.4
	v-0.5h-0.5v0.2h0.2L123.3,30.4z M52.5,54.2h-0.2v0.2h0.2V54.2z M42.9,58.7v-0.2h0.2L42.9,58.7z M43.4,59h-0.2v-0.2h0.2V59z
	 M50.6,59.2L50.3,59h0.2L50.6,59.2z M50.6,59.7l-0.2-0.2h0.2V59.7z M48.9,60.9h-0.2v-0.2L48.9,60.9z M44.8,60.9v-0.2h0.2L44.8,60.9z
	 M47.2,61.6v0.2L47,61.6h-0.2v-0.2H47L47.2,61.6z M29.7,1.9l0.2,0.2l0.5,0.5l0.5,0.2L31.1,3l0.2,0.2l0.2,0.2l0.2,0.2V4l0.2,0.5
	l0.2,0.2V5l-0.5-0.2l-0.2-0.2l-0.2-0.2L31.1,4h-0.2v0.2h-0.7L30,4h-0.7V3.5h0.2V3.3L29.2,3L29,2.8l-0.2-0.2v0.7h-1.5l-0.2,0.2
	l-0.2-0.2v0.2l-0.2,0.2h-0.2v0.5h0.2l0.2,0.2h0.5l0.2,0.2h0.2v0.5L27.5,5v0.2L27.3,5h-0.2v0.2h-0.2l-0.2,0.2v0.2h-0.2l-0.2-0.2h-0.5
	V6h0.2v0.5h-1.2l-0.2-0.2H24L23.7,6l-0.2-0.2V6h-0.2v1L23,6.4l-0.2-0.5V5.4L23.2,5V4.7l0.2-0.2H23l-0.2,0.2V5h-0.2l-0.2,0.5L22,5.2
	h-0.2L21.5,5l-0.5,0.2v0.2h-0.7l-0.2,0.2L19.9,6v1l-0.5,0.5l-0.2,0.5V9l0.2,0.2l0.2,0.2v0.2L19.4,10v0.2h-0.2V10l-0.7-0.2l-0.2-0.2
	H18l-0.2-0.2V8.6L18,8.3V8.1l-0.2-0.2l-0.2-0.5l-0.2-0.2L17,6.9V6.7l-0.2-0.5l-0.2-0.2h-0.7l-0.2,0.2h-0.2l-0.2-0.2l-1.2,0.2h-0.5
	l-0.2,0.2l0.2,0.2v0.5h-0.2l-0.2,0.2v0.5l-0.2,0.2l-0.2,0.2h-1.2v0.2H11V8.3h-0.2v0.2H10L9.8,8.8H5.9V9H4.8L4.5,9.2h-1L3.3,9
	L3.1,8.8H2.8L2.6,9H2.3v0.2H1.1L0.9,9.5v0.2L0.7,10v1.2h0.2v1h0.2l-0.2,0.2h0.2v0.2l0.2,0.2v0.2h0.2v-0.2l0.2,0.2v-0.2l0.2,0.2h0.2
	l0.5,0.2h0.5l0.2,0.2h0.7l0.2,0.2h0.2v-0.2h1L6,13.9v-0.2h0.2l0.2,0.2h0.5v-0.2h2.1l0.2,0.2h0.5l0.2-0.2v0.2h0.7v-0.2h1.9v0.2h0.5
	v0.2h0.7v0.2h0.5v0.2l0.2,0.2h1l-0.2,0.5v2.4l-0.2,0.5V21l0.2,0.2v0.5l0.2,0.7l0.2,0.5v0.5l0.2,0.5l0.2,0.2l0.2,0.5l0.2,0.2l0.2,0.2
	l0.2,0.2l0.2,0.2l1,1l0.2,0.2H19l0.2,0.5l0.5,0.5l1,0.7v0.2l0.2,0.2v0.2l0.2,0.2v0.5h0.2l0.2,1l0.2,0.7H22v0.2l0.7,1.2v0.2H23v0.5
	h-0.2l-0.2-0.2v-0.2h-0.2V33H22v0.2h-0.2v0.5h-0.2V34h0.2v0.7H22V35h0.2v0.2h0.5l-0.2,0.2v0.2H23l0.2,0.2H23v0.2l0.2,0.2v0.2h0.2
	v0.2h0.2v0.2l0.2,0.2h0.2l0.2,0.2h0.2v0.5h0.5v0.2h0.2v0.2h0.2l0.2,0.2V39h0.2v-0.5h-0.2v-0.2h0.2V38l0.2,0.2h0.2v0.2l0.2,0.2v-0.2
	l0.2,0.2l0.2,0.2h-0.2v0.2h-0.2v0.2h-0.2v0.2l0.2,0.2h0.2v0.2h0.5V40l-0.2-0.2h0.2v-1l0.2,0.2v0.7h-0.2V40h0.2l0.2,0.2V40h0.2v-0.2
	h0.2l-0.2-0.2h0.2V39l0.2,0.2L29,39v0.2h-0.5l0.2,0.2h-0.2V40h-0.2v0.2h-0.5l0.2,0.2l0.2,0.2h0.2v0.5h0.2V41H29v-0.2h-0.2v-0.2
	l-0.2-0.2h0.2v0.2l0.2,0.2v-0.2h0.2v0.2h0.2v-0.2H30v-0.2l0.2,0.2H30l0.2,0.2v0.5h0.2v-0.5h0.2V41h0.2v0.2h0.2v0.2l0.2-0.2h0.5
	L31.6,41h0.2v0.5h0.5l-0.2,0.2h0.5v0.5L32.3,42l-0.2-0.2h-0.5v0.5h-0.2v0.2h0.7v-0.2h0.2v0.5h0.2v-0.2h0.2l-0.2-0.2h0.2v0.5h-0.2
	v0.2h0.2v0.2h0.2v0.2l0.2,0.2v-0.2h0.2v0.2h-0.5v-0.2h-0.2v-0.2h-0.5v0.5h0.2v0.2h0.5v0.5h0.2v0.2h0.2v0.2l0.2-0.2v-0.2h0.5v0.2H34
	v0.2h-0.7v-0.2h-0.5v-0.5l-0.2-0.2h-0.2v0.2l-0.2-0.2h-0.5v0.2h0.2v0.2l0.2,0.2h0.2v0.2h0.2V45l0.2,0.2H33v0.2h0.2V46h0.5v0.2H34
	l0.2,0.2h0.2v0.2H35V46h-0.2v-0.5h-0.2v-0.2h-0.2V45h0.2v-0.2l0.2,0.2v-0.2H35V45l0.2,0.2H35v0.5h0.2l0.2-0.2v0.2h-0.2v0.5h0.2V47
	h0.2l0.2-0.2h0.2v0.5h0.2v0.5h0.2v-0.2h0.2l-0.2,0.2V48h0.2v0.2h0.2v0.2l0.2,0.2v0.2h0.2l0.2,0.2v0.2h0.5v0.5h-0.2v0.2h0.5l0.2,0.2
	v0.2h0.2v0.2l0.2,0.2v0.2h-0.2v0.2h0.2l0.2,0.2v0.5h0.2v0.2l0.2,0.2h0.2v0.5h0.2v0.2h0.2v0.2h-0.2V54h0.2v0.5l0.2,0.2v0.2h0.2v0.2
	h-0.5v0.2l0.2,0.2h-0.2v0.2H41v1h0.2V57H41v0.2L40.8,57v0.2l0.2,0.2l0.2,0.2H41v0.5h0.2v1H41v1.2h0.2v1.2h0.2v0.2l0.2,0.2v-0.2H42
	v0.2h0.2v-0.5h0.2v-0.2l0.2-0.2v-0.2h0.2v-0.2h-0.2l-0.2-0.2h0.5v0.2h0.2v-1.2h-0.2v-0.2h0.2v0.2l0.2,0.2v1h0.2v-0.2l0.2,0.2h-0.2
	v0.7h-0.2v-0.7h-0.2v0.2h-0.2v0.5l-0.2,0.2v0.2h-0.2v0.5h0.5v-0.5h0.5v-0.2h0.2l-0.2,0.2v0.2h0.2v0.2l0.2,0.2l0.2,0.2v-0.2h0.2v-0.5
	h0.2l-0.2-0.2l0.2-0.2v-0.2h-0.2v-0.2h0.2v0.2l0.2,0.2v0.2l0.2-0.2v0.2h-0.2l-0.2,0.2h0.2v0.2h0.2v-0.2h0.2v0.2h-0.2v0.2h-0.2
	l-0.2-0.2v0.2h-0.2V63h1l0.2,0.2h0.2V63H46v-0.5l-0.2-0.2v-0.5l-0.2-0.2h0.2v-0.7l0.2,0.2l0.2-0.2v0.2h0.2v0.2H46l-0.2,0.2l0.2,0.2
	v-0.2l0.2,0.2H46V62h0.2v0.7l0.2,0.2H47v-0.2h-0.2v-0.2H47v-0.2h0.2v0.2H47v0.2h0.2v0.5h0.2l0.2,0.2l0.2-0.2h0.2V63h0.2v-0.2
	l0.2-0.2v-0.2h0.2v-1.2h0.5v-0.5h0.2v0.2l0.2-0.2h0.2l0.2-0.2v-0.2l-0.2-0.2h0.2v0.2h0.5v-0.2h0.5v-0.2h0.2v-0.2h-0.2l-0.2-0.2h-0.2
	V59l-0.2-0.2v-0.2l-0.2-0.2h0.2l0.2,0.2v0.2l0.2,0.2h0.2v0.2h1.2V59h0.2v-0.2H53v-0.5h0.2v-1H53v-0.5l0.2,0.2v-1H53l-0.2-0.2v-1
	h-0.2v-0.2h0.2v0.2h0.5V55h0.2v0.2h0.2v0.2H54v0.2l0.2,0.2l0.2-0.2h0.2V56h-0.5v0.2h0.5v0.2h0.2V57h0.2l-0.2,0.2v0.2h0.5V58h0.2v0.2
	h0.5v0.2l0.2,0.2v0.5h0.7V59h0.5v-0.5l0.2,0.2L58,59v0.2h-0.2l0.2,0.2l-0.2,0.2L58,60v0.2h0.2v0.7h0.2v0.5h-0.2v0.2l0.2,0.2l0.2,0.2
	l0.2,0.2h0.2v0.2h0.2v0.7h0.2v0.5h0.2v0.5h0.2v0.5h0.2V66h0.2v0.2h0.2v0.2h0.2v0.7l0.2,0.2v0.5h0.2v0.5l0.2,0.2h0.2V69l0.2,0.2h0.2
	v0.2h0.2V70l0.2,0.2v0.2h0.2v0.2l0.2,0.2v0.2h0.2l0.2,0.2v0.2l0.2,0.2H64v0.5h0.2v0.5h0.2v0.5h0.2v0.2l-0.2-0.2v0.2l0.2,0.2v0.2H65
	l0.2,0.2v-1h0.2v0.5h0.2V74l0.2,0.2h0.2v0.2h0.2v0.2l0.2,0.2l0.2,0.2v0.2l0.2,0.2V76l0.2,0.2v0.2h0.2v0.2h0.2V77h0.2v0.2h0.2
	l-0.2,0.2h0.2V78l0.2,0.2v0.2h0.2v0.2h-0.2l0.2,0.2h0.2v-0.2h0.2v0.7h-0.2v0.7h0.5v0.2h-0.5v0.5h-0.2V81h0.2v0.2L68.8,81v0.5h0.2
	v0.2h0.5V82h0.2v0.5l0.2,0.2h0.2V83l0.2,0.2h-0.2L70,83.5v0.2h0.2L70,84h0.2v0.2L70,83.9v0.5h0.2l0.2,0.2l0.2-0.2v-0.2H71v0.2h0.2
	v0.2H71v0.7h0.2v0.5H71v0.2h0.2v0.5h0.2v0.7l-0.2,0.2v0.2h0.2v0.5h0.2v0.2h-0.5v0.2H71V89h0.2v0.7L71,89.4v0.2l0.2,0.2H71v-0.2h-0.5
	v0.2h0.2v0.5H71v0.7h0.2v0.2l0.2,0.2v0.2h-0.2l0.2,0.2v0.2h-0.2v0.2h0.2v0.2l0.2,0.2v0.5H72v-0.2l0.2-0.2L72,92.8h0.2v-0.2h0.2v0.2
	L72.2,93v0.5h0.2v0.2H72v1h0.2v0.5L71.9,95v0.7h0.2V96h-0.5l0.2,0.2v0.2h-0.2v1.2h-0.2l0.2,0.2v0.2h0.2v0.2h-0.2v0.2h0.2v0.2h-0.2
	v-0.2h-0.2v0.7h0.2v0.7h-0.2v0.2h0.2v0.8h-0.2l0.2,0.5v0.2l0.2,0.2l0.2,0.5v0.5l0.2,0.2v1.2h0.2v1h0.2v-0.5h0.2v-1.2h-0.2v-0.2h-0.2
	v-0.2l-0.2-0.2h0.2v0.2h0.5v-1h0.5V102h0.2l0.2,0.2h-0.2v0.5h0.2v-0.2h0.2l0.2,0.2v0.2h0.2l-0.2,0.2h0.2v0.7h0.2v-0.2h0.2v0.2h0.2
	v-0.2l0.2,0.2H76l-0.2,0.2H76v0.5l0.2,0.2h0.2v-0.2l0.2,0.2h-0.2v0.5l0.2,0.2v0.7l0.2,0.2v0.2h0.2v-0.2l-0.2-0.2V106h0.2v-0.2
	l-0.2-0.2v-0.2h0.2v0.2h0.2l0.2,0.2v0.2h0.2l0.2,0.2v0.2h0.2v0.7h0.2v0.2l0.2,0.2h-0.2v0.2l0.2,0.2v-0.2h0.2v-0.2h0.5v-0.5h0.2v0.5
	h-0.2v0.5h0.2v0.2h0.5v0.2h0.2v-0.2h0.2v0.2h-0.2v0.7h0.2v0.2h-0.2v0.2h0.2v0.2h0.5v0.2h0.2l0.2,0.2H82v0.4h0.2v0.2h0.2v0.2h0.2v0.2
	h0.5v0.5h0.2v0.5l0.2,0.2l0.2,0.2h0.2v0.2h0.2l0.5-0.2l0.5-0.2l0.5-0.5h0.2l0.2-0.2v-0.5h0.2l0.2-0.2v-0.2H87V111h0.2l0.2-0.2v-0.2
	l0.2-0.2h0.5l0.5-0.2h0.7v0.2h0.5v-0.5H89v-0.5h-0.2v0.5h-1v0.2h-0.2v-0.2H87v-0.2h-0.2v-0.2h-0.5l-0.2-0.2l-0.2-0.2l-0.2-0.2v-0.2
	l-0.2-0.2h-0.2v-0.2h-0.2v-0.2l-0.5-0.2V107l-0.2-0.2v-0.2l-0.2-0.2V106l-0.2-0.2v-0.5h-0.2v-0.5l-0.2-0.2v-0.5l-0.2-0.2v-0.5h-0.2
	v-0.5l-0.2-0.2v-0.2l-0.2-0.2v-0.2l-0.2-0.2v0.2h-0.2l-0.2-0.2h-0.2v-0.5H81V101h-0.2l-0.2-0.2v-0.5h-0.2v-0.5l-0.2-0.2v-1h-0.2
	v-0.5h-0.2v-0.7h-0.2v-0.2h-0.5v-0.2h-0.5v0.2h-0.2v0.2h-0.2v-0.2h-0.2v0.5h-1v-0.2h-0.2v0.2h-0.2v-0.2H76v-0.5h0.2v-0.2h0.2
	l-0.2-0.2H76v-0.5h-0.2v-0.5l-0.2-0.2h-0.2v-0.5L75,94.5v-0.2h0.2L75.1,94v-1h-0.2v-0.5h0.2v-0.2h0.2V92h-0.5v-0.2h-0.2v-0.5h0.2
	l0.2,0.2h0.2v-0.2h-0.2v-0.2l-0.2-0.2h0.2v-1h0.2v-0.5h0.2v-0.7h0.2v-0.2h-0.2v-0.7l-0.2-0.2v-0.2h0.2V87h0.2l-0.2-0.2v-1l0.2-0.2
	v-0.7l0.2-0.2l0.2-0.5v-0.2H76l0.2-0.2L76,83.4l0.2-0.2v-0.5h0.2V82h0.2v-0.2h-0.2V81l-0.2-0.2v-0.2L76,80.3v-0.5h-0.2V77l-0.2-0.2
	h-0.2v-0.2H75v-0.2h-0.2V76H75v-0.5h0.2l0.2-0.2H76V75h1.7v-0.2h0.2l0.2,0.2h1v0.2h0.7v0.2h0.2v0.2h-0.2v0.7h0.2v0.2l-0.2,0.2v0.2
	l0.2,0.2h0.2v0.2h-0.2v0.5l0.2,0.2v0.2h0.2v0.2h-0.2l-0.2,0.2h0.2v0.2h0.5v0.2l0.2,0.2v-0.5h1.7v0.2H83l0.2,0.2h0.2v-0.2h0.7v-0.2
	h0.5v-0.2h0.5l0.2,0.2l0.2,0.2v0.2h0.2l0.2,0.2h0.5l0.2,0.2l0.2,0.2h0.2v0.2h0.2V81h0.2v0.2H88l0.2,0.2v0.2h0.2V82h1v0.2h0.2
	l0.2,0.2V82l-0.2-0.2H90l0.2,0.2v0.2h0.2l0.2,0.2h0.2v0.2h0.2V83l0.2,0.2v0.2l0.2,0.2h0.2V84l0.2,0.2l0.2,0.2v0.5h0.2v0.2h0.7v0.5
	h0.2l0.2,0.2h-0.2v0.5H94v0.2h-0.2V87H94v0.5h0.2L94,87.7V88h0.2v0.7H95v-0.2h0.2v0.2H96v-1h-0.2l0.2-0.2v-0.2h0.5v0.2h0.2v0.2h0.2
	V88h0.2v0.2l0.2,0.2v0.2h0.2v0.5h-0.2v0.2h-0.5v0.5h-0.2v0.2h0.2l0.2,0.2h0.2v0.5h0.5v-0.5h0.2v0.2h-0.2l0.2,0.2l0.2,0.2l0.2-0.2
	h-0.2v-0.2h0.2v-0.7h0.2v0.2l0.2,0.2h0.5l0.2,0.2h0.2v-0.2h0.2v0.2l0.2-0.2h0.2v0.2h0.3v0.2h0.5v0.2h0.5v0.2h0.2v0.2h0.2v0.2h0.2
	v0.2h0.2v0.5h0.5v-0.2h0.7l0.2,0.2v0.2l0.2,0.2h0.2v-0.2h0.2V93h0.2l0.2,0.2l0.2,0.2v0.2h-0.2l-0.2,0.2v0.2h-0.2l-0.2,0.2v1.4
	l0.2,0.2v1l0.2,0.2v1.4h0.2v1.2h0.2v-0.2h0.2l0.2-0.2v0.7H106l-0.2-0.2v0.5l-0.2,0.2v0.3h1.2v-0.2h0.7v-0.5h0.2l0.2-0.2h0.2v-0.2
	h0.2v-1.2h0.2v-0.2l0.2-0.2l0.2-0.2h0.5l0.2-0.2h0.5v-0.2h0.5v-0.2h0.5v-0.2h0.7l0.2-0.2H112V96h0.2l0.2-0.2h-0.2v-0.2h0.2l0.2,0.2
	h0.3V96h0.2v-0.2l0.2,0.2v-0.2h0.2v-1h-0.2l-0.2-0.2l0.2-0.2h0.2v0.2h0.2V94l0.2,0.2V94l-0.2-0.2h-0.2l-0.2-0.2h0.2v-0.2h0.5V93h0.2
	v-0.5H114V92h0.2v-0.5l-0.2-0.2l-0.2-0.2v-0.2l0.2,0.2h0.2v0.2h0.7v-0.2h-0.2v-0.2h0.5l0.2,0.2h0.5v0.2h-0.5v0.2h0.2l0.2-0.2h0.7
	v-0.2h0.2v-0.2h0.7l0.2-0.2v-0.2h0.2l0.2-0.2h0.5v-0.2h0.3v-0.2h1v-1h0.2v-0.2h1.2V88h0.5v-0.5l0.2-0.2h1v-0.7h0.2v-0.2h0.2l0.2,0.2
	h0.1v-0.2h0.2v-0.2H124v-1h0.5v-0.2h0.2l-0.2-0.2h0.2v-0.5l-0.2-0.2v-0.5h-0.2v0.5H124v-0.5h0.2v-0.2h0.2v0.2h0.2V83h-0.5v-0.2
	l-0.2-0.2V82l-0.2-0.2V81h-0.2v-0.2h-0.2v-0.2h0.2l0.2,0.2h0.2v-0.5h-0.2l-0.2-0.2v-0.2h-0.2l0.2,0.2h-0.2v-1h0.2v-0.2h0.2v-0.5h0.5
	v-0.2H124v-0.2l-0.2-0.2l-0.2-0.2h-0.2v-0.2H123V77h-0.2v-0.7l-0.2-0.2v-0.2h-0.2v-0.2h-0.2V75h0.2v-0.2h-0.2v-0.2h-0.2v-0.2
	l-0.2-0.2v-0.2l-0.2-0.2h0.5v-0.5h-0.2v-0.2h-0.2v-0.5h-0.2v-0.2l-0.2-0.2v-0.2l-0.2-0.2l-0.2-0.2V71l-0.2-0.2h-0.2v-0.5h-0.2V70
	h-0.2v-0.2l-0.2-0.2V69l-0.2-0.2v-0.2h-0.2v-0.2l-0.2-0.2l-0.2-0.2l-0.2-0.2l-0.2-0.2v-0.2l-0.2-0.2v-0.2l-0.2-0.2v-0.5H117v-0.2
	h-0.2v-0.5h-0.2V65h-0.2v0.2h-0.2V65h-0.2v-0.2h-0.2v-0.2h-0.2l-0.2-0.2h-0.2V64l-0.5-0.2l-0.2-0.2l-0.2-0.2l-0.2-0.2l-0.2-0.2v-0.2
	h-0.2v-0.2H113l-0.2-0.2l-0.2-0.2l-0.2-0.2v-0.2h0.2v-0.2H112v0.2l0.2,0.2H112l-0.2-0.2h-0.2v-0.5h0.2l-0.2-0.2h-0.7v-0.2l0.2,0.2
	l-0.2-0.5h-0.5l0.2,0.2h-0.2v-0.2h-0.2v0.2h-0.5v-0.2h-0.2v-0.2h0.2v-0.2h-0.5l-0.2-0.2h-0.2v-0.2l-0.2-0.2v0.2l-0.2-0.2l-0.2-0.2
	V59h-0.2v-0.5h-0.2v0.2h-0.2v-0.2l-0.2-0.2l-0.2-0.2h-0.2l-0.2-0.2H106l-0.2-0.2l-0.2-0.2h-0.2V57l-0.5-0.2v-0.2h-0.2V56h-0.5
	l-0.2-0.2l-0.2-0.2h-0.2l-0.2-0.2l-0.5-0.2l-0.2-0.2h-0.2l-0.5-0.2l-0.5-0.5v-0.2H101v-0.2h-0.2l-0.2-0.2v-0.2h-0.2V53H100l-0.2-0.2
	l-0.2-0.5v-0.7h-0.2v-0.2L99.1,51h-0.2v-0.2h-0.2V51h-0.2v-0.2h0.2l-0.2-0.2h-0.2l-0.2-0.2h-0.2V50h-0.2l-0.2-0.2V50l-0.2-0.2h-0.2
	l-0.2-0.2l-0.2-0.2L96,49.1l-0.2-0.2v0.5h-0.2v-0.2h0.2l-0.2-0.2L95,48.7v-0.2l-0.2-0.2l-0.2-0.2l-0.2-0.2v-0.2H94v-0.2h-0.2V47
	h-0.2v-0.2H93v-0.5h-0.2v-0.7l0.2,0.2v-1.5h-0.2v-0.5l-0.2-0.2v-0.5h-0.2v-1h0.2v-0.5h-0.2l0.2-0.2h-0.2v-0.2l0.2-0.2h0.2v-0.2H93
	V41h0.2v-0.2h0.2v-0.5h0.2v-0.7l0.2,0.2h0.2v-0.2h0.2V39h-0.2v-0.7H94v-0.7l0.2-0.2L94,37.1h0.5v-0.2h-0.2L94,36.7v-0.2h-0.2v-0.2
	l0.2,0.2l0.2,0.2v-0.2h0.2v-0.2h-0.2v-0.2l0.2,0.2h0.2v-0.2h-0.2v-0.2l0.2,0.2h0.5v-0.2H95l-0.2-0.2H95l0.2,0.2v-0.2h0.2v0.2
	l-0.2,0.2H96v-0.2h0.7v-0.5h0.2V35h0.2v-0.2h0.2v-0.2h-0.5V34h0.2v-0.5h0.5V33h-0.2v-0.2l0.2,0.2h0.2l-0.2-0.2h0.5v0.5h0.2V33h0.2
	v-0.2h-0.2l0.2-0.2h0.5v-0.2h0.5v0.5h0.2v-0.5L99.6,32v-0.2l0.2,0.2h0.5v0.2l-0.2,0.2h0.7V32h-0.2v-0.5h-0.2v-0.2H100v-0.5h0.2v0.2
	h0.2v0.5h0.5l0.2,0.2h0.2V32h0.2v0.2h0.2V32l0.2,0.2h1.2l0.2,0.2h0.2l0.2,0.2V33h-0.2l-0.2,0.2h0.5v0.2h0.5v-0.2h1V33h0.4v-0.5
	l-0.2-0.2h-0.2V32h0.5v0.2l0.2,0.2v-0.2h0.2v0.5h0.2V33h0.5l-0.2-0.2l-0.2-0.2h0.3v0.2h0.2V33h0.7v0.2h0.2v0.5h-0.5v0.5h0.2v0.5
	h-0.2V35l0.2,0.2v0.5h0.2v0.5h0.2v0.2h0.5v0.2l0.2,0.2v0.5h0.2v0.2h0.2l0.2,0.2h0.2l-0.2,0.2h0.2v0.2h0.7v0.2h0.2l0.2,0.2h-0.2
	l0.2,0.2h-0.2v0.5h0.2v-0.2h0.5v0.2h1l-0.2-0.2h0.2v0.2h0.5v-0.2h0.2v-1.2h-0.2v-0.2h-0.5v-0.2h-0.2v-0.2H112v-0.2h0.2v-0.2
	l-0.2-0.2v-0.2h-1.2l-0.2-0.2V36h0.2v-0.2h0.7v-0.2h-0.2V35l-0.2,0.2h-0.2V35h0.2v-0.5h0.2v0.2h0.5V35h0.2v-0.5l-0.2-0.2h0.2
	l-0.2-0.2l-0.2-0.2h0.7v-0.2H112V33l0.2,0.2h0.2v0.2h0.5v-0.2l0.2,0.2v-0.2h0.2V33h-0.2v-0.2h0.2V33h0.7l0.2-0.2V33h0.2v0.2h0.2
	v-0.5h0.2l-0.2-0.2h0.2v0.2h0.2V33l0.2-0.2l0.2,0.2v-0.2h0.5v-1h-0.2v-0.2h0.5v0.2l0.2,0.2v0.5h0.5v-0.2h0.5V32h-0.7v-0.2l0.2-0.2
	l-0.2-0.2V31l0.2,0.2h1v0.2h0.2v0.2h0.7l0.2-0.2h-0.2v-0.2l-0.2-0.5h-0.2v-0.2h-0.2v-0.2l0.2,0.2h0.2v0.2l0.2,0.2l0.5,0.2h0.2v0.2
	h0.5v-1h0.5l-0.2-0.2h0.2v0.2h0.2v0.2h0.2V31h0.2v-0.7l-0.2-0.2v-0.2h-0.2v-0.5h0.2v-0.2h0.2v0.2l0.2,0.2v0.2l0.2,0.2h0.2v0.2h0.2
	v-0.5h0.2v-0.2l-0.2-0.2v-0.2h-0.2V29l-0.2-0.2l-0.2-0.2v-0.2l0.2,0.2v0.2h0.2V29h0.2l0.2,0.2h0.2v0.2h0.5V30h0.2v-0.7h-0.2v-0.7
	h-0.2v-0.2h-0.5v-1h-0.2l-0.2-0.2v-0.5h-0.2l0.2-0.2h-0.2v-0.2h-0.5v-0.2h-0.2v-0.2h-0.2v-0.5l-0.2-0.2l-0.2-0.2h0.2v0.2h0.2
	l0.2,0.2v0.2h0.2v0.2h0.2v0.2h0.2v0.2h0.2l0.2,0.2h0.5v0.2h0.2l0.2,0.2V27h0.2v0.2h0.5v0.2h0.7V28h-0.2v0.2h0.2v0.2l0.2-0.2v0.2h0.2
	v0.2H125v0.5h0.5V29h0.2v-0.5h0.2l0.2,0.2V29h0.2v0.2h0.5l-0.2-0.2v-0.5h0.2l-0.2-0.2h0.2v0.2h0.2V28h-0.2v-0.2h-0.2l-0.2,0.2h0.2
	v0.2h-0.2v-0.5l-0.2,0.2v-0.5H126v-0.2h0.5V27h0.2v0.2h0.2l0.2,0.2v-0.2h0.2v-0.5h-0.5v-0.5l0.2,0.2v-0.2h0.2V26h0.2v-0.2l0.2,0.2
	h0.2v0.2h-0.2v0.2l0.2,0.2V27l0.2,0.2h0.7v-1h0.2V26h0.5v-0.2h0.2v-0.2h0.2V26l-0.2-0.2v0.5l0.2-0.2h0.2v0.2h0.2v0.2h0.3v0.2h0.2
	v-0.2h0.2l0.2,0.2h0.2v-0.5h-0.2l0.2,0.2h-0.2v-0.2h-0.2v-0.5h0.2v-0.2h0.2v0.2h0.5l0.2,0.2h0.2v0.2h0.2V26h0.5v-0.2h0.7v-0.5h0.2
	V25l0.2,0.2h1l-0.2-0.2h0.2v-0.2h-0.2v-0.2h-0.2v-0.5h0.5v-0.5h0.2l-0.2-0.2h-1v-0.2h-0.2l-0.2-0.2h0.5v0.2h1V23h0.2v-0.2h-0.2v-0.5
	h-0.2v-0.5h0.5v-0.2h0.2v0.2l0.2,0.2v0.2h0.2v-0.5h0.3l-0.2-0.2h0.2V21h-0.2l-0.2-0.2l-0.2-0.2h-1.2l-0.2-0.2h-0.2l-0.2,0.2V21h-0.7
	v-0.2h-0.5l-0.2,0.2h-0.2l-0.2,0.2l-0.2-0.2h-1v0.7L131,22v0.5l0.2,0.2V23h0.2l0.2,0.2h0.2l0.2,0.2v0.2h-0.5V24h-0.2l-0.2,0.2h-0.5
	v0.2l-0.2-0.2h-0.2L130,24h-1.2l-0.2,0.2h-0.7l-0.2,0.2v0.2h-0.2l-0.2,0.2l-0.2,0.2h-0.2v-0.2h-0.2l0.2-0.2v-0.5h-0.2l-0.2-0.2
	l-0.2-0.2V23l0.2-0.2v-0.2H126V22l0.2-0.2l0.2-0.2l0.2-0.2V21l-0.2-0.2l-0.2-0.2l-0.5-0.2l-0.2,0.2V21h-0.2l-0.2,0.2v0.2l-0.2,0.2
	v0.7h0.2v0.7h-0.5l-0.2,0.2l0.2,0.2v0.2l0.2,0.2l-0.2,0.2v0.2l-0.2-0.2v-0.2l-0.2-0.2l-0.2,0.2l-0.2,0.2h-1v-0.2l-0.2-0.2l-0.2-0.2
	h-0.2l-0.2-0.2h-0.2l0.2,0.2v0.2h-0.5l-0.2-0.2h-0.2v-0.2l-0.2-0.2l-0.2-0.2l-0.2-0.2l-0.5-0.2l-0.2-0.2H119l-0.7-0.2v-0.2L118,22
	h-0.2v0.2h-0.5l-0.2,0.2v1l-0.2,0.2l-0.2,0.2v0.2l-0.2,0.2l0.2,0.2l0.2,0.2l0.2,0.2l0.2,0.2v0.2h0.2v0.2l0.2,0.2v0.2h-0.2v0.2h-0.2
	l-0.2,0.2v0.5l-0.2,0.2h-0.5V28l-0.2,0.2h-0.2v0.2h-0.2l0.2,0.2h0.2V29l0.2,0.2V30h-0.2v0.2h-0.5V30l-0.2-0.2l-0.2-0.2h-1.4
	l-0.2,0.2h-0.2v0.5H113v0.5h-0.5l-0.2-0.2l-0.2-0.2h-0.2l-0.2-0.2l-0.2-0.2l-0.2-0.2h-0.7l-0.5-0.2h-0.2V29l-0.2-0.2v-0.5l-0.2-0.2
	l-0.2-0.2v-0.2h1V27h-0.2l-0.2-0.2h-0.2l-0.2-0.2v-0.2l-0.2-0.5l-0.2-0.2v-0.2h0.7v-0.7h0.2v-0.2h1.2v-0.7l-0.2-0.5V23h-0.5
	l-0.2-0.2l-0.5-0.2l-0.5-0.2l-0.5-0.2l-0.2-0.2l-0.2-0.2l-0.5-0.2H107v0.2l0.2,0.2l0.2,0.2v0.2l0.5,0.2l0.2,0.2l0.2,0.2l-0.2,0.2
	L108,23l-0.2-0.2l-0.2-0.2l-0.2-0.2H107l-0.2-0.2l-0.5-0.2l-0.2-0.5l-0.2-0.2v-0.5l-0.2-0.2h-0.2v0.2l0.2,0.5v1l0.2,0.2h-1.2
	l-0.2,0.2h-0.5v0.2l-0.2,0.2h-0.5l-0.5-0.2l-0.2-0.2l-0.7-0.5l-0.2-0.2l-0.2-0.5L101,21l-0.2-0.2l-0.2-0.2l-0.2-0.2h-0.7v0.2h-0.2
	l0.2,0.2V21l-0.2-0.2h-0.2v-0.2h-0.7v0.2L98.1,21v0.2h-0.7L96.9,21h-0.2v0.2l0.5,0.5l0.2,0.2l0.5,0.2l0.2,0.2h0.2v0.7l-0.2,0.2
	l-0.2,0.5h-0.2l-0.2-0.2h-0.2l-0.5-0.2L96,23.2L95.5,23L95,22.5l-0.7-0.2h-0.7v0.2l-0.2,0.2V23h-0.2l-0.2-0.2h-0.2l-0.5-0.2
	l-0.2-0.2L91.4,22l-0.5-0.2l-0.2-0.2h-0.2L89.7,21l-0.5-0.2l-0.5-0.2h-0.5L88,20.3h-0.5L87,20.1h-0.5l-0.2-0.2l-0.2-0.2h-0.2v0.7
	h-0.2l-0.5-0.2l-0.2-0.2l-0.2-0.2h-0.7v0.7l0.2,0.2h0.7l0.2,0.2l0.2,0.2l0.2,0.2l-0.2,0.2l-0.2,0.2L84.9,22l-0.2,0.2l-0.2,0.2
	l-0.2,0.2L83.9,23v0.2h-0.2v0.2h-1.2L82,23.2h-0.5L81.3,23h-0.2l-0.5-0.2l-0.5-0.2h-1l-0.5-0.2h-0.5v0.2l-0.2,0.2H77l0.2,0.2
	l0.2,0.2l0.2,0.2l0.2,0.2V24h-0.5l-0.2-0.2h-0.5L76.5,24v-0.2h-4.8l-0.5-0.5L71,23l-0.5-0.5l-0.2-0.2L69.8,22v0.2l0.2,0.2v1
	l-0.2,0.2h-0.5v-0.2h-0.7l-0.7-0.2h-0.2L67.2,23h-1l-0.5-0.2h-0.5l-0.5-0.2l-0.5-0.2L63.8,22l-0.7-0.5L62.3,21l-0.5-0.2l-0.2-0.2
	l-0.5-0.7l-0.5-0.5l-0.2-0.2l-0.2-0.2v-0.2l-0.5-0.2l-0.5-0.2l-0.7-0.5L58,17.5l-0.2-0.2L57.5,17l-0.5-0.2l-0.5-0.5l-0.7-0.5
	l-0.2-0.2l-0.5-0.2L54.9,15l-0.2,0.2l0.2,0.2h-1L53.5,15L53,14.8l-0.5-0.2l-0.2-0.2h-0.5v0.2l0.7,0.7l0.2,0.2L53,16l0.2,0.2l0.5,0.5
	l0.2,0.5l0.2,0.2v0.5H54l-0.7-0.5l-0.5-0.2L52.5,17l-0.2-0.2L52,16.5l-0.2-0.2L51.1,16l-0.2-0.2l-0.2-0.2l-0.5-0.2l-0.5-0.5
	l-0.5-0.2l-0.7-0.5l-0.5-0.5l-0.2-0.2L47,12.9l-0.5-0.5L46,11.9l-0.2-0.5l-0.2-0.2L45.3,11l-0.2-0.2l-0.2-0.2L44.3,10l-0.2-0.2
	l-0.5-0.5l-0.2-0.5l-0.2-0.2l0.2-0.5l-0.5-0.2V7.6l-0.2-0.5V6.9l-0.2-0.2V6.2l-0.2-0.5l-0.2-0.2V5.2l-0.2-0.5V4.2L41.5,4L41,3.8
	l-0.5-0.2L40,3.3l-0.2,0.5V4L40,4.5V5l0.2,0.2l0.2,0.2l0.2,0.2V6L41,6.4l0.2,0.2l0.2,0.2v0.5l0.2,0.2v1h0.2l0.2,0.5l0.2,0.2v0.5h0.2
	l0.2,0.5l0.2,0.5l0.5,0.5l0.2,0.5l0.2,0.7l0.2,0.5l0.2,0.2l0.2,0.7v0.2l0.2,0.5h-0.2l-0.2-0.2l-0.5-0.5l-0.5-0.5L43.4,13l-0.5-0.5
	L42.6,12l-0.2-0.5L42.2,11l-0.2-0.2l-0.2-0.2v-0.2l-0.5-0.5L41,9.5l-0.2-0.2L40.5,9l-0.7-1.2l-0.2-0.2l-0.2-0.7l-0.7-1l-0.2-0.7
	l-0.2-0.5l-0.2-0.5l-0.2-0.5l-0.2-0.2l-0.2-0.7l-0.5-0.5l-0.2-0.5l-0.2-0.2l-0.5-0.2l0.2,0.2v0.2h-0.2L35.5,2h-0.2v0.2h-0.5v0.2
	h-0.2l-0.2,0.2V3h-0.5l-0.2-0.2h-0.2l-0.2-0.2L32.8,2l-0.2-0.2l-0.5-0.2l-0.5-0.2l-0.2-0.2l-0.2-0.2h-0.2l-0.2,0.2v0.2l0.2,0.7
	l0.2,0.2h-0.2l-0.2-0.5h-0.2V1.6h-0.2L30,1.4l-0.2,0.2L29.7,1.9z M121.2,26.3h0.5v0.2h-0.2L121.2,26.3h-0.2v-0.2L121.2,26.3z
	 M122.2,26.8h-0.2v-0.2L122.2,26.8z M120.7,28.2l0.2,0.2h-0.2V28.2l-0.2-0.2h0.2V28.2z M121.2,29l-0.2-0.2h0.2V29z M118.6,30.2
	l-0.2-0.2h0.2V30.2z M119.3,30.6l-0.2-0.2h0.2V30.6z M102,31.6l0.2,0.2v0.2l-0.2-0.2h-0.2v-0.5h0.2V31.6z M79.4,107.4l-0.2-0.2h0.2
	V107.4z M96.4,34.7h0.2V35l-0.2,0.2V35h0.2L96.4,34.7l-0.2-0.2h0.2V34.7z M110.8,33.7V34h0.2L110.8,33.7l0.2,0V34h0.2v0.2L111,34
	v0.2h-0.2l-0.2-0.2l-0.2-0.2h0.2l-0.2-0.2h0.5L110.8,33.7z M110.6,35.4h0.2l-0.2,0.2h-0.2v-0.5L110.6,35.4z M94,35.7h-0.7L93,35.4
	h0.5l0.2,0.2v-0.2H94V35.7z M120.2,28l-0.2-0.2h0.2V28z M94,36.2l-0.2-0.2H94V36.2z M24.6,36.9v0.2l-0.2-0.2v-0.2L24.6,36.9z
	 M112,36.9h-0.2v-0.2L112,36.9z M25.8,38.1l-0.2-0.2h0.2V38.1z M27.8,38.3l-0.2-0.2h0.2V38.3z M27.8,38.8v-0.2H28L27.8,38.8z
	 M29.4,39.5h0.2v0.2l0.2,0.2h-0.2v-0.2L29.4,39.5l-0.2-0.2h0.2V39.5z M29.2,39.8h0.2V40h-0.2l0.2,0.2H29V40l0.2,0.2L29.2,39.8
	L29,39.5h0.2L29.2,39.8z M34.2,43.9h-0.5v-0.2l0.2,0.2v-0.2h0.2L34.2,43.9z M34.7,44.6l-0.2-0.2h0.2V44.6z M35.9,46.7h-0.2v-0.2h0.2
	V46.7z M52,54.7v0.2h-0.5l0.2,0.2h-0.2v-0.5l0.2,0.2v-0.2L52,54.7l-0.2-0.2H52V54.7z M50.3,58h-0.2l-0.2-0.2h0.5L50.3,58z
	 M49.9,59.9v0.5l-0.2-0.2v-0.2h-0.2v-0.2l0.2,0.2L49.9,59.9l-0.2-0.2h0.2V59.9z M59.5,60.4h-0.2v-0.2L59.5,60.4z M44.1,60.9v-0.2
	h0.2L44.1,60.9z M44.1,61.6v0.2l-0.2,0.2v-0.7h0.2V61.6z M47,62.1l-0.2,0.2v-0.5L47,62.1z M45.1,61.4h-0.2l0.2-0.2V61.4z
	 M76.8,104.4h-0.2v-0.2h0.2V104.4z M27.1,37.6l-0.2-0.2h0.2V37.6z M25.4,37.6h0.2v0.2h-0.2V37.6l-0.2-0.2h0.2V37.6z M93.8,38.1h-0.2
	l0.2-0.2V38.1z M96.7,34.2h-0.2V34h0.2V34.2z M110.3,33.2h-0.2V33L110.3,33.2z M127.1,27.5L127.1,27.5v0.2h0.2V28h0.2v-0.2h0.2v-0.2
	h-0.2l-0.2-0.2v0.2L127.1,27.5z M136.5,22.7h-0.2l0.2,0.2h0.7v-0.5H137v0.2l-0.2-0.2v0.2H136.5z M137.5,21.5h0.2V22h0.5l-0.2-0.2
	v-0.2h0.2l-0.2-0.2h0.2V21h-1v0.2h0.2L137.5,21.5z M86.8,120.9l-0.2-0.2v0.2H86.8z M87.1,120.7v-0.5h-0.2v0.5H87.1z M81.6,113.5H82
	V113h-0.2v0.2h-0.5v0.2L81.6,113.5z M82.3,112.3L82,112v0.2L82.3,112.3z M79.2,111.8l-0.2-0.2v0.2H79.2z M81.6,110.8h0.2v-0.2h-0.2
	l-0.2,0.2H81.6z M79.6,109.1l-0.2-0.2v0.2H79.6z M78.2,107.4H78l0.2,0.2V107.4z M78.4,107.4v-0.2h-0.2v0.2H78.4z M77.9,107.2V107
	h-0.2v0.2L77.9,107.2z M75.3,105.5v-0.2l-0.2-0.2v0.5L75.3,105.5z M73.4,105l-0.2-0.2v0.2H73.4z M74.1,104.3V104h-0.2v0.2H74.1z
	 M74.1,103.8v-0.5l-0.2,0.2v0.2L74.1,103.8z M73.9,103.6L73.9,103.6v-0.2h-0.2v0.2H73.9z M74.1,103.3v-0.2h-0.5l0.2,0.2H74.1z
	 M82,101.7L82,101.7v-0.2h-0.2v0.2H82z M106.2,101.7v-0.2H106v0.2H106.2z M71.7,100.7h-0.2v0.3L71.7,100.7z M115.1,100.2V100h-0.2
	v0.5L115.1,100.2z M71.5,97.6v-0.2h-0.2v0.5L71.5,97.6z M98.3,97.1v-0.2h-0.2v0.2H98.3z M79.9,96.9v-0.2h-0.2v0.2H79.9z M69.1,96.7
	v-0.2l-0.2-0.2v0.5L69.1,96.7z M79.9,96.4h0.2v-0.2h0.2l-0.2-0.2h0.2v-0.2h-0.7v0.7L79.9,96.4z M71.5,96.2v-0.2l-0.2,0.2H71.5z
	 M78.5,95.9v-0.2h-0.2v0.2H78.5z M69.3,95.5v-0.2h-0.2v0.2H69.3z M78.2,95.5L78,95.2v0.2H78.2z M102.7,95.5v-0.2h-0.2v0.2H102.7z
	 M71.5,94.7h-0.2l0.2,0.2V94.7z M69.6,94.5v-0.2h-0.2v0.2H69.6z M71.8,94.5v-0.2h-0.2v0.2H71.8z M70,94.2v-0.5h0.2v-0.2h0.2v-0.7
	h-0.2v0.5H70v0.2h-0.2v0.7H70z M71.9,93.8l-0.2-0.2v0.2H71.9z M104.6,93.8v-0.2h-0.2v0.2H104.6z M70,93.3V93l-0.2,0.2L70,93.3z
	 M100.2,93.3V93H100v0.2L100.2,93.3z M68.8,92.6h-0.2v0.2L68.8,92.6z M70,92.8v-0.2l-0.2-0.2v0.2h-0.2l0.2,0.2H70z M103.4,92.8
	l-0.2-0.2v0.2H103.4z M69,92.3h-0.2l0.2,0.2V92.3z M95.4,91.8h-0.2v0.2L95.4,91.8z M68.3,91.4v-0.2l-0.2,0.2H68.3z M68.1,90.9h-0.2
	l0.2,0.2V90.9z M68.1,90.6h-0.2l0.2,0.2V90.6z M69.8,90.9v-0.2h-0.2v0.2H69.8z M125,90.6v-0.2h-0.2v0.2H125z M95.7,89.9v-0.2h-0.2
	v0.2H95.7z M70.7,89.4h-0.2l0.2,0.2V89.4z M95.2,89.7v-0.2H95v0.2H95.2z M95,89.2V89h-0.2v0.2L95,89.2z M69.3,88.7h-0.2l0.2,0.2
	V88.7z M68.8,88.7h0.2v-0.2l-0.2-0.2h-0.2v0.5L68.8,88.7z M69.6,88h-0.2l0.2,0.2V88z M70.6,88.2h0.2V88l-0.2-0.2V88l-0.2,0.2
	L70.6,88.2z M69.1,87v-0.2h-0.2V87H69.1z M70.5,86.8v-0.2h-0.2v0.2H70.5z M93.5,86.8v-0.5h-0.2v0.5H93.5z M67.6,86.3h-0.2l0.2,0.2
	V86.3z M69,86.5v-0.2h-0.2v0.2H69z M68.8,86.3V86h-0.2v0.2H68.8z M93.3,86.3L93.3,86.3v-0.7H93v0.7H93.3z M68.1,86l-0.2-0.2V86H68.1
	z M70,86v-0.2h-0.2V86H70z M68.1,85.8h0.2l-0.2-0.2h-0.2v0.2H68.1z M68.6,85.6v-1.4h-0.2v1.4L68.6,85.6z M37.6,85.3h0.2v-0.2h-0.5
	v0.2H37.6z M39.5,85.3l-0.2-0.2v0.2H39.5z M70,85.3v-0.2h-0.2v0.2H70z M67.6,84.8v-0.2h-0.2v0.2H67.6z M67.3,84.6L67.3,84.6v-0.2
	l-0.2-0.2v-0.2h-0.2l0.2,0.2v0.5L67.3,84.6z M64.2,84.1l0.2-0.2H64v0.2H64.2z M41.4,83.6h-0.2l0.2,0.2V83.6z M67.3,83.9v-0.2h-0.2
	v0.2H67.3z M68.3,83.9v-0.5h-0.2v0.5H68.3z M90.2,83.9l-0.2-0.2v0.2H90.2z M65.2,83.6v-0.2H65v0.2H65.2z M41.4,83.4l-0.2-0.2v0.2
	H41.4z M68,83.2V83h-0.2v0.2L68,83.2z M70.2,83.2V83H70v0.2L70.2,83.2z M69.5,82.7h-0.2V83L69.5,82.7z M41.2,82.4H41l0.2,0.2
	L41.2,82.4z M65,82.7v-0.2l-0.2,0.2H65z M90.2,82.7v-0.2H90v0.2H90.2z M40.8,82.5l-0.2-0.2v0.2H40.8z M41.2,82.3v-0.5L41,81.5v0.7
	L41.2,82.3z M68.6,82.3V82h-0.2v0.2L68.6,82.3z M68.6,81.8h-0.2l0.2,0.2V81.8z M124.5,82h0.2l-0.2-0.2h-0.2V82L124.5,82z M65.7,81.3
	h-0.2v0.2L65.7,81.3z M66.4,81.5l-0.2-0.2v0.2H66.4z M68.4,81.5v-0.2h-0.2v0.2H68.4z M40.3,81v-0.2H40V81H40.3z M68.6,81l0.2-0.2
	l-0.2-0.2V80l-0.2,0.2l0.2,0.2h-0.2l0.2,0.2L68.3,81L68.6,81z M124.3,81v-0.2H124V81H124.3z M66.9,80.8l-0.2-0.2v0.2H66.9z
	 M67.4,80.3V80l-0.2-0.2v0.5L67.4,80.3z M65.2,80v-0.2H65V80H65.2z M65.2,79.6H65v0.2L65.2,79.6z M80.1,79.3v-0.2h-0.2v0.2H80.1z
	 M124.3,79.3L124.3,79.3v-0.2l-0.2-0.2h-0.2l0.2,0.2v0.2H124.3z M69.1,79.1v-0.2l-0.2,0.2H69.1z M65,78.9v-0.2h-0.2v0.2H65z
	 M38.4,78.7v-1h-0.2v1H38.4z M67.2,78.2h-0.2l0.2,0.2V78.2z M66.4,78.2v-0.2h-0.2v0.2H66.4z M39.6,77.9l0.2-0.2h-0.5v0.2H39.6z
	 M66.4,76.7v-0.2h-0.2v0.2l0.2,0.2V76.7z M79.6,77l-0.2-0.2V77L79.6,77z M39.8,76l-0.2-0.2V76H39.8z M39.8,75.3h-0.2l0.2,0.2V75.3z
	 M45.8,75.5v-0.2h-0.2v0.2H45.8z M122.6,75.5v-0.2h-0.2v0.2H122.6z M122.4,74.5h-0.2l0.2,0.2V74.5z M122.6,74.3h-0.2l0.2,0.2V74.3z
	 M39.1,74.3h0.2L39.1,74h-0.2v0.2H39.1z M63.8,73.3V73h-0.2v0.2l0.2,0.2V73.3z M40.3,71.9H40v0.2L40.3,71.9z M62.6,71.7v-0.2
	l-0.2,0.2H62.6z M60.9,66.9v-0.2l-0.2,0.2H60.9z M59.7,64.2V64l-0.2,0.2L59.7,64.2z M110.1,60.2v-0.2h-0.5l0.2,0.2H110.1z M41,59
	h-0.2l0.2,0.2V59z M58,59h-0.5l0.2,0.2L58,59z M128.3,59.2V59h-0.2v0.2H128.3z M57.8,58.8h-0.2l0.2,0.2V58.8z M53.2,57H53l0.2,0.2
	L53.2,57z M115.1,50h-0.2l0.2,0.2V50z M115.1,49.5h-0.2l0.2,0.2V49.5z M116.3,49.3v-0.7l-0.2,0.2v0.5H116.3z M35.5,47.2L35.2,47v0.2
	L35.5,47.2z M36.2,47H36v0.2L36.2,47z M34.8,45.3V45h-0.2v0.2L34.8,45.3z M33.1,44.1L33.1,44.1l-0.2-0.2v0.2H33.1z M31.9,43.6v-0.2
	h-0.2v0.2H31.9z M117.8,43.4l-0.2-0.2v0.2H117.8z M31.4,41.9v-0.2l0.2-0.2h-0.5v0.5L31.4,41.9z M29.2,41.7v-0.2H29v0.2H29.2z
	 M31.9,41.4h-0.2l0.2,0.2V41.4z M28.5,41.2h-0.2l0.2,0.2V41.2z M29,41.4L29,41.4v-0.2h-0.2v0.2H29z M29.5,41.4l-0.2-0.2v0.2H29.5z
	 M30.7,41.4L30.7,41.4v-0.2h-0.2v0.2H30.7z M28.3,41H28l0.2,0.2L28.3,41z M29.3,41.2L29.3,41.2V41H29v0.2H29.3z M28,40.7v-0.2h-0.2
	v0.2H28z M100.7,40.2V40h-0.2v0.2L100.7,40.2z M26.3,39.2L26.1,39v0.2l0.2,0.2L26.3,39.2z M26.6,39L26.6,39v-0.2h-0.2V39l0.2,0.2V39
	z M26.8,39h-0.2l0.2,0.2V39z M27,39L27,39v-0.2h-0.2V39L27,39z M26.3,38.5h-0.2l0.2,0.2V38.5z M26.6,38.5h-0.2l0.2,0.2V38.5z
	 M113,37.5h-0.2l0.2,0.2V37.5z M112.7,37.3h-0.2l0.2,0.2V37.3z M113,37.3h-0.2l0.2,0.2V37.3z M96,37l-0.2-0.2V37H96z M96.2,36.6H96
	l0.2,0.2V36.6z M94.5,36.6h0.2v-0.2h-0.2l-0.2,0.2H94.5z M97.2,36.6v-0.5h-0.2v0.5H97.2z M97.2,35.8h-0.2v0.2L97.2,35.8z M97.4,35.8
	h0.2v-0.2h0.2l-0.2-0.2h-0.2V35.8l-0.2,0v0.2L97.4,35.8z M106,35.8h-0.2l0.2,0.2V35.8z M97.4,35.6h-0.2v0.2L97.4,35.6z M98.8,35.6
	l-0.2-0.2h-0.2l0.2,0.2v0.2L98.8,35.6z M99.1,35.6v-0.2h-0.2v0.2H99.1z M105.3,35.4v-0.2h-0.2v0.2H105.3z M97.9,34.6h-0.2l0.2,0.2
	V34.6z M97.9,33.9v-0.2h-0.2V34L97.9,33.9z M98.6,33.7v-0.2h-0.2v0.2H98.6z M98.8,32.7l-0.2-0.2v0.2H98.8z M121.6,32.4V32h-0.2v0.5
	H121.6z M100,32.3l-0.2-0.2v0.2H100z M106,32.3l-0.2-0.2v0.2H106z M116.6,32.1h-0.2l0.2,0.2V32.1z M19.4,31.9v-0.2h-0.2v0.5
	L19.4,31.9z M116.6,31.9h-0.2l0.2,0.2V31.9z M121.1,32.1h0.2v-0.7l-0.2,0.2v0.2h-0.2v0.2H121.1z M101,31.9l-0.2-0.2v0.2H101z
	 M102,31.6h-0.2l0.2,0.2V31.6z M19,31.1l-0.2-0.2v0.2l0.2,0.2V31.1z M122.2,31.1v-0.2H122v0.2H122.2z M122.9,31.1l-0.2-0.2v0.2
	H122.9z M123.2,30.9v-0.2h-0.2v0.2H123.2z M127.5,30.4v-0.2h-0.2v0.2H127.5z M124.8,29.9v-0.2h-0.2v0.2H124.8z M126.5,29.9v-0.2
	l-0.2,0.2H126.5z M122.9,29.2h-0.2l0.2,0.2V29.2z M126.8,29.5l-0.2-0.2v0.2H126.8z M126,29h-0.2l0.2,0.2V29z M127.2,28.7l-0.2-0.2
	v0.2l0.2,0.2V28.7z M123.6,28.3V28h-0.2v0.2L123.6,28.3z M129.2,27.8v-0.2h-0.2v0.2H129.2z M129.4,27.5v-0.2h-0.2v0.2H129.4z
	 M122.7,26.8h-0.2l0.2,0.2V26.8z M128,26.3v-0.2h-0.2v0.2H128z M122,25.9h-0.2l0.2,0.2V25.9z M136,22.2h0.2V22h-0.5v0.2L136,22.2z
	 M137.2,21.8v-0.2H137v0.2H137.2z"/>
</svg>
