<?xml version="1.0" encoding="utf-8"?>
<!-- Generator: Adobe Illustrator 20.1.0, SVG Export Plug-In . SVG Version: 6.00 Build 0)  -->
<svg version="1.1" id="Layer_1" xmlns="http://www.w3.org/2000/svg" xmlns:xlink="http://www.w3.org/1999/xlink" x="0px" y="0px"
	 viewBox="0 0 101.3 91.5" style="enable-background:new 0 0 101.3 91.5;" xml:space="preserve">
<style type="text/css">
	.st0{fill:#C14803;}
</style>
<title>madrean</title>
<path class="st0" d="M90.1,90.9l0.2-0.2v0.2h0.2v0.2h-0.2L90.1,90.9z M93.5,86.8V87h-0.2v0.5h0.2v0.2h0.2v-0.2H94v0.2h0.2V88h0.2
	v-0.2h0.2v-0.3H95v-0.2h-0.3v-0.5h-0.5v-0.2H94v-0.2h-0.5C93.5,86.3,93.5,86.8,93.5,86.8z M92.1,87h-0.2v-0.2L91.6,87h-0.2l0.2,0.2
	h0.7v0.2h0.2v-0.2h0.2V87h-0.2v-0.2L92.3,87H92.1z M99.7,86.3v0.5h0.7V87h0.5v-0.7h-0.5v-0.2H100v0.2L99.7,86.3z M98.1,86.3h0.2v0.5
	h0.2v-0.5h0.2v-0.2h-0.5v-0.2h-0.2L98.1,86.3L98.1,86.3z M96.4,85.3v0.2h0.2v0.2h0.2V86h-0.5v0.2h0.5l0.2-0.2v-0.2h0.2v-0.2h0.2
	v-0.2h-0.2v-0.2h-0.7v0.2L96.4,85.3z M66.9,78.1h-0.5v0.2h-0.2v-0.2h-0.2v-0.2h-0.2l-0.2-0.2v0.2h-0.2v-0.2h-0.2v0.7h-0.2v0.5h0.2
	v0.2h0.2v0.2h0.2v0.5h-0.2v0.2h0.2v0.2h0.2v0.5h-0.2V81h0.5v0.2h0.5v-0.5h0.2v-0.5h0.2v0.2h0.2v-0.2l0.2,0.2h-0.2v0.2h-0.2v0.5h-0.2
	v0.2h0.5v-0.2h0.2v0.2h-0.2v1h0.2V82h0.2l0.2-0.2h0.2V82h-0.2v1h0.2v-0.3h0.2v0.2h0.2l0.2-0.2H69v0.5h-0.2v0.2H69v-0.2h0.2v0.2h0.2
	v-0.2h0.2v-0.5h-0.5l0.2-0.2h0.2v0.2H70v0.5h0.2v-0.2h1v0.2h0.2v0.2h0.2v0.2h0.5v-0.2h0.2v0.2h0.2v0.2h-0.2v0.5h0.7l0.2,0.2h0.7
	v-0.2h0.2v-0.2h0.2v-0.2h-0.3v-0.7h-0.2v-0.2h0.2v0.2h0.5v0.2h0.7v0.2h-0.2v0.5H76v-0.2h0.2v0.2h0.2v-0.5h0.2v-0.2H77l-0.2-0.2h-0.2
	v0.5h-0.2v-0.5h0.2v-0.5h-0.2v-0.2L76,82.7h-0.2v0.2l-0.2,0.2v-0.7h-0.2v-0.2H75v-0.5l-0.2-0.2h-0.2v-0.2H74V81h0.2v-0.2L74,80.5
	h0.5v-0.2h-0.7v0.5h-0.2v-0.2h-0.2v-0.5h-0.2v0.5h-0.2v0.2h-0.2V81h0.2v0.5h-0.2V81h-0.5v0.5l-0.2-0.2h-0.5V81h0.2v-0.7h0.2
	l-0.2-0.2v-0.2h-0.2v-0.2h0.2v-0.2h-0.7v1h-0.2v-0.5h-0.2v0.7h-0.2v0.2H70l0.2-0.2v-0.3H70v0.2h-0.2v0.2h-0.3v-0.5h0.2v-0.2h-0.2
	v-0.2l-0.2-0.2v0.2h-0.7v-0.2h0.2v-0.2l0.2-0.2h-0.2v-0.2h-0.2v0.5l-0.2,0.2h-0.7v-0.2H68v-0.7h-0.7v-0.2h-0.2v-0.2h0.2v-0.2h-0.2
	v-0.2h-0.2V78.1L66.9,78.1z M70.9,81h-0.2v-0.2h0.2L70.9,81z M70.9,82.2v0.2h-0.2V82h0.2L70.9,82.2z M70.5,82.4v0.2h-0.2v-0.5h0.2
	V82.4z M72.1,82h-0.2v-0.2h0.2V82z M75.5,80.8h-0.2V81h0.2v0.5h0.2l0.2-0.2v-0.5h0.2v-0.2L76,80.3h-0.7l0.2,0.2h0.2L75.5,80.8z
	 M94,89.4h-0.2v0.2H94V89.4z M92.8,88.7l-0.2-0.2h0.2V88.7z M94.7,85.6v0.2h-0.2v-0.2H94v-0.2h0.7V85.6z M81.3,80.8V81H81v-0.5h0.2
	L81.3,80.8z M79.1,78.9L79.1,78.9v0.2h-0.2v-0.2H79.1v-0.2h-0.5v0.2h-0.5v0.2l0.2,0.2h0.2v0.2h-0.5v0.5h0.2v0.5h0.2v0.2h-0.5V81h0.2
	v0.2h0.2v0.2h-0.2v0.2h-0.2V81h-0.2v0.2h-0.2v-0.5h0.2v-0.2h-0.5V81h-0.2v-0.5h-0.2v0.7h0.2v0.5h-0.2v-0.5h-0.2v-0.7h-0.2v0.7h-0.2
	v0.2L76,81.7v0.5h0.7v0.2h0.5v0.5h0.2v0.5h-0.5v0.7h-0.5v0.2h0.5v0.2h0.2v0.2h0.5v0.2h0.2v0.2h-0.2l-0.2-0.2v0.5h0.2v0.2h1.2v-0.5
	h0.5v0.5h0.7v-0.2h0.2v-0.2l0.2-0.2v0.2h0.2v0.2h-0.5v0.2H82V86h0.5v-0.5h0.2v-0.5h0.5v0.2h0.2l-0.2,0.2v0.5h0.2v0.2h0.2v0.5
	l0.2,0.2v0.2h-0.2V87h-0.2v-0.7H83v0.2h0.2v0.2H83V87h-0.3v0.2h0.7l0.2,0.2h0.2V88h0.2v0.2h0.2v0.2h0.2v-0.2l0.2-0.2v-0.2l0.2-0.2
	h0.2v-0.2h0.2v-0.5h0.2v0.5h-0.2v0.2l0.2,0.2L85.6,88h-0.5v0.5h0.5v0.2h0.5V89l-0.2-0.2L85.6,89h-0.2v0.2h0.2v0.2H87l0.2,0.2v0.5
	h0.2v-0.3h1v0.5h0.2v-0.2H89v-0.2h0.5l0.2-0.2v0.5h-0.5v0.5h0.2v-0.2h1.2l0.2,0.2h0.2v-0.2l0.2,0.2h0.2v-0.2h-0.2v-0.2h0.5l0.2,0.2
	h0.5v-0.2h0.7l0.2-0.2h0.7v-0.2h0.5v-0.5h0.5v-0.5h0.5v-0.2h-0.2v-0.2h-0.2v0.2h-0.5v0.5h-0.2v0.2h-1v-0.2H94v-0.5h-1v-0.7h0.2v-0.2
	h-0.5v0.2h-0.2l-0.2-0.2h-0.5v0.2h-0.2V88h-0.2v0.2h-0.2v0.2h-0.5l-0.2,0.2h-0.2v-0.2h-0.5l-0.2-0.2L89.2,88h-0.2v-0.7h-0.2v-0.7
	h0.2v-0.3h-0.2v-0.2h0.2v-1l-0.2-0.2v-0.2h0.2v-0.2h-0.2v-0.4h-0.2v-0.5H88v-0.2h0.5v0.2H89v0.2h0.2v0.5h0.7v0.5h0.5l0.2,0.2h0.2
	v0.2h0.5v0.2h-0.3v0.2h-0.7v-0.2h-0.5v0.2l-0.2-0.2h0.2v-0.5h-0.2v-0.2h-0.2v0.7l-0.2,0.2v0.2l0.2-0.2h0.2v1h-0.2v0.2h-0.2V87h0.2
	v0.2h0.7V87h0.2v0.2h-0.2v0.2h-0.2v0.2h1l-0.2-0.2l0.2-0.2h-0.2v-0.5h-0.2v-0.2l0.2,0.2h0.2V87h0.2v-0.5h-0.2V86h0.7v0.5h0.2V86h0.2
	v-0.2h-0.2v-0.7h0.2v0.7h0.2v0.5l0.2,0.2h0.2v-0.2H93v-0.2l0.2-0.2l0.2-0.2v0.2h0.2v0.2H94v-0.2h0.2v0.5h0.5l0.2,0.2v-0.2h0.2v0.2
	h0.2v-0.7l0.2,0.2v-0.2h0.2v-0.2h-0.2v-0.2h-0.2v-0.2h0.2v0.2h0.2v-0.2h0.2v0.2h0.2v-0.5h-0.2v-0.2h0.2v-0.2h-0.7v-0.5h-0.2v0.2
	h-0.2v0.2H95v0.2h-0.3v0.5h-0.2v-0.7h-0.2l0.2-0.2h0.2v-0.2h0.2v-0.2h-0.5v-0.2l-0.2-0.2H94l-0.2,0.2v0.5h-0.3v0.2H94v-0.2h0.2v0.2
	H94v0.2h-0.2v0.7h-0.3v-0.2h-0.2L93,85.1v-0.2h-0.2v-0.7h-0.5v-1.2h-0.2v-0.2l-0.2-0.2h-0.2v-0.2h-0.7V82h-0.2v-0.2h-0.2v-0.3h-0.2
	l-0.2-0.2h-0.5V81h-0.2v-0.2h-0.2V80h0.2v-0.2h-0.2V80h-0.5v-0.2h0.2v-0.5H88v0.5l0.2-0.2h0.2v0.2h-0.2v1h0.2v0.5h0.2V82l0.2,0.2
	h-0.3v0.5h0.2L88.7,83v-0.3h-0.2v-0.5h-0.2V82h-0.5v-0.2H88v-0.3h-0.5v-1h-0.2v-0.2H87v-0.5h-0.5v-0.5H86l0.2,0.2h-0.5v-0.2h-0.2
	v0.2h-0.2l0.2-0.2h-0.7v-0.2l-0.2-0.2v0.2h-0.5v0.5h-0.2l0.2,0.2h-0.2v-0.2l-0.2,0.2h-0.5v0.2h0.5v0.2h-0.5l-0.2-0.2l-0.2,0.2v0.2
	h-0.2v0.2h-0.2v0.5h0.5V81h0.5v0.2h0.2V81h0.2v-0.5h0.2v-0.2h0.5v0.2h-0.2V81h0.5v0.2h0.7V81h0.2v0.5h-0.2V82h-0.2v-0.2h-0.5v-0.3
	l-0.2,0.2h-0.2v-0.2l-0.2,0.2h-0.2v-0.2h-0.7V82h-0.2v-0.2h-0.2v0.7h-0.2v-0.7h-0.5l0.3-0.3h0.2v-0.2h-0.5v-0.7H82v-0.5h-0.7v-0.2
	h-0.5v0.2H81v0.2h-0.2v0.2h-0.5v0.2h-0.2l0.2,0.2v1.2l0.2,0.2h-0.2v0.5h0.2v0.2h-0.2l-0.2-0.2v-0.2h-0.5v-0.5h-0.2V82h0.2v-0.5h0.5
	v-0.2L79.8,81h-0.2l-0.2-0.2l0.2-0.2h-0.2V80h-0.7v-0.2h0.2v-0.2h0.2v-0.2h0.2v-0.2h0.2v0.5h-0.2v0.2h0.5v0.2h-0.2v0.2h0.2v-0.2h0.5
	v-0.5h0.2v-0.2h-0.2v0.2h-0.2v-0.2h0.2v-0.2h-0.2v-0.2h-0.2v-0.2h-0.5v0.2H79.1z M85.8,85.3l-0.2,0.2v0.2l-0.2,0.2v0.7h-0.2v0.5
	h-0.5v-0.5h0.2v-0.2h0.2v-0.5l0.2-0.2v-0.5h0.2v-0.2h0.2L85.8,85.3z M86.3,81v0.5l-0.2,0.2v-0.2l-0.2-0.2V81h0.2v-0.2L86.3,81z
	 M87,82.2h0.2v0.2H87v0.2l-0.2,0.2v1H87v0.2h-0.2v0.7h-0.2v-0.2H86v0.2h-0.2v-0.2h-0.2v-0.2h0.2l-0.2-0.2v-0.3h-0.2l0.2-0.2v0.2h0.2
	v0.7H86v-0.7l0.2-0.2v-0.2H86v-0.5h0.2v-0.2H86V82h0.7L87,82.2z M87.7,82.4H88v0.2h-0.2L87.7,82.4h-0.2v-0.2h0.2L87.7,82.4z
	 M95.2,84.8h-0.2v-0.2h0.2V84.8z M91.8,82.9v0.5h-0.2v-0.2l-0.2,0.2l-0.2-0.2v-0.2h-0.2v-0.2h1L91.8,82.9z M76,79.3v0.2h0.2v-0.2
	h0.2v-0.2h-0.2v-0.2L76,79.1V79.3z M59.7,75.5h-0.5v1.2h-0.2v0.5h0.2v1.2h0.5v0.5h0.2v-0.2h0.2v0.2h1.2v-0.2h0.2l0.2-0.2v-0.2h-0.7
	l0.2-0.2v-0.2h0.2v-0.2h-0.5v-0.2h0.2v-0.2h-1v-0.5h0.2v-0.2h0.2v-0.5h0.2v-0.2h-0.2v-0.2l-0.2,0.2h-0.2v0.2h-0.2v-0.5h-0.2V75h-0.7
	v0.2h0.5V75.5z M59.4,76.9h-0.2v-0.2h0.2V76.9z M77.9,78.9h-0.2v0.2h0.2V78.9h0.2v-0.2h-0.2v-0.2h-0.2v0.2L77.9,78.9z M80.8,78.4H81
	l0.2-0.2H81v-0.2l-0.2,0.2L80.8,78.4z M80.1,78.1h0.5v-0.2h-0.2v-0.2h-0.2C80.1,77.7,80.1,78.1,80.1,78.1z M82,77.9v0.2h0.2v-0.2
	l0.2,0.2v-0.2h0.2v-0.2h-0.2v-0.5h0.2v-0.2h-0.5v0.5H82C82,77.4,82,77.9,82,77.9z M57.5,75H57v0.5h-0.2v0.2h1v-0.2h-0.5v-0.2h0.2
	L57.5,75z M56.8,74.3v0.5h-0.2v0.5h0.2v0.2h-0.5v0.2h0.2V76h-0.2l-0.2-0.2h-0.5V76h-0.2v0.2h0.5v0.2h0.5v0.2l0.2-0.2h0.2v-0.2H57
	v0.2h0.2V77H57v-0.5h-0.2V77l-0.2-0.2h-0.2v0.5h-0.2v0.5h0.5v-0.2h0.2v0.2h0.5v0.2h0.5v0.2H58v0.2h0.2v-0.2H59v-0.7h-0.3V77h-0.5
	v-0.7h0.2v0.2l0.2,0.2h0.2v-0.2h-0.2v-0.2l0.2-0.2v-0.2h-0.2V75h-0.2v-0.2h-0.2v-0.2H58v-0.2h-0.2v0.2h-0.3v0.2h-0.2v-0.2h0.2v-0.2
	h0.2v-0.2H58v-0.2h-0.2v0.2h-0.3l-0.2,0.2v-0.2H57v0.2L56.8,74.3z M62.3,76.2h-0.2v0.2h0.5v-0.2h0.2V76h-0.2v-0.2h-0.2V76.2
	L62.3,76.2z M52,70.9l-0.2-0.2l-0.2,0.2h-0.2v0.2h-0.5v0.2h-0.2v0.2l-0.2,0.2h0.2v-0.2h0.7v-0.2h0.5v0.2h-0.3v0.2H52v0.2h0.5v0.5
	h-0.2v0.2h0.2l-0.2,0.2v0.2h0.2v0.5h0.2v-0.2H53v-0.5h0.2v-0.7H53v-0.5h0.2v0.5h0.2v0.2h0.2v-0.7h-0.2v-0.2l-0.2-0.2h-0.5v-0.2h-0.2
	v-0.2h-0.2v0.2L52,70.9z M49.8,72.4h-0.2v0.2h0.5v-0.2l0.2-0.2h-0.2v-0.2l-0.2,0.2L49.8,72.4z M47.7,68.1h-0.2v0.2h0.5L47.7,68.1z
	 M50.6,65.2v0.2h0.2l-0.2,0.2l-0.2-0.2v-0.5h-0.5v-0.2l-0.2,0.2h-0.5v-0.2h-0.7v0.2h-0.2v0.2h-0.2v0.2h0.2v0.5h-0.2v0.2h-0.2v0.2
	h-0.2v-0.2h-0.2v0.2h-0.2v0.2l-0.2,0.2h-1v0.2H46v0.5h0.5v0.5l0.2,0.2H47v0.2h0.5v0.2h0.2v-0.2h0.5V69l-0.2,0.2v0.5h-0.2V70h0.5v0.7
	l0.2-0.2v0.2h0.2v0.5h0.2V71l0.2-0.2v-0.2h0.2v-0.7h0.5L49.6,70v0.5h0.2V71h-0.2v0.2h-0.2v0.2h1V71H51v-0.5h-0.2V70h0.7l-0.2-0.2H51
	v-0.5h0.2L51,69h0.5v-0.5h-0.2v-0.2h0.2v-0.2H52v0.2l0.2-0.2h0.5v-0.2H53v0.2h0.7v0.2h-0.5V69H53v0.2h0.5v0.2h0.2v0.7h0.5V70h0.2
	v0.5h-0.2v0.2h0.2V71l0.2,0.2h-0.5v1h0.2v0.2h0.7v-0.2h0.5v-0.5h-0.2v-0.2h0.2v-0.2h-0.2L55.1,71v-0.7h0.2V70h-0.3v0.2h-0.2v-0.7
	h-0.2v-0.2h0.2V69h0.2v-0.7h-0.2v-0.2h-0.2v-0.2h-0.2l-0.2-0.2h-0.2v-0.2h-0.5v-0.5h-1v-0.2l-0.2-0.2H52v-0.5h-0.2v-0.2H51v0.2h-0.2
	v-0.2H51v-0.7h-0.2v-0.2l-0.2,0.2L50.6,65.2z M81,70.7h-0.5v0.2h0.2v0.2h0.5v0.2h0.5v-0.2h-0.5v-0.2H81V70.7z M74.5,70.5v1.2h0.2
	v0.5H75l0.2,0.2v0.2h0.2v0.5h-0.2v0.2h0.2l0.2,0.2v0.2h-0.5v-0.5H75v0.5h-0.2v-0.2h-0.2v-0.2h-0.7v-0.2l-0.2-0.2v-0.2h-0.2l-0.2-0.2
	v-0.5h0.2l0.2-0.2v-0.2h-0.2v-0.2h-0.2v-0.7h0.2l0.2-0.2v0.2h0.2v0.2h0.5v-0.2l0.2-0.2L74.5,70.5z M76.4,61.1h-0.2v0.2H76l-0.2,0.2
	h0.5v0.5h0.2v0.7h-0.2l0.2,0.2v0.2H76v0.2h0.5v0.2h-0.2l0.2,0.2h-0.2v-0.2h-0.5v-0.2h-0.3v0.2h-0.2V64h0.2v0.2h0.2v0.5h-0.2v0.5h0.7
	v1h0.5l0.2-0.2v0.2h0.2v0.5h0.2v0.2h0.2v0.2h0.5v0.5h0.2v0.5h0.2v0.2h0.2v0.2h0.2l0.2,0.2h0.2l0.2,0.2h0.2v1l0.2,0.2h-0.2v0.2h0.2
	V71h-0.2v-0.3h-0.7v0.2h-0.2v0.2h-0.2v0.5h-0.2v1l-0.2,0.2v0.2h0.2l-0.2,0.2h0.2v0.5h-0.2v-0.2h-0.2l-0.2-0.2h-0.5l-0.2-0.2
	l-0.2-0.2h-0.2v-0.2h0.2v-0.2l-0.2-0.2h-0.2v-0.7l0.2-0.2V71h-0.2v-0.7h-0.2V70H76v-0.2h-0.2v-0.3h-0.3v-0.2l0.2-0.2v-0.2h-0.2v-0.5
	h0.2v-0.2h-0.5v-0.2l0.2-0.2v-0.5h-0.2L75,66.9h-0.2v0.2H75v0.2h-0.2v0.2l-0.2-0.2l-0.2,0.2v0.2H74v0.2h-0.5v-0.2h-0.7l-0.2-0.2
	v-0.2h-0.2v-0.2h-0.5v-0.2h-0.5v0.2l-0.2-0.2v0.2h-0.7v1.7h0.2v0.7h0.5V70l-0.2,0.2h-0.2v0.2h-0.2V70h-0.2v-0.2H70v-0.5L69.7,69
	h-0.2v0.2h-0.2v0.2H69v0.2h-0.2v0.5h-0.2v0.2H68v-0.2h-0.2v0.2h-0.5v0.2h-0.2v0.2h-1v-0.2h0.5v-0.2h-0.2V70h0.2l-0.2-0.2h-0.4v-0.3
	h0.2V69h0.5v-0.2l-0.2-0.2h-0.2v0.2h-0.7L65.2,69h-0.2v0.2H64V69l-0.2,0.2V69h-0.3v0.2h-0.2v0.2H63v0.2h-0.2v-0.2h-0.5v0.2l0.2,0.2
	h-0.7v0.2h-0.2v-0.7h-0.5v0.2h-1.2v0.5h0.2v0.2l-0.2,0.2v-0.2h-0.2l-0.2-0.2h-0.2V70h0.5v-0.5h-0.5v0.2h-0.5v-0.2h0.2v-0.7h-0.5V69
	h0.2v0.2H58V69h-0.5v-0.5h-0.7v0.2H57V69h-0.5l-0.2-0.2V69H56v0.2h-0.5v1h0.2v0.5L55.6,71h0.2l0.2-0.2h0.2v-0.2l0.2-0.2v0.2h0.2
	v-0.2h0.7v0.2H58v-0.2h0.2V70h0.5v0.5h-0.2v-0.2h-0.2v0.2L58,70.7h-0.2v0.2h-0.3v-0.2h-0.2L57,70.9v0.2h0.2v0.2H57v0.2h-0.5v0.2
	h-0.2v-0.2h-0.2v0.2h-0.2v0.2h0.2v1.2h-0.2v0.2h0.5l-0.2,0.2v0.7h0.2v-0.5h0.2v-0.2h1v-0.2h0.2v-0.2h-0.3v-0.2h0.2v-0.2h-0.2v-0.5
	h0.2v-0.2h-0.2v-0.2h-0.2v-0.2h0.5v0.5H58v-0.2l0.2-0.2v-0.7h0.5v-0.2h0.5v0.2h-0.5v0.2h1v-0.2h0.5v0.2h0.5v0.2h0.2v0.2h-0.2v0.2
	h-0.5v0.2h0.2l-0.2,0.2v0.2h0.2v0.2h0.2v0.2l-0.2,0.2h0.2v0.2h1.2v-0.2h0.2v-0.2l0.2,0.2h0.5v0.2H63v-0.2l0.2-0.2H63v-0.5h0.5v0.2
	h0.2v0.7h-0.2v0.2h-0.2v0.2h0.5v0.5H64v-0.2h0.2v0.2h0.2v0.2h0.2v0.5H65v0.2h0.2v0.2h0.2V76h0.2v0.2h-0.2v0.2h0.7v-0.2h-0.3V76h0.7
	v-0.2h-0.2v-0.3h-0.2v0.2h-0.2v-0.2h-0.2l-0.2-0.2V75h0.5l-0.2-0.2v-0.2h-0.2v-0.2h-0.2v-0.2h-0.2v-0.2h0.2v-0.2h1v-0.2h0.7v0.2
	h-0.2v0.5h0.7v-0.2h-0.3v-0.2h0.2v-0.2h0.2v0.7h0.2v-0.2h0.7v-0.5h-0.2v-0.7h-0.2v-0.2h0.2v-0.5h-0.5v-0.5h0.5v-0.2h0.5v0.2h-0.5
	v0.5h0.2v0.5l0.2-0.2v0.2h-0.2v0.7h0.2v-0.5l0.2,0.2v0.7h0.2v-0.7h0.5v-0.7H70v0.2l0.2-0.2v-0.2h0.5v0.5h-0.2v0.5h0.2v0.2H71v0.2
	h-0.3v-0.2h-0.2v0.7h0.2v-0.2h0.2v0.2h0.2v0.2h0.2v0.5h0.2l0.2,0.2V75h-0.2v0.2h0.2V75h0.5v0.5h-0.2v0.2h-0.7v-0.2h-0.2V76h-0.5v0.5
	h0.2l0.2-0.2V76h0.7v0.2h-0.2v0.2h-0.2v0.2h0.2V77h0.2v-0.3h0.2v-0.5h0.2v0.5h0.2v-0.2h0.2v-0.7h0.2v0.5h0.2v0.2h0.2v0.7h0.2v0.2
	h-0.2v-0.2h-0.2v-0.2h-0.2l-0.2,0.2v0.5h1v-0.2h0.7v-0.5H75v0.2h0.2v0.2h0.2v0.2H76l0.2,0.2h0.5v-0.5h-0.2v-0.2H77v-0.2h-0.7v-0.2
	h-0.5v0.5h-0.3v-0.5H75v-0.5h-0.2V76h-0.5v-0.2h-0.2v-0.3h1.4V75H76v-0.2h0.5v-0.2H77v-0.2h0.2v0.2h1v-0.2l0.2,0.2v0.2h0.5v0.5h1
	v0.2h0.2v-0.2h0.2l0.2-0.2v-0.2h0.2v0.7H81v0.2h-0.2V76h0.5v-0.2h0.2v-0.3h0.7v0.2h0.2v-0.2h0.2V75h-0.2v-0.2h0.2v-0.2h0.2v-0.2h0.2
	v-0.2h0.2l0.2-0.2v0.2h0.7v0.2h0.5v-0.2h-0.2l-0.2-0.2h-0.2l-0.2-0.2h-0.5v-0.2h-0.2v-0.2h-0.2v-0.7l-0.2-0.2h0.2v-0.2h1v0.2h0.2
	v-0.7h0.2v0.2h0.2v-0.2h0.5v-0.2h0.2v-0.2h0.2v0.2h-0.2v0.2h0.2l0.2-0.2h0.5v0.7h0.2v0.2l-0.2,0.2h-0.2v1.2h-0.2v0.5h-0.2v0.5
	l0.2,0.2h0.5V75h-0.2l0.2,0.2l-0.2,0.2V76h-0.2v0.2h0.2v0.2h-0.2l0.2,0.2h0.2l0.2,0.2h-0.3v0.2h0.2v0.2h0.2v0.2l0.2-0.2v0.7h0.2v0.2
	h0.2v0.5h0.2v-0.5l-0.2-0.2H88v-1.5h-0.2l-0.2-0.2v-1h-0.2v-0.2H87V75h-0.2v-0.2H87V74h0.2v-1.4H87v-0.5h0.2v-0.5h0.2v-0.5H88v-0.2
	h-0.7v0.2H87l-0.2-0.2v-0.2h-0.2v-0.2h-0.2V70h-0.5v-0.2h-0.2v-0.3h0.2v-0.2h-0.2V69h-0.5v0.2l0.2,0.2v0.2l-0.2-0.2h-1v-0.2h-1V69
	l-0.2-0.2v-0.2h-0.2v0.2h-0.2v-0.2l-0.2-0.2H82L81.8,68v-0.2h-0.3v-0.2h-0.2v-0.2H81v-0.2h-0.2v-0.2l-0.2-0.2v0.2h-0.2v-0.2h0.2
	v-0.2h0.2v-0.2h-0.2v-0.2h-0.2v-0.2h-0.2v0.2h-0.5v-0.2h-0.2v-0.2h-0.5v-0.2h-0.2v-0.5h-0.5l-0.2,0.2h0.2v0.5h0.5v0.5h0.7v0.2h0.2
	v0.2h0.2v0.2h0.2v1h1v0.2h0.2v0.2h0.2l-0.2,0.2H81V69h-0.2v-0.2h-0.2v-0.5h-0.2v-0.2h-0.2v-0.2h-0.5v-0.2h-0.2l-0.2-0.2v-0.7h-0.2
	v-0.2h-0.2v0.5h0.2v0.5h-0.2v-0.2h-0.2v-0.7h-0.2v-0.2h-0.2v-0.7h-0.2v-0.5h-0.7v0.2h-0.2v-0.2h0.2v-0.2h0.2v-0.2h-0.2V64h0.2v-0.7
	h0.2l0.2-0.2h-0.5v-0.7h0.2v-0.7h-0.2v-0.2h-0.2v-0.2h0.2v-0.2h-0.2v-0.2h-0.5L76.4,61.1L76.4,61.1z M76.9,63.3h-0.2V63h0.2
	L76.9,63.3z M51.7,69.3V70l0.2-0.2h0.2v-0.3h0.2v-0.2h-0.2V69H52v0.2L51.7,69.3z M62.7,69.3v0.2H63v-1.2h-0.2v0.2h-0.5v0.2h-0.2V69
	h0.7L62.7,69.3z M77.1,69.3h0.2v-0.5h-0.5V69h0.2L77.1,69.3z M76,68.1h0.5v-0.7H76v0.2h-0.2v0.2H76V68.1z M55.6,66.9h-0.2v0.2h0.2
	v0.2h0.5v0.2h0.7v-0.2l-0.2-0.2h-0.5v-0.2h-0.2v0.2L55.6,66.9z M57.3,66.9H58v-0.5h-0.2v0.2h-0.3v-0.2H57v0.2h0.2L57.3,66.9z
	 M63.8,65.9v0.2l-0.2,0.2v0.2H64l0.2,0.2h0.2v-0.2h0.2l0.2-0.2v-0.2h-0.5v-0.2h-0.2l0.2-0.2h-0.2L64,65.9L63.8,65.9z M62.3,65.4v0.5
	h-0.2v0.2h0.7v0.5l0.2-0.2v-1.2h-0.2v0.2h-0.2v-0.5h-0.5v0.2h0.2V65.4z M78.6,66.4L78.6,66.4l0.2-0.2h-0.2v-0.2h-0.2v0.2L78.6,66.4z
	 M61.4,65.7h0.2v-0.5h0.2v-0.2h-0.5v0.2h-0.3v0.2h0.2L61.4,65.7z M66.4,62.5v0.2h-0.2v-0.2l-0.2,0.2v1l0.2,0.2h0.5v0.2h0.2v1h0.2V65
	h0.2v0.2h0.2v0.2h0.2v0.2H68v-0.5h0.5v-0.7h-1v-0.2h0.2v-0.8H68v-0.2L67.8,63v0.2h-0.2v-0.5h-0.2v-0.2h-0.2v-0.2h-0.2l-0.2,0.2
	L66.4,62.5z M74.8,65.4H75v-0.5h0.2v-0.5h0.2v-0.2L75.3,64h-0.7v0.2h-0.2v1h0.2L74.8,65.4z M53.2,64.2v0.7h-0.2v0.2H52v-0.2h-0.5
	v0.2h0.2v0.2H52v0.5h0.2v0.2h0.2v-0.2h0.7v0.2h0.2l0.2-0.2h-0.2v-0.2h-0.2v-0.2L53,65.7v-0.2h0.2v-0.2h0.2l0.2,0.2h0.2v0.2h0.7v0.2
	l-0.2,0.2h-0.5v0.2h0.2v0.2h0.2v0.2l0.2-0.2v-0.2h0.2v-0.2h0.2v0.2h0.2v0.2h0.2v-0.2l0.2-0.2v-0.7h-0.2v-0.2h-0.2v-0.2h0.5v-0.2h0.2
	v0.2l-0.2,0.2h0.5v-1h-0.2v-0.5h-0.5v0.5h-0.2v0.2h-0.2v0.2h-0.2v0.2h0.2v0.2h-0.2v0.2h-0.2v-0.7h-0.7v-0.2h-0.2v-0.2h0.2V64h-0.5
	v-0.5h-0.5l-0.2,0.2V64h-0.2l-0.2-0.2H52V64h-1.2v0.2H51v0.2h0.2v0.2h1V65h0.2v-0.3H53v-0.2h-0.3V64h0.5L53.2,64.2z M69,64.9v0.2
	h0.2v-0.2h0.2l0.2-0.2h-0.2v-0.2H69C69,64.5,69,64.9,69,64.9z M60.8,63.9v0.2h0.2l-0.2,0.2v0.2h0.2v-0.2h0.2v0.2l0.2-0.2V64h0.2
	v-0.2h-0.2V64h-0.2v-0.2h-0.2V64L60.8,63.9z M70.4,64.7l0.2-0.2v-0.2L70.5,64H70v0.5h0.2L70.4,64.7z M77.4,64.4h0.2v0.2h0.5v-0.5
	h-0.5V64h0.2v-0.2h-0.5V64h-0.2v0.2h0.2L77.4,64.4z M49.1,64.4h0.2V64h-0.5v0.2h0.2L49.1,64.4z M50.1,64.2h0.5V64h0.2v-0.2h-1V64
	h0.5L50.1,64.2z M48.6,64h-0.2v0.2h0.2V64h0.2v-0.5l-0.2-0.2h-0.2v0.5h0.2V64z M59.2,63.8h0.2V64h0.5v-0.5h-0.2v-0.2h-0.2l-0.2,0.2
	L59.2,63.8z M71.4,63.5v0.2h-0.2V64h-0.2v1h0.2l0.2-0.2h1l0.2-0.2v-0.2h0.2V64h0.2v-0.2h-0.2v-0.5h-0.7v0.2l-0.2-0.2h-0.2v0.2
	L71.4,63.5z M74.1,62.5h-0.5v0.2h0.5V62.5z M70.7,60.9l-0.2-0.2v0.7h-0.2l0.2-0.2H70v-0.2h-0.5v0.5h0.2v0.2l0.2-0.2v0.5h0.2v0.2h1.4
	v0.5h0.5V63h0.7v0.2l0.2-0.2v0.2h0.2l0.2-0.2v0.2h0.5v0.2h0.2l0.2,0.2h0.2v-0.2H75v0.2h0.2v-0.2h0.2v-0.2h0.2L75.5,63H75v-0.7h-0.2
	v0.2h-0.5v-1.2h-0.5v0.2h-0.5v0.2h-0.2l0.2,0.2v0.2h-0.2v0.5h-0.2v-0.2h-0.5v-0.7h0.2v-0.2h-0.2v-0.2h-0.5v0.5h-0.5v-0.2h0.2v-0.5
	h0.2v-0.2h-0.5v-0.2h-0.5v-0.2h-0.2C70.7,60.4,70.7,60.9,70.7,60.9z M47.9,61.1v0.2h0.2v0.5h0.2v0.2h0.2v0.2h-0.5v0.2h1V63h0.5v-0.2
	h0.5V63h1v0.2h0.2v0.2H52v-0.2h-0.2v-0.7h-0.5v-0.2H51v-0.5h-0.2v0.5h-1v-0.2h-0.2v-0.2h-0.4v0.2h-0.2v-1h0.2v-0.2h-0.7v-0.2h-0.5
	L47.9,61.1L47.9,61.1z M54.1,61.6v0.5h-0.2v0.2h-0.2v0.2h-0.2v0.2h-0.2V63h0.2v0.2h0.5l0.2-0.2h0.2v0.5h-0.2v0.2h-0.2V64h0.5v0.2
	h0.5V64h0.5v-0.5h0.2v-0.2h-0.5V63h-0.2v-0.2h0.2v-0.5h-0.2v0.2h-0.2v-0.2h0.2v-0.5h0.5v-0.2h-0.2v-0.5h0.2v-0.2h0.2v-1l-0.2-0.2
	v0.2h-0.5v0.2h-0.2v0.7h-0.2v0.7L54.1,61.6z M64.2,60.9l0.2,0.2v0.5l-0.2,0.2v0.2h0.2v0.2H64v0.2h0.5v0.2H65v-0.2h0.2v0.2H65
	l0.2,0.2h0.2v-0.2h0.2v-0.2h0.5v-0.5h0.2v-0.2h0.2v-0.7h-0.7l-0.2,0.2v0.2h0.2v0.7h-0.5v-0.2h0.2v-0.5h-0.5l-0.2-0.2v-0.5h-0.2v-0.2
	h-0.5v-0.2h0.2v-0.5h-0.2v0.5H64v0.2L64.2,60.9z M53.2,56.8H53V57h0.2L53,57.2v0.2h-0.3v0.2h0.2V58h-0.7v0.5H52v0.2h0.2v-0.2h0.2
	v0.2h0.2V59h-1v0.2L51.5,59h-0.2v0.2H51V59l-0.2,0.2v0.2h-0.2v0.2h-0.2v0.2h0.2v0.2h0.2v0.2h-0.2v0.2l0.2,0.2H51v0.5h0.2v-0.3h0.2
	v0.5h-0.2v0.2h0.2v0.2h0.2v0.2H52v0.2h0.2v-0.7L52,61.6v-0.5h0.2v0.2h0.5v0.7h-0.2v0.7h0.2v-0.2h0.5v-0.7h0.2v-0.2h0.2v-0.7h0.2
	v-1.2h0.2v-1h0.2v-0.2h-0.2l0.2-0.2v-0.7l-0.2-0.2h0.2v-1.2h-0.2v0.2h-0.3v0.5h-0.2v-0.2h-0.2v-0.5h-0.2L53.2,56.8L53.2,56.8z
	 M57.3,58.5L57,58.7v1.4h0.2L57,60.4v0.2h-0.2v0.2h-0.5v0.2h0.2v0.2h-0.5v0.5h0.2l0.2,0.2v0.2h-0.2v-0.2h-0.2v0.2h-0.2v0.2h-0.2V63
	h0.5v-0.2l0.2-0.2h0.2v-0.2h0.2v-0.2H57v-0.2h0.2v-0.2h0.2v-0.7h0.2v-0.5h-0.2v-0.2h0.2v-0.5H58v-0.7h0.2v-0.5h0.2V58h0.2v-0.2h-0.5
	v0.5H58v0.5h-0.2v-0.5h-0.3V58H58v-0.5l-0.2,0.2h-0.3V58H57v0.2h0.2L57.3,58.5z M49.6,61.8h0.2v-0.2h0.2v-0.5h0.2v-0.2h-1v0.7h0.2
	L49.6,61.8z M72.9,60.8h-0.2v0.2h0.2V60.8h0.2v0.5h0.5l0.2-0.2v-0.2h-0.2l-0.2,0.2v-1h-0.5v0.2h-0.2v0.2h0.2V60.8z M75.1,60.8v0.2
	h0.2v0.2h0.2v-0.7h0.2v-0.2h-1.2v0.2h-0.3v0.2h0.5v-0.2H75L75.1,60.8z M63.1,60.6h-0.5v0.7h-0.3v0.2l0.2,0.2h-0.2V62h0.5v-0.5H63
	v-0.4l0.2-0.2v0.2h0.2l0.2-0.2H64v-0.2h-0.2v-0.5h-0.3v0.2l-0.2,0.2L63.1,60.6z M70.7,54.6v0.2h-0.2V56h-0.2v1.2h-0.8V57h-0.2v0.7
	l0.2,0.2v0.2h-0.2l0.2,0.2v0.2h0.2v0.2h-0.2v0.2H70v0.2h-0.2v0.2H70v-0.2h0.2v0.5h0.2l0.2,0.2h0.5v0.2h1v-0.2h-0.3v-0.2h0.2v-0.2
	h0.2v-0.2h-0.2v-0.2h-0.2v-0.2l-0.2-0.2v0.2h-0.5v-0.2l-0.2,0.2h-0.2v-0.2h-0.2V58h0.2v-0.2h-0.2v-0.5h0.2V57l0.2-0.2v-0.2h-0.2V56
	h0.2v-0.5h0.2l0.2-0.2v-0.2h0.2v-0.5h-0.2v-0.2l-0.2,0.2v-0.2h-0.2v-0.2h-0.2L70.7,54.6L70.7,54.6z M68.8,60.1H69v-0.2h-0.2v-0.2
	h-0.5v0.2h0.2L68.8,60.1z M66.9,59.9v0.7l0.2-0.2h0.2v-0.2h0.2v-0.2l-0.2-0.2h-0.3v-0.2h-0.2L66.9,59.9L66.9,59.9z M54.9,59.4
	l0.2-0.2v-0.2h0.2l-0.2-0.2h-0.5v0.2h-0.2v0.2h0.5V59.4z M63.5,59.4v0.5h0.2l0.2-0.2v-1h-0.5v0.2h-0.2v0.2h0.2L63.5,59.4z
	 M67.4,58.4h-0.3v0.2h0.2v0.2h-0.2l0.2,0.2h0.2v0.2l0.2,0.2v-0.2h0.2v-0.5h0.2v-0.5h-0.2v-0.2h-0.5v0.2L67.4,58.4z M49.9,58.9h0.2
	v0.2h0.2v-1h-0.5v0.2h-0.2v0.2h0.2L49.9,58.9z M59.9,56.3v-0.2h-0.2v0.7h-0.2v0.5h-0.2v1.4h-0.2v0.2h-0.2v0.7h0.2l0.2-0.2v-0.2h0.2
	v-0.2l0.2-0.2h-0.2v-0.2h0.5v1h0.2l-0.2,0.2h-0.2v0.2h-0.5v0.2h-0.2v0.2h-0.2v0.7h-0.2v0.2h-0.2v0.2H58v0.7h-0.2v0.2h-0.3v0.7
	l0.2,0.2v0.2H57V64l-0.2-0.2h-0.2V64h-0.2l0.2,0.2v0.2h0.2V65h-0.2v0.2h1V65h0.7v-0.3h0.5v0.2h0.7l0.2,0.2h0.5v-0.2h-0.3l-0.2-0.2
	v-0.2h-0.2v0.2h-0.2v-0.2l-0.2-0.2h-0.5v-0.5h-0.2v-0.5l0.2-0.2v-0.7h0.2v-0.2h0.2v-0.2h0.2v-0.2h0.2l0.2-0.2v-0.2h0.2v-0.2l0.2-0.2
	v-0.5h0.2v-0.2h0.2v-0.2l-0.2-0.2v-0.2h0.2v-0.2l0.2-0.2h0.5v-0.2h-0.2V58h-0.7l0.2-0.2h0.2v-0.5h-0.2v-1h-0.2V56h-0.2v0.2
	L59.9,56.3z M59.7,58h-0.2v-0.2h0.2V58z M66.1,59h0.2v-0.5h-0.5v0.2h0.2V59z M67.3,58.5L67.3,58.5v-1h-0.5V58h-0.2v0.2h0.5
	L67.3,58.5z M56.5,57.8H57v-0.5h-0.5l-0.2,0.2h0.2L56.5,57.8z M56.5,54.7h-0.2l0.2,0.2v0.5h-0.2v0.2h-0.5v-0.2h0.2v-0.3h0.2v-0.5
	h-0.5v0.2h-0.2v0.5h-0.2v0.5h-0.2V57h-0.2v0.5h0.7v-0.2h0.2v-0.7h-0.2V56h0.2v0.5h0.2v-0.2h0.5v0.5h-0.2V57h0.2v-0.2H57v-1h0.2v-0.5
	H58v-0.5h0.2v-0.5h-1v-0.4h0.2v-0.2H57v0.5l-0.2,0.2L56.5,54.7z M66.9,56.1l0.2,0.2h0.2v-0.2h0.2v-0.2h-0.5l-0.2-0.2h-0.2v0.2h0.2
	V56.1z M58,53.7h0.5v-0.2h0.2v-0.7H58v0.2h-0.2v0.5H58V53.7z M80.3,51v-0.5h-0.2v0.2h-0.2V51h-0.2v0.7h0.5v0.5h0.2v0.5h0.5v0.5h0.5
	l0.2-0.2v-0.2h-0.2v-0.2h0.2v-0.2h0.2L81.5,52v-0.2h0.2v-0.3h-0.2v-0.2h0.2L81.5,51v0.2L81.3,51h-0.5l-0.2-0.2V51H80.3z M67.3,52
	v0.5h0.5v-0.2h-0.2V52h0.2v-0.2h-0.2v-0.3h-0.2C67.3,51.5,67.3,52,67.3,52z M73.1,52.5v1h0.2V53h0.2v-0.7h-0.2V52h-0.2L73.1,52.5
	L73.1,52.5z M24.4,49.8h0.2v0.2l-0.2,0.2v0.5h0.2v1.9h0.5v-0.2h0.2V52h-0.2v-0.2h0.2v-1.5h0.2v-0.2h-0.2l-0.2-0.2v-0.2h-0.5v-0.2
	l-0.2,0.2L24.4,49.8z M68.3,50.3V51h0.2v0.2h0.2V51H69v-0.7h0.5v-0.2h-0.2v-0.2L69,49.6l-0.2-0.2h-0.2v0.7L68.3,50.3z M72.1,50.3
	v0.2h-0.2v0.2h0.2V51h0.2v0.5l0.2-0.2v-1.7h-0.2v0.5l-0.2-0.2L72.1,50.3L72.1,50.3z M53.7,47.4v0.5h0.2l-0.2,0.2v0.2h0.2v0.7h0.5
	v0.2h-0.2v0.7h0.2v0.2l0.2,0.2h0.2v-0.2h0.2v-0.7h-0.5v-0.7l0.2-0.2h-0.2v-0.2h-0.5v-0.2h1v-0.7h-0.2v-0.2h-0.5l-0.2-0.2h-0.5
	L53.7,47.4L53.7,47.4z M71.4,49.1v0.2h0.2v0.2h0.5v-0.5h-0.2v-0.5h-0.2v0.5H71.4z M69.3,39.5L69,39.7h0.5L69.3,40H69v0.7h-0.5
	l-0.2,0.2h-0.5v0.5h-0.2v0.2h0.2v0.2l-0.2,0.2h-0.5v0.2h1l0.2,0.2v0.2h-0.2v0.2h0.5v0.2H69v-0.5h-0.2v-0.2l-0.2,0.2v-0.7h0.7
	l0.2,0.2v-0.2H70v0.2h0.2v0.2h0.2l0.2,0.2v0.2H71v0.2h0.2v0.2h0.2v0.5h0.2v0.7h0.2l0.2,0.2v1h0.2v0.5h0.2v-0.2h0.2V47h-0.2v0.2h0.5
	v0.2h0.2v-0.2h0.2V47l0.2,0.2v1l-0.2,0.2v-0.6h-0.2v-0.2h-0.3v-0.2h-0.5v0.2h0.2v1.2h0.2v1h0.2v0.2h0.2v0.2l0.2,0.2v-0.3l0.2,0.2
	h-0.5v0.2h-0.2V51h-0.2l0.2,0.2V51h0.2v1h0.2v-0.7h0.5v0.5h-0.2V52h0.2v0.2h-0.2v0.2h0.5v1.2h-0.2v0.5h0.2v1.2l0.2,0.2v0.5h-0.2v0.2
	h0.2V57h-0.2l0.2,0.2V58H75v0.5h-0.2v1.4H76v-0.2h-0.2v-0.5h-0.3v-0.2h0.2v-0.2l0.2-0.2V58h0.2v-0.7H76l0.2-0.2H76v-1.9h-0.2v0.2
	h-0.3v-0.5l-0.2-0.2v-1.2h0.2v-0.5h0.2v-0.2H76v0.2l-0.2,0.2v0.5H76v0.2h0.5v-0.5h0.2v-2.2h-0.2V51H77v-0.2h0.2v-0.5h-0.7v-1.4h-0.2
	L76,48.6v-0.5h-0.2v-0.2l-0.2-0.2h0.2l-0.2-0.2h-0.2v0.5H75v-0.5h-0.2v-0.2h-0.2v-0.5h0.2v-0.5L75,46l-0.2-0.2H75l-0.2-0.2l-0.2-0.2
	v-0.5h-0.2v-0.2h-0.2v-1h-0.2v-0.2l-0.2-0.2h-0.2v-0.5h-0.2v-0.7h-0.2v-0.2h-0.2v-0.2l-0.2-0.2h-0.2v-0.5h0.2v-0.5h-0.2V40l-0.2-0.2
	v-0.3h-0.2v0.2l-0.2-0.2h-0.7l0.2,0.2V40h0.2v0.2h0.2v0.2h-0.2v-0.2h-0.5V40h-0.2v-0.2h-0.2v-0.3H70v-0.2h-0.5v0.2H69.3z M51,45.5
	h-0.2v0.2h0.5v-0.5L51,45h-0.2v0.2H51V45.5z M65.4,45.3h0.2v0.5h0.2v-0.2h0.2V45h-0.2v-0.5h-0.5v0.2h-0.5V45h0.5L65.4,45.3z
	 M67.3,45v0.2h0.2v0.2h0.7V45h-0.5v-0.2h-0.2v-0.2h-0.2V45z M76.9,44.8V45l-0.2,0.2h0.2v0.2l0.2-0.2h0.2v0.2h0.5v-0.2h-0.2v-0.5
	h-0.2v-0.2h-0.2v-0.2h-0.2L76.9,44.8L76.9,44.8z M78.6,44.8h0.2v0.5h0.2V45h0.2v0.2h0.2v-0.5h-0.2v-0.2h-0.2l-0.2-0.2l-0.2,0.2
	L78.6,44.8z M41.6,45h-0.2v0.7h0.2v-0.2h0.2l-0.2-0.2h0.2v-0.5h-0.2v-0.2h-0.5v0.2h-0.2V45h0.2v-0.2h0.2L41.6,45z M51.7,44.5
	l0.2,0.2h0.2V45h0.5v-0.2l0.2-0.2V44h-0.5v0.2l-0.2,0.2v-0.2H52v0.2L51.7,44.5z M66.1,43.8h0.5v-0.2h0.2l-0.2-0.2h-0.7v0.2h0.2
	L66.1,43.8z M66.8,43.1l0.2-0.2l-0.2-0.2h-1.6v0.2h1.7L66.8,43.1z M64.9,41.4v-0.2h-0.2v0.7h-0.2v0.2h0.5v0.2h1v-0.2h0.2l0.2,0.2
	l0.2-0.2h0.5v-0.2h-0.2v-0.2h-0.2v-0.2h-1.2v-0.2h-0.2v0.2L64.9,41.4z M56.7,42.1h0.5v-0.2H57v-0.2h-0.2L56.7,42.1L56.7,42.1z
	 M63.7,41.4v-0.5h-1v0.5h0.7v0.2H64v0.2h0.5v-0.5h-0.2v-0.2H64v0.2L63.7,41.4z M61.3,40.7h0.5v0.2h0.2v0.2h0.2v-0.7h-0.7v-0.2h-0.2
	V40.7z M37.6,40.7h0.2v-0.2h0.2l-0.2-0.2h0.2V40h-0.5v0.2h-0.2v0.2h0.2L37.6,40.7z M54.1,39.5v1h0.2v0.7h0.2V41h0.2v-0.5h-0.2v-1
	l-0.2-0.2V39h-0.5v0.2h0.2L54.1,39.5z M35.9,37.3h0.2v0.2h0.2v0.2h-0.2v0.5h0.2v0.2h-0.2v0.2h0.2V39h0.2v0.2h0.2V39h0.2v0.2h0.2v0.2
	h-0.2v0.2h0.2V40h0.2v-0.2h0.5v-0.3h-0.2v-1h-0.2v-0.7h-0.2v-0.2h-0.7v-0.4h-0.2v-0.2l-0.2,0.2L35.9,37.3z M50.1,39.5h0.2V39h-0.5
	v0.2h0.2L50.1,39.5z M64.9,37.8v0.2l0.2,0.2h0.2v0.2h0.2v-0.2h0.5v-0.7h-0.2v-1h-0.2l-0.2,0.2l-0.2,0.2l-0.2,0.2L64.9,37.8
	L64.9,37.8z M72.9,37.1v0.2h0.2v0.2l0.2,0.2l0.2,0.2l0.2-0.2v-0.5h-0.2v-0.2h0.2l-0.2-0.2l-0.2,0.2l-0.2-0.2v0.2H72.9z M70,37.1h0.5
	v-0.2h-0.2v-0.2H70C70,36.6,70,37.1,70,37.1z M72.6,36.6h0.2v0.2h0.2v-0.7l-0.2,0.2v-0.5h-0.2C72.6,35.9,72.6,36.6,72.6,36.6z
	 M70.5,36.1v0.2h0.2v0.2H71v-0.5h-0.3v-0.5l-0.2-0.2v-0.5h-0.2v1h0.2L70.5,36.1z M66.6,36.1h0.5v-0.2h-0.2v-0.2h-0.2
	C66.6,35.7,66.6,36.1,66.6,36.1z M64,34.9h0.2v0.2h0.2v0.2h0.2v0.2h1v-0.2H66v-1h-0.2v0.2h-0.5v0.2h0.2v0.2h-0.8v-0.2h-0.2v-0.2
	h-0.2L64,34.5v-0.2h-0.2v0.5H64V34.9z M64.2,33.7l0.2,0.2l0.2,0.2v0.5h0.5v-0.2H65v-0.2h0.2v-0.5H65v-0.2h-0.5v-0.2h-0.2V33.7z
	 M58.2,34h0.2v0.2h0.2v-0.5h-0.2v-0.2l-0.2,0.2V34z M66.9,33.5v0.2h0.5V34h0.2v0.2h0.2V34l-0.2-0.2v-0.3h-0.2v-0.2L67.1,33h-0.5
	l-0.2,0.2h0.2L66.9,33.5z M60.4,33.5h0.2l0.2,0.2h0.2l0.2-0.2h0.2v-0.2L61.3,33h-0.2v0.2h-0.5V33l-0.2,0.2L60.4,33.5z M60.2,31.6
	h-0.3v0.2h0.7v0.2h0.2v-0.2h0.2v0.2h0.2v0.2h1.2v-0.2h-0.7l-0.2-0.2h-0.2v-0.2h-0.2v-0.2h-0.7v0.2L60.2,31.6z M32.1,30.9h0.2v0.5
	h-0.2v-0.2h-0.2v0.5l0.2,0.2h0.2v-0.2h0.2v0.5h-0.3v0.2h-0.2v0.2h0.2v-0.2H33l-0.2-0.2v-0.7H33v-0.2h-0.2v-0.2H33v-0.2h-0.2v-0.2H32
	L32.1,30.9L32.1,30.9z M63.5,29.7h-0.2l0.2,0.2v0.2h0.2v0.7h-0.5L63,31.1v0.5h0.2v0.2l0.2,0.2v-1l0.2,0.2H64v0.5h0.2v-0.2l0.2,0.2
	h0.2v-0.2h-0.2v-0.7h-0.2v-0.5h0.2v-0.4h-0.2v-0.5H64v-0.2h-0.5L63.5,29.7L63.5,29.7z M55.1,31.1h0.2l0.2,0.2h0.2v-0.2l-0.2-0.2
	h-0.2v-0.2l-0.2-0.2V31.1z M53.4,30.6v0.2h0.2v0.2l0.2,0.2v0.2h0.2v-0.7h0.2v-0.2h-0.5v-0.2h-0.2v-0.2h-0.2V30.6z M59.9,29.2h0.2
	v0.2h0.2v0.2h-0.2l0.2,0.2v0.2l0.2,0.2v0.2h0.2v-0.2h0.2v-0.2h-0.2v-0.7l0.2,0.2v-0.5h-0.7v-0.2h-0.2v-0.2h-0.2
	C59.9,28.7,59.9,29.2,59.9,29.2z M32.1,29.7h0.2v0.5h0.2v-0.7h-0.2v-0.2l-0.2-0.2h-0.2v0.5h0.2V29.7z M30.6,29.4v0.2h0.5v-0.2h-0.2
	v-0.5l0.2-0.2v-0.2h-0.2v0.2h-0.5v0.5h0.2V29.4z M43.8,29.4h0.2v-0.5h-0.5v0.2h0.2L43.8,29.4z M62.8,29.2H63v0.2l0.2-0.2v-0.2H63
	v-0.5l-0.2,0.2L62.8,29.2L62.8,29.2z M63.8,28.9H64v-0.2h-0.2l-0.2-0.2l-0.2-0.2V28H63l0.2,0.2v0.2l0.2,0.2L63.8,28.9z M62.4,27.7
	V28h0.2v0.2h0.2V28H63v-0.2h-0.2l-0.2-0.2v0.2L62.4,27.7z M62.1,24.1l-0.2,0.2h0.2v0.2h0.2v0.2h0.2v0.2h-0.3v0.5h-0.2v-0.2h-0.2v0.2
	l0.2,0.2v0.2l-0.2-0.2v0.5l0.2,0.2v-0.2l0.2-0.2l0.2,0.2v-1l0.2-0.2v-0.2H63v0.7l-0.2,0.2L63,26v0.7h0.2v0.5h0.2v0.2h0.2V28h0.5
	l0.2,0.2h0.2l0.2-0.2v0.2h0.5v0.2h0.2V29l0.2-0.2v-0.5h-0.2V28h-0.5v-0.2h-0.7v-0.5h-0.2V27H64v-0.2h0.2v-0.2H64V26h-0.2v-0.5h-0.3
	v-0.5h0.2v-0.7H63v-0.2h-0.2v-0.2h-0.5v-0.2h-0.5v0.2L62.1,24.1z M61.7,27.5l0.2-0.2h0.2L61.8,27h-0.5v0.2h0.2L61.7,27.5z
	 M58.3,25.6v0.5h0.2v0.5h0.2V27H59v0.2h0.2v-1L59,26v-0.5h-0.3v-0.2h-0.2v-0.2h-0.2L58.3,25.6L58.3,25.6z M59.5,20.3v0.2h0.2v0.2
	L60,21v0.2l0.2,0.2h0.2v-0.2h0.2v0.2h-0.2v0.2l0.2,0.2v0.2h0.2v0.5l0.2,0.2v0.5h-0.2v0.2h-0.2v1.2h0.2v0.2h-0.2v0.5h0.2v-0.2h0.2
	v0.5h0.2v0.2l0.2,0.2v0.2l0.2,0.2v-0.2l-0.2-0.2v-0.7h-0.2v-0.7h-0.3v-0.2h0.2v-0.2l0.2,0.2h0.2v-0.2h-0.2v-0.2h-0.2v-0.2h0.2v-0.2
	h0.2l-0.2-0.2l-0.2-0.2h0.5v-0.5h-0.2v0.2h-0.2v-0.2h-0.2v-0.2h0.5V22h0.2v-0.2h-0.7v-0.5h-0.2V21h0.5v-0.2h-0.5v-0.2l-0.2-0.2h-0.7
	V20h-0.2v0.2L59.5,20.3z M44.8,24.6h-0.2v0.5h0.2v0.2h0.5v-0.5H45v-0.2l-0.2,0.2L44.8,24.6z M29.7,23.6v0.7h1v-0.2h-0.2v-0.7h-0.5
	v-0.2h-0.2V23.6z M55.8,24.1v0.2h0.7v-0.4h-0.5v-0.2h-0.2V24.1L55.8,24.1z M62.1,19.5v0.2h0.2V20h0.2v0.2h-0.2v0.5h-0.2v0.5h0.2v0.2
	h0.2v0.2h-0.2V22h0.2l-0.2,0.2v1.2H63l0.2,0.2v0.5h0.2v-0.3h0.2v-0.5l0.2,0.2h0.2v-0.2H64v-0.2h-0.2v-0.5h0.5v0.7h0.2v0.2h-0.2v0.5
	l0.2,0.2h0.2v-0.2h0.5v0.2h0.5v-0.2h0.2v-0.2h-0.2v-0.2h0.2v-0.2h0.5v-0.2h-0.2v-0.2h-0.5v-0.7h0.2V22h-0.2l0.2-0.2v-0.3h-0.2v-0.2
	h-1V21h0.5v-0.5h-0.2v0.2h-0.2v-0.2h-0.5v-0.2h-0.7v-0.2h0.2v-0.5h-1v-0.2l-0.2-0.2v0.2h-0.2v0.2L62.1,19.5z M55.8,23.1v0.2h0.2
	v-0.2l0.2-0.2h-0.2v-0.5h-0.2v0.2h-0.2v0.2h0.2V23.1z M49.1,22.9h0.2v-0.2l-0.2-0.2l-0.2,0.2h0.2V22.9z M28.7,22h0.2v1h0.2v-1.2
	h-0.2v-0.3h-0.2V22z M53.4,22h0.2v-0.2l-0.2-0.2h-0.2v0.2h-0.2V22h0.2v-0.2h0.2V22z M57.5,21.3l0.2-0.2H58v-0.2l0.2-0.2v-0.3
	L58,20.1h-0.2v0.2h-0.3v0.2h-0.2V21h0.2V21.3z M51.5,20.1v0.2h-0.2v0.2h0.5v0.2H52V21h0.2v-0.7L52,20.1l-0.2-0.2v-0.2h-0.5v0.2h0.2
	L51.5,20.1z M29.2,20.1v0.5h0.2v0.2h0.2v-0.5h-0.2v-0.2h0.5v0.2h0.2l0.2-0.2v-0.2h-0.5v-0.5h-0.2v0.2l-0.2,0.2L29.2,20.1z M39,39.3
	h-0.2l-0.2,0.2v1H39v-0.2h-0.2V40H39V39.3L39,39.3z M32.5,12.9v0.5h0.2v0.2H33v0.2h0.2v0.2h-0.5v0.5h-0.2v0.7H32v-1.7l-0.2-0.2h-0.2
	l0.2-0.2h-0.2v-0.5h-0.5v0.7h-0.2v0.2h-0.2v0.7h0.2l-0.2,0.2v0.2h0.2v0.7h0.2v1.2h-0.2v0.2h-0.2v0.7h0.2v-0.5h0.2l-0.2-0.2h0.2v-0.2
	h0.2v1.2l-0.2,0.2v-0.2h-0.2v1h0.2v-0.2h0.5v-0.8h0.5v0.7h-0.2v0.2h0.2v0.2h0.5v0.5l0.2,0.2l-0.2,0.2h-0.2v-0.2h-0.2v0.2l0.2,0.2
	h0.2v0.5h0.2v0.5H33V21h0.2v-0.2h0.2V21h-0.2v0.2H33v1h0.2v0.5H33V23h-0.5v0.2L32.3,23h0.2v-0.7H32V22h0.2v-0.2h0.2v-0.5H32L31.8,21
	v-1l-0.2-0.2v-0.2h-0.2v0.2h-0.2v-0.2h-0.2v-0.4l-0.2,0.2v1.2h0.2v-0.2h0.2v0.2h0.2v-0.2h0.2V21h-0.2v0.2h0.2l-0.2,0.2h-0.2v0.2h0.2
	V22h-0.2v0.2h0.2l0.2,0.2v0.2h-0.2v-0.2h-0.2v1.4h0.2v0.2h-0.5v0.5h0.2v0.2h-0.5v0.5l-0.2,0.2v0.2h0.2v0.5h-0.5v0.2l0.2,0.2v-0.2
	l0.2,0.2V27h-0.2l-0.2,0.2h-0.2v0.2h0.2v0.7h0.5v0.2h0.2v-0.2h0.2v0.2h0.2v-0.2l0.2-0.2v-0.7h-0.2V27h0.2v0.2h0.2V27h0.2v-0.2h-0.2
	v-0.2h0.7v-0.2h0.2v0.2h-0.2v0.2L32.3,27h0.5v-0.2H33v-0.5l0.2-0.2H33v-0.2h0.2v-0.2h0.5v0.2h-0.2v0.7h0.2v-0.2H34v0.2l0.2,0.2v-0.2
	h0.2v0.2h-0.2V27H34v0.2h-0.7v0.2H33v-0.2h-0.2V28h-0.5v0.5l-0.2,0.2l0.2,0.2l0.2-0.2V29h0.2v0.2h0.5V29h0.2v-0.3h0.2v-0.2H34v0.7
	h-0.2v0.2h-0.3l0.2,0.2H34v-0.2h0.5v0.2h-0.2v0.5L34,29.9h-0.2v0.2H34v0.2h-0.2v0.2h-0.3v0.2l-0.2,0.2h0.2v-0.2h0.2v-0.2H34v0.5
	h-0.2v0.2h-0.5v0.2h0.2v0.2h-0.2v0.2h0.5v0.2H34v-0.2h0.2v0.2h1v-0.2H36v-0.7h-0.2v-0.2H36v-0.2h0.2v0.2h-0.3v0.2h0.2v1h0.2v-0.2
	h0.2v-0.2h0.2v-0.2h0.5v0.2h-0.5v0.7h0.2V33h-0.2v0.2h0.5v0.2h0.5v0.2h0.5V34h0.2v0.2l0.2-0.2v0.2H39v0.2h0.2V35H39v-0.5h-0.5v-0.2
	h-0.2V34h-1.2v0.2h0.2v0.5h-0.7v-0.2h-0.2V34h0.2v-0.2l-0.2-0.2h-0.2v0.2h-0.5V33h-0.2l-0.2,0.2V33h-0.2v0.5h-0.2v-0.2h-0.5v0.2h0.2
	v0.2h0.5v0.7h-0.5v0.2h0.5v0.5h-0.2l-0.2-0.2v1h-0.2v0.7H34v0.5l0.2-0.2v0.2h0.2v0.2h0.2v-0.7H35v0.2h0.2v-0.5h0.5v-0.5h1v0.5h0.2
	l-0.2,0.2l0.2,0.2v-0.2h0.5v0.2h0.5v0.5h-0.2v0.2h0.2v-0.2h0.2v0.2l0.2-0.2v-0.2h0.2v-0.2h0.2v0.2l0.2-0.2h0.2v0.2L39,36.9v0.2
	l-0.2,0.2v0.2H39v0.5h-0.2v0.2h-0.5v0.2h0.2v0.2l0.2,0.2h-0.2v0.2h-0.5v0.2h0.2v0.7h-0.2v0.2h0.2v0.2h0.5v0.2H39v0.2h0.2v-0.2
	l0.2,0.2h0.2v-0.2l0.2,0.2v-0.2h1v-0.7h0.2V40h0.2v0.2h-0.2V41H41v0.2h-1v0.2h-0.2l-0.2,0.2h-0.7l-0.2,0.2h-0.3v0.2h0.2v0.5H39
	l0.2,0.2v-0.2h0.2v-0.2h-0.2v-0.5h0.2v0.2H40v-0.2h0.2v-0.2h0.2v-0.2h0.2v0.2h-0.2v0.2h-0.2v0.2H40v0.2l0.2,0.2v-0.2h0.5v-0.2H41
	v-0.2h0.2v0.2H41v0.5h-0.3v0.2h-0.2v0.2h0.2v0.5h-0.2v-0.2h-0.2v0.2H40v0.2h0.2v0.2h0.2v0.2h0.2v0.2H41v-0.5h0.2v-0.2h0.2v0.2h-0.2
	L41,44.3h0.7v-0.7h-0.2v-0.2l0.2,0.2h0.2v-0.2h0.2v-0.5h0.5l-0.2,0.2v0.7h0.2v-0.2h0.2v-0.2h0.2v0.2h0.2v-0.2h0.2v-0.2l0.2-0.2v0.2
	l-0.2,0.2v0.2h-0.2v0.2h-0.7l-0.2,0.2h0.2l-0.2,0.2l0.2,0.2h0.5v0.2l0.2-0.2v-0.2h0.5v-0.2h0.5v-0.2l0.2,0.2h-0.3v0.5h-0.5v0.2
	l-0.2-0.2v0.2h-0.2v0.5h0.5l0.2-0.2h0.7v-0.2h0.5V45H45v0.2h-0.2l-0.2,0.2h-0.2v-0.2h-0.2v0.2h-0.7v-0.2h-0.2V45h-0.2v0.2h-0.2v-0.5
	h-0.2v1h-0.5V46h-0.2v0.2h0.5v0.2h-0.5v0.2h-0.2V47h-0.2v0.7h0.2l0.2,0.2v-0.5h0.5V47h0.2v-0.3h0.2v0.2h0.5l-0.2,0.2l-0.2-0.2v0.2
	h-0.2v0.2h0.2v0.5h0.2v-0.2h0.2l0.2,0.2v-0.5h0.5v-0.2h0.2v0.2h0.2v-0.2h0.2v-0.5l0.2,0.2H45v-0.2l0.2,0.2h0.2v-0.2h0.2v0.5H45v0.2
	h-0.2v0.2h-0.2l-0.2,0.2H44v0.2h-0.7v0.2h-0.2v-0.2l-0.2,0.2v0.5h-0.2v0.2l-0.2,0.2h0.5v0.2h-0.2v0.2h0.2v-0.2h0.2l0.2-0.2h0.5v-0.2
	h0.2l0.2-0.2h-0.5v-0.2h1v-0.2h0.5v-0.2h0.2v0.2h0.2v-0.2H46v-0.2h0.2v0.2H46v0.5h-0.2v0.5h-0.3v-0.2H45v0.5h-0.2l-0.2,0.2h-0.2
	v-0.2h-0.2v0.5h0.2v0.2h-0.2v0.2l-0.2,0.2V51h-0.2v0.2h0.2v0.2h0.2v-0.2h0.5V51h0.2v0.2h-0.2v0.2h-0.2V52h0.2v0.7h1l0.2-0.2v0.2
	h-0.3V53h0.2v-0.3h0.5v0.2h-0.5v0.2h0.5v0.2h0.5l0.2-0.2h0.2v0.2h0.2v-0.5h-0.2v-0.2h0.5v0.2h1v0.5h-0.2v-0.2h-0.2v0.2h-0.3v-0.2
	h-0.2v0.5h0.2v0.2h-0.2v1l-0.2,0.2v0.5h0.2V57h0.2v-0.2h0.2V56h0.2v-0.2h0.2v-0.2h0.2v-0.7h0.5v0.2h-0.2v0.5h0.2v0.2h-0.2v0.5h-0.7
	v1.2h0.2V58h0.5v0.2h-0.2l0.2,0.2v-0.2h0.7l0.2-0.2h0.5v-0.2h-0.7v-0.3h0.5V57h0.2v-0.2h-0.2v-0.2h0.2v-1h0.2v-0.2h-0.2L50.3,55
	v-0.5h0.2v0.7l0.2-0.2v0.2H51l0.2-0.2h0.2v0.2h-0.2v0.5h0.2V56h-0.2v0.2h0.2v0.2l-0.2,0.2V57h0.2v0.2h-0.2v0.2H51v0.2h-0.2V58H51v1
	h0.2l0.2-0.2h0.2v-0.5H52v-0.5h0.5v-0.3h0.2l-0.2-0.2h0.2V57h-0.2v-0.5h0.2v-0.2H53v-0.2h-0.3v-0.5h-0.2v-1.7l0.2-0.2v-0.5h0.7v-0.2
	h0.2v0.2h-0.2v0.2h0.2v0.5h-0.5v0.5h0.5v-0.2h0.2l-0.2,0.2v0.2h0.2v0.5h0.5v0.5h0.2l0.2-0.2v-0.2h0.2v-0.7h0.2v-0.2h0.2v-0.2h0.2
	v-0.5l0.2-0.2h0.2v0.2h-0.2v0.5h0.5v-0.2H57v-0.2l-0.2-0.2H57v-0.2h-0.5v-0.2h-0.2v-0.2h0.2V52h0.2v-0.7h0.7v0.2H58V51l-0.2-0.2V51
	H57v-0.2h-0.2v-0.2h-0.2v-0.2h-0.2v-0.2h-0.2v0.2h-0.5v0.5h0.2V51l-0.2,0.2h-0.2V51h-0.5v-0.2h-0.5v-0.2h-0.5V51h0.2v0.2h0.2v0.2
	h-0.5v-0.2h-0.2v-0.5l-0.2-0.2h0.2v-0.2h-0.2v-0.2h-0.2v-0.2h-0.2v-0.7h-0.2v0.5h-0.2v0.2h0.2v0.2h-0.2v-0.2h-0.2v0.5H52v0.5h-0.2
	v0.5h-0.3v1.4h-0.2v-0.2H51v0.2h-0.5v-0.2h-0.2l-0.2,0.2h-0.2v0.2h-0.5v0.2h-0.5v-0.2h0.2v-0.2h0.2v-0.2h0.2v-0.2h0.2v0.2h0.2v-0.2
	h0.5l0.2-0.2h-0.2v-0.5h0.7v-1.9h0.2v-0.2h0.2v-1.2h-0.2v1h-0.2v-0.5H51l-0.2,0.2v-0.5h-1.2v-0.2h0.2l0.2-0.2l0.2-0.2H50v-0.5h0.2
	L50,47h0.2v-0.3H50l-0.2-0.2V46H50v-0.2h-0.2V45H50v-0.2h-0.7v-0.5h-0.5v0.2h-0.2v-0.2h0.2v-0.2h0.2v-0.2h-0.5v0.2h-0.2v-0.7h-0.2
	v-0.2h-0.2v-0.2h-0.2v-0.7h0.7v0.2h0.2v0.2h0.5v0.2h0.2v0.2h0.5v0.2h0.2v0.5h-0.2l0.2,0.2h0.2v0.2h0.2v-0.7h-0.2v-0.2l-0.2-0.2v-0.2
	h0.2v-0.2h0.2v-0.5h-0.2v-1h-0.2v0.2h-0.2v-0.2h-0.5v-0.4h-0.2v0.2h-0.2v-0.2h-0.2v-0.2h-0.2l-0.2,0.2h-0.2v0.5h-0.2v-0.5h-0.5V40
	l0.2,0.2h0.5V40h-0.5v-0.5h0.2v0.2h0.2v-0.5h-0.2V39h0.5v0.2h0.2v0.2h0.2V39h-0.2v-0.2h-0.5v-0.2h0.5v-0.2h-0.2v-0.5h0.7v0.5h0.2
	v0.2h0.2v0.2h0.2V39h0.2v-0.5h0.2v-0.2l-0.2-0.2v-0.5h-0.2l-0.2-0.2h-0.2l-0.2-0.2v-0.7h-0.2l-0.2-0.2v-0.5h-0.2v0.2h-0.2l-0.2-0.2
	v-0.2h-0.2v0.5h0.2v0.5h-0.2v-0.2l-0.2-0.2v-0.5h0.2v-0.2h0.7v-0.2h-0.7v-0.5h-0.2V34h-0.2v0.2h-0.2V34h-0.2v0.2h-0.2v-0.7H46v-0.2
	h-0.5V33l-0.2-0.2h0.5v-0.2H46v-0.2h-0.2v-0.2H46v-0.2h-0.2v0.2h-0.3v-0.2h-0.2L45,32.1v-0.2h-0.5v-0.2h-0.2v-0.2h-0.2v0.5h0.2v0.2
	h0.2v0.5h-0.2v-0.2h-1.2v0.5l0.2,0.2v0.2h-0.2V33l-0.2-0.2v-0.2h-0.2V32h-0.2v-0.2h0.2v-1.7l0.2-0.2h0.2v-0.2h-0.2l-0.2,0.2h-0.2
	v-0.2h-0.2l-0.2-0.2h0.5v0.2h0.2v-0.2h0.2v-0.2h0.2v-0.2h0.2v-0.2h0.2v-0.2h-0.2v-0.2h-0.2L42.9,28v-0.5h-0.5v0.2h0.2V28h-0.2v0.7
	h-0.2v-0.2h-0.2V28h-0.5v-0.5h-0.2V27h0.2v-0.2h0.2V27h0.2v0.5h0.5V27l0.2,0.2v-0.5h0.2V27l0.2,0.2h0.5v-1.7h-0.2v-0.2h-0.2v1h0.2
	v0.2h-0.5v-2h0.2v0.2h0.2v-0.2h0.2v0.5h0.2v-1.2h0.2v-0.5h-0.5v-1.9h0.2l-0.2-0.2V21h-0.2v-0.2h0.2v-0.2h-0.2v-0.7h-0.2v-0.7h-0.5
	v-0.2h-0.2l-0.2-0.2v-0.5h-0.2v0.2h-0.5v-0.2h-0.2v-0.5h-0.5l0.2,0.2v0.2h-0.2v1h0.2l-0.2,0.2v0.2h0.5v0.2h-0.5v0.2h0.2l0.2-0.2h0.2
	v-0.2h0.2v0.7h-0.2v0.2h0.7v0.2L41.9,21h0.2v1.4h-0.2v0.5h-0.5v0.2h-0.2v0.2l0.2,0.2l0.2,0.2h0.2v0.2h0.2v0.2h0.2v0.2h-0.5v0.2h-0.7
	v0.7h-0.2v1h-0.2v0.2H40v-1h-0.5v-0.5h-0.2v-0.5H39v-0.2h-0.2v0.2h-0.5v0.5h0.2v0.2h-0.2v0.2l-0.2-0.2v-0.7h0.2v-0.5h0.2v-0.2h-0.7
	v-0.5h-0.2v-0.7h0.2v0.5h0.2l0.2,0.2h0.2v0.2h0.2v0.2h0.5v0.2h0.2l0.2,0.2v0.2H40v0.5h0.2v0.5h0.2v-0.2h0.2v-0.5h-0.2v-1.2h-0.2
	v-0.5H40l-0.2-0.2v-0.2H40v-0.2h-0.2v-0.2H40l0.2,0.2h0.5l-0.2,0.2v0.2h0.2v0.2H41v-0.5h0.2v-0.7h0.2V22h0.2v0.2h0.2v-0.5l-0.2-0.2
	h-0.2v-0.2h-0.2V21h-0.5v0.5h-0.2v0.2h-0.2v-1L40,20.5h0.2v-0.2h0.2v-1h-0.2v-1.4H40v-0.5l-0.2-0.2h-0.3v0.5h-0.2v-0.5L39,17.4v0.7
	h-0.5v-0.5h-0.2v-0.5h-0.2l-0.2-0.2v-0.2h-0.2v-0.2l-0.2-0.2V16h0.2v-0.5h-0.2v0.2L37.1,16v-0.2h-0.5L36.4,16v0.2h-0.5V15h-0.2v-0.7
	h-0.2v-0.5h-0.2v-0.2l-0.2-0.2h-0.2v0.2h-0.2v-0.5h-0.2v-0.2H34v-0.2h-0.5l-0.2,0.2v0.2h-0.5v-0.2H33l-0.2-0.2l0.2-0.2v-0.5h-0.7
	v0.7h0.2L32.5,12.9z M49.3,57.7h-0.2v-0.2l-0.2,0.2v-0.2h0.5L49.3,57.7z M36.9,21.5v0.2h0.2v0.7h-0.2V22h-0.2v-0.7h0.2V21.5z
	 M35.7,20.8h0.2v0.5h-0.2V21h-0.2v-0.5h0.2V20.8z M54.4,52.7h-0.2l-0.2,0.2v-0.2h0.2v-0.2h0.2V52.7z M40.9,39.7h-0.2v-0.2h0.2V39.7z
	 M47.7,50.7V51h-0.2v-0.5h0.2V50.7z M39.3,38.3h0.5v0.5H40V39h-0.2v-0.2h-0.3v-0.2h-0.2V38.3L39,38.5l-0.2,0.2v-0.2H39v-0.2H39.3
	l0-0.2h0.2L39.3,38.3z M46.3,36.1H46v0.2h0.5v0.7h-0.2v-0.2h-0.5v-1h0.5L46.3,36.1z M41.5,41.9v-0.2h0.2L41.5,41.9z M47.7,36.9h0.2
	v0.2h0.2l0.2,0.2h-0.2v0.2h-0.3l-0.2-0.2v-0.3l-0.2-0.2v-0.2h0.2L47.7,36.9z M47,35.2v0.2h-0.3v-0.2h-0.2V35h0.5L47,35.2z
	 M38.1,34.5h-0.2l0.2-0.2V34.5z M47.7,51.5v0.2h-0.2v0.5h0.2v0.2h-0.5V52H47v-0.2h0.5v-0.5h0.2V51.5z M40,34.2h-0.7V34H40V34.2z
	 M37.1,19.6v0.2h0.2v0.5h0.2v0.2h-1v-0.5h-0.5v-0.2h-0.5v-0.2h0.2v-0.2h0.2v0.2h0.2v0.2h0.2v-0.2l0.2-0.2h0.2L37.1,19.6z M43.1,45.7
	h-0.5v-0.2h0.5V45.7z M36.4,30.4h-0.2v-0.2h0.2V30.4z M43.6,46.7h-0.2v-0.2h0.2V46.7z M42.1,40.7v0.2h-0.5v-0.2h-0.2v-0.2h0.2v0.2
	h0.2v-0.2h0.2L42.1,40.7z M34.7,28h0.2l0.2,0.2V28h0.5l-0.2,0.2v0.2l-0.2-0.2H34V28h0.5v-0.2h0.2L34.7,28z M41.7,39.5h-0.2v0.2h-0.2
	l0.2-0.2v-0.2h0.2V39.5z M52.9,52.9h-0.2v-0.2h0.2L52.9,52.9z M39,19.1h0.2v0.5H39v0.2h-0.2v0.2l0.2,0.2h0.2v-0.5h0.2V21h-0.2v-0.2
	H39v0.5h-0.2V22H39v0.2h0.2v0.2h0.2V23H39v-0.7h-0.2l-0.2,0.2v-0.2h-0.2v0.5h0.2V23h-0.5v-0.5l-0.2-0.2v-0.5h0.2v-0.5h0.2V21h0.2
	v-0.5l0.2-0.2h-0.2v-0.5h0.2v-1H39V19.1z M32.5,18.9h-0.2l0.2-0.2L32.5,18.9z M37.5,17.4h-0.2v0.5h0.2v0.7h-0.2v-0.2h-0.2v-1.2h0.5
	L37.5,17.4z M49,54.4v0.2h-0.2v-0.5H49V54.4z M51.7,54.9h-0.5v-0.2h0.2v0.2l0.2-0.2L51.7,54.9z M30.1,19.1h0.2v-0.7h-0.2v0.2h-0.2
	v0.2h0.2V19.1z M26.8,16.5v0.2H27v0.7h0.2v0.7H27v0.2h0.5v-0.2h0.2v0.2h-0.2v0.2h-0.2v0.2H27v0.5h0.2l0.2-0.2h0.2v-0.5H28v0.2h0.2
	v-0.5h0.2v-0.7h-0.2v0.2H28v-0.2h-0.2v-0.5l-0.2-0.2v-0.2h-0.2v-0.5H27V16h-0.2L26.8,16.5L26.8,16.5z M43.1,18.6h0.2v-0.7h-0.2v0.2
	h-0.2v0.2h0.2V18.6z M25.1,11.6v0.5h-0.2v0.2h-0.2v2h0.2v-0.5h0.2v1.7h-0.2V16h-0.2l0.2,0.2v0.5h0.2v0.5h0.2l-0.2,0.2h0.2v0.7h0.2
	v0.7h0.5v-0.7h-0.2v-1h-0.2v-0.2h-0.2v-0.5h-0.2v-0.2h0.5V16h-0.2l-0.2,0.2V16h0.2v-0.5h0.2v-0.2h0.5v-0.5h0.2v-0.2h-0.2v-0.5h0.5
	v-0.5h-0.2v-0.2h0.2v-0.2h-0.5v-0.2h-0.2v-0.2h0.2v-0.5h-0.2v-0.5h-0.2v-0.2h-0.2v0.2L25.1,11.6z M51.3,13.8V14h0.2v0.7l0.2,0.2
	l0.2,0.2V16l-0.2,0.2H52V17h0.2v0.2l0.2,0.2H53v-0.7h-0.3v-1h-0.2V15l-0.2-0.2L52,14.5v-0.7h-0.2v-0.7h-0.3v0.7L51.3,13.8z
	 M23.4,14.5v0.2h0.2v0.5h0.2v-1h-0.2V14l-0.2,0.2V14.5z M37.8,14h0.2v-0.2h0.2v-0.5h-0.5v0.2h-0.2v0.2h0.2L37.8,14z M27.5,10.9v0.2
	h-0.2v0.2H27v0.2h0.2v0.2h0.2v0.2h0.2l-0.2,0.2l-0.2-0.2v-0.2H27v-0.2h-0.5v0.2h-0.2v0.7h0.2v0.5h0.2v0.2H27v0.5h0.2v-0.7h0.2v-0.5
	h0.2v-0.2h0.5v0.7h0.2v0.5l-0.2-0.2v0.2H28v0.2h0.5v0.2l-0.2,0.2h0.2v0.2H29v0.2h0.2L29,15v1.7h0.2v0.7h0.2v-0.2l0.2,0.2V16h0.5
	v-0.7h-0.3V15h-0.2v-0.7h0.2v-0.2h0.2v-0.5h-0.2v-0.2l-0.2,0.2v-0.2h-0.2l-0.2,0.2v-0.2h-0.2v-0.2h-0.2v-1h-0.2v-0.5h0.2v-0.2h-0.2
	v-0.2h0.2l0.2,0.2v-0.5h-0.5v-0.2h-0.7v0.2H27.5z M54.1,12.6h-1v0.2l0.2,0.2h0.2v0.5l0.2,0.2h0.2v-0.2h0.2v-0.2l0.2-0.2h1v-0.2
	l0.2-0.5h-0.5l-0.2-0.2l-0.2-0.2l-0.2-0.2v-0.5l-0.2-0.2v0.2h-0.2C54.1,11.2,54.1,12.6,54.1,12.6z M2.8,10.7v0.2l-0.2,0.2v1.4h0.2
	v-0.2h0.5v0.7H4v-0.2h0.2v-0.2L4,12.4v-0.2H3.7v-0.2H4v-1H3.5v-0.5H3.2V9.7H3L2.8,10V10.7L2.8,10.7z M50,12.1v-0.5l-0.2-0.2h-0.2
	v0.5h0.2L50,12.1z M22.7,9.7V10h-0.2v0.2h0.2l-0.2,0.2v0.2l0.2,0.2v1h0.2v0.2h-0.2v0.5h0.7v-0.2h0.2v-0.7l0.2-0.2v0.2h0.2V12
	l0.2,0.2h0.5v-1.5l-0.2,0.2v-0.2h0.5v0.5h0.7v0.2h0.5v0.2h0.2v-0.7h-0.2v-0.2h-0.2v-0.2h-0.2v-1h-0.2V10h-0.2v0.5h-0.2V9.3L24.9,9
	V8.8h-0.2v0.5l-0.2,0.2h-1l-0.2-0.2V8.8h-0.4V9.7L22.7,9.7z M47.9,10.7V11h0.2v0.2h0.2v0.5h0.2l0.2,0.2v-0.5l-0.2-0.2V11l-0.2-0.2
	v-0.2h-0.2v-0.2h-0.2V10.7z M46.2,11.2h0.2V11l-0.2-0.2L46,11h0.2V11.2z M32.1,10.5V11h-0.2v0.2h-0.2v0.2H33v-0.2h0.2v-0.5h0.2v-0.5
	h0.2V9.5h-0.2v0.2h-1v0.5h-0.2V9.7h-0.2L32.1,10.5L32.1,10.5z M28,10.2V9.7h0.2V9.5H28v0.2h-0.5V10h0.2L28,10.2z M26.1,8.8V9h0.2
	v0.7h0.2l0.2-0.2V8.8h-0.2V8.5h-0.2l-0.2-0.2V8.8z M28,9l0.2,0.2h0.2V9l0.2,0.2V8.8h-0.2V8.5h-0.2L28,8.8V9z M24.4,8.3V8.1h0.2
	l0.2-0.2l0.2-0.2v-1h-0.2v0.2h-0.2v0.3h-0.2v0.2h-0.2v0.2h-0.2v0.5h0.2L24.4,8.3z M30.2,8h0.2V7.8l-0.2-0.2h-0.3v0.2h0.2L30.2,8z
	 M1.1,3.5v1H0.9v0.2H0.6v0.2H0.4v0.2h0.2v0.2h0.2v0.2h0.2v0.2h0.2l0.2,0.2v0.2L1.3,6.6h0.2v0.2h0.2v0.2h0.7v0.2h0.2V6.8H2.5V5.2H2.3
	V4.5l0.2-0.2V3.7H2.3V3.5H2L1.8,3.3V2.8H1.6V3H1.3v0.5H1.1z M28.5,7.1v0.2l0.2,0.2V6.8h-0.2V6.4l-0.2-0.2v0.2H28l0.2,0.2v0.2
	L28.5,7.1z M30.9,6.4h-0.2v1.4l0.2,0.2h0.5V7.8h0.2l0.2-0.2h0.2V6.1h-0.2V5.9l-0.2-0.2V5.4l-0.2-0.2h-0.5V6.4z M47.9,5.9v0.2
	l0.2,0.2V6.1h0.2l0.2-0.2h-0.2V5.7l-0.2,0.2L47.9,5.9z M25.8,5.9H26V4.7h-0.5v1h0.2V5.9z M30.1,5.2h0.2V4.7h-0.7v0.2h0.2L30.1,5.2z
	 M24.6,4v0.2h0.2v0.2h0.7V3.7h-0.2V3.5l-0.2-0.2V3l-0.2,0.2v0.3l-0.2,0.2V4z M32.1,3.8V4h0.2v0.5h0.5V4l-0.2-0.2V3.5h-0.2v-1
	l-0.2-0.2V1.6l-0.2-0.2V1.1h-0.2v0.2h-0.2v0.5l0.2,0.2l0.2,0.2l0.2,0.2L32.1,3.8L32.1,3.8z M35.2,4l0.2-0.2h-0.2V3.5h-0.5v0.2h0.2
	L35.2,4z M26.3,2.3h0.2v0.5L26.8,3v0.5H27v0.2h0.2V3.3L27.5,3V2.8l-0.2-0.2L27,2.3V2.1h-0.2l-0.2-0.2V1.6h-0.2L26.3,2.3L26.3,2.3z
	 M28.2,2.5h0.5v0.2h0.5v0.7h0.5V3.3h-0.2V3h0.2V2.3h-0.2V2.1h-1.2L28.2,2.5L28.2,2.5z M27.2,1.3l0.2,0.2v0.2H28V1.6h0.2V1.3h-0.5
	V0.9L28,0.6V0.4h-1.7v0.5h-0.5v0.2h1.4L27.2,1.3z M89.9,91.1v-0.2h-0.2v0.2H89.9z M95.7,86.8v-0.2h-0.2v0.2H95.7z M99,86.5v-0.2
	h-0.2v0.2H99z M95.9,86.3v-0.2h-0.2v0.2H95.9z M99.3,86.3v-0.2H99v0.2H99.3z M96.4,86.1L96.4,86.1l-0.2-0.2v0.2H96.4z M76.2,85.6
	v-0.2H76v0.2H76.2z M98.1,85.6v-0.2h-0.2v0.2H98.1z M99.7,85.6h0.5v-0.2h-0.7v0.2H99.7z M76,85.1v-0.5h-0.2v0.5H76z M71.7,84.1h0.2
	v-0.2h-0.5v0.2l0.2,0.2L71.7,84.1z M74.8,84.3v-0.2h-0.2v0.2H74.8z M94.7,84.3v-0.2l-0.2,0.2H94.7z M93.5,83.9v-0.5h0.2v-0.2
	l0.2-0.2v-0.2h-0.5v0.2h-0.2v1L93.5,83.9z M70.7,83.4v-0.2h-0.2v0.2H70.7z M93.3,83.1H93v0.2L93.3,83.1z M95.4,83.1v-0.2h-0.2v0.5
	L95.4,83.1z M75.8,82.4v-0.7H76v-0.2h-0.2v0.2h-0.5V82l0.2,0.2v0.2L75.8,82.4z M65.2,80.8v-0.2h-0.2v0.2H65.2z M70,79.8h0.2v-0.2
	h-0.5v0.2H70z M73.6,79.3h0.2v-0.5h-0.2v0.2h-0.2v0.2L73.6,79.3z M88,79.3L88,79.3v-0.5h-0.2v0.5H88z M62.5,79.1v-0.2h-0.2v0.2H62.5
	z M73.3,79.1L73.3,79.1v-0.5h-0.2v0.5H73.3z M80.5,78.9h-0.2v0.2L80.5,78.9z M80.3,78.9L80.3,78.9v-0.5h-0.2v0.5H80.3z M73.1,78.6
	v-0.5h-0.2v0.5H73.1z M88.2,78.4v-0.2h0.2v-0.2h-0.2v0.2H88v0.2L88.2,78.4z M72.9,78.1L72.9,78.1v-0.2h-0.2v0.2L72.9,78.1z
	 M62.3,77.7v-0.2h-0.2v0.2H62.3z M65.4,77.7L65.4,77.7v-0.2h-0.2v0.2H65.4z M75,77.7v-0.2h-0.2v0.2H75z M79.8,77.7h0.2v-0.5h-0.2
	v0.2h-0.2v0.2L79.8,77.7z M61.8,77.4h0.2v-0.5l-0.2,0.2h-0.2v0.2L61.8,77.4z M61.6,76.9v-0.2h-0.2v0.2L61.6,76.9z M81,76.9v-0.2h0.2
	v-0.2H81v0.2l-0.2,0.2L81,76.9z M61.3,76.7L61.3,76.7v-0.2h0.2v-0.2h-0.5v0.5L61.3,76.7z M64.9,75.7v-0.2h-0.2v0.2L64.9,75.7z
	 M64.5,75.5h0.2v-0.2h-0.5v0.2H64.5z M85.1,74.7v-0.2l-0.2-0.2v0.5L85.1,74.7z M55.1,74.3h-0.2v0.2L55.1,74.3z M54.9,74.3L54.9,74.3
	V74h-0.2v0.2H54.9z M84.4,72.3h0.2v-0.2h-0.5v0.2H84.4z M60.1,71.6l0.2-0.2h-0.5v0.2H60.1z M59.9,71.4L59.9,71.4v-0.2h-0.2v0.2H59.9
	z M52.5,70v-0.2h-0.2V70H52.5z M59.2,69.5h-0.2v0.2L59.2,69.5z M62.1,69.5v-0.2h-0.2v0.2H62.1z M47.9,69v-0.5l-0.2,0.2V69H47.9z
	 M64.9,68.8v-0.2h-0.2v0.2H64.9z M56.5,68.5V68h-0.2v0.2h-0.2l0.2,0.2L56.5,68.5z M62,68.5v-0.2h-0.2v0.2L62,68.5z M66.1,68.3
	l0.2-0.2l-0.2-0.2h-0.2v0.5L66.1,68.3z M69.5,68.3H70v-0.5l-0.2-0.2h-0.5v0.7H69.5z M77.1,68.3l0.2-0.2h-0.5v0.2H77.1z M77.6,68.3
	h0.2L77.6,68v-0.2L77.4,68v0.2H77.6z M55.8,68v-0.5h-0.2V68H55.8z M59.6,67.6v-0.2h-0.2v0.2H59.6z M62.5,67.6v-0.2h-0.2v0.2H62.5z
	 M77.4,67.6v-0.2h-0.2v0.2H77.4z M57.2,67.3h1v-0.2H57v0.2L57.2,67.3z M60.1,67.1h0.2v-0.2h-0.4v0.2H60.1z M65.4,67.1v-0.2h-0.2v0.2
	H65.4z M69.5,67.1h0.2v-0.2h-0.5v0.2H69.5z M74,67.1v-0.2h-0.2v0.2H74z M61.3,66.8l0.2-0.2v-0.2h-0.2v0.2h-0.2v0.2H61.3z M61.8,66.8
	v-0.2H62v-0.2h-0.2v0.2h-0.2v0.2H61.8z M73.5,66.8h0.2v-0.2h-0.5v0.2H73.5z M75.2,66.8l0.2-0.2H76l-0.2-0.2v-0.2h-0.5v0.5H75v0.2
	L75.2,66.8z M61.1,66.6v-0.5h-0.2v0.5H61.1z M72.9,66.6h0.2v-0.2h-0.5v0.2H72.9z M73.9,66.4v-0.2h-0.2v0.2H73.9z M59.5,65.9h0.2
	v-0.5l-0.2-0.2h-0.2v0.7H59.5z M61.9,65.9v-0.2h-0.2v0.2H61.9z M74.1,65.9v-0.2h-0.2v0.2H74.1z M75.8,65.9v-0.5l-0.2,0.2v0.2
	L75.8,65.9z M60.4,65.4v-0.2h-0.2v0.5L60.4,65.4z M69.5,65.7h0.2v-0.2h-0.5v0.2H69.5z M70,65.2h0.2v-0.5H70l-0.2,0.2v0.2H70z
	 M49.6,64.7v-0.2h-0.2v0.2H49.6z M47.7,64.2v-0.5h-0.5l0.2,0.2v0.2H47.7z M56.6,63.5h0.2V63h-0.2v0.2h-0.3v0.2L56.6,63.5z
	 M65.7,63.3V63h-0.2v0.2L65.7,63.3z M76,63.3V63h-0.2v0.2L76,63.3z M74.8,62.3L74.8,62.3V62l-0.2,0.2H74.8z M75.3,62v-0.2H75V62
	H75.3z M63.3,61.5H63v0.2L63.3,61.5z M67.6,61.8h0.5v-0.5h0.2v-0.2h0.2v-0.2h0.2v-0.5h-0.2v0.2h-0.5v0.2h-0.2v0.2h-0.5v0.7
	L67.6,61.8z M74.8,61.5H75v-0.4h-0.5v0.5L74.8,61.5z M67.1,61.3v-0.2h0.2v-0.5h-0.3v0.5h-0.2v0.2L67.1,61.3z M66.4,60.8h0.2v-0.2
	h-0.5v0.2H66.4z M49.6,60.6h0.2v-0.7h-0.2v0.2h-0.2v0.5L49.6,60.6z M56.1,60.6v-0.5h0.2v-0.5h-0.2v0.5h-0.2v0.5H56.1z M62.1,60.6
	v-0.5h-0.2v0.5H62.1z M72.7,60.3L72.7,60.3v-0.2h-0.2v0.2H72.7z M72.4,60.1L72.4,60.1v-0.2h-0.2v0.2L72.4,60.1z M49.6,59.9
	L49.6,59.9v-0.2h-0.2v0.2H49.6z M54.9,59.6h-0.2l0.2,0.2V59.6z M65,59.6v-0.2h-0.3v0.5L65,59.6z M61.1,59.4v-0.2h-0.2v0.5L61.1,59.4
	z M56.1,59.4h0.2v-0.5h-0.2v0.2h-0.2v0.2L56.1,59.4z M56.1,58.4h0.2v-0.2h-0.5v0.2l0.2,0.2L56.1,58.4z M49.4,58.4v-0.2l-0.2,0.2
	H49.4z M55.7,58.4V58h-0.2v0.5L55.7,58.4z M48.2,57.7V57h-0.3v0.7L48.2,57.7z M61.2,57.2v-0.7H61v0.7H61.2z M69.3,57L69.3,57v-0.2
	H69V57H69.3z M71.2,57v-0.2h-0.2V57H71.2z M58.2,56.5V56H58v0.5H58.2z M69.2,56.5V56L69,55.8v0.7L69.2,56.5z M54.5,56v-0.2l0.2-0.2
	h-0.2v0.2h-0.2V56H54.5z M58.6,55.8h-0.2V56L58.6,55.8z M69.6,54.8v-0.2h-0.1v0.2H69.6z M59.1,54.6h0.2v-0.2h-0.5v0.2H59.1z
	 M46.9,53.9v-0.5h-0.2v0.5H46.9z M46.5,53.7v-0.2l-0.2,0.2H46.5z M82.5,53.7v-0.2h-0.2v0.2H82.5z M66.9,53.4v-0.5h-0.2v0.5H66.9z
	 M67.9,53.4v-0.5h-0.2v0.5H67.9z M69.3,53.4h0.2v-0.5h-0.2v0.2H69v0.2L69.3,53.4z M67.4,53.2v-0.2h-0.3v0.2H67.4z M68.4,53.2v-0.5
	h0.2l-0.2-0.2v0.2h-0.2v0.5L68.4,53.2z M82.3,53.2v-0.2h0.5v-0.5h-0.5L82,52.7v0.5L82.3,53.2z M57.6,52.2h0.2V52h-0.5v0.2L57.6,52.2
	z M72.9,52.2V52h0.2v-0.2h-0.2V52h-0.2v0.2L72.9,52.2z M57.3,51.7h0.2v-0.2h-0.2V51.7l-0.3,0l0.2,0.2L57.3,51.7z M72.9,51.7
	L72.9,51.7v-0.2h-0.2v0.2L72.9,51.7z M55.6,50.3v-0.2h-0.2v0.2H55.6z M75.3,47.4L75.3,47.4v-0.2L75,47.4H75.3z M40,46.7h0.2v-0.2
	h-0.5v0.2H40z M67.4,46.7V46h-0.3v0.7L67.4,46.7z M77.7,46.7v-0.5h-0.2v0.5H77.7z M39.8,46.5L39.8,46.5v-0.2h-0.3v0.2H39.8z
	 M67.6,45.7v-0.2h-0.5l0.2,0.2l0.2,0.2L67.6,45.7z M64.2,45.5v-0.2H64v0.2H64.2z M62.6,45.3V45h-0.3v0.2L62.6,45.3z M62.3,44.8v-0.2
	h-0.2v0.2H62.3z M65,44.8v-0.2h0.5v-0.5h-0.2v0.2h-0.5v0.5H65z M42.4,44.5v-0.2h-0.2v0.2L42.4,44.5z M79.8,44.5v-0.2h-0.2v0.2
	L79.8,44.5z M42.2,44.1h-0.3v0.2L42.2,44.1z M69.3,44.3v-0.2H69v0.2H69.3z M65.2,44.1L65.2,44.1v-0.2H65v0.2H65.2z M66.9,44.1v-0.2
	h-0.2v0.2H66.9z M40.2,43.1l0.2-0.2h-0.2L40,43.1L40.2,43.1z M40,42.6v-0.2h-0.2v0.2H40z M41,42.4h-0.3v0.2L41,42.4z M38.4,41.7
	v-0.2l-0.2-0.2v0.5L38.4,41.7z M67.4,41.2h0.2v-0.2h-0.5v0.2H67.4z M72.6,40.9v-0.2h-0.2v0.2L72.6,40.9z M67.8,40.2V40h-0.2v0.2
	L67.8,40.2z M67.4,39.7v-0.2h-0.3v0.2L67.4,39.7z M71,39.3V39h-0.3v0.2L71,39.3z M55.1,39l-0.2-0.2V39H55.1z M54.9,38.8L54.9,38.8
	v-0.2h-0.2v0.2H54.9z M69.5,38.5v-0.2h-0.2v0.2L69.5,38.5z M70.7,38.3h0.2V38h-0.5v0.5L70.7,38.3z M38.3,38v-0.2h0.2v-0.5h-0.2v0.2
	h-0.2V38H38.3z M71.2,37.8v-0.2h-0.2v0.2H71.2z M34.9,37.6h0.5v-0.5h-0.2v0.2h-0.5v0.2L34.9,37.6z M35.4,36.8h-0.2l0.2,0.2V36.8z
	 M35.9,36.8v-0.2l-0.2,0.2H35.9z M35.9,36.6h0.2v-0.2h-0.5v0.2H35.9z M67.3,36.4v-0.2h-0.2v0.2H67.3z M71.9,35.9v-0.7h-0.2v0.7H71.9
	z M67.1,35.6v-0.2h-0.2v0.2H67.1z M34.2,34.9v-0.2H34v0.2L34.2,34.9z M70.2,34.7v-0.2H70v0.2l0.2,0.2L70.2,34.7z M71.7,34.7v-0.2
	h-0.2v0.2H71.7z M34.5,34.4L34.5,34.4v-0.2h-0.2v0.2H34.5z M65.7,34.4L65.7,34.4v-0.2h-0.2v0.2H65.7z M70,34.4L70,34.4v-0.2h-0.2
	v0.2H70z M71.4,34.4L71.4,34.4V34h-0.2v0.5L71.4,34.4z M49.1,34h0.2l-0.2-0.2h-0.2V34H49.1z M63.3,33.8L63,33.5v0.2L63.3,33.8z
	 M70,33.8l0.2-0.2h-0.5v0.2H70z M71.2,33.5V33h-0.2v0.5L71.2,33.5z M46.5,33.3V33h0.5v-0.2h-0.7v0.5L46.5,33.3z M64.7,33.3v-0.5
	h-0.2v0.5H64.7z M69.5,33.3L69.3,33v0.2L69.5,33.3z M69.3,33L69.3,33v-0.2H69V33H69.3z M64.5,32.8v-0.2h-0.2v0.2H64.5z M69,32.8
	v-0.2l-0.2-0.2V32h-0.2v0.2l0.2,0.2v0.2H69z M70.9,32.8v-0.2h-0.2v0.2H70.9z M30.9,32.5v-0.2h-0.2v0.2L30.9,32.5z M33.3,32.5
	l0.2-0.2h-0.2L33,32.5H33.3z M36.6,32.5v-0.2h-0.2v0.2L36.6,32.5z M68.1,32.3h-0.2v0.2L68.1,32.3z M53.2,32.3h0.2v-1h-0.2v0.5h-0.2
	v0.5L53.2,32.3z M67.8,32v-0.2h-0.2V32H67.8z M68.5,31.8h-0.2l0.2,0.2V31.8z M53.2,31.3L53.2,31.3v-0.2l-0.2,0.2L53.2,31.3z
	 M45.5,30.8h0.2l-0.2-0.2h-0.2v0.2H45.5z M33.5,30.6L33.5,30.6v-0.2h-0.2v0.2H33.5z M64.7,30.6v-0.2h-0.2v0.2H64.7z M65.7,29.4v-0.2
	h-0.2v0.2H65.7z M65.5,28.9v-0.2h-0.2v0.2L65.5,28.9z M63,28.5L63,28.5v-0.2h-0.2v0.2H63z M62,27.7v-0.2h-0.2v0.2H62z M41.6,27.3V27
	h-0.2v0.2L41.6,27.3z M62.5,26.8v-0.2h-0.2v0.2H62.5z M44.7,26.5H45v-0.2h-0.5v0.2L44.7,26.5z M59.8,26.5v-0.7h-0.2v0.7H59.8z
	 M44.7,26.1H45v-0.5l-0.2-0.2v0.2h-0.2v0.5H44.7z M53.6,25.8h0.2v-0.2h-0.5v0.2H53.6z M64.4,25.6v-0.2h-0.2v0.2H64.4z M64.2,25.1
	v-0.2H64v0.2H64.2z M65.8,24.6v-0.2h-0.2v0.2H65.8z M28.2,23.9v-0.5L28,23.7v0.2H28.2z M27.7,23.2v-0.2h-0.2v0.2H27.7z M30.1,23.2
	v-0.7h-0.2v0.7H30.1z M44.3,22v-0.2h-0.2V22H44.3z M54.6,21.8v-0.3h-0.2V22L54.6,21.8z M28,21.7h0.2v-0.2h-0.5v0.2H28z M45,21.5
	v-0.2h-0.2v0.2l0.2,0.2V21.5z M26.3,21.5V21H26v0.5L26.3,21.5z M27.5,21.3h0.2V21h-0.2l-0.2,0.2v0.2L27.5,21.3z M53.9,21.3l0.2-0.2
	v-0.2h-0.5v0.5H53.9z M27.5,20.8h0.2v-0.7h-0.2v0.5h-0.2v0.2H27.5z M26.5,19.8v-0.2h-0.2v0.2H26.5z M57.2,19.5H57v0.2L57.2,19.5z
	 M28.2,19.5h0.2v-0.7h-0.2L28,19.1v0.5L28.2,19.5z M32,19.5v-0.2h-0.2v0.2H32z M47.6,19.5v-0.2h-0.2v0.2H47.6z M62,19.3h0.2v-0.2H62
	V19.3l-0.2,0l0.2,0.2V19.3z M27,18.6v-0.2h-0.2v0.2H27z M29.7,18.1h0.5v-1h-0.5l0.2,0.2v0.2h-0.2v0.2h-0.2v0.2L29.7,18.1z
	 M43.1,17.9L43.1,17.9v-0.2h-0.2v0.2H43.1z M44.1,17.9v-0.7h-0.2v0.7H44.1z M49.6,17.9v-0.2h-0.2v0.2H49.6z M48.9,17.2v-0.5h-0.2
	v0.5H48.9z M24.2,16.9v-0.5h-0.2v0.5H24.2z M42.4,16.9l0.2-0.2v-0.5h-0.5v0.2l0.2,0.2h-0.2v0.2H42.4z M26.1,16.5h0.2v-0.2h-0.5v0.2
	H26.1z M27.1,15.7h-0.2V16L27.1,15.7z M28,16v-0.5h-0.2V16H28z M27.5,15.5h0.2v-0.2H28V15h-0.2v0.2h-0.5v0.2l0.2,0.2V15.5z
	 M36.9,15.5h-0.2v0.2L36.9,15.5z M26.6,15.3V15h-0.2v0.2L26.6,15.3z M4.5,15v-0.2H4.2V15H4.5z M27.5,15v-0.2L27.2,15H27.5z M57.5,15
	h0.2v-0.2h0.5v-0.5L58,14.1v0.2h-0.2v0.2h-0.5V15H57.5z M4.2,14.5v-0.2H4v0.2H4.2z M24.1,14.1v-0.2h0.2v-1.2h-0.5v1.4L24.1,14.1z
	 M48.4,13.3v-0.5h-0.2v0.5H48.4z M26.3,12.9v-0.2h-0.2v0.2H26.3z M30.1,12.9v-0.2h-0.2v0.2H30.1z M38.1,12.4v-0.5h-0.5v0.2l0.2,0.2
	H38.1z M34.2,10.9v-0.5H34v0.5H34.2z M50.8,10.5V10L51,9.7V9.3L50.8,9V8.8L50.5,9v1.4L50.8,10.5z M48.6,10h-0.2v0.2L48.6,10z
	 M3.2,9.5V9H3v0.5H3.2z M32.2,9.3v-1H32v1H32.2z M33.5,8.5h0.2V8.1h-0.2v0.2h-0.2v0.2H33.5z M35.4,8.3V7.8h-0.2v0.5H35.4z M21,7.8
	V7.6h0.2V6.4h0.2V6.1h0.2V5.9h-0.2v0.2h-0.2v0.2H21l-0.2,0.2v1.2L21,7.8z M26.3,7.3V7.1h0.2V6.6h-0.2v0.2H26v0.5L26.3,7.3z
	 M22.7,7.1h0.2v-1h-0.2v0.2l-0.2,0.2v0.5H22.7z M33,7.1V6.6h-0.2v0.5H33z M35.2,7.1V6.8l-0.2-0.2v0.5H35.2z M44,7.1V5.9h-0.5v1
	l0.2,0.2L44,7.1z M46.2,6.4h0.2l-0.2-0.2l0.2-0.2V5.7h-0.2v0.2H46v0.5L46.2,6.4z M28,4.5h0.2V4L28,3.7h-0.2v0.7H28z"/>
</svg>
