<?xml version="1.0" encoding="utf-8"?>
<!-- Generator: Adobe Illustrator 20.1.0, SVG Export Plug-In . SVG Version: 6.00 Build 0)  -->
<svg version="1.1" id="Layer_1" xmlns="http://www.w3.org/2000/svg" xmlns:xlink="http://www.w3.org/1999/xlink" x="0px" y="0px"
	 viewBox="0 0 48.8 54.5" style="enable-background:new 0 0 48.8 54.5;" xml:space="preserve">
<style type="text/css">
	.st0{fill:#C14803;}
</style>
<title>maputaland</title>
<path class="st0" d="M43.6,10.7L43.6,10.7z M2.6,54.1H2.3l0.2-0.2h0.2v0.2H2.6z M7.1,53.7H6.6l-0.2-0.2h0.5v0.2H7.1z M4.2,51.7V52
	h0.2l0.2,0.2l0.2,0.2H4.7v0.2l0,0v-0.2H4.5v-0.2H4l0,0l0,0v-0.5L4.2,51.7z M4.4,52.2L4.2,52l0,0l0,0v0.2L4.4,52.2z M5.2,53.2v0.2
	l0,0V53.2z M5.4,52.7h0.2V53h0.7v0.2h0.5l0,0h0.2v0.2h0.5v0.2H7.1v-0.2h-1v-0.2H5.4l0,0H5.2V53h0.2v0.2l0,0V53h0.2l0,0l0,0v-0.3
	L5.4,52.7z M44.3,11.2h0.2l-0.2,0.2V11.2z M44.5,11.9v-0.2h-0.2v-0.2h0.2l0.2-0.2l-0.2,0.2V11.9z M43.3,11.2L43.3,11.2z M26.5,30.2
	L26.5,30.2z M47.7,7.2v0.2h-0.5l-0.2,0.2h-0.2l-0.2,0.2l-0.2,0.2h-0.5v0.2h-0.5v0.2L45,8.8h-0.5L44.3,9v0.2h-0.2v0.3l-0.2,0.2v0.5
	h-0.2V10h-0.2v0.2h0.2v0.2l-0.2,0.2V11h-0.2v0.2h-0.2l0,0h-0.5v0.2h-0.2l0,0h0.2v0.2l0,0v-0.5h0.2v0.2h0.2v0.2l0.2,0.2v1.2h0.2v-0.2
	l-0.2-0.2v-0.2h0.2l0.2,0.2l0.2,0.2h0.2v-0.5l0.2-0.2v-0.3h0.2v0.2l-0.2,0.5v1l-0.2,0.2l0,0v0.7l-0.2,0.2v1.4l-0.2,0.2v0.7h-0.2v0.5
	h-0.2v0.5l-0.2,0.2v0.5l-0.2,0.2l-0.2,0.2v0.7h-0.2v0.7L41.9,21v0.7L41.7,22v0.7h-0.2v0.5l-0.2,0.2l-0.2,0.2v0.5h-0.2v0.5l-0.2,0.2
	l-0.2,0.2v0.2H40l-0.2,0.2l-0.2,0.2L39.3,26H39v0.2l-0.2,0.2h-0.2l-0.2,0.2h-0.7l0,0l0,0V27h-0.2v0.2h-0.2v0.2h-0.2v0.2h-0.2
	L36.4,28v0.2h-0.2l0,0h-0.2v0.2l0.2-0.2v0.2h-0.2v0.2h-0.2v0.2h-0.2v0.2h-0.2v0.2l-0.2,0.2l-0.2,0.2v0.2h-0.2l-0.2,0.5v0.2H34v0.2
	h-0.2v0.2h-0.3v0.2h0.2v0.2h-0.2l0,0h0.2L33.5,32l-0.2,0.2v0.2H33v0.2L32.8,33l-0.2,0.2v0.2h-0.2V34h-0.2v0.5h-0.2v0.2L31.6,35v0.2
	h-0.2v0.2h-0.2v0.2l-0.2,0.2v0.2h-0.2l-0.2,0.5v0.2h-0.2v0.2h-0.2v0.5h-0.2v0.2h-0.2v0.2h-0.2v0.2h-0.2v0.2l-0.2,0.2V39h-0.2
	l-0.2,0.2v0.2H28l-0.2,0.2V40h-0.5L27,40.2l-0.2,0.2l-0.2,0.2h-0.3V41h-0.2v0.2h-0.7v0.2l0,0v0.2h-0.2v0.2h-0.2v0.2l0,0l-0.2,0.2
	v0.2h-0.2l-0.2,0.2l-0.2,0.5h-0.2v0.2h-0.2v0.2l-0.2,0.2h-0.2v0.2h-0.2v0.2h-0.2v0.2h-0.2V45H22v0.2h-0.2v0.2h-0.3v0.2h-0.2V46H21
	v0.2h-0.5v0.2h-0.2v0.2h-0.2V47h-0.2l-0.2,0.2h-0.2l-0.2,0.2v0.2h-0.2v0.2h-0.2v0.2h-0.2v0.2h-0.2l-0.2,0.2h-0.2v0.2h-0.2l-0.2,0.2
	h-0.2v0.2h-0.2v0.2h-0.5l0,0H16v0.2l0,0v0.2h-0.5v0.2l-0.2-0.2l0.2,0.2h-0.2v0.2H15l0,0l0,0v0.2h-0.5V51h-0.2l-0.2,0.2h-0.5v0.2
	h-0.5v0.2h-0.5V52h-0.2l0,0h-0.2v0.2h-1.7L10.2,52H9l-0.5,0.2H8.3v0.2H8.1v0.2H7.8v0.5H7.6V53H7.1v-0.3H6.8v-0.2H6.6v-0.2H6.4V52
	H6.1v-0.2h0.2V52h1v-0.2H6.8v-0.5L6.6,51l-0.2-0.2H5.9l-0.5-0.2H4.9l-0.5-0.2H1.1l-0.5-0.5l-0.2-0.5v-0.7l0.2-1V44l0.2-1v-0.7
	l0.2-0.7l0.5-0.5l0.7-0.5l1-0.2H4l0.5-0.2h0.7L5.9,40h1.9l0.7-0.2H9L9.2,40l0.5,0.2h0.5l0.2,0.2v0.2L10.2,41v0.5h0.2l0.2-0.2
	l0.5-0.2l0.5,0.2l0.2-0.5h0.2l0.2-0.2h0.7l0.5-0.2H14l0.5,0.2h0.7l0.2-0.2l0.2-0.5h0.7v-0.3h0.2v0.2l0.2-0.2l0.2-0.2V39h1.4v0.2h0.5
	V39h0.2v-0.2l0.2-0.2V38H20v-0.5l0.2-0.2v-0.2l0.2-0.2l0.2-0.2H21v-0.2h-0.2l0.2-0.2h0.5l-0.2-0.2h-0.5l-0.2-0.2v-0.2l0.2-0.2h0.5
	v-0.2h0.2v-0.2h-0.2V34l0.2-0.2l0.2-0.2H22l0.7-0.2h1.4l0.2-0.2l0.2-0.2h0.2v-0.2h0.7v-1.2h0.5l-0.2-0.2h0.5v-0.5h0.2l0.2-0.2h-0.2
	v-0.2l0.2,0.2v-0.2h-0.2l0.2-0.2v0.2H27v-0.3l0,0v-0.2h0.2l0.2,0.2v0.2H28l-0.2-0.2H28v0.2h0.2l0.2-0.2v-0.2l0,0v-0.2H28v-0.2l0,0
	v-0.2h-0.2v-0.5h-0.3v-0.2h-0.2v0.2H27v-0.2h0.5V28h-0.2l0.2-0.2h-0.7v-0.3h-0.2v-0.7H26V27h-0.2v-0.2l0.2-0.2h-0.2v-0.2h-0.7
	l0.2-0.2v-0.2h-0.5v-0.2l0,0v-0.5h0.2l0.2-0.2l0.2,0.2l0.2-0.2l0.5-0.2h0.2v-0.5l0.5-0.2l0.2-0.2l0.2-0.2h0.2l0.2-0.2l0.2-0.2
	l0.2-0.2l-0.2-0.5V22l0.2-0.2l0.2-0.2V21l0.2-0.2l0.2-0.7v-0.5l0.2-0.2h0.7l0.5,0.2l0.2,0.2h0.5l0.2,0.2l0.2,0.5l0.2,0.2h0.2
	l0.2-0.2l0.2,0.2l0.2-0.2h1v-0.2l-0.2-0.2v-1l0.2-0.2v-0.5l0.2-0.5h1l0.5-0.2l0.2-0.2l0.2-1L36,16.1V16l0.2-0.2l0.2-0.2V15l-0.2-0.5
	v-0.7h0.2l0.2,0.2l0.2-0.2l0.2-0.2l-0.2-0.2l0.2-0.2l0.2-0.5l-0.2-0.2l-0.2-0.2l0.2-0.2l0.2-0.2l0.2-0.5V10l0.2-0.2l0.2-0.2h0.2
	l0.5-0.2L39,9l0.2-0.2l0.2-0.2l0.2-0.2V8.1l-0.2-0.2H39l-0.2,0.2h-0.2l-0.2,0.2l-0.5,0.2l-0.2,0.2h-0.5L36.6,9h-0.5l-0.2,0.2h-0.5
	L35.2,9l-0.2-0.5V7.8h-0.2V7.6l0.2-0.2V7.1h0.2V5.7l0.2-0.5V4.5l0.2-0.2V3.7h-0.2l-0.2-0.2V2.3l0.2-0.5l0.5-0.2l0.5-0.2l0.2-0.2h1.7
	l1.2-0.2h1l1-0.2l0.7-0.2h1l0.7,0.5l0.7,0.7L44.8,3l0.5,0.7h1l1.2,1.2l0.5,0.5l0.2,0.5l0.2,0.2v0.2h-0.2v0.2h-0.3v0.2h-0.2L47.7,7.2
	z"/>
</svg>
