<?xml version="1.0" encoding="utf-8"?>
<!-- Generator: Adobe Illustrator 20.1.0, SVG Export Plug-In . SVG Version: 6.00 Build 0)  -->
<svg version="1.1" id="Layer_1" xmlns="http://www.w3.org/2000/svg" xmlns:xlink="http://www.w3.org/1999/xlink" x="0px" y="0px"
	 viewBox="0 0 135.6 101.3" style="enable-background:new 0 0 135.6 101.3;" xml:space="preserve">
<style type="text/css">
	.st0{fill:#C14803;}
</style>
<title>melanesia</title>
<path class="st0" d="M9.2,0.4L9.2,0.4z M9.2,0.6L9.2,0.6z M8.8,0.6L8.8,0.6z M36.6,2.1v0.5h-0.2l0,0h-0.2l-0.2-0.2h-0.2V2.1h-0.2
	l0.2-0.2V1.3h0.2v0.2h0.2l0.2,0.2L36.6,2.1z M7.3,1.6L7.3,1.6z M7.6,1.8v0.2L7.3,1.8L7.6,1.8z M9.2,2.1L9.2,2.1z M1.6,2.3L1.6,2.3
	L1.6,2.3z M6.9,2.3L6.9,2.3z M35.9,2.5L35.9,2.5z M12.1,2.8V2.5l0,0V2.8z M36.1,2.8V2.5l0,0V2.8z M11.9,2.8V2.5l0,0V2.8z M36.1,2.8
	h0.2V3L36.1,2.8L36.1,2.8L36.1,2.8z M38,3.3h0.2L38,3.5l-0.2-0.2v0.2l-0.2-0.2h0.2V3H38V3.3z M6.6,3.3L6.6,3.3z M0.6,3.5v0.2H0.4
	V3.5H0.6z M21.7,4.7L21.7,4.7z M21.5,4.7h0.2v0.2h1.4l0,0h0.2v0.2h0.7v0.2h-0.2v0.2l-0.2-0.2l0,0v0.2l0,0v0.2h-0.2v0.2h-0.2V5.9
	h-0.5v0.2h-1l-0.2-0.2H21V5.7h-0.2v0.2l0,0v0.2h-0.2V5.9h-0.2v0.2h-0.2v0.2l-0.2-0.2V5.7h0.5V5.4h-0.2V5.2h0.2V4.9h1.2V4.7z
	 M23.7,4.9h-0.2l0,0H23.7z M24.1,4.9L24.1,4.9z M24.6,5.2v0.2h-0.5V5.2h0.2v0.2l0,0L24.6,5.2l-0.2,0V4.9h0.2V5.2z M26.5,5.4h-0.2
	V5.2h0.2V5.4z M25.8,5.4L25.8,5.4z M19.3,5.4L19.3,5.4z M26.3,6.1h-0.2V5.9h0.2V6.1z M26.6,6.1L26.6,6.1z M23.5,6.1L23.5,6.1z
	 M27.1,6.6h-0.2v0.2h-0.7V6.6h0.2l0,0h0.2V6.4h0.2v0.2L27.1,6.6z M25.4,6.4L25.4,6.4z M39.3,7.1h0.2v0.2h0.7v0.2h0.2v1h-1.7
	l-0.2-0.2V8.1h-0.2V7.6h-0.2v0.2l-0.2-0.2l0,0h0.2V7.3h0.2V7.1h0.2l0,0H39V6.9L39.3,7.1z M38.8,6.9L38.8,6.9z M24.2,6.9v0.2l0,0v0.2
	h-0.3V7.1h0.2L24.2,6.9z M21.5,7.1L21.5,7.1L21.5,7.1z M40.2,7.3L40.2,7.3z M40.5,7.3L40.5,7.3z M40.7,7.6L40.7,7.6z M40.7,7.6v0.2
	l0,0V7.6z M40.9,8.1l-0.2-0.2h0.2V8.1z M23.9,8.1h-0.2V7.8h0.2V8.1z M42.7,8.3h0.2v0.2h0.5l0,0l0.2,0.2V9h0.5v0.2h0.2v0.3l0.2,0.2
	h0.2V9.5l0.2,0.2h0.5V10h0.2v0.2h0.5l0.2,0.2H47V11h0.5v0.2h0.5v0.2h0.5l0,0h0.2v0.2l0.2-0.2v0.5h0.2v0.2h0.2v0.2h0.2v0.2h0.2v0.2
	h0.5v0.5h0.2v0.2l0,0l0.2,0.2l0.2-0.2v0.2h0.2v0.7H52v0.2h0.2V15h0.2v-0.2h0.2V15H53v0.5h0.5V16h0.2v0.2h0.2v0.5h0.2V17h0.2v0.2
	h-0.2v0.2h0.2v0.2h-0.5v1.2h-0.2v0.5h-0.2v0.2h-0.2v0.2l0,0v0.2h-0.2v-0.5h-0.2v-0.2h-0.2v-0.3h-0.2v-0.5L52,18.4v-0.5l0,0v-1.7
	h-0.2v-0.5h-0.3v-0.5h-0.2v-0.5H51l-0.2-0.2v-0.2h-0.2v-0.2h-0.2v-0.5h-0.2v-0.2h-0.2v-0.2h-0.2v-0.2h-0.7l0,0h-0.2v-0.2h-0.5
	l-0.2-0.2h-0.2v-0.2h-0.2v-0.2h-0.5v-0.5h-0.2v-0.2h-0.5v-0.2h-0.5v-0.2h-0.2v-0.2h-0.2v-0.2h-0.5L44.5,10h-0.2V9.7h-0.2l-0.2-0.2
	h-0.2l0,0l-0.2-0.2L43.1,9l0,0l-0.2,0.2V9h-0.2v0.2h-0.5V9h-0.5V8.8h0.5l0,0h0.5V8.5l0,0L42.7,8.3l-0.3,0l0,0h-0.2V8.1h0.2v0.2
	L42.7,8.3z M40.7,8.1L40.7,8.1z M40.9,8.3h-0.2l0.2-0.2V8.3z M48.6,8.5h-0.2V8.1h0.2V8.5z M36.4,8.3L36.4,8.3z M41.2,8.3L41.2,8.3z
	 M41.2,8.3L41.2,8.3z M40.7,8.5L40.7,8.5z M40.5,8.5L40.5,8.5z M40.5,8.5L40.5,8.5z M41.2,8.5v0.2h-0.2V8.5H41.2z M41.9,8.8h-0.2
	V8.5h0.2V8.8z M48.4,8.8h0.2v0.5l0,0v0.2l-0.2-0.2v0.2h-0.2V8.8H48.4z M41.7,8.8V9h-0.2V8.8H41.7z M52,9.3L52,9.3z M48.6,9.7h0.2
	v0.5h-0.2V9.7h-0.2V9.5h0.2V9.7z M42.6,9.7h0.2V10h0.5v0.2h-0.7l0,0h-0.2l0,0h-0.2V10h0.2L42.6,9.7z M52,10.2L52,10.2z M52.2,10.5
	L52.2,10.5z M51.8,10.5H52v0.2l0,0v0.7h-0.2l-0.2-0.2v-0.2h-0.2v-0.2h0.2v-0.2L51.8,10.5z M62.8,11.9L62.8,11.9z M62.8,12.1
	L62.8,12.1z M55.3,12.1h0.2v0.2h-0.5v-0.2H55.3z M63,12.4h-0.2l0,0H63z M54.8,12.6h0.2v0.2h-0.2l-0.2-0.2H54.8z M62.8,12.6
	L62.8,12.6z M54.6,12.9h0.2l-0.2,0.2V12.9z M57.5,15.7h-0.2v-0.2h0.2V15.7z M57.2,16v0.2h-0.5v-0.5H57V16L57.2,16z M48.8,16.2
	L48.8,16.2z M50.8,16.2L50.8,16.2z M50.8,16.2H51v0.5h-0.2v-0.2l0,0L50.8,16.2z M49.6,16.7L49.6,16.7h-0.2v0.5h0.5v0.2H50l0,0h0.2
	v-0.2h0.2v0.5h-0.2v0.5l0,0v0.5l0.2,0.2h-0.2v1h-0.2v0.2h-0.2v0.5h-0.2v0.2l-0.2-0.2v0.2h-0.5l-0.2-0.2l0,0l-0.2,0.2h-0.2v1h0.2l0,0
	l0.2,0.2l0.2,0.2l0.2,0.2v0.2L48.9,23v0.2h-0.5v0.2h-0.5v0.2h-0.5V24h-0.2v-0.2h-0.2v-0.2h-0.5v0.2h-0.7v-0.2h-0.2v0.7h0.2v0.2h-0.5
	v0.2l0,0v0.2l0,0L45,25.1h-0.2l-0.2,0.2l-0.2,0.2H44v0.2h-0.7v0.2h-0.2l0,0h-0.7v0.2h-0.2l0,0l-0.2-0.2v0.5h-0.2v0.2h-1V27h-0.2v0.2
	H40v0.2h-1v-0.2l-0.2,0.2v-0.2h-0.2v0.2H38l0,0l0,0l-0.2,0.2v-0.2h-0.2l0,0h-2.1V27h-0.2v-0.2h-0.2v-0.2h-0.2l-0.2-0.2H34v0.2h-0.7
	v0.2h-0.5v-0.2h-0.2v-0.2h0.2l0,0h-0.2l0,0h-0.3v-0.2h-0.2l-0.2-0.2v-0.2h-0.5v-0.2h-0.7v-0.2h-0.5l-0.2-0.2h-0.5v-0.2h-0.2v-0.2
	l-0.2-0.2l0.2-0.2v-0.7h1v0.5h0.2l0.2-0.2h0.2v-0.2l0.2,0.2h0.5l0,0l0.2,0.2v-0.2h0.2l0.2-0.2h0.5v0.2h0.5l0.2,0.2h0.2v0.2h0.5v-0.2
	h0.5l0,0h0.7v-0.2h0.7v0.2h0.5v-0.2h1v-0.5l0,0v-0.2h-0.2v-0.2h0.2v-0.2h0.2V22h0.2v-0.2h-0.2v-0.3h0.2v-0.7h0.7V21l0,0v0.2h-0.2
	v0.2h-0.3v0.7h-0.2v0.2l0,0v0.2h0.2v0.7l0.2,0.2h1v-0.2h0.2l0.2-0.2l0.2-0.2h0.2v0.2H41v0.5h0.7v-0.2l0.2-0.2h0.2v0.2h0.5v-0.2h0.2
	v-0.2h0.2v-0.5l0.2-0.2v-0.5l0.2-0.2h0.2l0.2-0.2V21h0.2v-0.2h0.5v-0.2H45v-0.2h0.2v0.2h0.5l0.3-0.2v0.2h0.5l0.2-0.2v-1.7h-0.2v-0.5
	l-0.2-0.2v-0.2H46v-0.7h-0.2v-0.2H46v-0.2h0.2v0.2h0.2l0,0l0.2-0.2v0.2h1v0.5h0.5v0.2l0.2-0.2l0.2-0.2v-0.2h-0.2v-0.2h0.2v0.2h0.5
	v-0.2h0.2l0,0h0.2L49.6,16.7z M50.8,16.7L50.8,16.7z M51,16.7L51,16.7z M49.3,16.9L49.3,16.9z M50.5,16.7l0.2,0.2h-0.2V16.7z
	 M59.6,17.7v-0.2l0,0V17.7z M60.1,18.2v0.5h-0.2v-0.2h-0.2l0.2-0.2v0.5h0.2L60.1,18.2h-0.2v-0.3h0.2L60.1,18.2z M59.6,18.2
	L59.6,18.2z M59.6,18.2L59.6,18.2z M87.7,18.7v0.2l-0.2-0.2l0,0H87.7z M34.7,18.9L34.7,18.9z M35.4,18.9l0.2,0.2l0,0v0.2h-0.2v-0.3
	l0,0l-0.2,0.2L35,19.1h0.2v-0.2L35.4,18.9z M52.4,19.4L52.4,19.4z M52.9,19.9L52.9,19.9z M33.5,20.1v0.2h-0.2v-0.2H33.5z M44,20.6
	h-0.2v-0.3h0.5v0.2L44,20.6z M62.3,21.3v0.5h0.2v0.7l-0.2,0.2h0.2L62.3,23l0,0H62l0,0l-0.2-0.2v-1.5h-0.2l0,0h0.2V21H62v-0.2h0.2
	V21.3L62.3,21.3z M87.3,21.3L87.3,21.3z M22,21.5v-0.2l0.2,0.2H22z M61.6,22L61.6,22z M22.9,22v0.2h0.2v0.5l0,0l0.2,0.2h-0.5v0.2
	h-0.2V23h-0.2v-0.3h-0.2V22H22.9z M25.3,22.2v0.2l0,0v0.2l-0.2-0.2v-0.2H25.3z M38.3,22.5L38.3,22.5z M61.6,22.5L61.6,22.5z
	 M61.9,22.7L61.9,22.7z M28,23.2h-0.2v-0.5H28V23.2z M61.8,22.9L61.8,22.9z M63,23.4h0.2v0.2h1v0.2h0.2v0.2h0.2v0.5H65v0.7h0.5v0.2
	h0.2v0.2H66v0.2h0.2v0.7h0.2V27h0.2l0,0h0.2v0.2h0.2V27h0.2v0.5h0.2l0.2,0.2V28h0.2l0.2,0.2v0.2h0.2v0.2h0.2v1H69L68.8,30v0.2h-0.2
	v-0.3l0,0v0.2h-0.2v-0.2l-0.2,0.2h-0.2v0.2h-0.2v0.2h-1v-0.2h-0.5v-0.2h-0.2v-0.2h-0.2l-0.2-0.2v-0.2h-0.2l-0.2-0.2v-0.2h-0.2v-0.2
	h0.2v-0.2h0.2V28l0,0v-0.2h-0.2v-0.3h-0.7v-0.2H64L63.7,27v-0.5h-0.2l-0.2-0.2H63V26l-0.2-0.2h-0.2v-0.5h0.2l-0.2-0.2v-0.2h-0.2
	v-0.2h0.2v-0.7l0,0v-0.2h0.2v-0.2h-0.2v-0.2h-0.2v-0.2h0.5v0.2L63,23.4z M26.3,23.2h0.5v0.2l0.2,0.2h0.5v0.2h0.2v0.2l0,0v0.7h-0.2
	v0.2h-0.2v-0.2H27l-0.2-0.2l0,0v-0.2h-0.5v-0.5h-0.2v-0.5h0.2V23.2z M62.1,23.2L62.1,23.2z M88.7,23.4L88.7,23.4z M62.3,23.7h-0.2
	v-0.2h0.2V23.7z M46.9,23.7L46.9,23.7z M62.3,23.9L62.3,23.9z M32.1,26.1L32.1,26.1z M32.5,26.5L32.5,26.5z M32.3,26.8h0.2L32.3,27
	V26.8z M32.5,26.8L32.5,26.8z M32.8,27h-0.2v-0.2h0.2V27z M67.6,27L67.6,27z M67.3,27l0.2,0.2h-0.2V27z M37.6,27.7L37.6,27.7z
	 M38.3,27.7h-0.2v-0.2h0.2V27.7z M39.5,27.5L39.5,27.5z M39.5,27.7L39.5,27.7z M36.6,27.7L36.6,27.7z M71.6,29.2h0.2v0.2h0.5v0.2
	h0.2v0.2h0.2v0.2h0.5l0.2,0.2h0.2v0.2H74l0.2,0.2l0,0h0.5v0.7H75v0.5h0.2v0.2h0.5v0.2H76v0.2h0.2V33h0.2v-0.2l0,0V33h0.2v-0.2h0.5
	V33l0,0v0.2h-0.5v0.2h-0.5v-0.2H76l0,0h-0.2V33h-0.3v0.2l0,0V33h-0.7v-0.2h-0.5l0,0l0,0v-0.2h-0.5v-0.2h-0.2v-0.2h-0.2v-0.2h-0.2
	v-0.2l-0.2-0.2l-0.2-0.2v-0.2h-0.2v-0.2h-0.5v-0.2h-0.2v-0.2h-0.2v-0.2h-0.2v-0.7L71.6,29.2L71.6,29.2z M69.5,29.7L69.5,29.7z
	 M69.2,30.1v0.2H69v-0.2H69.2z M69.5,30.4h-0.2v0.2h0.2v0.2l0,0v0.2h-0.2v-0.2h0.2v-0.2h-0.2v-0.2H69.5z M69.2,30.6L69.2,30.6z
	 M67.5,31.1v0.2l0.2-0.2v0.2h0.5v0.5h-1v-0.5h0.2L67.5,31.1z M68.5,31.3h-0.2l0.2-0.2V31.3z M67.1,31.6L67.1,31.6L67.1,31.6z
	 M68.3,31.8v0.2h-0.2v-0.2C68.1,31.8,68.3,31.8,68.3,31.8z M68.3,31.8L68.3,31.8L68.3,31.8z M77.4,33h-0.2v-0.2h0.2V33z M66.9,33.2
	v0.2h-0.2l-0.2-0.2V33h0.5L66.9,33.2C66.9,33.2,66.9,33.2,66.9,33.2z M74.8,33L74.8,33z M75.3,33.2L75.3,33.2z M80.1,33.2L80.1,33.2
	z M76.9,33.2h0.5v0.5h-0.2v-0.2h-0.5v-0.2L76.9,33.2z M80.3,33.2h0.2v0.2h-0.2V33.2z M80.8,33.2L80.8,33.2L80.8,33.2z M78.1,33.2
	h0.2v0.5h-0.5v-0.2L78.1,33.2L78.1,33.2L78.1,33.2z M80.5,33.2h0.2v0.2l0,0v0.2h-0.2v-0.2l0,0V33.2z M80.3,33.5L80.3,33.5z
	 M66.9,33.5L66.9,33.5z M76.7,33.5L76.7,33.5z M81,33.7h-0.2v-0.2H81L81,33.7z M79.3,33.7v-0.2l0,0V33.7z M77.4,33.5L77.4,33.5z
	 M81,33.7L81,33.7z M79.6,33.7L79.6,33.7z M80.8,33.7H81V34h0.2l0,0h0.2v0.2h-0.2V34h-0.5L80.8,33.7z M81,33.7L81,33.7z M78.6,33.7
	L78.6,33.7L78.6,33.7z M81.5,34h0.2v0.2h0.7l0,0h0.2v0.2h0.5l0,0h0.2v0.2h0.2v0.5h0.7v0.5h0.5v0.5h0.5v0.2h0.2l0,0h0.5l0,0h0.2l0,0
	h0.2v0.2h0.2v0.2h0.5v0.2h0.2v0.2h0.2v0.2H88v0.2h0.2v0.2h0.2l0.2,0.2H89v0.2h-0.3v0.2h-0.2l0,0h0.2V39h0.2v0.2l0,0v0.5l-0.2-0.2
	l-0.2-0.2h-0.2V39H88v-0.2l0,0l-0.2-0.2H87v-0.2h-0.2v-0.2h-0.5v-0.2h-0.5v-0.2h-0.5v-0.2h-0.2v-0.2h-0.5l-0.2-0.2h-0.2v-0.2h-0.2
	v-0.2h-0.2v-0.2h-0.5l0.2-0.2h-0.5v-0.2l0,0v-0.2h-0.5v-0.2l0,0v-0.2h-0.2v-0.5h-0.5v-0.2h-0.2V34z M81.3,34.2h0.2v0.2h0.2l0,0H82
	v0.2h-0.2l0,0l-0.2-0.2l0,0v0.2h-0.2v-0.2H81v-0.2l0,0v0.2h0.2L81.3,34.2z M83.4,34.5L83.4,34.5z M71.9,34.2h0.2v0.2h0.2v0.5h0.5
	v0.2h0.2l-0.2,0.2v0.2h-0.2v0.2l-0.2,0.2h0.2v0.2h-0.2v-0.2h-0.2l0.2-0.2h-0.5v-0.2h0.2v-0.2h-0.2v-0.2h-0.2v-0.2h-0.2v-0.2l0.2-0.2
	h0.2V34.2z M81.5,34.7L81.5,34.7z M82.2,34.7v0.2H82v-0.2H82.2z M81.7,34.7L81.7,34.7z M82.2,34.9L82.2,34.9z M82.2,35.2v-0.2l0,0
	V35.2z M71.7,35.4v0.2l0,0V35.4z M74.5,35.7h0.2v0.2H75v1.2h-0.2v0.2h-0.2v-0.2H74l-0.2-0.2v-0.7l0.2-0.2h0.2v-0.2L74.5,35.7z
	 M93,36.1h-0.2v-0.2H93V36.1z M71.6,36.1v0.2h0.2v1h-0.2v-1h-0.2L71.6,36.1z M76.6,36.4h0.2v0.2h0.2v0.7l0,0v0.2l0,0v0.2h0.2
	l0.2-0.2h0.2v0.2l0,0v0.2h0.2v0.2h0.2v0.5h0.2v0.5h-0.2v0.2h-0.2v0.2h-0.2v-0.5h-0.5L77.2,39h-0.2v-0.5l0,0V38h-0.2l0.2-0.2h-0.2V38
	h-0.2v-0.2h-0.2V38h-0.5v0.2h-0.5V38H75v-0.5h0.5v-0.2h0.2v-0.5H76v-0.2h0.2v-0.2L76.6,36.4L76.6,36.4z M77.1,36.9L77.1,36.9z
	 M73,36.9v0.2h-0.2v-0.2H73z M77.4,36.9L77.4,36.9z M87.2,37.1L87.2,37.1z M77.4,37.1L77.4,37.1L77.4,37.1z M87.4,37.1h0.2v0.2
	L87.4,37.1z M77.4,37.3L77.4,37.3z M73.5,37.1L73.5,37.1z M74.7,37.3H75v0.7h-0.2v-0.2h-0.2v-0.5H74.7z M77.4,37.6L77.4,37.6z
	 M77.6,37.6L77.6,37.6z M77.6,37.6L77.6,37.6z M74,37.6h0.5v0.7l0,0v-0.2h-0.2v-0.2h-0.2L74,37.6z M77.8,37.8L77.8,37.8z M74.5,37.8
	L74.5,37.8z M77.8,37.8h0.2l0,0H77.8z M86,37.8L86,37.8z M74.2,37.8L74.2,37.8z M71.6,38.1h-0.2l0,0H71.6l-0.2-0.2h0.2V38.1z
	 M78.1,37.8L78.1,37.8z M75.2,38.1L75,38.3v-0.2L75.2,38.1z M76.2,38.1L76.2,38.1L76.2,38.1z M76.4,38.1h0.2l0.2,0.2l0,0l-0.2-0.2
	v0.2h-0.2V38.1z M78.4,38.3l-0.2-0.2h0.2V38.3z M76.2,38.1H76v0.2l0,0v-0.2H76.2z M93.7,38.3h-0.2v-0.2h0.2L93.7,38.3z M74.7,38.3
	L74.7,38.3z M93.2,38.3h0.2v0.2h0.2v0.2H94V39l0.2,0.2v0.2h0.2v0.2h0.2v0.5h-0.2v0.2h-0.2v0.5h0.2v0.2h0.2v-0.2l0.2,0.2l0,0h0.2v0.2
	l0.2,0.2h-0.2v0.2l0.2-0.2v0.5l0,0v0.2h0.2v0.2h0.2v0.2h-0.2v0.2h0.2v0.2h-0.2v0.2h0.2v0.2h0.2v0.5h0.2v1L96.1,45l-0.2-0.2l-0.2-0.2
	V44h-0.2v-0.2h-0.2v-0.2h-0.2v-0.2l-0.2,0.2v-0.2h-0.2v-0.2h-0.2v-0.2H94v-0.2h-0.2v-0.2h-0.3v-0.5l0,0v-0.2l0,0l-0.2-0.2l0,0v-0.7
	H93V40l-0.2-0.2H93v-0.3h0.2v-0.2H93V39h-0.2v-0.2h-0.2v-0.5H93v0.2h0.2L93.2,38.3L93.2,38.3L93.2,38.3z M75.4,38.3h0.2v0.2h-0.2
	L75.4,38.3z M78.8,38.8h-0.2v-0.2l0,0v0.2H78.8z M103.5,38.5L103.5,38.5z M76.6,38.8L76.6,38.8z M103.8,38.5L103.8,38.5z M87.7,38.5
	v0.7H88v0.2h-0.5v-0.2h-0.2v-0.7H87.7L87.7,38.5z M75.7,38.5v0.2l-0.2-0.2H75.7z M75.7,38.8H76v0.7h-0.2v0.2L75.5,40h0.2v0.2H76v0.2
	h-0.2v-0.2h-0.3V40h-0.2v-0.2H75v-0.5h0.2V39h0.2v-0.2L75.7,38.8L75.7,38.8L75.7,38.8z M79,38.8V39l0,0V38.8L79,38.8L79,38.8z
	 M75.5,39L75.5,39z M79.6,39L79.6,39z M80.1,39.2h-0.2V39L80.1,39.2z M79.1,39.2L79.1,39.2z M80.1,39.5L80.1,39.5z M79.1,39.2v0.2
	h0.2v-0.2h0.2v0.2l0.2-0.2v0.5h-0.5V40h0.2v-0.2h0.2V40h-0.2v0.5h-0.2v0.2h-0.2v-0.2h-0.5v-0.2h-0.2V40h0.2l-0.2-0.2h0.2l0,0h0.2
	v-0.3l0,0v-0.2L79.1,39.2z M89.1,39.5L89.1,39.5z M80,39.5L80,39.5L80,39.5z M88.9,39.7L88.9,39.7z M80.1,40L80.1,40z M80.3,40
	L80.3,40h-0.2l0,0H80.3z M80.3,40.7h-0.2V41h-0.2v-0.5h0.2l0,0h0.2V40.7z M80.1,40.2L80.1,40.2z M76.7,40.2h0.2v0.2h0.2v0.2h-0.5
	v-0.2h-0.5v-0.2H76.7z M79.8,40.5L79.8,40.5z M94.9,40.5v0.2l0,0V40.5L94.9,40.5z M79.6,40.5L79.6,40.5z M80.6,40.7L80.6,40.7z
	 M93.3,41.2L93.3,41.2z M89.5,41.2h0.2v0.2L89.5,41.2L89.5,41.2z M93.3,41.4L93.3,41.4z M89.7,41.7L89.7,41.7z M93.3,41.7L93.3,41.7
	z M89.9,41.7v0.2h-0.2L89.9,41.7h-0.2v-0.2h0.2V41.7z M89.7,41.7L89.7,41.7z M84.9,41.7h-0.2l0,0H84.9z M84.7,41.9h-0.2v-0.2h0.2
	V41.9z M90.7,41.9L90.7,41.9z M90.2,41.9h0.7v0.2h0.2l-0.2,0.2l-0.2,0.2v-0.2l0,0l-0.2,0.2v-0.2h-0.2l0,0h-0.3v-0.2l0,0v-0.3
	L90.2,41.9L90.2,41.9L90.2,41.9z M85.2,41.9h-0.2l0.2-0.2V41.9z M84.9,41.9h0.2l0,0l0,0v0.5h-0.7v-0.2h0.2v-0.3L84.9,41.9L84.9,41.9
	L84.9,41.9L84.9,41.9z M95.7,42.2L95.7,42.2z M85.3,41.9v0.7l-0.2-0.2v-0.2h0.2V41.9z M82.9,41.9L82.9,41.9z M85.6,41.9L85.6,41.9z
	 M85.6,42.1h-0.2l0.2-0.2V42.1z M85.1,42.1l0.2-0.2v0.2H85.1z M91.3,42.4h0.2v0.2h-0.2v0.2h-0.2v-0.2h-0.2v0.2h-0.2v-0.2h0.2v-0.2
	h0.2l0,0H91.3z M88.5,42.6h-0.2v-0.2h0.2V42.6z M85.6,42.4L85.6,42.4z M85.1,42.4L85.1,42.4z M85.6,42.6v-0.2l0,0V42.6z M84.9,42.6
	L84.9,42.6z M84.9,42.4v0.2h-0.2L84.9,42.4z M85.6,42.6h-0.2l0.2-0.2V42.6z M95.9,42.6L95.9,42.6z M95.9,42.9L95.9,42.9z M88,43.3
	h0.2l0.2,0.2v0.2h0.2v0.2h2.6v0.2h0.2l0.2,0.2h0.2v0.2h0.5v0.7H93v0.2h0.2v0.5h0.2v0.2H93l-0.2,0.2h-1v-0.2h-0.5L91,46.2h-0.5V46
	l-0.2,0.2h-1.2V46H88v-0.2h-0.2v-0.3l-0.2-0.2l0,0v-0.5h-0.2v-0.2H87v-0.2h0.2v-1h0.2v-0.2H88V43.3z M96.4,43.8h0.2v0.2l0.2,0.2v0.2
	l0.2,0.2V45h0.2v0.5h-0.3l0,0l0,0v0.2h0.2V46h-0.2v-0.2h-0.2v-0.3h-0.2l0,0h-0.2v-1.2h0.2l-0.2-0.2l0,0l0,0L96.4,43.8l-0.3-0.2h0.2
	L96.4,43.8z M95.2,43.8L95.2,43.8L95,43.6h0.2V43.8z M95.4,43.8L95.4,43.8z M95.4,44.1L95.4,44.1z M95.7,44.3l-0.2-0.2h0.2V44.3z
	 M95.7,44.5L95.7,44.5z M96.4,44.5L96.4,44.5z M92.6,44.5L92.6,44.5z M95.9,44.8l-0.2-0.2h0.2V44.8z M93.5,44.5L93.5,44.5z M97.4,45
	L97.4,45z M99.5,45.5v0.2h-0.2V46l0,0l0.2,0.2h-0.2v-0.5l0,0v-0.3L99.5,45.5z M93.5,46L93.5,46z M93.8,46.2L93.8,46.2L93.5,46h0.2
	L93.8,46.2z M93.5,46.2h-0.2V46L93.5,46.2z M126.2,46.2L126.2,46.2z M126.6,46.9h-0.2v-0.2h0.2V46.9z M126.9,46.9L126.9,46.9z
	 M118.2,47.4L118.2,47.4z M99,47.9L99,47.9z M121.1,47.9L121.1,47.9z M96.4,47.9h0.2v0.2h0.2v0.2h0.5v0.2h0.2v0.2h0.2v0.2h0.5
	l0.2,0.2h0.2l0,0h0.5v0.2h0.2v-0.2h0.2v0.2h0.3v0.2h0.2v0.5l0,0l0.2,0.2h0.2V51l-0.2,0.2h0.7v0.2l-0.2-0.2l0,0h-0.2l0,0H100v0.2
	h-0.2v-0.2h-0.3L99.3,51v0.2L99,51v0.2h-0.2L99,51h-0.7l-0.2-0.2l0,0h-0.2v-0.2l-0.2,0.2v-0.2h0.2l-0.2-0.2l0,0h-0.2l0,0l0,0V50
	h-0.2v-0.2L96.9,50h-0.2v-0.2h0.2v-0.5h-0.2l0,0h0.2v-0.2h-0.2v-0.2h-0.2l0,0h-0.2l0.2-0.2h-0.7v-0.7H96.4L96.4,47.9z M120.8,48.4
	l0.2-0.2l0,0L120.8,48.4z M99.2,48.1H99v-0.2h0.2V48.1z M98,48.4L98,48.4v0.2l0,0V48.4h-0.2v-0.2H98V48.4z M99.2,48.4L99.2,48.4z
	 M121.1,48.4v-0.2h0.2v0.2H121.1z M121.1,48.4L121.1,48.4z M121.3,48.4L121.3,48.4z M96.1,48.6L96.1,48.6z M118.7,49.3h-0.2l0.2-0.2
	V49.3z M96.8,49.6h-0.2l0.2-0.2V49.6z M96.8,49.6v0.2h-0.2v-0.2H96.8z M119.4,50.3h0.5l0,0h0.2v0.2h-0.2v0.2h-0.2V51h-0.5l0.2-0.2
	h-0.2V51h-0.2l0,0h-0.2v0.2l-0.2,0.2v-0.2H118v-0.5h0.2V51h0.2v-0.5h0.2l0,0l0.2-0.2L119.4,50.3L119.4,50.3z M118.2,50.5v-0.2h0.2
	v0.2L118.2,50.5z M119.9,50.8L119.9,50.8z M119.6,51v-0.2h0.2L119.6,51z M119.6,51v0.2h-0.2V51L119.6,51z M101.6,51.5h-0.2v-0.2h0.2
	V51.5z M122,53.4h0.2v0.5H122v-0.2l0,0l-0.2,0.2v-0.2h0.2V53.4z M87.5,53.7v0.2l0,0V53.7z M88.7,54.9h0.5v0.2h0.2v0.2h0.2l0.2,0.2
	h0.2v0.2h0.7v0.2l0.2,0.2h0.2v0.2h0.2l-0.2,0.2v-0.2h-0.2v0.2h-0.2v-0.2h-0.5v-0.5h-0.5v-0.5h-0.2v0.2h-0.5v-0.2h-0.2v-0.2h-0.2v0.2
	l-0.2-0.2v-0.2h-0.2v-0.2L88.7,54.9L88.7,54.9z M123.7,55.6h0.5v0.2h0.2v0.2h-1v-0.7L123.7,55.6z M124.4,55.6l-0.2,0.2v-0.2H124.4z
	 M133.5,59.2v-0.2h0.2L133.5,59.2z M121.3,63.3h0.2V64l-0.2-0.2v-0.3h0.2v-0.2L121.3,63.3z M121.8,64v0.2h-0.2V64L121.8,64z
	 M121.8,64.5L121.8,64.5z M121.8,64.7h-0.2v-0.2L121.8,64.7z M122,65.2h-0.2v-0.2h0.2V65.2z M125.4,65.4v0.2l0,0l0,0l-0.2,0.2v-0.5
	L125.4,65.4z M126.1,65.9L126.1,65.9z M126.1,66.1L126.1,66.1z M127.1,66.1v0.2h-0.2v-0.2H127.1z M125.9,66.6h0.2v0.5l0,0v0.2l0,0
	l0,0h-0.2v0.5h-0.2v-0.5h-0.2v-0.7C125.4,66.6,125.9,66.6,125.9,66.6z M127.1,67.1L127.1,67.1z M126.6,67.3L126.6,67.3z M126.1,69
	v0.5l-0.2,0.2V70h-0.2v-0.2h-0.5v-0.5l0.2-0.2L126.1,69L126.1,69z M128.5,70.2l-0.2,0.2v-0.2H128.5z M120.9,71.4v0.2h0.2v0.5h0.2
	v0.2l0,0l0.2,0.5v1l0,0v0.5l0,0l0,0h0.5v0.5h-0.2l0,0h0.2v-0.7h0.2l0.2-0.2v-0.7h0.2l0,0h0.2v1h0.2v0.7l0.2,0.2v0.2h-0.2v0.2
	l0.2,0.2v0.5l-0.2-0.2H123v0.2l-0.2,0.2h-1v0.2h-0.5V77l-0.2-0.2v-0.5h-0.2V76h-0.2v-0.5h-0.2v-0.2h0.2v-0.5l0.2-0.2h-0.2v-1.4h-0.2
	v-1.2h0.2v-0.5L120.9,71.4z M128.3,72.8l0.2,0.2v2.2h-0.2v0.2l0,0V72.8L128.3,72.8z M123.3,73.1h0.2v0.2L123.3,73.1z M123.3,73.8
	L123.3,73.8z M123.5,74.8L123.5,74.8z M127.6,74.8V75h-0.2v0.2l-0.2,0.2v0.2h-0.2V76h-0.2v-0.2l-0.2,0.2v-0.2l-0.2,0.2h-0.2v-0.5
	h0.2v-0.2h0.2l0.2-0.2h0.5v-0.2L127.6,74.8L127.6,74.8z M123.5,74.8L123.5,74.8z M123.5,75.5L123.5,75.5z M123.5,75.8v-0.3l0.2,0.2
	L123.5,75.8z M128.5,78.2h-0.2v0.2l0,0v0.2h-0.2v-1.2h-0.2v-0.7h0.2V76h0.2v0.2l0,0v1.4h0.2C128.5,77.7,128.5,78.2,128.5,78.2z
	 M123.3,76.2v0.2h-0.5l0.2-0.2H123.3z M123.5,76.5l0.2-0.2v0.2H123.5z M122.1,76.5L122.1,76.5z M122.1,76.7L122.1,76.7z M122.8,76.7
	h0.7V77h-0.2v0.2l0,0v0.2l-0.2-0.2h-0.2V77h-0.2L122.8,76.7z M123.5,78.2h0.2v0.5h0.3v0.5l0.2,0.2v-0.3l0.2,0.2v0.2h0.2v0.2h0.2v0.2
	h0.2v0.2h0.2v0.2h0.2v0.7l0,0v-0.5l0.2,0.2h-0.2v0.2h-0.2v0.2h-0.2v-0.2h-0.7v0.2h-0.2v0.2H124v-0.2h-0.2v-0.2h0.2V81h-0.2v-1.7
	h-0.2l0,0h-0.2v0.2H123v-0.2h-0.2v-0.7h0.2v-0.2l-0.2-0.2h0.2v-0.2h0.2L123.5,78.2z M123.7,78.2L123.7,78.2z M127.8,79.6h0.2v0.5
	h0.2v0.5h-1.2v-0.3h-0.5v-0.2h-0.2v-0.2h0.5v-0.2h0.5v-0.2h0.2v-0.2h0.2L127.8,79.6L127.8,79.6L127.8,79.6z M127.8,81.3V81h0.2v0.2
	L127.8,81.3z M128.5,81.5h-0.2v-0.2h0.2V81.5z M125.9,81.3L125.9,81.3z M125.9,81.5h-0.2v-0.2h0.2V81.5z M125.7,81.5L125.7,81.5z
	 M127.8,82.2h0.2v0.2h0.2v0.2h0.7V83l-0.2-0.2V83h-0.5v-0.3h-0.5v0.2h-0.5v-0.5h-0.2v-0.2h0.2v-0.5h0.2l0,0l0.2,0.2L127.8,82.2z
	 M129.3,83.2h0.2l-0.2,0.2l-0.2,0.2v-0.5L129.3,83.2z M129.5,84L129.5,84z M129.3,84.2L129.3,84.2z M128.3,84.2v0.2h-0.5l0.2-0.2
	H128.3z M128.5,84.7L128.5,84.7z M128.3,85.4L128.3,85.4z M127.8,86.6l-0.2-0.2v-0.2h0.2C127.8,86.1,127.8,86.6,127.8,86.6z
	 M128.3,86.6v-0.3h0.2v0.2L128.3,86.6z M128,86.6h-0.2l0.2-0.2V86.6z M127.3,86.6v0.2h-0.2v-0.2H127.3z M127.5,86.8h0.7v0.5h0.2v0.2
	h0.2v0.2h-0.2V88h-0.2v0.2h-0.7l0,0h-0.2V88l0,0v-0.2l0,0V88h-0.2v-0.2l0.2,0.2v-0.2l-0.2-0.2h-0.2v0.2h-0.2v-0.3l0.2-0.2h0.2v-0.5
	L127.5,86.8L127.5,86.8L127.5,86.8z M127.1,87.1L127.1,87.1z M127.3,88.3L127.3,88.3z M130.7,92.6h0.2v0.2h-0.2l0.2,0.2h0.2v0.2
	h-0.2v0.2h0.2v0.2h0.2v0.5h-0.2v0.2h-0.2v-0.2h-0.2l0,0h-0.2l0,0l-0.2-0.2H130v-0.2h-0.2v-0.3h0.2v-0.2h-0.2V93h0.2v-0.5h0.5
	l0.2-0.2L130.7,92.6z M132.3,95.7L132.3,95.7L132.3,95.7z M130.9,96.2h0.2v0.7h0.2v0.2h0.2v0.2h-0.2v0.5h-0.5v-0.2h-0.2v-0.2h-0.2
	v-1h0.2v-0.2L130.9,96.2z M135.2,97.2L135.2,97.2z M132.8,100.6h0.2v0.5h-0.7v-0.5h0.2v-0.2h0.2L132.8,100.6z"/>
</svg>
