<?xml version="1.0" encoding="utf-8"?>
<!-- Generator: Adobe Illustrator 20.1.0, SVG Export Plug-In . SVG Version: 6.00 Build 0)  -->
<svg version="1.1" id="Layer_1" xmlns="http://www.w3.org/2000/svg" xmlns:xlink="http://www.w3.org/1999/xlink" x="0px" y="0px"
	 viewBox="0 0 205.1 120.5" style="enable-background:new 0 0 205.1 120.5;" xml:space="preserve">
<style type="text/css">
	.st0{fill:#C14803;}
</style>
<title>mesoamerica</title>
<path class="st0" d="M168.9,109.6v-0.5h0.5l0.2,0.2v0.2l0.2-0.2v0.2h-0.2v0.7h0.5v0.2h-0.7v-0.2h-0.2v-0.2h-0.2v-0.2h-0.2v-0.2
	H168.9z M166.5,106.2h0.2V106l-0.2-0.2l-0.2,0.2h0.2V106.2z M166.2,100h0.2v-0.2h-0.2v-0.2h-0.5l0.2,0.2L166.2,100z M104.1,64.7h0.2
	v-0.2h-0.5l-0.2-0.2h-0.5l0.2,0.2h0.2L104.1,64.7z M85.1,62.1h0.2v-0.2l-0.2-0.2v-0.5h-0.2v0.7h0.2V62.1z M95.9,60.6h0.2v-0.5h-0.7
	v0.2h0.5V60.6z M87.5,57.3v0.2h0.2v0.2h-0.2v0.5h0.2v0.2l-0.2,0.2v0.7h-0.2v0.2h0.2v-0.2H88v0.2h0.2v-0.7h0.2v-0.2h-0.2v-1l0.2-0.2
	v-0.2h0.2V57h-0.2l-0.2-0.2h-0.7L87.5,57.3L87.5,57.3z M92.5,58l0.2,0.2L93,58v0.2h0.2v-0.7h-1v0.2h0.2L92.5,58z M84.8,55.8v0.2
	h-0.2v-0.2h-0.5v0.2h-0.5v0.2h-0.2l-0.2,0.2h0.5v0.7h0.2v-0.7h0.2v0.2h0.2v-0.5H85v0.2h0.2l0.2-0.2v0.2h0.2l0.2-0.2v0.2h0.5v0.2h0.2
	v-0.5H87v-0.5h-0.2v0.2H86v-0.2h-0.5v-0.5h0.2v-0.2h-0.5v0.2h-0.2v0.5H84.8z M79.5,56.3v0.2h0.2v-0.2H80v-0.2h-0.2v-0.2h-0.2
	C79.5,55.8,79.5,56.3,79.5,56.3z M88.4,53.4v0.2h-0.2v-0.2H88v0.2h-0.2v-0.2h-0.3v0.2l-0.2-0.2H87v0.2h-0.2v0.5h0.5v0.2h0.5
	l-0.2-0.2H88v0.5h0.5v0.5h0.2v0.2H89v1h0.5v0.2h-0.2v0.2h0.5V57h0.2v0.5h0.2V57h0.2l-0.2-0.2V56h-0.3v-0.5h-0.2v-1h0.2v-0.2h-0.2
	l-0.2,0.2v-0.5h-0.2v-0.5h-0.2v-0.5h-0.2v-0.2h-0.2L88.4,53.4L88.4,53.4z M88.1,52.7h0.2v-0.5l-0.2,0.2v-0.2H88v0.2L88.1,52.7z
	 M87.4,52.2H88V52h-0.2v-0.2h-0.3L87.4,52.2L87.4,52.2z M58.1,51.7v-0.5h0.2V51h-0.2v0.2H58l-0.2,0.2H58L58.1,51.7z M19.5,50.7h0.2
	V50h-0.2l-0.2,0.2v0.2h0.2V50.7z M58.1,50.3v0.2h1v-0.2h-0.4v-0.2h0.2v-0.2h-0.5v0.5L58.1,50.3z M58.9,46.9h0.2v-0.5h-0.4v0.2h0.2
	L58.9,46.9z M59.9,45.2h0.2v-0.5h-0.5V45h0.2L59.9,45.2z M77.1,38.5h0.2V38h-0.5v0.2h-0.2v0.2h0.2v-0.2h0.2L77.1,38.5z M54.9,29.7
	l-0.2,0.2v0.2l0.2,0.2h-0.7v0.5h0.2v0.2h-0.2v0.2h-0.2v0.5h0.2v0.2h-0.2l0.2,0.2h-0.2v0.2h-0.5V33h-0.2v0.5h-0.2l-0.2,0.2h-0.2V34
	h0.2v-0.2h0.2l0.2,0.2v-0.2h1v-0.3h-0.3v-0.2h-0.2v0.2h-0.2v-0.2h0.2v-0.5h0.7v-0.2h-0.2v-0.2h0.2v-0.2l0.2-0.2h-0.2v-0.2h0.2v-0.7
	h0.2v0.5h0.2v0.2h0.2v-1.2h-0.2v-0.2l0.2-0.2v-0.5h-0.2v-0.2l0.2-0.2h-0.2v0.2h-0.5v0.2h0.2V29.7z M52.9,29.7h0.2v-0.2L52.9,29.7
	v-0.2h-0.2v0.2H52.9z M52,27h-0.5v0.2h-0.2V27H51v0.2h-0.2v0.2h-0.2v0.2h-0.2V28h0.5v-0.2h0.5v-0.3h0.2l0.2-0.2H52v0.2h0.5v-0.2h0.2
	v0.2H53v-0.7h-0.5v-0.2h0.2v-0.2h-0.2v0.2h-0.2v0.2L52,27z M48.6,27v0.2h0.5V27h-0.2v-0.5h0.2V26h-0.2v0.5h-0.5v0.2h0.2V27z
	 M45.8,20.3H46l0.2-0.2h0.2v-0.2h0.2v-0.2h-0.5v0.2h-0.7L45.3,20h-0.5v0.2h0.7V20h0.2L45.8,20.3z M40,15.3h0.5V15h-0.2v-0.2h0.2V14
	h-0.2L40,14.3C40,14.3,40,15.3,40,15.3z M91.4,65.7h-0.3v0.2h0.2L91.4,65.7z M53.4,45.7l0.2,0.2v-0.2h0.2V46h0.2v0.2h0.5l0.2,0.2
	v0.2h0.2v0.7h-0.2v-0.2h-0.2v0.7h-0.2v0.5h-0.2v0.2h-0.2v-0.5h-0.2v-0.3l0.2-0.2h-0.2v-0.2h0.2v-0.5h-0.5v-0.2h-0.5v-0.2h0.2v-0.2
	h-0.5v0.2H52v0.2h-0.2l0.2-0.2v-0.2h0.2V46h0.5v-0.2H53l0.2-0.2L53.4,45.7z M82.7,51.5h-0.2v0.2h-0.2l0.2-0.2v-0.2h0.2V51.5z
	 M61.3,46.2h0.5l-0.2,0.2h-0.2L61.3,46.2h-0.2V46h0.2V46.2z M64,50.8h0.2V51H64v0.2h-0.5V51h0.2v-0.5H64V50.8z M51.5,46.9h0.2
	l-0.2,0.2v0.2H51v-0.2h0.2v-0.2l0.2-0.2L51.5,46.9z M61.3,50.1h0.2v0.5h0.2v-0.2h0.2l0.2-0.2v0.2h0.2v0.2h-0.2V51h-0.2v0.2h-0.2v0.5
	h1v-0.2h-0.2V51H63v0.2h-0.2v0.2H63v0.2h-0.2V52h-0.2v0.2H63V52h0.2l0.2-0.2v0.5H63v0.2h-0.2v0.2L62.5,53h0.7v0.2L63,53.4h-0.2v0.2
	h-1.2v-0.2h-0.2v0.2h-0.2v-0.5h-0.5V52h-0.2v-0.5h0.2v-1.2h0.5v-0.2h-0.5v-0.2h0.7V50.1z M56.3,49.1h0.2l-0.2,0.2V49.1l-0.2,0v-0.2
	h0.2V49.1z M59.5,48.8h-0.2v0.2H59v0.2h-0.3v0.2h0.2v-0.2h0.2v-0.2h0.2v0.2h0.2v0.2h0.2v0.2h0.2v0.7h0.2v0.2L60.1,51v0.2h0.2v0.2
	h-0.2l-0.2-0.2V51h-0.2v0.7h0.5v0.5h0.2v0.7h-0.7v0.2h-0.2v-0.2h-0.2v-0.2h-0.5v-0.2h-0.5v-0.2H58v0.2h-0.5V52h0.2v-0.7h-0.5V51
	h-0.5v-0.2H57v-0.2h0.5l0.2,0.2H58v-0.2h-0.2v-0.2h0.5v-0.2H58v-0.5h0.2v-0.5h0.2v-0.2h0.2v0.2l0.2-0.2h0.2v-0.2h0.2L59.5,48.8z
	 M62.6,41.1v0.2h-0.3v-0.5h0.2L62.6,41.1z M65.7,40.7h0.2v0.2h0.5v0.2l-0.2,0.2h-0.3v0.2h-0.2l-0.2-0.2h-0.5v-0.2l0.2-0.2v-0.2h0.2
	l0.2-0.2h0.2L65.7,40.7z M185.2,102.3h0.5v0.2h0.5v0.2h0.2v0.2h-0.2v-0.2h-0.5v-0.2H185v-0.2h-0.2l-0.2-0.2h0.7L185.2,102.3z
	 M71.2,40.4h-0.5v-0.2h0.5L71.2,40.4z M61.1,40.2v0.5h-0.5V40h0.2L61.1,40.2z M63.3,40H63v0.5h0.2v0.2H63v-0.2h-0.2v-0.2h-0.2V40
	h0.2v-0.2h0.5L63.3,40z M50.8,39v0.2H51v0.2h-0.2v-0.2h-0.2V39h-0.2v-0.2h0.5V39z M49.1,38.8V39h-0.2v-0.2l-0.2-0.2h0.5L49.1,38.8z
	 M181.8,100.2h-0.2v0.2h-0.2v0.2h-0.2v-0.2h0.2l0.2-0.2l0.2-0.2V100.2z M181.1,99.7h-0.2v-0.2h0.2V99.7z M180.1,99.5h-0.2l-0.2,0.2
	v-0.2h0.2v-0.2h0.2V99.5z M77.7,55.3v0.2h-0.2v0.5l-0.2,0.2h-0.2v-0.5h-0.2v-0.2h0.2l0.2-0.2h-0.2l-0.2-0.2h0.7L77.7,55.3z
	 M150.1,94.9h-0.2v-0.2h0.2V94.9z M50.3,38.3v0.5h-0.2V39h-0.2v-0.2h0.2v-0.2h-0.2V38h0.2L50.3,38.3z M61.1,38.3h0.2v0.5h-0.5v-0.2
	h-0.2v-0.2l0.2-0.2h0.2L61.1,38.3z M58.2,38.1v0.2h-0.5v-0.2H58v-0.2h0.2L58.2,38.1z M76.7,36.9h-0.2v-0.2h0.2V36.9z M49.8,35.7h0.7
	v0.2h-0.2v1h0.2v-0.2H51v-0.2h-0.2v-0.7h1v0.2h-0.3v0.5h-0.2v0.2H51v0.2h0.2v0.2h1v-0.5h0.2v0.5h0.2v0.2h0.5v0.7h0.2v0.2h-0.7v-0.2
	h-0.2v-0.2h-1v-0.2H51v0.2h-0.5v-0.5h-1v-0.3H50v-0.2h-0.2v-0.2h-0.2v-0.5h-0.2v-0.7h0.5L49.8,35.7z M51,34.7h0.2v0.7h-0.5v-0.5H51
	L51,34.7l-0.3,0v-0.2H51L51,34.7z M83.9,28.5h-0.2v-0.2h0.2V28.5z M84.1,27.5v0.2h-0.5V28h-0.2v-0.5l0.2-0.2h0.5V27.5z M34.7,7.3
	h-0.2l0.2-0.2h0.2L34.7,7.3z M81.7,25.6v0.2H82v-0.2l0.2,0.2h0.5L83,26v-0.2l0.2,0.2H83v0.2h0.2v0.2H83v0.2l0.2,0.2H83v0.2h-0.3v0.2
	h0.2v0.2L82.7,28h-0.5v-0.5h-0.5V27h-0.2v-0.5H81v-0.7h0.2v-0.2h0.2v-0.2h0.2L81.7,25.6z M41.2,21.2h0.5v0.2h-0.5V21.2h-0.2V21h0.2
	V21.2z M43.1,19.6h0.2V20h-0.2l0.2,0.2h-0.2v0.2h-0.2v-0.7h0.2l-0.2-0.2h-0.2v0.2h-0.2v-0.2h0.2v-0.2h0.5L43.1,19.6z M43.3,19.1
	v-0.2h0.2L43.3,19.1z M39.7,16.2v0.2h-0.2V16L39.7,16.2z M35.7,9.7h-0.2V9.5h0.2V9.7z M32.3,7.3h-0.2V7.1h0.2V7.3z M33.7,4v0.2H34V5
	h-0.2V4.5h-0.3V4.2h-0.2V3.7h0.2L33.7,4z M34.5,1.1v0.5h-0.2v0.2h-0.5L34,1.6V1.3h0.2V1.1H34v0.2h-0.7v0.2h0.2v0.2h-0.2V2H33v0.7
	L32.8,3v0.2h-0.2v0.2l-0.2,0.2v0.5h0.2v0.2h-0.2v0.7h0.2v0.2h-0.2v0.5h-0.2v0.2h-0.5v0.5h-0.2V6.4h-0.5v0.7h0.5v0.5h0.5v0.2h-0.2
	v0.2h-0.2v0.2h0.5v0.2h-0.2v0.2L31.8,9V8.8h0.2V9h0.2v0.2h-0.2v0.3h0.2v1.4h0.2l0.2-0.2v-0.2H33v-0.2h-0.2V9.7h0.5v1.4H33v1h0.2v0.2
	h0.2v0.2h-0.2v-0.2L33,12.6v-0.2h-0.5v0.5h0.2v0.5H33v0.2h0.2l0.2,0.2v0.2h0.2v0.2h0.7v0.2l0.2,0.2h0.2V15h0.7v0.7l0.2,0.2h0.5v0.7
	l-0.2,0.2h0.2v0.5h-0.2v0.2h0.5v0.2h-0.2v0.2h1v0.2h-1v0.2h0.2v0.2h-0.2v0.7h0.5v0.2h0.5V20h0.2v-0.2h0.2v-0.2H38V20h0.2v-0.5h0.2v1
	h0.2V21h-0.2v0.5h0.7v0.2h0.2V22l0.2-0.2V22H40v0.2h0.2v0.2l0.2,0.2V23h-0.2l0.2,0.2h0.2v0.2H41v0.2h0.2v0.2l0.2,0.2v0.2h0.2v-0.2
	h0.2l-0.2,0.2l-0.2,0.2l0.2,0.2h0.2v0.2l0.2,0.2h0.2v0.5h0.5v0.7l0.2,0.2h0.2V27h0.2v0.2h0.2v0.2h0.2V28h0.2v0.2h0.2l0.2,0.2v0.2
	L45,29h0.7v0.2h-0.3v0.5h0.2l0.2,0.2v0.2h0.2v0.5l0.2,0.2v-1h0.2v0.2h0.2v0.2h0.2v1h-0.2v0.5h0.2v0.2h0.2v0.2h0.5v-0.2h0.5v1h-0.2
	v0.2h-0.2l-0.2,0.2v0.2h0.2l0.2,0.2h0.2v0.2h-0.7v0.2h0.2V35h-0.2v-0.3l-0.2,0.2l0.2,0.2v0.5h0.5l0.2,0.2h0.2v0.2h0.2v0.2h-0.2v0.5
	h0.2v0.7h-0.2v0.7h-0.2v0.2h-0.2v0.2h-0.2V39h-0.2v0.2h-0.2v0.2l-0.2,0.2l0.2,0.2h0.2l0.2-0.2V40h0.2v0.5h0.2V41h-0.2v0.2h-0.7v0.2
	l-0.2-0.2v0.2h-0.7v0.2h-0.2v0.5h0.2v0.2h0.2v1.2h0.2v0.5h0.2v0.2h0.2v0.5h0.2V45h0.2v0.2l0.2,0.2v0.2h0.2V46h0.2v0.2h0.5V47h0.2
	v0.5h0.2v0.2h1v0.2h-0.3v0.2h0.2l0.2-0.2v0.2H51v0.2h0.7l0.2,0.2h0.5v0.2l0.2-0.2v0.5l0.2,0.2h0.7v0.2h0.5v0.2h0.5v0.2h0.2v0.2h0.2
	v0.2h0.2v0.2h0.2V51h0.2v0.5H56l0.2,0.2l0.2,0.2v0.2l0.2,0.2v0.2H57l0.2,0.2h0.2l0.2,0.2h0.5l0.2,0.2h0.7v0.2h0.5l0.2,0.2h0.2v0.2
	h1.2v0.2H62l0.2,0.2h0.5l0.2,0.2h0.7v-0.2h0.7l0.2,0.2h0.5v0.2l0.2,0.2v0.2h0.2v0.2h0.2v0.5h0.5v0.2h0.5l0.2,0.2V57h0.2l0.2,0.2H68
	v0.2h0.2v0.2h0.2l0.2,0.2H69v0.2l0.2,0.2h0.5v0.2h0.7v0.2h0.5l0.2,0.2h0.5v0.2h0.7v0.2h0.5l0.2,0.2h0.5v0.2h0.7l0.2,0.2l0.2,0.2
	v-0.2l0.2,0.2v0.2h0.2l0.2,0.2h0.2v0.2h1.4l0.2,0.2h0.7v0.2l0.2-0.2v0.2h1l0.2,0.2h1v0.2h0.2v0.2H81v0.2l0.2,0.2l0.2,0.2h0.2
	l0.2,0.2h0.7v0.2h0.7V64h0.5v0.2h0.2l0.2,0.2h0.2v0.2h0.2l0.2,0.2h0.2v0.2H87v0.2h1.7v0.2h0.5v0.2l0.2,0.2h0.5v0.2h1v0.2h0.7v0.2
	h0.5v-0.2h1.7v-0.2H94v-0.2l0.2,0.2v-0.2h0.2l0.2-0.2h0.5v-0.2h0.5v-0.2h0.7v-0.2h1V65h0.2v-0.3h0.2v-0.2h0.2v-0.2h0.7V64h1.2v-0.2
	h-1v-0.3l0.2,0.2v-0.5h0.5v-0.5h0.5l0.2,0.2v0.5h0.5v-0.2h0.2V63l0.2,0.2h0.2v0.2h-0.2v0.2h-0.5V64h1.4v-0.5h0.5v0.2h0.5l0.2,0.2
	l0.2-0.2V64h0.2v0.2h0.2l0.2,0.2h0.5l0.2,0.2V65H105l0.2,0.2l0.2,0.2h0.2l0.2,0.2h0.2v0.2h0.2v0.2h0.2l0.2,0.2h0.2l0.2,0.2l0.2,0.2
	l0.2,0.2h0.2v0.2l0.2,0.2h0.2v0.2h0.2v0.2h0.2l0.2,0.2v0.2h0.2v0.2h0.5V69h0.2v0.2l0.2,0.2l0.2,0.2L111,70l0.2,0.2l0.2,0.2v0.2h0.2
	l-0.2-0.2h0.2v0.2l0.5,0.5l0.2,0.2l0.2,0.2h0.2v0.2l0.2,0.2h0.2v0.2h0.2v0.2h0.2v0.2h0.2v0.2l0.5,0.2h0.2v0.2h0.2v0.2h0.2v0.2h0.2
	l0.2,0.2h0.2v0.2h0.5v0.2h0.2V75h0.5v0.2h0.5v0.2h0.5l0.2,0.2h0.5l0.2,0.2h3.6l0.2,0.2h0.2l0.2,0.2h0.5v0.2h0.5l0.2,0.2h0.5v0.2h0.5
	v0.2h0.2l0.2,0.2v0.2h1l0.2,0.2h1.6l0.2,0.2h0.2v0.2h0.5v0.2h0.5v0.2h0.5l0.2,0.2h0.2v0.2h1l0.5,0.2h2.9V80l0.2-0.2l0.2-0.2h0.2
	l0.2-0.2v-0.2h-0.2v-0.5h0.5l-0.2,0.2h0.5l0.2-0.2v-0.2l-0.2,0.2v-0.2h0.2l0.2,0.2v0.2h-0.2v0.2h0.5v-0.2h0.5l-0.2-0.2h0.5v0.2
	l0.2-0.2v0.2h-0.2v0.2h-0.5v0.2h0.2v0.2l0.2,0.2v0.2h0.5v0.2h-0.2l0.2,0.2h0.2v0.2h0.2V81h-0.2v-0.2l-0.2,0.2h-0.2v0.2h-0.2V81h-0.2
	v-0.2l-0.2-0.2h-0.5v0.2h-0.2v0.5l0.2,0.2h0.2l0.2,0.2v-0.2h0.2v0.2h-0.2l0.2,0.2h0.2v0.2h0.2v0.2h0.2v0.2h0.2v0.2h0.2v0.2h0.2v0.2
	h0.5v0.2l0.2,0.2h0.2v0.2h0.2v0.2h0.2l0.2,0.2h0.2l0.2,0.2h0.2v0.5h0.2v0.5h0.2v0.2h0.2v0.2l0.2,0.2v0.2h0.2V87h0.2v0.2h0.2v0.2h0.2
	l0.2,0.2V88h0.2l0.2,0.2h0.2l0.2,0.2h0.2v0.2l0.2,0.2h0.2v0.2h0.2v0.2h0.2l0.2,0.2v0.2h0.2v0.2h0.2v0.2h0.2v0.2h0.2v0.2h0.5v0.2
	h-0.5l0.2,0.2v0.2h-1v0.2h0.2v0.2h0.2v0.2h0.7v0.5l0.2,0.2h-0.2v0.2h0.2v0.2H148v0.2h-0.2v0.7h-0.2v1.2h0.2v0.5h0.2v0.2h0.2v0.2h0.2
	v0.5h0.7v0.2h1v0.2h0.5v0.2l0.2,0.2v0.2l0.2,0.2h0.2v0.2h0.2v-0.5h0.2v-0.5h0.2v0.2h0.2v-0.5h0.2v-0.2h-0.2v-0.5h-0.5v-0.2h-0.7
	v-0.2h-0.2v-0.2h-0.2v-0.2h-0.2l0.2-0.2h0.7l0.2,0.2h0.2v0.2h0.2l0.2,0.2h0.2v0.2h0.7v0.2h0.2v0.5h0.2v0.2l0.2,0.2h-0.2v0.7h0.2v0.2
	h0.2V99h1l0.2,0.2h0.7v0.2h0.2v0.2h0.5v0.3h0.5v0.2h0.5v0.2h0.2v0.2h0.5v0.2h0.2v0.2h0.2v0.2h0.2v0.7l0.2,0.2v0.2h-0.2v0.7H159
	l-0.2,0.2v0.5h0.2l0.2,0.2l0.2,0.2l0.2,0.2h1l0.2,0.2h0.2v-0.7H161v-0.2h-0.5v-0.2h-0.2v-0.5h0.2v-0.2h0.2v0.2h0.2v0.2h0.2l0.2,0.2
	h0.2l0.2,0.2l0,0h0.2l-0.2,0.2l0.2,0.2v0.2h-0.2v0.5h0.2l0.2,0.2l0.2,0.2h0.2l0.2,0.2v1h0.2v-0.2l0.2-0.2h-0.2v-1h0.5l0.2-0.2h0.5
	l0.2,0.2h1v0.5h0.2v-0.7h0.2v0.2h0.5v0.5h0.5v-0.2h0.2v0.2h0.2v-0.2h0.2v0.2h0.5l0.2,0.2h0.5l0.2,0.2v-0.2l0.2,0.2v0.2h-0.2v0.2h0.2
	l0.2,0.2h0.2v0.2h-0.2l0.2,0.2h0.2v0.2h-0.2v0.2h0.2v0.2h0.2v0.2h0.4v0.2l0.2-0.2v0.2h0.8v0.2h0.2v-0.5H172v-0.2h0.2v-0.7H172v-0.2
	l0.2,0.2l0.2,0.2v-0.5h0.2v0.2l0.2-0.2v0.7h-0.2v0.2h0.2v0.5h0.2v0.2h0.2v0.7h0.2v0.5h0.2v0.2h-0.2v0.4h0.2v0.2h1.2V111h1.2v-0.2
	h0.2V110h1.4v-0.2h0.2v-0.2h0.2v-0.2h-0.2v-0.2H178v-0.2h-0.2v-0.2h-0.5v-0.5l-0.2-0.2h-0.2v-0.7h-0.7l-0.2-0.2v-0.2h-0.2l-0.2-0.2
	v-0.2h0.2v-0.5l0.2-0.2v-0.2h0.2V105h0.2v0.2h0.5l0.2,0.2l0.2-0.2h0.2V105h0.2l0.2-0.2h0.2l0.2-0.2v-0.2h0.5V104h0.5v-0.2H179v-0.5
	h0.5v-0.2h-0.2v-0.5h0.2v-0.5h0.2v0.2h0.7v-0.2h0.2v-0.5h0.7v-0.2h0.5v0.2h0.5v-0.2h0.2v-0.2h0.2l0.2,0.2v0.2h0.2l0.2,0.2l0.2,0.2
	h0.2l0.2,0.2h0.2l0.2,0.2v0.2h0.2v0.2h0.2v-0.2h0.2v0.2h0.2v0.2h0.2v1h0.2l-0.2,0.2h0.2l0.2,0.2v0.5h0.2v-0.5l-0.2-0.2v-0.5h0.2v0.2
	h0.5v-0.2h0.5v0.5h0.2v-0.7l0.2,0.2v0.2h0.2v0.2l0.2,0.2l-0.2,0.2l0.2,0.2v0.5h1v0.2h-0.2v0.2H189V106h-0.5l-0.2-0.2v-0.2H188v-0.2
	h-0.2v0.5h-0.7v0.2h0.2v0.2h0.2l-0.2,0.2v0.2h-0.7v-0.2h-0.2v0.2l0.2,0.2v0.5h1.4l0.2,0.2l0.2-0.2h0.7l0.2-0.2l0.2-0.2l0.2-0.2h0.2
	v-0.2l0.2-0.5v-0.5l-0.2-0.2V105l-0.2-0.2l-0.2-0.2v-0.2l-0.2-0.2h-0.2l-0.2-0.2l-0.5-0.2l-0.2-0.2l-0.2-0.2l-0.2-0.2l-0.2-0.2
	l-0.2-0.2l-0.5-0.2l-0.5-0.2l-0.2-0.2l-0.2-0.2h-0.5l-0.5-0.2l-0.2-0.2h-0.5l-0.2-0.2l-0.5-0.2l-0.2-0.2L183,100l-0.2-0.2l-0.2-0.2
	v-0.7h-0.2L182,99v-0.2h-1.2v-0.2h-0.2v0.2l-0.2-0.2v-0.3l-0.2,0.2h-0.5V99h-0.2v0.2h-0.2v0.2h-0.2v0.2h-1v0.3l-0.2,0.2v0.2h-0.2
	l-0.2,0.2h-0.5v0.2h-1v0.2H175v0.2h-0.5v0.2h-0.2l-0.2,0.2v0.2h-0.2v0.2h-0.5l-0.2,0.2h-0.5l-0.2,0.2H170v-0.2h-0.2v-0.2l-0.2-0.2
	l-0.2-0.2l-0.2-0.2v-0.2h-0.5V101h-0.2v-0.2H168v0.2h-0.2l0.2,0.2h0.2v0.2l0.2,0.2h0.2v0.5h-0.2v-0.2H168v0.2h-0.2l-0.2-0.2v0.2
	h-0.5v-0.2h-0.7v-0.5l-0.2-0.2V101h0.5v-0.2h-0.2l-0.2,0.2v-0.2h-0.5v-0.2h-0.2v-0.2h0.2V100h-0.2l0.2-0.2v-0.3h-0.5v-0.2H165V99
	h-0.2v-0.2h-0.5v-0.2l-0.2-0.2l-0.2,0.2v-0.2h-0.5v-0.5h-0.5v-0.2l-0.2-0.2l-0.2-0.2v-0.2h-0.2v-0.2l-0.2-0.2v0.2h-0.2v-0.2
	l-0.2-0.2l-0.2-0.2h-0.2v-0.5h-0.2l-0.2-0.2v-0.2h-0.2v-0.2l-0.2-0.2v-0.2h-0.2V94l-0.2-0.2l-0.2-0.2h0.2l-0.2-0.2v-0.5H159v-0.5
	l-0.2-0.2v-0.2h-0.2v-0.2H158v-0.2l-0.2-0.2v-0.2l-0.2-0.2v-0.5h-0.2v-1l0.2-0.2l0.2-0.2v-0.5h0.7V88h-0.2v-0.7L158,87v-0.5h-0.2
	v-0.5h0.2v-1.5h0.2v-0.5h0.2v-0.2h0.5v-0.5h-0.2v-0.5l-0.2-0.2V82l0.2-0.5V81h-0.2v-0.7l-0.2-0.2v-2.4l0.2-0.2V76h0.2v-0.5h0.2v-0.2
	h0.2v-0.5h0.2v-0.5h0.2v-1.2h-0.2v-0.2l-0.2-0.2v-0.7l-0.2-0.5l0.2-0.2v-0.7h0.5v-0.2h-0.2l-0.2-0.2H159v-0.2h-0.2v-0.5l-0.2-0.2
	v-0.2h-0.7l-0.5-0.2l-0.5-0.2v-0.2h-0.7l-0.2-0.2l-0.2-0.2h-0.2v-0.2h-0.2v-0.2h-0.2l-0.2-0.2v-0.2h-0.2l-0.2-0.2H154v-0.2h-0.2
	v-0.2h-1.5v-0.2h-1v-0.2h-0.5l-0.2-0.2h-0.5v-0.2h-0.5v0.2h-0.2l-0.2,0.2h-0.2v0.2H147v-0.2h-0.2v-0.2H146v-0.2h-0.7v0.5h-1
	l-0.2,0.2h-0.2l-0.2,0.2h-0.2v0.2h-0.7v-0.2h-0.5v0.2h-1.7v0.2h-0.2v-0.2H139l-0.7-0.2h-0.5v0.2h-0.5l-0.2-0.2l-0.2-0.2v-0.2h-0.2
	v0.2l-0.2-0.2h-0.2v0.2l-0.2-0.2h-0.2v0.2H135v0.2h0.2l-0.2,0.2h-0.2v0.2h-0.2v0.2H134l-0.2-0.2h-0.2v-0.2h-0.2l-0.2-0.2h-0.2
	l-0.2-0.2l-0.2-0.2h-0.2v0.2h0.2v0.2h-0.2v0.5h-0.2v0.2h-0.2v-0.5h-0.2v-0.2h-0.5v-0.2h-0.5l-0.2-0.2v-0.5h0.2l0.2-0.2v-0.2h0.2
	v-0.2h0.2v-0.5h0.5v-0.2h0.5v-0.2h0.2v-0.5h0.2v-0.5h0.2v-0.5l0.2-0.2v-0.7h0.2v-0.7h0.2v-0.2l-0.2-0.2v-0.2h-0.2v-2.2h0.5V57h-0.2
	v-0.2h-0.5v-0.5h0.2v-0.2l0.2-0.2v-1.2h0.2v-0.7h0.2v-1h-0.2v-0.5h-0.2v0.2h-0.2v-0.2h-0.2v0.2h-0.7v-0.2h0.2v-0.2h0.2v-0.5h0.2
	v-0.5h0.2v-0.5h0.2v-0.4h0.2v-0.5h0.2v0.5h0.2V51l-0.2,0.2v0.2l-0.2,0.2h0.2V52h0.5v0.5h0.2l0.2,0.2v0.5h0.2v-0.5h0.2v-1h0.2v-1.2
	h0.2v-1.2h0.3v-1l0.2-0.2v-0.7H136v0.5h-0.2v0.2h-0.2v-1h0.2v-0.2h0.2v0.2h0.2v-0.2l0.2-0.2v-0.2l0.2-0.2V46h-0.5v0.2h-0.5l-0.2,0.2
	v-0.2H135v-0.5h0.2V46l0.2-0.2v-0.5h0.2V45h0.3l0.2-0.2h0.2v-0.5h-0.2v-1.4l0.2-0.2v-0.2h0.2v-0.5h0.2v-0.5h0.2v-0.2h0.2v-0.2h0.2
	v-0.2h0.2v-0.2h0.2v-0.2h0.2V40l0.2-0.2v-0.3h0.2v-1h0.2v-0.7h-0.2v-1.4h-0.5v-0.2h-0.2l-0.2-0.2v-0.2h-0.5v-0.2h-0.2v0.2H137
	l-0.2,0.2h-0.5v-0.2H136v0.2h-0.2v0.2h-1l-0.2-0.2h-0.7v-0.2h-0.7l-0.2-0.2v0.2h-0.2l-0.2-0.2h-0.5v0.2h-0.2v0.2h-0.2l-0.2-0.2h-0.5
	l-0.2,0.2H130l-0.2,0.2h-0.2v0.2H129v0.2h-1l-0.2,0.2h-1.4l-0.5,0.2h-1.4v0.2h-0.7v0.2h-0.2l-0.2,0.2h-0.5l-0.2,0.2h-0.2v0.2H122
	l-0.2,0.2l-0.2,0.2V39l-0.2,0.5V40l-0.2,0.2h0.2v0.5L121,41v1h0.2l-0.2,0.2v0.5l0.2,0.2H121v0.2l0.2,0.2l-0.2,0.2h0.2v0.7l-0.2,0.2
	v0.2h-0.2V45h-0.2l-0.2,0.2v1.7l-0.2,0.2v0.5h-0.2v0.2h-0.2l-0.2,0.2l-0.2,0.2l-0.2,0.2l-0.2,0.2h-0.2v0.2H118v0.2h-0.5v0.2H117v0.2
	h-0.2V50l-0.2,0.2l0.2,0.2v-0.2h0.2v-0.2l0.2,0.2h0.5v0.2h0.3v0.2h-0.2v0.5h-0.2v0.2h-0.2l-0.2,0.2h-0.5v0.5h-0.5l-0.2-0.2h-0.7
	v-0.2h-0.5V51l-0.2-0.2h-1.9L112,51h-0.5l-0.2,0.2h-0.7v0.5h-0.2l-0.2,0.2h-0.5v0.2h-1.7l-0.7-0.2l-0.5,0.2h-0.5l-0.5,0.2l-0.2,0.2
	H105v0.2h-0.7v0.2h-0.5l-0.2,0.2h-0.7l-0.2,0.2h-1l-0.2-0.2h-0.2v-0.5h-0.2v-0.2h-0.2v-0.2h-0.2v-0.2l-0.2-0.2v-0.2l-0.2-0.2h-1
	v-0.2h-0.2V51h-0.2v-0.2h-2.1l-0.2-0.2h-0.5v-0.2h-0.5v-0.2h-0.5l-0.2-0.2v-0.5h-0.2v-0.5h-0.5v-0.5h-0.2v-0.2h-0.2v-0.2L93,47.7
	h-0.2l-0.2-0.2v-1h-0.2V46h-0.2v-1l-0.2-0.2v-0.2h-0.2l-0.2-0.2v-0.5h-0.2v-0.2l-0.2-0.2h-0.2v-0.2l-0.2-0.2l-0.2-0.2l-0.2-0.2
	l-0.2-0.2l-0.2-0.2v-0.2l-0.2-0.2h-0.2l-0.2-0.2v-0.2l-0.2-0.2h-0.2v-0.5H88v-0.7h-0.2v-0.2L87.5,39v-0.2l-0.2-0.2V38H87v-0.5h-0.2
	v-0.2l0.2-0.2v-0.5h0.2v-1.2H87l-0.2-0.2h-0.2v-0.2h-0.2v-0.2h-0.2v-0.2h-0.2V34h-0.2l-0.2-0.5v-0.2L85.1,33v-0.2l-0.2-0.5l0.2-0.2
	l-0.2-0.2v-0.5l-0.2-0.5v-0.7l0.2-0.2v-0.7h0.2v-6.2h-0.2v0.5h-1.2l-0.2-0.2h-0.2l-0.2-0.2v0.2h-0.2v0.5h-0.5v0.2L82,23.7l-0.2-0.2
	v0.2h-0.3v-0.2H81v0.2h-0.5v-0.5h-0.2v-0.2h0.5v-0.2h-0.2l0.2-0.2H81v0.2h0.2l0.2,0.2H82v-0.2h0.2v-0.5h0.5l-0.2-0.5l-0.2-0.2
	L82,21.2L81.7,21l-0.2-0.2h-0.2v-0.2H81v0.7h-0.2V21h-0.2v0.7h-0.2v-0.2h-0.2V21h0.2v-0.2h-0.5v-0.2h-0.2v0.7h-0.5v0.2h0.2v0.7h-0.5
	v0.5h-0.2v0.2h-0.2v0.2h-0.5v-0.2h-0.2l-0.2,0.2v0.2l0.2,0.2h0.2v1.5h0.7v0.5h-0.2v0.2h-0.5v0.2h0.2v2.2h-0.2v0.5h-0.5v-0.2h-0.2V28
	l0.2-0.2v-0.3h-0.2v0.2h-0.2v0.5h-0.2v1.2l0.2,0.2v0.5h0.2v-0.2h0.2v1.9h0.2l-0.2,0.2h0.2v0.7h-0.2v0.5l-0.2,0.2v0.2h-0.2V34h0.2
	v0.5h0.2v0.2h-1.2v0.5h1v0.2H77v0.7h-0.3v-0.2h-0.2v0.5H76v-0.5h0.5v-0.5h-0.2v0.2H76v0.2h-0.7v0.2H75l-0.2,0.2h-0.5v0.7h-0.2v0.2
	h0.2v0.2h0.2v-0.5h0.2v-0.2l-0.2-0.2h0.2v-0.2h0.5v-0.2h0.5v1.2h0.5v-0.2H76l0.2-0.2v0.2h0.2v0.7H77l0.2,0.2v-0.2h0.2v-1.5h-0.2
	l0.2-0.2h0.2v-0.2h0.2v-0.5h0.5v0.2h0.2v0.2h-0.2v0.2h0.2v0.2h0.2v0.7h-0.2v0.7h0.5l-0.2,0.2h-0.2v0.7h0.2v-0.2h0.5v0.2h-0.3V39h0.5
	v0.5h0.5V40h0.2v0.2h0.5v0.2H81v0.2h0.5v-0.2h0.2v0.2H82V41h0.2v0.2H82v0.2l0.2,0.2v0.2h0.2v0.2h0.2v0.2H83v0.2h0.2v0.2l0.2,0.2h0.2
	l0.2,0.2v0.2h0.2v-0.2h0.2v0.2l0.2,0.2v0.2h1v0.2h1l0.2,0.2v-0.3l-0.2-0.2v-0.2H87v0.2h0.2v0.2H87v0.2h0.2v0.2h0.5v0.5H88v0.2h0.2
	v0.2l0.2,0.2h0.2v-0.2h0.7V46H89v0.5h-0.3V47h-0.2v0.5h0.2v1.4h-0.2v0.7h-0.2v0.2h0.2v0.2h0.2v0.2h0.2v1l0.2,0.2h0.2V53h-0.5
	l0.2,0.2v0.5h0.2v0.5h0.7v0.5h-0.2v0.2h0.5v-0.2h0.2v0.2h-0.2v0.7h0.2v0.2h0.2v0.2h0.5l0.2,0.2h0.2v0.2h0.2v0.2h0.2V57H93v0.2h0.2
	l0.2,0.2v0.2h0.2v1.2h0.5v0.7h0.2v0.2l0.2-0.2h0.2v0.2h0.2v-0.7h0.2v-0.2h0.2v-0.2h-0.2v0.2h-0.5v-0.2h0.2v-0.5l0.2-0.2h0.2l0.2,0.2
	v0.2h0.5v0.2h-0.2v0.5h-0.2v0.7h0.2v-0.5h0.2v-0.2h0.2v-0.2h0.2v-0.2h0.2v0.5h0.7v0.2h-0.2v0.2h0.2v0.5h-0.2v-0.2h-0.2v0.2h-0.2v0.2
	h0.2v0.2h-0.2v0.2h0.2v0.2h-0.2v-0.2l-0.2-0.2v0.7h0.2v0.2h-0.2v-0.2h-0.2v-0.2h-0.2v0.2l-0.2-0.2h-0.5v-0.5h-0.2v0.2h-0.2v-0.2
	h-0.2v-0.2l-0.2,0.2l-0.2,0.2v0.2h-0.2v0.2H94l-0.2-0.2v-0.5h-0.3v0.2h-0.2v0.5H93v-0.5h-0.7v0.5h0.2v0.5h-0.2v-0.2h-0.2v0.5h0.2
	l-0.2,0.2l0.2,0.2h-1v-0.2h0.2v-0.2h0.2v-0.2h-0.2v0.2h-0.7v-0.2h-0.2v-0.2h0.2v-0.2h0.2v-1h-0.2l-0.2,0.2v-0.2l0.2-0.2v-0.7h0.2
	v0.2h0.2v0.5h-0.2l0.2,0.2v-0.2h0.5v0.2h0.7v-0.2h0.2v-0.2h-0.5v-0.2h-0.2l-0.2-0.2h-0.5v-0.5h-0.7v-0.5h-0.2v-0.2h-0.5v0.5h0.2v0.5
	h0.2v0.2h-0.2v0.2l0.2,0.2v1h-0.2v0.2h0.2v0.2h-0.2v0.7h0.2v0.7h0.2l0.2,0.2l0.2,0.2h0.5v0.2h0.2l0.2-0.2h0.5V63h0.2v-0.2H93v-0.2
	h0.2v-0.2h0.5v-0.2H93l-0.2-0.2H93l0.2-0.2v0.2h0.5l0.2-0.2v0.2h0.2v0.2H94v0.2h-0.2l0.2,0.2h0.2v-0.2h0.5v-0.5H95v-0.7h0.5v0.2h0.2
	v0.2h0.5v0.5h0.2v0.2h-0.2v0.2h-0.3v0.2h-0.2v-0.2h-0.2v-0.2h-0.2v0.2h-0.2v-0.2h-0.2v0.2h-0.2v0.7h1v0.5H95V64h1v-0.2h0.2v-0.5h0.5
	V63h0.2v0.2h0.2v0.2h-0.5V64h-0.5v0.5h-0.5v0.2H95L94.8,65H94v0.2h-0.5L93.3,65h-0.5v0.2H93v0.2h-0.2l-0.2-0.2v0.2h-0.2l-0.2-0.2
	h-1.2v0.2h-0.2V65h0.5v-0.5l-0.2,0.2h-0.5V65h-0.2v0.2h-0.2v-0.5h-1v0.2h-0.2v-0.5l-0.2-0.2H87V64h-0.2v-0.2H87l0.2-0.2H87v-0.2
	h-0.5v-0.5H87l0.2-0.2L87,62.3v-0.2h0.2v-0.5H87v0.5h-0.2v0.2h-0.2l-0.2,0.2v0.2L86,63v0.2h-0.2V63h-0.2v-0.2h-0.2v-0.5h-0.2
	l-0.2-0.2h-0.7v-0.2h0.2v-0.2h0.2v-0.2h-0.2v-0.2h0.5v-0.2h-0.2v-0.5l0.2-0.2h-0.2v-0.2h-0.5v0.5h-0.2v0.5h-0.5v-0.2h-1.7v-0.2h0.5
	v-0.2H82v-0.2l-0.2,0.2v0.2h-0.3v0.2h-0.7v-0.5h-0.5v0.5h-1.2v-0.2h-0.2v-0.5l0.2,0.2h0.2v-0.2h-0.2v-0.2h-0.5v-0.2h-0.2v-0.2h-0.5
	v-0.2h0.5v-0.7h0.5v-0.5h-0.2v-0.5h-0.5V57h-0.7v-0.5l0.2-0.2V56h0.2v-0.7h0.2V56h0.2v-0.7h0.2v0.5h0.2v-0.5h0.5v0.2h-0.2V56h0.2
	v-0.2h0.2v-0.2h0.5v-0.2h-0.2v-0.5h-0.2v-0.5h0.5v-0.2h-0.2l-0.2-0.2v-0.2h-0.2v0.2h-0.2v-0.2h0.2l-0.2-0.2v-0.2h0.2v0.2h0.2v0.2
	h0.5v-0.2h0.5v0.2h0.2v-0.2h0.5v0.2h0.2v-0.5h0.2v0.5H82l-0.2,0.2v0.2h-0.3v0.2h0.2v-0.2H82v0.2h-0.2v0.5h-0.5v0.2H81v-0.2h0.2v-0.2
	h-0.5v-0.2H81v-0.5h-0.2v0.2h-0.2v0.2h-0.2v0.2h-0.2v0.2h0.7v0.5H81l-0.2,0.2l0.2,0.2h0.2l0.2,0.2v0.2H81v0.5h-0.2V57H81v0.5h0.5
	v0.2l0.2,0.2H82v-0.2h-0.2v-0.5H82L81.7,57v-1.2l-0.2-0.2h0.2v-0.2h0.5v-0.2h0.2v-0.2h-0.2v-0.2h0.5v0.2h0.7v0.5h-0.2v0.7h0.5v-0.5
	h0.2v-0.2h0.2v-0.2l0.2-0.2l0.2,0.2h0.5v-0.2h-0.5v-0.2h0.2l-0.2-0.2v-0.5h0.5v0.5h0.5v-0.5h0.2v-0.2h-0.2v-0.2h-0.2v-0.5l-0.2-0.2
	v-0.2h-0.5V52l-0.2,0.2v0.5h-0.5V53l-0.2-0.2V53h-0.2v-0.7h0.2v-0.5h0.7l0.2-0.2h0.2v-0.7h-0.2v-0.7h-0.2v0.2l0.2,0.2h-0.2v-0.3
	h-0.5v0.2h-0.2v-0.2h-0.7v0.2h-0.2v0.2h-0.5v-0.2h0.2v-0.2h-0.2v-0.7H82v0.2l-0.2,0.2h-0.3v0.2h-0.2v-0.2h-1v-0.5h-0.5v-0.2
	l-0.2-0.2v0.2h-1v-0.2h-0.2v0.2h-0.4v0.2h-0.5v0.2h-0.5v0.5h-1.4v0.2h0.2v0.2h0.5V51h0.2v0.5h0.5V52h0.2v-0.5h0.5v0.2h0.7V52h-0.5
	v0.2h0.2v0.5h-0.5l-0.2-0.2h-0.5v-0.2h-0.2V52h-0.2v-0.2H76v0.5h-0.7v0.2h-1V52l0.2-0.2h0.2V52H75v-0.7h-0.2V51h-0.2v-0.5h-0.2v0.7
	h-0.2v0.2h-0.2V51h-0.2v0.5h-0.2v0.2h-0.2v-0.2h-0.2v-0.2h0.2V51h0.2v-0.2h-0.7V51l-0.2,0.2h-0.2v-0.5h0.5v-0.5h0.2v0.2h0.7v-0.2
	h0.2v-0.5h-0.5v0.2h-0.2v-0.2h0.2v-0.2l-0.2-0.2h-0.2v-0.5h-0.2v-0.2h-0.2v-0.2h-0.2v0.2h-0.2v-0.7h0.2v-0.2h-0.2v-0.5h0.2v-0.5
	h-0.5v0.2l-0.2,0.2v-0.2h-0.2v0.7h-0.5v0.7h-0.2v-0.7l-0.2-0.2v0.5H70v-1.2h-0.2v0.5h-0.3v0.2h0.2v0.7H70v0.5h-0.7v0.2H69v-0.7h-0.2
	v0.2h-0.2v0.2h0.2v0.2H68v-0.5h0.2v-0.2h-0.7v0.2h-1v0.2h-0.2v0.2h0.2v0.2h0.2v0.2H67v0.2l0.2,0.2h-0.5v0.2l0.2,0.2h0.2v0.2h0.2
	v-0.2h0.2v0.2H68v0.2h-0.7V51h0.2v0.2h-0.7V51H67v-0.2h-0.2v-0.2h-0.2v-0.2h-0.2v0.2h-0.2v-0.2h-0.5v-0.2h0.5v-0.5h-0.2v-0.2h-0.2
	v-0.2h-0.2v0.2h-0.2v-0.5h-0.5v-0.2h0.2v-0.2h0.2v-0.7h-0.2v-0.2h-0.5v0.5h0.2l-0.2,0.2v0.2h-0.2v-0.2h-0.5l-0.2-0.2v0.2h-0.2v0.2
	h-1.2v-0.2h-0.2l0.2-0.2v-0.2h-0.2v-0.2h-0.2v-0.2l0.2-0.2h-0.2v-0.2h0.5v-0.2h0.2v-0.2h-0.2V46h-0.5v-0.2h-0.5V46h-1v-0.2h-0.5v0.7
	l-0.2,0.2V47h-0.2v0.2h-0.2v0.5h0.2v0.2h-0.2v0.2h0.2v0.2h-0.2v0.2H58v0.2h-0.2v0.5h-0.3v-0.7l0.2-0.2h-0.5v-0.2h0.2V47h-0.2v-0.3
	h0.2v-0.2h0.2v0.2H58v-0.2h0.5v-0.2h0.2V46h-0.2v-0.2l0.2-0.2H59v0.2h0.2v-0.3h0.2l0.2-0.2V45h-0.2v0.2H59V45h-0.7v0.2H58V45
	l-0.2,0.2v0.2h-0.3l-0.2,0.2H57l0.2-0.2V45H57v-1h0.5v-0.2h0.2v-0.2l0.2,0.2h0.5v-0.2h-0.2v-0.2h0.7v0.5h0.5V44h0.7v-0.2h-0.2v-0.2
	h0.5v0.7h-0.2v0.2h0.2v-0.2h0.7v0.5h-0.5V45h0.2l0.2,0.2h0.2v0.2l0.2-0.2V45h-0.2v-0.5h1.2v-0.2H63V45h0.2v-0.2H64l-0.2-0.2v-0.2
	h0.5v-0.5h-0.7v-0.2h0.2v-0.2h0.5v-0.2h0.2v1.2h-0.2v0.2h0.2v-0.2h0.2v-0.2h0.2v-0.2h0.2v0.2l0.2-0.2v0.2h1v-0.2h0.2l0.2-0.2h0.7
	v-0.2h0.2l0.2,0.2v0.2h-0.5v0.5h-0.2v0.2h0.5l0.2,0.2h-0.2v0.5h0.2v0.2h-0.5v0.2h1v-0.2h0.2v-0.2h0.5V45h0.2v0.2H70V45h0.2v-0.5h0.2
	v-0.2h0.2v-0.2H71v-0.2h0.2l0.2,0.2v0.5h0.2v0.2h0.2v0.5h0.2V45h0.2l0.2-0.2v-0.5h-0.5v-0.7h-0.3v-1.7h0.2v-0.2l0.2-0.2v-0.2
	l0.2-0.2v-0.2h-0.2v-0.2l-0.2-0.2h-0.2L71.7,40h-0.5l-0.2-0.2h-0.2V40h-1.2v0.5h-0.2v-0.2H69V40h-0.2v-0.2h-0.2V40h-0.2v-1h-0.2
	v-0.2h-0.5l-0.2-0.2v-0.2l-0.2-0.2h-1l-0.2-0.2h-2.4L63,37.6l-0.2-0.2v-0.2h-0.5v0.2h-0.2v-0.2h-0.5v-0.2h-0.2l-0.2,0.2h-0.2v-0.5
	h-0.5v0.2h-0.2v0.2h-0.2v0.7l-0.2,0.2v0.5h0.2V39h0.5l0.2,0.2v0.2h0.2v-0.2h0.2v0.2l0.2,0.2h0.2V40h0.2v0.2l-0.2,0.2V40h-0.5
	l-0.2-0.2h-0.7v-0.3h-0.5v0.2h-0.7V40H58v-0.2h0.2v-0.5H58V39l-0.2-0.2H58v-0.2h0.2l0.2,0.2v-0.2h0.7v-0.2L59,38.1v-0.7h0.2v-0.2
	h0.2v-0.5l-0.2-0.2v0.2H59v-0.2h-0.3v0.2h-0.2v0.2h-0.2v0.2H58v0.2h-0.2l-0.2,0.2v0.2H57v0.5h-0.2v0.5h-0.5V39h-0.5v-0.2h-0.5V39
	h-0.2v0.2h0.2v0.2h0.7v0.7h0.2V40h0.2v-0.2h-0.2v-0.3h0.2v-0.2h0.2V39H57v-0.5h0.5V39h0.2v1h-0.5l0.2-0.2v-0.3h-0.2v0.2h-0.5V40H57
	v0.2h0.2V41L57,41.2v0.2h-0.2v-0.2h-0.2V41h-0.2v0.2h-0.2v0.2l-0.2,0.2v-0.2h-0.2v-0.2h-0.2V41h0.5l0.2-0.2v-0.2h-0.7v-0.2h-0.2
	L54.9,40h-0.2v0.5h0.2v0.2h0.2L54.9,41h-0.2v-0.3h-0.7v0.2h-0.2v-0.2h-0.2v0.5h0.2l0.2,0.2v0.2h1v0.5h0.5v0.2h0.2l0.2,0.2h0.2v0.2
	h0.2v0.2h0.2v0.7h-0.3v0.2h-0.2v0.2h0.2V45h0.2v-0.2h0.2V45h-0.2v0.7l0.2,0.2H57v0.2h-0.2v0.2H57v0.5h-0.5v0.2h-0.7v-0.2h-0.2V46H56
	l-0.2-0.2v-0.3h-0.2v-0.2h0.2v-0.5h-0.2V45h-0.5v-0.7h-0.2v-0.2h-0.5v-0.2h0.2v-0.7h0.5v-0.2h-0.7v-0.2h-0.2v0.2h-0.5l-0.2,0.2v-0.2
	h-0.5v0.2h-0.2v0.2h0.2v0.5h-0.5l0.2,0.2h-0.2v0.5h0.2l0.2,0.2h-0.7v0.5h0.2v0.5h-0.7v0.5h-1V46H51v-0.2h0.2v-0.5H51v-0.5l0.2-0.2
	h-0.5v0.7h-0.2v0.2l-0.2,0.2V46H50v-0.5h-0.2v-0.2l-0.2,0.2v-0.7h-0.5v-0.2h0.2v-0.5l0.2-0.2v-0.5h-0.2v0.5h-0.2v-0.2l0.2-0.2h-0.2
	v0.2h-0.2v-0.2h-0.5v-0.2h-0.2l-0.2-0.2v-0.5h-0.5v-0.5h-0.2v-0.2h1l0.2-0.2v-0.2h0.2v-0.2h0.2v0.2h0.2v-0.2h0.2v-0.2h0.2v-0.5h-0.2
	V40h0.2v-0.2h0.2v-0.3h0.7v0.2H51l0.2-0.2v0.2h0.5v0.5l0.2,0.2l0.2-0.2H52v-0.5l0.2-0.2v0.2h0.2v0.7h0.7v0.2h0.2v-0.5h-0.2V40H53
	v-0.2h0.5V40h1v-0.2h0.2v-1h-0.5v0.5h0.2v0.2h-0.5v0.2h-0.2v-0.2h-1v-0.2h-0.2V39h-0.2v-0.2H52V39h-0.5l0.2-0.2h-0.5v-0.2h1v0.2h1.2
	v-0.2h0.2l0.2,0.2h0.2v-0.2l0.2-0.2h0.5v0.5h0.5v-0.2h0.2v-0.2h0.2v-0.5h-0.2l-0.2,0.2h-0.5v-0.2h-0.2v-0.2h0.2v-0.2h0.2v-0.2h0.2
	v-0.2h0.2v-0.5h0.2v-0.7h0.2V34h-0.2v-0.2h0.2v-0.3h0.2v-0.2h0.2V33h0.2v-0.2H57v-0.2h-0.2v0.2h-0.2v-0.2h-0.2v-0.7h0.2v-0.7h-0.7v1
	h-0.2l0.2,0.2V33l-0.2,0.2h0.2v0.2h-0.2v1h-0.2v1.2h-0.2v0.7h-0.2v0.2h-0.2v0.7h-0.5v0.2h-0.2v-0.7h0.2v-0.7h-0.5v-0.2h-0.2v0.5
	l0.2,0.2v0.7h-0.2v-0.3h-0.2v-0.2h-0.2v-0.2h-0.2v-0.2h0.2v-0.5h-0.2v0.2h-0.2v-0.5h-0.2L52,35.4v-0.2h0.2v-0.2H52v-0.2h-0.2v-0.2
	H52v-0.2h0.2V34l0.2-0.2v-1h-0.2v-0.2h0.2v-0.2h0.2V32H53v-0.2h-0.3v-0.2l0.2-0.2v-0.2h-0.2v-0.2h0.2v-0.2h-0.2v-0.5h0.2v-0.2h-0.2
	l-0.2,0.2h-0.2v0.2H52v1h-0.2v0.2H52v0.2h-0.2v0.5h-0.5v0.2H52v0.2h-0.5l-0.2,0.2h0.5v1h-0.2v-0.2h-0.2v-0.3H51v-0.2h0.2V33h-0.5
	v0.2h-0.2L50.3,33h0.2v-0.2h-0.5v-0.5h-0.2v-1.2h0.7v-0.5h0.2v-0.2h-0.2v-0.5h0.2v-0.2h-0.5v0.7h-0.2v0.2h-0.2v0.2h-0.2v0.7h-0.2
	v0.2h0.2v0.7h-0.2v-0.7h-0.2v-1.5h-0.2v-0.5l0.2-0.2v-1h0.2v-0.2h-0.2V28h0.2v0.2h0.2V28h0.2v0.2h0.2v-0.5h-1v-0.3h-0.5v0.2h0.2v0.5
	h-0.2V28h-0.2l-0.2,0.2h0.2v0.5h-0.2v-0.5h-0.2v0.2h-0.2l0.2-0.2h-0.2V28h-0.5v-0.2h0.5v-0.3h-0.5v0.2h-0.2v-0.2h0.2v-0.2l-0.2,0.2
	H46v-0.7h-0.2v-0.5H46v-0.2h0.2v-0.2H46v0.2h-0.5v0.2h-0.2v-0.2H45v-0.2h0.2v-0.5l0.2-0.2v-0.2h0.2v-0.2h-0.2v-0.5h0.2v0.2H46
	l0.2-0.2h0.2v-0.5H47v0.2h0.2v-0.5h0.2v-0.5h0.2v-0.2h-0.2v0.2h-0.2v0.2H47v-0.2h-0.3v0.2h-0.5v0.2h-1v0.2h0.5l-0.2,0.2h-0.2v0.2
	h-0.5l-0.2,0.2h-0.2v0.2h-0.2v-0.2h0.2v-0.2h-0.5l0.2-0.2v-0.2h0.2v-0.5l0.2-0.2v0.2h0.2v-0.2h0.7v-0.2h0.2l0.2-0.2h0.2v-0.2h0.2V22
	h0.7v-0.5h-0.2v0.2h-0.2l-0.2-0.2v0.2h-0.2L46,21.5V22h-0.2v0.2h-0.3V22h-0.2v0.2h-0.5v0.5l-0.2-0.2h-0.2v0.2h-0.2v-0.5h-0.2V22h0.2
	v-0.5h-0.2v0.2h-0.2v0.5h-0.5v0.5l-0.2-0.2h-0.2v-0.7h0.2v-0.2h0.2v-0.2h0.5V21h-0.5v-0.2h0.2v-0.2h0.5v-1h0.2V20h0.2v-0.2h0.2V20
	h0.2v-0.5H45v-0.2l0.2,0.2v-0.2h0.5v-0.5H46l-0.2-0.2v0.2h-0.5V19h-0.5v0.2l-0.2,0.2v-0.2h-0.5L43.8,19v0.2h-0.2V19h0.2l0.2-0.2
	h-0.2l0.2-0.2h0.7v-0.2H45v-0.2l0.2-0.2v-0.2L45,17.8v0.2h-0.2v0.2h-0.2v-0.2h-0.2v0.2h-0.2v0.2h-0.2v-0.7l0.2-0.2h-0.5v0.5h-0.2
	v0.2h-0.2V19h-0.7v0.2h-0.2V19h-0.2v-0.2h-0.2v-0.2h-0.2v-0.2h0.2v-0.2h0.2v0.2h0.2v-0.5h-0.2v-0.2l-0.2,0.2h-0.2l0.2-0.2h0.5v-0.2
	h0.2v-0.2l-0.2,0.2v-0.2h0.2v-0.2h0.2v-0.2h-0.2v0.2h-0.2v0.2h-0.5v0.2l-0.2-0.2v0.2h-0.2v-0.2h0.2v-0.2h0.2v-0.2h0.2v-0.2h0.2v-0.2
	h-0.2v0.2h-0.2v0.2h-0.2v0.2h-0.5v-0.2h-0.2v0.5h0.2v0.2h-0.2v0.2l-0.2-0.2H40v-0.5h-0.2v-0.2H40l0.2-0.2H41l0.2-0.2h0.2V16
	l-0.2-0.2V16H41l-0.2-0.2V16h-0.2v-0.2h-0.2v-0.3h-0.5v-0.2h-0.5v0.2H39v-0.2h-0.2V15H39v-0.2h0.5V15h0.2v-0.7h-0.2v0.2H39v0.2h-0.2
	v-0.2h-0.2v-0.2h0.2V14h-0.2v-0.2h-0.2V14h-0.2v-0.2h-0.2v-0.2h-0.2v-0.2h0.2v-0.2h-0.2v-0.5h0.2v-0.2h-0.2v-0.2h-0.2l0.2-0.2
	l0.2-0.2v0.2h0.2v0.5h0.7v0.2H39v0.7h0.2v1h0.2v-0.2H40v-0.2h0.2L40,13.6v-0.2h-0.2v-0.2h0.5v-0.2h0.2v-0.5h-0.2v-0.2l0.2-0.2v-0.2
	l-0.2,0.2v-0.2H40v0.2h-0.2v0.2H40v0.5h-0.2v0.2h-0.3v-0.7h-0.2v0.2H39v-0.2h0.2v-0.5h-0.5v-0.2h-0.5v0.2l-0.2-0.2l0.2-0.2h-0.2
	v-0.5h-1v0.5h0.5v0.2h-0.2v0.2h-0.2l0.2-0.2h-0.2v-0.2h-0.5v0.5h0.2v0.7h-0.7v-0.2h0.5v-0.2h0.2l-0.2-0.2h-0.2v-0.2h-0.2v0.7h-0.2
	v-0.2h-0.2v-0.2l-0.2,0.2v-0.5h0.2v-0.7h0.2v-1l0.2,0.2h0.2V9.5h-0.5V9.2h-0.2V9h0.2v0.2h0.5V8.5h-0.5V8.3h-0.2V8.1h0.5v0.2h0.2V7.8
	h0.2v0.2l0.2-0.2h0.2v0.7h0.5V8.3h0.2l0.2,0.2v0.2h-0.2v0.5h0.2v0.3h0.7V9h-0.2V8.8h1.2V8.5h-0.5V8.3h-0.5V8.1h-0.5V7.8h0.2V7.3
	h-0.2V6.6h0.5V6.4h-0.5v0.2h-0.2v0.2h-0.2v0.2h0.2v0.2h-0.2V7.1h-0.2v-1h-0.2v0.7h-0.7v0.2h-1V6.8h-0.2v0.2h-0.2V6.8h-0.4V6.6h0.2
	V6.4h-0.2V6.1h0.5V5.9h0.2V5.4h-0.2v0.2h-0.2v0.2h-0.2l0.2-0.2V5.4h-0.2V5.2h0.2v0.2h0.2V5.2h0.2V4.9h-0.2V4.7h0.2l0.2,0.2V4.5h0.2
	V4.2h-0.5v0.2h-0.2l-0.2-0.2h0.2V4h0.2V3.2h-0.2v0.2h-0.2v0.2h-0.2V4h-0.5V3.7H34V3.5l-0.2,0.2l-0.2-0.2l0.2-0.2V2.8h0.5V2h0.2v0.2
	h0.2V2h0.7V1.8h0.2V1.6h0.2V1.3h-0.2v0.2l-0.2-0.2V1.1h-0.2v0.2H35V0.6h0.2V0.4h-0.5v0.2h-0.2v0.2h0.2L34.5,1.1z M181.1,99.3h-0.5
	V99l0.2,0.2V99h0.2L181.1,99.3z M91.8,65.7h0.2v0.2h-0.2l-0.2-0.2l0.2-0.2V65.7z M99.5,60.4h-0.2v-0.2h0.2V60.4z M101.7,60.4h-0.7
	v-0.2h0.7V60.4z M98.8,60.1H99v0.2h-0.2v0.2h-0.2v0.2l-0.2,0.2h-0.5v-0.2h-0.2v-0.2l0.2,0.2h0.5v-0.2H98v-0.2h-0.2v-0.2H98v-0.2h0.7
	L98.8,60.1z M76.2,59.1H76v-0.2h0.2L76.2,59.1z M101.9,61.1h0.5v0.7h-0.5v-0.2h-0.7v-0.5h0.2v-0.2h0.5V61.1z M99.7,60.9h0.5v0.2h0.2
	v-0.2h0.2v0.2h-0.2v0.2h-0.2v-0.2H100v0.5h-0.2v-0.5h-0.3v-0.5h0.2V60.9z M89.9,52.9h-0.2v0.2h-0.2v-0.2h0.2v-0.2h0.2V52.9z
	 M77.7,60.4h-0.2v-0.2h0.2V60.4z M66.9,52.5l0.2,0.2h0.2v0.2h0.2v0.2h0.2v-0.2h0.5v-0.5h0.2v0.2h0.2v0.2h-0.2v0.2h0.2v0.2h0.7v0.7
	H69v0.2h0.7l0.2-0.2v-0.5h0.2v0.2h0.2l-0.2,0.2v0.2H70v0.2h0.7v-0.2l0.2,0.2v0.2h0.2v0.2H71v0.5h0.2v-0.2h0.2v-0.2h0.2v0.2l-0.2,0.2
	h0.2v-0.2h0.2v-0.7h0.2v0.5h0.2v-1h0.7v0.2h-0.2v0.2h0.2v0.2l0.2,0.2h-0.3v0.7h-0.2V56h0.5l0.2,0.2v-0.5h0.5v-0.2h0.2v-0.2h0.2v-0.5
	h0.2v0.5H75v0.2h0.2v-0.4H76v0.2h-0.5l0.2,0.2v0.2h-0.2v0.2H76v0.2h0.2l0.2,0.2V57h0.2v0.2H77V57l-0.2-0.2v-0.2h0.5v-0.2h0.2v0.2
	h-0.2v0.7H77V58l0.2-0.2v-0.3h0.2l0.2-0.2v0.2h0.2V58h-0.2v0.5h0.2V58h0.2l0.2,0.2h-0.2v0.2h-0.3V59h-0.2v-0.3h-0.2v0.2h-0.7v-0.5
	h0.2v-0.2h-0.7V58h-0.5v0.7H76V59h-0.2v0.2h-0.3v0.2h-0.7l-0.2-0.2h-0.7v-0.5h0.2v-0.2h-0.2v-0.2h-0.2v0.2h-0.5v-0.2h-0.2V58h-0.2
	v-0.2h-1V58h-0.2v-0.5h-0.2V58h-0.2v0.2h-0.2V58h-0.2v0.2h-0.2V58h0.2v-0.5h-0.2L70,57.7h-0.2v-0.2h-0.2v0.2h-0.2v-1h0.2v-0.2h-0.2
	L69,56.7h-0.2v0.5h-0.2v-1h0.2V56h-0.2v0.2h-0.5V56h0.2v-0.5h0.2v-0.2h0.2L68.5,55v0.2h-0.2v-0.2h-0.2v0.5h-0.2v0.5h-0.5v-0.2h-0.5
	v-0.2h0.2v-0.5h-0.2v-0.2h-0.2v-0.2h0.2v-0.5h-0.2v-0.2h-0.2v-0.2h-0.2v-0.5h0.2v-0.7h0.2v-0.2h0.2V52.5z M76.5,52.5h-0.2v-0.2h0.2
	V52.5z M77.5,59.7v0.2h-0.2v-0.5h0.2V59.7z M58,43.1v0.2h-0.2l-0.2-0.2h0.2v-0.2H58V43.1z M67.8,42.9l-0.2,0.2h-0.2v-0.5h0.2
	L67.8,42.9z M73.4,58.9h-0.3v0.2l-0.2-0.2v-0.2h0.5L73.4,58.9z M57.3,42.6v0.2H57v-0.5h0.2L57.3,42.6z M71.4,42.6v0.5h-0.7v-0.7h0.5
	L71.4,42.6z M64,42.4h-0.2v-0.2H64V42.4z M61.8,41.9h-0.5v-0.2h0.5V41.9z M72.1,58.2h-0.2V58h0.2V58.2z M66.9,41.9h-0.2v-0.2h0.2
	V41.9z M71.2,41.9h-0.5v-0.2h0.5V41.9z M63.5,41.4h-0.2v0.2H63v-0.2l-0.2,0.2h-0.2v-0.2h0.2v-0.2H63v0.2h0.2v-0.2h0.2L63.5,41.4z
	 M96.9,58l-0.2,0.2v-0.5h0.2V58z M95.4,57.8L95.2,58v0.2h-0.2v0.5h-0.2V58l-0.2,0.2V58h0.2v-0.2h0.2v-0.3h0.5V57.8z M64,40v0.2h0.2
	V40h0.2v1.2l-0.2,0.2V41h-0.7v-0.3h0.2V40h-0.2v-0.2H64V40z M34.2,5.4h0.2v0.2h-0.2v0.2h0.2v0.2h-0.2v0.7l0.2,0.2h-0.7v0.2h-0.2V7.1
	h0.2V6.8H34V6.4h-0.2v0.2h-0.3l-0.2-0.2V5.9h0.2v0.2h0.2V5.7h-0.2V5.2h0.7V5.4z M66.6,55.6h-0.2v-0.2h0.2V55.6z M71.6,54.6h-0.5
	v-0.2h0.5V54.6z M63.2,38.7H63v0.5l-0.2,0.2v-0.2h-0.2v0.2h-0.2v-0.2l0.2-0.2h-0.2v-0.2h0.2v-0.2h0.2v0.2H63v-0.2h0.2L63.2,38.7z
	 M59.4,41.4v0.2h-0.7v-0.2h-0.2v-0.2h0.5v0.2h0.2v-0.2h0.2L59.4,41.4z M77.7,53.9h0.2v0.2h-0.2v0.2h-0.2v-0.5l0.2-0.2V53.9z
	 M57.5,41.9H58l0.2,0.2v0.2h-0.7v-0.2H57v-0.2h-0.2v-0.2H57l0.2,0.2v-0.2h0.2L57.5,41.9z M59.7,42.1h-1.2v-0.2h1.2V42.1z M64,53.9
	h-0.2v-0.2H64V53.9z M74.8,53.7v0.2H75v-0.2h0.2v0.5h-0.5v-0.2h-0.2v-0.5h0.2L74.8,53.7z M61.1,42.4h-0.2v-0.2h0.2V42.4z M63.5,43.4
	h-0.2v-0.3h0.2V43.4z M74.3,53h0.2v0.5h-0.2V53h-0.2v-0.3h0.2V53z M82.5,53h0.2l-0.2,0.2h-0.2V53l0.2-0.2V53z M63.7,52.5h-0.2v-0.2
	h0.2L63.7,52.5z M53.7,44.1h0.2v0.2h-0.2v0.2h0.2v0.2h-0.2v-0.2h-0.2l-0.2,0.2v-0.7h0.2v-0.2h0.2V44.1z M66.4,43.6h-0.2v-0.2h0.2
	V43.6z M81.5,52.2v0.2h0.2v0.2H82v0.2h-0.5v-0.5H81v-0.2h0.2V52h0.2L81.5,52.2z M63.5,44.3h-0.2v-0.2h0.2V44.3z M40.9,13.6h0.2v-0.5
	h-0.5v0.2h0.2L40.9,13.6z M40,9.2h0.5V9h-0.2V8.8L40,9V9.2z M31.8,3.5h0.5V3.2h0.2V3h-0.2v0.2h-0.2V3h-0.2L31.8,3.5L31.8,3.5z
	 M35.7,2.8h-0.2V3h1.2l-0.2-0.2h-0.2V2.5h-0.2v0.2H35.7z M142,120.1l0.2-0.2h-0.5v0.2H142z M172.2,109.6H172l0.2,0.2V109.6z
	 M173,109.6v-0.2h-0.2v0.2H173z M172.7,108.4h-0.2l0.2,0.2V108.4z M169.4,108.1v-0.2l-0.2,0.2H169.4z M172.7,107.7h-0.2l0.2,0.2
	V107.7z M167.9,107.2v-0.2h-0.2v0.2H167.9z M166.2,105.5H166l0.2,0.2V105.5z M166.5,105.7v-0.2l-0.2,0.2H166.5z M161.7,104.1
	L161.7,104.1z M158.1,103.3v-0.2h-0.2v0.2H158.1z M167,101.2v-0.2h-0.2v0.2H167z M167.7,100.9h-0.2v0.2L167.7,100.9z M167.2,100.9
	v-0.2l-0.2-0.2v0.5L167.2,100.9z M166.2,100.5v-0.2H166v0.2H166.2z M166.7,100.2h0.2V100h-0.5v0.2L166.7,100.2z M151.1,96.1h0.2
	l-0.2-0.2h-0.2v0.2H151.1z M204.1,90.9l-0.2-0.2v0.2H204.1z M161.4,85.3v-0.2h-0.2v0.2H161.4z M136.2,79.8H136l0.2,0.2L136.2,79.8z
	 M136.9,79.6v-0.2l-0.2,0.2H136.9z M169.5,79.1v-0.2h-0.2v0.2H169.5z M162.1,73.6v-0.2h-0.2v0.2H162.1z M132.1,66.1h-0.2v0.2
	L132.1,66.1z M132.1,65.4L132.1,65.4v-0.2h-0.5l0.2,0.2H132.1z M104.5,64.7h-0.2l0.2,0.2V64.7z M140.2,64.5h0.2v-0.2L140.2,64.5H140
	v0.2L140.2,64.5z M95.4,64.5v-0.2h-0.2v0.2H95.4z M102.8,64.2l-0.2-0.2v0.2H102.8z M103,64h-0.2l0.2,0.2V64z M100.4,63.7h-0.2V64
	L100.4,63.7z M100.6,63.7h-0.2l0.2,0.2V63.7z M87.5,63.5h-0.2l0.2,0.2V63.5z M94.2,63.3H94l0.2,0.2L94.2,63.3z M142,63.3h0.5V63h0.5
	v-0.2h-0.5V63H142L142,63.3l-0.2,0v0.2L142,63.3z M100.2,63.3V63H100v0.2L100.2,63.3z M144.1,62.8v-0.2l-0.2,0.2H144.1z M145.3,62.8
	v-0.2h0.2v-0.2h-0.2v0.2h-0.2v0.2L145.3,62.8z M86.3,62.1h0.2v-0.5h0.2v-0.7l0.2-0.2v-0.2l0.2-0.2v-0.2H87v0.2h-0.2v0.5l-0.2,0.2
	v0.5h-0.2v0.2h-0.2v0.5L86.3,62.1z M92.1,61.6L92.1,61.6l-0.2-0.2v0.2H92.1z M93.5,60.6L93.5,60.6v-0.7h-0.2v0.7L93.5,60.6z
	 M97.1,60.1L97.1,60.1v-0.2h-0.2v0.2L97.1,60.1z M96.7,59.6v-0.2h-0.2v0.2H96.7z M87.3,59.4L87.3,59.4v-0.7H87v0.2l0.2,0.2H87v0.2
	L87.3,59.4z M95.9,59.1L95.9,59.1l0.2-0.2h-0.3l-0.2,0.2H95.9z M135.3,58.7H135v0.2L135.3,58.7z M87,58.7L87,58.7v-0.2l-0.2,0.2H87z
	 M135.5,58.5v-0.2l-0.2,0.2H135.5z M89.6,58.2h0.2V58h-0.5v0.2L89.6,58.2z M135,58v-0.5h0.2l0.2-0.2V57l-0.2,0.2H135v0.2h-0.2v0.7
	L135,58z M135.5,58.2V58l-0.2-0.2v0.5L135.5,58.2z M75.7,58L75.7,58v-0.2h-0.2V58H75.7z M90.4,57.5h-0.2v0.2L90.4,57.5z M70.9,57.5
	h0.2v-0.2h-0.2l-0.2,0.2H70.9z M71.9,57.5V57h-0.2v0.5L71.9,57.5z M89.5,57.5v-0.2h-0.2v0.2H89.5z M137.2,57.3H137l0.2,0.2V57.3z
	 M72.4,57.3v-0.5h-0.2v0.5H72.4z M89.2,57.3L89.2,57.3V57H89v0.2L89.2,57.3z M67.1,57L67.1,57l-0.2-0.2V57H67.1z M135.5,57L135.5,57
	v-0.2h-0.2V57H135.5z M73.6,56.8v-0.2h-0.2v0.2H73.6z M78.6,56.5V56h-0.2v0.5H78.6z M87.7,56.3v-0.5l-0.2-0.2v0.2h-0.2V56l0.2,0.2
	v0.2L87.7,56.3z M74.3,56.3v-0.5H74v0.5H74.3z M133.8,56h0.2v-0.2h-0.2V56h-0.2v0.2L133.8,56z M72.3,55.8v-0.2h-0.2v0.2H72.3z
	 M82.7,55.8v-0.5h-0.2v0.5H82.7z M134.5,55.1v-0.2h-0.2v0.2H134.5z M85.5,54.6l-0.2-0.2v0.2H85.5z M134.7,54.4v-0.5l0.2-0.2h-0.5v1
	L134.7,54.4z M87,54.4v-0.2l-0.2,0.2H87z M80.5,53.9v-0.2h-0.2v0.2H80.5z M81.7,53.9L81.7,53.9v-0.2h-0.2v0.2H81.7z M0.6,52.7
	l0.2-0.2H0.4v0.2H0.6z M66.9,52.7v-0.2h-0.2v0.2H66.9z M137.4,52.5v-0.2l-0.2,0.2H137.4z M75.3,52.2V52H75v0.2L75.3,52.2z
	 M58.7,51.7v-0.5h-0.2v0.5H58.7z M60.9,51.7v-0.2h-0.2v0.2H60.9z M137.4,51.5v-0.2l-0.2,0.2H137.4z M137.9,51.3v-0.5h-0.2v0.5H137.9
	z M115.3,51h0.5v-0.2l0.2-0.2h0.5v-0.2h-0.5v0.2h-0.5v0.2h-0.5V51H115.3z M66.3,50.3L66.3,50.3V50h-0.2v0.2H66.3z M72.3,48.1v-0.2
	h-0.2v0.2L72.3,48.1z M93.9,48.1l-0.2-0.2h-0.2l0.2,0.2H93.9z M54.6,47.1L54.6,47.1v-0.4h-0.2v0.5L54.6,47.1z M70.2,47.1v-0.2
	l-0.2,0.2H70.2z M69.5,46.6h0.2v-0.5h-0.5v0.5H69.5z M69.9,46.2h0.2V46h-0.5v0.2L69.9,46.2z M60.3,45.7h0.2v-0.2h-0.5v0.2L60.3,45.7
	z M60.6,44.5v-0.2l-0.2,0.2L60.6,44.5z M49.1,43.1h0.2l-0.2-0.2h-0.2v0.2H49.1z M138.6,42.4l0.2-0.2v-0.2l0.2-0.2h0.2v-0.5l0.2-0.2
	h-1v0.2h-0.2v0.5h-0.2v0.5l0.2,0.2v0.2L138.6,42.4z M82,41.7v-0.2h-0.2v0.2H82z M52.5,40.7v-0.2h-0.2v0.2H52.5z M54.6,40.2h-0.2v0.2
	L54.6,40.2z M57,37.8L57,37.8v-0.5h0.2v-0.2H57v0.2h-0.2v0.5L57,37.8z M139.4,37.3h-0.2l0.2,0.2V37.3z M43.8,37.3v-0.5h-0.2v0.5
	H43.8z M42.6,36.3h0.7v-0.2h-1v0.2H42.6z M138.9,35.8h-0.2l0.2,0.2V35.8z M42.2,35.8h0.2v-1h-0.7v0.5l0.2,0.2v0.2L42.2,35.8z
	 M50.8,33h-0.2v0.2L50.8,33z M57.3,33.2V33h0.5v-0.2H57v0.5L57.3,33.2z M58,33.2V33h-0.2v0.2H58z M50.5,32.2h-0.2v0.2L50.5,32.2z
	 M50.8,32.5v-0.2h-0.2v0.2H50.8z M46.7,31.3v-0.2h-0.2v0.2L46.7,31.3z M54.1,30.3L54.1,30.3V30h-0.2v0.2H54.1z M52.2,30L52.2,30
	v-0.2L52,30H52.2z M52,29.9v-0.5h-0.2v0.5l0.2,0.2V29.9z M50.6,29.4v-0.5h-0.3v0.5H50.6z M54.6,29.2L54.6,29.2v-0.5h-0.2v0.5
	L54.6,29.2z M49.1,25.8v-0.5h-0.2v0.5H49.1z M44.5,21.7h-0.5l0.2,0.2L44.5,21.7z M85.3,21h-0.2v0.7L85.3,21z M45,21.5v-0.2h-0.2v0.2
	H45z M44.3,20.5h0.2v-0.2H44v0.2H44.3z M42.6,18.8h0.2v-0.2h-0.2V18.8h-0.2v0.2L42.6,18.8z M43.1,18.3L43.1,18.3l-0.2-0.2v0.2H43.1z
	 M43.1,16.4h-0.2v0.2L43.1,16.4z M41.7,16h0.7v-0.2h0.2V15h0.2v-0.2h-0.2V15h-0.2v0.7h-1V16H41.7z M43.3,15.8h0.2v-0.5h-0.2v0.2
	h-0.2v0.2H43.3z M43.1,15.5L43.1,15.5v-0.2h-0.2v0.2H43.1z M39.5,15h-0.2l0.2,0.2V15z M42.4,14.5v-0.2h-0.2v0.2H42.4z M42.9,14.5
	v-0.2h0.2V14h-0.2v0.2l-0.2,0.2H42.9z M41.4,13.8v-0.2h-0.2v0.2H41.4z M40.4,13.3h-0.2v0.2L40.4,13.3z M40.7,13.1h-0.2v0.2
	L40.7,13.1z M40.9,12.8h-0.2v0.2L40.9,12.8z M39.7,12.4v-0.2l-0.2,0.2H39.7z M40.7,11.6h-0.2l0.2,0.2V11.6z M40.7,9.7V9.2h-0.2v0.5
	L40.7,9.7z M39.5,9.2V9l-0.2,0.2L39.5,9.2z M40,9L40,9V8.8h-0.2V9H40z M41,9h0.5V8.8h-0.8V9H41z M30.9,6.4L30.9,6.4V6.1h-0.2v0.2
	H30.9z M37.3,6.1L37.3,6.1V5.9h0.2V5.7h-0.2v0.2h-0.2v0.2L37.3,6.1z M37.8,5.1V4.9h-0.2v0.2L37.8,5.1z M36.9,3l0.2-0.2h-0.5V3
	l0.2,0.2L36.9,3z M33,2L33,2V1.8h-0.2V2H33z"/>
</svg>
