<?xml version="1.0" encoding="utf-8"?>
<!-- Generator: Adobe Illustrator 20.1.0, SVG Export Plug-In . SVG Version: 6.00 Build 0)  -->
<svg version="1.1" id="Layer_1" xmlns="http://www.w3.org/2000/svg" xmlns:xlink="http://www.w3.org/1999/xlink" x="0px" y="0px"
	 viewBox="0 0 1821.7 132.8" style="enable-background:new 0 0 1821.7 132.8;" xml:space="preserve">
<style type="text/css">
	.st0{fill:#C14803;}
</style>
<title>new_zealand</title>
<path class="st0" d="M1789.6,0.4L1789.6,0.4v0.2h-0.2V0.4H1789.6z M1.8,1.6H2v0.2H1.8V1.6L1.8,1.6z M0.4,6.9L0.4,6.9z M1746.4,13.6
	h0.2v0.2h-0.2V13.6L1746.4,13.6z M1800.9,27.3v0.2h-0.2v-0.2H1800.9z M1804.2,28.7v0.2h-0.2v0.5h-0.2v0.7l0.2,0.2v0.2h0.2v0.2h-0.2
	v0.2h0.5v0.2h-0.2v0.5h0.2v-0.2h0.2v-0.2h-0.2v-0.2h0.5l0.2-0.2l0,0h0.2v0.2h-0.4v0.7h0.5v-0.2h0.2l0,0h0.5v0.2h0.7v0.2h0.2
	l-0.2,0.2h0.2v0.2h0.5v0.2h-0.2v-0.2l-0.2,0.2l0.2-0.2h-0.2v0.2h-0.2l0.2,0.2h0.2v0.2l0,0v0.2l0,0l0,0h0.2l0,0h0.2l0,0h-0.2l0,0
	h-0.2v-0.2l0,0l0.2-0.2v0.2h0.2V33h0.2l0,0h0.2v-0.2h0.2l-0.2,0.2v0.2l0,0v0.2l0,0l0,0h-0.2v0.2h0.2v0.5h0.2v0.2l-0.2,0.2h0.2v0.5
	h-0.2v0.5l0,0l0,0l0,0v0.7h-0.2l0,0h-0.2v0.2h-0.2v0.7h0.5v1h0.2v0.2h0.2l-0.2,0.2h-0.2V39h0.2l0,0l0,0l0,0h-0.2l0,0h-0.2v0.2h0.2
	v0.2h-0.2v-0.2h-0.2l0.2,0.2l0,0l0,0v0.2l-0.2-0.2v0.2l0,0v0.5l0,0l0,0h0.5v0.2h-0.2l0,0h-0.5v0.2l0.2-0.2v0.2h-0.2v0.7h0.2
	l-0.2,0.2v-0.2l0.2,0.2l0,0v0.2h-0.2v0.2h0.2v-0.2l0,0v-0.2h0.2v0.2h0.2v-0.2h0.2v0.2l0,0v0.2h0.2l0,0h0.2l0,0h0.2v0.2l0,0v1.2h0.5
	v-0.2h0.2l-0.2,0.2v-0.2h0.5v-1.7h0.2v-0.2h-0.3l0,0h0.5v-0.5l-0.2,0.2l0.2-0.2h-0.2v-0.2h0.2v-0.2h0.2v-0.2h-0.2l-0.2-0.2v-0.2h0.2
	v-0.2h0.2V40h0.2l0,0l0,0v0.2h0.2v0.2h-0.2v0.2h0.2V41h-0.2v0.2h0.2V41h0.5l0,0l0.2-0.2V41h-0.2v0.2h-0.2v0.2h-0.2l0,0h-0.2v0.2l0,0
	v0.2h0.2v-0.5h0.2l0,0h0.2v0.7l0,0v0.2h-0.2v0.2l0,0v-0.2l0.2,0.2l-0.2,0.2v0.2l-0.2,0.2v0.2l0,0V45l0.2,0.5v0.2h0.2V46h0.5v0.2h0.5
	v0.2h0.2v0.2h0.2V47h0.7v0.2h0.5v0.2h0.5v0.2h0.7v-0.2h1v-0.2h0.2V47h0.2v-0.3h0.5v-0.2h0.2v-0.2l0.2-0.2h0.5v-0.2h0.5v-0.2h0.5
	v-0.2h1.2v0.2l0.2,0.2h0.5V46l0,0l-0.2,0.2v0.2l-0.2,0.2h-0.2V47h-0.2v0.5h-0.2v0.2h-0.2v0.5h-0.2v0.2h-0.2v0.2l0,0v0.2h-0.2v0.2
	l0,0v0.2l-0.2,0.2v0.2h-0.2v0.2l-0.2,0.2v0.2h-0.2l-0.2,0.2l-0.2,0.2h-0.2v0.2h-0.7v0.2l0,0l-0.2,0.2l-0.2,0.2v0.2h-0.3v0.5
	l-0.2,0.2v0.5h0.2l-0.2,0.2h-0.2v0.2l-0.2,0.2l-0.2,0.2v-0.5h0.2l-0.2-0.2h0.2v-0.2h0.2v-0.2h-1.9l-0.5,0.2h-0.2l-0.2,0.2h-0.5v0.2
	h-0.2v0.2h-0.2l-0.2,0.2v0.2h-0.2l-0.2,0.2l-0.2,0.2v1.2h0.2v0.2h-0.2v0.2l-0.2,0.2v0.2h-0.2v0.2h-0.2v0.2h-0.2V58l-0.2,0.2v0.2
	h-0.2V59h-0.3l-0.2,0.2h-0.2v0.2h-0.2l-0.2,0.2v0.2h-0.2v0.2l-0.2,0.2v0.2h-0.2v0.2h-0.5l-0.2,0.2l-0.2,0.2l-0.2,0.2l-0.2,0.2h-0.2
	l-0.2,0.2v0.2l-0.2,0.2v0.2h-0.2V63h-0.2v0.2h-0.2v0.5h-0.2V64l-0.2,0.2h-0.2v0.2l-0.2,0.2h-0.2V65h-0.3v0.2h-0.2v0.2h-0.5v0.2h-0.2
	v0.2h-0.5v0.2h-0.2l-0.2,0.2h-0.5v0.2h-0.5v-0.7h0.2v-0.2h-0.2v-0.2h-0.7v0.2h-0.4v-0.5h0.2v-0.2h0.2v-0.2h-0.5v0.2l0,0v0.2h-0.5
	l0,0h-0.2v-0.5h0.2v-0.2h0.2v-0.2h0.2V64h0.5v-0.5h0.5v-0.2l0.2-0.2v-0.2l0.2-0.2h0.2v-0.2h0.2v-0.5h0.2v-0.2h0.2v-0.2l0.2-0.2
	l0.2-0.2v-0.2l0.2-0.5l0.2-0.2v-1.7h-0.2v-0.5h-0.2v-0.2h-0.2l-0.2-0.2v0.2h-0.2l-0.2-0.2h-0.2V57h-0.2v-0.2h-0.2v-0.5h-0.2v-0.2
	h-0.2l-0.2-0.2h-0.7v-0.2h-0.2v-0.5h-0.2v-0.7h0.2v-0.2l0.2-0.2h0.2v-0.2h0.2v-0.2h0.5l0.2-0.2h0.2l0.2-0.2h0.2l0.2-0.2h0.2l0.2,0.2
	l0.2-0.2h0.2l0.2-0.2v-0.2h0.2l0.2-0.2l0.2-0.2v-0.2h0.2V51l0.2-0.2v-0.2l0.2-0.2V50h0.2v-0.5h0.2v-0.2h0.2v-0.5h0.2v-0.5h0.2v-0.2
	h0.2v-0.2l0.2-0.2v-0.7l0.2-0.2h0.2v-0.5l0.2-0.2v-1.7h0.2l0.2-0.2h-0.2v0.2h-0.2v-1.7h-0.2v-0.5h0.2l-0.2-0.2h0.2v-0.2l0,0v-0.5
	l-0.2-0.2v-0.7l-0.2-0.5v-0.2h0.2l0,0l0.2-0.2V40h0.2l-0.2,0.2h0.2l0,0l0,0l0,0h0.2l-0.2,0.2h0.2v-0.2l0,0V40l0,0v-0.2l0,0v-0.3h0.2
	V39h0.2l0,0h-0.2l0,0h-0.2l0,0h-0.2v0.2L1806,39h0.2v-0.2h0.5v-0.2h0.2l0,0h0.5v-0.2h-0.2l0,0l-0.2,0.2l0,0l0,0h-0.2l0,0h-0.2l0,0
	l0,0l0,0h0.2v-0.2h0.2v-0.2l0,0l0.2-0.2l0,0l0,0h-0.2v0.2l-0.2,0.2l0,0h-0.2v-0.2l0,0v-0.2l0,0l0,0l-0.2,0.2v-0.2h0.2l0,0h-0.2v0.2
	l0,0v0.2l0.2-0.2l-0.2,0.2h0.2l0,0h-0.2l0,0h-0.2v-0.2h-0.2l0,0h-0.2v-0.2h-0.2l0.2,0.2v0.2h0.2V39h-0.2v0.2h-0.5V39h0.2v-0.7h-0.2
	v-0.7l-0.2-0.2v-0.2l-0.2-0.2v-0.5l-0.2-0.2v-0.2l-0.2-0.2v-0.5h-0.2v-0.7l-0.2-0.2V34l-0.2-0.2V33h-0.3v-0.2h0.5v-0.2l0.2-0.2v-1
	l-0.2-0.2v-0.2l-0.2-0.2v-0.7h-0.2v-0.2l-0.2-0.2h-0.2v-0.5l0.2-0.2v0.2h0.7v-0.2H1804.2L1804.2,28.7z M1806.6,31.6L1806.6,31.6z
	 M1807.3,31.8L1807.3,31.8z M1808.1,33L1808.1,33z M1807.3,33L1807.3,33z M1809.7,34.5L1809.7,34.5z M1808.3,35.7L1808.3,35.7z
	 M1808.8,36.7L1808.8,36.7z M1810.7,36.9L1810.7,36.9z M1808.8,36.9L1808.8,36.9z M1811.4,37.4v0.5l0,0v0.2l0,0v0.5h0.2v0.2h-0.2
	l0,0h-0.2v-0.2h-0.2v-0.3h-0.2v-0.2h0.2v-0.2h0.2v-0.5L1811.4,37.4z M1810,38.1v0.2h-0.2v-0.2H1810z M1810.7,38.1L1810.7,38.1z
	 M1808.5,39.3v0.2h-0.2v-0.2H1808.5z M1812.4,39.5h-0.2v-0.2h0.2V39.5z M1812.1,40.3v0.2h-0.2v-0.2H1812.1z M1808.1,41v0.2l0,0V41z
	 M1809.1,41l0.2,0.2h-0.3v0.2h-0.2l0,0h-0.5v-0.2h0.7L1809.1,41L1809.1,41L1809.1,41z M1810.3,41L1810.3,41z M1807.9,41.2v0.2h-0.2
	v-0.2H1807.9z M1809.1,41.5v0.5h-0.2l0.2-0.2l0,0V41.5z M1811.9,42.7L1811.9,42.7z M1812.7,43.9L1812.7,43.9z M1812.7,45.8
	L1812.7,45.8z M1814.6,47L1814.6,47z M1791.8,60.9h1l0.2,0.2l-0.2-0.2H1791.8v0.2h-0.2v0.2l-0.2,0.2v0.5l0.2,0.2v0.2h0.5v-0.3h0.2
	l-0.2,0.2h0.2v-0.2h0.2v0.2h-0.2v0.2h0.2v0.5h-0.2v0.2l0,0v0.2h-0.3l0,0h0.2V64h-0.2v0.5h0.2l-0.2-0.2h0.2v0.5l0,0V65h0.2v0.2
	l0.2-0.2l0,0l0.2-0.2h0.2v-0.2l0.2-0.2h0.5V64h0.2v-0.2h0.2V64h0.2v-0.2h0.5v-0.3l-0.2,0.2v-0.2h0.2v-0.2h0.2l0.2-0.2v0.2h0.2V63
	h0.2l0,0l0,0v0.2h-0.2v0.2h-0.5l0,0l0,0l-0.2,0.2V64l0,0v-0.2h0.5l0,0l-0.2,0.2l0,0v0.2l0,0v0.2h-0.2v0.2h-0.5V65l0.2-0.2V65l0,0
	l0.2-0.2h0.2v-0.2h1v-0.2l-0.2,0.2v-0.2h-0.2l0,0l-0.2,0.2h-0.2v-0.2h0.2V64l0.2-0.2V64h0.2v-0.2h0.2v-0.3h-0.2v0.2h-0.2l0.2-0.2
	l-0.2,0.2v-0.2h0.2v-0.2l0,0v0.2h0.5l0,0h0.2l0,0h0.2l0,0h-0.2v0.2h0.2v-0.2h0.2l0,0h-0.3V64h-0.2v0.2h-0.2l0.2-0.2h-0.2v0.2l0,0
	v0.2h-0.5l0,0h-0.2v0.2h-0.5V65l0.2-0.2l0,0h0.2l0,0h0.2l0,0h0.5l0,0h0.5l0,0h-0.2V65h-0.2v0.2h-0.2V65h-0.2v0.2h-0.2v0.2l-0.2,0.2
	v0.5h0.2v0.2l0,0l0.2,0.2h-0.2v0.5h0.2v0.2l0,0v0.2h-0.2v0.2h-0.2v0.2h-0.2v0.2h-0.2l-0.2,0.2v0.2h-0.2l-0.2,0.2v0.5h-0.2v0.2h-0.2
	V70h-0.5v0.2l-0.2,0.2l-0.2,0.2h0.2V71h-0.2v-0.3h-0.2v0.2h-0.2l-0.2,0.2v0.5h-0.3v0.2l-0.5,0.2v0.2l-0.2,0.2v0.2h-0.3v0.5h-0.2
	l-0.2,0.2l-0.2,0.2h-0.2l-0.2,0.2h-0.2l-0.2,0.2h-0.5v0.2h-0.2v-0.2l-0.2,0.2h0.2l-0.2,0.2l0,0V75h-0.2v0.2l-0.2,0.2v1l-0.2,0.2h0.2
	V77h-0.5v0.2h0.2l0,0h0.2V77h0.2v0.2l0,0V77h0.2v0.2h-0.2v0.2h0.2V77l0.2,0.2v0.2l0.2-0.2v0.2h0.2v0.2l0,0v0.2h-0.2v0.2h-0.2v0.2
	h-0.5v-0.2h0.2v-0.3h-0.2l0.2-0.2h-0.2v0.7h-0.5l0,0h-0.2v-0.5l0,0v0.2h-1.2l-0.2,0.2l0,0h-0.7v0.2h-0.5l-0.2,0.2h-0.2l-0.2,0.2
	h-0.2l-0.2,0.2h-0.5l-0.2,0.2h-0.2l-0.2,0.2l-0.2,0.2h-0.2v0.2h-0.2l-0.2,0.2h-0.2l-0.2,0.2v0.5l-0.2,0.2l-0.2,0.2v0.5h-0.2v0.7
	l-0.2,0.5v0.5h-0.2v0.2h-0.2v0.2h-0.2v0.2h-0.2v0.2h-0.2v0.2h-0.2v0.2h-0.2v0.2l-0.2,0.2v0.2l0,0v0.2l-0.2,0.2l0,0v0.2h-0.2V87
	l-0.2,0.2h-0.2v0.2h-0.2V88h0.2v0.2h-0.2l-0.2,0.2l0,0h-0.2v0.2h0.2v-0.2h0.2v-0.2h0.2V88l0.2,0.2h-0.2v0.2l0,0v0.2h-0.2l0,0h-0.7
	V89h-0.7l-0.2,0.2l-0.2,0.2h-0.2l0.2,0.2h-0.2v0.2l-0.2,0.2l-0.5,0.2l-0.2,0.2h-0.2v0.2h-0.5v0.2h-0.2v0.5h-0.7v0.2l0.2-0.2l0,0h0.2
	v0.2h-0.2l-0.2,0.2h-0.7v0.2h-0.5v0.2l-0.2-0.2v0.2h-0.5l0,0h-0.5v0.2l-0.2-0.2h-0.4v-0.5l0,0v0.2l-0.2-0.2h-0.2l-0.2,0.2h-0.7l0,0
	h0.2l0.2-0.2h-1v0.2l0,0v-0.2h-0.2v-0.2h0.2l0,0h0.5v-0.2l0,0v-0.2h-0.2v0.2l0,0v0.2h-0.3v-0.5h-0.2v-0.3h-0.2v-0.2l-0.2,0.2v-0.2
	h-0.2v0.2h-0.2l-0.2,0.2v-0.2h-0.5v-0.2h0.2v-0.2l-0.2-0.2h-0.2l0.2-0.2v-0.2l0,0v0.2h-0.5l-0.2-0.2h-0.2v0.2h-0.2v0.2l-0.2,0.2
	v-0.2h-0.2v0.2h-0.4v-0.2h-1.7v-0.5h0.2v-0.2h0.5v-0.5h0.5v-0.2h-0.2v0.2h-0.3l-0.2,0.2l0,0v0.2h-0.2l0.2-0.2h-0.2v0.2h-0.2v-0.5
	h0.7v-0.2h-0.2v-0.2l0.2-0.2h-0.2v0.2h-0.2v0.2l-0.2,0.2h-0.5v-0.7h0.2v-0.2h1V88h0.5l0,0h0.5v-0.2h-0.5l-0.2,0.2v-0.5h0.7v-0.2
	h-0.2l-0.2,0.2h-0.2v-0.2h0.2V87h0.5v-0.2h0.5l0,0h-0.5l-0.2,0.2h-0.8l0.2-0.2h0.2l-0.2-0.2h0.2V86h0.2v0.2h0.2V86h-0.2v-0.2h0.2
	v-0.2h0.5v0.2h0.2v0.5l-0.2-0.2v0.2h0.2v-0.5h0.2v0.7h-0.2l0,0h0.2l0,0h0.2l-0.2-0.2v-0.5h-0.2v-0.2h0.5v0.2h0.2l0,0h-0.2v-0.2
	l0.2-0.2h-0.2v0.2h-0.5v-0.7h0.2v-0.2l0.2,0.2v0.2l0,0v-0.5l0,0l0,0h0.2l0,0l0,0v-0.5h0.2v0.2h0.2l-0.2-0.2v-0.2h0.2v-0.2h0.2v-0.2
	h0.5v0.2l-0.2,0.2h0.2l-0.2,0.2h0.2v-1h0.2v-0.2h0.2v0.2l0,0l0,0h0.2v-0.2h-0.2l0.2-0.2h0.2v-0.2h0.2v-0.2h0.2l0.2-0.2h0.2v0.2h0.2
	v0.2h0.2v-0.2h-0.2V82h-0.2l0.2-0.2v-0.3l0.2-0.2l0.2-0.2h0.2v-0.2l0.2-0.2l0,0l0.2,0.2v-0.2h0.2l-0.2-0.2h0.2v-0.2h0.2v-0.2h0.2
	l0.2-0.2l0.2-0.2v-0.2h0.7v-0.2h1.2l0.2-0.2h0.2v-0.2h0.2l0.2-0.2h0.2l0.2-0.2l0.2-0.2h0.2v-0.2h0.5v-0.2h0.2l0.2-0.2l0,0h0.7v-0.2
	h0.2l0.2-0.2l0.2-0.2l0.2-0.2h0.2v-0.2h0.5l0.2-0.2v-0.2h0.5V75h0.2l0.2-0.2v-0.2h0.2v-0.2h0.5l0.2-0.2l0.2-0.2h0.5l0.2-0.2h0.2
	v-0.2h0.2l0.2-0.2l0,0l0.2-0.2l0.2-0.2l0.2-0.2h0.2v-0.2h0.2v-0.2h0.2v-0.2h0.2v-0.2l0.2-0.2v-0.2h0.2v-0.2l0.2-0.2v-0.2h0.2V70
	l0.2-0.2v-0.5h0.2v-0.5h0.2v-0.2l0.2-0.2v-0.2l0.2-0.2v-0.5h1l0.2-0.2l0.2-0.2h0.2v-0.2h0.2v-0.2h0.2v-0.2l0.2-0.2v-0.2h0.2l0.2-0.2
	v-0.2h0.2v-0.5l0,0l0.2-0.2v-0.7h0.2v-1h0.2v-0.2h0.2v-0.2h0.2v-0.2h0.2l0,0h0.2v-0.2h0.2v-0.2h0.2l0.2-0.2h0.2v-0.2h0.5v-0.2
	L1791.8,60.9L1791.8,60.9z M1796.6,61.6L1796.6,61.6z M1796.3,61.9v0.2l-0.2,0.2v0.2h-0.2v0.2h-0.2V63h-0.2v-0.2h0.2v-0.5h0.2l0,0
	l0,0v-0.2h0.5V61.9z M1796.3,62.3L1796.3,62.3z M1800.2,62.6h-0.2v0.2h-0.2l0.2-0.2H1800.2z M1796.6,62.8V63l-0.2-0.2L1796.6,62.8z
	 M1796.6,63.1v0.2h-0.2V63L1796.6,63.1z M1795.6,63.5L1795.6,63.5L1795.6,63.5z M1799.2,64h-0.2l0.2-0.2L1799.2,64z M1797,64
	L1797,64z M1797.5,64l-0.2,0.2v0.2h-0.5l0,0l-0.2,0.2l0,0v-0.2h0.5v-0.2h0.5V64h-0.2v0.2h-0.2V64H1797.5z M1796.8,64.5L1796.8,64.5z
	 M1796,64.5L1796,64.5z M1792.4,64.7V65h-0.2v-0.3L1792.4,64.7z M1792.2,65L1792.2,65z M1792.4,65L1792.4,65z M1785,67.8L1785,67.8z
	 M1787.6,77.2h-0.2l0.2-0.2V77.2z M19.8,77.4h0.2v0.2h1.2l0,0L21,77.9h-0.2v0.7l0,0v-0.2h-0.2v-0.2h0.2v-0.2h-0.2v-0.2h-0.2l0,0H20
	v0.2h0.5v0.2h-0.2v0.5h0.2v0.2h0.2v0.2H21v0.2h-0.5v0.2H20v-0.2h-0.2v-0.5H20l0,0h0.2v-0.5H20v-0.2h-0.2v-0.2h-0.2v0.2h-0.7v-0.2
	h0.2l0,0h0.2v-0.2h0.5L19.8,77.4z M18.8,78.4L18.8,78.4z M20.7,78.7L20.7,78.7z M22.4,80.1L22.4,80.1z M21.7,80.3H22v0.2h-0.2v0.2
	h-0.3v-0.2h0.2L21.7,80.3L21.7,80.3L21.7,80.3L21.7,80.3z M21.5,80.6h-0.2l0.2-0.2V80.6z M1763.6,85.6h-0.2v-0.2h-0.2l0.2-0.2v-0.2
	h0.2C1763.6,84.9,1763.6,85.6,1763.6,85.6z M1763.2,85.6L1763.2,85.6z M1762,87L1762,87z M1762.5,87.2L1762.5,87.2z M1762,87.2h0.2
	v0.5h-0.2V88h-0.2l0,0h-0.2v-0.2h-0.2L1761,88v-0.2h0.2v-0.3h0.2v-0.2L1762,87.2L1762,87.2z M1762.5,87.7h0.2V88h-0.2V87.7z
	 M1761.5,88L1761.5,88z M1762.2,88h-0.2l-0.2,0.2h-0.2V88L1762.2,88L1762.2,88z M1761.5,88L1761.5,88z M1761.2,89.2l-0.2,0.2v-0.2
	H1761.2z M1761,89.4v0.2l-0.2-0.2H1761z M1761.5,89.6L1761.5,89.6z M1761.2,89.9v-0.2h0.2v0.2H1761.2z M1765.3,91.6L1765.3,91.6z
	 M1761.7,92L1761.7,92z M1767.5,92h0.2l-0.2,0.2V92z M1765.3,92.8h0.2v0.5h0.2v0.2h0.2v0.2h-0.5l0.2,0.2h-0.2v-0.2h-0.2V94l-0.2,0.2
	l0.2-0.2h0.5v0.2h0.2V94l0,0v0.2l0,0v0.2l0,0v0.2h-0.2V95l-0.2-0.2V95h-0.7v0.2h-1l0,0l0,0v0.2h-0.2v0.2l0.2-0.2v0.2h-0.7v-0.2h0.2
	v-0.2h0.2v-0.5h0.2v-0.2h0.2l0.2-0.2l0,0V94h0.2v-1.2L1765.3,92.8L1765.3,92.8z M1767.7,93v0.2h-0.2V93L1767.7,93z M1764.1,93h0.2
	v0.2h-0.2V93z M1767.7,93L1767.7,93z M1766.5,93.5L1766.5,93.5z M1766.5,94h-0.2v-0.2h0.2V94z M1766,94L1766,94z M1766,94L1766,94z
	 M1764.4,94L1764.4,94z M1764.1,94.2V94h0.2L1764.1,94.2z M1762.9,95.2L1762.9,95.2z M1764.1,95.4v-0.2l0,0V95.4z M1763.9,95.4
	L1763.9,95.4z M1762.9,95.4L1762.9,95.4z M1762.9,95.7h-0.2l0.2-0.2V95.7z M1805.4,97.8L1805.4,97.8L1805.4,97.8z M1758.8,99.3
	L1758.8,99.3z M1801,107.7v0.2h-0.2v-0.2H1801z M1800.8,107.7L1800.8,107.7z M1755,111.7L1755,111.7z M1754.8,112h-0.2v-0.2h0.2V112
	z M1754.5,112L1754.5,112h0.2v0.2h-0.2v0.2h-0.2l0,0l0,0l-0.2,0.2h0.2v0.2h-0.2v-0.2h-0.2v0.2h0.2v0.2l0,0v-0.2h0.2v0.2l0,0
	l-0.2,0.2h-0.5v-0.2h-0.2v0.2h-0.5l0.2-0.2l0.2-0.2h0.2v-0.2h0.2v-0.2h0.2V112h0.2v-0.2h0.2V112z M1753.5,112.5L1753.5,112.5z
	 M1753,113.5l0.2,0.2h0.2v-0.2h0.2v0.2h-0.2v0.2h-0.2v-0.2h-0.2V113.5z M1762.4,121.4v0.2l0,0v0.2l0,0l-0.2,0.2h-0.2v-0.2l0,0v-0.2
	h0.2v-0.2H1762.4z M1724.7,131.2v0.5h-0.2v0.5h-0.2v0.2h-0.2l0.2-0.2l0,0v-0.5h0.2v-0.5H1724.7z"/>
</svg>
