<?xml version="1.0" encoding="utf-8"?>
<!-- Generator: Adobe Illustrator 20.1.0, SVG Export Plug-In . SVG Version: 6.00 Build 0)  -->
<svg version="1.1" id="Layer_1" xmlns="http://www.w3.org/2000/svg" xmlns:xlink="http://www.w3.org/1999/xlink" x="0px" y="0px"
	 viewBox="0 0 70.6 86.4" style="enable-background:new 0 0 70.6 86.4;" xml:space="preserve">
<style type="text/css">
	.st0{fill:#C14803;}
</style>
<title>philippines</title>
<path class="st0" d="M16.6,0.4L16.6,0.4z M16.6,0.6L16.6,0.6z M16.6,1.6h-0.2V0.9h0.2v0.2l0.2,0.2l0,0v0.2L16.6,1.6z M17.3,1.6
	L17.3,1.6z M18.3,2.8h0.2V3h-0.2v0.2h0.2l-0.2,0.2L18,3.3V2.8L18.3,2.8z M18.3,4H18V3.7h-0.2V3.5H18v0.2l0,0V4L18.3,4z M17.8,3.8
	l-0.2-0.2h0.2V3.8z M20.7,7.6h0.2v0.5h-0.2V7.8h-0.3V7.6L20.7,7.6z M18.8,8.3L18.8,8.3z M18.8,8.6H19v0.2h0.2V9h0.2v0.2H19V9h-0.5
	V8.8h-0.2V8.5L18.8,8.6L18.8,8.6z M18.8,10.5h-0.2l-0.2-0.2V10H18V9.7h0.2V10h0.2v0.5L18.8,10.5z M21.9,10.5h0.2v0.2h0.5V11h-0.2
	v0.5h-0.2l-0.2-0.2h0.2V11h-0.2V10.5z M21.9,11.2L21.9,11.2z M20,11.2h0.2v0.2h-1v-0.2h0.2l0.2-0.2L20,11.2z M19,11.2L19,11.2z
	 M19.2,11.5H19v-0.2h0.2L19.2,11.5z M17.5,12.5l0.2,0.2H18v0.2h0.5v-0.2H19l0.2-0.2v0.2h0.5l0.2,0.2l0.2,0.2h0.5l0.2,0.2h0.2l0,0
	l0.2,0.2h0.2l0.2,0.2h0.5l0.2,0.2H23l0.2,0.2h1.2v-0.5h0.2v-0.2h-0.2v-0.6H25v0.2h0.2v0.2h0.2v0.2h0.2v0.2H26v1h-0.2v0.5H26V16h0.2
	v0.5l0.2,0.2l0,0v0.5l0.2,0.2l0.2,0.2v0.2h0.2v0.5h0.2v0.2h0.2l0.2,0.2v0.2h0.2v0.2h0.5v-0.3l0.2,0.2l0,0v0.2l0,0v-0.2H29v0.2h0.2
	v0.2L29,19.6v0.2h0.2v0.5l0.2,0.2h0.2v-0.2H30v1h0.2v2.4H30v0.5l0.2,0.2v0.5h0.2v0.5h-0.2v0.2H30v0.2l0,0v-0.8h0.2v-0.2h-0.5v0.2
	l0.2,0.2h-0.5v0.2H29v0.2h-0.2v0.2l-0.2-0.2v0.2l-0.2,0.2v0.2h-0.2v0.7l0.2,0.2h0.2l0.2,0.2V28l0,0v0.5h-0.2v1.2h-0.2v0.2l0.2,0.2
	l0.2,0.2l0,0H29v0.2h0.2v0.2h0.2v0.2l0.2,0.2v0.2H30v0.2h0.2v0.2l0.2,0.2v0.2h0.2v0.2h0.5V33h0.2l0.2,0.2h-0.2l0,0H31v0.2h0.2V34
	h0.2v0.2h0.2v0.5H32V35h0.2v0.2h0.2v0.2h0.2v0.5l0.2,0.2l0.2,0.2h0.2l0.2,0.2h0.2v0.2h0.5l0.2,0.2H35v0.2h0.7v-0.3h-0.2l-0.2-0.2
	h0.2l0.2,0.2H36v-0.2l0,0l0,0h-0.2v-0.2h-0.2v-0.2H35v-0.2h-0.2v-0.2l0.2,0.2v-0.2h0.2v-0.2l0,0v0.2h0.2v0.2h0.2v-0.2h-0.2l0.2-0.2
	v-0.5h0.5l0,0h0.2l0,0h0.2l0.2,0.2l0,0l0,0v-0.2l0.2,0.2v-0.2H37v-0.2l0.2,0.2l0,0h0.5v0.2h0.7v0.2h0.2v0.2h0.2v0.2h0.5v0.2h0.2v0.2
	l0.2,0.2l0.2,0.2v1h0.2l0.2,0.2h0.7v-0.2h0.2v-0.2l-0.2-0.2v-0.2l0,0v-0.3H41l0,0h-0.2v-0.2l0,0v-0.2h-0.2v-0.2h0.2v0.2l0,0v-0.2H41
	v0.2h0.2l0,0l0.2,0.2l0,0l0.2,0.2v0.2H42v-0.2h0.2L42,37.3h0.2l0,0h0.2l0,0h0.7v-0.2l0.2,0.2v0.2h0.5v0.2h0.7v0.2h0.2v0.2h-0.5v0.2
	h-0.2l-0.2-0.2H43V39l0,0l0.2,0.2h0.2v0.2H44l0.2,0.2V40h0.2l0.2,0.2l0,0v0.2h0.5v0.2l0.2,0.2v-0.3l0,0v0.2h-0.5v0.2h0.2v0.2h0.2
	v0.2h-0.2l0.2,0.2h0.2v-0.5h0.5v0.2l0.2-0.2v0.2h0.2v0.2h0.2l0.2,0.2v-0.5h0.5v0.2h-0.2v0.2h0.2v0.2h-0.2l0.2,0.2l0,0v0.2h0.2v0.7
	H48l-0.2,0.2l0,0v0.2H48v0.2l0,0v0.2h-0.7v-0.2H47v-0.2h-0.2l-0.2-0.2l-0.2-0.2v-0.2l-0.2-0.2v-0.2h0.5v-0.2h0.2l0,0l0.2-0.2
	l-0.2-0.2l-0.2,0.2h-0.2v-0.2h-0.2v0.5h-0.2v0.2h-0.2l0,0h-0.2v-0.2l0,0v0.2h-0.2v-0.2l0,0v0.2l-0.2-0.2h-0.2v-0.2h-0.5v-0.2h-0.2
	l-0.2-0.2h-0.5v0.2H43v-0.2l-0.2-0.2v-0.7h-0.2v-0.2h-0.2L42,40.5v-0.2h-0.2V40l-0.2-0.2h-0.2L41,39.5h-0.5v-0.2h-0.7V39h-0.2v-0.2
	h-0.2v-0.5h-0.2v-0.2h-0.5v-0.2h-0.7v-0.5h-0.5v-0.2h-0.2v0.2H37v-0.2l-0.2,0.2v-0.2l0,0v0.2H37v0.2h0.2v0.2h0.2v0.5l0,0v0.2h0.2
	v0.2H38V39h0.2v0.2h0.5v0.2h-0.3v-0.2h-0.2l0,0h0.2v0.2h0.2v0.2h0.2V40l0.2,0.2v0.2h0.2V41l0,0v0.2h-0.5L38.6,41h-0.2v-0.7h-0.2V40
	h-0.2v-0.2h-0.2l-0.2-0.2v-0.2H37V39h-0.7v-0.2H36v-0.2h-0.2v-0.2h-0.2v-0.2h-0.2L35,37.8l0.2,0.2H35v-0.2h-0.5v-0.2H34v-0.2h-0.4
	v-0.2h-0.7v0.2h-0.5v0.2h-0.5v0.7h0.2v0.2h-0.5V39h-0.2l-0.2-0.2h-1v-0.5H30v-0.2h-0.5v0.2l-0.2,0.2v-0.7l0,0v-0.2H29v-0.2h-0.7
	v-0.2H28l-0.2,0.2l0.2,0.2h-0.2v0.2H28v0.2h-0.2v-0.2h-0.2v-0.5l-0.2-0.2v-0.5l-0.2-0.2v-0.2h-0.2v-0.2h-0.2v-0.2h0.2v-0.2h0.5
	l-0.2-0.2h0.2v-0.2h0.2v-0.2l0.2-0.2h-0.2v-0.2h0.2v0.2h0.2V34l-0.2-0.2v-0.3h-0.2v-0.2L27.4,33h-0.5v-0.2h-1.2v-0.2h-0.2v-0.2l0,0
	v0.2h-0.2l0,0l0.2,0.2v0.5h0.2v0.2h0.2v0.2l0.2,0.2v0.2h0.2v0.2h-0.2v0.2h-0.2v-0.2h-0.2v0.2l0,0v-0.2h-0.5v-0.2H25v-0.5l-0.2-0.2
	h-0.5v-0.2H24V33l-0.2-0.2l0,0v-0.2H24l0,0h-0.2v-0.2h-0.2V33l-0.2-0.2H23v-0.2h-0.2v-0.2h-0.2v-0.5l-0.2-0.2v-0.2l-0.5-0.7v-0.2
	h-0.2v-0.2h-0.2v-0.2h-0.2v-0.2h-0.2v-0.2h-0.2v-0.2l0.2-0.2l0,0l-0.2-0.2v-0.2l-0.2,0.2v-0.2l-0.2-0.2h0.2L20.2,28h0.2l0,0h-0.5
	v-0.5l-0.2-0.2h0.2L19.7,27l-0.2-0.2v-0.2H19v0.2l-0.2-0.2V26h-0.2v-0.5h-0.2v-0.7l0,0L18,24.6l0.2-0.2h0.5v0.5l0,0v0.2h0.5v0.2h0.7
	v0.2h0.2v0.2h0.2v0.2l-0.2-0.2v0.2h1.2v-0.2h0.2v-0.5l-0.2-0.2l-0.2-0.2v0.2l-0.2-0.2v-0.5h-0.2v-0.2l-0.2-0.2v-0.2h-0.2v-0.5h-0.2
	v-0.7l-0.2-0.2v-0.5h0.2V21h-0.2v-0.2l-0.2-0.2v-0.2l-0.2-0.2H19l0.2-0.2H19v-1h-0.2v-0.2h-0.2v-0.2h-0.2l0,0H18v-0.2h-0.2v-0.7l0,0
	v-0.2l0,0v-0.2l0,0v-0.5h-0.2v-0.7h-0.2v-1l0,0V14L17,13.8v-0.2h-0.2v-0.2h-0.2v-0.2h0.2v-0.2H17v0.2h0.5v-0.5h-0.2v-0.2L17.5,12.5z
	 M24.2,12.9h0.2v0.2h-0.2V12.9z M18.2,18.5L18.2,18.5z M18.5,24.2h0.2v0.2h-0.2V24.2z M19,24.5L19,24.5z M19,24.5v0.2h0.2v0.2h0.2
	v0.2h-0.2v-0.2h-0.5v-0.2H19L19,24.5z M20.4,25.9h-0.2l0,0H20.4z M19.4,27.6h-0.2v-0.2h0.2L19.4,27.6z M20.6,29h-0.2v-0.3h0.2
	L20.6,29z M10.1,30.6L10.1,30.6z M10.3,30.9L10.3,30.9z M31.9,31.3h0.5v0.2h0.2v0.2h-0.2v0.2l0,0v0.2l0.2,0.2l0,0h0.2V33h0.2v0.2
	h-0.2v0.2h-0.2v-0.2h-0.2V33l0,0v-0.2l-0.2-0.2h-0.2V32h-0.2l-0.2-0.2l0,0v-0.5L31.9,31.3L31.9,31.3z M33.1,32.1L33.1,32.1z
	 M33.4,32.1L33.4,32.1z M33.4,32.1L33.4,32.1z M32.6,32.1L32.6,32.1z M33.4,32.3L33.4,32.3z M32.6,32.3h-0.2l0.2-0.2L32.6,32.3z
	 M32.6,32.3h0.5v0.2l-0.2-0.2l0,0H32.6z M33.4,32.3L33.4,32.3z M33.6,32.3v0.2h0.2l0,0l0.2,0.2l0,0h-0.5l-0.2-0.2h-0.2l0,0h0.5
	L33.6,32.3z M25.4,32.8l-0.2-0.2h0.2V32.8z M34.8,33H35v0.2h-0.5V33H34.8z M31.2,33.2L31.2,33.2z M38.2,34.4L38.2,34.4L38.2,34.4z
	 M37.7,34.4L37.7,34.4z M33.9,34.7h-0.3l0,0H33.9z M38.4,34.7h-0.2v-0.2L38.4,34.7z M26.4,34.7v0.2h-0.2v-0.2L26.4,34.7z M33.2,35.4
	h-0.2v-0.2L33.2,35.4z M33.9,35.9h0.2l0.2,0.2h0.2v0.2H35v0.2h0.2v0.2H35v-0.2h-0.5v-0.2H34v-0.2h-0.2l-0.2-0.2v-0.2h0.2L33.9,35.9z
	 M38.7,35.9L38.7,35.9z M39.7,36.4L39.7,36.4z M40.9,36.4L40.9,36.4z M45.7,36.4v0.2h0.2v0.2h0.2v0.2h0.2l0,0h0.2v0.2h0.2v0.2H47V38
	l0,0v0.2h0.2v0.2H47v0.2l0.2,0.2H47v0.2l0,0V39h-0.2l0,0h-0.2v0.2h-0.2L46.1,39h-0.5v-0.2h-0.2v-0.2h0.2v-1l-0.2-0.2l0,0v-0.5l0,0
	l-0.2-0.2l0,0h0.2v-0.2L45.7,36.4z M39.9,36.4L39.9,36.4z M39.9,36.6L39.9,36.6z M44.7,36.6L44.7,36.6z M42.6,36.8L42.6,36.8z
	 M42.6,36.8L42.6,36.8L42.6,36.8z M46.4,37.1L46.4,37.1l-0.2-0.2h0.2V37.1z M43,37.1v0.2h-0.2v-0.2l0,0v-0.2L43,37.1z M44,37.3h-0.2
	v-0.5l0.2,0.2V37.3z M40.8,37.1L40.8,37.1z M33.4,37.1v0.2h0.2l0,0h-0.2V37.1L33.4,37.1z M42.7,37.3h-0.2v-0.2h0.2V37.3z M24.7,37.6
	h-0.2v-0.2h0.2V37.6z M43.7,37.6L43.7,37.6z M25.5,37.8H26v0.2h0.2v0.2l0,0l0,0h-0.7v-0.2h-0.3v-0.2H25v-0.2h0.2L25.5,37.8z
	 M44.2,37.8L44.2,37.8z M26.2,37.8v0.2L26,37.8l0,0H26.2z M38.7,38.1L38.7,38.1z M26.7,38.5h0.2l0.2,0.2h-0.2L26.7,38.5L26.7,38.5z
	 M29.3,38.5h0.2l0.2,0.2h-0.5V38.5L29.3,38.5z M30.5,39l0.2,0.2h-0.2L30.2,39L30.5,39z M34.6,39.3h1v0.2H36v0.2h0.2V40H36l0,0h0.2
	v0.2l0,0v0.2L36,40.7h0.2v0.2h-0.5l-0.2-0.2H35v-0.2h-0.2v-0.2L34.6,40L34.6,39.3L34.6,39.3z M36,39.3L36,39.3L36,39.3z M34.6,45.7
	h-0.2l0,0h-0.5v0.5L33.6,46h-0.5l-0.2-0.2l0,0v-0.3l0,0l0,0h-0.5v-0.2h-0.2V45h-0.2v-0.2h-0.2V44h-0.2v-0.2h-0.2L31,43.6h-0.2v-0.2
	h-0.2v-0.5h-0.2v-0.2L30,42.1v-0.2h-0.2v-0.2h-0.2v-0.2h-0.2v-0.2H29l-0.2-0.2l0,0h-0.5v-0.2H28v-0.2h-0.2V40h-0.5v0.2L27.1,40h-0.2
	v-0.5l0.2-0.2h0.2l0.2,0.2h1.2l0.2,0.2h0.2v-0.2H30v-0.2h0.2v0.2l0,0v0.2h0.2V40h0.7l0,0h0.2l0,0h0.2v0.2h0.5v0.2h0.2v0.2h0.2l0,0
	h0.2V41h0.2v0.5h0.2l0.2-0.2v0.2h0.2v0.2l-0.2,0.2v0.2h0.2v0.7h0.2v0.5h0.2v0.2h0.2v0.2l0.2,0.2v0.2h-0.2v0.2h-0.2v0.2l0,0v0.5h0.2
	v0.2h-0.2L34.6,45.7z M35.8,39.5L35.8,39.5L35.8,39.5z M36.3,39.5L36.3,39.5z M44.7,40h0.2v0.2l0,0L44.7,40z M39.4,40.5L39.4,40.5z
	 M45.4,40.2v0.2h0.2v0.2l0,0v0.2l-0.2-0.2v-0.2h-0.2v-0.2H45.4z M45.9,40.7h0.2l0,0h0.2l0.2,0.2h-0.7L45.9,40.7l-0.3,0l0,0l0.2-0.2
	L45.9,40.7z M35.3,40.7v0.2L35,40.7L35.3,40.7z M46.8,40.9h0.5v0.2h-0.7v-0.2H46.8z M35,40.9L35,40.9z M40.5,41.4v-0.2l0,0V41.4z
	 M41.2,41.4h0.2v0.2h0.2v0.2H42l0.2,0.2v0.2h0.2v0.2h0.7v0.5h0.2l0,0l0.2,0.2l0.2,0.2l0,0h-0.2l-0.2-0.2v-0.2h-0.2v-0.2h-0.5
	l-0.2-0.2h-0.2v-0.2H42l-0.2-0.2h-0.2l0,0h-0.2v-0.2H41v-0.2l-0.2-0.2H41v-0.2L41.2,41.4z M36.7,42.4H37v0.2h-0.2L36.7,42.4
	L36.7,42.4L36.7,42.4z M35,42.6h-0.2v-0.2H35V42.6z M36.7,42.6L36.7,42.6z M46.3,42.6L46.3,42.6z M46,43.1h-0.2v-0.2H46V43.1z
	 M37.2,43.1H37l0,0l0,0v-0.2h0.2L37.2,43.1L37.2,43.1L37.2,43.1z M45.1,43.6L45.1,43.6z M48.9,43.8h0.2l0,0H48.9L48.9,43.8
	L48.9,43.8z M45.6,43.8v0.2h0.2l0.2,0.2v0.2h0.2V45h0.2v0.2h0.2v0.2h-0.2l-0.2-0.2V45H46v-0.2h-0.2v-0.2h-0.2v-0.2h-0.2v-0.2h-0.2
	l0,0h0.2v-0.2L45.6,43.8L45.6,43.8z M52.6,43.8h0.2v0.2h-0.2V43.8z M49.4,43.8L49.4,43.8z M37.9,44.1h-0.2l0.2,0.2v1.4l0,0v0.5h0.2
	v0.2h-0.2v0.2h0.2v0.2l-0.2-0.2v-0.2h-0.2l0,0h0.2v-0.2l0,0V46h-0.5v-0.2h-0.2v-0.5h0.2v-0.5h-0.2v-0.7h0.2v-0.2h0.2L37.9,44.1z
	 M52.3,43.8l0.2,0.2l0,0v0.2h0.2v0.2h-0.2v-0.5h-0.2V43.8z M38.4,44.1L38.4,44.1z M49.7,44.1L49.7,44.1z M49.2,44.1h0.2v0.2h-0.2
	L49.2,44.1z M38.4,44.1h0.2v0.5h0.2v0.2h-0.2v-0.2h-0.2C38.4,44.5,38.4,44.1,38.4,44.1z M53.3,44.3L53.3,44.3z M43.7,44.3h0.2
	l0.2,0.2V45l0,0l0.2-0.2h-0.2l0.2-0.2l0,0h0.2v0.2h0.5V45h0.2l0.2,0.2l0,0v0.2h0.2l0,0h0.5v0.2h0.2V46h0.2v0.2l0,0L47,46v0.2h0.5
	l0.2,0.2v0.2H48l0.2,0.2v0.2h0.2l0.2,0.2l0,0h-0.2v0.2h0.2v0.2H49v0.2h0.2v0.5H49v-0.2h-0.2v-0.2h-0.5v-0.3h-0.5v-0.2H47v-0.2l0,0
	l-0.2-0.2h-0.2v-0.2h-0.2v-0.2H46v-0.2h-0.2l-0.2-0.2h-0.5v0.5h-0.2v0.5h-0.2v0.5h-0.2v0.2l-0.2-0.2v-1h0.2v-0.5L44.2,46v0.2h-0.2
	V46l0,0v-0.2l0,0l0.2-0.2h-0.2V45h-0.2v-0.5h-0.2v-0.2L43.7,44.3z M49.2,44.3L49.2,44.3z M58.1,52v-0.2h-0.2v0.5L57.6,52h-0.2l0,0
	h-0.2l0,0h-0.5l0,0h-0.2v0.2L56.2,52v-0.2h-0.2v-0.5h-0.2V51h-0.5l0,0L55,51.2L54.7,51v-0.5h-0.2v-0.2h-0.2v-0.2h-0.7v-0.2h0.2v-0.2
	H54v-0.2h0.2v-0.2H54l0.2-0.2l0,0l0,0v-0.2H54l0,0h-0.7v-0.2H53v-0.2h-0.2v-0.2h-0.2v-0.2h-0.2v-0.2h-0.2l0,0l-0.2-0.2h-0.2
	l-0.2-0.2h-0.7v-0.2h-0.2v-0.2h-0.2v-0.2h-0.2V46h-0.2v-0.5h-0.2v-0.2L49.2,45L49,44.8v-0.2h-0.2v-0.2h0.5l0,0l0.2,0.2l0,0h2.4v-0.2
	h0.2l0,0h0.2v0.2h0.2l0,0H53v-0.2h0.5v0.2h0.2l0.2,0.2h0.2V45h0.2v0.7h0.2V46H55l0,0h0.2l0,0h0.2v0.2l0.2-0.2v0.2H56v0.2h-0.2v0.2
	H56V47h0.2v0.2H56v0.7h0.2v0.5h0.2v0.2l-0.2-0.2v0.2h0.2l0.2,0.2v0.2l0,0v0.5h0.2v0.2h0.2v0.5h0.2l0,0l0.2,0.2h0.2v0.2h0.2V51h-0.2
	v0.2h-0.3v0.2h0.2v0.2h0.2v-0.2l0,0l0,0h0.5V52h0.2l0.2,0.2l0.2,0.2h-0.5v-0.2h-0.2l0.2-0.2l0,0h-0.2v-0.2L58.3,52H58.1z M50.2,44.6
	h-0.2v-0.3h0.2V44.6z M49.7,44.3L49.7,44.3L49.7,44.3z M52.8,44.6L52.8,44.6z M48,44.6L48,44.6z M40.1,44.8h0.7V45l0.2,0.2v0.5h-0.2
	L41,46h-0.2v-0.2h-0.2l-0.2-0.2h-0.2v-0.2h-0.5v-0.5C39.6,44.8,40.1,44.8,40.1,44.8z M48.7,45.3h-0.2V45h-0.2v-0.2h0.2V45h0.2V45.3z
	 M49.2,45.5v-0.2H49V45l0.2,0.2L49.2,45.5z M43.9,45L43.9,45z M48.2,45.5H48v-0.2h0.2L48.2,45.5z M34.8,45.3v0.2h-0.2v-0.2H34.8z
	 M43.9,45.5L43.9,45.5z M47.8,45.5L47.8,45.5z M26.6,45.5L26.6,45.5z M48,45.5L48,45.5z M46.8,45.7L46.8,45.7z M27.1,45.7V46h0.5
	v0.2h0.2v0.2h0.2l0,0h0.2v0.2h0.5v-0.2h-0.2v-0.2h0.2v0.5h0.5V47h0.2v0.2h-0.2l0.2,0.2l0,0h-0.7v-0.2h-0.2v0.2l0,0v0.2l-0.2-0.2
	l-0.2-0.2v0.2l-0.2-0.2l0,0h-0.2V47h-0.2v-0.3l-0.2-0.2v-0.2h-0.2l0,0L26.6,46l0,0v-0.5l0.2,0.2H27.1z M29.3,46v-0.2l0,0V46z
	 M33.1,46.2h0.2v0.2h-0.2V46.2h-0.2V46h-0.2v-0.2h0.2V46h0.2V46.2z M34.6,45.7V46l-0.2-0.2L34.6,45.7z M48.5,46L48.5,46z M34.6,46
	L34.6,46z M34.1,46L34.1,46z M47.3,46.2L47.3,46.2z M29.5,46L29.5,46z M32.9,46.2v0.2h-0.2v-0.2H32.9z M28.6,46.5L28.6,46.5h-0.2
	l0,0H28.6z M44.2,46.5L44.2,46.5z M27.2,46.7h-0.2l0,0H27.2z M29,46.5v0.2l-0.2-0.2H29z M26.6,46.7L26.6,46.7z M38.1,46.7L38.1,46.7
	z M56.4,46.7v0.2l-0.2-0.2H56.4z M34.8,46.9H35v0.2h0.2L35,47.4v-0.2h-0.2L34.8,46.9h-0.2v-0.2h0.2L34.8,46.9z M35.8,46.9L35.8,46.9
	z M37.9,47.2h-0.2v-0.2h0.2V47.2z M49.4,46.9L49.4,46.9v0.2h-0.2v-0.2H49.4z M56.4,47.2L56.4,47.2z M26.7,47.2L26.7,47.2z
	 M29.8,47.2L29.8,47.2z M28.8,47.4h-0.2v-0.2L28.8,47.4z M37.9,47.4L37.9,47.4L37.9,47.4z M27.1,47.4L27.1,47.4z M28.3,47.7
	L28.3,47.7z M50.6,47.4L50.6,47.4z M28.6,47.4L28.6,47.4z M29.3,47.7L29.3,47.7v0.2h0.2v0.2h-0.2v-0.2H29v-0.5h0.2L29.3,47.7z
	 M52.1,47.7L52.1,47.7z M27.4,47.4h0.2v0.2h0.2l0,0h0.2v0.2h0.2v0.2l0,0v0.2h0.2v0.5h-0.2l0,0h-0.2l0.2,0.2h-0.2v-0.2l0,0v-0.2h0.2
	v-0.2h-0.2v0.2h-0.2v-0.2h-0.2v-0.5h-0.2v-0.2l0,0L27.4,47.4z M27.6,47.4L27.6,47.4L27.6,47.4z M27.1,47.7L27.1,47.7z M27.8,47.4
	l0.2,0.2h-0.2V47.4z M36,47.7L36,47.7l0.2,0.2H36V47.7z M50.2,47.7L50.2,47.7v0.2h-0.2v-0.2H50.2z M52.1,47.7L52.1,47.7z M38.2,47.9
	h0.5v0.2h0.2l0.2,0.2l0,0h0.2l0,0h0.5v0.2h0.5l0,0h0.2v0.2l0.2,0.2H41v0.2h0.2v0.2h0.2l0,0H42v0.2h0.2v-0.2l0.2,0.2v-0.2l0,0v-0.2
	h0.7v0.2h0.2v0.2h0.2v0.2h-0.2v0.2h0.2l0,0h0.2l-0.2-0.2h0.5l0.2-0.2h0.2v-0.2l0.2-0.2v0.5h-0.2v0.2h0.5v0.2h-0.2v0.2h0.2v0.2h-0.2
	l0.2,0.2v0.5h0.2v0.2h-0.5v0.5h-0.2l0,0h-0.2v0.2h-0.2v0.2h-0.2v0.5h0.2v0.2l-0.2,0.2h-0.5v0.2h-0.2l0.2,0.2h-0.2v0.2H43v-0.2h-0.2
	l0,0l-0.2,0.2h-0.7v0.2h-0.5v0.2H41v0.5h-0.2v0.2h-0.5v-1.4h-0.2v-0.2h-0.2v-1l0.2-0.2v-0.5h-0.2v-0.5h-0.2v-0.2h0.2v-0.2h-0.2v-0.7
	h-0.2v-1.4h-0.2v-0.2l-0.2-0.2h-1v-0.5h-0.2v-0.2h0.2v-0.2h0.2L38.2,47.9z M28.3,47.7L28.3,47.7L28.3,47.7z M51.1,47.9h-0.2v-0.2
	L51.1,47.9z M51.8,47.9h0.2l0,0H51.8L51.8,47.9z M46.6,47.9L46.6,47.9z M47,47.9L47,47.9z M49.2,47.9L49.2,47.9z M35.5,48.1
	L35.5,48.1z M44.4,48.1L44.4,48.1z M56.4,48.1L56.4,48.1z M28.6,48.1h0.2v0.2L28.6,48.1z M52.3,48.1L52.3,48.1z M52.6,48.4h-0.2l0,0
	H52.6z M50.6,48.6h-0.2v-0.2h0.2V48.6z M52.6,48.4L52.6,48.4z M29.3,48.6L29.3,48.6L29,48.4h0.2L29.3,48.6z M28.1,48.6v0.2l-0.2-0.2
	H28.1z M52.8,48.9v-0.2l0.2,0.2H52.8L52.8,48.9z M28.8,48.9L28.8,48.9z M52.8,48.9v0.2H53l0,0h0.2v0.2h0.2v0.5h-0.2v-0.2H53v-0.2
	l0.2,0.2v-0.2H53v-0.2h-0.2V48.9L52.8,48.9L52.8,48.9z M53.3,49.1l0.2-0.2v0.2l0,0l0.2,0.2h-0.2L53.3,49.1L53.3,49.1z M51.4,48.9
	h0.2v0.2h0.2l0.2,0.2v0.2h0.2v0.2h0.2v0.2h-1v-0.2h-0.2v-0.2h-0.2v-0.2h-0.2v-0.2l0,0v-0.2L51.4,48.9L51.4,48.9z M53.8,48.9v0.2
	h-0.2v-0.2H53.8z M29.3,48.9v0.2H29v-0.2H29.3z M28.3,49.3v-0.2l0,0V49.3z M56.6,49.1L56.6,49.1z M43.2,49.3L43.2,49.3z M45.8,49.3
	L45.8,49.3z M53.7,49.6L53.7,49.6z M27.8,49.6L27.8,49.6z M37.4,49.6l-0.2-0.2L37.4,49.6z M53.7,49.3H54v0.2h-0.2L53.7,49.3z
	 M45.8,49.3v0.2h-0.2v-0.2H45.8L45.8,49.3L45.8,49.3z M28.3,49.6L28.3,49.6z M50.4,49.6L50.4,49.6z M57.4,57l-0.2-0.2l-0.2-0.2v-0.2
	h-0.2v-0.2h-0.2v-0.2h-0.2v0.2h0.2v0.7h0.2V57l0.2,0.2v0.2l0.2,0.2h-0.5v-0.2h-0.2l-0.2-0.2h-0.5l0,0L55.4,57v-1h-0.2L55,55.8v-0.2
	l-0.2-0.2v-0.2H55v-0.2h-0.2v-0.5H55l-0.2-0.2v-0.2l-0.2-0.2l-0.2-0.2H54v-0.5h-0.5v-0.2h-0.2v-0.2H53v1h-0.2v-0.2h-0.2V53l0,0v0.2
	L52.3,53v-0.5h-0.2v-0.7h-0.2v-0.5h-0.2V51h-0.2v-0.5h-0.2v-0.2h-0.2v-0.5l0,0l0,0h0.2l0.2,0.2l0.2,0.2h0.2v0.2h0.2l0,0l0,0
	l-0.2-0.2h0.5v0.5h0.2V51h0.7v-0.2h0.2v-0.2h0.2v-0.2H54v0.2h0.2v-0.2l0.2,0.2v0.2l0,0l0.2,0.2v0.2H55v0.2l0,0v-0.2h0.2v1h0.2v0.5
	h0.2v1.2H56v0.2h0.5v0.2h0.2v0.2h0.2v0.2l0,0v0.2h0.2v0.5h0.2v0.2h0.2v0.2h0.2v0.5h-0.5v-0.3h-0.2v0.2l0.2,0.2L57.4,57z M27.8,49.8
	L27.8,49.8z M45.1,50.1L45.1,50.1v-0.2l0,0V50.1z M43.7,49.8L43.7,49.8z M49.9,49.8L49.9,49.8z M27.8,49.8h0.2v0.7h-0.2l0,0l0.2-0.2
	h-0.5l0.2,0.2h-0.2v-0.2h-0.2l0,0h0.2v-0.2h0.2L27.8,49.8L27.8,49.8L27.8,49.8z M45.4,49.8v0.2h-0.2L45.4,49.8L45.4,49.8z
	 M27.1,49.8v0.2h-0.2L27.1,49.8L27.1,49.8z M28.3,50.1L28.3,50.1z M45.6,50.3L45.6,50.3z M29.8,50.3L29.8,50.3z M33.1,50.3
	L33.1,50.3z M33.1,50.3L33.1,50.3z M32.9,50.3L32.9,50.3z M26.4,50.3L26.4,50.3z M57.6,50.3L57.6,50.3z M45.1,50.3L45.1,50.3z
	 M33.1,50.3L33.1,50.3L33.1,50.3z M27.1,50.5L27.1,50.5h-0.2v-0.2h0.2V50.5z M29.8,50.5L29.8,50.5z M26.2,50.3h0.2v0.5h0.2V51h0.2
	v0.7L26.6,52h0.2v0.2h0.2v0.2h0.2v0.2h-0.2v-0.2h-0.2v0.5h0.2v0.5h0.2v0.2l0.2-0.2l0.2,0.2h-0.2l0.2,0.2v0.5h0.2l0,0h0.2v0.2l0,0
	v0.2h0.2l0,0l0.2,0.2l0,0l0,0h-0.2l0.2,0.2h-0.2v0.2h-0.2v0.2h-0.2V56l-0.2-0.2h-0.2V56h-0.5v0.2h-0.2v1.2l-0.2,0.2h-0.7V58h-0.7
	L25,58.2h-0.2v0.5L25,59v0.2h-0.2V59h-0.2v0.2h0.2v0.2H25v0.5h-0.2v0.5h-0.2v0.5h-0.2v0.7h-0.5v0.5h-0.2l0,0h-0.2v0.2h-0.7v0.2h-0.2
	l0.2,0.2h-0.2v1h-0.5V64h-0.3v0.2l-0.2,0.2l0,0h-0.2v0.2h-0.2L20.6,65h-0.5v0.2l0,0v0.2l-0.2,0.2h-0.5v0.2h-0.2v0.2H19l-0.2,0.2v0.2
	h-0.2v-1h0.2v-0.2l0,0v-0.5H19v-0.5h0.5v-0.2l0,0v-0.5h0.2v-0.5H20V63l0,0l0.2-0.2l0,0v-0.2h0.2v0.2h0.2V62h0.5v-0.2h0.2l0.2-0.2
	v0.2h0.2v-0.2h0.2v-0.2l0,0v-0.2h0.2v-0.2l0,0v-0.2h0.2v-0.2h0.2v-0.2H23v-0.2h-0.2l0.2-0.2h0.2v-0.5h0.5v-0.5H24V58l0,0v-0.2h0.5
	l-0.2-0.2h0.2l0,0h0.2v-0.2l0,0V57h-0.2v-0.2h0.7v-0.5h0.2v-0.2h-0.2v-0.2h0.2l0,0h0.2v-0.2h0.2v0.2h0.2v-0.5h0.2v-0.2h-0.2l0,0h0.2
	l0,0l0.2-0.2v-1h-0.5v-0.2h-0.2v-0.2h-0.2v-0.2l0,0v-0.2h0.2v0.2l0,0l0,0h0.2v0.2h0.2v0.2h0.2l0.2,0.2l0,0l0.2,0.2v-0.2l-0.2-0.2
	v-0.2l0.2,0.2l-0.2-0.2h-0.2l0,0h-0.2v-0.2l0,0v-0.2h-0.5v-0.5h0.2l0,0h-0.2l0.2-0.2h-0.2l0,0h0.2v0.2h0.2v-0.7h-0.2l0,0h-0.2v-0.2
	l0.2,0.2V51l0,0v-0.2l0,0L26.2,50.3L26.2,50.3z M54.5,50.5L54.5,50.5z M39.4,50.5h-0.2l0.2-0.2V50.5z M27.4,50.5L27.4,50.5z
	 M29.3,50.5h0.2v0.2L29.3,50.5z M26.6,50.8h-0.2l0.2-0.2L26.6,50.8z M32.9,50.8L32.9,50.8z M27.6,50.8L27.6,50.8z M49.2,51H49v-0.2
	h0.2L49.2,51z M27.4,51L27.4,51z M32.6,51h-0.2l0.2-0.2L32.6,51z M45.4,51h0.2v0.2L45.4,51L45.4,51z M48.5,51.2l0.2,0.2v0.2l0,0
	L48.5,52v-0.2l-0.2-0.2V51h0.2V51.2z M55.5,51v0.2h-0.3V51H55.5z M50,51l0.2,0.2l0,0v0.2l0,0V52H50v0.2h0.5V53l0.2,0.2v1l0.2,0.2
	v0.2h0.2v0.2h-0.2l0,0h0.2v1l0,0v0.2h-0.2v0.2h-0.2v0.2h-0.5V57H50v0.5h-0.2V58H50v0.5l-0.2,0.2v1.4l-0.2,0.2v0.2l-0.2,0.2H49v-0.5
	h-0.2v-2.2h-0.2V58h0.2v-0.5l0.2-0.2v-0.5l0.2-0.2v-0.2L49,56.1h0.2v-0.2l0.2-0.2v-1.2l0.2-0.2v-1.2H50v-0.2h-0.2l0.2-0.2h-0.2v-0.2
	l0,0v-1H50L50,51z M26,51.2L26,51.2z M55.5,51.2L55.5,51.2z M45.4,51.5L45.4,51.5z M27.2,51.2L27.2,51.2z M27.6,51.2L27.6,51.2
	L27.6,51.2z M34.1,51.5h-0.2v-0.2h0.2V51.5z M27.6,51.2L27.6,51.2z M45.6,51.2L45.6,51.2z M26,51.2v0.2h-0.2v-0.2H26z M34.8,51.5
	L34.8,51.5z M25.5,51.5L25.5,51.5z M45.6,51.5L45.6,51.5z M25.7,51.5L25.7,51.5z M25.7,52v-0.2h-0.2l0,0h0.2V52z M26,51.5L26,51.5z
	 M27.2,51.5h0.2v0.2h-0.2l0,0l0,0V51.5z M49.5,51.7L49.5,51.7z M34.3,52h-0.2v-0.2h0.2V52z M25.7,51.8L25.7,51.8z M45.6,51.8V52
	l-0.2,0.2v-0.5L45.6,51.8z M25.4,52L25.4,52z M25.9,52L25.9,52z M27.6,52h0.2v0.2l0,0V52H27.6z M58.6,52L58.6,52L58.6,52z M58.1,52
	L58.1,52z M48.3,52.2L48.3,52.2z M27.4,52.2h0.2v0.2h-0.5V52L27.4,52.2z M26.2,52v0.2l0,0V52z M27.8,52.2L27.8,52.2z M48.2,52.2
	L48.2,52.2z M28.1,52.5h-0.2v-0.2L28.1,52.5z M46.1,52.5L46.1,52.5z M59.8,53h-0.2v-0.3h-0.2v-0.2l0.2,0.2h0.2V53z M52.1,52.7
	L52.1,52.7z M25.9,52.5V53l-0.2-0.2v-0.2L25.9,52.5z M33.8,52.5L33.8,52.5z M33.6,52.7h-0.2l0.2-0.2V52.7z M58.8,52.7h-0.2v-0.2
	L58.8,52.7z M46.1,52.7h0.7V53H47l0,0h0.7v0.2H48v0.2h0.2L48,53.7h0.2v0.5H48v0.2h0.2v0.5L48,55.1l0,0v0.2l-0.2,0.2v1l0,0V58h-0.2v1
	h0.2v1H48v0.2h-0.2l0.2,0.2l0,0h0.2v0.2h0.2V61h0.2v0.2H49v0.2h0.2v0.7L49,62.3v0.2h-0.2v0.2H48l0,0h-0.5v-0.2l-0.2-0.2L47,62.1
	v-0.5h-0.2v-0.2h-0.2v-0.2h-1l-0.2-0.2l-0.2-0.2h-0.2v-0.2h-0.2v-0.2h-0.2v-0.2h-0.2v-0.2h-0.2v-0.2l0,0v-0.2l-0.2-0.2V58h1.4v-0.2
	l0.2-0.2h0.5v-0.2h-0.2v-0.5h-0.2v-1h-0.2v-0.2h-0.2v-0.5h-0.2l0.2-0.2v0.2l0.2-0.2v-0.5h0.2v-0.2h-0.2l0.2-0.2h-0.2v-0.5h-0.2
	l0.2-0.2l0,0v-0.2h0.2v0.2l0.2-0.2v-0.2L46.1,52.7L46.1,52.7z M34.6,52.7L34.6,52.7z M36,52.7L36,52.7L36,52.7z M33.4,52.7
	L33.4,52.7z M48,52.7L48,52.7z M27.6,52.9L27.6,52.9z M28.1,52.9L28.1,52.9z M35.1,53.2L35.1,53.2z M35.3,53.2v0.5H35v-0.5H35.3z
	 M26.4,53.2v0.2l-0.2-0.2H26.4z M8.2,53.4H7.9v-0.2h0.2L8.2,53.4z M28.1,53.7h-0.2v-0.2L28.1,53.7L28.1,53.7z M8.4,53.4L8.4,53.4
	L8.4,53.4z M34.8,53.4L34.8,53.4z M59.5,53.9H60v0.2h-0.7v-0.2H59v-0.2h0.2l0,0h0.2l-0.2,0.2L59.5,53.9z M53.3,53.9H53l0.2-0.2h0.2
	v0.2H53.3z M60.7,53.9h-0.2l0.2-0.2V53.9z M44.2,54.1v1.2h-0.2l0.2,0.2h-0.2l-0.2-0.2v0.5l-0.2-0.2l0,0h-0.2v-0.5h0.2v-0.2l-0.2,0.2
	v-0.7h0.2v-0.5h0.5v0.2L44.2,54.1z M34.6,54.1L34.6,54.1z M8.4,54.1L8.4,54.1z M28.6,54.1v0.2l-0.2-0.2H28.6z M52.8,54.1h0.5v0.5
	h-0.5C52.8,54.6,52.8,54.1,52.8,54.1z M31.4,54.1L31.4,54.1z M52.3,54.1h0.2l0.2,0.2v0.2h-0.2v0.2h-0.2
	C52.3,54.9,52.3,54.1,52.3,54.1z M31.4,54.6v-0.2l0,0V54.6z M29.3,54.4v0.2H30v0.2l0,0v0.2h-0.2v-0.2h-0.2v0.2h0.2v0.2h-0.2v0.2
	h-0.2L29,55.3v-0.2l0,0l-0.2-0.2h0.5L29.3,54.4L29.3,54.4z M25.9,54.9h-0.2l0.2-0.2V54.9z M26.2,55.1L26.2,55.1z M25.4,55.3
	L25.4,55.3z M25.9,55.1L25.9,55.1z M44.4,55.3L44.4,55.3z M48,55.6l0.2-0.2L48,55.6z M44.4,55.3v0.2h-0.2v-0.2H44.4z M57.4,55.6
	L57.4,55.6z M59.6,55.3v0.2h0.2v0.7H60v0.2l0,0V57h0.2v0.2l0.2,0.2v0.7h0.2v0.5h-0.2v-0.5H60V58l0,0v-0.2h-0.2v-0.3l0.2,0.2v-0.2
	h-0.7v-0.7l0,0v-0.5H59v-0.2h0.2l0,0l0.2-0.2v-0.2l0,0L59.6,55.3z M58.6,55.3h0.2v0.2h-0.2V55.3z M26.2,55.3L26.2,55.3L26.2,55.3z
	 M25.2,55.6L25.2,55.6z M25.4,55.6L25.4,55.6z M43.6,55.6l0.2,0.2l0,0h-0.2V55.6z M25.9,55.8L25.9,55.8z M1.9,55.8L1.9,55.8z
	 M59.5,55.8L59.5,55.8z M1.4,55.8L1.4,55.8z M25.2,56.1L25.2,56.1z M51.3,56.1v0.5h-0.2v-0.2h-0.2l0,0h0.2v-0.2l0.2,0.2V56.1z
	 M51.6,56.5L51.6,56.5z M27.3,56.5L27.3,56.5z M27.8,56.5L27.8,56.5z M27.6,56.5L27.6,56.5z M52.8,56.8V57h-0.2v-0.2L52.8,56.8z
	 M52.8,56.8L52.8,56.8z M1.7,57L1.7,57z M53,57L53,57z M53.5,57L53.5,57L53.5,57z M52.5,57L52.5,57z M53,57h0.2v0.2h0.2l0,0h0.2v0.2
	h0.7v0.2h0.2v0.5H55v0.2h-0.2v0.2H55v0.2h0.2v0.2H55v0.2l-0.2-0.2h-0.2v0.2h-0.2v0.2L54,59.9h-2.4v-0.2h-0.2v-0.5h-0.5v-0.5h0.2
	v-0.2l0,0v-0.2h0.5V58h0.5v-0.5l0.2-0.2V57H53z M57.3,57h0.2v0.2h0.2l0.2,0.2v0.2h0.2V58l0.2,0.2v0.2h-0.2V58H58v-0.2h-0.2l-0.2-0.2
	h-0.2V57z M54.7,57.2v0.2h-0.2l0,0l0,0l-0.2-0.2l0,0h0.2V57h0.2V57.2z M59.2,57.2L59.2,57.2z M26.8,57.2L26.8,57.2z M54.2,57.5
	L54.2,57.5z M24.7,57.5h-0.2v-0.2L24.7,57.5z M62.8,58.7h0.2v0.2l0,0v0.2h-0.7v-0.2h-0.2v-0.2l0.2,0.2v-0.2h-0.2v-1.2h0.2v0.2h0.2
	v0.5h0.2L62.8,58.7L62.8,58.7z M59.7,57.7L59.7,57.7z M0.2,57.7L0.2,57.7z M59.5,58L59.5,58z M60,58L60,58z M51.8,58L51.8,58z
	 M62.2,58.2h-0.2V58L62.2,58.2z M57.6,58.5h-0.2v-0.2L57.6,58.5z M62.2,58.2h-0.2l0,0H62.2z M25.7,58.2L25.7,58.2z M60,58.5L60,58.5
	h-0.2l0,0H60z M61.7,58.5L61.7,58.5z M60.5,58.5h-0.2v-0.2h0.2V58.5z M60.2,58.2v0.5L60,58.5l0,0h0.2L60.2,58.2z M51.1,58.5h-0.2
	v-0.2L51.1,58.5z M50.9,58.5v0.2h-0.2v-0.2H50.9z M61.9,58.5h0.2v0.2h-0.2V58.5z M24.9,58.5L24.9,58.5z M61.9,58.5L61.9,58.5z
	 M60.4,58.5v0.2l0,0l-0.2,0.2v-0.5L60.4,58.5z M43.6,58.5L43.6,58.5z M50.8,58.7L50.8,58.7L50.8,58.7z M54.9,58.7L54.9,58.7z
	 M60.2,58.9L60.2,58.9z M60,58.9v0.2h0.2v0.2h0.2v0.2h0.2v0.2h0.5v0.2h0.2l0,0h0.5v0.2h0.2v0.2h0.2l0,0h0.2v0.2h-0.2v0.2h0.5v0.2
	l0,0l0.2,0.2h0.2v0.2h0.5v-0.2h0.2v0.2l0.2,0.2h-0.2l0.2,0.2v0.5l0.2-0.2v0.2l0.2,0.2l0.2,0.2h0.2v0.5h0.2v0.5h-0.2l0,0L65,64.5v0.2
	h-0.2v0.2h-0.2v0.2h0.2v0.5H65l0,0h0.2v-0.2h0.2l0.2,0.2v-0.2H66v0.2h0.2v0.7L66,66.6h0.5v0.5h-0.2v0.2h0.5v-0.2H67v0.7l0,0v0.7
	l0.2-0.2v0.2H67v0.2h-0.2L67,69v0.2h0.5v0.2h0.2v0.2h0.5v0.7l0,0v0.2h0.2v0.2h0.2v0.2h-0.3v0.2h0.2v0.2h-0.2v0.2h0.2v0.2h0.2v0.2
	h-0.2v0.5l0,0v0.2l-0.2-0.2v0.7h-0.7V74l0,0v0.2h0.2v0.5l-0.2-0.2v-0.2h-0.2v-0.2h-0.2v-0.2H67v0.5l0,0l0,0l0.2,0.2l0.2,0.2l0.2,0.2
	h-0.2l0.2,0.2h-0.2v0.2l0.2,0.2v1.4l-0.2-0.2l0,0v-0.2h-0.3v-0.2L67,76.2v-0.5l-0.2-0.2v-1h-0.2v-0.2h-0.2L66,74.1v-0.5h-0.2v-0.2
	h-0.2v-0.2h-0.2v-0.5H65v-0.2h-0.2v-0.7h-0.2v0.2h-0.2l-0.2,0.2v0.2h-0.2l0.2,0.2v0.5l-0.2,0.2l0,0h-0.2l-0.2,0.2v0.7h-0.2v0.5l0,0
	v1h0.2v-0.3l0.2,0.2l0,0l0.2,0.2l0.2,0.2h0.2v0.5h0.2v0.2h0.2v0.5H65v0.2h0.2v1.7H65v0.5h-0.2v0.5h-0.2v0.5h-0.2v0.5h-0.5V81h-0.2
	v-0.5l-0.2-0.2h-0.2V80h-0.2v-0.2l0.2-0.2h-0.2v-0.2h0.2v-0.2h0.2v-0.2h-0.2v-0.5h-0.7v1h-0.2v0.2H61l-0.2-0.2h-0.2l-0.2-0.2H60
	v-0.2h-0.7l-0.5-0.2v-0.2h-0.5v-0.2l-0.2,0.2v-0.2h-0.2l-0.2-0.2h-0.2v-0.2h-0.2v-0.2h-0.2v-0.2h-0.2V77h-0.2v-0.5h-0.2V76l0,0v-0.5
	l-0.2-0.2v-0.5h-0.2l-0.2-0.2v-1.2h0.2v-0.5h0.5v-0.2l0,0v-0.2h0.2v-0.5h-0.2v-0.2h0.2v-0.2h-0.7v-0.2l0,0v-0.2h-0.2l-0.2-0.2v-0.2
	L55,70.2h-0.2L54.5,70h-1v-0.2h-0.2v-0.3H53v-0.2h-0.7l0,0h-0.7v0.2h0.2v0.2h0.2v0.7h-0.2v0.2h-0.2v0.2h0.2v0.2h0.2l0.2,0.2l0,0v0.2
	h-0.5v-0.2h-0.2v-0.2h-0.2v-0.2h-0.5l0,0l0,0v0.2h-0.2v-0.2h-0.2v-0.2h0.2v-0.5h-0.2V70h-0.2l0,0h-0.2v1.2h-0.2L49.4,71v-0.3h-0.2
	v0.2l0,0v0.2L49,71.4v-0.2h-0.2v-0.2H49v-0.2h-0.2v-0.2h-0.2V70l0,0v-0.2l0.2,0.2v-0.2h-0.2v-0.3l0,0v0.2h-0.2l0,0L48,69.5h-0.5v0.2
	h-0.2L47,70v0.2h-0.2v0.5H47V71l0,0v-0.3h-0.2v0.2h-0.2v0.7h0.2l-0.2,0.2l0,0h-0.2v1.2l-0.2,0.2v0.7l0,0l-0.2,0.2h-0.2v-0.2h-0.5
	v-0.2h-0.2l-0.2-0.2v-0.2h-0.2v-0.5l0.2-0.2v-0.2h0.2v-0.2h0.2v-0.2h-0.2v-0.7l0.2-0.2l0,0v-0.2l0,0V70l-0.2-0.2v-0.5h0.2V69
	l0.2-0.2l-0.2-0.2h0.2l0.2-0.2l0.2-0.2H47v-0.2l0,0l0.2-0.2h0.2v0.2h0.7v-0.2h0.5v-0.2H49v-0.2l-0.2-0.2h-0.2v-0.2h0.2v-0.7l0.2-0.2
	h1.2v-0.2l0,0l0.2-0.2l0,0h0.2v-0.2h-0.3v-0.5l0.2,0.2h0.5l-0.2,0.2h0.2v0.2h0.2v0.2h0.2v-0.5h0.5v0.2h0.2v0.2h0.2v0.2h0.2v0.2H53
	v0.5h0.2v0.7h0.2v0.5l-0.2,0.2v0.2h-0.4v0.2h-0.2v0.2H53v-0.2h0.2v-0.2h0.2v-0.2h0.2v-0.2H54v-0.2h1.4v-1.9h0.2v-0.2h0.5v0.2h0.5
	v0.2h0.7v0.2h0.2l0.2-0.2h-0.2v-0.7l-0.2-0.2h0.2v-0.2l-0.2-0.2h0.2V64h-0.2v-0.7l0,0V63h0.5v0.2h0.5v0.2h0.2v0.2h0.2L59,64h0.5
	v-0.5l0,0l-0.2-0.2v-0.5h0.2V63h0.2v0.2h1L61,63v-1h-0.2v-0.5h-0.2v-0.2h-0.2v-0.5H60v-0.5h-0.2v-0.2l-0.2-0.2v-0.5h-0.2v-0.2
	l0.2-0.2l0,0h0.2l0.2,0.2L60,58.9z M61,58.9L61,58.9L61,58.9z M60.5,58.9h0.2v0.2h-0.2V58.9z M60.2,58.9L60.2,58.9z M60,58.9h0.2
	v0.2L60,58.9z M62.2,59.2h0.2v0.5h0.2v0.2l0,0v0.2h-0.5v-0.2l0,0v-0.5h-0.2L62.2,59.2C62.2,59.2,62.2,59.2,62.2,59.2z M61,59.2
	L61,59.2z M60.5,59.2L60.5,59.2z M62.4,59.2v0.2l0,0V59.2z M62.6,59.2h0.2v0.2h-0.2V59.2z M60.7,59.4L60.7,59.4h-0.2v-0.2h0.2V59.4z
	 M61,59.4L61,59.4z M63.1,59.4L63.1,59.4z M2.4,59.7L2.4,59.7z M37.9,60.1v-0.2l0,0V60.1z M51.6,59.9v0.2h-0.7v-0.2h0.5v-0.2
	L51.6,59.9z M63.6,59.9L63.6,59.9z M38.2,59.9L38.2,59.9z M61.2,59.9L61.2,59.9z M38.2,59.9L38.2,59.9z M52.1,60.6L52.1,60.6z
	 M24.7,60.9h-0.2v-0.2h0.2V60.9z M63.1,60.9v0.2l-0.2-0.2H63.1z M62.6,60.9L62.6,60.9z M21.6,61.6L21.6,61.6z M50.9,61.6l0.2,0.2
	l0.2,0.2h-0.2l0.2,0.2v0.2h-0.7l-0.2-0.2h-0.2v-0.2h0.2v-0.2h0.2v-0.2H50.9z M56.7,61.8l0.2,0.2l0.2,0.2v0.5h-0.2v-0.2h-0.5v-0.2
	l-0.2-0.2v-0.2L56.7,61.8L56.7,61.8z M24,62.1L24,62.1z M49.4,62.8h-0.2l0,0H49.4z M50.4,64L50.4,64z M51.4,65.2L51.4,65.2z
	 M66.3,65.9L66.3,65.9z M66.6,66.4l-0.2-0.2h0.2V66.4z M18.8,66.6l0.2,0.2l0,0l-0.2,0.2l0,0l-0.2-0.2h0.2V66.6z M19.3,66.6h0.2v0.5
	l0.2,0.2h-0.6v-0.2H19v-0.5L19.3,66.6z M66.6,66.9L66.6,66.9z M18.6,67.3h-0.2v-0.2h0.2V67.3z M18.1,67.6h-0.2v-0.2H18L18.1,67.6z
	 M18.6,67.3h0.2v0.2h-0.2V67.3z M19.3,67.6H19v-0.2h0.2L19.3,67.6z M18.8,67.8h-0.2l0,0H18.8z M18.3,67.8v0.2H18v-0.2l0,0l0,0H18.3z
	 M18.6,68.1L18.6,68.1z M18.6,68.3h-0.2v0.2h0.2v0.7l-0.2,0.2v-0.2H18v-0.5h-0.2l0.2-0.2h-0.2v-0.2H18v-0.2h0.5l-0.2,0.2L18.6,68.3z
	 M19.6,69.3L19.6,69.3z M19.6,69.5L19.6,69.5z M50.6,70.5L50.6,70.5z M47,71L47,71z M49.8,71.7L49.8,71.7V72h-0.6v0.2H49v-0.3
	l-0.2-0.2H49v-0.2h0.2v0.2h0.2l-0.2-0.2h0.5L49.8,71.7z M55.6,72.2L55.4,72h0.2V72.2z M46.5,72.2v-0.3h0.2L46.5,72.2z M65,73.2v0.7
	l0.2,0.2h-0.4l0,0l-0.2-0.2v-0.5h-0.2l-0.2-0.2v-0.5h0.2l0.2,0.2h0.2L65,73.2z M46.5,73L46.5,73z M27,73.7v0.2h-0.2v-0.2l0,0v-0.2
	H27V73.7z M46.7,73.7v0.2h-0.2v-0.2H46.7z M64.7,74.2h-0.2v-0.2h0.2V74.2z M46.5,74.2h-0.2v-0.2h0.2V74.2z M43.4,74.4H43v-0.2h0.2
	L43.4,74.4z M46.2,74.4L46.2,74.4L46.2,74.4z M47,74.4h-0.2l0.2-0.2V74.4z M45.8,74.4L45.8,74.4z M43,74.5L43,74.5z M67.7,74.8
	L67.7,74.8z M42.5,75L42.5,75z M47.5,75L47.5,75z M42.7,75h-0.2l0,0H42.7z M45.3,75v0.2h-0.2V75H45.3z M45.8,75H46v0.2h0.2l0,0
	l0.2,0.2h0.7v0.2h-0.7v0.7h-0.2L46,76.7h-0.7v-0.2h-0.2v-0.2h-0.2v-0.5h-0.4v-0.2l0.2-0.2h0.2l0,0h0.2l0,0h0.2V75H45.8L45.8,75z
	 M43.9,75.5L43.9,75.5z M43.4,75.5v0.2h0.2V76h-0.2V75.5l-0.2,0v-0.2h0.2L43.4,75.5z M43.4,75.5L43.4,75.5z M43.2,75.7L43.2,75.7z
	 M42.9,75.7L42.9,75.7z M43.9,76L43.9,76z M44.6,76L44.6,76z M44.9,76.4L44.9,76.4z M38.9,76.7L38.9,76.7z M38.4,77.4v0.2h-0.5v-0.2
	h0.2v-0.5h0.2C38.4,76.9,38.4,77.4,38.4,77.4z M45.6,77.2L45.6,77.2z M45.8,77.2L45.8,77.2z M39.8,77.2L39.8,77.2z M45.4,77.4
	L45.4,77.4z M38.9,77.2v0.2l-0.2,0.2v-0.2h0.2V77.2h-0.2l0,0H38.9z M45.6,77.2h0.2v0.2h-0.2L45.6,77.2z M39.8,77.6L39.8,77.6z
	 M40.6,77.9L40.6,77.9z M40.8,77.9L40.8,77.9z M40.3,77.9v0.2h-0.2v-0.2L40.3,77.9z M40.8,77.9L40.8,77.9h-0.2l0,0H40.8z M44.9,78.1
	v-0.2l0.2,0.2L44.9,78.1z M37.9,77.9v0.2h-0.2v-0.2L37.9,77.9z M40.3,78.1L40.3,78.1z M45.1,78.1v0.2l-0.2-0.2H45.1z M38.4,78.1
	L38.4,78.1L38.4,78.1z M40.8,78.1L40.8,78.1z M44.8,78.6h0.2l0.2,0.2v-0.2l0.2,0.2h-0.5v-0.2H44.8l-0.2-0.2h0.2L44.8,78.6z
	 M41.5,78.4v0.2h0.2v0.2h1.5v0.2H43v0.2h-0.2l-0.2,0.2h-0.2v-0.5H42l0,0h-0.2v0.2h-0.5l0,0h-0.7l0,0h-0.2v-0.7h0.5v-0.2L41.5,78.4
	L41.5,78.4z M41.7,78.4v0.2l-0.2-0.2H41.7z M43.2,78.6L43.2,78.6z M44.6,78.6h-0.2v-0.2L44.6,78.6z M43,78.9h-0.2v-0.2H43V78.9z
	 M45.9,78.6h-0.3l0,0H45.9z M44.4,78.9L44.4,78.9v-0.2h0.2v0.2H44.4z M43.7,78.9L43.7,78.9z M42.5,78.9L42.5,78.9z M37.7,79.1
	L37.7,79.1z M36.3,79.1L36.3,79.1z M44,79.1L44,79.1z M36.3,79.1L36.3,79.1L36.3,79.1z M35.8,79.1v0.2h-0.2v-0.2H35.8z M35.6,79.6
	L35.6,79.6z M36.3,79.6H36l0,0H36.3z M35.6,79.6L35.6,79.6z M35.8,79.6L35.8,79.6z M35.6,79.6L35.6,79.6z M42.3,79.8L42.3,79.8z
	 M41.6,79.6v0.2h-0.2v-0.2H41.6z M41.8,79.6l0.2,0.2l0,0v0.2h-0.2C41.8,80.1,41.8,79.6,41.8,79.6z M38,79.8L38,79.8z M34.4,80.1
	L34.4,80.1z M34.4,80.1L34.4,80.1z M38,80.3L38,80.3z M40.6,80.1v0.2h0.2v0.2h-0.2C40.6,80.5,40.6,80.1,40.6,80.1z M41.3,80.3
	L41.3,80.3z M40.3,80.5L40.3,80.5h-0.2l0,0H40.3z M41.3,80.5L41.3,80.5z M41.6,80.5l-0.2,0.2v-0.2H41.6z M37.4,81L37.4,81z M40.3,81
	L40.3,81z M40.6,81.2h0.2v0.2h-0.5V81h0.2L40.6,81.2z M70.6,81.2L70.6,81.2z M40.1,81.2h0.2l-0.2,0.2h-0.2v-0.2H40.1z M41.1,81.5
	L41.1,81.5z M64.8,81.7V82h-0.2v-0.2L64.8,81.7l-0.2-0.2h0.2V81.7z M39.8,81.5L39.8,81.5z M37.4,81.7L37.4,81.7z M37.2,81.7
	L37.2,81.7z M39.1,81.7l0.2,0.2h-0.2V81.7z M64.6,82v0.2h-0.5V82H64.6z M38.2,82.2h-0.2V82h0.2V82.2z M37.7,82.2L37.7,82.2z
	 M37.4,82.5l-0.2-0.2h0.2V82.5z M37.7,82.5h-0.2v-0.2h0.2V82.5z M37.2,82.5L37.2,82.5l0.2,0.2l0.2,0.2h-0.2v0.5h-0.2v-0.2H37l0,0
	h-0.2v0.2h-0.2l0,0h-0.2v0.2h-0.5v0.2h-0.2v-0.2l0,0l-0.2-0.2h0.5v-0.2H36V83h0.5v-0.3h0.2v-0.2H37v-0.2L37.2,82.5L37.2,82.5
	L37.2,82.5z M37.4,82.5L37.4,82.5z M37.7,82.5L37.7,82.5z M39.1,82.7L39.1,82.7z M37.7,82.7V83h0.2v0.2h-0.2V82.7L37.7,82.7z
	 M38.2,83v0.2h-0.2V83H38.2L38.2,83z M36,83L36,83z M37.9,83L37.9,83z M35.8,83L35.8,83z M39.8,83L39.8,83z M39.4,83L39.4,83
	L39.4,83z M37.9,83.2L37.9,83.2z M39.1,83.2L39.1,83.2z M38.9,83.4L38.9,83.4z M37.9,83.2v0.2l-0.2-0.2H37.9z M38.1,83.4L38.1,83.4z
	 M37.9,83.4L37.9,83.4z M35.5,83.9H35v-0.2h0.2l0,0h0.2L35.5,83.9z M37.9,83.4v0.2l0,0V83.4z M37.6,83.9L37.6,83.9z M37.4,84.2v-0.3
	h0.2L37.4,84.2z M35.2,83.9v0.2H35v-0.3L35.2,83.9z M37.2,84.2H37v-0.3L37.2,84.2z M36.4,84.2L36.4,84.2z M36.2,84.4L36.2,84.4z
	 M35.5,84.6h0.2v0.2h-0.2V84.6L35.5,84.6z M34,85.6l-0.2,0.2v-0.8h-0.2v-0.5h0.2v0.5l0.2,0.2L34,85.6z M33.3,84.9L33.3,84.9z
	 M36.2,84.7L36.2,84.7z M36.2,84.9H36v-0.2L36.2,84.9z M35.7,85.4h-0.2v-0.3h0.2V85.4z M33.6,85.4v0.5h-0.2l0.2-0.2h-0.2v-0.2
	L33.6,85.4z M33.6,86.1L33.6,86.1z M33.6,86.1L33.6,86.1z"/>
</svg>
