<?xml version="1.0" encoding="utf-8"?>
<!-- Generator: Adobe Illustrator 20.1.0, SVG Export Plug-In . SVG Version: 6.00 Build 0)  -->
<svg version="1.1" id="Layer_1" xmlns="http://www.w3.org/2000/svg" xmlns:xlink="http://www.w3.org/1999/xlink" x="0px" y="0px"
	 viewBox="0 0 143.1 106" style="enable-background:new 0 0 143.1 106;" xml:space="preserve">
<style type="text/css">
	.st0{fill:#C14803;}
</style>
<title>sundaland</title>
<path class="st0" d="M75,104.6v-0.2h0.2v0.2h0.2l0.2-0.2H76v0.2h-0.2v0.5l-0.2-0.2H75V104.6z M114.4,93.3h0.2l0.2,0.2h0.5v0.2h0.7
	v0.5h1.2v0.2h0.5l0.2,0.2h0.2V95h0.2v-0.2h0.5V95h0.2v-0.2h0.5l0.2,0.2v0.2h0.2l-0.2,0.2h0.7v0.2h0.5V95h-0.5v-0.2h-0.5V94l-0.2,0.2
	V94l-0.2-0.2v-0.2l0.2-0.2v-0.5h-13.4V93h1.2v0.2h1.7v0.2h0.7v0.2h1.4v-0.2h0.5l0.2,0.2l0.2-0.2v-0.2h0.2L113,93h1.4L114.4,93.3z
	 M125.9,95.7h0.7v-0.2h-0.2v-0.2h-0.7v0.2h0.2V95.7z M123.5,92.1l-0.2,0.2H123v0.2h-1.2v-0.2h-1.2v-0.2h-0.5v0.7h0.2v0.2h0.2v0.2
	h0.2v0.2h0.2v0.2h0.5v-0.2h0.2v0.2h0.5l0.2,0.2h0.5v0.2h0.2v0.2h0.2v0.2h0.2V95h0.3v0.2h0.2v0.2h0.2v-0.2h0.2V95l0.2-0.2h0.2v-0.2
	h0.7v-0.2h0.5V94h0.2l0.2-0.2v-0.2l-0.2-0.2h-0.2V93l-0.2-0.2h-0.2v-0.2h-0.5v-0.2H125v-0.2h-0.7v-0.2h-0.5v0.2L123.5,92.1z
	 M114.1,94v0.2h0.5l0.2-0.2h-0.2v-0.2l-0.2,0.2H114.1z M75.3,80.6l0.2,0.2l-0.2,0.2H75v0.2h-0.2V82h-0.2v0.5l0.2,0.2h-0.2v1h-1v0.7
	h-0.2v0.2h-0.2v0.5l-0.2,0.2v0.2h0.7v-0.2H76l0.2,0.2h0.2v0.2H77v0.2h0.5v0.2h0.5v-0.2h0.7v0.7h-0.2v0.2h-0.2v0.2h-0.3V88l0.2,0.2
	h0.5v0.2h2.2l0.2,0.2h1.2l0.2,0.2h1.2v0.2h0.7v0.2h0.2l0.2,0.2h0.2v0.2h0.5v0.2h1.2v0.2H88v0.2h1v-0.2h0.2v-0.2H89v-0.2h1.7v-0.2
	h0.2v-0.2h0.2l-0.2,0.2h0.2v0.2h-0.5v0.2h0.7v-0.2h0.2v0.2h-0.2l0.2,0.2h0.5v-0.2h-0.2v-0.2h1.6v0.2h0.2v0.2h0.5v-0.2l0.5,0.2h0.7
	l0.2,0.2h0.7l0.2,0.2h0.5l0.2,0.2h0.2l0.2,0.2h0.2l0.2,0.2h0.5v0.2h0.5v0.2h0.5v0.2h0.7v0.2h1.4v0.2h1l0.2,0.2h0.5v-0.2h0.2V93h1
	v0.2h0.7v0.2h0.4V93h0.2l0.2-0.2h13.4v-0.7h0.2v-0.7h-0.2v-0.2h0.2v-0.7h-0.5v-0.2h-0.5l-0.2-0.2v0.2l-0.2-0.2h-0.5v-0.2H118v-0.2
	h-0.2v0.2h-0.2v0.2h-0.7v0.2h-0.5v-0.2h-0.2v0.2h-0.5v-0.2h-0.5l-0.2,0.2h-0.5v0.2h-0.5v-0.2h-1v-0.2l-0.2-0.2h-0.2v0.2h-0.2v-0.2
	H112v-0.2h-0.2v-0.2h-0.5v-0.5H111v-0.2h0.5v-0.7h-0.2v-0.5H111l-0.2,0.2h-0.2V87h-0.2v-0.2H110v-1.2l-0.2,0.2h-0.2v-0.2h-1.4v0.2
	h-0.5v-0.2h-0.5v-0.2h-0.2v-0.2h-1.4l-0.2-0.2l-0.2-0.2l-0.2-0.2h-0.7v0.2h-1.7v-0.2h-0.2l0.2-0.2h-0.2v-0.5h-0.2v-0.5h-1.4v0.2
	h-0.2l-0.2,0.2v1h-0.2v0.5h-0.2v0.5h-0.2v0.2H99v0.2h-0.7l-0.2-0.2h-0.2v-0.2h-0.7v0.2h-1.4v-0.2h-1v-0.2h-1.2v0.2h-1.2l-0.2-0.2
	v0.2l-0.2-0.2h-0.2v-0.2h-0.2v0.2h-0.7v-0.2h-0.2v0.2h-0.7v-0.2h-0.5v-0.5h-0.2v-1.2h-0.5v-0.2h-0.2V83L88,82.8h-0.2v-0.2h-0.3v-0.2
	h-0.2v0.2H87v0.2h-1v-0.2h-0.2l-0.2-0.2h-0.4V82h-0.5v0.2h-0.2l-0.2,0.2v-0.2h-0.2V82h-0.5v-0.2h-0.2l-0.2-0.2l-0.2-0.2V81h-0.2
	v-0.2h-0.7V81h-0.2l-0.2-0.2H81v-0.2h-0.2V81h-0.2l0.2,0.2v0.2H80l-0.2,0.2v-0.2h-0.7V81h-0.5v0.2h-0.2V81h-0.2v0.2h-0.5V81h-0.5
	l-0.2-0.2h-0.2V81h-0.2v0.2h-0.2V81H76v-0.5h-0.2v-0.2h-0.3v0.2L75.3,80.6z M113.2,85.6h-1.7v0.2h-0.2v0.2l-0.2,0.2l-0.2,0.2h-0.2
	v0.2h0.2v0.5h0.2l0.2-0.2l0.2,0.2h0.7l0.2,0.2h0.5v-0.2l-0.2-0.2h0.2v0.2h0.2v0.2h2.2V87h0.5v-0.2h0.5V87h0.7v-0.2h-0.2v-0.2h0.5
	v-0.2h0.8v-0.5h-0.2l-0.2-0.2h-4.1v0.2L113.2,85.6z M127.3,87.3h0.2l-0.2-0.2V87.3l-0.2-0.2h-0.5l0.2,0.2H127.3z M119.2,87.3h0.5V87
	h-0.2v-0.5h-0.5v0.2l0.2,0.2V87.3z M123.7,85.6v0.5h0.3v0.2h0.2v-0.2h0.2v-0.2h0.7l0.2,0.2v0.2h0.2v-0.2h0.2l-0.2-0.2h-0.2v-0.2
	h-0.2l-0.2-0.2h-1v0.2L123.7,85.6z M72.1,84.9h-0.2v0.2h-0.2v0.2h0.2v-0.2h0.2l0.2,0.2h0.5v-0.2h-0.2v-0.5h-0.2v-0.2h-0.2L72.1,84.9
	L72.1,84.9z M71.4,84.4h-0.2l0.2,0.2V84.4h0.2v-0.5h-0.5l-0.2,0.2v0.2h0.2v-0.2h0.2L71.4,84.4z M54.9,77.4v0.2h0.2v0.2h0.2v0.2h0.2
	v0.2h0.7v-0.7h-0.5l-0.2-0.2h-0.2l-0.2-0.2v0.2L54.9,77.4z M127.3,69.2h0.2V70h0.2v0.2h-0.2v0.5h0.5l0.2-0.2v-0.2h0.5V70h0.2v-0.5
	h-0.2v-0.2h0.2V69h-0.2v-1.4l-0.2-0.2v-0.5l0.2-0.2h-0.5l-0.2,0.2h-0.2v0.5l-0.2,0.2v0.2h-0.2l0.2,0.2l-0.2,0.2v1L127.3,69.2z
	 M128.1,64.7h0.2v0.7h0.2l0.2-0.2V65h0.2v-0.7h-24.2v0.5L105,65l0.2,0.2v1.9l0.2,0.2l-0.2,0.2v0.5h0.2l0.2,0.2l0.2-0.2l0.2-0.2h0.2
	v-0.2h0.2v-0.2l0.2-0.2h0.2l0.2-0.2h0.7v0.2h0.2l0.2,0.2h0.2l0.2,0.2v-0.2h0.5l0.2-0.2h0.2l0.2-0.2l0.5-0.2l0.2-0.2h0.2V66H111
	l0.2-0.2v-0.2h0.2V65h0.2v0.5h0.3l0.2,0.2h0.2V66l0.2,0.2h0.2v0.2l0.2,0.2h0.2v0.2l0.2-0.2v-0.2h0.2v-0.2h0.7v0.2l0.2,0.2v0.7h-0.2
	v0.2h0.2l0.2,0.2h0.2l0.2-0.2h0.5v-0.2h0.5v-0.2h0.4v-0.2l0.2,0.2l0.2,0.2h0.5v-0.2h0.2l-0.2,0.2h0.2v0.2h0.5l0.2,0.2h0.5v0.2h0.2
	v0.2h0.2V70l0.2,0.7v0.5l-0.2,0.2h0.5l0.5-0.2h0.2l0.2-0.2h0.2v-0.2h0.5l0.2-0.2h0.2v-0.2l0.2,0.2v-0.2h0.5V70h0.2l0.2-0.2h0.5
	l0.2-0.2h0.5v-0.2h0.5V69h0.5l0.2-0.2l0.2-0.2h0.7v-0.5h0.2v-1h0.2v-0.5h0.2v-0.2h0.2v-0.2h0.2v-0.2h0.2v-0.2h-0.5v-0.5h-0.2v-0.7
	h0.2L128.1,64.7z M44.1,64.7h0.2V65h-0.2v0.2h0.2v0.5h0.5V66H45v0.7h0.2v0.2h0.2v0.2h0.2v-0.2l-0.2-0.2l-0.2-0.2h0.2v-0.2h0.2
	l0.2,0.2v-0.2L45.7,66v-0.5h-0.2v-0.2h-0.2V65H45v-0.2l-0.2-0.2h-0.2v-0.2H44L44.1,64.7L44.1,64.7z M83.7,63h-0.5v1.2h-0.2v0.5h-0.2
	V65h0.2v-0.2h0.2V65h-0.2v1h0.2v0.2l-0.2,0.2h0.7v-0.2h0.7v-0.5h0.2V66h0.2v0.2h0.2v0.5h0.2v-0.2h0.2v-0.2h0.5v-0.5h0.5v-0.2h-0.2
	V65l0.2-0.2V64h-0.2v-0.2h-0.5l0.2-0.2h-0.2v-0.2h-0.5v0.2h-0.2V63h-1v-0.2h-0.2V63L83.7,63z M73.1,58v0.5l0.2,0.2h-0.2V59h-0.2
	v-0.2h-0.2v-0.2h0.2v-0.2h-0.2V58h-0.2v-0.5h-0.2v0.2h-0.5L71.4,58h-0.2v0.7h0.2V59h-0.2v0.2h-0.2v0.2h-0.5v0.2H70v0.7h0.7v0.2h1.2
	v-0.2h0.2l0.2,0.2h0.7l0.2,0.2l0.2,0.2l-0.2,0.2h0.2v0.7l0.2,0.2h0.5v0.5h-0.2v1h0.2v0.5h0.5v0.2h0.7v0.2h0.7V65h0.2v0.2H77v0.2h0.2
	v0.2l0.2,0.2h0.2v-0.2h1v-0.5l0.2,0.2h0.5V65h-0.3v-0.2h-0.5V65h-0.2v0.2h-0.5V65h-0.2v-0.2h0.2v-0.5l0.2-0.2v-0.5h0.2v-0.2h0.2
	v-0.2h-0.2v-0.2h-1l-0.2-0.2h-0.7v-0.2h-0.2v-0.2H76v-0.2h-0.2v-0.7h-0.3v-0.7l-0.2-0.2v-0.5h0.2v-0.2h-0.2v-0.2H75v-0.5h-0.2v-0.2
	h-0.2V58h0.2v-0.2H74v-0.2l-0.2-0.2v0.2h-0.7V58z M82,64.8V65h0.2v0.2h0.2v-0.7h-0.2v-0.2H82V64.8L82,64.8z M42.9,63.1h0.2v1.4h0.2
	v-0.2h0.2v0.2h0.2v-0.2h0.2V64h0.2v-0.2h-0.2v-0.5h-0.5V63h-0.2v-0.2h-0.2v-0.2h-0.2L42.9,63.1L42.9,63.1z M40.7,60.7v0.2h-0.2
	l0.2,0.2v0.2h0.2v0.2l0.2-0.2v0.2h0.2v0.5h0.2v-0.2h0.2v0.2h0.5l-0.2-0.2v-0.2h-0.2v-0.2h-0.2v-0.5h-0.2v-0.5h-0.2v-0.2h-0.5V60.7z
	 M35.9,55.1v0.2h-0.2v0.5h-0.2l0.2,0.2v0.2l0.2,0.2l0.2,0.2v0.2h0.2v0.2l0.2,0.2v0.2h0.2v0.5h0.2v0.2h0.2l0.2,0.2l0.2,0.2H39v-0.2
	h0.2V58h-0.5l0.2,0.2v0.2h-0.2v-1.2h-0.5V57l0.2,0.2v-0.5h-0.2v-0.2H38v-0.5h-0.2v-0.5h-0.2v-0.2l-0.2-0.2v-0.2h-0.2v-0.2h0.2v-0.2
	h-0.7v0.2h-0.7L35.9,55.1L35.9,55.1z M89.4,57.8v0.5h0.5V58h0.2v-0.2h-0.2l-0.2-0.2v0.2L89.4,57.8z M34.4,50.3v0.2h0.2v0.2l0.2,0.2
	h-0.5v0.2l-0.2,0.2v0.7H34v0.2h0.5v0.2h0.2v-0.2l0.2-0.2v-0.7h0.2L35,51.3h0.5v-0.2h-0.2v-0.2H35v-0.7h-0.3v-0.5h-0.5v0.2H34v0.5
	h0.2v-0.2h0.2L34.4,50.3z M66.1,51.8h-0.2v-0.2h-0.5V52h-0.2v0.2h0.2l0.2,0.2V53h0.2v-0.2h0.2v-0.2l0.2,0.2V53h0.2v-0.5l0.2-0.2
	l0.2-0.3h-0.2v-0.5h-0.2l-0.2-0.2V51h-0.5l0.2,0.2L66.1,51.8L66.1,51.8z M68,51.1h0.2v0.2h0.5v-0.2H69l-0.2-0.2h-0.2v-0.2l-0.2-0.2
	v0.2h-0.5v0.2H68L68,51.1z M66.6,49.9v0.5h-0.2l-0.2,0.2v0.2h0.5v0.2l0.2-0.2h0.5v-0.2h0.5v-0.2l-0.2-0.2h-0.2l-0.2-0.2h0.2v-0.2
	h-0.5v-0.2h-0.2L66.6,49.9L66.6,49.9z M36.6,49.1h0.2v-0.2l-0.2-0.2h-1.4v0.5h1.2v-0.2h0.2L36.6,49.1z M67.1,49.1h0.2v-0.2h-0.2
	v-0.2h-0.2v0.2L67.1,49.1z M65.9,47.9h0.2v-0.2h-0.2l-0.2-0.2v0.2L65.9,47.9z M28.4,41.9v0.2H28l-0.2-0.2h-0.3l-0.2,0.2h0.5v0.2H28
	v0.2l0.2,0.2h0.2v0.5h0.2v0.2H29v0.2l0.2,0.2v0.5h0.5v0.2h0.2v0.2h0.2v0.2h0.2v0.2h0.2v1h1v-0.2h0.2v-1.7h0.2v-0.2h-0.2v-0.5
	l-0.2,0.2v-0.2h-0.2v-0.2l-0.2-0.2h-0.5v-0.2h-0.2v-0.5h-0.2v-0.2H30v-0.5h-0.2v-0.2h-1v0.2H28.4z M60.6,45.3v0.5l0.2,0.2v0.2h0.5
	v-0.7h0.2v-0.2l-0.2,0.2v-0.7h-0.5l0.2,0.2h-0.2v-0.2h-0.2V45.3z M62.5,45.3h0.2v0.2H63v-0.5h-0.2v-0.2h-0.2L62.5,45.3L62.5,45.3z
	 M64.9,45.5v0.2h0.5v-0.5h-0.2v-0.5h-0.2l-0.2,0.2v0.2h0.2L64.9,45.5z M63.2,45.3h0.2v-0.2h-0.2v-0.2H63v0.2L63.2,45.3z M65.6,43.4
	v0.2h-0.5v0.7h0.5v-0.2h0.7v0.2h-0.2v0.7h0.2v-0.2h0.2l-0.2,0.2h0.2l0.2,0.2h-0.2v0.2h0.2l0.2-0.2v-0.2l0.2-0.2v-1.2h-0.2l-0.2-0.2
	v-0.2l-0.2,0.2h-0.5l-0.2-0.2v0.2H65.6z M63.5,43.6v0.5h-0.2v0.2L63,44.1v0.5h0.7v-0.5H64v0.2h0.5v-0.2h-0.2v-0.2h0.2v0.2h0.2v0.5
	l0.2-0.2v-0.5h-0.3v-0.5h-0.2v0.2h-0.2v-0.2H64l-0.2,0.2L63.5,43.6z M51,38.6v0.2h-0.5v-0.2h-0.2v0.2H50v1l0.2,0.2v0.5H51v0.2h0.2
	l0.2-0.2h0.2v-0.2H52v-1.5h-0.2v-0.2h-0.3v-0.2h-0.2v0.2H51z M28.2,38.3l0.2,0.2h0.2v-0.5h-0.2v-0.2h-0.7v0.2h0.5V38.3z M20,34.8
	h-0.2v0.5h0.5v0.5h0.5V36H22v0.2h0.2v0.2h0.5v0.2h0.5v0.2h0.2v0.2h0.2v0.2h0.2l0.2-0.2v-0.2l0.2-0.2h-0.5v-0.2h-0.5v-0.2h-0.2V36
	h-0.5v-0.2H22v-0.2h0.2v-0.2H22V35h-0.7v-0.2h-0.5v-0.2H21v-0.2h-0.7v0.5L20,34.8z M72.4,34h-0.2l0.2,0.2v0.2l0.2,0.2v-0.2l0.2-0.2
	h0.2v-0.5h-0.5v-0.2h-0.2C72.4,33.5,72.4,34,72.4,34z M74.8,32.1H75v0.5h-0.2l0.2,0.2v0.5l0.2-0.2v-0.2h0.2v-0.2h-0.2v-0.7H75v-0.2
	h-0.2L74.8,32.1L74.8,32.1z M134.5,32.3h0.2v0.2h0.2v-1l-0.2-0.2h-0.5v0.2H134l0.2,0.2V32h0.2L134.5,32.3z M135.5,31.1h0.2l0.2,0.2
	v-0.5h-0.2v-0.2h-0.2V31.1z M84.4,27.8V28h-0.2v0.2h-0.2V29h0.2v0.2h0.2v0.2h0.7v0.2h-0.5v0.5h0.2v0.2h0.2v-0.2h0.7L85.6,30h0.2
	v-0.2h0.2v-1l-0.2-0.2v-0.2h-0.2V28h-0.2v-0.2h-0.2v-0.5h-0.2v0.2h-0.2v0.2L84.4,27.8z M85.6,30h-0.2v-0.2L85.6,30z M68.1,62.6h-0.2
	v0.5h0.2V62.6z M58,44.6h-0.2v-0.2H58V44.6z M17.6,20.1l-0.2-0.2h-0.5v0.2h-0.2l-0.2,0.2H16v0.2h0.2v0.2h0.2l-0.2,0.2h0.2v0.2h-0.2
	v0.5h0.2V22l0.2,0.2H17v0.2h-0.3v0.2h0.2V23h0.2v0.5h0.2V24h0.2v0.2l0.2,0.2v0.2h0.2v0.2h0.2v0.2h0.2l0.2,0.2h0.2v0.2h0.2v0.2h0.2
	v0.2h0.2v0.2l0.2,0.2h0.2v0.2h0.2v0.2h0.2l0.2,0.2v0.2l0.2-0.2v0.2h0.2v0.2H22V28h0.2v0.2l0.2,0.2h0.2v0.2L23,29v0.2h0.2v0.2h0.2
	v0.2h0.2l0.2,0.2h0.5v-0.2h0.7v0.2h0.5l0.2,0.2v0.5h0.5v0.2h0.2v0.2h0.2v0.2l0.2,0.2v0.2h0.2v0.5h0.5v0.2H28v0.2l0.2,0.2v0.5h0.2
	v0.2h0.2V34H29v0.2h1v0.5l0.2,0.2v1l0.2,0.2v0.7l0.2,0.2v0.2h0.2v0.2h0.5v0.2h0.2v-0.2h0.5l0.2,0.2h0.2l0.2,0.2l0.2,0.2h0.2v0.2h0.2
	v0.2h0.7L34,39.1h0.7v0.2H35v0.2h0.2l0.2,0.2V40h0.2v0.2H36V40l0.2,0.2h0.2v0.5h0.2V41h-0.2v0.5h-0.2l0.2,0.2v0.5h0.2v0.2l0.2,0.2
	v0.5l0.2,0.2v0.7h0.2v0.5h0.2v0.7h0.2v0.5h0.2L37.9,46v0.2h0.2l0.2,0.2v1l-0.2,0.2h0.5v0.5h0.2v0.2h0.5v-0.2h0.2v0.2h0.2v0.2H40
	l0.5,0.2h0.2v0.2H41l0.2,0.2v0.2h0.2l0.2,0.2v0.5l0.2,0.2v0.7h0.5v0.2l0.2,0.2h0.2V52l0.2,0.2h0.2v0.5l0.2,0.2h0.2v0.2l0.2,0.2h0.2
	v0.2h0.2v0.2l0.2,0.2v0.7l0.2-0.2v0.5h-0.2l0.2,0.2h-0.2v0.2H45v0.2h0.2v0.2l0.2,0.2h0.2l0.2,0.2v0.7h0.2V58h0.2v0.2l0.2,0.2
	l0.2,0.2V59h0.2v0.2l0.2,0.2l0.2,0.2v1h-0.2V61l0.2,0.2v0.7h0.2l0.2,0.2v0.2h0.2v0.2h0.2v0.2h0.2v0.5h0.2l0.2,0.2h0.2l0.2,0.2H50V64
	l0.2,0.2v0.5h0.2V65l0.2,0.2l0.2,0.2v0.2h0.2V66l0.2,0.2v0.2h0.2l0.2,0.2v0.2h0.5v0.2h0.2v0.2h0.2l0.2,0.2h0.2v0.2h0.2v0.2h0.2
	l0.2,0.2h0.5v0.2h0.2v0.2h0.2v0.7h0.2v0.2l0.2,0.2h-0.2v0.5h0.2v0.2L56,71h0.2v0.2h0.5v0.2H57v0.2h0.2l0.2,0.2h0.2v0.2H58l0.2,0.2
	v0.2h0.2l0.2,0.2v0.2h0.5v0.2h0.5v0.2h0.5v0.2h0.2v0.2h0.2v0.2h0.2l0.2,0.2v0.2h0.2l0.2,0.2h0.5l0.2,0.2h0.2l0.2,0.2v0.2H63v-0.2
	h0.2V76h0.5v0.2H64v0.2h0.2V77h0.2v0.2h0.2v0.2H65v0.2l0.2,0.2h0.2v0.2h0.2l0.2,0.2v0.2h0.2l0.2,0.2v0.2h0.2v0.2h0.2l0.2,0.2v0.2
	h0.2v0.2h0.2l0.2,0.2v0.5h1v-0.2l-0.2-0.2v-0.5h-0.3v-0.5h-0.2l-0.2-0.2v-0.2h-0.2v-0.5h0.7l0.2,0.2h0.2v0.2H69v0.2h0.2l0.2,0.2h0.2
	v0.2h0.7v0.2h0.5v-0.2h0.2v-0.2h-0.2l0.2-0.2h-0.2v-0.2h0.5v-0.7h0.2v0.2h0.2v0.2l0.2,0.2v0.2h0.5v0.2h0.5v0.7h0.5v0.2h0.2v0.2H74
	v-0.5h0.2v-2.9h0.2v-0.7h-0.2v-0.7h0.2v-0.7l-0.2-0.2v-0.7h0.2v-0.2h-0.2v-0.2h0.2v-0.7h-0.2v-0.5h-0.2v-1l-0.2-0.2h0.2v-0.5
	l0.2-0.2v-0.2l0.2-0.2v-0.5l-0.2-0.2h-0.2V69h-0.2v-1l0.2-0.2v-0.5h0.2v-0.2h0.2v-0.2h0.2v-0.2h0.5v-0.2H75v-1.2h-0.2L74.5,65h-0.7
	l-0.2-0.2v-1.2h-0.2v0.2l-0.2-0.2h-0.2l-0.2-0.2v-1.2h-0.2v0.2h-0.2v-0.2h-1.2l-0.2-0.2h-1v0.2h-0.2v-0.2h-0.7v-0.2h-0.2v0.2h-0.2
	v0.2h-0.2v0.2h-0.2v-0.5h0.2v-0.2h0.2l0.2-0.2v-0.2h0.2v-0.5h-0.2v-0.5h-0.2V60h-0.5v0.2h-0.2V60h-0.2v0.2h-0.2V60h0.2v-0.5h-0.2
	l-0.2-0.2v0.5h-0.2v-0.2l-0.2,0.2v-0.5h0.2V59h0.2v-0.5l-0.2-0.2L66.4,58v-1.7h-0.2v-1.2h-0.2v-0.2h-0.2v0.2h-0.5v-0.2h-0.2v0.2
	h-0.2v-0.2H64v-0.2h-0.7v0.2h-0.5v-0.2l-0.2,0.2v-0.2h-0.2v-0.2h-0.5v-0.2h-0.2v-0.2l-0.2-0.2l-0.2-0.2h-0.5v-0.2l0.2-0.2h-0.2
	l0.2-0.2v-0.5h0.5l0.2-0.2h0.2v-0.2h-0.2l0.2-0.2h0.5v-0.2h0.5v-0.2h-0.5v-0.2h-0.7l-0.2-0.2h-0.3v-0.2h0.2v-0.2h0.5v-0.2h0.5
	l-0.2-0.2h1v-0.2h-0.2v-1.2h-0.2v-0.2h-0.2v-0.2h-0.5v-0.2h-0.2v-0.2h-0.2L61.1,47l-0.2-0.2h-0.5v-0.5h-0.2V46l-0.2-0.2h-0.2V46
	h-0.2v0.7l0.2,0.2v-0.2h0.5V47h-0.5v0.2h-0.2v0.2h-0.2l-0.2,0.2h-0.2V48h-0.5v0.2H58l0.2-0.2H58l-0.2,0.2h-0.3v0.2H57v-0.2h0.5
	l0.2-0.2H58v-0.2h0.5v-0.2H59v-0.2h0.2v-0.5H59v-0.2h-0.3v-0.2L58.5,46h-0.2v-0.2L58,45.5h-0.2l-0.2,0.2h-0.2v-0.2h-0.5v-0.2H58
	l0.2,0.2h0.2v0.2h0.2V46H59v-1h-0.5v-0.2h-0.2v-0.2l0.2,0.2h0.2L59,45l0.2,0.2h0.2V45l0.2-0.2h-0.2l-0.2-0.2v-0.2H59V44h-0.3v-0.2
	h-0.2l-0.2-0.2h-0.5v-0.2h-0.5v0.2H57v0.2h-0.2V44h-0.2l0.2,0.2V44H57v0.2h-0.5v-0.5h-0.2v-0.2h-0.5v-0.7H56v-0.5l-0.2-0.2v-0.7h-1
	v-0.2h-1L53.7,41h-0.5v0.2h0.2v0.2l0.2,0.2h0.2V42h1v0.2h-0.5l0.2,0.2v0.2h-0.2v0.2l0.2,0.2v1h0.2v0.2h0.2v0.2h0.2v0.2h0.2v0.2
	l0.2,0.2h0.2l0.2,0.2h-0.5v-0.2h-0.2l-0.2-0.2v-0.2h-0.3v-0.2h-0.2l-0.2-0.2v-0.2h-0.2v-1h-0.2v-1h-0.5l-0.2-0.2v-0.2h-0.2l-0.2-0.2
	h-0.2v-0.2h-0.2V41h-0.2v-0.2h-1V41h-0.5v-0.2h-0.5v-0.2H50v-0.2h-0.2v-0.7l-0.2-0.2v-0.5h-0.2v-0.2h-0.2v-0.2h-0.2l-0.2-0.2h-0.2
	v-0.2l-0.2-0.2v-0.2h-1.2v0.2h-0.5v0.5h0.2v0.2h0.2v0.2l0.2,0.2h-0.2v-0.2h-0.5v-0.2h-0.7l-0.2-0.2l-0.2-0.2L45,37.6l-0.2-0.2
	l-0.2-0.2v-0.5l-0.2-0.2v-0.5H44l-0.2-0.2v-0.2l-0.2-0.2h-0.2v0.2h-0.5v-0.2L42.6,35l-0.2,0.2V34h-0.2v-0.2h-0.2v-0.2h-0.2l-0.2-0.2
	L41.2,33v-0.2h-0.2l-0.2-0.2H40v-0.2h-0.2v-0.2h-0.3v-0.2h-0.2v-0.2H39l-0.2-0.2h-0.5v-0.2L38,30.9h-0.2l-0.2-0.2h-0.2v-0.2h-0.5
	v-0.2h-0.7v-0.2h-0.5v-0.2h-0.2v-0.2h-0.2V29h-0.5v-0.2L34.5,29v-0.2h-0.2v-0.2H34v-0.2h-0.2V28H33v-0.2h-0.5V28h-0.2v-0.5h0.5v-1.2
	h-0.2v-0.2l-0.2-0.2H32l-0.2-0.2v0.2h-0.2v-0.2h-0.5v-0.2h0.2l-0.2-0.2v-0.2h-0.2v-0.7h-0.2v-0.5h-0.5v-0.2h-0.2l-0.2-0.2L29.4,23
	h-0.2v-0.5h-0.5v-0.2h-0.2V22h-0.7v0.2H27v0.2h-0.5v-0.2L26.3,22h-0.5l-0.2-0.2h-1.4V22h-0.7l-0.2,0.2h-0.2V22H22l-0.2-0.2h-1v-0.2
	h-0.2v-0.2h-0.2L20,21h-0.2v-0.5h-0.2l-0.2-0.2h-0.5v-0.2h-0.7v-0.2l-0.2,0.2L17.6,20.1z M47.4,39.3h-0.2v-0.2h0.2V39.3z M56,44.6
	l-0.2-0.2H56V44.6z M55.8,44.1l-0.2-0.2h0.2V44.1z M57.5,44.4h-0.2v-0.2h0.2V44.4z M43.3,36.2h-0.2v-0.2h0.2L43.3,36.2z M134.3,28.3
	v0.2h0.2l0.2,0.2v-0.2h0.2V28h-0.2v-0.2h-0.5L134.3,28.3L134.3,28.3z M134.3,27.3v0.2h0.2l0.2,0.2h0.2V28h0.2l0.2,0.2h0.5v-0.5h-0.2
	v-0.2h-0.5v-0.2H135V27h-0.5v0.2L134.3,27.3z M131,55.1h-0.2v0.2h0.2v0.2l0.2,0.2H131l0.2,0.2h0.2v-0.2h-0.2v-0.5H131V55.1z
	 M102.4,36.1l0.2,0.2h-0.2V36.1l-0.2-0.2h0.2V36.1z M102.2,42.3h0.2v0.2L102.2,42.3h-0.2v-0.2h0.2V42.3z M129,12.9v0.2l0.2,0.2v0.5
	H129v0.5h-0.2v0.2h-0.2v0.2h-0.2v0.2H128v-0.2l-0.2-0.2h0.2v-0.5h0.2v-0.7l-0.2-0.2v-0.2h-0.2v-0.2h-0.5v0.7h-0.2v0.7h0.2v0.2h-0.2
	v0.2h-0.2v0.5h-0.2v0.5h-0.2v0.2h-0.2V16h-0.2v0.2h-0.2v0.2h-0.2v0.2l-0.2,0.2v0.2h-0.2v0.2h0.2v0.5h-0.2v0.2h-0.2l0.2,0.2v0.5h-0.2
	v0.2h-0.2l-0.2,0.2v1h-1.4v-0.2h-0.2v0.2l-0.2,0.2l-0.2,0.2v0.2h-0.2v0.5h-0.2v0.2h0.5V22h0.5v0.2h0.2V22h0.2v0.2l-0.2,0.2V23
	l-0.2,0.2h-0.2v0.2H122v0.2h-0.7v-0.2h-0.2v0.2h-0.5v0.5h-0.2l0.2,0.2h-0.2v-0.2l-0.2-0.2v-0.5h0.2l-0.2-0.2h0.2V23h-0.2l-0.2,0.2
	h-0.5v0.2h-0.2l-0.2,0.2l-0.2,0.2h-0.2v0.2h-0.2v0.2H118v0.2h-0.2v0.2h-0.5v0.2h-0.5l-0.2,0.2h-1.7v0.2h0.2v1l-0.2,0.2v0.5h-0.2v0.2
	l-0.2,0.2V28h-0.2v0.5h-0.2v0.2h-0.2l-0.2,0.2v0.2h-0.2v0.2h-0.5v0.2h-0.2v0.7h-0.2v0.2H112v0.5h-0.2v0.2h-0.2v0.2h-0.2v0.5H111
	l-0.2,0.2h0.2l-0.2,0.2v0.2l-0.2,0.2H110v0.2h-1.2v0.2h-0.7v0.2h-1.2l-0.2,0.2h-0.5l-0.2,0.2h-1.2l-0.2,0.2h-0.7l-0.2,0.2v-0.2
	l-0.2,0.2l-0.2,0.2h-0.2v0.2h-0.5v0.5h-0.2V35h-0.5v0.7h0.2v1l0.2,0.2h-0.5v-0.2h-0.2v1h0.2l-0.2,0.2v0.2h-0.2l0.2,0.2v-0.2h0.2
	l0.2,0.2h-0.2v0.2h-0.2v0.7h-0.2v0.5h-0.2v0.5h0.2v0.2h0.2v0.2h-0.7l-0.2,0.2v0.5h0.2v0.2h0.2V42h0.2v0.2h-0.2l-0.2-0.2v-0.2h-0.2
	l-0.2-0.2h-0.5v-0.2h-0.5v0.2H99v-0.2h-0.5V41l-0.2,0.2H98V41h-0.2v-0.5l-0.2-0.2v0.5h-0.2v-0.2h-0.2V40h-0.2v0.7h-0.2l0.2-0.2h-2.2
	v-0.2h-0.2V40H94v-0.2h-0.5v-0.2h-0.2v-0.7H93V39h-0.7v0.2h-0.7l0.2,0.2v0.2L91.6,40v0.5l-0.2,0.2L91.1,41h-0.2l-0.2,0.2l-0.2,0.2v1
	h-0.2V43h-0.2v0.5h-0.2v0.5h0.2v1h-0.2v0.2h-0.2v0.2l0.2,0.2l-0.2,0.2h0.2V46l0.2,0.2v0.2h-0.2V47h0.2v0.7h-0.2V48h0.7l0.2,0.2
	l0.2,0.2v0.5h0.2v0.2h0.2v0.2h-0.2v0.5l0.2,0.2h-0.2v-0.2h-0.2v0.7l-0.2-0.2v0.5h-0.2v0.2h0.2v-0.2h0.2l-0.2,0.2h0.2v0.2l-0.2,0.2
	h0.2v0.7l0.2,0.2h0.2l0.2,0.2h0.2v-0.2h0.5v0.2h0.2v0.5l0.2,0.2l0.2-0.2v0.2h-0.5v-0.2h-0.7L91.6,53v1l0.2,0.2h0.2v0.2h0.2v-0.2h0.2
	L92.3,54h0.2l0.2,0.2h0.5v0.2h0.2v0.2H94L93.8,55h-0.3v-0.2h-1v1.7H93v-0.2h0.5l0.2-0.2H94v-0.2h0.5l-0.2-0.2V55h0.2v0.5l0.2-0.2
	l0.2,0.2h0.2v0.7h0.2v0.2h0.2l0.2,0.2v0.7l-0.2,0.2l0.2,0.2l-0.2,0.2v0.5h-0.2v0.2h-0.2v0.7h0.5l0.2,0.2l0.2,0.2v1.4l0.2,0.2v0.7
	h0.2v1.2h0.2v1l-0.2,0.2h0.2v0.5h0.5l0.2-0.2h0.2l0.2-0.2h0.2v-0.2h0.5v0.2L99,65v0.7h0.2v-0.2h0.8l0.2,0.2h1v-0.2h0.5v-0.2h0.5
	l0.2-0.2h0.5l0.2-0.2V65h0.5v0.2h0.2v0.2l0.2-0.2h0.2V65h0.2v-0.7H129v-1l0.2-0.2h-0.5v-0.2h0.5v-0.2h0.2v0.2l0.2,0.2l0.2-0.2v-0.7
	l0.2-0.2v-0.7H130v-0.5h-0.7v0.2H129l0.2-0.2h-0.5v-0.2l0.2,0.2v-0.2h0.5v-1h-0.2v-0.2l0.2-0.2v-0.2H129V59h-0.7l0.2-0.2l0.2-0.2
	h0.2v-0.2h0.7V58h0.3v-0.5h-0.2v-0.2h0.2V57h0.2l0.2-0.2h0.5l0.2-0.2l-0.2-0.2h0.7v-0.2h0.5v-0.2h0.2v-0.2l0.2-0.2v-0.2h0.2v-0.2
	l0.2-0.2v-0.2h0.5v-0.7h0.2v0.2h0.2v0.2l0.2-0.2l-0.2-0.2h0.5v-0.2h0.2v0.2h0.2v0.2l0.2-0.2h0.2v-0.2H135l-0.2-0.2h0.2V53h0.2v-0.5
	h0.2l-0.2-0.2H135l0.2-0.2h0.2v-0.2H135v-0.2h-0.2v-0.2h-0.2l0.2-0.2h-0.2v-0.5l0.2-0.2v-0.5h0.2v-0.2h-0.2v-0.7h0.2v-0.2h-0.2v-0.2
	h0.2v-0.7h0.2v-0.2l0.2-0.2v-0.5h0.2v-0.5h0.3v-0.5l0.2-0.2l0.2-0.2h0.2l0.2-0.2h0.2v0.2h0.5v-0.5h-0.2v-0.2h-0.2v-0.2h0.2v0.2h0.2
	v0.2h1l0.2,0.2h0.5v0.2h0.2v-0.2h0.5v0.2h0.5l0.2-0.2h0.5v0.2h0.5v-0.2h0.2v-0.2h0.5v-0.2h0.2v-0.5l-0.2-0.2H142v0.2l-0.2-0.2v-0.2
	h-0.2v-0.5l-0.2-0.2H141l-0.2-0.2l-0.2-0.2H140V42h-0.2v0.2h-0.2v-0.5h-0.2v-0.2h-0.5v-0.2h-0.5V41h-0.5v-0.2l-0.2-0.2V40h-0.2v0.2
	l-0.2-0.2h-0.5v-0.5h-0.2v-0.7h0.2v-0.2l0.2-0.2h-0.2v-0.2h0.5v-0.2h0.2v-0.2h0.2v-0.2h-0.2v-0.2h-0.5l0.2-0.2h-0.2l0.2-0.2h-0.2
	l-0.2-0.2l-0.2-0.2l-0.2-0.2l-0.2-0.2v-0.5l-0.2-0.2h-0.2v-0.7h-0.2v-0.5h-0.5v-0.5h-0.5V33l-0.2,0.2V33l-0.2-0.2h-0.7v-0.2h0.5
	v-0.2h0.7v-0.2H134v-0.5h-0.5v-0.2h0.5v-0.2h0.2v0.2l0.2-0.2v-0.2h0.2l-0.2-0.2h-0.2v0.2h-1v-0.2h0.2v-0.2h0.2v0.2h0.5v-0.2H134
	v-0.2h0.2v0.2h1l0.2-0.2l0.2-0.2l-0.2-0.2h0.2v-0.2h-0.2v-0.2h-0.7V29h-0.2v-0.2h-0.2v-0.2H134v-0.2h-0.2V28l-0.2,0.2V28h-0.5
	l0.2-0.2h0.2V28h0.5v-0.7h0.2v-0.7H134v-0.2h0.5v0.2h0.2v0.2h0.5l0.2,0.2v0.2h0.2V27l0.2,0.2h0.5V27h0.5v-0.2h1v-0.2h0.2v0.2h0.2
	l0.2-0.2h0.5l0.2-0.2h-0.2l0.2-0.2v0.2l0.2-0.2h0.2l-0.2-0.2h-1.2v-0.5h-0.5v-0.2h0.5v0.2h0.5v-0.2h-0.2v-0.2h-0.5l-0.2,0.2v-0.2
	h-0.2v0.2h-0.2v-0.2h-0.2v-0.2H137v-0.5h-0.5v-0.2h0.2v-0.2l0.2-0.2h0.2v-0.2l0.2,0.2h0.5v-0.2h-0.2V23l0.2,0.2h0.2v0.5h0.5v-0.2
	h0.5v0.2l0.2-0.2h0.5v-0.2h0.5l0.2-0.2h0.7v-0.2h0.5l0.2-0.2v-0.2h0.2V22l-0.2-0.2h0.2v-0.2H142V21h-0.2l-0.2-0.2h-0.2V21h-1v-0.2
	h-0.5v-0.2h-0.5v-0.2h-0.2l-0.2-0.2v-0.2h-0.5v-0.2h-0.2l-0.2-0.2h-0.2v-0.2h-0.5l-0.2-0.2v0.2h-0.2v-0.2h-0.5v-0.2H136v1h-0.5v-0.2
	l-0.2,0.2h-0.5v-0.5h0.2v-0.2h0.2v0.2l0.2-0.2h0.2v-0.2h-0.2v-0.2h-0.2v-0.7h-0.5V18h-0.2v0.2h-0.7v0.2h-0.7v-0.2h0.5v-0.5h-0.2V18
	h-0.2l-0.2-0.2h0.2v-0.2h-0.2v-0.2l-0.2-0.2h0.2l-0.2-0.2h0.7v-0.5h-0.2v-0.7h-0.2v-0.2h-0.5l-0.2-0.2v-0.2h-0.2l-0.2,0.2h0.2v0.2
	h-0.2v-0.2h-0.2v-0.5h0.5v-0.2h-0.2v-0.2h-0.5v0.2h-0.2v0.2h0.2v0.2h-0.5v-0.2l-0.2-0.2h0.2v-0.2h-0.2v-0.2h-0.2v-0.7H130v-0.2h-0.2
	v-0.2h-0.5v0.2L129,12.9z M133.3,31.4h-0.5v-0.2h0.5V31.4z M131.6,30.7h-0.2l0.2-0.2V30.7z M137.2,43.9h0.2v0.2h-0.5v-0.2h-0.2
	l0.2-0.2L137.2,43.9z M101.6,42.4h-0.2v-0.2h0.2V42.4z M97.1,63.1h-0.2v-0.2h0.2V63.1z M102.1,38.3v-0.2h0.2L102.1,38.3z M99,42
	v-0.2h0.2L99,42z M102.8,37.2h-0.2v-0.2L102.8,37.2z M129.5,61.2h-0.2l0.2-0.2V61.2z M103.1,36.7h-0.2v-0.2h0.2V36.7z M133.1,30.7
	v0.2h-0.2v-0.2h-0.5v-0.2h0.7V30.7z M63,41.7V42h0.2l0.2,0.2V42h-0.2L63,41.7z M63.7,41.2H64v0.5l-0.2-0.2L63.7,41.2L63.5,41h0.2
	L63.7,41.2z M47.9,13.9h-0.5v-0.2h-0.7l-0.5,0.2h-0.5l-0.2,0.2v0.2l-0.2,0.2H45v0.2h-0.2v0.2l-0.2,0.2h-0.2v0.5L44,16h-0.2l-0.5,0.5
	l-0.5,0.2L42.4,17h-0.2v0.2h0.2v0.5h0.2v0.2l0.2,0.2v1.9h0.2l-0.2,0.2h0.2v0.2l0.2,0.2v0.2h-0.2l0.2,0.2h0.2v1.4h-0.2V23h0.2v0.2
	h0.2v0.2l0.2-0.2v0.2h0.5l0.2,0.2H45v0.7l0.2,0.2v1H45v1h-0.2v0.2H45v0.5l-0.2-0.2v0.5h0.7l0.2,0.2H46v0.7h-0.2v0.7h0.7v0.5h0.2
	L47,30v0.2h0.5v0.2h0.2v0.2h0.2v0.5h0.2v0.2l0.2,0.2V32h0.5v0.2l0.2,0.2v0.5l0.2,0.2v0.2h0.2v0.5h-0.2v-0.2h-0.3V34h0.2l-0.2,0.2
	h0.2v0.2l0.2,0.2h0.2V35h0.2v0.2h0.2v0.2h0.5v0.2h0.7V36H52v0.2h0.2v0.5h0.2v0.2H53v0.2h0.5v0.2h0.2v0.2h0.2v0.2h0.5v0.2h0.5
	l0.2,0.2h0.7v0.2h0.2v0.2l0.2,0.2h0.2v0.2l0.2,0.2v0.2h1V40H58v0.2h0.5l0.2,0.2H59v0.2h0.2l0.2,0.2h0.5v0.2h0.5v0.2h0.2v0.5l0.2,0.2
	v0.5h0.2v0.2h0.2v-0.5h0.5v-0.2h0.2v0.2h-0.2l0.2,0.2h0.7v0.2H63v-0.2h0.7v-0.7H64v0.2h0.2v-0.2h0.2v0.2h-0.2v0.2h1.2v-0.2h-0.2
	v-0.2h0.2l-0.2-0.2h0.2v-0.2h-0.2v-0.7H65v-0.5h-0.3v-0.5h-0.2l-0.2-0.2l0.2-0.2L64.2,39v-0.2H64v-0.2l-0.2-0.2v-0.2l-0.2-0.2v-0.5
	l-0.2-0.2L63,36.9l-0.2-0.2v-0.5l-0.2-0.2l-0.2-0.2H62l-0.2-0.2h-0.2v-0.2h-0.2L61.1,35h-0.2v-0.2l-0.2-0.2v-0.2L60.4,34v-2.9h-0.2
	l0.2-0.2l-0.2-0.2v-0.2h-0.2v-0.2h-0.2v-0.7h0.2v-0.2L59.7,29l0.2-0.2h0.2l-0.2-0.2V28h-0.2v-0.2h0.2v-0.2h0.2l-0.2-0.2h0.2v-0.7
	l-0.2-0.2v-1l-0.2-0.2h0.2v-0.2h-0.2v-0.7h-0.2v-0.2l-0.2-0.2v-0.2h-0.2v-0.2L58.7,23v-0.2l-0.2-0.2l-0.2-0.2V22H58v-0.5h-0.2v-0.2
	L57.5,21h-0.2v-0.2L57,20.6h-0.2v-0.2H56v-0.2h-0.2v-0.2h-0.5v-0.2h-0.2v-0.2h-0.2v-0.2h-0.2v-0.2h-0.2l-0.2-0.2l-0.2-0.2l-0.2-0.2
	V18h-0.2v-0.2l-0.2-0.2v-0.2h-0.2V17h-0.5v-0.2h-0.2V17H52v-0.2h-1L50.8,17h-0.2v-0.2l-0.2-0.2L50,16.3V16h-0.2v-0.2l-0.2-0.2v-0.2
	h-0.2L49.1,15l-0.2-0.2v-0.2h-0.5v-0.2l0.2-0.2v-0.5h-0.2v-0.2h-0.5V13.9L47.9,13.9z M62.3,41.9h-0.2v-0.2L62.3,41.9z M62.8,41.9
	h-0.2v0.2h-0.2l0.2-0.2l0.2-0.2V41.9z M120.9,21.8h-0.2V22h0.2V21.8l0.5,0v-0.2h-0.2v-0.2h-0.2L120.9,21.8L120.9,21.8z M42.4,21.3
	v0.5h0.5v-0.5l0.2-0.2h-0.2v-0.2h-0.7v0.2h0.2V21.3z M16.2,18.9v0.2h0.5l0.2-0.2h-0.2v-0.2l-0.2-0.2v0.5H16.2z M55.3,18.7h0.2v-0.2
	h-0.2l-0.2-0.2v0.2L55.3,18.7z M7.1,11.9l-0.2,0.2h0.2v0.5h0.2v0.2h0.2v0.2h0.2v0.5H8v0.5h0.2v-0.5l0.2,0.2v-1.4H8.3V12l-0.2-0.2
	H7.3l-0.2-0.2C7.1,11.5,7.1,12,7.1,11.9z M4.5,7.6v0.2h0.2v0.2h0.7V7.9H5.2V7.6H4.9V7.4H4.7v0.2L4.5,7.6z M124,95.9h0.5v-0.2H124
	l-0.2,0.2H124z M106.5,93.3v-0.2h-0.2v0.2H106.5z M116.6,87.5v-0.2h-0.2v0.2H116.6z M120.9,87.3v-0.2h-0.2v0.2H120.9z M126.9,86.8
	h-0.2l0.2,0.2V86.8z M117.5,86.8h0.2v-0.2h-0.5v0.2H117.5z M110.5,86.6v-0.2h-0.2v0.2H110.5z M126.1,86.6l-0.2-0.2v0.2H126.1z
	 M124.7,86.3v-0.2h-0.2v0.2H124.7z M125.2,86.3v-0.2h-0.2v0.2H125.2z M126.2,86.3h0.2l-0.2-0.2h-0.2v0.2H126.2z M72.6,82v-0.2h-0.2
	V82H72.6z M72.9,80.8v-0.2h-0.2v0.2H72.9z M88,80.8v-0.2h-0.2v0.2H88z M69.5,80.1h-0.2v0.2L69.5,80.1z M98.8,80.3v-0.5l-0.2,0.2v0.2
	L98.8,80.3z M110.1,80.3h0.5v-0.7h-0.5l-0.2,0.2v0.5H110.1z M69.3,80.1L69.3,80.1v-0.2H69v0.2H69.3z M71.2,80.1v-0.2h-0.2v0.2H71.2z
	 M71.9,80.1v-0.2h-0.2v0.2H71.9z M71.4,79.4l-0.2-0.2v0.2H71.4z M119.4,78.7h-0.2l0.2,0.2V78.7z M126.6,74.8v-0.2h-0.2v0.2H126.6z
	 M126.1,74.3v-0.2h-0.2v0.2H126.1z M129.3,68.6v-0.5h0.2v-1h-0.2v0.5H129v1H129.3z M127.6,67.4v-0.2l-0.2,0.2H127.6z M128.3,66.4
	h-0.2v0.2L128.3,66.4z M128.8,66.4h-0.2v0.2L128.8,66.4z M111.8,65.9h-0.2v0.2L111.8,65.9z M44.3,65.7l-0.2-0.2v0.2H44.3z
	 M81.3,65.2V65H81v0.2L81.3,65.2z M96.7,64.7l-0.2-0.2v0.2l0.2,0.2V64.7z M128.3,65l-0.2-0.2V65H128.3z M80.3,64.8h0.2v-0.2h-0.5
	v0.2H80.3z M82.7,64.5l-0.2-0.2v0.2H82.7z M96.1,64v-0.2h0.2l-0.2-0.2v0.2h-0.2V64H96.1z M80.3,62.3v-0.2h-0.2v0.2H80.3z M39.5,59.7
	l-0.2-0.2v0.2H39.5z M38.3,59.5v-0.2h-0.2v0.2H38.3z M39.3,59.2V59H39v0.2L39.3,59.2z M92.3,57.3h-0.2v0.2L92.3,57.3z M91.6,56.8
	h-0.2l0.2,0.2V56.8z M45.3,56.1H45v0.2L45.3,56.1z M91.3,56.3l-0.2-0.2v0.2H91.3z M91.6,56.1v-0.2h-0.2v0.2H91.6z M134.6,54.2v-0.2
	h-0.2v0.2H134.6z M35.2,53v-0.2h-0.2V53H35.2z M92.3,53h0.2l-0.2-0.2h-0.2V53H92.3z M65.2,51.8v-0.2h-0.2v0.2H65.2z M65.4,51.6v-0.2
	l-0.2,0.2H65.4z M34.7,50.8h-0.2l0.2,0.2V50.8z M33.5,50.4v-0.2h-0.2v0.2H33.5z M31.8,50.1v-0.2h-0.2v0.2H31.8z M34,49.9h-0.2v0.2
	L34,49.9z M66.6,49.4v-0.5l-0.2,0.2v0.2L66.6,49.4z M67.6,49.4v-0.2h-0.2v0.2H67.6z M66.4,49.1L66.4,49.1v-0.2h-0.2v0.2H66.4z
	 M65.7,48.9v-0.2h-0.2v0.2H65.7z M66.2,48.9L66,48.7v0.2H66.2z M66.7,48.7h-0.2l0.2,0.2V48.7z M81.1,48.9v-0.2l-0.2,0.2H81.1z
	 M65.2,48.7v-0.2L65,48.7H65.2z M66.9,48.7L66.9,48.7v-0.2l-0.2-0.2h-0.2l0.2,0.2v0.2H66.9z M65.9,48.2l-0.2-0.2v0.2H65.9z
	 M61.8,47.2h-0.2l0.2,0.2V47.2z M66.8,47.4v-0.2h-0.2v0.2H66.8z M66.4,47h-0.2l0.2,0.2V47z M62.1,47l-0.2-0.2V47H62.1z M61.8,46.8
	L61.8,46.8v-0.2h-0.2v0.2H61.8z M59.2,46.5L58.9,46v0.5L59.2,46.5z M65.2,46.5l-0.2-0.2v0.2H65.2z M59.4,46h-0.2v0.2L59.4,46z
	 M65.4,46h-0.2l0.2,0.2V46z M59.4,45.8v-0.2l-0.2-0.2v0.5L59.4,45.8z M62.3,45.8v-0.2h-0.2v0.2H62.3z M62.5,45.8v-0.2l-0.2,0.2H62.5
	z M67.3,45.8v-0.2h-0.2v0.2H67.3z M67.8,45.5v-0.2h-0.2v0.2l0.2,0.2V45.5z M137.7,45.8v-0.2h-0.2v0.2H137.7z M62.5,45.5l-0.2-0.2
	v0.2H62.5z M67.3,45.3h-0.2v0.2L67.3,45.3z M64.7,45L64.7,45v-0.2h0.2v-0.2h-0.5V45L64.7,45z M67.6,45v-0.2h-0.2V45H67.6z M82,44.6
	l-0.2-0.2v0.2H82z M82.2,44.6v-0.2H82v0.2H82.2z M82.7,44.6v-0.5h-0.2v0.5H82.7z M60.6,44.3h0.2v-0.2l-0.2-0.2v-0.2h-0.2v0.7
	L60.6,44.3z M68.3,44.3v-0.2h-0.2v0.2H68.3z M63.3,44.1v-0.2H63v0.2H63.3z M60.9,43.6l-0.2-0.2v0.2H60.9z M62.6,43.4v-0.2l-0.2,0.2
	H62.6z M64.5,43.4L64.5,43.4v-0.2l-0.2,0.2H64.5z M62.8,43.1l-0.2-0.2v0.2H62.8z M28.9,41.5h-0.2l0.2,0.2V41.5z M35.4,41.2v-0.5
	h-0.2v0.5H35.4z M34.9,41h0.2l-0.2-0.2v-0.2h-0.2V41H34.9z M36.1,40.5v-0.2h-0.2v0.2H36.1z M98.1,40.5v-0.2h-0.2v0.2H98.1z
	 M141.7,39.1h-0.2v0.2L141.7,39.1z M27.7,38.8v-0.2l-0.2-0.2v0.2h-0.2l0.2,0.2H27.7z M25.1,38.6h0.2l-0.2-0.2h-0.2v0.2H25.1z
	 M46.2,38.1v-0.2H46v0.2H46.2z M140.5,38.1v-0.2h-0.2v0.2H140.5z M140.3,37.9L140.3,37.9l-0.2-0.2v0.2H140.3z M64.5,37.6v-0.2h-0.2
	v0.2H64.5z M29.2,37.4l-0.2-0.2v0.2H29.2z M138.4,37.2l-0.2-0.2v0.2H138.4z M66.4,36.7v-0.2l-0.2,0.2H66.4z M23.7,36.2h-0.2l0.2,0.2
	V36.2z M90.1,36.4h0.2v-0.2h-0.5v0.2H90.1z M89.9,36.2L89.9,36.2V36l-0.2,0.2H89.9z M23.7,35.7v-0.2h-0.2v0.2H23.7z M63.3,35.5
	L63,35.2v0.2L63.3,35.5z M64.5,35.2h0.2v-0.5l-0.2-0.2v0.2h-0.2v0.5H64.5z M89.5,35h-0.2v0.2L89.5,35z M102.5,35h-0.2l0.2,0.2V35z
	 M75.3,34.8H75l0.2,0.2L75.3,34.8z M64.5,34.5L64.5,34.5v-0.2h-0.2v0.2H64.5z M88.8,34.5H89v-0.2h0.2v-0.5h-0.6v0.5h-0.2v0.2H88.8z
	 M49.2,34.3V34h-0.2v0.2L49.2,34.3z M74.9,34.3V34h-0.2v0.2L74.9,34.3z M18.4,34v-0.2h-0.2V34H18.4z M49.1,33.5h-0.2v0.2L49.1,33.5z
	 M83.4,33.8v-0.2h-0.2v0.2H83.4z M88.9,33.5l-0.2-0.2v0.2H88.9z M72.1,33.3h0.2V33h-0.5v0.2H72.1z M76,33.1v-0.2l-0.2,0.2H76z
	 M76.5,32.8v-0.2h-0.2v0.2H76.5z M76.2,32.6v-0.2L76,32.6H76.2z M76,32.1h-0.2v0.2L76,32.1z M84.9,30.7v-0.2h-0.2v0.2H84.9z
	 M84.6,30.4v-0.2h-0.2v0.2H84.6z M33,27.5h-0.2v0.2L33,27.5z M138.6,25.6v-0.2l-0.2,0.2l0.2,0.2V25.6z M83.4,24.9l0.2-0.2v-0.2h-0.2
	v0.2l-0.2,0.2H83.4z M44.8,24.2v-0.5h-0.2v0.5l0.2,0.2V24.2z M137.6,24.2h-0.2v0.2L137.6,24.2z M138.1,24.4l-0.2-0.2v0.2H138.1z
	 M16.2,20.1H16v0.2L16.2,20.1z M15.7,20.1H16v-0.2h-0.2l-0.2,0.2H15.7z M15.5,19.6v-0.2h-0.2v0.2H15.5z M57,19.1h-0.2v0.2L57,19.1z
	 M135.2,19.4v-0.2H135v0.2H135.2z M124.7,18v-0.2h-0.2V18H124.7z M136.7,17.5h-0.2v0.2L136.7,17.5z M125.7,14.4l-0.2-0.2v0.2H125.7z
	 M125.9,14.4l-0.2-0.2v0.2H125.9z M130.5,12.7v-0.2h-0.2v0.2H130.5z M129.3,12.2V12h0.2v-0.2h0.5V11l-0.2-0.2h-0.2V11H129v1.2
	L129.3,12.2z M129.8,12v-0.2l-0.2,0.2H129.8z M7.8,11.5H7.6l0.2,0.2V11.5z M128.1,11.7v-0.2h0.5v-0.2l0.2-0.2h-0.5v0.2h-0.2
	l-0.2,0.2v0.2H128.1z M6.8,11.5v-0.2h0.2V11h0.2v-0.2H6.6v0.7L6.8,11.5z M5.8,7.6V7.4H5.7v0.2L5.8,7.6z M5.6,7.4V6.9H5.4v0.5
	L5.6,7.4z M5.4,6.9L5.4,6.9V6.4h0.2L5.4,6.2H5.2v0.7L5.4,6.9z M3.7,6.4V6.2H3.2l0.2,0.2H3.7z M3.2,6.2L3.2,6.2V5.7H3v0.5H3.2z
	 M2.8,5.2V5H2.5v0.2L2.8,5.2z M5.7,4.7V4.5H5.4v0.2L5.7,4.7z M0.7,1.6V1.4h0.2V1.1L0.6,0.9v0.2H0.4v0.5L0.7,1.6z"/>
</svg>
