<?xml version="1.0" encoding="utf-8"?>
<!-- Generator: Adobe Illustrator 20.1.0, SVG Export Plug-In . SVG Version: 6.00 Build 0)  -->
<svg version="1.1" id="Layer_1" xmlns="http://www.w3.org/2000/svg" xmlns:xlink="http://www.w3.org/1999/xlink" x="0px" y="0px"
	 viewBox="0 0 70.3 51.9" style="enable-background:new 0 0 70.3 51.9;" xml:space="preserve">
<style type="text/css">
	.st0{fill:#C14803;}
</style>
<title>sw_australia</title>
<path class="st0" d="M0.6,0.4h0.2v0.5l0.2,0.2v0.5h0.2v0.2h0.2v0.5h0.2v0.5H2V3h0.2v0.5h0.2V4L2.3,3.8V3.5H2V3.2L1.8,3L1.6,2.8
	L1.3,2.5V2.3H1.1V2H0.9V1.6H0.6V1.1H0.4V0.4H0.6z M3,4.2v0.5l0,0l0.2,0.2l0,0h0.2L3.2,5.2h0.2V4.9H3.2V3.5H3V3.2l0.2,0.2v0.2h0.2
	v0.5h0.2v0.5H4v1l0.2-0.2l0,0l0,0L4,5.2V4.9l0,0V4.5h0.2v0.7h0.2v1h0.2v0.2l0,0V5.9H5L4.7,6.1H5v0.2l0,0l0.2,0.2V6.4l0,0V6.1h0.2
	l0,0h0.5l0,0H5.7V5.9h0.2V5.2H5.7V4.9l0,0V4.5H5.2V4.2h0.5v0.2l0.2,0.2l0.2,0.2l0.2,0.5l0.2,0.2l0.5,0.2h0.2l0.2,0.5l0.2,0.2L8,7.1
	v0.5L8.3,8l0.5-0.2h0.5V8h0.2l0.2-0.2L10,8l0.2,0.5h0.2l0.2,0.2V9l0.2,0.2h0.2l0.2,0.2l0.5,0.7v0.2l0.2,0.2l0.2,0.2l0.2,0.2l0.5,0.5
	l0.2,0.5l0.5,0.5l0.2,0.2l0.2,0.2v-1L14,11.6l-0.2-0.5l-0.5-0.5l-0.2-0.5V9.7l0.2,0.2H14l0.2,0.2l0.5,0.2l0.5,0.2l0.2,0.2l0.5,0.2
	l0.5,0.2l0.2,0.2h0.5l0.2,0.2l0.5,0.2l0.2,0.2l0.5,0.2l0.5,0.2l0.2,0.2l0.5,0.5l0.2,0.2h0.7l0.2-0.2h1.2l0.5,0.2h0.2l0.2,0.2h0.2
	l0.5,0.2l0.2,0.2l-0.2,0.2v0.5l-0.2,0.2l0.2,0.5l0.2,0.5l0.5,0.5v0.5l0.2,0.7l0.2,0.2l0.2,0.2l0.2,0.2l0.2,0.2H26l0.2,0.5l0.5,0.5
	l0.7,0.2l0.2-0.2h1l0.5,0.2h0.5l0.2,0.2h0.5l0.2-0.2l0.2-0.5h1l0.2-0.2l0.2,0.2l0.5,0.2l0.2,0.2l0.2,0.5l0.2,0.5l0.2,0.2L34,22h-1.7
	l-0.5,0.2l-0.5,0.2l-0.2,0.2h-0.5L30.1,23h-2.4L27,22.7h-0.2v0.2l0.5,0.2l0.5,0.5l0.2,0.5v0.5l0.2,0.2l0.5,0.2h0.7l0.7,0.5l0.7,0.2
	l0.7,0.7l0.2,0.5l0.5,0.7l0.7,0.5l1,0.5l0.7,0.5l0.7,0.5l0.2,0.5v0.2l0.2,0.5v0.5l0.5,0.2l0.5,0.2l0.5,0.5v0.2l0.2,0.2l0.5,0.5
	l0.7,0.2l0.7,0.2l0.5,0.5l0.5,0.2l0.5,0.5l0.5,0.2h0.5l0.2,0.5l0.5,0.5l0.2,0.5l1,0.7h2.6l0.7,0.2l0.5,0.2h1.2l0.2-0.7l0.2-0.2
	l0.2-0.2l0.5-0.5l0.2-0.2h1.2l0.2-0.2h1l0.5,0.2v0.7l0.2,0.5l0.2,0.5v0.5h0.7l0.2-0.2l0.5,0.2h0.2l0.2,0.5V39l-0.2,0.5l-0.2,0.7v0.5
	l0.2,0.2h1.2l0.4-0.2l0.5-0.2l0.5-0.2l0.2-0.2L58,39.2V39l0.2-0.2h0.2l0.5-0.2l0.5-0.2l0.2,0.2l0.5-0.2l0.5-0.2h0.5l0.5-0.2l0.5-0.2
	h0.5l0.5-0.2l0.2-0.2l0.5-0.2l0.2-0.2l0.5-0.2l0.5-0.2l0.5-0.5l0.2-0.2l0.5-0.2l0.5-0.2l0.5-0.2h1l0.2-0.2l0.2-0.2h0.2L69,34
	l0.5,0.2L69,34.5L68.3,35l-0.5,0.2l-0.2,0.2l-0.2,0.2v0.2l-0.2,0.2h-0.2l0,0h-0.5l-0.2,0.2h-0.2l-0.2,0.2l-0.2,0.2l-0.2,0.2
	l-0.2,0.2h-0.2v0.2h-0.5v0.2h-0.5l-0.2,0.2h-0.2v0.2H63l-0.2,0.2h-0.2l-0.2,0.2L62,39l-0.2,0.2h-0.5l-0.2,0.2h-1l-0.2,0.2h-0.5V40
	l-0.2,0.2l-0.2,0.2v0.7l-0.2,0.2v1.4h-0.5v0.5H58v0.2h-0.2v0.2l0.2,0.2h-0.2v0.2h-0.3v0.2H57v0.2l-0.2-0.2H56V45h-0.5v0.2L55.3,45
	l0,0v-0.5h-0.2v-0.2h-0.5v0.2h-1.7v0.2h-0.7v-0.2H52v0.2h-0.5V45l0,0l-0.2,0.2V45H51l0,0h-0.2v-0.5h-0.2v-0.2h-0.7v0.2h-0.7v-0.2
	h-0.2v0.2h-0.2v-0.2h-0.2l-0.2-0.2v0.2l-0.2-0.2h-0.5l0,0h-0.2v0.2h-1.9v0.2h-1.2v0.2h-0.5V45l-0.2-0.2h-1.9l0,0h-0.2l0,0L40.9,45
	l0,0h-0.2v0.5h-0.5v0.2H40v0.5l-0.2,0.2v0.2H40v0.2l0.2,0.2l0,0h-0.5v-0.2h-0.3v0.5l0,0l0,0H39v0.5l0,0v-0.2h-0.7v-0.2h-0.7
	l-0.2,0.2h-0.2v0.2h-0.2v0.5l0,0v0.2h-0.5v0.2h-0.5v0.2h-0.2v0.7h-0.7V50l0,0v0.2h-0.5l-0.2,0.2v-0.2h-0.5v0.2h-0.2l0.2,0.2H34v-0.2
	l0,0v0.2h0.5L34.2,51l0,0h-0.5v-0.2h-0.5v-0.2h-0.5l-0.2,0.2h0.2L32.6,51l0,0v-0.2h-0.7v-0.2h-0.5v-0.2h0.2v0.2h0.2v-0.5h-0.2v0.2
	l-0.2-0.2v0.5h-0.7l0,0h-1v0.2l-0.2-0.2h-0.5v-0.2l-0.2,0.2H28v-0.2h-0.2l0,0h-0.5v-0.2H27l-0.2-0.2h-0.2v-0.2h-1.2v-0.2h-0.2v-0.5
	h-0.2l-0.2-0.2l-0.2-0.2l-0.2-0.2h-0.2v-0.2h-0.2l-0.2-0.2l0,0v-0.2h-0.5l0,0h-0.2v-0.2h-0.2v-0.2h-0.2L22,46.7h-1v0.2h-0.2v-0.2
	h-0.2v-0.2h-0.2V46L20,45.8v-0.5h-0.2v-0.7h-0.2v-1l0,0v-0.5l-0.2-0.2v-0.2h0.2v0.2h0.2v0.2h0.5v0.2H21v-0.2h0.2v-0.2h0.2v-0.5h0.2
	v-1H22v-0.7l-0.2-0.2v-0.7h-0.2v-0.5h-0.2v-0.5L21,38.5v-1.2h0.2v-0.7H21v-0.5h-0.2v-0.2H21v-0.7l0,0l-0.2-0.2v-0.7L20.5,34v-0.5
	h-0.2V33h-0.2v-0.5h-0.2l-0.2-0.2V32h-0.2v-0.5h-0.2v-0.2h-0.2v-0.2l-0.2-0.2h-0.2v-0.5l-0.2-0.2v-0.2h-0.2v-0.2l-0.2-0.2v-0.2h-0.2
	v-0.2h-0.2v-0.5h-0.2l-0.2-0.2V28l-0.2-0.2v-0.3l-0.2-0.2V27H16v-0.5h-0.2v-0.7h-0.3v-0.5h-0.2v-0.5L15,24.6v-0.2h-0.2v-1.2
	l-0.2-0.2V22l-0.2-0.2l0.2-0.2v-0.2h-0.2V21H14v-0.5l-0.2-0.2V20l-0.2-0.2v-0.2h-0.2v-0.2l-0.2-0.2l-0.2-0.2l-0.2-0.2h-0.2v-0.2
	h-0.2v-0.2h-0.2v-0.5l0,0v-0.5h-0.2v-0.5h-0.2v-0.5h-0.2V16h-0.2l-0.2-0.2l-0.2-0.2v-0.2h-0.2V15H10v-0.2H9.7v-0.2H9.5l-0.2-0.2V14
	H9v-0.2l-0.2-0.2v-0.2l-0.2-0.5v-1.2H8.3v-0.5H8.1v-0.5H7.8L7.6,10H7.3V9.7L7.1,9.5V9.2H6.8V9H6.6V8.8L6.4,8.5L6.1,8.3V8.1L5.9,7.8
	L5.7,7.6L5.4,7.3L5.2,7.1L4.9,6.9L4.7,6.6V6.4H4.5V6.1H4.2L4,5.9L3.8,5.7H3.5V5.4H3.2V5.2H3V4.7L2.8,4.5L2.5,4.2L2.3,4L2,3.8h0.2V4
	h0.5V3.5L2.5,3.3h0.2v0.5H3V4.2L3,4.2z M4,5.2L4,5.2z M5.2,6.4L5.2,6.4z M7.4,15.8L7.4,15.8z M7.4,16L7.4,16L7.4,16z M7.6,16H7.3
	v-0.2L7.6,16z M8.3,17.5L8.3,17.5z M9,18.6v-0.2l0,0V18.6z M19.8,34.5v0.2h-0.2v-0.2H19.8z M20.8,35.9v-0.2h-0.2l0,0h0.2V35.9z
	 M50.1,44.8h-0.2l0.2-0.2V44.8z M49.6,44.8h-0.2v-0.2L49.6,44.8z M50.6,45h-0.2v-0.2L50.6,45z M54.2,45L54.2,45z M49.2,45L49.2,45z
	 M54,45L54,45z M57.1,45.3L57.1,45.3z M49,45.3L49,45.3z M50.6,45.3L50.6,45.3z M50.4,45.3L50.4,45.3z M50.6,45.5L50.6,45.5z
	 M55.9,45.5v0.2h-0.2v-0.2L55.9,45.5z M51.6,45.7h0.2V46h-0.3L51.6,45.7z M50.9,46L50.9,46z M57.9,46.2l-0.2,0.2v-0.2H57.9z
	 M57.6,46.9L57.6,46.9z M40.6,47.2L40.6,47.2z M40.4,46.9L40.4,46.9z M35.9,49.8h0.2v0.2h-0.2V49.8z M34.5,50.5L34.5,50.5z
	 M34.5,50.5L34.5,50.5z M33.7,51.3L33.7,51.3z"/>
</svg>
