<?xml version="1.0" encoding="utf-8"?>
<!-- Generator: Adobe Illustrator 20.1.0, SVG Export Plug-In . SVG Version: 6.00 Build 0)  -->
<svg version="1.1" id="Layer_1" xmlns="http://www.w3.org/2000/svg" xmlns:xlink="http://www.w3.org/1999/xlink" x="0px" y="0px"
	 viewBox="0 0 60.8 47.3" style="enable-background:new 0 0 60.8 47.3;" xml:space="preserve">
<style type="text/css">
	.st0{fill:#C14803;}
</style>
<title>sw_china</title>
<path class="st0" d="M43.8,40l-0.2-0.5v-0.2L43.3,39v-0.5L43.1,38l-0.2-0.2v-0.2l-0.2-0.5v-0.5l-0.2-0.2l-0.5-0.2l-0.5-0.2l-0.5-0.2
	l-0.2,0.5v0.2l0.2,0.5v0.5l0.2,0.2l0.2,0.2l0.2,0.2v0.2l0.2,0.5l0.2,0.2l0.2,0.2v0.5l0.2,0.2v1h0.2l0.2,0.5l0.2,0.2v0.5h0.2l0.2,0.5
	l0.2,0.5l0.5,0.5l0.2,0.5l0.2,0.7l0.2,0.5l0.2,0.2l0.2,0.7v0.2L46,47h-0.2l-0.2-0.2L45,46.2l-0.5-0.5l-0.2-0.5l-0.5-0.5l-0.2-0.5
	l-0.2-0.5l-0.2-0.5l-0.2-0.2l-0.2-0.2v-0.2l-0.5-0.5l-0.2-0.2l-0.2-0.2l-0.2-0.2l-0.7-1.2L40.5,40l-0.2-0.7l-0.7-1l-0.2-0.7L39,37.1
	l-0.2-0.5l-0.2-0.5l-0.2-0.2L38,35.2l-0.5-0.5l-0.2-0.5L37.1,34l-0.5-0.2h-0.2v-0.3h-0.2v-0.2L35.9,33h-0.2v-0.2l-0.2-0.2v-0.2h-0.2
	v-0.2h-0.5v-0.5l-0.2-0.2h-0.2v-0.2L34,30.9v-0.2l-0.2-0.2h-0.3v-0.2H33v-0.2h-0.2v-0.2L32,29.2l-0.2-0.5l-0.2-0.2l-0.5-0.2
	l-0.2-0.5l-0.2-0.2L30.4,27l-0.2-0.5L29.7,26l-0.2-0.2l-0.5-0.5v-0.5l-0.5-0.2l-0.2-0.2L28,24.1l-0.5-0.2l-0.2-0.2l-0.5-0.2
	l-0.5-0.5l-0.5-0.5L25.1,22l-0.7-0.5l-0.5-0.2L23.6,21l-0.7-0.2l-0.2-0.2l-0.5-0.2H22L21.5,20L21,19.6l-0.5-0.2h-0.2l-0.7-0.7
	l-0.2-0.2l-0.5-0.2h-0.2l-0.2-0.2l-0.5-0.2l-0.2-0.2h-0.2l-0.5-0.2l-0.5-0.2l-0.2-0.2l-0.5-0.2h-0.2v0.5h-0.2L15,16.7l-0.2-0.5v0.5
	h-0.5l-0.2-0.2l-0.2-0.2h-0.5L13.1,16l-0.2-0.2l-0.2-0.5L12.4,15l-0.2-0.2h-0.5l0.2,0.2v0.2l0.2,0.2v0.2h-0.2l-0.2-0.2v-0.2L11.4,15
	v-0.2h-0.5l0.2,0.2v1l0.2,0.2l0.5,0.2h0.5l0.2,0.2h0.2V17h-0.5l-0.2-0.2h-0.5l-0.2-0.2l-0.2-0.2h-0.2V15h-0.2v0.2h-0.2v-0.5h-0.2V15
	L10,15.2H9.2L9,15H8.8l-0.2-0.2v-0.2l-0.2-0.2H7.8v-0.2H7.6v-0.5h0.2l-0.2-0.2l-0.2-0.2H7.1l-0.2,0.2l-0.2-0.2h-1l-0.2-0.2H4.9v0.2
	H4.7v-0.2H4.2L4,13.1v0.2l-0.2-0.2H3.5l-0.2-0.2H3v0.2h0.2v0.2h-1L2,13.1h0.3v-0.2H1.6v0.2H1.3v-0.2H1.1v-0.2H0.4v-0.7h0.5l0.2-0.2
	h0.5l0.2-0.2v-0.2H2v-0.2h0.2v0.2l0.2,0.5l0.2,0.2H3v0.2l0.2-0.2L3,11.7v-0.2H2.8v-0.2H2.5v-0.5H2.3v-0.2h2.2l0.2,0.2h0.2l0.2,0.2h1
	l0.2,0.2v0.2h0.2l0.2,0.2h0.2l0.2,0.2v0.2l0.2,0.2h0.2v0.2h0.7v0.2h0.2v0.7l-0.2-0.2v-0.5H8.1v0.2h0.2v0.5h0.2v0.2l0.2,0.2L9,14.3
	l0.2,0.2h0.5l-0.2-0.2l-0.2-0.2v-0.2h0.5v0.2l0.2,0.2l0.2,0.2l0.2-0.2l-0.2-0.2L10,13.8l-0.2-0.2l-0.2-0.2L9,13.1l-0.2-0.2l-0.2-0.2
	v-0.2H8.3v-0.2l-0.2-0.2h0.2v-0.2h0.2l0.2,0.2L9,12.1l0.7,0.2l0.2,0.2h0.2l0.2,0.2h0.5l0.2,0.2h0.7v0.2l0.2,0.2v0.2h0.5v0.2l0.2,0.2
	l-0.2,0.2v-0.2h-0.5v0.2h0.2l0.2,0.2l0.7,0.2l0.2-0.2l0.5,0.2h0.2l0.2-0.2H15l0.2,0.2h0.5v0.2l0.5-0.2h0.2l0.5,0.2l0.2,0.5l0.5,0.2
	l0.2,0.2l0.5,0.2l0.5,0.5l0.5,0.5l0.5,0.2l0.2,0.2l0.7,0.2l0.2,0.2l0.5,0.2l0.2,0.2l0.7,0.2l0.2,0.2l0.7,0.2l0.2,0.2l0.7,0.5
	l0.5,0.2l0.5,0.5l0.5,0.5l0.5,0.2l0.2,0.5l0.2,0.2l0.5,0.2l0.2,0.2l0.7,0.5l0.5,0.2l0.2,0.2l0.5,0.2l0.2,0.2l0.2,0.2l0.5,0.2
	l0.2,0.2l0.2,0.2l0.5,0.5l0.2,0.5l0.5,0.2l0.5,0.2l0.5,0.5l0.2,0.2h0.5L33,26.8l-0.2-0.5l-0.2-0.2l-0.2-0.5l-0.7-0.7l-0.2-0.5
	l-0.5-0.5l-0.5-0.5l-0.5-0.5l-0.5-0.2L28.7,22L28,21.3l-0.7-0.5l-0.5-0.5l-0.5-0.2l-0.2-0.2h-0.5l-0.5-0.5h-0.5l-0.5-0.5l-0.5-0.2
	l-0.5-0.2l-0.5-0.5l-0.2-0.2L22,17.4l-0.5-0.2l-0.2-0.2l-0.5-0.2l-0.5-0.2L19.6,16l-0.2-0.2l-0.2-0.2L18.6,15l-0.2-0.2l-0.2-0.2
	l-0.2-0.2l-0.5-0.5h-0.2l-0.2-0.2l-0.5-0.2L16,13.1l-0.5-0.2H15l-0.2-0.5l-0.2-0.2v-0.5h0.7v-0.7l0.2-0.2l-0.2-0.2L15,10.2L14.5,10
	l-0.2-0.2l-0.5-0.2L13.3,9l-0.5-0.2l-0.5-0.2l-0.2-0.2L11.9,8V7.6l0.2,0.2h0.5l0.2,0.2l0.2,0.2h0.2v0.2h0.5l0.2,0.2L14.3,9V8.8
	l-0.2-0.2l-0.2-0.5l-0.2-0.2V7.6h0.2l0.2,0.2V7.3l0.5,0.2l0.2,0.5v0.2L15,8.8L15.5,9L16,9.5l0.2,0.2l0.2,0.2l0.2,0.2H17v0.2l0.2,0.5
	v0.2l0.2,0.5l0.7,0.5l0.2,0.5h0.5l0.2,0.2l0.5,0.2l0.2,0.5l0.2,0.5l0.5,0.2l0.2,0.2l0.5,0.5l0.2,0.5L22,16l0.2,0.2l0.5,0.5L23,17
	l0.2,0.5l0.7,0.5l0.5,0.2l0.2,0.2h0.2l1,0.5l0.5,0.5h0.5l0.5,0.2l0.5,0.2l0.5,0.5l0.5,0.2l0.5,0.2l0.5,0.5l1,1l1,0.7l0.7,0.7
	l0.7,0.7l0.2,0.5l0.5,0.2l0.5,0.7l0.2,0.2l0.5,0.5h0.2v-0.5l-0.2-0.2v-0.2h-0.4l-0.2-0.5v-0.2L34,24.6v-0.2l-0.2-0.5L33,23.4
	l-0.5-0.5l-0.2-0.2L32,22.5l-0.5-0.2v-0.7l-0.2-0.2L31.1,21l-0.2-0.2l-0.5-0.5L30.1,20h0.2v-0.2l-0.2-0.2l-0.2-0.2l-0.2-0.2
	l-0.2-0.5l-0.2-0.5l-0.5-0.5l-0.2-0.5L28,16.9l-0.2-0.5h-0.3l-0.2-0.2l-0.5-0.5l-0.5-0.2l-0.5-0.2V15l-0.2-0.2l-0.2-0.2L25.1,14
	l-0.2-0.2v-0.2l-0.5-0.2l-0.5-0.7l-0.5-0.2l-0.2-0.5h-0.5v-0.2l-0.5-0.5l-0.5-0.2h-0.2L21,10.5h-0.2l-0.5-0.2V9.7l0.2-0.2l-0.2-0.2
	L20,9l-0.5-0.5V8.3l-0.2-0.2V7.8h0.2l0.2-0.2H20l0.5,0.2l0.2,0.2l0.5,0.5h0.5L22,8.8V9h-0.7l0.2,0.2h0.2L22,9.5l0.2,0.2l0.7,0.5
	l0.2,0.2l0.5,0.5l0.2-0.2l-0.2-0.2l-0.2-0.2l0.5,0.2l0.5,0.2l0.5,0.2l0.2,0.5v0.2l0.2,0.2l0.2,0.2l0.5,0.2l0.2,0.2h0.2v-0.2l0.2-0.2
	l0.5,0.2l0.5,0.5v0.2l0.2,0.2h1.2l0.5,0.2l0.2,0.2l0.2,0.2v0.2h-1.5v0.5h0.7l0.5,0.2l0.5,0.2l0.2,0.2l0.2,0.2h-0.2L30.4,16h-0.5
	l-0.5-0.2V16l0.2,0.2l0.2,0.2l0.5,0.2l0.2,0.2l0.5,0.2l0.2,0.2l0.2,0.2l0.2,0.2l0.2,0.5l0.2,0.5l0.2,0.2v0.2l0.5,0.5h0.2v-1l0.2-0.2
	h0.2l0.2-0.2v0.2h0.5l0.2,0.2l0.2,0.2l0.2,0.2l0.2,0.2v1l0.2,0.5v1.2l0.2,0.2l0.5,0.5l0.2,0.2l0.2,0.2l0.7,0.7v1.2l0.2,0.2v1.2h0.2
	v-0.2h0.2l0.5,0.2V27l0.2,0.2V28l0.5,0.2v-1l-0.2-0.5v-0.5l0.2-0.2v-0.2l-0.2-0.2L39,25.1l-0.2-0.5l-0.2-0.2v-0.2h0.2l0.2,0.2
	l0.2,0.2l0.2,0.2l0.2,0.2v0.2l0.5,0.5v0.2h0.2v0.2h0.2v1h0.2l0.2,0.5v0.5l0.5,0.5l0.5,0.5l0.2,0.2l0.5,0.5l0.5,0.5l0.2,0.2l0.5,0.5
	h0.2v-0.5l-0.5-0.2l-0.2-0.2v-0.5h0.2l0.5,0.2h0.2v-0.2l-0.2-0.2L43.8,29l-0.2-0.2v-0.5h0.2l0.2,0.2l0.2,0.2L44,28.3l-0.2-0.5
	l-0.2-0.2l-0.2-0.2L42.9,27l-0.2-0.2l-0.2-0.5h0.2V26h-0.2l-0.2-0.2l-0.5-0.5l1,0.5l0.2,0.2l0.5,0.2l0.5,0.5l0.5,0.2l0.2,0.2
	l0.2,0.5l0.5,0.5l0.5,0.2l0.2,0.5l0.2,0.5l0.5,0.2l0.2,0.5v0.7l0.2,0.2v0.5l0.2,0.5l0.2-0.2v-0.7h1l-0.2-0.2l-0.2-0.2L48,30.1
	l-0.2-0.2l-0.2-0.2L47,29.2l-0.2-0.2l-0.5-0.5l-0.5-0.7l-0.2-0.2L45,27h-0.2l-0.2-0.5L44,26.3l-0.5-0.5l-0.2-0.5l-0.2-0.2l-0.5-0.2
	l-0.2-0.5l-0.5-0.2l-0.2-0.2l-0.2-0.2l-0.5-0.5l-0.2-0.2l-0.5-0.2h-0.5L39,22.2L38.8,22l-0.2-0.5H39l0.5,0.2l0.2,0.2l0.5,0.2
	l0.2,0.2h0.5l0.2,0.2l0.2,0.2l0.2,0.2v0.2l0.5,0.2l0.2,0.2l0.2-0.2l-0.2-0.2L42.1,23l-0.2-0.2l-0.5-0.5l-0.5-0.5v-0.3l-0.2-0.2
	L40.2,21l-0.5-0.2l-0.5-0.2L39,20.3l-0.2-0.2v-0.2l-0.2-0.2h-0.2l-0.2-0.2h-0.7l-0.2-0.2h-0.2l-0.2-0.2h-0.2l-0.5-0.5l-0.5-0.2
	l-0.2-0.5l-0.2-0.2l-0.2-0.5v-0.5L34.5,16l-0.2-0.2L34,15.3L33.7,15h-0.2L33,14.8l-0.2-0.2l-0.5-0.5L32,13.8l-0.5-0.2l-0.5-0.2
	l-0.2-0.2l-0.2-0.2l-0.2-0.2l-0.2-0.2l-0.2-0.2l-0.7-0.2l-1-0.5l-0.5-0.2l-0.2-0.2L27,10.5h-0.5l-0.2-0.2L26,10l-0.5-0.2l-0.2-0.2
	l-0.5-0.2h-0.2L24.4,9l-0.5-0.2l-0.2-0.2h0.5l0.5,0.2L25.3,9h0.2l0.7,0.5L27,9.7l0.5,0.5l0.2,0.2l0.7,0.5l0.7,0.5l0.5,0.2l0.2,0.2
	h0.5l0.2,0.2l0.2,0.2l0.5,0.2l0.2,0.2h0.5l0.2,0.2h0.2l0.5,0.2h0.2l0.2,0.2v0.2h0.2l0.2,0.5l0.5,0.5l0.2,0.5l0.5,0.5l0.5,0.5v0.5
	l0.2,0.5l0.2,0.2l0.5,0.2l0.7,0.5l0.5,0.2h1l1,0.5l0.2-0.2l-0.2-0.5l-0.2-0.2l-0.2-0.2v-0.7l-0.7-0.5l-0.2-0.2l-0.2-0.5l-0.5-0.2
	l-0.5-0.2l-0.7-0.5l-0.2-0.2l-0.7-0.2L35,13.8l-0.5-0.2L34,13.1l-0.5-0.5L33,12.1l-0.2-0.2H33l0.5,0.2l0.7,0.5l0.7,0.2l0.2,0.5
	l0.5,0.2l0.5,0.2l0.7,0.7l0.5,0.2l0.5,0.2l0.5,0.2h0.5l0.5,0.2l0.2,0.5l0.2,0.2l0.2,0.5l0.2,0.5l0.2,0.2v0.5l0.2,0.2l0.2,0.5v0.2
	l0.2,0.2h0.2l0.5,0.2l0.2,0.2l0.2,0.2l0.2,0.5l0.2,0.2l0.2,0.2l0.2,0.5l0.2,0.2V21l-0.2-0.2v-0.2l-0.5-0.2l-0.2-0.5l-0.2-0.2h0.2
	l0.2,0.2h0.5l0.2,0.5l0.7,0.2l0.2,0.5l0.2,0.2l0.2,0.5v0.5h0.2v1.4h0.2l0.2,0.2h0.7l0.2,0.2v0.5l-0.2,0.2l-0.2-0.2H46l-0.2,0.2h-0.3
	v0.2l0.2,0.2l0.2,0.2l0.2,0.5l0.2,0.2l0.2,0.2l0.5,0.5l0.2,0.5l0.2,0.5l0.2,0.2l0.2,0.2V28l-0.2-0.5L47.7,27h0.5l0.2,0.2l0.2,0.2
	h0.2v-0.7h0.2l0.5,0.2l0.5,0.2l0.2-0.2l-0.2-0.2l-0.2-0.5L49.6,26l-0.2-0.2l-0.2-0.5l-0.5-0.5l-0.2-0.5l-0.2-0.2l-0.5-0.5l-0.5-0.7
	l-0.2-0.5l-0.5-0.2l-0.2-0.5L46,21.3L45.7,21l-0.2-0.2l-0.2-0.5L45,20.1l-0.2-0.2l-0.2-0.5L44,18.9h-0.2v-0.2l-0.2-0.2l-0.2-0.2
	l-0.2-0.2l-0.2-0.2l-0.2-0.2h-0.5l-0.2-0.2l-0.2-0.2l-0.2-0.5v-1.2l-0.2-0.7v-0.2l-0.2-0.5l-0.2-0.2l-0.5-0.5H40l-0.2-0.2l-0.2-0.2
	h-0.7l-0.2-0.2l-0.7-0.2l-0.2-0.2l-0.2-0.2h-0.7l-0.2,0.2h-0.2l-0.5,0.2l-0.2-0.5l-0.2-0.2v-0.5l0.2-0.2v-0.5L35.2,10l-0.2-0.2h-0.5
	l-0.2-0.2H34l-0.2-0.2L33.5,9V8.8l-0.2-0.2L33,8.3V8.1h0.2l0.5,0.2L34,8.5l0.5,0.2L34.7,9l0.5,0.2l0.2,0.2l0.5,0.2l0.5,0.5l0.5,0.2
	l0.5,0.5h1.4l0.2-0.2v-0.5h-0.2l-1-0.7h-0.2l-0.2-0.2L36.9,9l-0.2-0.2l-0.5-0.2h-0.2l-0.7-0.2L34.9,8l-0.2-0.2V7.3h0.7l0.7,0.2h0.7
	l0.2,0.2l0.5,0.2l0.5,0.2l0.5,0.2L39,8.8l0.7,0.5L40,9.5l0.7,0.7l0.5,0.5l0.2,0.2l0.2,0.5l0.5,0.2l0.2,0.2h0.5l0.2-0.2h0.5l0.2,0.2
	l0.2,0.2l0.2,0.2v0.2h-0.2v0.2h-1.5l-0.2,0.2v0.2l0.2,0.2v0.5l0.2,0.5l0.2,0.2l0.2,0.5l0.2,0.5v-0.2l0.2-0.2h0.2l0.2,0.2V16l0.2,0.2
	l0.2-0.2h0.7l0.2,0.5V17l-0.2,0.2h-0.2L45,17.7v0.2l0.2,0.5l0.2,0.2l0.5,0.5l0.2,0.2l0.5,0.5h0.2l0.2,0.2l0.2,0.2l0.2,0.5v-1.2
	l-0.2-0.2l-0.2-0.5l-0.2-0.2l-0.2-0.2v-0.5l0.2-0.2l-0.2-0.2h1v-0.2l-0.2-0.2v-0.5L47.2,16v-0.5l-0.2-0.2h-0.2L46.5,15L46,14.8
	l-0.5-0.2v-1l-0.2-0.2v-0.2h0.2l0.2,0.2l0.2-0.2v-0.7l-0.2-0.2l-0.2-0.2l-0.2-0.2l-0.5-0.5l-0.2-0.2h-0.3l-0.2-0.2l-0.2-0.2h-0.2
	L43.3,10l-0.2-0.2v-1h0.5L44.1,9h0.2l-0.2-0.2V8.3l-0.2-0.2l-0.5-0.2l-0.2-0.2V6.9l-0.2-0.2l-0.2-0.5l-0.2-0.5V5.2h0.2l0.5,0.2
	l0.2,0.2l0.7,0.5l0.2,0.2l0.5,0.5H45V6.1h0.5V5.9l-0.2-0.2L45,5.4V5.2l-0.2-0.5V4l-0.2-0.2l-0.2-0.5V3L44,2.8l-0.2-0.2l-0.2-0.2
	l-0.2-0.5l-0.2-0.2l-0.5-0.2l-0.2-0.2V0.9l0.2-0.2l-0.2-0.2h1l0.5,0.2v0.2l0.2,0.5v0.2l0.2,0.2L44.6,2l0.2,0.2l0.2,0.2v0.2L45.5,3
	v0.2l0.2,0.2H46v1.5l0.2,0.2v1l0.2,0.2l0.2,0.2L47,6.9l0.2,0.2l0.2,0.2v0.2l0.2,0.2v0.4l0.2,0.2v0.2L48.2,9h0.7l0.2,0.2h0.2l0.2,0.2
	l0.2,0.2V10l-0.2,0.2v0.2h-0.2l-0.2-0.2h-0.5v1.2l0.2,0.2v0.2h0.5l0.2,0.2h0.2l0.2,0.2v0.7l0.2,0.2v0.5l-0.2,0.5v0.2l-0.2,0.2
	l-0.2,0.5v0.2l0.7,1.2l0.2,0.7l0.2,0.2l-0.2,0.2v1.9l0.2,0.5l0.5,0.5L50.8,21v0.5l0.5,0.2l1,0.7H53l0.5,0.2L54,23l0.2,0.5l0.2,0.2
	l0.5,0.5l0.5,0.2l0.7,0.5l1.4,1l1,0.5l1.2,0.5l0.5,0.2l0.2,0.5v0.2L60.2,28h-1.5v0.2l0.2,0.2V29l0.2,0.2l0.2,0.2v0.7h-0.2v0.5
	l-0.2,0.2v0.7l0.2,0.5l0.2,0.5V33l-0.2,0.2v0.2l-0.2,0.2V34h-0.5l-0.2-0.2l-0.5-0.5L57.5,33L57,32.8l-0.2-0.2l-0.5-0.2L56,31.8
	l-0.2-0.5l-0.2-0.2l-0.2-0.2l-0.2-0.5l-0.2-0.7l-0.2-0.2l-0.2-0.2l-0.2-0.2h-0.2l-0.5-0.5l-0.2-0.2L52.7,28l-0.2-0.2l-0.2-0.5
	L52,26.8v-0.5l-0.2-0.2l-0.5-0.2H51v0.5l0.2,0.2l0.2,0.5v1l0.2,0.2l0.2,0.5l0.2,0.5l0.2,0.2l0.2,0.2l0.2,0.5l0.2,0.2l0.2,0.2v0.5
	l0.2,0.2l0.2,0.5l0.2,0.5l0.2,0.5l0.2,0.5v0.2l0.2,0.2l0.2,0.5v0.2l0.2,0.2l0.5,0.2l0.2,0.2l0.2,0.5l0.2,0.2h-1.2l-0.2,0.2l-0.2-0.2
	l-0.2-0.2l-0.2-0.2V35h-0.2v-0.5l-0.2-0.2l-0.2-0.5l-0.2-0.2l-0.5-0.2V33h-0.2l-0.2-0.2l-0.2-0.2L52,32.1h-0.2v-0.2l-0.2-0.2v-0.2
	l-0.2-0.5v-0.2L51,30.1l-0.2-0.5v-0.2l-0.2-0.2h-0.2v1.9l0.2,0.2l0.2,0.2v0.2l0.2,0.2l0.2,0.2v0.5L51,33l0.2,0.2L51,33.5l-0.2,0.2
	v0.5l0.2,0.2l-0.2,0.2v0.2h-0.5v0.2l0.2,0.2l0.2,0.2l0.2,0.2l0.2,0.2l0.5,0.5v0.2l0.2,0.2l0.2,0.2l0.2,0.2v0.2l0.2,0.5v0.2l-0.2,0.2
	h-0.2l-0.5-0.2h-0.2L51,38.3h-0.7l-0.7-0.2h-0.5v1.7l0.2,0.2v0.2l-0.2,0.2l-0.2-0.2h-0.5V40h-0.2l-0.2-0.2v-0.3h-0.7l-0.2,0.2
	l-0.5-0.2l-0.2,0.2v0.5H46l0,0h-0.5L45.3,40h-0.5v0.2h-0.2l-0.2,0.2L43.8,40z M41.9,4.2h-0.5V4l-0.2-0.2l-0.2-0.2L40.7,3l-0.2-0.2
	L40,2.1V1.8l-0.2-0.2V1.3h0.5l0.2,0.2l0.2,0.2l0.5,0.2h0.2l0.2,0.2l0.2,0.2v0.2h0.2V3l0.2,0.5V4h-0.2L41.9,4.2z M7.1,14.1l0.2,0.2
	v0.5L7.6,15l0.2,0.2H7.6l0.2,0.2H7.3v0.2H6.8l-0.2-0.2l-0.2-0.2h0.2l0.2,0.2h0.2V15H6.4v-0.2L6.1,15H5.9v-0.2H5.7V15H5.4v0.5H5.2
	v0.2H4.9l-0.2-0.2l-0.5-0.2H4L3.7,15h1.4l0.2-0.2l0.2-0.2h-1l-0.2,0.2v-0.2H4v0.2H3.5v-0.5h1v-0.2l-0.2-0.2H5l0.2,0.2h0.2v-0.2h0.2
	l0.2,0.2l0.2,0.2v-0.2h0.5v-0.2l-0.2-0.2h0.2l0.2,0.2L7.1,14.1z"/>
</svg>
