<?xml version="1.0" encoding="utf-8"?>
<!-- Generator: Adobe Illustrator 20.1.0, SVG Export Plug-In . SVG Version: 6.00 Build 0)  -->
<svg version="1.1" id="Layer_1" xmlns="http://www.w3.org/2000/svg" xmlns:xlink="http://www.w3.org/1999/xlink" x="0px" y="0px"
	 viewBox="0 0 95.1 217.6" style="enable-background:new 0 0 95.1 217.6;" xml:space="preserve">
<style type="text/css">
	.st0{fill:#C14803;}
</style>
<title>tropical_andes</title>
<path class="st0" d="M81.8,196.5v-1.2l1.2-1.4v1.4l0.2,0.2l0.5-0.5v-0.2l-0.2-0.2l0.2-0.7l0.7-1h0.2l0.2,0.2v0.5l-0.2,1.4l-0.7,1.7
	l-0.7,1l-0.5,0.2l-0.5,0.5v1.2l1,1h0.5l0.5-0.5v-1.4l0.2-0.5l0.2-1l0.2-0.5l0.2-0.7l0.5,0.2v1.9l0.7,0.7l-0.2,0.7l-0.2,1l-1.2,1
	l-2.4,1.4l-0.5,0.2l-0.5,1.9l0.2,1l0.7,1.4l0.2,0.5l0.2,0.7v0.2l0.2,0.2v0.5h0.2v0.5l-0.5,1v2.2h-0.2V211l0.2-0.7V210l-0.2-1
	l-0.7-0.7l-0.5-1l-0.2-0.2l-0.5,1l0.5,1v0.2l-0.7,1.4l-1,1h-0.5l1.2-1l0.5-1v-1.2l-0.5-0.7v-1.4l-0.5-0.5l-0.5-1l-1.2-0.5h0.2
	l0.7-0.2l0.2-0.7l0.7-0.7l0.2-0.2l0.2-0.2l0.2-0.7h0.2v-1.9l0.2-0.7v-1.2l0.5-1L81.8,196.5z M8.8,99.1h0.5v-0.5L9,98.8v-0.2H8.8
	L8.8,99.1L8.8,99.1z M6.9,92.6h0.2v-0.5H6.7v0.2h0.2V92.6z M15.6,74.1h0.2v-0.5h-0.5v0.2h0.2V74.1z M38.3,36.2h0.5V36h0.2v-0.2h0.2
	v-0.2h-0.2v0.2h-0.2V36h-0.2l0.2-0.2l-0.2-0.2h-0.2l-0.2,0.2V36h0.2L38.3,36.2z M35,25.4h0.2v-0.5H35l-0.2,0.2H35V25.4z M42,31.9
	h-0.2l0.2,0.2V31.9z M37.2,13.9v0.2H37v-0.5h0.2V13.9z M83,182.4h0.2v1.4H83l-0.2,1.4l-0.2,0.5l-0.2,0.7l-0.5-0.7v-0.5l0.5-1.2
	l0.2-0.2v-1l-0.2-0.2v-0.5l0.2-0.5l0.5-0.2L83,182.4z M38.3,16h-0.2l0.2,0.2v0.2h-0.2v-0.2h-0.2l0.2-0.2v-0.2h0.2V16z M62.3,132.6
	l-0.2-0.2h0.2V132.6z M20.6,18.2h-0.2V18h0.2V18.2z M40.3,19.2v0.2H40L40.3,19.2H40l0.2-0.2L40.3,19.2z M16.3,50.4H16v-0.2h0.2
	L16.3,50.4z M36,24.7l-0.2-0.2H36V24.7z M23.7,20.3h-0.2v-0.2h0.2V20.3z M12.2,76.3h-0.2V76h0.2V76.3z M37.4,21.5h-0.2v-0.2h0.2
	V21.5z M29,22h-0.2v0.2h-0.2l0.2-0.2v-0.2H29V22z M14.1,65.9v-0.2h0.2L14.1,65.9z M29.5,22h0.2v0.2h-0.2v0.2h-0.2v-0.2h0.2V22
	l-0.2-0.2h0.2V22z M19.9,56.8h-0.5l0.2-0.2h0.2V56.8z M18.2,57.5h-0.2l0.2-0.2V57.5z M8.3,57.5H8.1v-0.2h0.2L8.3,57.5z M14.8,65
	h-0.2v-0.2h0.2V65z M15.8,71.5h-0.2v-0.2h0.2V71.5z M13.2,73.9h-0.2v-0.2h0.2V73.9z M12.9,74.4h-0.2v0.2l-0.2,0.2v-0.5h0.2v-0.2h0.2
	V74.4z M12.7,75.6h-0.2v-0.2h0.2V75.6z M12.9,76v0.5h-0.2v-0.7h0.2V76z M80.8,186.9l0.2,0.2v2.2l0.2,0.2l-0.5,0.5l-0.2,0.2l-0.2,0.2
	l-0.2-0.2l-0.2-0.2v-0.2h0.2l0.2-0.2l-0.2-0.2v-1.4l0.2-0.7l0.2-0.5L80.8,186.9z M38.1,35.5h-0.2v-0.2h0.2V35.5z M41,1.6v0.2h0.2
	V1.6l0.2-0.2H41V1.1h-1v0.5h-0.5v0.2h-0.2v0.5H39v0.2h-0.5v0.5h-0.2v0.2h-0.2V3.1h-0.2v0.5h0.2v0.2h-0.5v0.5h-0.2V5h-0.2l-0.2,0.2V6
	h-0.2v0.2h-0.2v0.2h0.5l-0.2,0.2v1l0.2-0.2v1.9h-0.2v0.5h-0.2v0.5l-0.2,0.2V11h-0.2v0.5l-0.2-0.2v1.2h-0.2V12l-0.2,0.2v1l0.2-0.2
	v0.2h-0.2v0.7h0.2v1.2l-0.2,0.2v0.2h0.2v0.7h0.2v0.2l0.2,0.2v0.5h0.2v0.5h0.2v0.7l0.2,0.2V19h0.2v0.2l0.2,0.2v0.2l-0.2,0.2h0.2v0.5
	h-0.2v0.2h0.2v0.5h-0.2v0.2l-0.2,0.5h0.2l-0.2,0.2l-0.2,0.2h0.5l-0.2,0.2l0.2,0.2h-0.7v0.7h-0.2v0.2h-0.2V24l0.2,0.2h-0.2L35.4,24
	h-0.2v0.2h0.2v0.5h0.2V25h-0.2l-0.2,0.2l0.2,0.2h-0.2v0.2h0.2v0.2H35v-0.5h-0.5v-0.2L34.3,25v0.2H34v0.2h0.2v0.5L34,25.6h-0.2v0.2
	H34v0.2h0.2v0.2h0.2v0.2h-0.2v-0.2H34v-0.2h-0.2v-0.2h-0.2v0.5h0.2v0.2H34v0.2h-0.5v0.7h0.2v0.2h-0.2V28h-0.2v-0.2h0.2l-0.2-0.2
	v-0.2L33,27.5v-0.2h0.2v-0.5h0.2v-0.2h-0.2v-0.5H33l-0.2,0.2v0.2H33V27h-0.2v-0.5h-0.5v0.2h0.2V28h0.2v0.2h-0.5v0.5l-0.2-0.2v0.7
	h-0.2V29h-0.2v0.7h-0.2v0.5h-0.2v0.7h-0.2l0.2,0.2h-0.2v0.2l-0.2,0.2h-0.2v0.2h-0.2v-0.2h0.2v-0.5h-0.2v0.2l-0.2,0.2h-0.2v-0.5
	l0.2-0.2h0.2v-0.2h0.5l-0.2-0.2v0.2l-0.2-0.2l-0.2,0.2V30l0.2-0.2v-0.2h-0.2l0.2-0.2h0.2v-0.7l-0.2-0.2h0.2v-0.5h0.2v-0.5h-0.5v0.2
	h-0.2v-0.5h0.7v0.2l0.2-0.2v-0.5h0.2v-0.5h0.2v-1h0.2v-0.5h-0.2v0.2h-0.2v-0.2h0.2v-0.2h0.2v0.2h0.2v-0.5h-0.5v-0.2h0.5l-0.2-0.2
	h0.2v-0.2h0.2v-0.2h0.2V23h0.5v-0.5H33v-0.2h0.2v-0.7h0.2v-1h-0.2v-0.2L33,20.1h0.2v-0.2H33l0.2-0.2v-0.2H33v-0.2h0.2v-0.2h0.2v-1.2
	h0.2v-0.5h-0.2V17l0.2,0.2v-0.5h-0.2l-0.2-0.2h0.2v-0.2l-0.2,0.2H33l0.2-0.2h0.5V16h-0.2v-0.2h-0.2L33,16h-0.2l0.2-0.2h0.2v-0.2
	L33,15.3v0.2h-0.2v0.2h-0.2v-0.2h0.2l-0.2-0.2h0.2V15l-0.2,0.2h-0.7v0.5h-0.2V16h-0.2v0.7h-0.2v0.7h0.2v-0.2l0.2,0.2h-0.2v0.2h-0.5
	v0.2h0.2v0.2l0.2,0.2h-0.5v-0.5l-0.2,0.2v-0.2h-0.2v-0.2h-0.2v0.2h-0.2v0.7h0.2l-0.2,0.2v0.5h0.2l0.2-0.2v0.2h-0.2V21h0.2v0.2
	L30.2,21h-0.2v0.2h0.2v0.5h0.2V22h-0.2v-0.2h-0.2v-0.2h0.2l-0.2-0.2h-0.5V21h-0.2v0.2H29V21h-0.2v0.2h-0.2l0.2,0.2h-0.5V21L28,21.3
	h-0.2L28,21h0.7v-0.2h-0.5v-0.5H28v-0.5h-0.2v-0.2h-0.2v0.2l0.2,0.2h-0.5v0.5H27V21l-0.2,0.2v0.2l-0.2,0.2h-0.2V22h-0.2v-0.2h0.2
	v-0.2h0.2V21h0.2v-0.2h-0.5v-0.5h-0.7v-0.2h0.2v-0.2h-0.2v-0.5l-0.2,0.2v-0.2h0.2v-0.2h-1v0.2h-0.5v0.5h-0.5v-0.5h-0.2l0.2-0.5v-0.2
	l-0.2-0.2h0.2v-0.5h0.2v-0.2h-0.2v-0.2l-0.2-0.2v0.5l-0.2-0.2v0.2H23v-0.2l-0.2,0.2v-0.2h-0.2v0.5H22v0.5h-0.2v0.2H22v0.5h0.2v0.2
	h0.2v0.2h0.2v1l-0.2-0.2v0.5h-0.2v-0.7H22v0.5h-0.2v-0.7h-0.2v-0.5h-0.2v1l0.2,0.2v0.2l-0.2-0.2v-0.2L21,20.2v-0.2h-0.2v-0.5h-0.2
	v-0.2l0.2-0.2v-0.7H21V18h-0.2v-0.2H21l-0.2-0.2v-0.2h-0.2v0.2h-0.2v-0.2h-0.2v1.9h0.2v0.5h-0.2l0.2,0.2l-0.2,0.2h0.2v0.5h0.2v0.5
	h0.2l-0.2,0.2h0.2v0.2l0.2,0.2V22h0.2v0.2h-0.5v0.2h-0.2l-0.2,0.2v0.7h-0.2l0.2,0.2h-0.2l-0.2,0.2v0.2h0.2l-0.2,0.2l0.2,0.2v0.5h0.2
	v0.2h-0.2l0.2,0.2h-0.2v1.2h0.2v0.5h0.5L21,27v0.5h-0.2l0.2,0.2h-0.2v0.7H21V29h0.2L21,29.2v0.2h0.2V30h0.2v0.5h0.2l0.2,0.2v-0.2
	h0.2L22,30.7h-0.2l-0.2,0.2v0.2l0.2,0.2H22v-0.2h0.7l-0.2,0.2v0.2H22v0.5h0.5v0.2l0.2-0.2v0.2h-1v0.2h-0.2v0.2h-0.2v0.5h0.2v0.2
	h-0.7V34H21v0.5h-0.2l-0.2,0.2V35l0.2,0.2v0.2h0.5L21,35.7h-0.2V36H21v0.2h-0.5v0.2h0.2v0.2h-0.2v0.5h0.2v0.2h-0.5v0.2L20,37.9v0.5
	h-0.2v0.2H20v0.7l-0.2-0.2v0.5h-0.2v0.2h0.2L20,40v0.2L19.9,40h-0.2v0.7l0.2,0.2v0.5h-0.2v0.2h-0.5l0.2,0.2h-0.5v0.2h0.2l-0.2,0.2
	h0.2v0.7h-0.5v0.5h-0.5l0.2,0.2h-0.2v0.2H18v0.2h0.5v0.2l0.2,0.2L18.4,45v0.5h-0.2L18,45.8h-0.2v-0.2l-0.2-0.2h-0.2v0.5H17l0.2,0.2
	v0.5h-0.5v0.7h-0.2v0.2h-0.2v0.2H16v0.5h-0.2v0.2h-0.2v-0.2h-0.2v0.5h0.2l0.2,0.2h-0.2v0.2h-0.2v-0.2H15v0.2h-0.2v0.5H15l0.2,0.2
	l0.2,0.2v0.2h-0.2L15,50.1l-0.2,0.2v0.2h-0.2v0.2l-0.2-0.2V51h0.2l-0.2,0.2V51h-0.2v0.7h0.2V52h0.2l-0.2,0.2h0.2v0.2h-0.2V52h-0.7
	l0.2-0.2h-0.2v-0.2h-0.2v0.2h-0.2V52h-0.5l-0.2,0.2h-0.2v0.2l-0.2,0.2L11.7,53h0.2v0.2L11.7,53v0.2h-0.2v0.2h0.2v0.2h-0.2V54h-0.2
	v0.5H11v-0.2h-0.2v0.5h-0.2v0.5h-0.2v0.2H10v0.2H9.8v0.2H9.3v0.5H9.1v0.5H8.4v0.2H8.1v0.2H7.4v0.2h0.5l0.2,0.2H7.9V58h0.2v0.5H7.9
	v0.2H7.6V59H7.4v0.2h0.2v0.2h0.2v0.2H7.6v-0.2H7.2v0.7H6.9v0.5H6.7v1.2l0.2-0.2v0.7l0.2-0.2v0.7H6.9v0.7h0.2v0.7h0.2v0.5h0.2V65H7.4
	v0.2H7.2v0.2H6.9v0.2h0.2V66h0.2v0.7H6.9v0.5H6.7v0.5h0.2v0.7h0.2v0.2H6.7v0.2h0.5V70h0.2v1h0.2v0.2h0.2v0.5H7.6v0.7H7.2v0.7H6.9
	l0.2,0.2H6.7v0.2H6.4v0.2H5.9v0.2H5.7v0.2H5.2v0.2H5v0.2h0.5v0.2h0.2v0.2H5.5l0.2,0.2H5.5v0.2H5V76H4.8v0.2H5v0.2H4.8v0.7H5v0.7H4.8
	v0.2H4.3v0.2h0.2v0.2H4v0.5h0.5v0.2h-1l-0.2,0.2H3.1v0.2H1.9l-0.2-0.2v0.2H1.4v0.2H1.1v0.2l-0.2,0.2h0.2v0.2h0.5V81l0.2-0.2V81h0.2
	v-0.2h0.2V81H2.1v0.2H1.9V81H1.6l-0.2,0.2H1.1v0.5h0.2V82h0.5v0.2l-0.2,0.2v0.2H1.4V83h0.2v-0.2h0.7v-0.2h0.5v0.2h0.5V83h0.5v0.2
	h0.5l0.2,0.2v0.2h0.2v-0.2H5v0.2H4.8V84H4.5v-0.2H4v0.7h0.5l-0.2,0.2h0.2v0.2H4.3v-0.2H4v-0.2H3.3v0.5h0.2l-0.2,0.2h0.2v0.2H3.3
	l-0.2,0.2h0.2v0.7h0.2v0.2H4v0.5l0.2-0.2v0.2h0.2l0.2,0.2H5v0.2h0.2v-0.2l0.2,0.2v-0.2h0.2v0.2H5.5l0.2,0.2H5.5v0.5h0.2v0.5H5.5V89
	h0.5v0.2L5.7,89v0.2H5.5v0.2h0.2v0.2h0.2v-0.2h0.2v0.2h0.5V90h0.2v0.5h0.2v0.5h0.2v0.7l0.2,0.2v0.2H7.4v0.2h0.2v0.2l0.2,0.2v0.7
	l0.2,0.2V94h0.2v0.2h0.2v0.5H8.1V95l0.2,0.2h0.2v0.2h0.2v0.2H8.6V96H8.4v0.2h0.2v0.2h0.5v0.5H8.8v0.2h0.2v0.2h0.7v0.7H9.6v0.2H9.3
	l0.2,0.2v0.2h0.2l0.2,0.2h0.2v0.2H11v0.5l0.2,0.2h0.5v0.2H12l0.2,0.2l0.2,0.2l0.2,0.2v0.2h-0.2v0.2h-0.2v0.2h0.2v0.2h0.2l0.2,0.2
	h-0.5v0.2h0.5v0.7h-0.2v0.5h0.2v0.2h0.2v0.2h0.2v-0.2h0.2v-0.7h-0.2v-0.2l0.2-0.2h-0.5l0.2-0.2h0.2v-0.2h0.2l0.2-0.2v0.5h0.2v-0.2
	h0.2v0.2h0.7v0.2h0.2v0.2h0.2v0.2h-0.2v0.5h-0.5v0.5l-0.2,0.2v0.5h0.5v-0.2h0.5l0.2,0.2l-0.2,0.2h0.5v0.2H16v0.2h-0.2v0.7l0.2,0.2
	l0.2,0.5v0.2l0.2,0.2v0.2h0.2v0.2l0.2,0.2l0.2,0.2l0.2,0.2v0.2l0.2,0.2v0.2l0.2,0.2v1.2h0.2v0.5l-0.2,0.2v-0.2h-0.2v-0.5h-0.2v-0.2
	l-0.2-0.2v-0.7H17v-0.2h-0.2v-0.5h-0.5v-0.5l-0.2-0.2v-0.5h-0.2v-0.2h-0.2V107l-0.2-0.2v-0.2h-0.2v-0.2h-0.5l-0.2,0.2v0.2l0.2,0.2
	h0.2l0.2,0.2v0.2h0.2l-0.2,0.2v0.5h0.2v0.5h0.2v0.5h0.2v0.2H16v0.2h0.5l0.2,0.2v1l-0.2,0.2v0.2H17l0.2,0.2v0.7h0.2l0.2,0.2H18v0.4
	l0.2,0.2v0.2h0.2v0.2l0.2,0.2h0.2l0.2-0.2v-0.2l0.2-0.2V113l0.2-0.2h0.2v0.5l-0.2,0.2l0.2,0.2h0.2v1.2h0.2l0.2,0.2v0.2l-0.2,0.2
	l0.2,0.2l0.2,0.2h-0.5v0.2l-0.2,0.2v0.2h-0.2v0.2l-0.2,0.2l0.2,0.2l0.2-0.2v-0.2l0.2-0.2h0.2l0.2-0.2h0.2l0.2-0.2v-0.5l0.5-0.2v0.7
	l0.2,0.2v0.5l0.2,0.2h0.2v0.5l-0.2,0.2h-0.7v0.2h0.2v0.5H22l0.5,0.2h0.2v0.2H23v0.2l0.2,0.2L23,120v0.2h0.2v0.2H23l-0.2,0.5v0.5H23
	v-0.2h0.2v-0.2h0.2v0.2l0.2,0.2l0.2,0.2v0.2h0.2l0.2-0.2h0.2v0.7h-0.2v0.2h-0.2v1.4h0.2v-0.2l0.2-0.2h0.2l0.2,0.2h0.2v0.2h0.2
	l0.2,0.2v0.2l-0.2,0.2v0.3l0.2,0.2h0.2V125l0.2-0.2l0.2-0.2v-1h0.2l0.5,0.2v0.7l0.2,0.2v1h-0.2v0.2l0.2,0.2v0.2l0.2,0.2v1.2
	l-0.2,0.2v0.7H28l0.2-0.2l0.2-0.2v-0.5l0.2,0.2h0.7v0.2l-0.2,0.2v0.5H29v0.5h0.2l0.2-0.2l0.2-0.2v-0.2l0.2-0.2h0.2v1.9h0.5v0.2h0.2
	l-0.2,0.2l-0.2,0.2h-0.2v0.5h0.5l0.2,0.2v-0.2l0.2,0.2v0.7l0.2,0.2l0.2-0.2l0.2-0.2h0.2v0.2h0.2l0.2-0.2l0.2,0.2h0.2v0.2h0.2v0.5
	l0.2,0.2v0.7l-0.2,0.2v0.2h0.2v0.2l0.2-0.2l0.2-0.2l0.2-0.2v0.2h0.2v1.4l0.2,0.2v0.5H35v0.5l0.2,0.2l0.2,0.2v-1l-0.2-0.2v-0.2
	L35,136v-0.2h0.2l0.2-0.2h0.2v0.2L36,136v0.2l0.2,0.2h0.2v-0.2h0.2v0.2l0.2,0.2h0.5v0.3l0.2,0.2l-0.2,0.2h-0.5v0.2l0.2,0.2v0.2
	l0.2,0.2v0.2h0.2v-0.5h0.2l0.2-0.2l0.2,0.2l0.2,0.2l0.2,0.2h0.2l0.2-0.2l-0.2-0.2h-0.2V138l-0.2-0.2l0.2-0.2h0.2l0.2-0.2h0.5
	l0.2,0.2h1.2l0.2-0.2H42v0.2l-0.2,0.2l-0.5,0.2H41v0.2h-0.2v0.2l0.2,0.2v0.7l0.2-0.2h0.2v0.5l0.2,0.2H42l0.2-0.2l0.2-0.2l0.2-0.2
	h0.2l0.2-0.2l0.2-0.2h0.7l0.2-0.2h0.2l0.2-0.2l0.2,0.2v0.5h-0.2v0.2h-0.2l-0.2,0.2l-0.2,0.2h-0.2l-0.2,0.2l-0.2,0.2h-0.2l-0.2,0.2
	l-0.2,0.2v0.5h0.2l0.2,0.2h0.2l0.2,0.2l-0.2,0.2v0.5l0.2,0.2h1v-0.2l0.2-0.2h0.2v-0.2l0.2,0.2h0.5l-0.2-0.2v-1h-0.2v-0.7l0.2-0.2
	l0.2,0.2H46v0.5l0.2,0.2v0.2l0.2,0.2l0.2,0.2h2.6l0.2-0.2l0.2-0.2l0.2-0.2h0.2l0.2,0.2l0.2,0.2v0.2l-0.2,0.2h-0.2l-0.2,0.2v0.2h-0.5
	l-0.2,0.2h-1.9v0.2l-0.2,0.2H47l-0.2,0.2l-0.2,0.2h0.7l0.5-0.2h0.5l0.2,0.2h0.5l0.2,0.2l0.2,0.2v-0.2l0.2-0.2l0.2,0.2v1l0.2,0.2v0.2
	l0.2-0.2h0.2v-0.5l0.2-0.2h0.2l0.2,0.2v0.2h0.5v0.2l-0.2,0.2l-0.2,0.2h-0.2v0.7l0.2,0.2v0.2l0.2,0.2l0.2,0.2H52l0.2,0.2v0.2h0.2
	l0.2-0.2l0.2-0.2h0.5v-0.5l0.2-0.2v-0.2h0.2l0.2-0.2v-0.7l0.2-0.2v-0.7h0.2V144l0.2,0.2v0.5h0.2v0.5l-0.2,0.2l-0.2,0.2l0.2,0.2
	l-0.2,0.2v0.5h0.2l0.2,0.2v0.2h0.2l0.2,0.2h-0.7l-0.2-0.2h-0.2v0.2l0.2,0.2v1.2l0.2,0.2v0.2l0.2,0.2v0.2l0.2,0.5h0.2l0.2,0.2h0.2
	v-0.2h0.5l0.2-0.2H57v0.2h0.5v0.2h0.2v0.2l0.2,0.2v0.2h0.2l0.2,0.2v1l0.2,0.2v0.7l0.2,0.2l0.2,0.2v0.5l0.2,0.5v0.5l0.2,0.2v0.2
	l0.2,0.2v0.5l0.2,0.2h0.2v0.2l0.2,0.2l0.2,0.7l0.2,0.5v0.5l0.2,0.2v1l0.2,0.5v0.2l0.2,0.5v0.2l0.2,0.2l0.2,0.5l0.2,0.2v0.2l0.2,0.2
	v0.5l0.2,0.2v0.5l0.2,0.2v0.5l0.2,0.2l0.2,0.5v0.7l0.2,0.2v0.2l0.2,0.5v0.7l0.2,0.2v0.5l0.2,0.5v3.8l0.2,0.2v1.2l0.2,0.2v2.2h0.7
	v-0.2l0.5,0.2h0.2l0.2,0.2h0.5v1.4l-0.2,0.7l-0.2,0.2l-0.2,0.5v0.5l-0.2,0.2v0.2l-0.2,0.5l-0.2,0.5l-0.2,0.2v1.2l0.2,0.2l0.2,0.7
	v0.7l-0.2,0.5l-0.2,0.5v0.5l-0.2,0.2v1l-0.2,0.2v0.5l-0.2,0.2l-0.2,0.2l-0.2,0.2v0.2l-0.2,0.2l-0.2,0.2l0.2,0.2v1.4H64v0.2h-0.5v1.2
	l0.2,0.2l0.2,0.2l0.2,0.2h0.2l0.2,0.2v2.9L65,197v0.2l0.5,0.2v1.4l-0.5,0.2l-0.2,0.2v0.7l-0.2,0.2l-0.2,0.2v0.2l0.2,0.2l0.2,0.2v0.2
	l0.7,0.2l1.9-0.2h1.2l0.7-0.7l0.2-0.2l0.2-0.7l0.2-0.5h0.2l0.2-0.5l0.2-0.2l0.2-0.5l1.2-1.9l0.2-1.2l0.2-0.2v-0.2l0.5-0.7l0.2-0.5
	h0.2l0.2,0.2l-0.2,0.7v1l0.2,0.2h1l0.5-1l0.2-0.2l0.2-0.7v-1.2l0.5-0.7l0.5-0.7l0.2-0.5v-1.7l-0.2-0.2v-0.5l0.2-0.2l1,0.5h0.2
	l0.5-0.2H79l0.5,0.5v0.7h-0.7v-0.2h-0.5v2.6H78l-0.5-0.5v0.7l-0.2,0.2l-0.5,0.2v2.4l0.2,2.4l0.7,1.4l-0.2,0.2l-0.2-0.2h-1l-0.7,2.4
	l-0.5,0.7l-0.7,0.7V202l1-2.9v-1l-0.2-0.5l-1.8-1.6h-0.5l-0.5,1.4l-1,1.7v1.2l0.2,0.5l1.4,0.7l-0.2,0.2l-1-0.5l-0.5,0.2h-0.2
	l-0.2,0.7v0.8l-0.2,0.2L70,203l-0.5,0.2l-0.2,1l0.2,1.2h0.2v0.7l-0.2,0.2v1l-0.2,0.2v0.7H69v-0.5l-0.2-0.5l-0.2-0.7h-0.5l-0.2,0.2
	v1.4l0.2,0.2v0.4l-0.2,0.2h-0.7v0.7l-0.7,0.2h-0.2l-0.5,0.2l-0.5,0.5l-0.2,0.2v0.5l0.7,0.7v0.2l-0.2,0.5l-0.2-0.2H65v-0.2h-0.5v0.2
	l0.5,0.7l-0.2,0.5v1.4l0.7,1V215l0.2-0.2l-0.2-0.2l0.2-0.2V214l0.2-0.5l0.2-0.2l0.2-0.2l0.5-0.2h0.5l0.5-0.7v-1.4l0.5-1.2l0.5-1h2.6
	v-0.7l0.2-0.5v-2.4l-0.2-0.2l0.2-1.2v-0.7l0.2-0.5h1l0.5,0.5l0.7,1.7l0.2-0.2h0.2l0.7-1.4l0.5-0.5V201l0.2-0.5l1-0.2l0.5-1v-0.5h0.7
	l0.7-0.2v0.2l0.2,0.5h0.2l0.2,0.5V199H80v-1.2l-0.2-0.5v-1l-0.2-0.5l-0.5-0.5v-0.2l-0.5-0.2l-0.2-1.4l-0.5-0.5v-0.5l0.5-0.2l0.2-0.2
	l0.2-0.2V190l0.2-0.5l0.2,0.5l0.7,1.4l0.7,1.7h0.5l0.2,0.5l0.7-1.2l-0.3-1.4v-0.5l0.2-0.7l0.5-0.5h0.2v1l0.2,0.5v1.2l0.5,0.2
	l0.2-0.5l0.7-1.2l-0.2-0.5v-1.2l-0.2-0.5l-0.7-1v-0.5H84l0.5-0.2l0.5-0.5l0.2-0.5l0.5-0.5h0.2l0.7-0.7h0.2l0.7-1.2l0.2-0.5l0.2-0.2
	h0.5l0.2-0.2l0.2-0.5h0.2l0.2-0.5l1.2-4.6v-1.4l-0.2-0.7l-0.2-0.7H90v-0.5h-0.2l-0.2,0.2V173h0.2v-1.7h-0.5v-0.2H89v-0.2l-0.2-0.2
	v-0.2h-0.2v-0.2H88v0.2h-0.2v-1.2H88v0.5h0.2v0.2h0.5l0.2,0.2h0.5v-0.5h0.2v-0.2l0.2,0.2h0.5v0.5h0.5v0.2h-0.2v0.2h0.2v-0.2h0.5
	v-0.7h-0.2v-1h-0.2l0.2-0.2h0.2l-0.2-0.2v-0.5l-0.2,0.2v0.2h-0.2v-0.7l0.2-0.2V167h0.5v-0.2h-0.2v-0.2h-0.5v-0.2h-0.5l-0.2,0.2v-0.2
	l-0.2,0.2h-0.5V166h0.2l0.2-0.2h0.2v-0.2l-0.2-0.2V165l-0.2-0.2v-0.5h0.2v-0.2h0.2v1.4h0.2v-0.2l0.2-0.2v-0.5h0.2v-0.2h-0.2v-1
	l-0.2-0.2v-0.5h-0.2v-0.2h-0.2l-0.2-0.2v-1h0.2l0.2,0.2v-1l0.2-0.2h-0.7l-0.2-0.2v0.2H89v0.2h-0.2v-0.7l-0.2-0.2v-0.2l0.2,0.2
	l0.2,0.2h0.7v-0.7l0.2-0.2v-1l-0.2-0.2v-0.2H90V157l0.2,0.2V157h0.5v-0.2h-0.5v-0.2h0.5v-0.2h0.2v-0.7h-0.5v0.5h-0.2v0.2L90,156
	l0.2-0.2V155h-0.5v0H90l0.2-0.2v-0.5h0.2v0.2h0.5l0.2-0.2V154h0.2v-1.2l-0.2-0.2v-0.2h-0.2v-0.2h-0.2l-0.2-0.2h-0.7v-0.2h-0.2v-0.2
	h-0.2v0.5H89v-0.2h-0.2v-0.2h-0.5v-0.2H88v-0.2h-0.5v0.2h-0.2v-0.2h-0.7v-0.2h-0.7l-0.2-0.2h-0.2v-0.2h-0.5v0.2h-0.5v0.5h-0.2v-0.2
	l-0.2-0.2h-0.2l-0.2-0.2h-0.2v-0.2H83v-0.2h-1v-0.2l-0.2-0.2h-0.2V149h-1v-0.2l-0.2-0.2H80v-0.2h-0.2V148l-0.2-0.2h-0.2l-0.2-0.2
	h-0.2v-0.2h0.5l0.2,0.2h0.2v-0.2h-0.2v-0.5h-0.2v-0.5h-0.2v-0.5h-0.5v-1h-0.5v-0.2h0.2v-0.2h-0.7v-0.2h-0.5v-0.2h0.5v-0.2h0.2v-0.2
	h0.2v-0.2h-0.5v0.2h-0.2v0.2h-0.2v0.2H77v-0.5h-0.5v-0.2h-0.2V143h0.2v-0.2h0.2v-0.2h-0.2v-0.2h-0.2V142H76v-0.2l-0.2-0.2v-0.2h-0.2
	V141h-0.2l-0.2-0.2h-0.5v-0.2h-0.2v-0.2h-0.5v-0.2h-0.5v0.2h-0.5v-0.2h-0.2v-0.2h-0.2v-0.5h0.2v-1.2h-0.2v-0.5l-0.2,0.2v-0.5
	l-0.2-0.2V137h-0.5v-0.7h-0.2L71,136v0.2l-0.2-0.2h-0.5v0.2H70V136l-0.2-0.2v-0.2l-0.2-0.2v-0.5h-0.2v-0.5H69v-0.7h-0.2v-0.2h-0.2
	v-0.2h-0.2v-0.2h-0.5v-0.2h-1v-0.2h-0.5v-0.2h0.2l-0.2-0.2v-0.2h-0.2v-0.2h-0.2v-0.2h-0.2V131h-0.2v-0.2h-0.2v-0.2h-1.6v0.7h-0.5
	V131h-0.2v-0.2h-0.2v0.5h-0.2v0.5h-0.2v0.2h-0.2v0.2l-0.2-0.2H60l-0.2-0.2l-0.5-0.2l-0.2-0.2h-0.7L58,131l-0.2-0.2v-0.2l-0.2-0.2
	h0.7V130l-0.5-0.2h-1.2v0.2l-0.2,0.2v0.2l0.2,0.2l0.2,0.2l0.2,0.2l0.5,0.2h0.2l0.5,0.2l0.2,0.2H59l0.2,0.2l0.2,0.2v0.2l-0.2,0.2H59
	l-0.2-0.2l-0.2-0.2h-0.2l-0.5-0.2v-0.2h-0.7v-0.2h-0.2l-0.5-0.2l-0.2-0.2l-0.2-0.2h-0.7l-0.2,0.2h-0.2v-1.7h-0.2l-0.2,0.2H54v0.2
	h-0.2v-0.2l0.2-0.2V129h0.2l0.2-0.2l0.2-0.2h-1.4l0.2-0.5l0.2-0.2h-1l-0.2-0.2v-0.5h-0.2l0.2-0.2v-0.2l-0.2,0.2H52v0.2l-0.2,0.2
	h-0.2l-0.2,0.2v0.5l0.2,0.2v0.5l-0.2,0.2v0.2H51l-0.2-0.2h-0.5v-0.2l0.2-0.2v-0.2h-0.5v-0.5h-0.2v-0.5h0.2v-0.2h-0.2v-0.2l-0.2-0.2
	v-0.5l-0.2-0.2v-0.5h0.2l0.5,0.2l0.2,0.2l0.2,0.2h0.2v-1h-0.2l-0.2-0.2h-0.2v-0.2h-0.5l-0.2,0.2h-0.2v-0.5l0.2-0.2V124l-0.2-0.2v0.2
	h-0.5v-0.2l0.2-0.2h0.2l0.2-0.2V123h-0.2v0.2h-0.5l-0.2,0.2l-0.2,0.2v0.7h-0.2v-0.2l-0.2-0.2v-0.5l-0.2-0.2h-0.2v0.2l-0.2,0.2v0.2
	h-0.5v-0.2h-0.2v-0.5l-0.2,0.2v-0.2l-0.2-0.2v-0.7h-0.5l-0.2-0.2v-0.2h-0.2v0.5l-0.2,0.2h-0.2v-0.2h-0.2l-0.2-0.2v-0.2h-0.2v0.5h0.2
	v0.2h0.2v0.2h-0.2v0.2h-0.2l-0.2-0.2v0.5h0.5v0.2h0.5l0.5,0.2v0.2l-0.2,0.2h-0.7l-0.2-0.2h-0.7l-0.2,0.2l-0.2,0.2v0.5h0.5v-0.2h0.2
	v-0.2h0.2v0.2h1.9l0.2,0.2l0.2,0.2l0.2,0.2h-1l-0.2-0.2H44v0.5l0.2,0.2h0.2v0.2l-0.2,0.2H44l-0.5,0.2l-0.2,0.2v0.5l-0.2,0.2
	l-0.2-0.2v-1h-2.4l-0.2,0.2l-0.2-0.2l0.2-0.2l0.2-0.5V124h0.2l0.2-0.2V123h-0.5v-0.2l0.2-0.2l-0.2-0.2l-0.2-0.2l-0.2-0.2v-0.2h-0.2
	v-1.4l0.2-0.2h0.2l-0.2-0.5l0.2-0.2l-0.2-0.5l-0.2-0.2h-0.2l-0.2-0.5v-0.2H39v-0.2h-0.2v1.5l0.2,0.2v0.7l-0.5,0.2h-0.2l-0.2,0.2
	l-0.2,0.2l-0.2,0.2l-0.2-0.2l0.2-0.2v-0.2l-0.2-0.2h-0.2v1l-0.2,0.2l0.2,0.2v0.2h0.2l-0.2,0.2h0.2v0.7l0.2,0.2v0.7h0.2v0.2l0.2,0.2
	h-0.2l0.2,0.2l0.2,0.5l0.2,0.2v1.2l0.2,0.2v1h-0.2v0.2l-0.2-0.2l-0.2-0.2l-0.2-0.2h-0.2l-0.2-0.5l-0.2-0.2V126l-0.2-0.2v-0.2
	l-0.2-0.2l-0.2-0.2l-0.2-0.2l-0.2-0.2h-0.5l-0.2-0.2H35l-0.2-0.2l-0.2-0.2h-0.2l-0.2-0.2l-0.2-0.2l-0.2-0.2h-0.2l-0.2-0.2h-0.7v-0.2
	l0.2-0.2h0.5l0.2-0.2h0.5L34,122h0.2v-1.7H34l-0.2,0.2v0.2h-0.2V120h-0.2l-0.2-0.2v-0.2h0.2v-0.2h-0.5l-0.2-0.2l0.2-0.2H33l0.2-0.2
	V118h-0.5l-0.2,0.2v0.2h-0.2l-0.2-0.2h-0.2V118h-0.2l-0.2-0.2h-0.5l0.2-0.2h-1l-0.2,0.2l-0.2,0.2v0.5h-0.5l-0.2-0.2l-0.2-0.5
	l0.2-0.2V117l-0.2-0.5v-0.2h0.5l0.2,0.2l0.2,0.2h0.2v-0.2h1.9l0.2,0.2h0.5l0.2,0.2l0.5,0.2h0.5l0.5,0.2H35l0.2,0.2l0.5,0.2h0.7
	l0.2-0.2v-0.5H35l-0.2-0.2l-0.2-0.2H35l0.2-0.2h0.2l0.2-0.2h-0.2v-0.5l-0.2-0.2H35l-0.2-0.2h-0.2l-0.2-0.2v-0.2h-0.5l-0.5-0.2
	l-0.2,0.2l0.2,0.2h0.5v0.2H34v0.2h-1.2v0.2h-0.7v0.2h-0.5l-0.2-0.2h-0.2v-1h-0.5l-0.2,0.2v0.2l-0.2,0.2l-0.2,0.2h-0.2v-0.5l-0.2-0.5
	v-0.2h-0.7v-1l-0.2-0.2l-0.2-0.2v-0.7H28l-0.2,0.2v0.5l-0.2,0.2l-0.2,0.2H27v-0.5l-0.2,0.2l-0.2-0.2l0.2-0.2H27v-0.5h0.2v-0.7h0.2
	V111h0.2v-0.2H28v0.2h0.7l0.5,0.2h0.2V111l-0.2-0.2v-0.2h0.2V110h-0.2v-0.2L29,110v0.2l-0.2,0.2h-0.2l-0.2-0.2h0.2V109H29v0.2h0.2
	V109h0.2v-1l0.2-0.2v-0.5h-0.2v-0.2l-0.2,0.2v0.2H29v1l-0.2,0.2h-0.2v-0.2h-0.2v-0.2H28v-0.5h-0.2v0.2l-0.2,0.2l-0.2-0.2l-0.2-0.2
	v-0.7l-0.2-0.2v-0.2h-0.2v-0.2l-0.2,0.2v0.5h0.2v0.2h-0.2v0.2h-0.2v0.2h-0.5v0.2h0.7v0.2l0.2,0.2v0.2h-0.7v0.5h0.2v0.5h-0.2v-0.2
	h-0.2v-0.2h-0.2v0.7h-0.2l-0.2-0.2v-0.2h-0.2V109h-0.5v-0.5h-0.2l-0.5-0.2l-0.2-0.2v-0.2h0.2l0.2-0.2l0.2,0.2h0.2l0.2-0.2v-0.2
	l-0.2-0.2h-0.5V107H23l-0.2-0.2h-0.2V106h0.2v-0.5l-0.2-0.2V105l-0.2-0.2l-0.2-0.2v-0.7l-0.2-0.2l-0.2-0.2h-0.2v-0.2h-0.2v-0.2
	l-0.2-0.2v-0.5l-0.2-0.2l-0.2-0.7v-0.5h-0.2l0.2-0.2l-0.2-0.2V100h-0.2v0.5l-0.2,0.2v0.3h-0.2l-0.2-0.2v-1.2h0.2v-0.5l0.2-0.2v-0.2
	l-0.2-0.2v0.2h-0.2v0.2h-0.5l-0.2-0.2H18v-0.7h0.5v-0.5l-0.2-0.5v-0.2H18l-0.2-0.2v-0.2h0.5v-0.5h-0.5v-0.2h-0.2v-0.2h0.2L18,95
	v-0.2h0.2V95h0.2v0.5h0.2v0.2h0.2v0.5h0.2v0.2l0.2,0.2v0.2h0.2v0.2l0.2,0.2h0.2v0.2h0.2v-0.2h0.2v-0.2h-0.2v-1h0.2v-0.5l-0.2-0.2
	v-0.2h-0.2V95h0.2l0.2,0.2l0.2,0.2l0.2,0.2V95h-0.2v-0.2h-0.2v-0.2h-0.2v-0.2h-0.2v-0.5h0.5V94h0.2l0.2,0.2v0.2h0.2l0.2,0.2v-0.5
	L21.3,94l-0.2-0.2v-0.2h-0.2v-0.2h-0.5V93h-0.2v-0.7h-0.7v0.2h-0.2v0.2l-0.2-0.2h-0.2v-0.5h-0.2v-0.7l-0.2-0.2L18,90.9h-1v-0.5h-0.2
	l-0.2-0.2v-0.2h-0.2v-0.2h1.4v-0.5h-0.2L17.2,89v-0.2h0.2l0.2,0.2v0.2l0.2,0.2l0.2,0.2h0.2v0.5h0.5l0.2,0.2h0.5l0.2,0.2l0.2,0.2v0.5
	l-0.2-0.2h-0.2l-0.2-0.2v-0.2h-0.2v0.5h0.2l0.2,0.2h0.2v0.2h0.7v1h0.5l0.2,0.2v0.2h0.2v0.2h0.2v0.2H22v0.2h0.2l0.2,0.2l0.2,0.2H23
	l0.2,0.2h1.2v-0.2h-0.2L24,94h-0.7v-0.2h-0.7v-0.2h-0.2v-0.2H22V93h-0.2v-0.5h0.5v-0.2H22v-0.2l-0.2-0.2h-0.5L21,91.6l-0.2-0.2
	l-0.2-0.2v-0.5l-0.2-0.2v-0.2h-0.5l-0.2-0.2l-0.2-0.2v-0.2h-0.2V89h-0.2v0.7l-0.2-0.2l-0.2-0.2V89h-0.2v-0.2h-0.2v-0.2h-0.5v-0.2
	h-0.2l0.2-0.2v-0.2h-0.2V88H17v-0.5h0.2V87h-0.5v0.2h-0.2L16.3,87v-0.5H16l-0.2-0.2h-0.2v0.5l0.2,0.2l0.2,0.2v0.2h-0.2l-0.2-0.2
	L15.3,87h-0.5v0.2H15v0.2h0.2v0.2h0.2V88H15l-0.2-0.2h-0.2v-0.2h-0.2v-0.2h-0.5V87h-0.2v-0.2h-1.2v-1h-0.2v-1h0.2v-0.2h0.2v-0.7
	h-0.2v-0.2h0.2v-0.2h-0.7v0.2h-0.2v0.2h-0.2v-0.7h0.2v-0.5h-0.2v-0.2l-0.2-0.2h0.2v0.2h0.2V82l-0.2-0.2V82h-0.2v-0.2h0.5V82h0.2
	v-0.7h0.2v0.2l-0.2,0.2h0.5v0.5h0.2v-0.5l0.2-0.2h-0.2V81h0.2v-0.2h-0.2v-0.2h-0.2v-0.2h0.2v0.2h0.5v1.9h-0.2v0.2h0.2v0.5h0.2V83
	h0.2v0.2h-0.2v0.5h0.2V84h0.2v-0.2l-0.2-0.2h0.2v-0.2h0.2v0.2h0.5v-0.7h-0.7v-0.2h-0.2v-0.2h-0.2V82h0.5v-0.5h-0.2V81h0.2v0.2h0.2
	V81h0.5v-0.2h-0.5v-0.2h0.2l-0.2-0.2h0.2v-0.2h-0.2v-0.2h0.2v-0.2h-0.2v-0.2h-0.2l-0.2-0.2v-0.5h0.2v0.5h0.2v-0.2h0.2l0.2,0.2v-0.5
	h-0.5v-0.5h-0.2v-0.2h0.5l-0.2-0.2h-0.2v-0.2h0.2v-0.2h-0.2V77h0.2v-0.5h-0.2v0.2h-0.2V76h-0.2v0.2h-0.2V76h0.2v-0.2h1v-0.2h-0.2
	v-0.7h-0.2v-0.2h0.5v-0.2h0.2v-0.2l0.2-0.2h-0.2v-0.2h0.2v-0.2l-0.2-0.2h0.2v-0.2h0.2v-0.5h-0.2v-0.2l0.2,0.2h0.2v0.7h0.2v-1h0.2
	v0.2H16v-0.2h0.2v-0.2H16v-0.7h0.2V71H16v-0.5h-0.7v-0.2H15V70h0.2v0.2h0.2v-0.5h-0.2v-0.2h0.5v0.2h0.5v-0.2h0.2l-0.2-0.2h-1V69h0.5
	v-0.2h-0.5v-0.2h-0.5l0.2-0.2h-0.2v-0.2H15v0.2h0.2v-0.2H16l-0.2-0.2H16v-0.5h0.5v-0.2h-0.2L16,67.4v-0.2h-0.2v0.2h-0.2v-0.2h0.2
	v-0.2h-0.2v-0.2h-0.2v0.2H15l0.2-0.2H15v-0.2h-0.2v-0.2h-0.2v0.2h-0.2v-0.5h0.2v-0.5h-0.2v-0.2h1.9v-0.5h0.2v-1H17v-0.5h0.2V63H17
	v-0.2h0.2v-0.2H17l-0.2,0.2v-0.2H17V62h-0.2v-0.2H17v-0.2h0.2v-0.5h0.2v-0.5h-0.2v0.2H17l0.2-0.2H17v-1h-0.2v-0.2h-0.2V59h0.2v-0.2
	H17v0.7h0.2v0.2h0.2v-0.2h0.2v-0.2h-0.2v-1h-0.2V58h0.5v-0.2h1v-0.5H19v0.5h-0.2L19,58h0.7v-0.5h-0.2v-0.2h0.5v-0.5h0.5v-0.2h-0.2
	v-0.2h0.2v-0.2h-0.2v-0.2h0.5v-1h0.2v-0.5h0.2l0.2,0.2v-0.7l0.2-0.2v0.7h0.7v0.2h0.2v-0.2l0.2,0.2v-0.2H23l-0.2-0.2v-0.2H23v-0.5
	h0.2v0.2h0.2V53h0.2v0.2h0.5v-0.5l0.2,0.2h0.2v-0.2l0.2-0.2V52h0.2v0.2h0.2v-0.5h0.5v-0.2l0.2-0.2V51l0.2,0.2V51l0.2-0.2v0.5h0.2V51
	h0.2l0.2-0.2v-0.5h0.2v-0.2H28l0.2-0.2v-0.2h0.2v-0.5h0.2v0.2H29v0.5h0.2l0.2-0.2h0.2v0.2h-0.2v0.7h0.2v0.2L30,51h0.2l0.2-0.2v-0.7
	h-0.2v-0.7L30,49.1v-0.2h0.2l0.2,0.2v-0.2l-0.2-0.2v-0.2h0.2v-0.5h0.2v-0.2l0.2-0.2v0.5l-0.2,0.2v0.5h0.2v-0.7h0.2l0.2,0.2v-0.2
	l-0.2-0.2h0.2v0.2h0.5l-0.2-0.2v-0.2h0.2l0.2,0.2v-0.5h-0.2V47l0.2-0.2l0.2-0.5h-0.2v-0.5h-0.2v-0.5h-0.2v-0.2h0.2v-0.5l0.2,0.2h0.2
	v-0.2h-0.2v-0.2h0.2l0.2,0.2v-0.2h0.2v-0.2h0.2v0.2l0.2,0.2v0.5h0.2v-0.2l-0.2-0.5v-0.2h0.2v0.2H34l-0.2,0.2l0.2,0.2l0.2,0.2v0.2
	l0.2,0.2V46l0.2,0.2l0.2,0.2h0.2v1.4h0.2v0.2h0.5V47l0.2-0.2l-0.2-0.2v-0.2h0.2L36,46v-1h-0.2v-1.2h-0.2v-0.2h-0.2v-0.5L35,42.9
	v-0.2h-0.2l-0.2,0.2v0.2h-0.2v-0.2l0.2-0.2v-0.2h0.2v-0.2l0.2,0.2v-0.5h0.2v-0.2l0.2,0.2v-0.5H35V41h0.2v-0.5L35,40.3h-0.2V40h0.5
	l0.2-0.2h0.2V40l0.2-0.2v-1.2l0.2-0.2v-0.5h0.5v-0.2h0.2l-0.2-0.2h0.2v-0.2h0.5l-0.2-0.2h0.2v-0.2l0.2,0.2v-1h0.5l-0.2-0.2h0.2v-0.2
	h0.2l0.2-0.2h-0.2l0.2-0.2h-0.2v-0.5l0.2,0.2v-0.2h0.5l0.2-0.2h0.2v0.2l-0.2,0.2h0.5v-0.2l0.2-0.2l0.2-0.2v0.5l0.2-0.2h0.2V34h-0.2
	v-0.2h0.2v-1h0.7v-0.2l0.2-0.2v0.5H42v-0.5h0.2V32h0.2v-0.2L42.2,32v-0.2h0.2l-0.2-0.2v-0.2l0.2,0.2h0.2v-0.2h0.2l0.2-0.2h0.2v-0.2
	l-0.2,0.2h-0.5v-0.2l0.2,0.2v-0.2h0.2v-0.5h0.2v-0.2h0.2v-0.5h0.2v-0.2l0.2-0.2v0.5h0.2V29h-0.5v-0.2h0.5V29h0.2v-0.2h0.2v-0.2h0.2
	l-0.2-0.2h0.2V28h0.2l-0.2-0.2h-0.7v-0.2h0.2v-0.2h0.2V27l-0.2-0.2h0.7v-0.5h-0.2v-0.2h0.2v-1h-0.2l0.2-0.2l-0.2-0.2v-0.2h-0.2v-0.2
	h-0.2v0.2l-0.2-0.2v-0.2h-0.2v-0.5l0.2-0.2v-0.5h0.2v-0.5L44.3,22h0.2v-0.7h-0.2V21h0.5v-0.2h-0.7l-0.2-0.2h-0.2v-0.2h-0.2v-1h0.2
	V20h0.2v-0.2h0.5v-0.2h0.5V20l0.2,0.2h1V20h-0.2v-0.2h0.5v-0.5h0.2v-0.7l0.2-0.2v-0.2H47v-0.2h0.7v-0.2H48v0.2h-0.2v0.2H48v-0.2h0.5
	v-0.2h0.2v0.2h-0.2v0.2h0.5v-0.2h0.5v-0.5h0.5v-0.2h0.2V17h0.2v-0.2h-0.2v-0.2h0.2v-0.2h0.2V16h0.2v-0.2h0.2v-0.2h0.2l-0.2-0.2h0.2
	V15H52v-0.2l0.2,0.2v-0.2h0.2v-0.5H53v-0.2h0.5v-0.2H53v-0.2h0.2v-0.2h0.2v-0.2h-0.2v-0.2h0.2v0.2h0.2v0.2H54v-0.7l-0.2-0.2H54v0.2
	h0.2v-0.2h0.2v-0.5h0.2v-0.2h0.2v-0.2h0.7v-0.2h0.2V11h0.2v-0.5h0.2v-0.2h0.7V10h-0.2V9.8h0.2V9.6h-0.2V9.3h0.2V9.1h0.2V8.8h0.2V8.1
	h-0.2V7.9h-0.5v0.2h-0.2V7.9h0.2V7.6h-0.5v0.5h-0.2V7.6l-0.2,0.2v0.2h-0.2v0.2h-0.2l0.2,0.2h-0.7v0.7h-0.7V7.6H54v0.2h-0.2v0.2h-0.5
	V7.9h0.5l-0.2-0.2H53v0.2h-0.2v0.2h-0.2v0.2h-0.2V7.9H52v0.2h-0.5v0.5h0.2v0.5h-0.5v0.5h0.2V10h-0.2v0.7H51L50.8,11v-0.2H51
	l-0.2-0.2v0.2h-0.2V10h-0.7v0.2h-0.2v0.2h0.2l-0.2,0.2v-0.2h-0.2v0.7h-0.2v0.2h-0.2l0.2,0.2h-0.2v0.2h-0.5v0.2h-0.2v0.2h-0.2v0.2
	h-0.2v0.2h-0.5v0.5H47v0.2h-0.2v0.2H46v0.5h-0.2v0.2H46v0.2h-0.5V15h-0.2v0.2H45v0.5h-0.2v-0.2h-0.7v0.2h-0.2V16h-0.2v0.5h-0.2v0.2
	h-0.5V17h-0.2v0.2h-0.2v0.2h-0.5v0.2h-0.2v0.5l-0.2,0.2v0.5h-0.2v0.2L41,18.9h-0.5v-0.2h-0.2L40,18.4h0.5V18l-0.2,0.2V18l0.2-0.2
	h0.2v-0.5h-0.2l-0.2,0.2v-0.2H40v0.2h-0.2v0.2h-0.2l-0.2-0.2h0.2v-0.2h0.2V17l-0.2-0.2v-0.2l0.2-0.2h-0.5v0.2L39,16.8V17h-0.2v-0.2
	H39v-0.5h-0.2v-1.5l-0.2-0.2l-0.2,0.2h-0.2v0.2l0.2,0.2v0.2h-0.5l0.2-0.2l-0.2-0.2v-0.2l0.2-0.2h-0.2v0.2h-0.5v0.5h-0.2v0.2
	l-0.2-0.2h0.2v-0.7h-0.2v-0.2h0.2v0.2h0.2v0.2l0.2-0.2h0.2v-0.2h0.2v-0.2l0.2,0.2v-1h-0.2l-0.2,0.2h0.2v0.2h-0.5l0.2-0.2l-0.2-0.2
	h0.2v-0.2l0.2-0.2h-0.2v-0.2h-0.2l0.2-0.2v-0.2h-0.2l-0.2,0.2h0.2l-0.2,0.2v-0.2l-0.2,0.2l0.2,0.2h-0.2v0.5h-0.5l0.2-0.2l-0.2-0.2
	v-0.2h0.5v-0.2h-0.5v-0.2h0.7v-0.2h0.2l0.2-0.2h-0.2v-0.2h0.2V11h0.2v-0.7h0.2V10h-0.2V9.6h0.2V9.1h0.2V8.8l0.2-0.2V8.3H39V7.9h0.2
	V7.6h0.2V6.9l0.2,0.2V6.9H40V6.2h0.2V5.7h0.2l0.2-0.2V5.2h-0.2V4.7h0.2V4.3H41V4h0.2V3.5H41V3.1h-0.2V2.6H41V1.9h-0.2v0.2h-0.2V1.9
	h0.2V1.4L41,1.6z M40.3,3.1H40V2.8h0.2L40.3,3.1z M57.1,9.1h-0.2l-0.2,0.2V9.1h0.2V8.8h0.2V9.1z M54,9.3h-0.2V9.1H54V9.3z M73.2,7.1
	h-1l-0.2-0.2h-1.4v0.2h-0.2v1H71l0.2-0.2l0.2,0.2h0.2L72,8.4h3.4V8.1h0.2l0.2-0.2V7.1h-0.2l-0.2-0.2h-0.7V6.7h-0.7l-0.2,0.2
	L73.2,7.1z M82.8,6.7v0.2h-0.2v0.7h0.2v0.2h0.7l0.2-0.2h1.4l0.2-0.2V7.1l-0.2-0.2V6.7h-0.5V6.4H83v0.2H82.8z M61.2,5.9h-0.2
	l-0.2,0.2l-0.5,0.2v0.2L60,6.9v0.7l0.7,0.2l0.5-0.2V7.1l0.5-0.2h0.5l0.2,0.2h0.5V6.7l-0.2-0.2V6.2h-0.7l-0.2-0.2l-0.2,0.2L61.2,5.9z
	 M86.4,6.2l-0.2,0.2v0.2h0.2v0.2h0.2l0.2,0.2v0.2H88l0.2-0.2l0.2-0.2V6.4h-0.2V6.2H88l-0.2-0.2h-1l-0.2,0.2L86.4,6.2z M58.5,5
	l-0.2,0.2v0.2L58,5.7v0.5l-0.2,0.2H58v0.2h0.2V6.4h1l0.2-0.2L59.7,6V5.7H60V5.5h0.2V5h-0.5l-0.5-0.2L59,5H58.5z M72.9,6.2h-0.7
	l-0.2,0.2l0.2,0.2h1.2l0.2-0.5h-0.2L73.1,6v0.2L72.9,6.2z M64.3,5.2v0.5l0.2,0.2h0.2L65,6.2h3.4V5.9h0.2V5.2L68.3,5l-0.2-0.2h-0.5
	L67.4,5h-0.2l-0.5,0.2h-1L65.5,5H65l-0.5,0.2L64.3,5.2z M63.8,5.2h-0.5V5h-0.7v0.7h1l0.2-0.2L63.8,5.2z M71.9,4.2h-2.2l-0.2,0.2
	l-0.2,0.2V5l0.2,0.2H70l0.5,0.2h3.1l-0.2-0.2V5h-0.2V4.3h-0.5V4h-0.2l-0.2,0.2L71.9,4.2z M34.5,1.9h-0.2v0.2H34V1.9h-0.5l-0.2,0.2
	V1.9h-0.5v0.2l-0.2-0.2V1.6h-0.2v0.2h-0.2v0.2h-0.5l0.2,0.2h0.5l-0.2,0.2h-0.2v0.5h0.5v0.2h-0.2v0.2h0.5v0.2L32.3,4h0.5l0.2-0.2V4
	h-0.2v0.5h-0.2l0.2,0.2v0.5h0.2V4.7h0.2l0.2-0.2v0.2h-0.2V5h0.2V4.7h0.2V5H34v0.5h-0.5v0.2H34V6h0.2V5.7l0.2,0.2V5.7h0.2V5.2H35V5
	h0.2V4.7L35.5,5V4.7h0.2V4.5h-0.5V4.3h0.2L35.2,4h0.2v0.2h0.2L36,4l-0.2-0.2h-0.2l0.2-0.2L36,3.3h0.2V3.1h0.2V2.8l0.2-0.2h0.2V2.3
	h-0.5V2.1l0.2-0.2h-0.2V1.6h-0.7v0.2h-0.2V1.6l0.2-0.2h-0.5v0.7H35l-0.2-0.2V1.4h-0.5v0.2h0.2L34.5,1.9z M33.3,4.5h-0.2V4.3
	L33.3,4.5z M90.4,4h0.2l0.2,0.2h1.9V4l-0.2-0.2h-1V3.5h-1l-0.2,0.2L90.4,4z M86.1,192.4v-0.5l-0.2-0.2h-0.2v0.5l0.2,0.2l0.2,0.2
	V192.4z M85.9,191.4l0.2-0.2l0.5-0.2l0.2-0.5l0.2-0.2V190l1.2-0.5l1-1v-1.9l-0.2-0.5v-0.2l-0.5-0.7l-0.5-0.5l-1.4,0.7l-0.2,0.5
	l0.2,2.2v0.2l-0.7,1l-0.5,1.2v0.7l0.5,0.5L85.9,191.4z M90.9,157.3v-0.2h-0.2v0.2H90.9z M28.5,108.3v-0.2h-0.2v0.2H28.5z
	 M11.5,101.1V101h-0.2v0.2L11.5,101.1z M11,101h0.2v-0.2h-0.5v0.2H11z M3.3,85.4L3.3,85.4v-0.2l-0.2-0.2v0.5L3.3,85.4z M12.9,84.7
	v-0.2l-0.2,0.2H12.9z M14.6,80.1v-0.2h0.2v-0.2h-0.2v0.2h-0.2v0.2H14.6z M15.8,73.4H16v-0.2h-0.5v0.2H15.8z M16.3,72.7h0.2v-0.2H16
	v0.2H16.3z M16,66.7v-0.2l-0.2,0.2H16z M16.5,66.4v-0.2h0.2V66h-0.2v0.2h-0.2v0.2H16.5z M17.2,62.1h0.2v-0.2h-0.2L17,62.1H17.2z
	 M31.6,48.7v-0.5h-0.2v0.5H31.6z M33.1,44.6l-0.2-0.2v0.2H33.1z M19.1,41.7L19.1,41.7v-0.2h-0.2v0.2H19.1z M37.6,37.1v-0.2h-0.2v0.2
	H37.6z M38.3,36.9v-0.2l0.2-0.2v-0.2l-0.2,0.2v0.2h-0.2v0.2H38.3z M38.8,35.5l0.2-0.2v-0.5h-0.2V35h-0.2v0.5L38.8,35.5z M39.5,35.2
	V35h-0.2v0.2L39.5,35.2z M20.8,34.5L20.8,34.5v-0.2h-0.2v0.2H20.8z M41.2,33.3L41,33.1h0.2L41,32.8v0.5L41.2,33.3z M41.7,33.1v-0.2
	h-0.2v0.2H41.7z M21.3,32.8v-0.2h-0.2v0.2H21.3z M30.2,31.4L30.2,31.4l-0.2-0.2v0.2H30.2z M32.6,26.1v-0.2h-0.2v0.2H32.6z M35,24.9
	L35,24.9l0.2-0.2v-0.2L35,24.2v0.2h-0.2v0.5L35,24.9z M35.5,24.9L35.5,24.9v-0.2h-0.2v0.2H35.5z M20.4,23.2L20.4,23.2L20.1,23v0.2
	L20.4,23.2z M20.6,22.2h0.2V22h-0.2l-0.2,0.2L20.6,22.2z M33.6,21.8h-0.2l0.2,0.2V21.8z M33.6,19.1h-0.2v0.2L33.6,19.1z M20.1,17.2
	L20.1,17.2v-0.5L19.9,17v0.2H20.1z M39.8,16.8v-0.2l-0.2,0.2H39.8z M20.4,16.5v-0.2h-0.2v0.2H20.4z M53.7,13.6v-0.2h-0.2v0.2H53.7z
	 M54.4,13.2v-0.2h-0.2v0.2H54.4z M54.7,12.7v-0.2h-0.2v0.2H54.7z M54.9,12.4v-0.2h-0.2v0.2H54.9z M51.3,8.4V8.1h0.2V7.9h-0.2v0.2
	h-0.2v0.2L51.3,8.4z M33.8,6.2V5.7l-0.2,0.2v0.2L33.8,6.2z M33.5,5.2h0.2V5h-0.2l-0.2,0.2L33.5,5.2z M32.8,4.2L32.8,4.2L32.6,4v0.2
	L32.8,4.2z M94,4.2h0.2V4h0.5V3.8h-1v0.5L94,4.2z M39,2.3L39,2.3V2.1l-0.2,0.2L39,2.3z M31.8,1.8h0.2V1.4h0.2V1.1l-0.2-0.2v0.2h-0.2
	v0.2h-0.2v0.2L31.8,1.8l-0.2,0.1l0.2,0.2L31.8,1.8z M36.1,1.3h-0.2v0.2L36.1,1.3z"/>
</svg>
