<svg xmlns="http://www.w3.org/2000/svg" viewBox="0 0 95.52 92.88"><defs><style>.a{fill:#b04300;opacity:0.95;}</style></defs><title>Tumbes</title><path class="a" d="M75.84,33.12H75.6v-.24h-.24v-.24h0V32.4h.24v.48Zm-6,6.24h.24v-.24l-.24.24Zm1-34.08V5h-.24l.24.24Zm4.08,18.24h.48V23h.24v-.48h-.24v-.24h-.48v.24h.24v.24h.24V23l-.24-.24v.48l-.24.24Zm1,10.8H75.6l-.24.24h-.24V35h0v0h-.24v.48h-.24l-.24.24h0l-.24.24v.24h.24v.24h-.24v0h-.24v.24l-.24.24-.24.24h0v.24H73.2v.24h.24v-.24h0v.24h0v.24h.24v.24l.24-.24v-.24l.24-.24V37.2h.24V37l.24-.24v-.24h.24v-.24l.24-.24.24-.24v-.24l.24-.24V35h.24v-.72Zm-4.56-24v0ZM71,11.52h.24l.24-.24.24-.24L72,10.8h.24v-.24l.24-.48v0l-.24.48v.24H72l-.24.24-.24.24-.24.24h-.72l-.24.24-.24-.24h0l.24.24.24-.24Zm.24-1.68h.24v0ZM69.84,9.6v0Zm.72-.24-.24-.24Zm-1.92-.48v0Zm1.92,0-.24-.24Zm-.72-.48v0Zm-.48-.24h.24v0h-.48V8.4h0V8.16Zm-1,.24V8.16h.24V8.4h0V8.16H68.4Zm1.2-.48h.24l.24.24V8.4h.24v0h-.24V8.16l-.24-.24ZM61,7.68V7.44h0Zm.48-.24v0ZM67.2,7h.24V7.2h.24v.24h.24v0h-.24V7.2h-.24V7H67.2V7.2h0Zm.48-.24v0Zm.24,0h.24v0Zm-1-.24v0Zm.48,0H67.2v.24Zm-.48,0,.24.24V6.48Zm1.2.24V7h0Zm-.48-.24h0Zm-6.48.24v0h.24v0Zm.48-.48v0h-.24v0Zm5.76,0v0h0Zm-.72,0h.48v.24h.24v0H67.2V6.24h-.48Zm0,0h0Zm-2.16-.72h0Zm1.2.72L65.52,6l-.24-.24H65V5.52l-.24-.24.24.24v.24h.24l.24.24.24.24H66l.24.24h.24l.24.24V7h0V6.72l-.24-.24h-.24L66,6.24Zm-1.2-.72v0Zm0-.48v.24h0ZM63.12,4.8v0Zm.48-.24v0Zm0-.24-.24.24h0Zm.24,0v0Zm0-.24-.24.24Zm-.72-.48v0Zm-1.2,0h0Zm1,.24V3.6h0Zm-1.2-.24h0Zm0,0v0Zm1.44,0v0Zm-1.2-.24h0Zm0,0h0Zm0-.24v0Zm1,0h.24v0h-.24v.24l-.24-.24v0l.24.24Zm-.72,0v0Zm2.4-.24v0ZM84.72,14.64h-.24v.24h-.24v.24h0l.24-.24v-.24Zm0-.24.24,0h0Zm.24,0v0ZM85,14.16h0Zm.24,0v0Zm0,0-.48,0h0Zm-.24-.24.72,0v0Zm-.48,0v0Zm.48,0v0Zm0-.24v0Zm-.72,0,1,0,0,0v0Zm0-.24,0,0v0Zm-1.68-.24h0v0Zm1.92,0V13h0v.24ZM84,13m1.92.24L85.68,13v0ZM83.76,13v0ZM60,13m0-.24h-.24V13H60v-.24Zm0,.48h.24V13H60v.24Zm12.72,3.36H73v-.48l-.24-.24-.24-.24h-.24v.24h.24v.24h.24v.24l.24.24Zm.72,21.6-.24.24h0v0h.24v.24l-.24-.24v.24H73v0h-.24l.24.24v.24h-.24v-.24h0v.24h-.24v0h-.24v.24h-.48v-.24h-.24v.24h-.24v0H71v-.24H70.8v.24h-.24v-.24h-.48v.24h-.24v.48H69.6l-.24.24h-.24l-.24.24v.48h-.24V41H68.4v.48h.24v.24H68.4v-.24l-.24.24h.24v1h.24v-.24l.24.24v-.24l-.24-.24v-.48l.24-.24V41h.24v-.48h.24v-.24h.24l.24.24v-.24h.24v.24h.72l.24-.24v-.24h.48v-.24H72V39.6h.24l.24-.24H73l.24-.24.24-.24v-.24h.24v-.48Zm-3.6,1.44v-.24H69.6v.24Zm-.24,0h-.24v.24h.24V39.6Zm-3.12,7.2h.24l-.24-.24v.24ZM1.68,52.56H1V53H.48v.24l.24.24v-.24h.72v1h0v.24h.24v.24l.24.24h.24v.24H2.4v.48h.24v.24h.24v.24h.24v.24H2.88v.24H2.16v0l-.24.24v0H1.68v.24H1.44v.24H1.2v.24H1v.48H1.2v.24h.24v.24h1.2v0h.48v-.24l.24.24v-.24H3.6v0l.24-.24v.24l.24-.24h.24V57.6h.24v-.24l.24-.24H4.56v-.24H4.32V56.4H3.84v-.24h0v-.72L3.6,55.2V55H3.12v-.24H2.88v-.24H2.64v-1.2H2.4V53H2.16V52.8H1.92v-.48H1.68ZM57.6,62.64h.24l.24.24h.24l.24.24.24.24h.72v.24H60v.24h.24v.24l.24.24h.24V63.6H61l.24-.24L61,63.12V61h.24v-.48h.24v-1h-.72v-.24H61V59h.24V58.8h.48v-.24l.24-.24v-1.2h-.24v-1h.24v-.24l.24-.24v-.24h.24V55l.24-.24h1V54h-.24v-.24l-.48-.24-.24-.24V53H62.4l-.24-.24-.24-.24h-.24l-.24-.24H61.2v.48L61,53l-.24.24v.24h-.24v.24l-.24.24H60l-.24.24V54l-.24.24-.24.24v.24L59,55v.24H58.8v.24l.24.24v.48h.72v.24H60l.24.24h.24v.24h.24v.48H61l-.24.24h-.48L60,57.36h-.24v-.24l-.24-.24H59v-.24H58.8v.48l-.24.24.24.24H59v.24l.24.24.24.24V59H59v.24H58.8V58.8h-.24v-.72h-1.2v.24h-.24v0h-.24v.24h-.24V59l.24.24v.24l.24.24.24.24.24.24v.24h-.24l.24.24h-.24V61h-.24v.48l-.24.24h.24v.48h.24v.24Zm1.2-48.48h-.24v0Zm1.2-.24h.24v0Zm11.28-8.4H71v0Zm17,19.2h.24v0Zm0-.24v0Zm-.24,0h0Zm1,0v0Zm-1.2-.24h0Zm.24-.24v0l-.24.24Zm1,0,.24.24Zm-1,0h0Zm0,0v0h.24v0h-.24v0Zm0-.24h0Zm.48,0h0Zm0,0h0Zm-.24-.24v0Zm0,0h0Zm-.24,0v0Zm1.44,0h-.24v0Zm-1.2-.24h0Zm1.2-.24v0Zm-1.2,0h0Zm1.44,0h-.24v0Zm-1.44-.24-.24.24Zm0,.24V22.8h0Zm0-.24v0Zm1.2-.24h0Zm-1.44,0,.24-.24Zm1.68,0v0Zm-1.44-.24h0Zm1.92,0v0Zm-1.68-.24v0Zm1.2.24v0Zm0-.24h0Zm.48,0h0Zm0,0v0Zm-1.68,0v0Zm1.92-.24h-.24V21.6h0v.24Zm-1.92-.48h0Zm0-.24h0Zm2.4,0h0Zm.48-.24h0v0Zm.48-.24h0Zm-.72,0h0Zm-2.4.24h0v0Zm1.92-.24v0Zm-2.64-.24h0v0Zm3.6-.24h0Zm-1,0v0Zm-2.16,0h.24v0Zm3.36,0h0Zm-3.12.24.24-.24Zm0-.48v0Zm2.4.48h.24v0H91.2v0Zm0-.24v0Zm-.48,0v0Zm.24,0v0Zm.24-.24v0ZM89,19.68h0v0Zm1.92,0v0Zm1.2.24v-.24h0Zm-1.2,0v0Zm-.48-.24v.24h0Zm1.68,0h0Zm-.72.24h.24v0Zm1-.24v0Zm-1.44,0h0v0Zm1,0v0Zm.72,0v0Zm-1-.24h0Zm-1,.24v0Zm-.24,0v0Zm0,0v0Zm1.44-.24h0Zm-1.44,0v0Zm1.92,0h.24v0H92.4v0Zm-1.92-.24v0h0Zm.72,0h0Zm-1.68,0h-.24v0Zm1.68,0v0Zm-1.68,0v0Zm2.4,0h-.24v0Zm.48,0h-.24V19h0v.24Zm0-.24v0Zm-.24-.24h0ZM93.6,19v-.24h0Zm-1.2-.24h0Zm.72,0h0Zm.24,0v-.24h0Zm-3.84-.24v0Zm2.88.24v-.24h0Zm1.2-.24-.24-.24Zm-3.84-.24h0Zm3.36,0v0h0Zm.48,0h0ZM89.76,18v0Zm2.88.24H92.4v0Zm1-.24h0Zm-.48,0h-.24v0Zm-3.36,0v0Zm3.84-.24v0Zm-.24,0-.24.24Zm-.48,0v0Zm1.2,0v0Zm-.24,0H93.6v0Zm-4.08-.48v0Zm3.12.24v0Zm.24,0v0Zm-3.12,0v.24h-.24v-.24h-.24v.24h-.24v0h.24v-.24h.24v.24H90Zm3.6,0v-.24h0v.24h0Zm.48-.24L93.84,17Zm-.24,0v0ZM89.76,17h0Zm4.08,0V16.8H93.6l.24.24h0Zm-3.6-.72v.24H90v.24h0v-.24h.24Zm4.08.24v0Zm-3.84-.48H91v0h-.48v.24h0Zm3.84,0v0Zm.24,0v0ZM91,15.84h0Zm-.24-.24h0Zm4.32.24-.24-.24ZM91,15.6v0h.24v0H91v0Zm-3.6,0v0Zm7.44-.24h0Zm-3.6-.24v0Zm0,0v.24h.24v0H91.2Zm-4.08.24v0h0Zm-.24-.24v0l-.24.24Zm.24-.24v.24h.24v.24h.24v0h-.24v-.24h-.24Zm1.44.24v0Zm3.12-.24v.24l-.24-.24.24.24Zm-4.08,0h0Zm.24.24H87.6v0Zm0-.24H87.6v0Zm3.84-.24h-.24v0Zm-4.08.24v0Zm-.48,0v0h0Zm1.44.24v-.24h-.24v-.24h0v.24h.24Zm7-.48v0ZM86.4,14.4v0Zm1.68.24v0Zm-1,0v0Zm.48,0h-.24v0Zm4.08,0V14.4h0Zm-3.84-.24v0Zm-1,.24-.24-.24Zm.72,0v0Zm7.92-.24h0Zm-7.2,0h0Zm-1.44,0v0Zm8.4,0v0Zm0,0v0Zm-7,0v0Zm6.72,0v0Zm-7.92,0v0Zm.24,0v0Zm-1-.24v0Zm1,.24v0Zm4.32-.24h0v0Zm-5.52,0-.24.24h0l.24-.24h0Zm2.16,0h0v0Zm3.36-.24v0Zm-5,0v0Zm8.64.24v0Zm-3.6-.24h0v0Zm3.6,0v0Zm-3.84-.24h0Zm-.24,0h.24v0Zm4.08,0H95v0Zm-3.84-.24v0h0Zm-.24,0h0Zm.24,0v0Zm3.84,0v0Zm-9.12-.24v0Zm5.28,0h0ZM88.56,13h0Zm6.72,0h0Zm-3.84-.24L91.2,13Zm3.84,0h0Zm-7,.24v0Zm.24-.24h-.24v0Zm6.72,0v-.24h0ZM95,12.48v-.24l.24.24L95,12.24Zm-3.6,0v-.24H91.2v.24h0v-.24h.24v.24l.24-.24Zm-2.88-.24-.24.24h-.24v0h.24Zm-.48,0h0ZM95,12v0Zm-3.6,0v0h0Zm-3.12,0h0Zm6.48,0h0v0Zm-3.12-.24V12h0Zm-3.84,0v0h0v0Zm3.6,0h0Zm3.36,0-.24-.24Zm-3.12-.24h0Zm-3.6.24v-.24h0Zm0-.24h0Zm3.6,0h0v0Zm-2.4-.24.24.24Zm-1.2,0h0Zm1.2.24v-.24h0Zm0-.24h0Zm5.28,0h0Zm-5.52,0h0Zm.24,0h0ZM88.8,11v0Zm.48,0h0v0h0v0Zm2.64-.24h0Zm-3.84,0h.24v0Zm3.84,0h0Zm2.4,0h.24v0Zm-2.64-.24h0Zm.24,0h0Zm-2.4,0h.24l-.24-.24Zm-.24,0v0Zm2.64-.24v0Zm2.4.24v0Zm-2.64-.24h0Zm.24-.24v.24l-.24-.24.24.24Zm2.4.24h-.24v0Zm-.24-.24v0Zm-2.4,0h.24v0Zm2.4-.24-.24-.24ZM89.52,9.6h0Zm-.24-.24v0h.24v0Zm2.64.24v0h-.24v0h0v.24Zm-.24-.24v0Zm2.16.24V9.36H93.6V9.12h0v.24h.24Zm-2.16-.24h.24v0h-.48l-.24.24.24-.24Zm-1.92,0v0Zm-.48,0V9.12h0Zm2.64-.24h0Zm-.24-.24v0ZM91,9.12l.24-.24Zm2.64,0v0ZM90,8.88v0Zm1.2,0h.24v0Zm2.4-.24h0Zm-2.4,0h0Zm2.16,0h.24v0h-.24v0ZM90,8.64v0Zm.72,0H91v0h-.24v0Zm-.24-.24v0Zm.48,0h0ZM66.72,6.24h-.24l.24.24H67v.24h.24L67,6.48h.48l-.24.24h.48V7h.48V7.2h.24V7h-.24V6.72h-.48V6.48h-.24V6.24h0v.24H67.2V6.24h-.48Zm-5,.24V6.24h-.24v.48H61.2V7.2h.24V6.72h.24V6.48Zm7.92,3.84h-.24v0Zm-.24-.48v0Zm0,0h0v0Zm2.16.24V9.84h0v.24Zm-2.16.24v.24h-.24l.24.24h0v-.24l.24-.24ZM65.52,84v0ZM65,83.28v0Zm-1.44-1v0Zm0,0h0Zm.24,0h0Zm0-.24.24.24-.24-.24v0Zm0-.24h0Zm-.24-.48v0Zm0-.24h0Zm0-.24h0Zm.24-.24h0Zm-.48,0v0Zm-.48-.24h0Zm-.24-.24v0Zm-.48-.24v0Zm.24,0v0Zm-.48-.48v0Zm-.24,0v0Zm0,0v0Zm-.24,0V79.2h0Zm-.24-.24h.24v0Zm.24-.72-.24.24v0Zm-.24-.24v0Zm.48,0v.24h0Zm-.24,0L61.2,78ZM61.2,78v0Zm.48,0-.24.24Zm-.24-.24v0h0Zm.72,0h.24V78h0v-.24Zm0,0v0Zm-.72-.24h0v.24h0Zm1,.24v0l.24-.24Zm-.48-.24h-.24v0Zm0,0v0h0Zm.48,0h0ZM62.16,77h0v.24h0Zm.72,0h0Zm-.24,0v0Zm-.24-.24h-.24V77h0V76.8Zm.72,0h0Zm-.48,0h0Zm1-.24h.24v0h-.72v0h.48Zm-1.2-.24v0Zm-2.88-.24v0Zm.72,0v0Zm0-.48h0Zm.72,0v0Zm-.48,0h0Zm.48,0h0Zm.24,0h0Zm0,0h0Zm-.48-.24v0Zm-.24,0h0v0Zm1,0v0Zm-1.68.48V75.6l.24-.24-.24.24v.24h0Zm-.24-1v0Zm-.24-.48v0Zm1,0h0Zm-1,0h0Zm.24,0h0Zm0,0h0Zm.24-.24v0l-.24.24Zm.24,0v.24h0Zm-.24,0h0Zm.72,0h0Zm-.24,0h0Zm-.24,0v0Zm-.24-.24v0Zm0,.24v0Zm.48-.24h0Zm.24,0h0Zm.24,0v0Zm0-.24v.24h0Zm0,0h0Zm-.24,0h0Zm-1.44,0h0Zm1.92,0h0Zm-1.68,0h0Zm0-.24-.24.24Zm0,0v0h0Zm0,0h0Zm.24,0h0Zm-.24-.24v0Zm1.68,0h0Zm-1,0h0Zm-.72,0h0Zm1,0h0Zm0,0h0Zm-.48,0h0ZM59.28,73v.24h0ZM60,73v0Zm-.24.24v0Zm0-.24v0Zm-.24.24v0Zm1,0v0ZM59.76,73v0ZM60,73v0Zm.24,0v0Zm.24,0h0ZM60,73h0Zm-.24,0v0Zm-.24,0h0Zm0,0h0Zm1.2,0v0h0Zm0,0h0ZM61,73h0Zm-.24,0h0Zm-.48,0h0Zm0,0h0ZM60,73h0Zm-.24-.24v0Zm.48,0v0Zm-.48,0L60,73Zm.24,0v0Zm1.2,0v0Zm.24,0h0Zm0,0h0Zm0,0,.24-.24Zm.72,0v0Zm-.48-.24h0Zm.72,0h0Zm-.48,0h0Zm.48,0h0Zm0,0h0Zm.24-.24v0Zm-.48,0h0Zm0-.24v0Zm0,0h0Zm0,0v0Zm0-.24v0Zm.24,0h0Zm0,0h0Zm.24,0v0Zm-.24-.48h.48v0H62.4Zm.48,0h0v0Zm0,0v0Zm0-.24v0Zm.24,0h0Zm0-.24h0Zm0,0h0Zm0,0v0Zm0-.24h.24v0Zm.48,0h0Zm5.28-26.64h-.24v-.24H68.4v0h-.24v0h-.24v0H67.2v.24h-.48v.48h-.24v.48h.72v-.24h.24l.24-.24.24-.24h.48l.24.24h.24v-.48ZM60.24,13.68h0ZM60,13.2v0Zm-.24-.48-.48-.24-.48-.72v0Zm-1.44-1.44h.24v0Zm.24-.24.48-1v.24h-.24V9.6l-.24.24v0l.24-.24V9.36h.24V9.12h.24v.24h.48L59,9.6l-.24-.24h-.48V9.12ZM61,7.68,76.8,12h-.72v0h1v-.24h.48v-.24l-.24.24H77V12Zm.72-1-.24-.48v0Zm0-.24,0-.72v0Zm0,0v0Zm0-.24M77,9.12m-1.44.72V9.6h-.24V9.12h-.24V8.88h-.48V8.64H74.4v0h.24v.24h.48v.24h.24V9.6h.24v.24h.24v.24h.24v0h-.24V9.84ZM74.4,8.16h-.24V7.92l-.24-.24v.24h.24v.24Zm-4.08.24h-.24V8.16l-.24-.24h0v.72h.24v0h0l.24.24h0v.48h.24l-.24-.24.24-.24-.24-.24Zm-1.44,0h-.24V8.16H68.4v.48l.24.24v.24l.24-.24h-.24V8.4H68.4V8.16h.24v.72h.24V8.64h.24v0h.24l-.24-.24h.24v.24l.24-.24h-.24v0h.24v.24h0v.24h-.24v.24h.24v-1h-.48V8.4Zm-3.36.24v0h0Zm.48,0h-.48v.24h.24v.24h-.24l.24.24V9.6l.24.24V9.6h.24V9.36h0V9.12h0V8.64Zm-1,.24H64.8v.24H65V8.88ZM61.68,65.52v-.24h-.24v.24Zm.24,0h0v0h0v-.24h-.24Zm-.72.24v0H61v0h-.24v.48h-.24l-.24.24h.24v.24h-.72V67H60v.24l.24.24V67H60v0h.24v0h.24v-.24h.24l-.24-.24h.24v.24l.24-.24V66h.24v-.24h0V66h0l-.24.24h.24v-.48h0ZM93.6,7.92V7.68h-.24V7.44h-.24V7l-.24-.72v0l.24.72v.48h.24v.24h.24v.24ZM89.76,4.56l.48.24.24-.24h.24l.48-.24h.72l.24-.24h.48l.24-.24.24.24h.24v0h-.24l-.24-.24-.24.24h-.48l-.24.24H91.2l-.48.24h-.24l-.24.24-.48-.24h-.24l-.24-.24V4.08l-.48-.24V3.36l-.24-.48-.24-.24-.24-.24-.24-.24.24.24.24.24.24.24.24.48v.48l.48.24v.24l.24.24ZM84.24,0H85l.24.24h1.2L86.64,0l.24.24.24.24h.48V.72l.24.24V1L87.6.72V.48h-.48L86.88.24,86.64,0,86.4.24H85.2L85,0h-.72ZM84,4.08h.48V3.6h.24v0h-.24v.48H82.32V3.84h0v.24H84ZM84.24,1m0-.48v0Zm0-.24v0Zm3.6,1V1L87.6.72V.48h-.48L86.88.24,86.64,0,86.4.24H85.2L85,0h-.72V1.44l.24.24v.24l.24.24V3.6h-.24v.48H82.32V3.84H81.6v.24h-.24l-.24-.24h-.48v.24H80.4l-.24.24v.24h-.24v.72h-.24v.24h-.24V6H79.2v.24H79l-.24.24v.24h-.24L78.24,7V7.2h-.48v.24l-.24.24H77l-.24.24h-.48l-.24.24h.24V8.4h.48v.24H77v.48h.24v1.44h.24v1.2h.24V12H78l.24.24h.24v0h-.24V10.8h.24v.48h.24V11h-.24V10.8h-.24v-.24h0v-.24H78v-.24l.24-.24V9.36h.24V9.6h-.24v.72h.24v.24h.24v-.24H79v-.24h0v.48l.24.24L79,11h.24v.24H79V12l-.24.24v.24H79V13h.24v.24l.24.24v.24l.24.24v-.24h-.24v-1H79.2v0h.24v-.24h.24V13h.24v.72h.24V13.2h.24v.72h.24v-.48l.24.24v-1h-.24v-.24H80.4v-.24h-.24v-.48h-.24v-.24h.24V11h.48v-.48h.24v.24l.24-.24v.24h.24v-.24h0l.24.24v-.48l.24.24v.24h.24V11h-.24v0h0v.48H81.6v0l.24.24V12l-.24.48v0h.24v.72H81.6v.24h.24V13h.24v0h.24v-.24h0v-.24h.48v-.24h.72v0h.24v.24h-.24v.24l.24-.24V13H84v.24h-.24v.24h.72v.48h.24v0H85v.24h-.24v.24H85v0h-.24v.24h-.24v.24l-.24.24h.24v-.24h.24l.24-.24V14.4l.24-.24v-.48h.24V13.2h.24V13h0v.24h.24L85.68,13v-.24h.24V13h.24v.48h.24v.48h.24v0h.24v.24h-.72l-.24.24h.24l.24-.24v.48h.24v0h.24l-.24-.24h.24v-.24h.24v.72h-.24v.24l-.24.24v0h.24v-.24h.24v.24h0v-.24h.24v.48h.24v-.24h-.24v-.24h-.24V14.4h.24v.24h0v-.48h.24v.72h-.24l.24.24v.24h.24v-.24H87.6v-.24h0V14.4h.24v0h.24v.48h.24v.24h.24v-.24h-.24v-.24h-.24V14.4l.24.24V14.4h-.24v-.24h.24v0l.24.24v-.24h-.24V13h0v-.24h0v-.24h.24v-.24l-.24.24h-.24v-.24h0V12h0l.24-.24h-.48v0h.24v-.24h0v-.24h0V11h.24V10.8h-.24v0h.48V11h.24v.24L89,11v.24h0v.24h.24v-.24h0v.24h.24l-.24-.24h0V11h0v0H89V10.8h.48v-.24h-.24V9.84h.24V9.6h0V9.36h-.24V9.12h0v.24h.24V9.12h.24V8.88H90V8.4h.48v0h.24v0L91,8.16V8.4h-.24l.24.24v0h-.24v.24H91V8.64h.24V8.4l.24.24h0v.24H91.2L91,9.12h.24l.24-.24v0h.24v.24h.24v0h0v.24h-.48l-.24.24h.24l.24-.24V9.6h.24v0l-.24.24V9.6h-.24l.24.24h.24v.24h0v.24l-.24-.24v.24h.24v.24h0v.24h-.24v.72h0v.24h0V12h-.24v.24h.24l-.24.24v-.24H91.2v.24h.24v.24L91.2,13h.24v.24H91.2l.24.24v0h0v.24h0v-.24h0v.24h.24v.24h0v.24h0v.24h0v.24h-.24v.24h.24v.24l-.24-.24v.48H91.2v.24H91v0h0v.24h0v.24h-.48v.24h-.24v.24H90v.24h-.24L90,17h-.48v.24h.24v0H90v.48h-.24v-.24h-.24v.24h-.24V18h.24v-.24h.24v.48h-.24v1h-.24v.48H89v.48l-.24.24v-.24h-.72v.24h0v.24h.24V20.4h.24v0h.24v.48h-.24v.24h0v.24h-.24l.24.24v.72h-.24l-.24.24h.24v.24l-.24.24h.24V22.8h0V23h-.24v.24h0v.48l.24-.24h0v0l.24.24h0v-.24l.24.24h-.48V24h-.24v0h0v0l-.24.24h0v.24h.24v-.24l.24.24v-.24h.24v.24h-.72v.24h.24l.24-.24v0h.24v.24h-.24V25h.24v-.24h.24l.24-.24v-.24h.24L89,24h.24v-.48h0v-.24h.24V23h0V22.8h.24v-.24h0v-.48H90v.24h.24v-.24h0v-.24h0V21.6h0l.24.24v-.48h.24v0H91v-.24h-.24v-1.2h-.24V19h.24v.24h-.24v.48h.24v0H91v.48h.24v-.48H91v-.24l.24-.24h0v0h.24v.24h0v.24h.24v.24h-.24v.48H91.2v.24h0l.24-.24v.24l.24.24h-.24v.24h.24v-.24h.24v-.24h-.24v-.48h0v-.24h.48v-.24h-.24v-.24h-.24V19.2h0V19h.24v.24h.24v.24h.24v.24h.24v-.24H92.4V19.2h-.24V19h-.24v-.24h.24l.24.24v-.24h0v-.24h-.24v-.24h.24v0h0V18l.24.24v.24h.48v.24h0V19h.48v-.24h-.24v-.24h-.24v-.24h-.24l.24-.24h-.24v-.48h.24v-.24l.24.24v.24l-.24.24h.24v.48h.24l-.24-.24h0L93.6,18h-.24v-.24h.24V18h.24v-.24H93.6v-.24h.24l.24.24v-.24H93.6v-.24h-.24V17h.24l.24.24v0h.24L93.84,17h0l-.24-.24h.48v-.24h.24v-.72h.24v0H95l-.24-.24.24-.24h-.48l.24-.24.24-.24H94.8L95,14.4v-.24h.24v.48h.24V14.4h-.24v-.72H95v-.24h.24V13H95l.24-.24h0v-.24h0L95,12.24V12H94.8v-.24l-.24-.24v-.24h0V10.8h-.24v-.48h-.24V9.84l-.24-.24V9.36H93.6V9.12h0V8.64h0v0h-.24V8.4l.24-.24V7.68h-.24V7.44h-.24V7l-.24-.72V5.52l.24-.24.24-.48V4.08h-.24l-.24-.24-.24.24h-.48l-.24.24H91.2l-.48.24h-.24l-.24.24-.48-.24h-.24l-.24-.24V4.08l-.48-.24V3.36l-.24-.48-.24-.24-.24-.24-.24-.24v-1ZM65,3.12v0h0V2.88h-.48V3.6l.24.24.24.24.24.24.24.24L66,4.8l.24.24h.48l.24.24.48.24h.48l.24.24L68.4,6l.48.24.48.24.24.24.24.24.24.24.24.24.24.24.48.24.24.24h.24l.24.24v.24l.24.24.24.24v.24l.24.24v.48l-.24.48v.24H72l-.24.24-.24.24-.24.24h-.72l-.24.24-.24-.24h-1.2v.24h.24v.48l.24.24V13h.24v0h.24v.24l.24.24h-.24v.24h.48v.24l.24.24h.24v.48H71v.24h.24v.24h.24l.24.24v.24h.72l.24.24.24.24v.48h-.24v.24h-.24V17h.24v0H73l.24.24v.24h.24v0h.24l.24.24h.48V18h.24v1.2l-.24.24h.24l-.24.24v.72h-.24v-.24h-.24v.48l.24.24v.24h.24v.24h.24v.48h.24v.48h.48v.24h.24V23h-.24v.48h-.48v.24h-1v.48h0l.24.24v-.24h.24v.24h.24v.24h.24v1.2h.24v1.44h.24v2.16l-.24.24h.24l-.24.24h.24v.48l-.24.24V31h-.24v1h.24v-.24h.48v0h.24v.24h0v.24h0v0l-.24.24v0h0v-.24h-.24v.24h.24v.48l.24.24v-.24l.24.24v-.24h.24V32.4h.24v.24h-.24v0h.24v.24h-.24v.24h0v.24h-.24v.24h.24v.24h-.24v.24l-.24-.24v.24h0v1H75.6v.24l-.24.24v.24l-.24.24-.24.24v.24h-.24v.24L74.4,37v.24h-.24v.24l-.24.24v.24l-.24.24h.24v0h-.24v.48h-.24v.24l-.24.24-.24.24h-.48l-.24.24H72v.24h-.48v.24H71v.24l-.24.24h-.72v-.24h-.24v.24l-.24-.24h-.24v.24h-.24V41h-.24v.48l-.24.24v.48l.24.24V43l.24.24v.24h-.24v.72l.24.24h.24l.24.24h.24v.24h.48v.24h.24v.24l.24-.24v0h.48v-.24h.24v-.24h.24v.24H72l-.24.24H72v0h.48v.48h.24v-.24h-.24l.24-.24h-.24v-.24h-.24v-.24h0v-.48h.24v.24l.24-.24h-.24v-.48l.24.24v-.24H73v-.24l.24-.24.24.24v0h.24V43.2h.24v0h.24v.24h.24V43.2h-.72L73.44,43l-.24-.24H73v-.48h.24V42h.24v.24h.24V42h.24l-.24-.24h-.24v-.48h.24v.24h.24v-.24h.24V40.8h.24v-.24h.24v-.24h.24V39.6h.48v-.48l-.24-.24h.24V38.4h.24l.24.24v.24h.24l.24-.24h.24v-.48l.24-.24-.24-.24v-.24h-.48V37.2h.24V37h.24l-.24-.24h.48v-.48h.48v-.48h0v-.24H77l.24-.24H77V35h.48l-.24-.24H77v-.24h.24v.24h.48v-.24H78v-.48l-.24-.24v-.72H78l.24.24v-.24L78,32.88h-.24v-.24H78v-.48l.24.24v-.24h0v-.48H78v-.24h.24V31l.24-.24h0v-.24h.24v-.24h0v.24H79v-.24h-.24v-.48H79v-.24h-.24v-.24H79v0h.24V29H79V28.8h.24l.24-.24H79v-.24l-.24-.24v-.24h0L79,27.6h-.24v-.24H79v.24h.24v-.48H79v-.24h0v-.24h.72V26.4h-.24v-.24h0v-.24h.24v-.24h-.24v.24H79.2v-.24h.72v-.24h1V25.2l-.24.24V25.2h-.48v-.48h.24v0h.24v-.24l.24-.24h-.24v0H80.4v0h-.24v.24h-.24v0l-.24-.24V24h0l.24-.24h.24l.24-.24h-.24v.24l-.24-.24h-.24V23l-.24.24v-.72H79.2v-.24h0l.24-.24H79.2v-.24h0V21.6H79v-.24l-.24-.24H79v-.24h.24L79,20.64h.24v-.48L79,20.4h-.48v-.24h0v-.24h-.24v-1.2h.24l-.24-.24h.24v-.24h-.24v-.48L78,17.52l.24-.24H78V17l.24-.24h.24l-.24-.24h.24v-.24h-.24v-.24l.24.24v-.48h0l.24-.24h0v-.24h-.24l.24-.24v.48H79v-.24h-.24v-.24H79v.24h.24v0h.24v-.24H79.2v-.24L79,14.64V14.4h-.24l.24-.24h-.24v-.48h-.24V13.2h-.24l.24-.24h0l-.24-.24h.24v-.48h-.24L78,12h-.24v-.24h-.24v-.24l-.24.24H77V12h-1V10.08h-.24V9.84H75.6V9.6h-.24V9.12h-.24V8.88h-.48V8.64H74.4V8.16h-.24V7.92h-.24V7.68l-.24-.24v.24H73.2L73,7.44V7.2h-.24V6.72h-.24v0h-.24V6.48H72V6.24h-.24V5.76h-.24V5.52h-.24V5.28H71v.24h0V5.28H70.8L70.56,5V4.8h-.24V4.56H69.6V4.32h-.72V4.08H68.4V3.84h-.48V3.6H66.48v0h-1V3.36h-.24V3.6H64.8V3.12Zm5,2.16v0h-.24V5h.24Zm.48,0v.24h-.24V5.28h.24ZM72.24,7V7.2H72V7h.24Zm.48.72H73v.24h.24l.24.24h.24l-.24.24h.48v.24h.24l.24.24v.48l.24.24.24.24v.24l.24.24v.24h.24V11h-.24v.24h-.24V10.8h-.24v-.24h-.48v-1h-.24V9.36h-.24l.24-.24V8.88h-.24v0h-.24V8.16H73V7.92h-.24V7.44h0Zm0,5H73v.72h.24V13.2h.24V13h.24v.48h-.24v.24H73.2v.24h0v.24H73v-.72h-.48v.24l-.24-.24V13.2H72V11.76h.24v-.48h.24v1.44Zm-2.88-.48v.48h.24l-.24-.24h.24v-.24h.24v.24h.48v.24H71v-.48h.24V13l.24.24v0h.24v.24l.24.24v.48h0v0h-.24v0h-.48v.24H71v-.24l-.24-.24v-.24H71v-.24H70.8V13h-.24v0h-.24v0h-.48v-.24H69.6v-.48h-.24v0h.48Zm2.64,2.4V14.4h.24v.24Zm-1,0h-.24l.24-.24ZM73,12.48v0h-.24v-.72H73v.72ZM65,3.6h0Zm-.24-.24,0-.24-2.64.24v0h-.24v0h-.24v0h.24V3.6h-.24v.24l.24-.24h.24V3.36Zm1,0V3.12h-.24v.24l-.24-.24v.24h.48V3.6h-.24v.24h.24V3.36Zm18.72.48H81.6v.24h-.24l-.24-.24h0l.24.24h.24V3.84Zm-18,.24-.24.24-.24.24h-.24V4.8h.24V4.56h.24V4.32h.24V4.08Zm6.24,1h-.24v.24h.24V5Zm-5,.24h-.48v.24h-.24v.24h-.48V5.52h-.48v.24H64.8V6H65l-.24-.24H65V6h.24v.24h.48v.24H66v.24h.24v0h0V6.48l.24.24V7h.24V7.2H67V7h-.24V6.72l-.24-.24h-.24L66,6.24h-.24L65.52,6l-.24-.24H65V5.52l-.24-.24Zm-.72.24v.24h-.48V5.52h-.48v0h.48v.24h.48V5.52Zm6-.24h0v.24h.24V5.28Zm1.2.24h-.24v0ZM71.76,7H72V7.2h.24V7h-.48Zm-3.84.72V7.44h-.24V7.2h-.24V7H67.2V7.2h0L67,7.44h.24V7.2h0V7h.24v.48h0v.24h.48Zm-7,0v.24h.48v0h.24v0H61.2V7.68h0v0h.24V7.44H61v.24Zm11.76-.24h0v.48H73v.24h.48v.72h.24v0h.24v.24l-.24.24h.24V9.6h.24v1h.48v.24h.24v.48h.24V11h.24v-.48h-.24v-.24l-.24-.24V9.84l-.24-.24-.24-.24V8.88l-.24-.24h-.24V8.4h-.48l.24-.24h-.24l-.24-.24H73V7.68h-.24V7.44Zm-1.2,2.64h-.24V9.84H70.8l.24.24h0l-.24-.24h-.24V9.6l-.24-.24h-.24V9.12l-.24-.24v.48h.24V9.6h.24v.24l.24.24H71v.24h.24v-.24ZM61.68,67.92h-1v.24h-.24v.24h.24v.48h-.48v.24H60v.24h.24l.24-.24H61V68.4h-.24v-.24h0l.24.24v.24h.24V68.4h.24v-.24h0v-.24ZM58.8,9.36h-.48V9.12h-.24v.24h-.24V9.6l-.24.24v.48h-.24v.24l.24.24h.24V11l.24.24h.48V11h-.24v0h-.24l-.24-.24v-1h.24V9.6h1Zm4.32,61.2v0Zm-.24-.24v0Zm0-.24v0Zm0-.48h0v0Zm.24,0h0Zm0-.24v0Zm-.24,0h0Zm0-.24h0Zm.24,0h0Zm.24-.24h-.24v0Zm0,0h0Zm.24,0h0Zm0,0v0Zm0-.24h0Zm0-.24h0Zm.24,0h0Zm-.24-.24v0Zm-.48-.24v0Zm.24-.24h0Zm.24,0h0Zm-.24-.24v0Zm0,0h0Zm.48,0h0Zm0-.24h0Zm.24-.24h0Zm.48,0h0Zm0-.24h0Zm.24,0h0Zm0,0v0Zm.24-.24h0Zm.24,0h0v0Zm0-.24h0Zm0-.24h0v0Zm0-.24v0Zm.24-.24h-.24v0Zm.24,0h0Zm.24-.24h0Zm-.24-.48v0h0Zm0-.24h0Zm.24-.24v0Zm-.48-.48h0Zm.24-.48h-.24v0Zm-.24,0h0Zm0-.24v0Zm0,0h0Zm-.24,0v0Zm.24-.24h0Zm-.24-.24h0Zm.24,0h0Zm-.24,0h0Zm.24,0h0Zm-.24,0h0Zm.24-.24h0Zm0,0h0Zm-.24,0v0Zm0-.48v0Zm-.48-.24v0Zm.24,0h0Zm0,0v0Zm.24,0h0ZM65,61.44v0Zm.24,0h0Zm-.24,0h0Zm0-.24v0Zm.24-.48h0Zm0,0h0Zm-.48-.48v0Zm.24,0H64.8v0Zm.24,0h0ZM65,60v.24h0Zm.24-.24H65v0Zm.24,0h0Zm0,0h0v0Zm0-.24h0Zm0-.24v0Zm0,0h0Zm-.24,0h0Zm.24,0h0v0ZM65.28,59h0Zm0,0v0ZM65,58.56h0Zm.48-.24h0Zm-.24,0h0Zm.48-.24v0Zm-.24,0h0Zm0-.48v0Zm0-.24h0Zm-.24,0h0Zm0-.24h0v0Zm0,0v0Zm0-.24h0Zm.24,0h0Zm-.72-.24h0Zm.24,0h0v0Zm0-.48h0Zm0-.24v0Zm0,0h0Zm0,0h0Zm.48-.24h0ZM65,55.2v0Zm.24,0v0Zm0,.24v0Zm0-.24h0Zm-.24,0h0Zm0,0h0ZM65,55h0Zm0,0h0Zm0-.24v0ZM64.8,55v0Zm0-.24h0Zm.24,0h0Zm-.24,0h0Zm.24,0h0Zm-.24,0v0Zm0-.48v0Zm0,0v0Zm0,0v0Zm0-.24h0Zm0-.24h0Zm0,0h0Zm.24,0h0Zm-.24,0h0Zm.24,0h0Zm-.24,0h0Zm.24,0v0Zm.24-.24v0Zm-.24,0h0Zm0,0h.24v0Zm.24,0h0Zm-.24,0h0v0Zm0-.24v0Zm0,0v0Zm0,0h0Zm.24,0h0Zm0,0h0Zm0,0v0Zm-.24,0v0Zm.24-.24v0Zm-.24.24v0Zm.48-.24h0Zm-.24,0h0Zm0,0v0Zm0-.24h0Zm.48,0h0Zm-.48,0v0Zm.72,0h-.24v0Zm-.24-.24h0Zm0,0h0Zm0,0h0Zm0,0v0Zm0,0v0Zm0-.24h0Zm0,0h0Zm-.24-.24v.24h0Zm.24,0h0Zm0,0h0Zm0,0v0Zm.24-.24h0Zm-.24,0h0Zm0,0v0Zm.24,0V51.6h0Zm.24-.24h0Zm0,0h0Zm0-.24v0Zm.24-.24h0Zm-.24,0v0Zm.24,0h0Zm-.24,0h0Zm0-.24v0Zm-.24.24v0Zm.24-.24h0Zm0,0h0Zm-.24,0h0Zm.24,0L66,50.64Zm.24-.24v0Zm0,.24v0Zm0-.24h0Zm-.72,0h0Zm-.24,0h0Zm.48,0h0Zm0,0h0Zm.24,0h0Zm0,0v0Zm.24-.24h0Zm0,0v0Zm0,0v0Zm-.48,0h0Zm.24,0v0Zm0,0v0Zm0-.24h0Zm.24,0h0Zm.72,0v0Zm-.48,0v0Zm0,0v0Zm.48-.48v-.24h0Zm.24-.24V49.2h0Zm-.24-.24h0Zm.24,0v0Zm.72-.24h0Zm-.24,0h0Zm.24,0v0Zm0-.24h0Zm0,0h0Zm0,0h0Zm0,0v0Zm.24-.48v0Zm0-.24h0Zm.24,0v0Zm0-.24h0Zm.24-.24v0Zm.24,0v0Zm.24,0v0Zm-.24-.24v0Zm-.24,0v0Zm.24-.24v0Zm-.24,0v0Zm.24,0h0Zm.72-.24v-.24H69.6v0h.24Zm.24-.72h0Zm2.64-.48v-.24h0Zm-2.16-.24v0Zm.24,0v0Zm1.92-.24h-.24v0ZM72,44.88l-.24.24Zm.24,0h0v0Zm.24-.24h-.24v0Zm.24-.48h-.24v0Zm0-.48h0Zm.24,0v0Zm.48-.72-.24-.24H73v0h.24l.24.24.24.24h0Zm-.24-.72v0Zm.24-.72v.24h.24l.24.24-.24-.24h-.24Zm.48,0v-.24h0Zm-.48-.24v0Zm.72,0v0Zm0-.24v0Zm.48-.48v0Zm.48-.24h0Zm-.24-.24v0Zm.48-.72v-.24l-.24-.24.24.24Zm0-.48v0Zm1.2-.24v0Zm0-1v-.24h0v.24l.24.24Zm0-.48h-.24v0Zm-.24-.48.24.24Zm.48,0v0Zm.48-.48v0Zm.24-.48h-.24v-.24h0v.24Zm-.24-.48H77v0Zm0-.48h0l.24.24Zm.48,0v-.24h0Zm.24-.48v0Zm0-.24-.24-.24Zm-.24-.48v0Zm.48-.24v0Zm0-.24L78,32.88h-.24v0H78ZM78,32.64v0Zm.24-.24v-.24h0Zm0-.48v0Zm0,0v0Zm0-.24H78v0Zm0-.24h0Zm0,0v0Zm0-.24v0Zm.48-.48h0Zm0-.24v0Zm-.24-.24h0Zm.24,0h0v0Zm.24-.48v0Zm0-.24h-.24v0Zm.24-.24h0Zm0,0V29h0ZM79,29h0Zm0-.24h0Zm.48,0h0Zm-.24-.24h0Zm0,0h0Zm-.24,0v0Zm-.24-.48.24.24Zm.24-.24h0Zm-.24-.24h0Zm.24-.48h0Zm0-.24h0Zm0,0v0Zm.72-.48h0Zm-.48-.24h0Zm.48-.48v0h-.24v.24h0v-.24Zm-.48.24v0Zm.72-.48h0Zm.72-.24v.24l.24-.24v0l-.24.24V25.2h0Zm-.24,0h-.24v0Zm-.24,0v0Zm.24-.48v0Zm.24-.48v0H80.4v0h.24v0h0Zm-.24,0h0Zm-.24,0v.24h-.24v0l-.24-.24.24.24v0h.24ZM79.68,24h0Zm.48-.48h0v.24l-.24-.24.24.24Zm0,0h0Zm-.48,0v0ZM79.44,23v.24l.24-.24h-.24v0Zm0-.48h0Zm-.24-.24v0Zm.24,0h0Zm-.24-.24v-.24h0v.24h0Zm0-.24V21.6h0ZM79,21.36v-.24h-.24Zm0-.72.24.24Zm0-.24h0l.24-.24v0Zm-.24-.24h0Zm-.24-.24h-.24v0Zm-.24-.48v0Zm0-.24v0Zm.24-.48-.24-.24Zm0-.24v-.24h-.24v0h.24Zm-.24-.72L78,17.52Zm0-.48h0Zm0-.72.24.24Zm.24,0v0Zm0-.24v0Zm0,0h-.24v0Zm0-.24v-.24h0Zm0-.48h0Zm0-.24h.24v0Zm.48.24v-.24h-.24v0H79Zm.48-.24v0Zm-.24-.24h0ZM79,14.64v0l.24.24v0Zm0-.24h0Zm1.44-.72v0Zm-1.68.24v.24h0v-.48h0Zm1.92,0v0Zm.24-.24v0Zm-2.4-.48v0Zm1.2.48-.24-.24v.24h.24v0Zm1.92-.24v0Zm-3.36-.24h0Zm1.68,0v0Zm1.92,0v0ZM78.24,13h0Zm2.64.48v0Zm1.2-.24v0Zm.24-.24v-.24h0Zm-1.92-.24h0Zm-2.16,0,.24.24Zm3.6.24v.24h0Zm-2.16,0v0Zm-1.2-.24v0Zm1,0H79.2v0Zm4.08-.24h0v0Zm-3.12,0h0v0Zm0-.24h0Zm2.64,0h0ZM79,12l-.24.24v0Zm-.48.24h-.24v0ZM79,12v0Zm2.64.48.24-.48v0Zm-1.68-.72h0Zm-1.68-.24v0Zm.72-.24h0v0Zm2.88.24h0v0Zm-1.68,0v0Zm-1-.24h0Zm-1,0v0Zm0,0v0Zm3.6-.24h0v0Zm.24,0h0v0Zm-3.84,0v0Zm1-.24H79V11Zm-.48.24h-.24v0Zm2.88-.24h0Zm-3.36-.24v.24h0Zm2.4.24v0Zm.72,0v-.24h0Zm-3.12-.24h0Zm3.36,0v0Zm-2.64,0v0Zm-.48-.24h0Zm-.48,0h.24v0Zm.24-.24v0Zm.72,0v0Zm0,0h0Zm0,0h0Zm-.72-.24v0Zm0-.24h0Zm0-.24h0Zm-8.4,0H69.6l.24.24h-.48v.24h.48V9.36ZM65,9.84V9.36l-.24.24v.48H65V9.84h0Zm7.44,2.64v-1.2h-.24v.48H72V13.2h.24v.24l.24.24v-.24H73v.72h.24v-.24h0v-.24h.24v-.24h.24V13h-.24v.24H73.2v.24H73v-.72h-.48Zm.48-.24v-.48h-.24v.72H73v-.24Zm-13.68.24v.24h.48v-.24h-.24v-.24h-.24V12H59l-.24-.24V12H59l.24.24v.24Zm10.32-.24h-.24v0h.24v.48h.24V13h.48v0h.24v0h.24v.48H71v.24H70.8v.24l.24.24v.24h.24v-.24h.48v0H72v0h0v-.48l-.24-.24V13.2h-.24v0L71.28,13v-.72H71v.48H70.8v-.24h-.48v-.24h-.24v.24h-.24l.24.24h-.24v-.48Zm-9.12,1.44h-.24v.24H60v.24h.24v-.24h.24v-.24Zm-1.68.48h-.24v.48h0v-.48h.24v.24l.24-.24H58.8Zm13.92.48V14.4h-.24v.24Zm-1.2.24V14.4l-.24.24h.24v.24ZM84,15.12m-9.36,3.6V18H74.4v-.24h-.48l-.24-.24h-.24V18l.24.24V18h.48v.48h.24l.24.24Zm-.24,6,.24.24v.48h.24l-.24.24v.24h.24v0h-.24v.24h.24v0h0v.24h-.24v.24h.24v.48h0v.48h.24v.24l-.24-.24v.24h.24v1.92h0V30h-.24v0l-.24.24v.48h-.48l.24-.24h-.24V31h.24l-.24.24v0h.48v1h.24v.24h.24v-.48h.24v-.24h-.24v.24h-.24V31h.24v-.24l.24-.24V30h-.24l.24-.24h-.24l.24-.24V27.36h-.24V25.92h-.24v-1.2H74.4Zm0,6.72h0v0h-.24v.24h.24v-.24h0Zm-21.6.72v.24h0v-.24Zm23.28,1v0h0Zm0,.48h-.24v.24h.24V33.6h0ZM70.8,37.68v0ZM68.88,44.4h-.24l-.24-.24h-.48l-.24.24-.24.24H67.2v.24h0v.24h.24v.24h.48v.48h.24v.24h-.24v.24l-.24.24v.24h-.24V47H67.2v.24h-.72V47h-.24v.24H66l-.24.24H65v0h-.48v0h-.24l-.24.24h-.24V48h-.48v0h-.48v.24h-.24l-.24.24-.24.24h-.48V49H61v.72l.24.24v-.24h.24v.24h.24v.48H61.2v.24h.24v.24h.24v.48h.24v-.24h.24v.48l-.24.24-.24.24v.24h-.24v-.48H61.2v.48h.24l.24.24h.24l.24.24.24.24h.24v.24l.24.24.48.24V54h.24v.72h-1L62.4,55v.48h-.24v.24l-.24.24v.24h-.24v1h.24v1.2l-.24.24v.24H61.2V59H61v.24h-.24v.24h.72v1H61.2V61H61v2.16l.24.24L61,63.6h-.24v.72h-.24l-.24-.24v-.24H60V63.6h-.48v-.24H58.8l-.24-.24-.24-.24h-.24l-.24-.24H57.6l-.24-.24v.24l.24.24v.72h0v.24h.24V63.6h.72v.24l.24.24.24.24h.24l.24.24h.24l.24.24V65h.24v.72l.24.24v.24h.24v-.48H61v0h.24v0h.24v-.48h.24V65h.24v.48h0v0h0l-.24-.24v.24h-.24v.24h.24V66h.24v.24l.24-.24v.24h-.24v.24h0v.24h.24v-1l.24-.24V64.8l-.24-.24v-.24h.24V62.88h.24l-.24-.24h.24v-.72l.24-.24.24-.24h.48v.48l.24.24v.24h.24v.24h.24l.24.24h.24v.24H65v.24h.24v1.92l-.24.24v.24L64.8,66v.24h-.24l-.24.24v.24h-.48V67l-.24.24-.24.24v.24h0v-.24h.48V67.2h.24V67h.48v-.24h.24v-.24h.48v0L65,66.24h.24V66h0v-.48h.48v-.24h0V64.8H66v-.24h0v-.24h-.24v-.24h-.24v-.24h0v-.48h0v-.24h-.24v-.24h0v-.24h0V62.4h0v-.48H64.8v-.24H65v0h.24v-.24H65v0h0v-.72H64.8v-.48H65v-.48h.48v-.24h0v-.24h0V59h-.24V58.8H65v-.24h.24v-.24h.24v-.24h.24v-.24h-.24v-.48h-.24v-.24h0v-.24h0v-.24H65v0h0v-.48h0v-.24h.24v-.24h0V55.2l-.24.24V55.2h0V55h0v-.24L64.8,55v-.24h0V54h0v-.24H65v-.24h.24v0H65v0h0v-.24h0v0h.24V53h0V52.8h0v-.24h.24v.24h0v-.24h.24v.24h0v0H66v-.24h-.24v-.24h-.24v-.24h.24v-.24h0v0H66V51.6h.24v-.48h.24v0H66v-.24h.24v0h0L66,50.64h.48v0h0V50.4h-.24v.24h-.72V50.4h.72v-.24h.24v-.24h.24v0h.48v-.48h0v0h.24V49.2h0V49h.24v0h.24v-.24h.24V49h0v-.24h0v-.24h.24v-.24h.24V48h0v-.24h.24V47h0v.24h.24v.24h.24V47h.24V46.8h.24v-.24H69.6v-.24h.24v-.24l.24.24v-.24h-.24l.24-.24.24-.24v-.24h.24v-.24h-.24v-.24h-.48v-.24H69.6l-.24-.24h-.24l-.24-.24ZM66,47.28h.24V47h.24v.24h.72V47h.24V46.8h.24v-.24l.24-.24v-.24h.24v-.24h-.24v-.48h-.48v.24h.24v.24h0V45.6l-.24.24h.24l-.24.24-.24.24v-.24H67v.24l-.24.24v.24h0V47h-.24V46.8h-.24V47H66v.24Zm1.44-1.2V45.6H67.2v.48Zm-6,4.32h.24v-.48h-.24v-.24H61.2v.48h.24v.24ZM4.8,49.68v.72H5v-.48H4.8v-.24Zm54.24,7v.24h.48l.24.24v.24H60l.24.24h.48l.24-.24h-.24v-.48h-.24v-.24h-.24L60,56.4h-.24v-.24h-.48v.48h0V56.4H59v.24h0ZM5.52,56.4l-.24-.24v.24Zm6.72.48H12v.24l-.24-.24v.48h-.24v.24h-.24v0H11v.24H10.8v.24H12v-.24h.24v-.48h.48v-.48h-.48ZM6.72,59.52H6.48v.24H6.24v.48H7v-.48H6.72v-.24Zm49.2.48v-.24h-.24V60Zm5.28-8.16h.24v.48h.24v-.24l.24-.24.24-.24v-.48h-.24v.24h-.24v-.48h-.24v-.24H61.2v.24l.24.24H61.2v.72Zm0-.72v-.24h0Zm-55,0H6v.48h.72v-.24H6.48v-.24Zm2.88.24H8.88v.24h.24ZM4.56,54v.24H4.32v.48h.24V55h1v.24h.24V55H6v-.24H5.76v-.48H5.28V54H4.56Zm-3.36.48H1v.24H0V55H.24v.48l.24.24h1V55.2h.24V55H1.44v-.24l-.24-.24Zm4.8.24M5,55.2v.24h.24V55.2Zm2.4,0v0H7.2v.24h0v.24h.24V55.2Zm0,.48H7.2v0H7v.24H6.24v.24H6v.72h.48v.24h1.2v-.24h.24v-.72l-.24-.24v-.24Zm1.2,1.68H8.4v.24h.24v-.24Zm49.68.72h.24v.72h.24v.48H59V59h.48v-.72l-.24-.24L59,57.84V57.6H58.8l-.24-.24v.48h-.24v.24ZM10.56,60.24h-.24v.24h.48v-.24ZM63.84,62.4v-.24l-.24-.24v-.48h-.48l-.24.24-.24.24v.72H62.4l.24.24H62.4v1.44h-.24v.24l.24.24v-.24h.24v.24h.24v.72h.24v.24h.24v-.48h.24v.48h-.24V66h.24v1h-.24v.24l-.24.24v.24h-.24v.72h.48v-.48h-.24v-.24h.24v-.24l.24-.24.24-.24v-.24l.24-.24V66h.24v-.48h-.24v-.24L63.84,65V64.8H63.6v-1h.24V63.6h.48l.24-.24v-.24h-.24v-.24h-.24v-.24h-.24V62.4Zm0,4.32h.48v-.24l.24-.24h.24V66l.24-.24v-.24l.24-.24V63.36H65v-.24H64.8v-.24h-.24l-.24-.24h-.24V62.4h-.24v.24h.24v.24h.24v.24h.24v.24l-.24.24h-.48v.24H63.6v1h.24V65l.24.24v.24h.24V66h-.24v.48l-.24.24v0ZM60.48,66l-.24-.24V65H60V64.8l-.24-.24h-.24l-.24-.24H59l-.24-.24-.24-.24V63.6h-.72v.24H57.6v.48h-.24v.24h-.24v.24H56.4v-.24h-.24v.24h.24V65h.24v.24h.24v0l.24.24.24.24h.72V66l.24.24.48.48L59,67h.72v.24H60v.24l.24.24v-.24L60,67.2V67h-.24v-.24h.72v-.24h-.24l.24-.24Zm2.4,2.16v-.48h.24v-.24l.24-.24V67h.24V66h-.24v-.24h.24v-.48h-.24v.48h-.24v-.24h-.24V64.8h-.24v-.24H62.4V66h.24v.48h.24v-.24L62.64,66h.24v.24h0v.24h.24v.24h-.24v.48h-.24v.72l-.24.24v1h-.24v.72h-.24l-.24.24h-.24v.24h0V71H61.2l-.24.24V71h-.24v.24H60v0h-.24v.24h-.24l-.24.24v-.24H59L58.8,72l-.24.24H59V72h.24v-.24h.48v-.24h.72v-.24l.24.24H61v-.24h.72v-.72h.24v-.48h.24v-.24l.24-.24v-.24l.24-.24v-.24h.24v-.72Zm-1-2.88V65h-.24v.24Zm-.48.48v.48h.48V66h-.24v-.24Zm1.2.72V66H62.4v.48Zm-.24.72v-1h-.24v1Zm-.72-.48v-.48h-.24v.48h.24V67h.24v-.24Zm1.2,0v-.24h-.24V67h.24v-.24ZM61.44,67h0Zm1.2,0-1,0h0Zm.24.24V67h-.24l-.24.24h.48ZM60,67.44V67.2h-.24V67h-.48v.24l.24-.24v.24h.24v.24Zm1.68,0-.24-.24H61v.24h-.48v.24h.24v-.24h1Zm0,0h-1v.24h-.48v1.44H60v-.24l-.24-.24h-.24v.24l.24.24h.48v-.24h.48V68.4h-.24v-.24h.24v-.24h1.2v-.24h0v-.24Zm.48.24-.24-.24v.24h.24Zm1.2.48v.24h-.48v.48h-.24v.24l-.24.24v.24l-.24.24v.24h-.24v.48h-.24v.72H61v.24h-.24l-.24-.24v.24h-.72v.24h-.48V72H59v.24h-.72v.24h-.24l-.24.24H57.6V73h-.24v.48l-.24.24h-.24v.24h-.24v.24H56.4v.48h-.24v.24h-.24l-.24.24v.24h-.24l-.24.24v1H55v1.2h-.24L55,78l.24.24.24.48.24.24h.24v.24l.24.24v.24h.24l.24.24.24.24h.24v.24l.24.24v.24l.24.24v.24l.24.24v.24h.24v.48l.24.24V83l.24.24v.48l.24.24v.24l.24.24.24.24.24.24h.24l.24.24h.72v.24h.72v.24h.48v.24h.24l.24.24h.24l.24.24h.24v.24l.24.24h.24l.24.24v.24l.24.24h.24v.48h.24v.24h.24l.24.24h.24v.24l.24.24v.48l.24.24v.48l.24.24v.24h-.24v1H66v.24h1v.24h.24v.24l.24.24v.24h.48v-.24l.24-.24h.24v-.24h-.24l-.24-.24h-.24v-.24l-.24-.24h.24V91.2h.24v-.72H67.2v-.24H67V90h.24v-.24H67l.24-.24v0h-.48v-.24h-.24V89h.24V88.8H67v-.24h-.24v-.24h-.24l-.24-.24v-.24h.48v-.48h-.24v-.24h-.24v-.24L66,86.64v-.72l-.24-.24v-.24h-.24V85.2h.24V85l-.24-.24V84h-.24v-.48H65V83H64.8V82.8h-.48v-.24h-.24v.24h-.24v-.24H63.6v-.24h.24v-.24l.24.24v-.24H63.6v-.24h.24v-.48H63.6v-.24h0v-.24h.24l-.24-.24h.24V80.4H63.6v.24l-.24-.24v.24h-.24V80.4h-.24l-.24-.24v0H62.4v-.24l-.24.24v-.48h-.24v0h-.24v-.24h-.24V79.2h0v-.48H61.2v0l.24-.24H61.2V78l.24.24v.24h.24v-.24h-.24l.24-.24h-.24v-.24h0v-.24h.24v0h.24v0h.24v.24h.24V78h.24v-.24H62.4v0l.24-.24h-.48v-.24h0V77h0V76.8h.24v0h.24V77h.24V76.8h.24v-.24h.72v0H63.6v0h-.72v.24h-.24v-.24l-.24-.24h-.48v-.24h-.48v-.24H61.2v0H61V75.6h.48v0h-.72v-.24h0v.24h-.24v.24h-.24v0h-.48v.24h-.24v-.24h.24V75.6l.24-.24v-.24h-.48v-.24h-.24V74.4h.24l.24-.24v0H60v.24h.24v-.24h.24v-.24h.24v-.24h.48v0H61v0h-.24v.24h-.48v.24H60v-.24l-.24.24v-.24h-.48v-.24H59l.24-.24h0v0h0V73.2h0v0h.24V73h0v0h.24v.24h0v0h0V73H60v.24h0V73h-.24v-.24L60,73v0h.24v.24h0V73h.24v0h.24v.24h0V73h.48v-.24h.24l.24-.24h.48v0h.48v-.24h-.48V72h0v-.24h.48v-.24H62.4v-.24h.48v0h0V71h.24V70.8h0v-.24h.24v0h-.24v-.24h-.24V69.6h.24v-.24h-.24v-.24h.24v-.24h.48V68.4h.24v-.24H63.6v-.24h-.24ZM65,85v.24h.24v.48H65v-.24H64.8V85.2H65Zm2.16,6.72v.24l.24-.24v.48H67v-.48ZM61.44,70.32v-.24l-.24.24h.24v0Zm0,.24H61.2v.24H61v-.24h-.24v.24h-.24V71h.72l.24-.24v-.24Zm-1,.48V70.8h-.24V71Zm-.24,0V70.8H60V71Zm6,20.88H66v-.24h-.24v0H66v.24h1v.24h.24v.24l.24.24v.24h.48v-.24h.24V92.4h0l-.24.24v.24h-.48v-.24l-.24-.24v-.24H67v-.24h-.72ZM66,90.48l-.24-.24v-.48l-.24-.24V89l-.24-.24v-.24H65l-.24-.24h-.24v-.24h-.24V87.6h-.24l-.24-.24v-.24l-.24-.24h-.24l-.24-.24V86.4h-.24l-.24-.24H62.4l-.24-.24h-.24v-.24h-.48v-.24h-.72V85.2H60L59.76,85h-.24l-.24-.24L59,84.48l-.24-.24V84l-.24-.24v-.48L58.32,83v-.48l-.24-.24v-.48h-.24V81.6l-.24-.24v-.24l-.24-.24v-.24l-.24-.24v-.24h-.24l-.24-.24-.24-.24h0l.24.24.24.24h.24v.24l.24.24v.24l.24.24v.24l.24.24v.24h.24v.48l.24.24V83l.24.24v.48l.24.24v.24l.24.24.24.24.24.24h.24l.24.24h.48l.24.24h.72v.24h.48v.24h.24l.24.24h.24l.24.24h.24v.24h.24v.24h.24l.24.24v.24l.24.24h.24v.48h.24v.24h.24l.24.24h.24v.24l.24.24v.48l.24.24v.48l.24.24v0Zm-.24-5v0Zm-.24-1.2,1.92,7.2h.24V91.2h.24v0h-.24v.24ZM67,90v0h.24v0Zm.24-.24-.48-1V89h0V88.8h0Zm0-1h-.48v0h.48v0Zm-1.2-2.4V85.2h.24v0h-.24v.24Zm-.24,0v0Zm-.48-.24h0v0ZM65,85v.24h0V85Zm1,1.44v0Zm0-.24v0Zm0-.24,1.2,3.84v-.24l-.24.24h.24v0ZM67,91.92m.48,0M67,91.68h.24v.24l.24-.24v0l-.24.24v-.24Zm6.72-48.24"/></svg>