<?xml version="1.0" encoding="utf-8"?>
<!-- Generator: Adobe Illustrator 20.1.0, SVG Export Plug-In . SVG Version: 6.00 Build 0)  -->
<svg version="1.1" id="Layer_1" xmlns="http://www.w3.org/2000/svg" xmlns:xlink="http://www.w3.org/1999/xlink" x="0px" y="0px"
	 viewBox="0 0 60.8 85.3" style="enable-background:new 0 0 60.8 85.3;" xml:space="preserve">
<style type="text/css">
	.st0{fill:#C14803;}
</style>
<title>western_ghats</title>
<path class="st0" d="M25.1,46.9h1l0.2,0.2l0.5,0.2v0.2l0.2,0.2h0.2v0.2l0.2,0.7v0.2l-0.2,0.5v0.2h0.2v0.5h0.2v0.5h-0.3v1h0.2L28,52
	v0.2l0.2,0.2h0.2v0.2L29,53h0.2l0.2,0.5h0.2v0.2l0.2-0.2h0.5v-0.2h0.5l0.2-0.2h0.2v-0.3h0.5l0.2,0.2l0.5,0.2H33l0.2,0.2l0.2,0.2v1
	l-0.2,0.5L33,55.6h-0.2l-0.2,0.5l-0.2,0.2V59l0.2,0.2l0.2,0.5l0.2,0.2l0.2,0.2l0.2,0.2H34l0.2,0.2l0.5,0.2H35v0.2h0.2l0.2,0.2v0.2
	l0.2,0.5v0.2l0.2,0.2v3.1l-0.2,0.5v0.2l-0.2,0.5v0.2l0.2,0.2v0.2h-0.2v1l0.2,0.2v0.5l0.2,0.5l0.2,0.2l0.2,0.2l0.5,0.2v0.2l0.2,0.2
	v0.7l-0.2-0.2h-0.2l-0.5-0.2L35.9,71h-1.5l-0.2-0.2v-0.2L34,70.2V70h-0.2l-0.2-0.5h-0.2V69H33v-1l-0.2-0.2l-0.2-0.2v-0.2h-0.2v-0.2
	L32,66.9l0.2-0.5v-0.2h0.2v-0.7h-0.2L32,65.2v-0.2l-0.2-0.2v-0.2h-0.2v-0.2h-0.2L31.1,64l-0.2-0.2l-0.2-0.5h-0.2V63l-0.2-0.2v-0.2
	l-0.2-0.2V62l-0.2-0.5v-1.9l-0.2-0.2v-0.5l-0.2-0.2v-0.2l-0.2-0.2L28.7,58l-0.2-0.2h-0.2L28,57.5h-0.2v-0.2L27.5,57h-0.2l-0.5-0.5
	h-0.2v-0.2l-0.2-0.2l-0.2-0.2l-0.5-0.5l-0.2-0.5l-0.2-0.2v-0.2l-0.2-0.2l-0.5-0.5h-0.2v-0.2l-0.2-0.2l-0.2-0.5l-0.2-0.2l-0.2-0.2
	L22.9,52l-0.2-0.2l-0.2-0.2l-0.2-0.2H22L21.7,51h-0.2v-0.2h-0.2v-0.2L21,50.3v-0.2h0.2v-0.2L21,49.6v-0.2l-0.2-0.2v-0.7h0.7v0.2h1
	v-0.2l-0.2-0.2v-0.2H22l-1-0.7l-0.2-0.2h-0.2v-0.2l-0.2-0.2L20,46.2L19.8,46v-0.2l-0.2-0.2v-0.2L19.3,45v-0.2h-0.2v-0.2l-0.2-0.2
	L18.6,44l-0.2-0.2v-0.2h-0.2v-0.2l-0.2-0.2l-0.2-0.2v-0.2h-0.2l-0.2-0.2v-0.2l-0.2-0.2l-0.2-0.2l-0.2-0.2v-0.5l-0.2-0.2v-0.2L16,40
	v-0.2l-0.2-0.2l-0.2-0.2v-0.5l-0.2-0.2H15v-0.3l-0.2-0.2l-0.2-0.2H14v-0.5h-0.2v-0.2h-0.2v-0.2h-0.2v-0.2l-0.2-0.2v-1.4l-0.2-0.2
	l-0.2-0.2V34h-0.2v-0.5l-0.2-0.2L11.9,33v-0.2l-0.2-0.2v-0.2l-0.2-0.2h-0.2v-0.2l-0.2-0.2h-0.2l-0.5-0.2H10v-0.2l-0.2-0.2v-0.5
	l-0.2-0.2v-0.5H9.2L9,29.2v-0.2l-0.5-0.5v-0.7l-0.2-0.5V27L8,26.8v-0.5l-0.2-0.2v-0.5l-0.2-0.2l-0.2-0.2v-0.5l-0.2-0.2v-0.2
	l-0.2-0.5v-0.2l-0.5-0.5v-0.2l-0.2-0.2L5.7,22v-0.2H5.4v-0.5H5.2v-0.5l-0.2-0.2v-0.3l-0.2-0.2v-0.5l-0.2-0.2v-0.2l-0.2-0.2L4,18.6
	v-0.2H3.7v-0.5H3.5v-0.7h0.2v-0.5L4,16.5v-0.2H3.7v-0.7l-0.2-0.2V15l-0.2-0.2V14H3v-1.2h0.2v-0.2L3,12.4v-0.2l-0.2-0.2H2.5l-0.2-0.2
	H2l-0.2-0.2l-0.2-0.2v-0.2H1.1l-0.2-0.2H0.6v-0.2H0.4V9.7h0.5v-1l0.2-0.5v-1h0.2V6.6l0.2-0.2V6.1L1.3,5.9V5.7h0.2V5.4l0.2-0.2L2,4.9
	h0.2l0.2-0.2h0.2V4.5L3,4.2V4L2.8,3.5V0.4H3l0.2,0.2l0.2,0.2l0.2,0.2L4,1.6l0.2,0.2v0.2l0.2,0.2v1l0.2,0.2v1.4L5,5.4v0.7l0.2,0.2
	v0.2L5,6.9v0.2H4.7v2.2l0.2,0.2v0.2l0.2,0.5v0.5l0.2,0.5H5.2v1.4l0.2,0.2l0.2,0.2v0.2l-0.2,0.2v0.5l0.2,0.2V15l0.2,0.2v0.5L6.1,16
	l0.2,0.5v0.2h0.2v0.5l0.2,0.2v0.2l0.2,0.2l0.2,0.2l0.2,0.2v0.7L8,19.8V20l0.2,0.2v0.2h0.2v0.2L8.8,21H9v0.2l0.2,0.2v1l0.2,0.2V23
	H9.2v0.5l0.2,0.5h0.2v0.2l0.2,0.2v0.7l0.2,0.2l0.2,0.2v0.2l0,0v0.5h0.2l0.2,0.2l-0.2,0.2h0.2v0.5l0.2,0.2v0.2h0.2v0.5h-0.2l0.2,0.2
	v0.2l0.2,0.2l0.2,0.2v0.2h0.2v0.2l0.2,0.2v0.2l0.2,0.2v0.2l0.2,0.2v0.2h0.2v0.2l0.2,0.5v0.2h0.2v0.2h0.2v0.2l0.5,0.2h0.5V33H15v0.2
	l0.2,0.2h0.2l0.2,0.5l0.5,0.2l0.2,0.2h0.5v0.2h0.2l0.2,0.2l0.2,0.2v0.2l0.2,0.2v0.2h0.5l0.2,0.2l0.2,0.2l0.2,0.2v0.2l0.2,0.2v0.2
	h0.2v0.5h0.2L20,38v0.2l0.2,0.2V39h0.2v0.2l0.2,0.2H21l0.2,0.2h0.5L22,40h0.2v1h0.2v0.2l0.2,0.2v0.2L23,42v1.4h-0.3l0.2,0.2h0.2
	l0.2,0.2h0.2v0.2l0.5,0.2v0.2h0.2V45l0.5,0.5h0.2v0.7l-0.2,0.2v0.2L25.1,46.9z M51.2,65.9h1v0.2h0.2l0.2,0.2l0.2,0.2l0.2,0.2v0.2
	h0.2v0.5h0.2v0.2l0.2,0.2l0.2,0.2l0.2,0.2l0,0v0.2h0.2l0,0h0.2v0.5h0.2v0.2h0.2v0.2h0.2v0.5l0.2,0.2l0,0h-0.2V71h0.5v0.2l0,0
	l0.2-0.2h-0.2v-0.3h0.2v0.2h0.2v0.5h0.2v0.7H57v0.7h0.2v0.5h0.2l0.2,0.2v0.2H58v0.5h0.2l0.2,0.2l0.2,0.2L59,75l0.2,0.2v0.2l0.2,0.2
	v0.5h0.2v0.5l0.2,0.2v1.4h0.2v0.2h-0.3v0.2h0.2v0.2h-0.2v0.2l0,0v1l-0.2,0.2h0.2l-0.2,0.2v0.5h-0.2v0.2h-0.2v0.2h-0.2V82h-0.2
	l-0.2,0.2v0.2h-0.2v0.2h-0.5V83h-0.5v0.2H57l0,0h-0.2v0.2h-1v0.2h-0.7v0.2h-0.5v0.2h-0.5v0.2h-0.2l-0.2-0.2v0.2h-0.2l0,0l-0.2-0.2
	h-0.5l-0.2-0.2H52v-0.2h-0.2l-0.2-0.2l-0.2-0.2V83H51v-0.3l-0.2-0.2v-0.7h-0.2v-0.5L50.3,81v-0.5H50v-0.2l-0.2-0.2v-0.5h-0.2v-1.2
	l-0.2-0.2v-1.2l-0.2-0.2v-0.5l-0.2-0.5v-1l-0.2-0.5V74l-0.2-0.2v-0.2l-0.2-0.2v-1l0,0v-0.4l0.2-0.2l-0.2,0.2l0,0v0.2l0.2-0.2v0.5
	l0,0l-0.2,0.2l0,0v0.2l0,0l0.2,0.2v0.5h0.5v-0.2l-0.2-0.2v-0.2h0.2v-0.2h-0.2v-0.2l-0.2-0.2h0.2l0,0l0,0v-0.2l0,0v-1.2h0.2v-0.5h0.2
	V70l0,0v-0.2l0,0l-0.2-0.2V69h0.2v-0.2h0.2v-0.2l0.2-0.5l0.2-0.2v-0.7l-0.2-0.7v-0.2l0.2-0.2h0.7l0.2,0.2v-0.5H51L51.2,65.9z
	 M55.6,70.7L55.6,70.7z M48.4,71.2L48.1,71l0,0h0.2V71.2z M48.4,72.2L48.4,72.2z M48.8,73.9L48.8,73.9z"/>
</svg>
