<svg xmlns="http://www.w3.org/2000/svg" viewBox="0 0 911.95 620.27"><defs><style>.cls-1{isolation:isolate;}.cls-2{font-size:8px;}.cls-2,.cls-3,.cls-7{font-family:BodoniSvtyTwoITCTT-Book, Bodoni 72;}.cls-3,.cls-7{font-size:8.63px;}.cls-3{fill:#007f00;}.cls-4{opacity:0.5;}.cls-5{fill:#00a99d;mix-blend-mode:hard-light;}.cls-6{fill:#c1272d;}.cls-7{fill:#bf3f3f;}</style></defs><title>left</title><g class="cls-1"><g id="COUNTRY"><text class="cls-2" transform="translate(258.53 39.97)">Angola</text><text class="cls-2" transform="translate(834.66 543.63)">Kuwait</text><text class="cls-2" transform="translate(762.71 543.63)">Korea, Republic of</text><text class="cls-2" transform="translate(42.68 111.93)">Bahrain</text><text class="cls-2" transform="translate(42.68 183.88)">British Virgin <tspan x="0" y="9.6">Islands</tspan></text><text class="cls-2" transform="translate(42.68 255.83)">Chile</text><text class="cls-2" transform="translate(42.68 327.78)">Denmark</text><text class="cls-2" transform="translate(42.68 399.73)">Finland</text><text class="cls-2" transform="translate(42.68 471.68)">Guatemala</text><text class="cls-2" transform="translate(115.14 543.63)">Israel</text><text class="cls-2" transform="translate(330.48 39.97)">Antigua and <tspan x="0" y="9.6">Barbuda</tspan></text><text class="cls-2" transform="translate(42.68 39.97)">Afghanistan</text><text class="cls-2" transform="translate(114.63 39.97)">Albania</text><text class="cls-2" transform="translate(186.58 39.97)">Algeria</text><text class="cls-2" transform="translate(618.81 543.63)">Kenya</text><text class="cls-2" transform="translate(546.85 543.63)">Kazakhstan</text><text class="cls-2" transform="translate(474.9 543.63)">Jordan</text><text class="cls-2" transform="translate(402.95 543.63)">Japan</text><text class="cls-2" transform="translate(259.05 543.63)">Jamaica</text><text class="cls-2" transform="translate(187.1 543.63)">Italy</text><text class="cls-2" transform="translate(42.68 543.64)">Ireland</text><text class="cls-2" transform="translate(834.14 471.68)">Iraq</text><text class="cls-2" transform="translate(762.19 471.68)">Iran, <tspan x="0" y="9.6">Islamic Republic of</tspan></text><text class="cls-2" transform="translate(690.24 471.68)">Indonesia</text><text class="cls-2" transform="translate(618.29 471.68)">India</text><text class="cls-2" transform="translate(546.34 471.68)">Hungary</text><text class="cls-2" transform="translate(474.38 471.68)">Honduras</text><text class="cls-2" transform="translate(402.43 471.68)">Haiti</text><text class="cls-2" transform="translate(330.48 471.68)">Guyana</text><text class="cls-2" transform="translate(259.05 471.68)">Guinea-Bissau</text><text class="cls-2" transform="translate(114.63 471.68)">Guinea</text><text class="cls-2" transform="translate(834.15 399.73)">Guadeloupe</text><text class="cls-2" transform="translate(762.2 399.73)">Grenada</text><text class="cls-2" transform="translate(690.24 399.73)">Greece</text><text class="cls-2" transform="translate(618.29 399.73)">Ghana</text><text class="cls-2" transform="translate(546.34 399.73)">Germany</text><text class="cls-2" transform="translate(474.39 399.73)">Georgia</text><text class="cls-2" transform="translate(402.44 399.73)">Gambia</text><text class="cls-2" transform="translate(762.2 183.88)">Central African <tspan x="0" y="9.6">Republic</tspan></text><text class="cls-2" transform="translate(330.48 399.73)">Gabon</text><text class="cls-2" transform="translate(258.53 399.73)">French <tspan x="0" y="9.6">Polynesia</tspan></text><text class="cls-2" transform="translate(186.58 399.73)">French Guiana</text><text class="cls-2" transform="translate(114.63 399.73)">France</text><text class="cls-2" transform="translate(834.15 327.78)">Fiji</text><text class="cls-2" transform="translate(762.2 327.78)">Ethiopia</text><text class="cls-2" transform="translate(690.24 327.78)">Estonia</text><text class="cls-2" transform="translate(618.29 327.78)">Eritrea</text><text class="cls-2" transform="translate(546.34 327.78)">Equatorial <tspan x="0" y="9.6">Guinea</tspan></text><text class="cls-2" transform="translate(474.39 327.78)">El Salvador</text><text class="cls-2" transform="translate(402.44 327.78)">Egypt</text><text class="cls-2" transform="translate(330.48 327.78)">Ecuador</text><text class="cls-2" transform="translate(258.53 327.78)">Dominican <tspan x="0" y="9.6">Republic</tspan></text><text class="cls-2" transform="translate(186.58 327.78)">Dominica</text><text class="cls-2" transform="translate(114.63 327.78)">Djibouti</text><text class="cls-2" transform="translate(834.15 255.83)">Czech Republic</text><text class="cls-2" transform="translate(762.2 255.83)">Cyprus</text><text class="cls-2" transform="translate(690.24 255.83)">Cuba</text><text class="cls-2" transform="translate(618.29 255.83)">Croatia</text><text class="cls-2" transform="translate(546.34 255.83)">Côte d&apos;Ivoire</text><text class="cls-2" transform="translate(474.39 255.83)">Costa Rica</text><text class="cls-2" transform="translate(402.44 255.83)">Congo, Democratic <tspan x="0" y="9.6">Republic of</tspan></text><text class="cls-2" transform="translate(330.48 255.83)">Congo</text><text class="cls-2" transform="translate(258.53 255.83)">Comoros</text><text class="cls-2" transform="translate(186.58 255.83)">Colombia</text><text class="cls-2" transform="translate(114.63 255.83)">China</text><text class="cls-2" transform="translate(834.15 183.88)">Chad</text><text class="cls-2" transform="translate(690.24 183.88)">Cayman Islands</text><text class="cls-2" transform="translate(618.29 183.88)">Cape Verde</text><text class="cls-2" transform="translate(546.34 183.88)">Canada</text><text class="cls-2" transform="translate(474.39 183.88)">Cameroon</text><text class="cls-2" transform="translate(402.44 183.88)">Cambodia</text><text class="cls-2" transform="translate(330.48 183.88)">Burundi</text><text class="cls-2" transform="translate(258.53 183.88)">Burkina Faso</text><text class="cls-2" transform="translate(186.58 183.88)">Bulgaria</text><text class="cls-2" transform="translate(114.63 183.88)">Brunei <tspan x="0" y="9.6">Darussalam</tspan></text><text class="cls-2" transform="translate(834.15 111.93)">Brazil</text><text class="cls-2" transform="translate(762.2 111.93)">Botswana</text><text class="cls-2" transform="translate(690.24 111.93)">Bosnia and <tspan x="0" y="9.6">Herzegovina</tspan></text><text class="cls-2" transform="translate(618.29 111.93)">Bolivia</text><text class="cls-2" transform="translate(546.34 111.93)">Bhutan</text><text class="cls-2" transform="translate(474.39 111.93)">Bermuda</text><text class="cls-2" transform="translate(402.44 111.93)">Benin</text><text class="cls-2" transform="translate(330.48 111.93)">Belgium</text><text class="cls-2" transform="translate(258.53 111.93)">Belarus</text><text class="cls-2" transform="translate(186.58 111.93)">Barbados</text><text class="cls-2" transform="translate(114.63 111.93)">Bangladesh</text><text class="cls-2" transform="translate(834.15 39.97)">Bahamas</text><text class="cls-2" transform="translate(762.2 39.97)">Azerbaijan</text><text class="cls-2" transform="translate(690.24 39.97)">Austria</text><text class="cls-2" transform="translate(618.29 39.97)">Australia</text><text class="cls-2" transform="translate(546.34 39.97)">Aruba</text><text class="cls-2" transform="translate(474.39 39.97)">Armenia</text><text class="cls-2" transform="translate(402.44 39.97)">Argentina</text><text class="cls-2" transform="translate(690.76 543.63)">Korea, Democratic <tspan x="0" y="9.6">People&apos;s Republic of</tspan></text></g><g id="FIGURES_-_BIOCAP" data-name="FIGURES - BIOCAP"><text class="cls-3" transform="translate(862.96 580.7)">0.6</text><text class="cls-3" transform="translate(132.37 292.89)">0.9</text><text class="cls-3" transform="translate(713.38 220.94)">0.3</text><text class="cls-3" transform="translate(203.7 292.89)">3.6</text><text class="cls-3" transform="translate(634.08 220.94)">0.6</text><text class="cls-3" transform="translate(489.05 292.89)">1.5</text><text class="cls-3" transform="translate(570.07 580.7)">3.4</text><text class="cls-3" transform="translate(557.97 292.89)">1.8</text><text class="cls-3" transform="translate(422.63 580.7)">0.7</text><text class="cls-3" transform="translate(585.18 220.94)">16.0</text><text class="cls-3" transform="translate(207.44 580.7)">1.1</text><text class="cls-3" transform="translate(487.28 220.94)">1.7</text><text class="cls-3" transform="translate(634.98 292.89)">2.8</text><text class="cls-3" transform="translate(63.9 580.7)">3.7</text><text class="cls-3" transform="translate(703.9 292.89)">0.8</text><text class="cls-3" transform="translate(780.57 292.89)">0.3</text><text class="cls-3" transform="translate(848.74 508.75)">0.3</text><text class="cls-3" transform="translate(854.21 292.89)">2.5</text><text class="cls-3" transform="translate(268.48 220.94)">1.0</text><text class="cls-3" transform="translate(202.26 220.94)">2.9</text><text class="cls-3" transform="translate(136.81 580.7)">0.4</text><text class="cls-3" transform="translate(134.13 220.94)">2.9</text><text class="cls-3" transform="translate(58.6 508.75)">1.0</text><text class="cls-3" transform="translate(127.61 364.85)">0.8</text><text class="cls-3" transform="translate(776.78 508.75)">0.9</text><text class="cls-3" transform="translate(859.79 148.99)">9.1</text><text class="cls-3" transform="translate(72.3 436.8)">13.4</text><text class="cls-3" transform="translate(270.5 364.85)">0.6</text><text class="cls-3" transform="translate(61.73 364.85)">4.8</text><text class="cls-3" transform="translate(344.14 364.85)">2.2</text><text class="cls-3" transform="translate(778.53 148.99)">3.5</text><text class="cls-3" transform="translate(703.29 508.75)">1.3</text><text class="cls-3" transform="translate(706.14 148.99)">1.6</text><text class="cls-3" transform="translate(415.08 364.85)">0.6</text><text class="cls-3" transform="translate(60.54 292.89)">3.6</text><text class="cls-3" transform="translate(628.24 508.75)">0.5</text><text class="cls-3" transform="translate(486.36 364.85)">0.6</text><text class="cls-3" transform="translate(653.33 148.99)">16.7</text><text class="cls-3" transform="translate(57.81 220.94)">2.1</text><text class="cls-3" transform="translate(564.69 148.99)">5.3</text><text class="cls-3" transform="translate(500.44 148.99)">0.1</text><text class="cls-3" transform="translate(717.15 364.85)">10.5</text><text class="cls-3" transform="translate(65.87 148.99)">0.6</text><text class="cls-3" transform="translate(354.14 148.99)">1.2</text><text class="cls-3" transform="translate(772.14 364.85)">0.6</text><text class="cls-3" transform="translate(275.85 148.99)">3.6</text><text class="cls-3" transform="translate(860.58 77.04)">9.6</text><text class="cls-3" transform="translate(564.47 508.75)">2.2</text><text class="cls-3" transform="translate(350.59 77.04)">0.9</text><text class="cls-3" transform="translate(779.28 77.04)">0.9</text><text class="cls-3" transform="translate(850.19 364.85)">2.4</text><text class="cls-3" transform="translate(414.23 508.75)">0.3</text><text class="cls-3" transform="translate(712.86 77.04)">3.1</text><text class="cls-3" transform="translate(650.18 77.04)">16.6</text><text class="cls-3" transform="translate(134.42 436.8)">3.1</text><text class="cls-3" transform="translate(347.8 508.75)">66.6</text><text class="cls-3" transform="translate(52.63 77.04)">0.5</text><text class="cls-3" transform="translate(574.66 77.04)">0.6</text><text class="cls-3" transform="translate(486.79 77.04)">0.9</text><text class="cls-3" transform="translate(271.73 508.75)">3.0</text><text class="cls-3" transform="translate(127.98 77.04)">1.2</text><text class="cls-3" transform="translate(201.49 436.8)">111.4</text><text class="cls-3" transform="translate(425.63 77.04)">6.9</text><text class="cls-3" transform="translate(197.88 77.04)">0.6</text><text class="cls-3" transform="translate(629.92 364.85)">1.3</text><text class="cls-3" transform="translate(565.6 364.85)">4.4</text><text class="cls-3" transform="translate(419.35 292.89)">3.1</text><text class="cls-3" transform="translate(358.1 292.89)">10.9</text><text class="cls-3" transform="translate(786.11 220.94)">7.9</text><text class="cls-3" transform="translate(850.95 436.8)">0.5</text><text class="cls-3" transform="translate(784.82 580.7)">0.7</text><text class="cls-3" transform="translate(279.09 436.8)">1.4</text><text class="cls-3" transform="translate(702.92 580.7)">0.6</text><text class="cls-3" transform="translate(370.44 436.8)">26.3</text><text class="cls-3" transform="translate(630.97 580.7)">0.5</text><text class="cls-3" transform="translate(487.95 580.7)">0.2</text><text class="cls-3" transform="translate(413.49 436.8)">0.8</text><text class="cls-3" transform="translate(274.31 580.7)">0.4</text><text class="cls-3" transform="translate(486.11 436.8)">1.2</text><text class="cls-3" transform="translate(487.43 508.75)">1.8</text><text class="cls-3" transform="translate(566.9 436.8)">2.3</text><text class="cls-3" transform="translate(127.58 508.75)">2.1</text><text class="cls-3" transform="translate(779 436.8)">2.0</text><text class="cls-3" transform="translate(633.77 436.8)">1.4</text><text class="cls-3" transform="translate(200.57 364.85)">1.0</text><text class="cls-3" transform="translate(268.48 292.89)">0.3</text><text class="cls-3" transform="translate(412.39 220.94)">1.1</text><text class="cls-3" transform="translate(340.43 220.94)">0.3</text><text class="cls-3" transform="translate(412.39 148.99)">0.9</text><text class="cls-3" transform="translate(204.99 148.99)">0.2</text><text class="cls-3" transform="translate(124.58 148.99)">0.4</text><text class="cls-3" transform="translate(273.13 77.04)">2.6</text><text class="cls-3" transform="translate(709.92 436.8)">1.6</text><text class="cls-3" transform="translate(846.01 220.94)">2.0</text></g><g id="BIOCAPACITY" class="cls-4"><rect class="cls-5" x="618.29" y="418.63" width="8.35" height="8.34"/><rect class="cls-5" x="546.34" y="418.63" width="10.87" height="10.86"/><rect class="cls-5" x="474.39" y="418.63" width="7.77" height="7.77"/><rect class="cls-5" x="762.2" y="418.63" width="10.07" height="10.07"/><rect class="cls-5" x="330.48" y="418.63" width="36.91" height="36.91"/><rect class="cls-5" x="114.63" y="130.82" width="4.39" height="4.39"/><rect class="cls-5" x="186.58" y="130.82" width="3.02" height="3.02"/><rect class="cls-5" x="402.44" y="130.82" width="6.62" height="6.62"/><rect class="cls-5" x="474.39" y="130.82" width="2.52" height="2.52"/><rect class="cls-5" x="690.24" y="130.82" width="9.21" height="9.21"/><rect class="cls-5" x="186.58" y="202.77" width="12.3" height="12.3"/><rect class="cls-5" x="402.44" y="202.77" width="7.48" height="7.48"/><rect class="cls-5" x="474.39" y="202.77" width="9.35" height="9.35"/><rect class="cls-5" x="690.24" y="202.77" width="4.1" height="4.1"/><rect class="cls-5" x="762.2" y="202.77" width="20.29" height="20.29"/><rect class="cls-5" x="114.63" y="274.72" width="6.91" height="6.91"/><rect class="cls-5" x="186.58" y="274.72" width="13.6" height="13.6"/><rect class="cls-5" x="258.53" y="274.72" width="4.03" height="4.03"/><rect class="cls-5" x="330.48" y="274.72" width="23.74" height="23.74"/><rect class="cls-5" x="402.44" y="274.72" width="12.59" height="12.59"/><rect class="cls-5" x="474.39" y="274.72" width="8.85" height="8.85"/><rect class="cls-5" x="186.58" y="346.67" width="7.27" height="7.27"/><rect class="cls-5" x="546.34" y="346.67" width="15.11" height="15.11"/><rect class="cls-5" x="834.15" y="418.63" width="4.82" height="4.82"/><rect class="cls-5" x="618.29" y="346.67" width="8.13" height="8.13"/><rect class="cls-5" x="175.9" y="418.63" width="75.91" height="75.91"/><rect class="cls-5" x="834.15" y="346.67" width="11.01" height="11.01"/><rect class="cls-5" x="258.53" y="418.63" width="8.49" height="8.49"/><rect class="cls-5" x="402.44" y="418.63" width="6.26" height="6.26"/><rect class="cls-5" x="114.63" y="490.58" width="10.36" height="10.36"/><rect class="cls-5" x="259.05" y="490.58" width="12.38" height="12.37"/><rect class="cls-5" x="474.39" y="490.58" width="9.57" height="9.57"/><rect class="cls-5" x="618.29" y="490.58" width="4.82" height="4.82"/><rect class="cls-5" x="834.15" y="490.58" width="3.81" height="3.81"/><rect class="cls-5" x="187.1" y="562.53" width="7.48" height="7.48"/><rect class="cls-5" x="259.05" y="562.53" width="4.54" height="4.53"/><rect class="cls-5" x="402.95" y="562.53" width="5.97" height="5.97"/><rect class="cls-5" x="474.9" y="562.53" width="3.31" height="3.31"/><rect class="cls-5" x="618.81" y="562.53" width="5.04" height="5.03"/><rect class="cls-5" x="690.76" y="562.53" width="5.54" height="5.54"/><rect class="cls-5" x="762.71" y="562.53" width="5.9" height="5.9"/><rect class="cls-5" x="834.66" y="562.53" width="5.25" height="5.25"/><rect class="cls-5" x="402.44" y="58.87" width="18.92" height="18.92"/><rect class="cls-5" x="474.39" y="58.87" width="6.76" height="6.76"/><rect class="cls-5" x="546.34" y="58.87" width="5.4" height="5.4"/><rect class="cls-5" x="114.63" y="418.63" width="12.66" height="12.66"/><rect class="cls-5" x="330.48" y="58.87" width="6.98" height="6.98"/><rect class="cls-5" x="618.29" y="58.87" width="29.28" height="29.28"/><rect class="cls-5" x="690.24" y="58.87" width="12.59" height="12.59"/><rect class="cls-5" x="330.48" y="490.58" width="58.71" height="58.71"/><rect class="cls-5" x="42.68" y="58.87" width="6.4" height="6.4"/><rect class="cls-5" x="762.2" y="58.87" width="6.62" height="6.62"/><rect class="cls-5" x="258.53" y="58.87" width="11.66" height="11.66"/><rect class="cls-5" x="402.43" y="490.58" width="3.74" height="3.74"/><rect class="cls-5" x="762.2" y="346.67" width="5.47" height="5.47"/><rect class="cls-5" x="834.15" y="58.87" width="22.23" height="22.23"/><rect class="cls-5" x="42.68" y="130.82" width="5.4" height="5.4"/><rect class="cls-5" x="42.68" y="274.72" width="13.53" height="13.53"/><rect class="cls-5" x="42.68" y="490.58" width="7.05" height="7.05"/><rect class="cls-5" x="258.53" y="130.82" width="13.74" height="13.74"/><rect class="cls-5" x="330.48" y="130.82" width="7.84" height="7.84"/><rect class="cls-5" x="114.63" y="58.87" width="7.84" height="7.84"/><rect class="cls-5" x="42.68" y="202.77" width="10.29" height="10.29"/><rect class="cls-5" x="186.58" y="58.87" width="5.54" height="5.54"/><rect class="cls-5" x="690.24" y="346.67" width="23.31" height="23.31"/><rect class="cls-5" x="546.34" y="490.58" width="10.58" height="10.58"/><rect class="cls-5" x="546.34" y="130.82" width="16.55" height="16.55"/><rect class="cls-5" x="474.39" y="346.67" width="5.61" height="5.61"/><rect class="cls-5" x="618.29" y="130.82" width="29.43" height="29.43"/><rect class="cls-5" x="402.44" y="346.67" width="5.4" height="5.4"/><rect class="cls-5" x="330.48" y="346.67" width="10.58" height="10.58"/><rect class="cls-5" x="762.2" y="130.82" width="13.38" height="13.38"/><rect class="cls-5" x="258.53" y="346.67" width="5.39" height="5.4"/><rect class="cls-5" x="690.24" y="490.58" width="8.06" height="8.06"/><rect class="cls-5" x="42.68" y="346.67" width="15.76" height="15.76"/><rect class="cls-5" x="114.63" y="346.67" width="6.33" height="6.33"/><rect class="cls-5" x="42.68" y="418.63" width="26.41" height="26.4"/><rect class="cls-5" x="834.15" y="130.82" width="21.66" height="21.66"/><rect class="cls-5" x="762.19" y="490.58" width="6.84" height="6.84"/><rect class="cls-5" x="114.63" y="202.77" width="12.16" height="12.16"/><rect class="cls-5" x="834.15" y="274.72" width="11.3" height="11.3"/><rect class="cls-5" x="258.53" y="202.77" width="7.12" height="7.12"/><rect class="cls-5" x="115.15" y="562.53" width="4.25" height="4.25"/><rect class="cls-5" x="330.48" y="202.77" width="4.1" height="4.1"/><rect class="cls-5" x="762.2" y="274.72" width="4.17" height="4.17"/><rect class="cls-5" x="690.24" y="274.72" width="6.26" height="6.26"/><rect class="cls-5" x="618.29" y="274.72" width="12.02" height="12.02"/><rect class="cls-5" x="546.34" y="202.77" width="35.91" height="35.91"/><rect class="cls-5" x="42.68" y="562.53" width="13.89" height="13.89"/><rect class="cls-5" x="546.34" y="274.72" width="9.57" height="9.57"/><rect class="cls-5" x="618.29" y="202.77" width="5.68" height="5.68"/><rect class="cls-5" x="546.85" y="562.53" width="13.31" height="13.31"/><rect class="cls-5" x="834.15" y="202.77" width="9.5" height="9.5"/><rect class="cls-5" x="690.24" y="418.63" width="9.14" height="9.14"/></g><g id="FOOTPRINT" class="cls-4"><rect class="cls-6" x="690.24" y="274.72" width="10.07" height="10.07"/><rect class="cls-6" x="762.2" y="274.72" width="14.75" height="14.75"/><rect class="cls-6" x="834.15" y="274.72" width="16.41" height="16.4"/><rect class="cls-6" x="618.29" y="274.72" width="14.25" height="14.25"/><rect class="cls-6" x="546.34" y="274.72" width="8.13" height="8.13"/><rect class="cls-6" x="474.39" y="274.72" width="12.16" height="12.16"/><rect class="cls-6" x="114.63" y="346.67" width="10.65" height="10.65"/><rect class="cls-6" x="330.48" y="274.72" width="8.2" height="8.2"/><rect class="cls-6" x="186.58" y="274.72" width="9.86" height="9.86"/><rect class="cls-6" x="186.58" y="346.67" width="11.51" height="11.51"/><rect class="cls-6" x="114.63" y="274.72" width="13.24" height="13.24"/><rect class="cls-6" x="834.15" y="202.77" width="8.71" height="8.71"/><rect class="cls-6" x="258.53" y="346.67" width="8.92" height="8.92"/><rect class="cls-6" x="330.48" y="346.67" width="10.58" height="10.58"/><rect class="cls-6" x="690.24" y="202.77" width="17.12" height="17.13"/><rect class="cls-6" x="618.29" y="202.77" width="11.44" height="11.44"/><rect class="cls-6" x="546.34" y="202.77" width="20.58" height="20.58"/><rect class="cls-6" x="474.39" y="202.77" width="7.91" height="7.91"/><rect class="cls-6" x="402.44" y="202.77" width="7.91" height="7.91"/><rect class="cls-6" x="402.44" y="346.67" width="10.58" height="10.58"/><rect class="cls-6" x="474.39" y="346.67" width="10.36" height="10.36"/><rect class="cls-6" x="330.48" y="202.77" width="6.41" height="6.4"/><rect class="cls-6" x="258.53" y="202.77" width="7.91" height="7.91"/><rect class="cls-6" x="186.58" y="202.77" width="13.1" height="13.1"/><rect class="cls-6" x="546.34" y="346.67" width="14.32" height="14.32"/><rect class="cls-6" x="690.24" y="346.67" width="18.85" height="18.85"/><rect class="cls-6" x="114.63" y="202.77" width="14.46" height="14.46"/><rect class="cls-6" x="834.15" y="130.82" width="12.66" height="12.66"/><rect class="cls-6" x="762.2" y="130.82" width="14.1" height="14.1"/><rect class="cls-6" x="690.24" y="130.82" width="12.74" height="12.74"/><rect class="cls-6" x="618.29" y="130.82" width="12.38" height="12.38"/><rect class="cls-6" x="762.2" y="346.67" width="7.26" height="7.27"/><rect class="cls-6" x="546.34" y="130.82" width="15.83" height="15.83"/><rect class="cls-6" x="834.15" y="346.67" width="12.23" height="12.23"/><rect class="cls-6" x="474.39" y="130.82" width="17.27" height="17.27"/><rect class="cls-6" x="114.63" y="418.63" width="16.33" height="16.33"/><rect class="cls-6" x="258.53" y="58.87" width="6.91" height="6.91"/><rect class="cls-6" x="402.44" y="130.82" width="8.56" height="8.56"/><rect class="cls-6" x="330.48" y="130.82" width="19.64" height="19.64"/><rect class="cls-6" x="175.9" y="418.63" width="11.01" height="11.01"/><rect class="cls-6" x="258.53" y="130.82" width="16.26" height="16.26"/><rect class="cls-6" x="186.58" y="130.82" width="15.25" height="15.25"/><rect class="cls-6" x="258.53" y="418.63" width="15.61" height="15.61"/><rect class="cls-6" x="834.15" y="58.87" width="18.85" height="18.85"/><rect class="cls-6" x="114.63" y="130.82" width="5.83" height="5.83"/><rect class="cls-6" x="330.48" y="418.63" width="10.22" height="10.21"/><rect class="cls-6" x="402.44" y="418.63" width="7.27" height="7.27"/><rect class="cls-6" x="474.39" y="418.63" width="9.07" height="9.06"/><rect class="cls-6" x="762.2" y="58.87" width="10.94" height="10.94"/><rect class="cls-6" x="546.34" y="418.63" width="16.55" height="16.55"/><rect class="cls-6" x="690.24" y="58.87" width="17.7" height="17.7"/><rect class="cls-6" x="618.29" y="418.63" width="10.07" height="10.07"/><rect class="cls-6" x="618.29" y="58.87" width="21.94" height="21.94"/><rect class="cls-6" x="690.24" y="418.63" width="15.04" height="15.04"/><rect class="cls-6" x="546.34" y="58.87" width="24.83" height="24.82"/><rect class="cls-6" x="762.2" y="418.63" width="12.45" height="12.45"/><rect class="cls-6" x="474.39" y="58.87" width="10.72" height="10.72"/><rect class="cls-6" x="402.44" y="58.87" width="12.74" height="12.73"/><rect class="cls-6" x="834.15" y="418.63" width="12.95" height="12.95"/><rect class="cls-6" x="762.2" y="202.77" width="7.77" height="7.77"/><rect class="cls-6" x="114.63" y="490.58" width="8.56" height="8.56"/><rect class="cls-6" x="259.05" y="490.58" width="8.92" height="8.92"/><rect class="cls-6" x="330.48" y="490.58" width="12.59" height="12.59"/><rect class="cls-6" x="258.53" y="274.72" width="7.12" height="7.12"/><rect class="cls-6" x="402.43" y="490.58" width="5.61" height="5.61"/><rect class="cls-6" x="402.44" y="274.72" width="6.26" height="6.26"/><rect class="cls-6" x="474.39" y="490.58" width="9.35" height="9.36"/><rect class="cls-6" x="546.34" y="490.58" width="12.3" height="12.3"/><rect class="cls-6" x="618.29" y="490.58" width="7.77" height="7.77"/><rect class="cls-6" x="690.24" y="490.58" width="9.07" height="9.07"/><rect class="cls-6" x="762.19" y="490.58" width="12.02" height="12.02"/><rect class="cls-6" x="618.29" y="346.67" width="4.75" height="4.75"/><rect class="cls-6" x="834.15" y="490.58" width="9.86" height="9.86"/><rect class="cls-6" x="42.68" y="562.53" width="16.98" height="16.98"/><rect class="cls-6" x="187.1" y="562.53" width="15.47" height="15.47"/><rect class="cls-6" x="259.05" y="562.53" width="9.86" height="9.86"/><rect class="cls-6" x="402.95" y="562.53" width="16.12" height="16.12"/><rect class="cls-6" x="474.9" y="562.53" width="10.43" height="10.43"/><rect class="cls-6" x="762.71" y="562.53" width="17.2" height="17.2"/><rect class="cls-6" x="834.66" y="562.53" width="20.51" height="20.51"/><rect class="cls-6" x="115.15" y="562.53" width="17.92" height="17.91"/><rect class="cls-6" x="42.68" y="490.58" width="9.86" height="9.86"/><rect class="cls-6" x="42.68" y="418.63" width="17.41" height="17.41"/><rect class="cls-6" x="42.68" y="346.67" width="16.91" height="16.91"/><rect class="cls-6" x="42.68" y="274.72" width="15.04" height="15.04"/><rect class="cls-6" x="186.58" y="58.87" width="10.51" height="10.5"/><rect class="cls-6" x="546.85" y="562.53" width="16.98" height="16.98"/><rect class="cls-6" x="42.68" y="202.77" width="12.16" height="12.16"/><rect class="cls-6" x="114.63" y="58.87" width="10.72" height="10.72"/><rect class="cls-6" x="42.68" y="130.82" width="19.71" height="19.72"/><rect class="cls-6" x="330.48" y="58.87" width="16.69" height="16.69"/><rect class="cls-6" x="42.68" y="58.87" width="5.11" height="5.11"/><rect class="cls-6" x="690.76" y="562.53" width="7.7" height="7.7"/><rect class="cls-6" x="618.81" y="562.53" width="7.12" height="7.12"/></g><g id="FIGURES_-_FTPRINT" data-name="FIGURES - FTPRINT"><text class="cls-7" transform="translate(779 423.93)">3.0</text><text class="cls-7" transform="translate(709.92 423.93)">4.4</text><text class="cls-7" transform="translate(633.77 423.93)">2.0</text><text class="cls-7" transform="translate(566.9 423.93)">5.3</text><text class="cls-7" transform="translate(486.11 423.93)">1.6</text><text class="cls-7" transform="translate(413.49 423.93)">1.0</text><text class="cls-7" transform="translate(850.95 423.93)">3.2</text><text class="cls-7" transform="translate(370.44 423.93)">2.0</text><text class="cls-7" transform="translate(279.09 423.93)">4.7</text><text class="cls-7" transform="translate(127.58 495.88)">1.4</text><text class="cls-7" transform="translate(271.73 495.88)">1.5</text><text class="cls-7" transform="translate(201.49 423.93)">2.3</text><text class="cls-7" transform="translate(347.8 495.88)">3.1</text><text class="cls-7" transform="translate(134.42 423.93)">5.1</text><text class="cls-7" transform="translate(414.23 495.88)">0.6</text><text class="cls-7" transform="translate(850.19 351.98)">2.9</text><text class="cls-7" transform="translate(487.43 495.88)">1.7</text><text class="cls-7" transform="translate(564.47 495.88)">2.9</text><text class="cls-7" transform="translate(772.14 351.98)">1.0</text><text class="cls-7" transform="translate(717.15 351.98)">6.9</text><text class="cls-7" transform="translate(629.92 351.98)">0.4</text><text class="cls-7" transform="translate(565.6 351.98)">4.0</text><text class="cls-7" transform="translate(628.24 495.88)">1.2</text><text class="cls-7" transform="translate(486.36 351.98)">2.1</text><text class="cls-7" transform="translate(703.29 495.88)">1.6</text><text class="cls-7" transform="translate(415.08 351.98)">2.2</text><text class="cls-7" transform="translate(344.14 351.98)">2.2</text><text class="cls-7" transform="translate(270.5 351.98)">1.5</text><text class="cls-7" transform="translate(776.78 495.88)">2.8</text><text class="cls-7" transform="translate(200.57 351.98)">2.6</text><text class="cls-7" transform="translate(127.61 351.98)">2.2</text><text class="cls-7" transform="translate(848.74 495.88)">1.9</text><text class="cls-7" transform="translate(854.21 280.03)">5.2</text><text class="cls-7" transform="translate(780.57 280.03)">4.2</text><text class="cls-7" transform="translate(63.9 567.84)">5.6</text><text class="cls-7" transform="translate(703.9 280.03)">2.0</text><text class="cls-7" transform="translate(634.98 280.03)">3.9</text><text class="cls-7" transform="translate(207.44 567.84)">4.6</text><text class="cls-7" transform="translate(274.31 567.84)">1.9</text><text class="cls-7" transform="translate(422.63 567.84)">5.0</text><text class="cls-7" transform="translate(487.95 567.84)">2.1</text><text class="cls-7" transform="translate(570.07 567.84)">5.6</text><text class="cls-7" transform="translate(557.97 280.03)">1.3</text><text class="cls-7" transform="translate(489.05 280.03)">2.8</text><text class="cls-7" transform="translate(419.35 280.03)">0.8</text><text class="cls-7" transform="translate(358.1 280.03)">1.3</text><text class="cls-7" transform="translate(268.48 280.03)">1.0</text><text class="cls-7" transform="translate(630.97 567.84)">1.0</text><text class="cls-7" transform="translate(784.82 567.84)">5.7</text><text class="cls-7" transform="translate(862.96 567.84)">8.1</text><text class="cls-7" transform="translate(203.7 280.03)">1.9</text><text class="cls-7" transform="translate(132.37 280.03)">3.4</text><text class="cls-7" transform="translate(846.01 208.08)">1.5</text><text class="cls-7" transform="translate(786.11 208.08)">1.2</text><text class="cls-7" transform="translate(713.38 208.08)">5.7</text><text class="cls-7" transform="translate(634.08 208.08)">2.5</text><text class="cls-7" transform="translate(585.18 208.08)">8.2</text><text class="cls-7" transform="translate(487.28 208.08)">1.2</text><text class="cls-7" transform="translate(412.39 208.08)">1.2</text><text class="cls-7" transform="translate(268.48 208.08)">1.2</text><text class="cls-7" transform="translate(202.26 208.08)">3.3</text><text class="cls-7" transform="translate(134.13 208.08)">4.1</text><text class="cls-7" transform="translate(136.81 567.84)">6.2</text><text class="cls-7" transform="translate(58.6 495.88)">1.9</text><text class="cls-7" transform="translate(72.3 423.93)">5.9</text><text class="cls-7" transform="translate(859.79 136.12)">3.1</text><text class="cls-7" transform="translate(61.73 351.98)">5.5</text><text class="cls-7" transform="translate(778.53 136.12)">3.8</text><text class="cls-7" transform="translate(706.14 136.12)">3.1</text><text class="cls-7" transform="translate(60.54 280.03)">4.4</text><text class="cls-7" transform="translate(653.33 136.12)">3.0</text><text class="cls-7" transform="translate(57.81 208.08)">2.9</text><text class="cls-7" transform="translate(564.69 136.12)">4.8</text><text class="cls-7" transform="translate(500.44 136.12)">5.8</text><text class="cls-7" transform="translate(412.39 136.12)">1.4</text><text class="cls-7" transform="translate(354.14 136.12)">7.4</text><text class="cls-7" transform="translate(65.87 136.12)">7.5</text><text class="cls-7" transform="translate(275.85 136.12)">5.1</text><text class="cls-7" transform="translate(204.99 136.12)">4.5</text><text class="cls-7" transform="translate(124.58 136.12)">0.7</text><text class="cls-7" transform="translate(350.59 64.17)">5.4</text><text class="cls-7" transform="translate(860.58 64.17)">6.8</text><text class="cls-7" transform="translate(779.28 64.17)">2.3</text><text class="cls-7" transform="translate(712.86 64.17)">6.1</text><text class="cls-7" transform="translate(650.18 64.17)">9.3</text><text class="cls-7" transform="translate(52.63 64.17)">0.8</text><text class="cls-7" transform="translate(574.66 64.17)">11.9</text><text class="cls-7" transform="translate(127.98 64.17)">2.2</text><text class="cls-7" transform="translate(486.79 64.17)">2.2</text><text class="cls-7" transform="translate(197.88 64.17)">2.1</text><text class="cls-7" transform="translate(425.63 64.17)">3.1</text><text class="cls-7" transform="translate(273.13 64.17)">0.9</text><text class="cls-7" transform="translate(340.43 208.08)">0.8</text><text class="cls-7" transform="translate(702.92 567.84)">1.2</text></g></g></svg>