<svg xmlns="http://www.w3.org/2000/svg" xmlns:xlink="http://www.w3.org/1999/xlink" viewBox="0 0 911.95 620.73"><defs><style>.cls-1{fill:none;}.cls-2{isolation:isolate;}.cls-3{font-size:8px;}.cls-13,.cls-3,.cls-4,.cls-8{font-family:BodoniSvtyTwoITCTT-Book, Bodoni 72;}.cls-4,.cls-8{font-size:8.63px;}.cls-4{fill:#007f00;}.cls-5{opacity:0.5;}.cls-6{fill:#00a99d;mix-blend-mode:hard-light;}.cls-7{fill:#c1272d;}.cls-8{fill:#bf3f3f;}.cls-9{clip-path:url(#clip-path);}.cls-10{clip-path:url(#clip-path-3);}.cls-11{fill:#c9261c;}.cls-12{fill:#6cc;}.cls-13{font-size:10px;}</style><clipPath id="clip-path"><rect class="cls-1" x="761.48" y="529.51" width="152.64" height="30.87"/></clipPath><clipPath id="clip-path-3"><rect class="cls-1" x="752.48" y="531.51" width="25.2" height="15.2"/></clipPath></defs><title>right</title><g class="cls-2"><g id="COUNTRY"><text class="cls-3" transform="translate(42.53 40.1)">Kyrgyzstan</text><text class="cls-3" transform="translate(114.48 40.1)">Lao People&apos;s <tspan x="0" y="9.6">Democratic Republic</tspan></text><text class="cls-3" transform="translate(330.34 255.95)">Philippines</text><text class="cls-3" transform="translate(258.39 255.95)">Peru</text><text class="cls-3" transform="translate(114.48 327.91)">Saint Lucia</text><text class="cls-3" transform="translate(42.53 327.91)">Saint Kitts <tspan x="0" y="9.6">and Nevis</tspan></text><text class="cls-3" transform="translate(834 255.95)">Rwanda</text><text class="cls-3" transform="translate(762.05 255.95)">Russian <tspan x="0" y="9.6">Federation</tspan></text><text class="cls-3" transform="translate(690.1 255.95)">Romania</text><text class="cls-3" transform="translate(618.15 255.95)">Réunion</text><text class="cls-3" transform="translate(546.2 255.95)">Qatar</text><text class="cls-3" transform="translate(474.25 255.95)">Portugal</text><text class="cls-3" transform="translate(402.3 255.95)">Poland</text><text class="cls-3" transform="translate(330.34 327.9)">Saudi Arabia</text><text class="cls-3" transform="translate(258.39 327.9)">Sao Tome <tspan x="0" y="9.6">and Principe</tspan></text><text class="cls-3" transform="translate(114.48 399.86)">South Africa</text><text class="cls-3" transform="translate(42.53 399.86)">Somalia</text><text class="cls-3" transform="translate(834 327.9)">Solomon Islands</text><text class="cls-3" transform="translate(762.05 327.9)">Slovenia</text><text class="cls-3" transform="translate(690.1 327.9)">Slovakia</text><text class="cls-3" transform="translate(618.15 327.9)">Singapore</text><text class="cls-3" transform="translate(546.2 327.9)">Sierra Leone</text><text class="cls-3" transform="translate(474.25 327.9)">Serbia</text><text class="cls-3" transform="translate(402.3 327.9)">Senegal</text><text class="cls-3" transform="translate(330.34 399.86)">Suriname</text><text class="cls-3" transform="translate(258.39 399.86)">Sri Lanka</text><text class="cls-3" transform="translate(114.48 471.81)">Togo</text><text class="cls-3" transform="translate(42.53 471.81)">Timor-Leste</text><text class="cls-3" transform="translate(834 399.86)">Thailand</text><text class="cls-3" transform="translate(762.05 399.86)">Tanzania, <tspan x="0" y="9.6">United Republic of</tspan></text><text class="cls-3" transform="translate(690.1 399.86)">Tajikistan</text><text class="cls-3" transform="translate(618.15 399.86)">Syrian Arab <tspan x="0" y="9.6">Republic</tspan></text><text class="cls-3" transform="translate(546.2 399.86)">Switzerland</text><text class="cls-3" transform="translate(474.25 399.86)">Sweden</text><text class="cls-3" transform="translate(402.3 399.86)">Swaziland</text><text class="cls-3" transform="translate(402.29 471.81)">Tunisia</text><text class="cls-3" transform="translate(258.39 471.81)">Trinidad <tspan x="0" y="9.6">and Tobago</tspan></text><text class="cls-3" transform="translate(186.44 543.76)">Uzbekistan</text><text class="cls-3" transform="translate(114.48 543.76)">Uruguay</text><text class="cls-3" transform="translate(42.53 543.76)">United States <tspan x="0" y="9.6">of America</tspan></text><text class="cls-3" transform="translate(833.9 471.81)">United Kingdom</text><text class="cls-3" transform="translate(761.95 471.81)">United Arab <tspan x="0" y="9.6">Emirates</tspan></text><text class="cls-3" transform="translate(690.1 471.81)">Ukraine</text><text class="cls-3" transform="translate(618.15 471.81)">Uganda</text><text class="cls-3" transform="translate(546.2 471.81)">Turkmenistan</text><text class="cls-3" transform="translate(474.25 471.81)">Turkey</text><text class="cls-3" transform="translate(186.44 40.1)">Latvia</text><text class="cls-3" transform="translate(546.2 40.1)">Lithuania</text><text class="cls-3" transform="translate(186.44 471.81)">Tonga</text><text class="cls-3" transform="translate(474.25 40.1)">Libyan Arab <tspan x="0" y="9.6">Jamahiriya</tspan></text><text class="cls-3" transform="translate(402.3 40.1)">Liberia</text><text class="cls-3" transform="translate(186.44 399.86)">Spain</text><text class="cls-3" transform="translate(330.34 40.1)">Lesotho</text><text class="cls-3" transform="translate(186.44 327.9)">Samoa</text><text class="cls-3" transform="translate(258.39 40.1)">Lebanon</text><text class="cls-3" transform="translate(186.44 255.95)">Paraguay</text><text class="cls-3" transform="translate(690.1 40.1)">Macedonia <tspan x="0" y="9.6">TFYR</tspan></text><text class="cls-3" transform="translate(330.23 543.76)">Viet Nam</text><text class="cls-3" transform="translate(762.05 40.1)">Madagascar</text><text class="cls-3" transform="translate(402.18 543.76)">Wallis and <tspan x="0" y="9.6">Futuna Islands</tspan></text><text class="cls-3" transform="translate(834 40.1)">Malawi</text><text class="cls-3" transform="translate(42.53 112.05)">Malaysia</text><text class="cls-3" transform="translate(114.48 112.05)">Mali</text><text class="cls-3" transform="translate(474.14 543.76)">Yemen</text><text class="cls-3" transform="translate(618.15 40.1)">Luxembourg</text><text class="cls-3" transform="translate(186.44 112.05)">Martinique</text><text class="cls-3" transform="translate(689.99 543.76)">WORLD</text><text class="cls-3" transform="translate(618.04 543.76)">Zimbabwe</text><text class="cls-3" transform="translate(546.09 543.76)">Zambia</text><text class="cls-3" transform="translate(330.34 112.05)">Mauritius</text><text class="cls-3" transform="translate(402.3 112.05)">Mexico</text><text class="cls-3" transform="translate(474.25 112.05)">Moldova</text><text class="cls-3" transform="translate(546.2 112.05)">Mongolia</text><text class="cls-3" transform="translate(618.15 112.05)">Montenegro</text><text class="cls-3" transform="translate(258.28 543.76)">Venezuela, <tspan x="0" y="9.6">Bolivarian Republic of</tspan></text><text class="cls-3" transform="translate(258.39 184)">Papua <tspan x="0" y="9.6">New Guinea</tspan></text><text class="cls-3" transform="translate(690.1 112.05)">Morocco</text><text class="cls-3" transform="translate(762.05 112.05)">Mozambique</text><text class="cls-3" transform="translate(834 112.05)">Myanmar</text><text class="cls-3" transform="translate(42.53 184)">Namibia</text><text class="cls-3" transform="translate(114.48 184)">Nauru</text><text class="cls-3" transform="translate(258.39 112.05)">Mauritania</text><text class="cls-3" transform="translate(186.44 184)">Nepal</text><text class="cls-3" transform="translate(402.3 184)">New Caledonia</text><text class="cls-3" transform="translate(330.34 184)">Netherlands</text><text class="cls-3" transform="translate(114.48 255.95)">Panama</text><text class="cls-3" transform="translate(42.53 255.95)">Pakistan</text><text class="cls-3" transform="translate(834 184)">Oman</text><text class="cls-3" transform="translate(474.25 184)">New Zealand</text><text class="cls-3" transform="translate(546.2 184)">Nicaragua</text><text class="cls-3" transform="translate(762.05 184)">Norway</text><text class="cls-3" transform="translate(690.1 184)">Nigeria</text><text class="cls-3" transform="translate(618.15 184)">Niger</text></g><g id="FIGURES_-_BIOCAP" data-name="FIGURES - BIOCAP"><text class="cls-4" transform="translate(132.11 364.97)">0.3</text><text class="cls-4" transform="translate(65.15 364.97)">0.6</text><text class="cls-4" transform="translate(352.49 364.97)">0.5</text><text class="cls-4" transform="translate(774.46 149.11)">2.1</text><text class="cls-4" transform="translate(349.8 149.11)">0.7</text><text class="cls-4" transform="translate(58.23 77.16)">1.3</text><text class="cls-4" transform="translate(128.61 221.07)">0.2</text><text class="cls-4" transform="translate(274.19 364.97)">0.9</text><text class="cls-4" transform="translate(846.26 293.02)">0.5</text><text class="cls-4" transform="translate(277.9 149.11)">4.5</text><text class="cls-4" transform="translate(419.76 149.11)">1.3</text><text class="cls-4" transform="translate(489.35 149.11)">0.8</text><text class="cls-4" transform="translate(577.92 149.11)">15.7</text><text class="cls-4" transform="translate(783.91 293.02)">6.8</text><text class="cls-4" transform="translate(198.57 221.07)">0.6</text><text class="cls-4" transform="translate(559.99 364.97)">1.2</text><text class="cls-4" transform="translate(353.39 221.07)">1.2</text><text class="cls-4" transform="translate(637.93 149.11)">3.2</text><text class="cls-4" transform="translate(425.85 221.07)">7.7</text><text class="cls-4" transform="translate(706.96 293.02)">2.3</text><text class="cls-4" transform="translate(706.06 149.11)">0.7</text><text class="cls-4" transform="translate(129.96 77.16)">1.6</text><text class="cls-4" transform="translate(849.96 149.11)">1.8</text><text class="cls-4" transform="translate(65.68 221.07)">6.9</text><text class="cls-4" transform="translate(416.08 364.97)">1.1</text><text class="cls-4" transform="translate(572.66 293.02)">1.2</text><text class="cls-4" transform="translate(202.67 149.11)">0.4</text><text class="cls-4" transform="translate(500.73 221.07)">10.1</text><text class="cls-4" transform="translate(492.26 364.97)">1.3</text><text class="cls-4" transform="translate(561.44 221.07)">2.3</text><text class="cls-4" transform="translate(493.41 293.02)">1.5</text><text class="cls-4" transform="translate(649.88 77.16)">1.7</text><text class="cls-4" transform="translate(633.39 221.07)">1.2</text><text class="cls-4" transform="translate(642.69 364.97)">0.01</text><text class="cls-4" transform="translate(702.85 221.07)">0.7</text><text class="cls-4" transform="translate(421.84 293.02)">2.1</text><text class="cls-4" transform="translate(784.76 221.07)">8.2</text><text class="cls-4" transform="translate(707.57 77.16)">1.5</text><text class="cls-4" transform="translate(777.82 77.16)">2.6</text><text class="cls-4" transform="translate(856.46 221.07)">1.9</text><text class="cls-4" transform="translate(710.04 364.97)">2.7</text><text class="cls-4" transform="translate(54.04 293.02)">0.4</text><text class="cls-4" transform="translate(784.29 364.97)">2.4</text><text class="cls-4" transform="translate(131.9 293.02)">2.9</text><text class="cls-4" transform="translate(851.25 364.97)">4.4</text><text class="cls-4" transform="translate(845.74 77.16)">0.7</text><text class="cls-4" transform="translate(276.25 221.07)">3.9</text><text class="cls-4" transform="translate(61.08 149.12)">2.4</text><text class="cls-4" transform="translate(636.16 293.02)">0.2</text><text class="cls-4" transform="translate(276.2 580.83)">2.8</text><text class="cls-4" transform="translate(55.94 436.92)">1.3</text><text class="cls-4" transform="translate(128.26 149.12)">1.6</text><text class="cls-4" transform="translate(567.79 77.16)">5.7</text><text class="cls-4" transform="translate(706.18 580.83)">1.73</text><text class="cls-4" transform="translate(132.88 436.92)">1.3</text><text class="cls-4" transform="translate(341.85 293.02)">0.5</text><text class="cls-4" transform="translate(558.21 580.83)">2.2</text><text class="cls-4" transform="translate(631.41 580.83)">0.6</text><text class="cls-4" transform="translate(276.22 293.02)">4.0</text><text class="cls-4" transform="translate(272.57 436.92)">0.4</text><text class="cls-4" transform="translate(350.66 436.92)">89.3</text><text class="cls-4" transform="translate(486.27 580.83)">0.5</text><text class="cls-4" transform="translate(276.4 77.16)">0.3</text><text class="cls-4" transform="translate(414.31 580.83)">1.5</text><text class="cls-4" transform="translate(344.59 77.16)">0.8</text><text class="cls-4" transform="translate(416.72 77.16)">2.6</text><text class="cls-4" transform="translate(491 77.16)">0.7</text><text class="cls-4" transform="translate(210.54 77.16)">9.6</text><text class="cls-4" transform="translate(344.85 580.83)">1.0</text><text class="cls-4" transform="translate(632.32 436.92)">0.6</text><text class="cls-4" transform="translate(213.96 293.02)">10.5</text><text class="cls-4" transform="translate(205.75 364.97)">1.9</text><text class="cls-4" transform="translate(206.44 436.92)">1.3</text><text class="cls-4" transform="translate(203.54 508.87)">1.5</text><text class="cls-4" transform="translate(142.48 580.83)">10.3</text><text class="cls-4" transform="translate(418.77 436.92)">0.9</text><text class="cls-4" transform="translate(68.66 580.83)">3.8</text><text class="cls-4" transform="translate(855.98 508.88)">1.3</text><text class="cls-4" transform="translate(499.94 436.92)">10.6</text><text class="cls-4" transform="translate(710.01 508.87)">2.3</text><text class="cls-4" transform="translate(569.59 436.92)">1.3</text><text class="cls-4" transform="translate(568.28 508.87)">2.8</text><text class="cls-4" transform="translate(702.74 436.92)">0.5</text><text class="cls-4" transform="translate(493.53 508.87)">1.5</text><text class="cls-4" transform="translate(775.46 436.92)">1.1</text><text class="cls-4" transform="translate(850.1 436.92)">1.2</text><text class="cls-4" transform="translate(53.63 508.87)">1.8</text><text class="cls-4" transform="translate(633.39 508.87)">0.6</text><text class="cls-4" transform="translate(790.25 508.88)">0.6</text><text class="cls-4" transform="translate(204.16 580.83)">0.9</text><text class="cls-4" transform="translate(417.25 508.87)">0.9</text><text class="cls-4" transform="translate(128.27 508.87)">0.5</text><text class="cls-4" transform="translate(282.96 508.87)">1.6</text></g><g id="BIOCAPACITY" class="cls-5"><rect class="cls-6" x="258.39" y="58.99" width="4.1" height="4.1"/><rect class="cls-6" x="114.49" y="490.71" width="5.25" height="5.25"/><rect class="cls-6" x="258.39" y="490.7" width="8.99" height="8.99"/><rect class="cls-6" x="42.53" y="490.71" width="9.57" height="9.57"/><rect class="cls-6" x="402.3" y="490.7" width="6.91" height="6.91"/><rect class="cls-6" x="186.44" y="562.66" width="6.76" height="6.76"/><rect class="cls-6" x="761.95" y="490.71" width="5.4" height="5.4"/><rect class="cls-6" x="474.25" y="490.7" width="8.85" height="8.85"/><rect class="cls-6" x="762.06" y="418.75" width="7.48" height="7.48"/><rect class="cls-6" x="546.2" y="418.75" width="8.2" height="8.2"/><rect class="cls-6" x="546.2" y="490.7" width="12.02" height="12.02"/><rect class="cls-6" x="618.15" y="490.7" width="5.54" height="5.54"/><rect class="cls-6" x="474.25" y="418.75" width="23.46" height="23.45"/><rect class="cls-6" x="690.11" y="490.7" width="10.86" height="10.87"/><rect class="cls-6" x="833.9" y="490.71" width="8.27" height="8.27"/><rect class="cls-6" x="402.3" y="418.75" width="6.76" height="6.76"/><rect class="cls-6" x="42.53" y="562.66" width="13.96" height="13.96"/><rect class="cls-6" x="114.48" y="562.66" width="22.45" height="22.45"/><rect class="cls-6" x="186.44" y="490.7" width="8.78" height="8.78"/><rect class="cls-6" x="186.44" y="418.75" width="8.06" height="8.05"/><rect class="cls-6" x="186.44" y="346.8" width="10" height="10"/><rect class="cls-6" x="186.44" y="274.85" width="23.31" height="23.31"/><rect class="cls-6" x="618.15" y="418.75" width="5.54" height="5.54"/><rect class="cls-6" x="186.44" y="58.99" width="22.23" height="22.23"/><rect class="cls-6" x="330.23" y="562.66" width="7.05" height="7.05"/><rect class="cls-6" x="690.1" y="418.75" width="5.11" height="5.11"/><rect class="cls-6" x="474.25" y="58.99" width="5.9" height="5.9"/><rect class="cls-6" x="402.3" y="58.99" width="11.51" height="11.51"/><rect class="cls-6" x="330.34" y="58.99" width="6.33" height="6.33"/><rect class="cls-6" x="834.01" y="418.75" width="7.92" height="7.91"/><rect class="cls-6" x="330.34" y="418.75" width="68" height="67.99"/><rect class="cls-6" x="402.18" y="562.66" width="8.85" height="8.85"/><rect class="cls-6" x="330.34" y="274.85" width="5.26" height="5.25"/><rect class="cls-6" x="474.14" y="562.66" width="5.04" height="5.03"/><rect class="cls-6" x="618.04" y="562.66" width="5.68" height="5.68"/><rect class="cls-6" x="546.09" y="562.66" width="10.79" height="10.79"/><rect class="cls-6" x="258.39" y="274.85" width="14.32" height="14.32"/><rect class="cls-6" x="258.39" y="418.75" width="4.75" height="4.75"/><rect class="cls-6" x="42.53" y="346.8" width="5.54" height="5.54"/><rect class="cls-6" x="114.49" y="418.75" width="8.06" height="8.06"/><rect class="cls-6" x="618.15" y="274.85" width="3.02" height="3.02"/><rect class="cls-6" x="474.25" y="274.85" width="8.85" height="8.85"/><rect class="cls-6" x="546.2" y="58.99" width="17.13" height="17.12"/><rect class="cls-6" x="114.49" y="130.94" width="9.06" height="9.07"/><rect class="cls-6" x="689.99" y="562.66" width="9.5" height="9.5"/><rect class="cls-6" x="42.53" y="418.75" width="8.13" height="8.13"/><rect class="cls-6" x="258.28" y="562.66" width="11.95" height="11.95"/><rect class="cls-6" x="42.53" y="130.94" width="11.15" height="11.15"/><rect class="cls-6" x="834.01" y="58.99" width="5.83" height="5.83"/><rect class="cls-6" x="258.39" y="202.9" width="14.25" height="14.25"/><rect class="cls-6" x="114.49" y="274.85" width="12.3" height="12.3"/><rect class="cls-6" x="762.06" y="58.99" width="11.66" height="11.66"/><rect class="cls-6" x="690.1" y="346.8" width="11.87" height="11.87"/><rect class="cls-6" x="690.1" y="58.99" width="8.85" height="8.85"/><rect class="cls-6" x="762.06" y="202.9" width="20.58" height="20.58"/><rect class="cls-6" x="690.1" y="202.9" width="6.05" height="6.04"/><rect class="cls-6" x="618.15" y="346.8" width="1.58" height="1.58"/><rect class="cls-6" x="618.15" y="202.9" width="7.99" height="7.99"/><rect class="cls-6" x="618.15" y="58.99" width="9.35" height="9.35"/><rect class="cls-6" x="402.3" y="274.85" width="10.36" height="10.36"/><rect class="cls-6" x="474.25" y="346.8" width="8.06" height="8.06"/><rect class="cls-6" x="546.2" y="202.9" width="10.79" height="10.79"/><rect class="cls-6" x="474.25" y="202.9" width="22.88" height="22.88"/><rect class="cls-6" x="186.44" y="130.94" width="4.46" height="4.46"/><rect class="cls-6" x="402.3" y="346.8" width="7.34" height="7.34"/><rect class="cls-6" x="42.53" y="202.9" width="18.85" height="18.85"/><rect class="cls-6" x="114.48" y="58.99" width="9.14" height="9.14"/><rect class="cls-6" x="834.01" y="130.94" width="9.79" height="9.79"/><rect class="cls-6" x="546.2" y="274.85" width="7.99" height="7.99"/><rect class="cls-6" x="834.01" y="202.9" width="10" height="10"/><rect class="cls-6" x="762.06" y="130.94" width="10.36" height="10.36"/><rect class="cls-6" x="42.53" y="274.85" width="4.46" height="4.46"/><rect class="cls-6" x="690.1" y="130.94" width="6.05" height="6.04"/><rect class="cls-6" x="402.3" y="202.9" width="19.93" height="19.93"/><rect class="cls-6" x="618.15" y="130.94" width="12.95" height="12.95"/><rect class="cls-6" x="330.34" y="202.9" width="7.77" height="7.77"/><rect class="cls-6" x="690.1" y="274.85" width="10.94" height="10.94"/><rect class="cls-6" x="546.2" y="130.94" width="28.49" height="28.49"/><rect class="cls-6" x="546.2" y="346.8" width="7.77" height="7.77"/><rect class="cls-6" x="186.44" y="202.9" width="5.54" height="5.54"/><rect class="cls-6" x="42.53" y="58.99" width="8.2" height="8.2"/><rect class="cls-6" x="474.25" y="130.94" width="6.41" height="6.4"/><rect class="cls-6" x="762.06" y="346.8" width="11.01" height="11.01"/><rect class="cls-6" x="762.06" y="274.85" width="18.78" height="18.78"/><rect class="cls-6" x="402.3" y="130.94" width="8.13" height="8.13"/><rect class="cls-6" x="834.01" y="346.8" width="15.11" height="15.11"/><rect class="cls-6" x="258.39" y="130.94" width="15.25" height="15.25"/><rect class="cls-6" x="114.49" y="202.9" width="3.16" height="3.17"/><rect class="cls-6" x="258.39" y="346.8" width="6.69" height="6.69"/><rect class="cls-6" x="834.01" y="274.85" width="5.25" height="5.25"/><rect class="cls-6" x="330.34" y="130.94" width="5.9" height="5.9"/><rect class="cls-6" x="330.34" y="346.8" width="5.11" height="5.11"/><rect class="cls-6" x="114.49" y="346.8" width="4.17" height="4.17"/></g><g id="FOOTPRINT" class="cls-5"><rect class="cls-7" x="474.25" y="202.9" width="17.05" height="17.05"/><rect class="cls-7" x="618.15" y="202.9" width="8.99" height="8.99"/><rect class="cls-7" x="402.3" y="202.9" width="13.6" height="13.6"/><rect class="cls-7" x="330.34" y="202.9" width="16.55" height="16.55"/><rect class="cls-7" x="690.1" y="202.9" width="7.77" height="7.77"/><rect class="cls-7" x="762.06" y="202.9" width="16.04" height="16.05"/><rect class="cls-7" x="186.44" y="202.9" width="7.12" height="7.12"/><rect class="cls-7" x="834.01" y="202.9" width="19.72" height="19.71"/><rect class="cls-7" x="258.39" y="130.94" width="11.44" height="11.44"/><rect class="cls-7" x="114.49" y="202.9" width="12.3" height="12.31"/><rect class="cls-7" x="42.53" y="274.85" width="6.4" height="6.4"/><rect class="cls-7" x="114.49" y="274.85" width="12.01" height="12.01"/><rect class="cls-7" x="258.39" y="202.9" width="9.93" height="9.93"/><rect class="cls-7" x="258.28" y="562.66" width="13.6" height="13.6"/><rect class="cls-7" x="689.99" y="562.66" width="12.16" height="12.16"/><rect class="cls-7" x="618.04" y="562.66" width="8.42" height="8.42"/><rect class="cls-7" x="546.09" y="562.66" width="7.13" height="7.12"/><rect class="cls-7" x="330.34" y="130.94" width="13.39" height="13.38"/><rect class="cls-7" x="402.3" y="130.94" width="12.23" height="12.23"/><rect class="cls-7" x="474.25" y="130.94" width="9.57" height="9.57"/><rect class="cls-7" x="546.2" y="130.94" width="17.77" height="17.77"/><rect class="cls-7" x="618.15" y="130.94" width="13.96" height="13.96"/><rect class="cls-7" x="690.1" y="130.94" width="9.36" height="9.35"/><rect class="cls-7" x="762.06" y="130.94" width="6.69" height="6.69"/><rect class="cls-7" x="834.01" y="130.94" width="8.63" height="8.64"/><rect class="cls-7" x="42.53" y="202.9" width="11.29" height="11.3"/><rect class="cls-7" x="186.44" y="130.94" width="10.36" height="10.36"/><rect class="cls-7" x="474.14" y="562.66" width="7.27" height="7.26"/><rect class="cls-7" x="618.15" y="58.99" width="28.63" height="28.64"/><rect class="cls-7" x="402.18" y="562.66" width="10.36" height="10.36"/><rect class="cls-7" x="330.23" y="562.66" width="9.21" height="9.21"/><rect class="cls-7" x="186.44" y="274.85" width="14.68" height="14.68"/><rect class="cls-7" x="690.1" y="58.99" width="13.02" height="13.02"/><rect class="cls-7" x="762.06" y="58.99" width="7.12" height="7.12"/><rect class="cls-7" x="834.01" y="58.99" width="6.47" height="6.48"/><rect class="cls-7" x="42.53" y="130.94" width="13.89" height="13.89"/><rect class="cls-7" x="114.49" y="130.94" width="8.92" height="8.92"/><rect class="cls-7" x="546.2" y="58.99" width="17.34" height="17.34"/><rect class="cls-7" x="474.25" y="58.99" width="13.82" height="13.81"/><rect class="cls-7" x="402.3" y="58.99" width="7.91" height="7.91"/><rect class="cls-7" x="330.34" y="58.99" width="9.28" height="9.28"/><rect class="cls-7" x="258.39" y="58.99" width="14.1" height="14.1"/><rect class="cls-7" x="186.44" y="346.8" width="11.95" height="11.95"/><rect class="cls-7" x="186.44" y="418.75" width="13.81" height="13.81"/><rect class="cls-7" x="186.44" y="490.7" width="11.8" height="11.8"/><rect class="cls-7" x="186.44" y="58.99" width="18.06" height="18.06"/><rect class="cls-7" x="114.48" y="562.66" width="12.3" height="12.3"/><rect class="cls-7" x="42.53" y="562.66" width="20.65" height="20.65"/><rect class="cls-7" x="833.9" y="490.71" width="15.97" height="15.97"/><rect class="cls-7" x="618.15" y="490.7" width="7.99" height="7.99"/><rect class="cls-7" x="546.2" y="490.7" width="16.84" height="16.84"/><rect class="cls-7" x="474.25" y="490.7" width="13.09" height="13.1"/><rect class="cls-7" x="690.11" y="490.7" width="12.09" height="12.09"/><rect class="cls-7" x="761.95" y="490.71" width="20.51" height="20.51"/><rect class="cls-7" x="186.44" y="562.66" width="9.86" height="9.86"/><rect class="cls-7" x="402.3" y="490.7" width="11.01" height="11.01"/><rect class="cls-7" x="258.39" y="490.7" width="20.22" height="20.22"/><rect class="cls-7" x="114.49" y="490.71" width="7.62" height="7.62"/><rect class="cls-7" x="834.01" y="418.75" width="11.73" height="11.72"/><rect class="cls-7" x="762.06" y="418.75" width="8.27" height="8.27"/><rect class="cls-7" x="690.1" y="418.75" width="6.84" height="6.83"/><rect class="cls-7" x="546.2" y="418.75" width="17.34" height="17.34"/><rect class="cls-7" x="474.25" y="418.75" width="19.36" height="19.35"/><rect class="cls-7" x="402.3" y="418.75" width="10.21" height="10.21"/><rect class="cls-7" x="618.15" y="418.75" width="8.7" height="8.71"/><rect class="cls-7" x="42.53" y="490.71" width="4.25" height="4.24"/><rect class="cls-7" x="330.34" y="418.75" width="14.82" height="14.82"/><rect class="cls-7" x="258.39" y="418.75" width="8.27" height="8.27"/><rect class="cls-7" x="114.49" y="418.75" width="13.09" height="13.1"/><rect class="cls-7" x="834.01" y="346.8" width="8.2" height="8.21"/><rect class="cls-7" x="762.06" y="346.8" width="17.34" height="17.34"/><rect class="cls-7" x="690.1" y="346.8" width="14.46" height="14.46"/><rect class="cls-7" x="618.15" y="346.8" width="20.29" height="20.29"/><rect class="cls-7" x="474.25" y="346.8" width="11.8" height="11.8"/><rect class="cls-7" x="402.3" y="346.8" width="7.91" height="7.92"/><rect class="cls-7" x="546.2" y="346.8" width="7.77" height="7.77"/><rect class="cls-7" x="42.53" y="418.75" width="7.77" height="7.77"/><rect class="cls-7" x="330.34" y="346.8" width="17.05" height="17.05"/><rect class="cls-7" x="258.39" y="346.8" width="8.78" height="8.78"/><rect class="cls-7" x="114.49" y="346.8" width="11.29" height="11.3"/><rect class="cls-7" x="42.53" y="346.8" width="15.97" height="15.97"/><rect class="cls-7" x="834.01" y="274.85" width="6.69" height="6.69"/><rect class="cls-7" x="42.53" y="58.99" width="9.93" height="9.93"/><rect class="cls-7" x="762.06" y="274.85" width="17.2" height="17.2"/><rect class="cls-7" x="690.1" y="274.85" width="11.87" height="11.87"/><rect class="cls-7" x="618.15" y="274.85" width="13.74" height="13.74"/><rect class="cls-7" x="546.2" y="274.85" width="23.67" height="23.67"/><rect class="cls-7" x="474.25" y="274.85" width="14.17" height="14.17"/><rect class="cls-7" x="402.3" y="274.85" width="15.18" height="15.18"/><rect class="cls-7" x="330.34" y="274.85" width="7.56" height="7.56"/><rect class="cls-7" x="258.39" y="274.85" width="10.87" height="10.86"/><rect class="cls-7" x="114.48" y="58.99" width="7.77" height="7.77"/><rect class="cls-7" x="546.2" y="202.9" width="8.35" height="8.35"/></g><g id="FIGURES_-_FTPRINT" data-name="FIGURES - FTPRINT"><text class="cls-8" transform="translate(282.96 496.01)">7.9</text><text class="cls-8" transform="translate(128.27 496.01)">1.1</text><text class="cls-8" transform="translate(417.25 496.01)">2.3</text><text class="cls-8" transform="translate(204.16 567.96)">1.9</text><text class="cls-8" transform="translate(53.63 496.01)">0.5</text><text class="cls-8" transform="translate(850.1 424.06)">2.7</text><text class="cls-8" transform="translate(493.53 496.01)">3.3</text><text class="cls-8" transform="translate(775.46 424.06)">1.3</text><text class="cls-8" transform="translate(702.74 424.06)">0.9</text><text class="cls-8" transform="translate(568.28 496.01)">5.5</text><text class="cls-8" transform="translate(633.39 496.01)">1.2</text><text class="cls-8" transform="translate(569.59 424.06)">5.8</text><text class="cls-8" transform="translate(710.01 496.01)">2.8</text><text class="cls-8" transform="translate(790.25 496.01)">8.1</text><text class="cls-8" transform="translate(855.98 496.01)">4.9</text><text class="cls-8" transform="translate(499.94 424.06)">7.3</text><text class="cls-8" transform="translate(68.66 567.96)">8.2</text><text class="cls-8" transform="translate(142.48 567.96)">2.9</text><text class="cls-8" transform="translate(203.54 496.01)">2.7</text><text class="cls-8" transform="translate(206.44 424.06)">3.7</text><text class="cls-8" transform="translate(205.75 352.1)">2.8</text><text class="cls-8" transform="translate(632.32 424.06)">1.5</text><text class="cls-8" transform="translate(418.77 424.06)">2.0</text><text class="cls-8" transform="translate(213.96 280.15)">4.2</text><text class="cls-8" transform="translate(344.85 567.96)">1.7</text><text class="cls-8" transform="translate(414.31 567.96)">2.1</text><text class="cls-8" transform="translate(350.66 424.06)">4.3</text><text class="cls-8" transform="translate(486.27 567.96)">1.0</text><text class="cls-8" transform="translate(272.57 424.06)">1.3</text><text class="cls-8" transform="translate(558.21 567.96)">1.0</text><text class="cls-8" transform="translate(631.41 567.96)">1.4</text><text class="cls-8" transform="translate(706.18 567.96)">2.84</text><text class="cls-8" transform="translate(132.88 424.06)">3.3</text><text class="cls-8" transform="translate(276.2 567.96)">3.6</text><text class="cls-8" transform="translate(55.94 424.06)">1.2</text><text class="cls-8" transform="translate(276.25 208.2)">1.9</text><text class="cls-8" transform="translate(851.25 352.1)">1.3</text><text class="cls-8" transform="translate(131.9 280.15)">2.8</text><text class="cls-8" transform="translate(784.29 352.1)">5.8</text><text class="cls-8" transform="translate(54.04 280.15)">0.8</text><text class="cls-8" transform="translate(856.46 208.2)">7.5</text><text class="cls-8" transform="translate(710.04 352.1)">4.1</text><text class="cls-8" transform="translate(784.76 208.2)">5.0</text><text class="cls-8" transform="translate(702.85 208.2)">1.2</text><text class="cls-8" transform="translate(642.69 352.1)">8.0</text><text class="cls-8" transform="translate(633.39 208.2)">1.6</text><text class="cls-8" transform="translate(561.44 208.2)">1.4</text><text class="cls-8" transform="translate(492.26 352.1)">2.7</text><text class="cls-8" transform="translate(500.73 208.2)">5.6</text><text class="cls-8" transform="translate(416.08 352.1)">1.2</text><text class="cls-8" transform="translate(425.85 208.2)">3.6</text><text class="cls-8" transform="translate(353.39 208.2)">5.3</text><text class="cls-8" transform="translate(559.99 352.1)">1.2</text><text class="cls-8" transform="translate(198.57 208.2)">1.0</text><text class="cls-8" transform="translate(277.9 136.25)">2.5</text><text class="cls-8" transform="translate(352.49 352.1)">5.6</text><text class="cls-8" transform="translate(128.61 208.2)">2.9</text><text class="cls-8" transform="translate(274.19 352.1)">1.5</text><text class="cls-8" transform="translate(774.46 136.25)">0.9</text><text class="cls-8" transform="translate(132.11 352.1)">2.5</text><text class="cls-8" transform="translate(58.23 64.3)">1.9</text><text class="cls-8" transform="translate(65.15 352.1)">4.9</text><text class="cls-8" transform="translate(349.8 136.25)">3.5</text><text class="cls-8" transform="translate(419.76 136.25)">2.9</text><text class="cls-8" transform="translate(846.26 280.15)">0.9</text><text class="cls-8" transform="translate(489.35 136.25)">1.8</text><text class="cls-8" transform="translate(577.92 136.25)">6.1</text><text class="cls-8" transform="translate(783.91 280.15)">5.7</text><text class="cls-8" transform="translate(637.93 136.25)">3.8</text><text class="cls-8" transform="translate(129.96 64.3)">1.2</text><text class="cls-8" transform="translate(706.06 136.25)">1.7</text><text class="cls-8" transform="translate(706.96 280.15)">2.7</text><text class="cls-8" transform="translate(849.96 136.25)">1.4</text><text class="cls-8" transform="translate(636.16 280.15)">3.7</text><text class="cls-8" transform="translate(65.68 208.2)">2.5</text><text class="cls-8" transform="translate(572.66 280.15)">10.8</text><text class="cls-8" transform="translate(202.67 136.25)">2.1</text><text class="cls-8" transform="translate(649.88 64.3)">15.8</text><text class="cls-8" transform="translate(493.41 280.15)">3.9</text><text class="cls-8" transform="translate(421.84 280.15)">4.4</text><text class="cls-8" transform="translate(707.57 64.3)">3.3</text><text class="cls-8" transform="translate(777.82 64.3)">1.0</text><text class="cls-8" transform="translate(845.74 64.3)">0.8</text><text class="cls-8" transform="translate(61.08 136.25)">3.7</text><text class="cls-8" transform="translate(128.26 136.25)">1.5</text><text class="cls-8" transform="translate(567.79 64.3)">5.8</text><text class="cls-8" transform="translate(491 64.3)">3.7</text><text class="cls-8" transform="translate(416.72 64.3)">1.2</text><text class="cls-8" transform="translate(341.85 280.15)">1.1</text><text class="cls-8" transform="translate(344.59 64.3)">1.7</text><text class="cls-8" transform="translate(276.4 64.3)">3.8</text><text class="cls-8" transform="translate(276.22 280.15)">2.3</text><text class="cls-8" transform="translate(210.54 64.3)">6.3</text><g class="cls-9"><g class="cls-9"><g class="cls-5"><g class="cls-10"><rect class="cls-11" x="761.48" y="538.51" width="7.2" height="7.2"/></g></g></g><rect class="cls-12" x="761.48" y="552.76" width="7.2" height="7.2"/></g><text class="cls-13" transform="translate(777.63 545.71)">Ecological Footprint</text><text class="cls-13" transform="translate(777.99 560.2)">Biocapacity</text><text class="cls-3" transform="translate(778.8 573.62)">Unit: Global hectares per capita</text></g></g></svg>